<svg width="32" height="32" viewBox="0 0 32 32" fill="none" xmlns="http://www.w3.org/2000/svg">
<path d="M20.8552 29.646C20.8545 29.646 20.8548 29.646 20.854 29.646H1.51077C1.10328 29.646 0.772949 29.3157 0.772949 28.9082L0.772949 3.86252C0.772949 3.02939 1.44833 2.354 2.28146 2.354L29.7182 2.354C30.5514 2.354 31.2267 3.02939 31.2267 3.86252L31.2267 28.3248C31.2267 28.341 31.227 28.3563 31.2269 28.3724C31.226 28.548 31.1783 29.6527 30.1321 29.646C28.3771 29.6348 20.8797 29.646 20.8552 29.646Z" fill="#22303A"/>
<path fill-rule="evenodd" clip-rule="evenodd" d="M1.51082 30.419C0.676418 30.419 0 29.7425 0 28.9081L0 3.86246C0 2.6024 1.02147 1.58093 2.28151 1.58093L29.7183 1.58093C30.9783 1.58093 31.9998 2.60241 31.9998 3.86246L31.9998 28.3248C31.9998 28.3288 31.9998 28.3325 31.9999 28.3397L31.9999 28.343C32 28.3512 32.0001 28.3633 32 28.3766C31.9993 28.5008 31.986 28.9591 31.7683 29.4122C31.6546 29.6489 31.473 29.9095 31.1856 30.1092C30.8912 30.3139 30.533 30.4215 30.1272 30.4189C28.3762 30.4077 20.8834 30.4189 20.8564 30.419H1.51082ZM20.8558 29.646C20.9296 29.6458 28.383 29.6348 30.1321 29.646C31.1783 29.6527 31.226 28.5479 31.227 28.3723C31.227 28.3632 31.227 28.3542 31.2269 28.3453C31.2269 28.3385 31.2268 28.3317 31.2268 28.3248L31.2268 3.86246C31.2268 3.02933 30.5514 2.35394 29.7183 2.35394L2.28151 2.35394C1.44839 2.35394 0.773003 3.02932 0.773003 3.86246L0.773003 28.9081C0.773003 29.3156 1.10334 29.646 1.51082 29.646H20.8558Z" fill="black"/>
<path d="M17.5366 10.1162H5.83041C5.48973 10.1162 5.21436 9.84162 5.21436 9.50194C5.21436 9.16226 5.48973 8.8877 5.83041 8.8877H17.5366C17.8773 8.8877 18.1526 9.16226 18.1526 9.50194C18.1526 9.84162 17.8773 10.1162 17.5366 10.1162Z" fill="#66D1FF"/>
<path d="M19.3838 12.573H7.06161C6.72093 12.573 6.44556 12.2984 6.44556 11.9587C6.44556 11.6191 6.72093 11.3445 7.06161 11.3445H19.3838C19.7245 11.3445 19.9999 11.6191 19.9999 11.9587C19.9999 12.2984 19.7245 12.573 19.3838 12.573Z" fill="#51E199"/>
<path d="M15.6888 24.8656H7.06161C6.72093 24.8656 6.44556 24.591 6.44556 24.2513C6.44556 23.9117 6.72093 23.6371 7.06161 23.6371H15.6888C16.0294 23.6371 16.3048 23.9117 16.3048 24.2513C16.3048 24.591 16.0288 24.8656 15.6888 24.8656Z" fill="#51E199"/>
<path d="M23.0811 12.573H21.849C21.5083 12.573 21.2329 12.2984 21.2329 11.9587C21.2329 11.6191 21.5083 11.3445 21.849 11.3445H23.0811C23.4217 11.3445 23.6971 11.6191 23.6971 11.9587C23.6971 12.2984 23.4217 12.573 23.0811 12.573Z" fill="#51E199"/>
<path d="M9.52671 27.3153H5.83041C5.48973 27.3153 5.21436 27.0407 5.21436 26.701C5.21436 26.3614 5.48973 26.0868 5.83041 26.0868H9.52671C9.86738 26.0868 10.1428 26.3614 10.1428 26.701C10.1428 27.0407 9.86738 27.3153 9.52671 27.3153Z" fill="#66D1FF"/>
<path d="M26.1696 15.0315H13.2313C12.8906 15.0315 12.6152 14.7569 12.6152 14.4172C12.6152 14.0775 12.8906 13.803 13.2313 13.803H26.1696C26.5102 13.803 26.7856 14.0775 26.7856 14.4172C26.7856 14.7569 26.5102 15.0315 26.1696 15.0315Z" fill="#EB5757"/>
<path d="M16.3024 17.4847H8.29256C7.95189 17.4847 7.67651 17.2102 7.67651 16.8705C7.67651 16.5308 7.95189 16.2562 8.29256 16.2562H16.3024C16.6431 16.2562 16.9185 16.5308 16.9185 16.8705C16.9185 17.2102 16.6431 17.4847 16.3024 17.4847Z" fill="#FFC757"/>
<path d="M21.2358 22.4035H8.29256C7.95189 22.4035 7.67651 22.129 7.67651 21.7893C7.67651 21.4496 7.95189 21.175 8.29256 21.175H21.2358C21.5764 21.175 21.8518 21.4496 21.8518 21.7893C21.8518 22.129 21.5758 22.4035 21.2358 22.4035Z" fill="#EB5757"/>
<path d="M21.2396 19.9414H12.6156C12.2749 19.9414 11.9995 19.6668 11.9995 19.3271C11.9995 18.9875 12.2749 18.7129 12.6156 18.7129H21.2396C21.5803 18.7129 21.8557 18.9875 21.8557 19.3271C21.8557 19.6668 21.5803 19.9414 21.2396 19.9414Z" fill="#FFC757"/>
<path d="M10.1413 19.9414H8.29256C7.95189 19.9414 7.67651 19.6668 7.67651 19.3271C7.67651 18.9875 7.95189 18.7129 8.29256 18.7129H10.1413C10.482 18.7129 10.7574 18.9875 10.7574 19.3271C10.7574 19.6668 10.482 19.9414 10.1413 19.9414Z" fill="#FFC757"/>
<path d="M10.7568 15.0315H8.29256C7.95189 15.0315 7.67651 14.7569 7.67651 14.4172C7.67651 14.0775 7.95189 13.803 8.29256 13.803H10.7568C11.0974 13.803 11.3728 14.0775 11.3728 14.4172C11.3728 14.7569 11.0974 15.0315 10.7568 15.0315Z" fill="#EB5757"/>
<path d="M3.36488 5.70623C2.87622 5.70623 2.47681 5.31239 2.47681 4.82516C2.47681 4.33793 2.86738 3.94409 3.35516 3.94409H3.36488C3.85266 3.94409 4.24854 4.33793 4.24854 4.82516C4.24854 5.31239 3.85266 5.70623 3.36488 5.70623Z" fill="#FFC757"/>
<path d="M6.01381 5.70623C5.52515 5.70623 5.12573 5.31239 5.12573 4.82516C5.12573 4.33793 5.51631 3.94409 6.00409 3.94409H6.01381C6.50158 3.94409 6.89746 4.33793 6.89746 4.82516C6.89746 5.31239 6.50158 5.70623 6.01381 5.70623Z" fill="#2CD37F"/>
<path d="M8.66249 5.70623C8.17383 5.70623 7.77441 5.31239 7.77441 4.82516C7.77441 4.33793 8.16499 3.94409 8.65277 3.94409H8.66249C9.15027 3.94409 9.54614 4.33793 9.54614 4.82516C9.54614 5.31239 9.15027 5.70623 8.66249 5.70623Z" fill="#EB5757"/>
</svg>
