<svg width="32" height="32" viewBox="0 0 32 32" fill="none" xmlns="http://www.w3.org/2000/svg">
<ellipse cx="15.8578" cy="16.4065" rx="7.40027" ry="7.72532" fill="white"/>
<path d="M29.2431 11.4503L27.6404 9.9563L24.3751 11.2664L23.9308 13.1804L22.2231 21.2672L27.7681 23.7889L28.4562 22.8615C29.4056 20.8288 29.9381 18.5447 29.9381 16.1304C29.9381 14.4987 29.6936 12.9266 29.2431 11.4503Z" fill="#FE7D43"/>
<path d="M23.5337 20.2861L21.5876 21.2674L16.5845 24.9463L18.8143 30.1397L20.4063 30.5515V30.5521C23.9637 29.1711 26.8263 26.3526 28.4757 22.819L23.5337 20.2861Z" fill="#EE6161"/>
<path d="M18.5011 25.0945L17.4395 24.3178L11.0957 23.312L8.04785 28.4237L9.45079 30.2683V30.269C11.2354 31.0703 13.2019 31.514 15.2676 31.514C17.0752 31.514 18.8064 31.1746 20.4068 30.552V30.5514L18.5011 25.0945Z" fill="#C2A1D5"/>
<path d="M11.3884 23.1813L7.86233 17.3989L1.70996 19.386V22.1685C3.19488 25.798 5.97855 28.7104 9.451 30.2689V30.2683L11.6805 24.9461L11.3884 23.1813Z" fill="#8AC9FE"/>
<path d="M3.13633 8.79834L1.46576 10.7309H1.46514C0.861369 12.4112 0.53125 14.2308 0.53125 16.1308C0.53125 18.2743 0.951345 20.3148 1.70963 22.1687H1.71025L6.8426 19.9248L7.51364 18.3157L7.91654 10.4008L3.13633 8.79834Z" fill="#75CDD5"/>
<path d="M11.8198 2.27783H8.85143C5.46213 3.99186 2.79698 7.02087 1.46533 10.7307H1.46595L6.66284 12.8049L10.0608 11.0091L14.5545 6.78929L11.8198 2.27783Z" fill="#6CF5C2"/>
<path d="M23.9962 13.1806L23.724 11.917L20.3694 12.8048L20.1887 14.421C20.3606 14.9581 20.4531 15.5333 20.4531 16.1305C20.4531 16.9571 20.2756 17.7396 19.9585 18.4399L20.0311 19.7294L22.223 20.947L23.5339 20.286C24.1147 19.0294 24.4405 17.6198 24.4405 16.1305C24.4405 15.1012 24.2842 14.1101 23.9962 13.1806Z" fill="#FD6930"/>
<path d="M19.9583 18.4399C19.3917 19.6921 18.379 20.6806 17.1342 21.182L16.6558 22.1216L17.6531 24.7879L18.5006 25.0946C20.7116 24.2253 22.5154 22.4912 23.5337 20.2861L19.9583 18.4399Z" fill="#E94444"/>
<path d="M17.1345 21.182C16.5556 21.4159 15.9257 21.5441 15.2674 21.5441C14.5625 21.5441 13.891 21.3977 13.2786 21.1309L12.2321 21.2493L10.9873 23.8984L11.6801 24.9463C12.7822 25.436 13.9947 25.7068 15.2674 25.7068C16.4054 25.7068 17.4951 25.4904 18.5009 25.0946L17.1345 21.182Z" fill="#A274BF"/>
<path d="M10.5219 18.3156L9.70308 17.6975L7.03104 18.6641L6.84277 19.9246C7.77542 22.1796 9.51413 23.9849 11.6804 24.9462L13.2789 21.1308C12.0496 20.5983 11.0586 19.5846 10.5219 18.3156Z" fill="#26A6FE"/>
<path d="M22.332 2.62757C20.2346 1.42918 17.827 0.74707 15.2673 0.74707C12.967 0.74707 10.7902 1.29704 8.85107 2.27777L11.2407 7.52479L13.6148 8.63625L21.0846 9.95642L23.2582 5.14148L22.332 2.62757Z" fill="#FEE97D"/>
<path d="M31.5497 10.2619C31.6236 10.4841 31.5057 10.7258 31.291 10.7957L29.2805 11.4506L25.4723 12.6911C24.621 9.92899 22.7731 7.63391 20.3691 6.26839L22.3039 2.62787L23.3278 0.701371C23.4358 0.49732 23.684 0.425417 23.877 0.542665C27.4363 2.69653 30.1896 6.14078 31.5497 10.2619Z" fill="#FEC165"/>
<path d="M10.0817 16.1307C10.0817 15.4849 10.1897 14.8656 10.3889 14.2917L10.3431 12.0352H8.11944L6.66264 12.805C6.29529 13.8408 6.09424 14.9615 6.09424 16.1307C6.09424 17.4788 6.36106 18.7614 6.84259 19.9248L10.5217 18.3157C10.2387 17.6478 10.0817 16.9087 10.0817 16.1307Z" fill="#2ABCC8"/>
<path d="M13.1023 8.15286L11.2408 7.5249C9.13539 8.59892 7.48293 10.4911 6.6626 12.805L10.3888 14.2916C10.8431 12.9792 11.7689 11.9026 12.9535 11.2853V11.2846L13.8071 10.2813L13.1023 8.15286Z" fill="#00F2A6"/>
<path d="M19.6333 7.70644L19.6325 7.70631C18.3344 6.97179 16.8477 6.55469 15.2673 6.55469C13.8227 6.55469 12.4563 6.90319 11.2407 7.52506L12.9534 11.2854C13.6496 10.9227 14.4358 10.7173 15.2673 10.7173C16.146 10.7173 16.9731 10.9453 17.6979 11.3483L19.003 11.4153L20.28 9.63792L19.6333 7.70644Z" fill="#FEDF30"/>
<path d="M25.4729 12.691L23.9687 13.1808L20.189 14.4213C19.7664 13.094 18.8433 11.9835 17.6768 11.3363L19.6058 7.70638L20.3697 6.26831C22.7736 7.63383 24.6215 9.92891 25.4729 12.691Z" fill="#FDB441"/>
<path d="M31.9523 10.1035C30.5655 5.90258 27.7672 2.3578 24.0729 0.121992C23.8706 -0.000373697 23.635 -0.0319853 23.4093 0.0330517C23.1835 0.0981536 22.9966 0.251742 22.8831 0.465445L22.0803 1.97607C19.9612 0.853011 17.5931 0.261394 15.2017 0.261394C11.1411 0.261394 7.32373 1.91207 4.45245 4.90941C1.58122 7.90675 0 11.8918 0 16.1307C0 20.3696 1.58122 24.3546 4.45245 27.352C7.32367 30.3493 11.1411 32 15.2017 32C18.6256 32 21.8587 30.8394 24.5516 28.6436C24.7541 28.4784 24.7901 28.1731 24.6319 27.9617C24.4736 27.7502 24.1812 27.7127 23.9786 27.8779C22.9366 28.7276 21.8081 29.4117 20.6167 29.9228L19.0255 25.3662C21.0055 24.4694 22.6429 22.8989 23.6701 20.9328L27.8295 23.0806C27.195 24.3334 26.3847 25.4975 25.4117 26.5377C25.2321 26.7297 25.2357 27.0372 25.4195 27.2247C25.51 27.3169 25.6274 27.3629 25.7446 27.3629C25.8655 27.3629 25.9864 27.314 26.0776 27.2165C28.8671 24.2346 30.4034 20.2975 30.4034 16.1306C30.4034 14.649 30.2071 13.185 29.8208 11.7713L31.3922 11.2594C31.6173 11.186 31.7999 11.0246 31.9064 10.8047C32.0127 10.5852 32.0291 10.3361 31.9523 10.1035ZM21.6284 2.82641L19.3778 7.0614C18.0823 6.41141 16.6483 6.06854 15.2016 6.06854C13.8767 6.06854 12.5865 6.34942 11.3978 6.88267L9.40565 2.50835C11.2065 1.67258 13.1716 1.23293 15.2016 1.23293C17.4355 1.233 19.6472 1.78277 21.6284 2.82641ZM23.9096 16.1307C23.9096 17.3688 23.6709 18.5497 23.2396 19.6264L20.4909 18.207C20.7245 17.5609 20.8527 16.8611 20.8527 16.1307C20.8527 15.6532 20.7977 15.189 20.6947 14.7441L23.6167 13.7923C23.8101 14.5528 23.9096 15.337 23.9096 16.1307ZM15.2016 22.0299C15.7518 22.0299 16.2837 21.947 16.787 21.7933L17.8355 24.7957C17.0042 25.0717 16.1194 25.2211 15.2016 25.2211C14.1604 25.2211 13.1613 25.0291 12.2349 24.6776L13.4638 21.7442C14.0211 21.9321 14.6061 22.0299 15.2016 22.0299ZM15.2016 21.0582C14.268 21.0582 13.365 20.7736 12.5902 20.2352C12.3762 20.0866 12.0874 20.1471 11.945 20.3704C11.8026 20.5938 11.8606 20.8954 12.0745 21.044C12.2462 21.1634 12.4231 21.2721 12.6045 21.3703L11.3785 24.2967C9.66063 23.4167 8.25955 21.9631 7.40527 20.1765L10.2327 18.9401C10.3225 19.1128 10.4203 19.2818 10.5272 19.4458C10.6718 19.6676 10.9612 19.725 11.1738 19.574C11.3862 19.4231 11.4413 19.1209 11.2966 18.899C10.7632 18.0809 10.4813 17.1236 10.4813 16.1306C10.4813 13.4136 12.5988 11.2031 15.2015 11.2031C17.8043 11.2031 19.9217 13.4136 19.9217 16.1306C19.9217 18.8477 17.8044 21.0582 15.2016 21.0582ZM6.49366 16.1307C6.49366 15.2086 6.62571 14.3032 6.88198 13.4389L9.74837 14.5829C9.61973 15.0764 9.55061 15.5952 9.55061 16.1307C9.55061 16.7909 9.65517 17.4379 9.85721 18.0508L7.03457 19.2851C6.68509 18.3019 6.49366 17.2392 6.49366 16.1307ZM15.2016 10.2315C14.4642 10.2315 13.7595 10.3799 13.1131 10.6493L11.7977 7.76087C12.8626 7.28857 14.0168 7.04028 15.2016 7.04028C16.4908 7.04028 17.7684 7.34117 18.9256 7.91238L17.4372 10.7133C16.7512 10.4035 15.9954 10.2315 15.2016 10.2315ZM20.4016 13.8218C19.9554 12.731 19.2033 11.8081 18.2584 11.1712L20.5096 6.93495C22.5094 8.19294 24.0253 10.099 24.8377 12.3767L20.4016 13.8218ZM5.11064 5.59651C6.1448 4.51692 7.31002 3.62428 8.56838 2.93297L10.5615 7.30949C9.85342 7.71637 9.19077 8.2182 8.59016 8.80949C8.40314 8.99359 8.39457 9.30103 8.57086 9.49627C8.66245 9.59758 8.78581 9.64876 8.90948 9.64876C9.02403 9.64876 9.13883 9.60484 9.22874 9.51635C9.7578 8.99547 10.3403 8.55155 10.9621 8.18898L12.28 11.0828C11.3167 11.6926 10.5413 12.5944 10.0666 13.6696L7.20478 12.5274C7.42072 12.006 7.68438 11.504 7.99446 11.0277C8.13892 10.8058 8.08369 10.5036 7.87116 10.3528C7.65851 10.2021 7.36909 10.2597 7.22464 10.4815C6.87373 11.0205 6.57712 11.5894 6.33512 12.1803L2.00076 10.4505C2.7089 8.65681 3.7569 7.00964 5.11064 5.59651ZM1.67517 11.3609L6.01157 13.0916C5.71608 14.0665 5.56294 15.0888 5.56294 16.1308C5.56294 17.3724 5.78006 18.5618 6.1757 19.6608L1.89427 21.5329C1.26177 19.8335 0.930786 18.0087 0.930786 16.1307C0.930786 14.4836 1.18588 12.8775 1.67517 11.3609ZM2.2602 22.4265L6.5451 20.5527C7.49382 22.5684 9.06939 24.2066 11.0052 25.188L9.14503 29.6283C7.66496 28.9034 6.30105 27.9077 5.11064 26.6649C3.91333 25.415 2.95562 23.9818 2.2602 22.4265ZM19.7443 30.2618C18.2983 30.7678 16.7714 31.0283 15.2016 31.0283C13.3929 31.0283 11.6358 30.6788 10.0004 30.0116L11.8613 25.5695C12.9026 25.9723 14.0278 26.1928 15.2016 26.1928C16.2312 26.1928 17.2234 26.0227 18.1544 25.7092L19.7443 30.2618ZM18.706 24.4516L17.6558 21.444C18.6754 20.9287 19.525 20.1028 20.0914 19.0848L22.8348 20.5015C21.9145 22.246 20.4615 23.6427 18.706 24.4516ZM29.4725 16.1307C29.4725 18.2563 29.0457 20.3179 28.2366 22.2069L24.0756 20.0582C24.5677 18.8509 24.8403 17.5234 24.8403 16.1308C24.8403 15.2386 24.7279 14.3568 24.5068 13.5024L28.9319 12.0609C29.2904 13.3808 29.4725 14.7474 29.4725 16.1307ZM25.727 12.087C24.8416 9.56992 23.1706 7.46548 20.9612 6.085L23.6644 0.998114C27.1167 3.1067 29.736 6.42437 31.05 10.353L25.727 12.087Z" fill="black"/>
</svg>
