<svg width="32" height="32" viewBox="0 0 32 32" fill="none" xmlns="http://www.w3.org/2000/svg">
<g clip-path="url(#clip0)">
<path d="M9.00278 10.6079C9.15555 10.6079 9.24553 10.4364 9.15873 10.3107L5.01886 4.31499C4.94352 4.20588 4.7823 4.20588 4.70696 4.31499L0.567092 10.3107C0.480294 10.4364 0.570276 10.6079 0.723038 10.6079H1.82133C1.92599 10.6079 2.01084 10.6927 2.01084 10.7974V32.9411C2.01084 33.0458 2.09568 33.1306 2.20034 33.1306H7.52548C7.63014 33.1306 7.71499 33.0458 7.71499 32.9411V10.7974C7.71499 10.6927 7.79983 10.6079 7.90449 10.6079H9.00278Z" fill="#79BBE8"/>
<path fill-rule="evenodd" clip-rule="evenodd" d="M0.567092 10.3107C0.480294 10.4364 0.570276 10.6079 0.723038 10.6079H1.82133C1.92599 10.6079 2.01084 10.6927 2.01084 10.7974V32.9411C2.01084 33.0458 2.09568 33.1306 2.20034 33.1306H7.52548C7.63014 33.1306 7.71499 33.0458 7.71499 32.9411V10.7974C7.71499 10.6927 7.79983 10.6079 7.90449 10.6079H9.00278C9.15555 10.6079 9.24553 10.4364 9.15873 10.3107L5.01886 4.31499C4.94352 4.20588 4.7823 4.20588 4.70696 4.31499L0.567092 10.3107ZM4.86291 6.09031L7.29813 9.61719C6.87045 9.83738 6.57794 10.2832 6.57794 10.7974V31.9936H3.14788V10.7974C3.14788 10.2832 2.85537 9.83738 2.42769 9.61719L4.86291 6.09031Z" fill="black"/>
<path d="M12.7034 25.7683C12.8562 25.7683 12.9462 25.5968 12.8594 25.4711L8.71953 19.4756C8.64419 19.3665 8.48298 19.3665 8.40764 19.4756L4.26778 25.4711C4.18098 25.5968 4.27096 25.7683 4.42372 25.7683H5.522C5.62666 25.7683 5.71151 25.8531 5.71151 25.9578V32.8561C5.71151 32.9608 5.79636 33.0456 5.90102 33.0456H11.2262C11.3308 33.0456 11.4157 32.9608 11.4157 32.8561V25.9578C11.4157 25.8531 11.5005 25.7683 11.6052 25.7683H12.7034Z" fill="#F74866"/>
<path fill-rule="evenodd" clip-rule="evenodd" d="M4.26778 25.4711C4.18098 25.5968 4.27096 25.7683 4.42372 25.7683H5.522C5.62666 25.7683 5.71151 25.8531 5.71151 25.9578V32.8561C5.71151 32.9608 5.79636 33.0456 5.90102 33.0456H11.2262C11.3308 33.0456 11.4157 32.9608 11.4157 32.8561V25.9578C11.4157 25.8531 11.5005 25.7683 11.6052 25.7683H12.7034C12.8562 25.7683 12.9462 25.5968 12.8594 25.4711L8.71953 19.4756C8.64419 19.3665 8.48298 19.3665 8.40764 19.4756L4.26778 25.4711ZM8.56358 21.2509L10.9988 24.7776C10.5711 24.9978 10.2786 25.4436 10.2786 25.9578V31.9086H6.84856V25.9578C6.84856 25.4436 6.55606 24.9978 6.12839 24.7776L8.56358 21.2509Z" fill="black"/>
<path d="M31.0726 6.43842C31.2254 6.43842 31.3153 6.26694 31.2285 6.14124L27.0887 0.145793C27.0133 0.0366887 26.8521 0.0366886 26.7768 0.145793L22.6369 6.14124C22.5501 6.26694 22.6401 6.43842 22.7929 6.43842H23.8911C23.9958 6.43842 24.0807 6.52327 24.0807 6.62793V32.8287C24.0807 32.9334 24.1655 33.0182 24.2702 33.0182H29.595C29.6997 33.0182 29.7845 32.9334 29.7845 32.8287V6.62793C29.7845 6.52327 29.8694 6.43842 29.974 6.43842H31.0726Z" fill="#FFC627"/>
<path fill-rule="evenodd" clip-rule="evenodd" d="M22.6369 6.14124C22.5501 6.26694 22.6401 6.43842 22.7929 6.43842H23.8911C23.9958 6.43842 24.0807 6.52327 24.0807 6.62793V32.8287C24.0807 32.9334 24.1655 33.0182 24.2702 33.0182H29.595C29.6997 33.0182 29.7845 32.9334 29.7845 32.8287V6.62793C29.7845 6.52327 29.8694 6.43842 29.974 6.43842H31.0726C31.2254 6.43842 31.3153 6.26694 31.2285 6.14124L27.0887 0.145793C27.0133 0.0366887 26.8521 0.0366886 26.7768 0.145793L22.6369 6.14124ZM26.9327 1.92107L29.3678 5.44767C28.9401 5.66783 28.6475 6.11371 28.6475 6.62793V31.8812H25.2177V6.62793C25.2177 6.11379 24.9252 5.66796 24.4975 5.44777L26.9327 1.92107Z" fill="black"/>
<path d="M23.3348 12.7761H22.8423V15.7311H23.3348C24.1508 15.7311 24.8123 15.0697 24.8123 14.2536C24.8123 13.4376 24.1503 12.7761 23.3348 12.7761Z" fill="#FEDAC6"/>
<path d="M11.022 14.2536C11.022 15.0697 11.6834 15.7311 12.4995 15.7311H12.9919V12.7761H12.4995C11.6834 12.7761 11.022 13.4375 11.022 14.2536Z" fill="#F5C4B0"/>
<path d="M23.3347 12.7761L23.9158 9.78661C24.1064 8.65189 23.3406 7.57774 22.2059 7.38717C22.0906 7.36798 21.9739 7.35861 21.8572 7.35861C21.5627 6.47701 20.7377 5.8821 19.8084 5.88112H13.9771L12.9921 4.40356L12.4996 4.89604C11.1398 6.25585 11.1394 8.46027 12.4987 9.82008C12.4992 9.8206 12.4992 9.82106 12.4996 9.82106H21.3647L23.3347 12.7761Z" fill="#A15D30"/>
<path d="M21.6887 23.7139L21.2658 23.6605V20.2666H15.0006V23.6605L14.5776 23.7139L18.1332 25.5999L21.6887 23.7139Z" fill="#FEDAC6"/>
<path d="M20.9776 23.0796V20.2666H14.5776V23.0796C16.9776 24.0697 18.5777 24.0697 20.9776 23.0796Z" fill="#F5C4B0"/>
<path fill-rule="evenodd" clip-rule="evenodd" d="M23.6091 24.2602L17.8439 28.5096L12.0786 24.2602L14.0795 23.9093V19.2852H21.6082V23.9093L23.6091 24.2602ZM20.8311 20.2879H14.8566V24.785L14.4533 24.8557L17.8439 27.3548L21.2344 24.8557L20.8311 24.785V20.2879Z" fill="black"/>
<path d="M23.3346 12.7761V15.5833C23.3341 16.9727 22.98 18.3384 22.3053 19.5529C21.4197 21.1462 19.7398 22.1341 17.9171 22.1337C16.0943 22.1342 14.4144 21.1462 13.5289 19.5529C12.8541 18.3384 12.5 16.9727 12.4995 15.5833V9.82104H21.3645L23.3346 12.7761Z" fill="#FEDAC6"/>
<path d="M14.4695 9.82104H12.4995V15.5833C12.5 16.9727 12.8541 18.3384 13.5289 19.5529C14.0213 20.4345 14.7705 21.1457 15.6762 21.5919C13.9771 16.7161 14.4695 9.82104 14.4695 9.82104Z" fill="#F5C4B0"/>
<path d="M11.5838 6.53125C11.2912 7.71274 11.6389 8.96075 12.4998 9.82115H20.3799C14.785 9.82115 12.4998 7.85112 11.5838 6.53125Z" fill="#8F4F24"/>
<path d="M23.3348 16.2238H22.8423V15.2387H23.3348C23.878 15.2387 24.3198 14.797 24.3198 14.2537C24.3198 13.7105 23.878 13.2687 23.3348 13.2687H22.8423V12.2837H23.3348C24.4212 12.2837 25.3048 13.1673 25.3048 14.2537C25.3048 15.3402 24.4212 16.2238 23.3348 16.2238Z" fill="black"/>
<path d="M12.9923 16.2238H12.4998C11.4134 16.2238 10.5298 15.3402 10.5298 14.2537C10.5298 13.1673 11.4134 12.2837 12.4998 12.2837H12.9923V13.2687H12.4998C11.9566 13.2687 11.5148 13.7105 11.5148 14.2537C11.5148 14.797 11.9566 15.2387 12.4998 15.2387H12.9923V16.2238Z" fill="black"/>
<path d="M18.4099 17.2087H16.9324C16.7777 17.2087 16.6324 17.1363 16.5394 17.0127C16.4463 16.8891 16.4162 16.7296 16.4591 16.5808L17.4441 13.1333L18.3912 13.4042L17.585 16.2237H18.4094V17.2087H18.4099Z" fill="black"/>
<path d="M17.9183 22.6261C17.9173 22.6261 17.9163 22.6261 17.9154 22.6261C15.9158 22.6261 14.0699 21.5406 13.0982 19.7918C12.3846 18.5078 12.0073 17.0524 12.0068 15.5838V9.82109C12.0068 9.54925 12.2275 9.32861 12.4993 9.32861H21.3643C21.5288 9.32861 21.6825 9.41087 21.7741 9.5478L23.7441 12.5028C23.7978 12.5835 23.8268 12.6786 23.8268 12.7761V15.5834C23.8263 17.052 23.4486 18.5074 22.7355 19.7918C21.7643 21.5401 19.9183 22.6261 17.9183 22.6261ZM17.9168 21.6411C17.9173 21.6411 17.9178 21.6411 17.9178 21.6411C19.5608 21.6411 21.0767 20.7492 21.8746 19.3136C22.5069 18.1749 22.8414 16.885 22.8418 15.5829V12.9248L21.1008 10.3136H12.9923V15.5833C12.9928 16.8855 13.3272 18.1754 13.9595 19.3136C14.7574 20.7497 16.2733 21.6411 17.9158 21.6411C17.9163 21.6411 17.9168 21.6411 17.9168 21.6411Z" fill="black"/>
<path d="M14.964 14.7462C15.508 14.7462 15.949 14.3051 15.949 13.7611C15.949 13.2171 15.508 12.7761 14.964 12.7761C14.42 12.7761 13.979 13.2171 13.979 13.7611C13.979 14.3051 14.42 14.7462 14.964 14.7462Z" fill="black"/>
<path d="M20.8742 14.7462C21.4182 14.7462 21.8592 14.3051 21.8592 13.7611C21.8592 13.2171 21.4182 12.7761 20.8742 12.7761C20.3302 12.7761 19.8892 13.2171 19.8892 13.7611C19.8892 14.3051 20.3302 14.7462 20.8742 14.7462Z" fill="black"/>
<path d="M23.8205 13.3499L22.8488 13.1879L23.43 9.70594C23.5004 9.28635 23.4034 8.86474 23.1566 8.51902C22.9098 8.1733 22.5434 7.94377 22.1243 7.87337C22.0366 7.85857 21.9371 7.84776 21.8578 7.85169C21.8573 7.85169 21.8573 7.85169 21.8569 7.85169C21.6451 7.85169 21.4565 7.71626 21.39 7.51534C21.162 6.83321 20.5261 6.37472 19.8076 6.37373H13.9774C13.8129 6.37373 13.6592 6.29148 13.5676 6.15455L12.9155 5.17693L12.8476 5.24439C12.2832 5.80877 11.9719 6.55986 11.9719 7.35823C11.9719 8.15706 12.2827 8.90763 12.8471 9.47207L12.1512 10.1695C10.6013 8.61908 10.6013 6.09744 12.1512 4.54804L12.6437 4.05556C12.7481 3.95163 12.8939 3.89845 13.0406 3.91371C13.1874 3.92799 13.3199 4.00775 13.4016 4.13041L14.2408 5.38878H19.8086C20.8374 5.38976 21.7589 5.98027 22.1972 6.88795C22.2277 6.89188 22.2573 6.89633 22.2878 6.90124C22.967 7.015 23.5605 7.38638 23.9599 7.94683C24.3593 8.50729 24.5164 9.18942 24.4021 9.86808L23.8205 13.3499Z" fill="black"/>
<path d="M16.3555 34.4383L16.9129 28.3061L16.3555 26.6337L18.0279 25.5188L19.7002 26.6337L19.1428 28.3061L19.7002 34.4383" fill="#2E6AA3"/>
<path d="M16.7374 34.489L15.627 34.3875L16.1739 28.3719L15.6532 26.8099L16.7107 26.457L17.2681 28.1294C17.2921 28.2024 17.3016 28.28 17.2943 28.3563L16.7374 34.489Z" fill="black"/>
<path d="M18.9712 34.489L18.4138 28.3568C18.4071 28.2799 18.416 28.2029 18.4405 28.1299L18.998 26.4575L20.0549 26.8104L19.5343 28.3724L20.0812 34.388L18.9712 34.489Z" fill="black"/>
<path d="M19.8476 25.6445C19.6539 25.5228 19.6539 25.2405 19.8476 25.1188L20.5148 24.6998L20.3127 25.4612C20.259 25.6634 20.0248 25.7557 19.8476 25.6445Z" fill="#EAEAEA" stroke="black" stroke-width="2.5"/>
<path d="M15.8629 25.6449C15.6855 25.7562 15.451 25.6638 15.3973 25.4614L15.1948 24.6991L15.8629 25.1184C16.057 25.2402 16.057 25.523 15.8629 25.6449Z" fill="#EAEAEA" stroke="black" stroke-width="2.5"/>
<path fill-rule="evenodd" clip-rule="evenodd" d="M19.63 18.0889C19.8658 18.138 20.0171 18.369 19.968 18.6048C19.887 18.9937 19.628 19.2899 19.3347 19.4957C19.0393 19.703 18.6762 19.8435 18.3086 19.9169C17.6078 20.0568 16.7017 19.9806 16.1795 19.3952C16.0192 19.2155 16.0349 18.9398 16.2146 18.7795C16.3943 18.6192 16.67 18.6349 16.8304 18.8146C17.0468 19.0572 17.5564 19.1776 18.1379 19.0616C18.4114 19.007 18.656 18.9064 18.8337 18.7817C19.0135 18.6556 19.0928 18.5292 19.1141 18.4269C19.1633 18.1911 19.3942 18.0398 19.63 18.0889Z" fill="black"/>
</g>
<defs>
<clipPath id="clip0">
<rect width="32" height="32" fill="white"/>
</clipPath>
</defs>
</svg>
