<svg width="32" height="32" viewBox="0 0 32 32" fill="none" xmlns="http://www.w3.org/2000/svg">
<g clip-path="url(#clip0)">
<path d="M25.6 13.8667V17.0667C25.5994 17.423 25.5798 17.7791 25.5413 18.1333C25.0013 22.9953 20.8918 26.6736 16 26.6736C11.1081 26.6736 6.99865 22.9953 6.45866 18.1333C6.42022 17.7791 6.40063 17.423 6.39999 17.0667V13.8667C7.30277 12.9516 8.11045 11.9473 8.81066 10.8693C11.3547 11.1413 17.0613 11.3493 21.8667 8.54934C22.8208 10.5088 24.081 12.3038 25.6 13.8667Z" fill="#FFE0B2"/>
<path d="M21.8666 8.54934C21.4501 8.792 21.0256 9.00427 20.5978 9.20374C21.5053 10.9113 22.6508 12.4813 24 13.8667V17.0667C23.9993 17.423 23.9798 17.7791 23.9413 18.1333C23.436 22.6923 19.7715 26.2543 15.2 26.6299C15.4666 26.6523 15.7296 26.6667 16 26.6667C20.8886 26.6649 24.996 22.9914 25.5413 18.1333C25.5798 17.7791 25.5993 17.423 25.6 17.0667V13.8667C24.081 12.3038 22.8208 10.5088 21.8666 8.54934Z" fill="#DFC49C"/>
<path d="M18.6666 26.288V27.7333C18.6666 28.617 17.9503 29.3333 17.0666 29.3333H14.9333C14.0508 29.3307 13.3359 28.6159 13.3333 27.7333V26.288C15.0752 26.7929 16.9247 26.7929 18.6666 26.288Z" fill="#FFE0B2"/>
<path d="M17.0666 26.6011V27.7333C17.0666 28.617 16.3503 29.3333 15.4666 29.3333H17.0666C17.9503 29.3333 18.6666 28.617 18.6666 27.7333V26.288C18.1432 26.4377 17.6079 26.5424 17.0666 26.6011Z" fill="#DFC49C"/>
<path d="M24.5333 31.4667H7.46664C7.46664 29.4048 9.13811 27.7333 11.2 27.7333H13.3333C13.3359 28.6159 14.0507 29.3307 14.9333 29.3333H17.0666C17.9503 29.3333 18.6666 28.617 18.6666 27.7333H20.8C22.8618 27.7333 24.5333 29.4048 24.5333 31.4667Z" fill="#02A9F4"/>
<path d="M23.44 28.8267C22.7412 28.1244 21.7906 27.7308 20.8 27.7333L19.2 27.7333C21.2618 27.7333 22.9333 29.4048 22.9333 31.4667H24.5333C24.5359 30.476 24.1422 29.5255 23.44 28.8267Z" fill="#0377BC"/>
<path d="M6.45864 18.1333H5.59997C4.56904 18.1333 3.73331 17.2976 3.73331 16.2667C3.73827 15.2378 4.5711 14.405 5.59997 14.4H6.39997V17.0667C6.40061 17.423 6.4202 17.7791 6.45864 18.1333Z" fill="#FFE0B2"/>
<path d="M28.2666 16.2667C28.2666 17.2976 27.4309 18.1333 26.4 18.1333H25.5413C25.5797 17.7791 25.5993 17.423 25.6 17.0667V14.4H26.4C27.4288 14.405 28.2617 15.2378 28.2666 16.2667Z" fill="#FFE0B2"/>
<path d="M11.3833 17.4333C12.0737 17.4333 12.6333 16.8737 12.6333 16.1833C12.6333 15.493 12.0737 14.9333 11.3833 14.9333C10.6929 14.9333 10.1333 15.493 10.1333 16.1833C10.1333 16.8737 10.6929 17.4333 11.3833 17.4333Z" fill="black"/>
<path d="M20.9833 17.4333C21.6737 17.4333 22.2333 16.8737 22.2333 16.1833C22.2333 15.493 21.6737 14.9333 20.9833 14.9333C20.293 14.9333 19.7333 15.493 19.7333 16.1833C19.7333 16.8737 20.293 17.4333 20.9833 17.4333Z" fill="black"/>
<path d="M18.0426 23.9253C16.8017 24.7365 15.1983 24.7365 13.9573 23.9253C14.225 23.0203 15.0562 22.3993 16 22.3993C16.9437 22.3993 17.775 23.0203 18.0426 23.9253Z" fill="#E91E63"/>
<path d="M19.7333 20.2667L19.7333 20.8C19.734 22.0605 19.0981 23.2361 18.0427 23.9253C17.775 23.0203 16.9438 22.3993 16 22.3993C15.0562 22.3993 14.225 23.0203 13.9573 23.9253C12.9019 23.2361 12.2659 22.0605 12.2667 20.8L12.2667 20.2667H19.7333Z" fill="#AD1457"/>
<path d="M25.6 13.8667C24.081 12.3038 22.8208 10.5088 21.8667 8.54933C17.0613 11.3493 11.3547 11.1413 8.81066 10.8693C8.11045 11.9473 7.30277 12.9516 6.39999 13.8667C4.51573 10.144 4.71808 5.70645 6.93333 2.17067C6.93333 2.17067 9.06666 2.17067 9.59999 3.76533C9.59999 3.76533 11.7333 2.17067 10.6667 0.575999C10.6667 0.575999 17.6 0.0426661 19.7333 2.704C21.382 2.6535 22.9266 1.88609 23.9627 0.602666L25.0667 2.17067C27.2819 5.70645 27.4843 10.144 25.6 13.8667V13.8667Z" fill="#A0522D"/>
<path d="M25.0667 2.17067L23.9627 0.602673C23.6842 0.947544 23.3655 1.25784 23.0133 1.52694L23.4667 2.17067C25.4362 5.31711 25.827 9.20163 24.5237 12.6773C24.8549 13.0779 25.2117 13.4773 25.6 13.8661C27.4841 10.1436 27.2817 5.70632 25.0667 2.17067Z" fill="#783E22"/>
<path d="M5.59998 18.6667H6.00585C6.60659 22.391 9.22322 25.4749 12.8 26.6741V27.2H11.2C8.84466 27.2026 6.93596 29.1113 6.93332 31.4667C6.93332 31.7612 7.1721 32 7.46665 32H24.5333C24.8279 32 25.0666 31.7612 25.0666 31.4667C25.0666 29.1102 23.1564 27.2 20.8 27.2H19.2V26.6741C22.7767 25.4749 25.3934 22.391 25.9941 18.6667H26.4C27.7249 18.6652 28.7985 17.5915 28.8 16.2667C28.7956 14.943 27.7236 13.8711 26.4 13.8667H26.1866C28.0555 10.0188 27.7967 5.47734 25.5029 1.86667L24.4005 0.295467C24.3027 0.15593 24.1442 0.0715011 23.9738 0.0682671C23.8023 0.0623465 23.6391 0.142358 23.5386 0.2816C22.6536 1.36526 21.3669 2.04379 19.9728 2.16213C17.5253 -0.450666 10.9136 0.0229337 10.6256 0.0448004C10.4365 0.059318 10.2694 0.173142 10.1866 0.343753C10.1038 0.514364 10.1178 0.716099 10.2234 0.8736C10.728 1.62773 10.1978 2.4288 9.75198 2.90667C8.84052 1.65333 7.02238 1.6384 6.93332 1.6384C6.75966 1.63843 6.5969 1.72299 6.49705 1.86507C4.20268 5.47614 3.94391 10.0184 5.81332 13.8667H5.59998C4.27632 13.8711 3.20437 14.943 3.19998 16.2667C3.20145 17.5915 4.27511 18.6652 5.59998 18.6667V18.6667ZM23.0629 29.2037C23.5344 29.6724 23.8467 30.2775 23.9557 30.9333H8.04425C8.30656 29.3946 9.6391 28.2686 11.2 28.2667H12.8757C13.1182 29.2057 13.9635 29.863 14.9333 29.8667H17.0666C18.0365 29.863 18.8818 29.2057 19.1242 28.2667H20.8C21.6492 28.2643 22.464 28.6017 23.0629 29.2037V29.2037ZM18.1333 27.7333C18.1333 28.3224 17.6558 28.8 17.0666 28.8H14.9333C14.3442 28.8 13.8666 28.3224 13.8666 27.7333V26.9696C15.2723 27.2768 16.7277 27.2768 18.1333 26.9696V27.7333ZM16 26.1333C10.9949 26.1277 6.9389 22.0717 6.93332 17.0667V14.08C7.72434 13.2623 8.44145 12.3762 9.07625 11.432C11.9765 11.7045 17.1072 11.7163 21.6373 9.29013C22.5512 11.039 23.7055 12.6513 25.0666 14.08V17.0667C25.0611 22.0717 21.005 26.1277 16 26.1333ZM27.3429 15.3291C27.5942 15.5761 27.735 15.9143 27.7333 16.2667C27.7333 17.003 27.1364 17.6 26.4 17.6H26.1061C26.1157 17.4224 26.1333 17.2469 26.1333 17.0667V14.9333H26.4C26.7549 14.9322 27.0951 15.0749 27.3429 15.3291ZM7.21012 2.7264C7.72212 2.78827 8.78985 3.02507 9.09438 3.93547C9.14866 4.09782 9.27757 4.22426 9.44095 4.27537C9.60433 4.32649 9.78232 4.29607 9.91945 4.1936C10.6522 3.64533 11.7328 2.39627 11.4517 1.07093C13.6794 1.00693 17.8933 1.26293 19.3173 3.0368C19.4186 3.16293 19.5716 3.2363 19.7333 3.23627C21.3049 3.20954 22.8039 2.57018 23.9109 1.4544L24.6304 2.47787C26.5784 5.62488 26.8821 9.52031 25.4453 12.9312C24.2096 11.5447 23.1689 9.99598 22.352 8.328C22.2894 8.19095 22.1719 8.08674 22.0283 8.04112C21.8847 7.9955 21.7286 8.01272 21.5984 8.08853C17.0427 10.7397 11.6666 10.6347 8.86718 10.3371C8.6684 10.3145 8.47399 10.4064 8.36532 10.5744C7.82248 11.4057 7.21623 12.1938 6.55198 12.9317C5.1277 9.62028 5.3723 5.82748 7.21012 2.7264V2.7264ZM4.66238 15.3237C4.90945 15.0724 5.24758 14.9316 5.59998 14.9333H5.86665V17.0667C5.86665 17.2469 5.88425 17.4224 5.89385 17.6H5.59998C4.8636 17.6 4.26665 17.003 4.26665 16.2667C4.26547 15.9117 4.40826 15.5715 4.66238 15.3237V15.3237Z" fill="black"/>
<path d="M19.7333 19.7333H12.2666C11.9721 19.7333 11.7333 19.9721 11.7333 20.2667V20.8C11.7333 23.1564 13.6436 25.0667 16 25.0667C18.3564 25.0667 20.2666 23.1564 20.2666 20.8V20.2667C20.2666 19.9721 20.0279 19.7333 19.7333 19.7333ZM14.6458 23.6949C14.9332 23.222 15.4466 22.9333 16 22.9333C16.5534 22.9333 17.0667 23.222 17.3541 23.6949C16.4972 24.1017 15.5028 24.1017 14.6458 23.6949V23.6949ZM18.2309 23.0896C17.7448 22.3278 16.9036 21.8667 16 21.8667C15.0963 21.8667 14.2551 22.3278 13.769 23.0896C13.1495 22.489 12.7999 21.6629 12.8 20.8H19.2C19.2001 21.6629 18.8505 22.489 18.2309 23.0896V23.0896Z" fill="black"/>
<path d="M15.4667 18.6667H16.5333C16.8279 18.6667 17.0667 18.4279 17.0667 18.1333C17.0667 17.8388 16.8279 17.6 16.5333 17.6H15.4667C15.1721 17.6 14.9333 17.8388 14.9333 18.1333C14.9333 18.4279 15.1721 18.6667 15.4667 18.6667Z" fill="black"/>
<path d="M10.1333 13.8667H11.7333C12.0279 13.8667 12.2666 13.6279 12.2666 13.3333C12.2666 13.0388 12.0279 12.8 11.7333 12.8H10.1333C9.83876 12.8 9.59998 13.0388 9.59998 13.3333C9.59998 13.6279 9.83876 13.8667 10.1333 13.8667Z" fill="black"/>
<path d="M21.8666 12.8H20.2666C19.9721 12.8 19.7333 13.0388 19.7333 13.3333C19.7333 13.6279 19.9721 13.8667 20.2666 13.8667H21.8666C22.1612 13.8667 22.4 13.6279 22.4 13.3333C22.4 13.0388 22.1612 12.8 21.8666 12.8Z" fill="black"/>
</g>
<defs>
<clipPath id="clip0">
<rect width="32" height="32" fill="white"/>
</clipPath>
</defs>
</svg>
