<svg width="240" height="120" viewBox="0 0 240 120" fill="none" xmlns="http://www.w3.org/2000/svg"><g clip-path="url(#_710310547__a)"><path fill="#fff" d="M0 0h240v120H0z"/><path d="M154.648 32.322c1.177-.37 1.847-1.574 1.497-2.689-.351-1.114-1.59-1.716-2.767-1.346-1.178.37-1.848 1.574-1.497 2.689.351 1.114 1.589 1.717 2.767 1.346ZM140 37.027s4.075 2.6 5.495 2.372c1.42-.228 3.365-2.447 3.365-2.447l2.129-1.245-1.521-1.268L140 37.027Z" fill="#3C0F78"/><path d="m136.008 61.893-15.593-14.1 71.502-12.098-55.909 26.198Z" fill="#A68CEF"/><path d="m136.008 61.893 55.909-26.198-52.471 52.775-3.438-26.577Z" fill="#8966E9"/><path d="M173.206 39.873a35.26 35.26 0 0 0-.985-1.261 3.627 3.627 0 0 0-.433-.431.216.216 0 0 0-.192-.014c-1.066.5-2.133.993-3.19 1.51-.477.234-.928.519-1.4.772a6.046 6.046 0 0 1-.766.373 1.356 1.356 0 0 1-1.106-.14c-.819-.41-1.617-.865-2.453-1.235a13.184 13.184 0 0 0-3.075-.923 7.298 7.298 0 0 0-2.023-.135c-.225.024-.449.05-.656.074.085-.428.166-.837.249-1.246.083-.409-.062-.55-.471-.461-.286.062-.581.085-.87.14-.129.024-.221.095-.148.257.008.023.01.048.008.072a.186.186 0 0 1-.023.069c-.33.521-.667 1.036-1 1.557a.453.453 0 0 1-.447.216 9.056 9.056 0 0 1-2.8-.446 5.22 5.22 0 0 0-.594-.2c-.42-.12-.574-.512-.81-.81a5.646 5.646 0 0 1-.538-.9c-.149-.284-.231-.3-.442-.059l-.064-.213h-.045a.427.427 0 0 0-.081.511c.092.235.2.463.315.73-.095-.017-.164-.034-.234-.041a2.329 2.329 0 0 0-.354-.021c-.314.017-.342.246-.365.492-.021.223-.071.444-.1.666-.008.052-.054.5-.259.6-.492.241-.97.511-1.452.773A3.192 3.192 0 0 0 145.3 41.2c-.626.923-1.224 1.864-1.851 2.786a7.598 7.598 0 0 1-.671.8 16.04 16.04 0 0 0-2.5 3.843c-.356.738-.722 1.473-1.027 2.233a7.894 7.894 0 0 0-.551 2.238.31.31 0 0 1-.048.1l.009.319.3.885c.164.392.443.725.8.954a9.016 9.016 0 0 0 3.842 1.508c.418.08.855.06 1.279.118.317.044.627.14.941.211l.143.033c1.221.278 2.441.564 3.665.827.357.077.731.075 1.094.127.249.036.364-.08.469-.287.392-.776.781-1.555 1.213-2.31.026-.045.064-.083.094-.126l-.029.008.946-1.731 9.74-4.564a.846.846 0 0 0-.025-.122 2.798 2.798 0 0 1 .007-.672c-.038-.618-.092-1.235-.139-1.853a.997.997 0 0 1 .022-.144c.659.23 1.3.459 1.944.677.446.173.904.316 1.37.427.429.091.871.112 1.307.063a1.898 1.898 0 0 0 1.189-.812c.29-.368.576-.739.877-1.1.647-.771 1.3-1.535 1.955-2.3.4-.467.785-.941 1.189-1.4.292-.34.509-.737.637-1.167a1.013 1.013 0 0 0-.285-.896Zm-25.338 9.7 1.24 2.136-2.772-.88c.479-.456.991-.875 1.532-1.256Z" fill="#6B40E4"/><path d="M1.121 76.333c-.111.06-.177.2-.267.314.19-.06.356-.108.518-.167.063-.03.122-.067.177-.11l-.04-.066a.981.981 0 0 0-.388.03Zm1.868-.533c.107.113.475.007.616-.177l-.03-.068-.586.245Zm-.966.291-.186-.079-.271.29c.299.144.325-.102.457-.212v.001Zm1.631-.42.287-.055.059-.164-.361.1.015.12Zm2-.834c.1.038.205.066.312.081a.85.85 0 0 0 .273-.064c.029-.008.058-.06.074-.054.335.065.68.061 1.013-.012.363.006.726-.013 1.087-.055.147-.02.296-.028.445-.024v-.062c-.195-.006-.391-.023-.585-.014-.305.013-.608.048-.912.065-.304.017-.608.014-.911.031-.138.008-.273.045-.41.064-.137.02-.255.031-.383.046l-.003-.002Zm4.593-.04-.588-.115-.012.056.576.127.024-.068Z" fill="#E1D9FA"/><path d="M12.907 57.438a12.906 12.906 0 0 1 12.906 12.906v34.821H0V70.344a12.907 12.907 0 0 1 12.907-12.906Z" fill="#F7F5FD"/><path d="M0 105.165h25.813V81.523c-.171-.191-.342-.382-.51-.576l.133-.1c.126.1.25.209.377.312v-.233c-.421-.368-.841-.737-1.268-1.1a.823.823 0 0 1-.363-.812.543.543 0 0 0-.211-.378 10.87 10.87 0 0 0-7.292-2.439 6.41 6.41 0 0 1-1.431-.321c-.07-.014-.168.108-.221.269a3.13 3.13 0 0 0-.833.053c-.21-.046-.419-.092-.631-.133a.912.912 0 0 1-.238-.223c-.056-.075-.3.014-.433-.035a8.975 8.975 0 0 1-1.271-.541c-.111-.062-.1-.342-.068-.582a5.872 5.872 0 0 0-2.463-.735l-.061.209c.402.08.795.198 1.176.349.323.158.832.022 1.109.592-.774-.183-1.381-.35-2-.463a4.816 4.816 0 0 0-.865.013 2.327 2.327 0 0 1-.332-.035 12.79 12.79 0 0 0-1.949-.256 32.11 32.11 0 0 0-4.023.25A7.953 7.953 0 0 0 0 75.25v29.915ZM23.42 79.6l.171-.191 1.546 1.237L25 80.8l-1.58-1.2Z" fill="#E1D9FA"/><path d="m3.612 89.485-.968-.143-.092-.233c.185-.095.415-.31.545-.261.24.136.456.311.639.518l-.124.119Z" fill="#F7F5FD"/><path d="M1.11 91.515c-.37-.043-.74-.082-1.11-.125v1.386l1.087.1A3.41 3.41 0 0 1 0 93.1v3.3l.276.019-.132.566a1.015 1.015 0 0 1-.144-.04v7.355c.513.192 1.026.385 1.548.54-.181.03-.505.025-.522.095a1.38 1.38 0 0 1-.077.227h24.864v-.291a764.079 764.079 0 0 0-5.059-1.7c-1.3-.434-2.591-.895-3.908-1.262-1.957-.545-3.937-1.009-5.9-1.526-.982-.258-1.947-.58-2.931-.831-1.152-.3-2.316-.541-3.473-.819-.286-.068-.562-.177-.9-.285.409-.586.818-.228 1.2-.151l1.991.43.4-.673.03-.009-.017-.014-.032.028c-.037-.075-.068-.213-.111-.217-.564-.046-1.13-.073-1.695-.105-.427-.1-.972-.424-1.259-.268-.827.449-1.476-.047-2.194-.183-.171-.033-.382-.15-.5-.088-.5.254-.786-.033-1.218-.367.271-.172.477-.417.652-.4 1.044.123 2.083.3 3.12.476.585.161 1.182.27 1.786.328a7.555 7.555 0 0 1 4.147.956l-1.042.421a1.322 1.322 0 0 0-1.637-.567l.3.272-.229.312c.2.144.4.411.6.409.655 0 1.309-.122 1.965-.161.18.015.357.067.517.152-.15.576.31.44.577.49 1.524.288 3.051.561 4.576.845 1.154.214 2.306.438 3.459.658.025.007.051.01.077.01 1.454-.116 2.8.48 4.212.649.837.1 1.662.309 2.5.441V90.658c-.371-.119-.74-.242-1.11-.361-1.583-.506-3.2-.892-4.8-1.359-1.221-.358-2.414-.812-3.644-1.129-1.9-.488-3.811-.9-5.719-1.336-1.276-.292-2.549-.605-3.834-.849-1.465-.278-2.942-.488-4.414-.731-.767-.126-1.531-.256-2.296-.384v3.226c2.92.461 5.826 1.043 8.747 1.732l-.386.59c-1.209-.092-1.209-.092-1.381.255 2.533.71 5.028 1.526 7.579 2.093a53.627 53.627 0 0 1 7.121 2.481 13.887 13.887 0 0 1-1.612-.119c-2.138-.407-4.27-.846-6.4-1.279-1.518-.307-3.024-.69-4.553-.921a256.899 256.899 0 0 0-8.005-1.052Zm15.794.418-.1.294a6.348 6.348 0 0 1-1.353-.137c-.155-.048-.2-.469-.29-.72.217-.023.466-.125.644-.052.378.18.744.386 1.095.615h.004Zm2.4.463c-.2.678-.415.68-1.525-.109l1.525.109Zm2.955 1.441a2.157 2.157 0 0 1 2.24.714l-.095.219-2.145-.933Zm.072.241-1.455-.509c.68-.533.763-.51 1.452.509h.003Z" fill="#F7F5FD"/><path d="M0 71.675a35.748 35.748 0 0 1 11.416.849 34.61 34.61 0 0 1 14.4 6.963v5.874a40.078 40.078 0 0 0-15.68-6.052c-3.317-.552-6.756-.17-10.133-.1L0 71.675Z" fill="#E1D9FA"/><path d="M25.813 89.855v4.688C17.675 90.134 9.09 88.711 0 89.263v-5.184a39.846 39.846 0 0 1 25.813 5.776Z" fill="#F7F5FD"/><path d="M18.686 83.934a12.291 12.291 0 0 0-2.153-.765 6.166 6.166 0 0 1-2.06-1.023.982.982 0 0 1 .232-1.771 3.842 3.842 0 0 1 2.737.08c.874.362 1.704.822 2.474 1.373a1.22 1.22 0 0 1-1.23 2.106ZM15.124 78.625a19.3 19.3 0 0 0-6.256-1.305c-1.771-.01-1.771-2.8 0-2.752a13.768 13.768 0 0 1 7.147 1.943c1.051.678.406 2.56-.891 2.114Z" fill="#D6CAF8"/><path d="M187.77 104.478a3.862 3.862 0 1 0 0-7.724 3.862 3.862 0 0 0 0 7.724Z" fill="#E1D9FA"/><path d="M191.521 100.991a.487.487 0 0 1-.283-.173c.125-.044.256-.066.389-.065v-.343a3.848 3.848 0 0 0-.232-1.127.283.283 0 0 1-.041.008c-.086 0-.156.009-.168.117a.44.44 0 0 0-.432.024.913.913 0 0 1-.423.1 8.816 8.816 0 0 0-.432.066c-.024 0-.042.031-.065.044-.075.039-.153.112-.224.106-.1-.009-.165 0-.205.1l-.092-.057c-.111.072-.216.144-.326.208a.125.125 0 0 1-.05.011.125.125 0 0 1-.05-.011c-.115-.046-.182.016-.253.091a.394.394 0 0 1-.134.082c-.129.055-.267.094-.389.161s-.209.159-.318.233a.578.578 0 0 1-.209.1.53.53 0 0 0-.339.183.163.163 0 0 1-.091.063.886.886 0 0 0-.37.206c-.122.077-.238.165-.36.244-.071.046-.149.083-.22.13-.06.051-.124.096-.193.134a2.317 2.317 0 0 1-.35.084c-.339.065-.677.139-1.019.187a4.41 4.41 0 0 1-.5.038c.133.364.319.706.554 1.014.019-.01.038-.021.059-.03.019.008.057.037.076.027.112-.05.22-.111.32-.182a.247.247 0 0 1 .316-.023c.051-.041.105-.079.16-.115.072-.041.147-.077.224-.107a.302.302 0 0 1 .149-.019c.119.018.176 0 .2-.1 0-.005.012-.007.043-.024l.031.091c.111-.085.186-.179.318-.153.015 0 .03-.003.044-.01a.098.098 0 0 0 .036-.028c.078-.079.167-.147.264-.2a.77.77 0 0 1 .383-.143.211.211 0 0 0 .093-.035c.222-.153.465-.274.72-.361.029-.014.08.016.12.026v.042c-.124.066-.246.138-.374.2-.165.073-.335.133-.5.2a.418.418 0 0 0-.087.05 1.144 1.144 0 0 1-.167.118c-.173.076-.353.138-.527.214-.039.018-.063.072-.094.109l.025.022c.1-.04.19-.082.287-.119a.584.584 0 0 1 .219-.069.228.228 0 0 0 .2-.093.274.274 0 0 1 .13-.081c.109-.034.221-.057.332-.086.01 0 .025-.009.028-.017.04-.115.138-.085.224-.1a1.03 1.03 0 0 0 .206-.079c.014 0 .026-.023.036-.021.18.037.3-.094.427-.173a.364.364 0 0 1 .36-.086.153.153 0 0 0 .09 0c.175-.044.348-.095.524-.136.176-.041.345-.073.518-.106.173-.033.362-.065.544-.094a2.625 2.625 0 0 0 .421.021c.118-.009.233-.052.351-.058h.165c.012-.076.018-.153.025-.23h-.094Zm-2.51.342c-.146-.025-.23.091-.337.148a.545.545 0 0 1-.406.037l.208-.131.056-.037c.018-.013.019-.03.031-.032.154-.032.309-.062.464-.088.009 0 .036.04.034.059-.002.019-.036.046-.05.044Zm.644-.224c-.018 0-.06-.04-.059-.061.001-.021.039-.044.075-.081.03.039.065.073.06.08a.137.137 0 0 1-.076.062Zm.134 0-.018-.042.164-.11-.044-.087.021-.038.22.116a.59.59 0 0 1 .079-.1.304.304 0 0 1 .1-.042.645.645 0 0 1 .014.088v.161l-.536.054Zm.763-.127c-.026.018-.037.059-.052.092a.553.553 0 0 1-.02.066c0 .006-.044 0-.048-.006-.004-.006-.028-.063-.017-.077.049-.049.095-.1.139-.154.058-.094.1-.037.169 0-.059.02-.116.046-.171.076v.003Zm.34-.014c-.041-.007-.077-.048-.115-.074l.01-.035a.41.41 0 0 1 .126-.007c.031.008.057.042.085.064-.035.016-.074.054-.106.049v.003Zm-5.183 1.886c-.067.022-.137.036-.206.053l-.015-.052c.055-.034.113-.065.172-.092.019-.008.051.016.077.026-.009.019-.013.057-.028.062v.003Zm-.532.2c-.052.008-.078-.027-.043-.078.069-.1.2-.11.316 0-.09.031-.181.057-.273.078Z" fill="#F7F5FD"/><path d="M196.049 93.018a1.446 1.446 0 1 0 0-2.891 1.446 1.446 0 0 0 0 2.891Z" fill="#F0ECFD"/><path d="M102.892 25.059a3.068 3.068 0 1 0 0-6.137 3.068 3.068 0 0 0 0 6.137Z" fill="#E1D9FA"/><path d="M105.872 22.289a.38.38 0 0 1-.224-.138.923.923 0 0 1 .308-.052v-.272a3.08 3.08 0 0 0-.184-.9.204.204 0 0 1-.033.007c-.068 0-.124.007-.134.093a.35.35 0 0 0-.343.019.727.727 0 0 1-.336.078 6.597 6.597 0 0 0-.343.052c-.019 0-.034.025-.052.035-.059.031-.121.089-.178.084-.079-.006-.13 0-.162.08l-.074-.045c-.088.057-.172.114-.259.165a.1.1 0 0 1-.078 0c-.091-.037-.145.012-.2.072a.306.306 0 0 1-.107.065c-.1.044-.212.075-.309.129-.097.054-.166.126-.252.184a.442.442 0 0 1-.167.081.42.42 0 0 0-.269.145.13.13 0 0 1-.072.05c-.122.013-.2.1-.294.164-.094.064-.19.13-.286.193-.057.038-.118.067-.175.1a.981.981 0 0 1-.153.106c-.091.03-.184.052-.278.067-.27.052-.538.11-.81.149a3.501 3.501 0 0 1-.4.03c.105.287.254.557.44.8l.046-.023c.016.006.046.029.061.021.09-.04.175-.088.255-.145a.2.2 0 0 1 .251-.018c.041-.033.083-.063.127-.091.057-.032.116-.06.177-.085a.256.256 0 0 1 .12-.021c.095.014.141 0 .157-.077l.033-.019.025.073c.088-.068.148-.143.253-.122a.075.075 0 0 0 .035-.008.074.074 0 0 0 .028-.023.918.918 0 0 1 .21-.159.618.618 0 0 1 .3-.114.154.154 0 0 0 .074-.028c.177-.12.369-.217.572-.287.024-.01.063.014.1.021v.034c-.1.052-.2.11-.3.155-.131.058-.266.105-.4.158a.432.432 0 0 0-.069.041.879.879 0 0 1-.132.093c-.138.06-.281.11-.419.17-.031.014-.05.057-.075.087l.02.017c.076-.032.151-.065.228-.095a.468.468 0 0 1 .174-.054.177.177 0 0 0 .16-.074.224.224 0 0 1 .1-.064c.086-.028.175-.046.263-.069a.032.032 0 0 0 .013-.005.037.037 0 0 0 .01-.009c.031-.091.109-.067.177-.078a.8.8 0 0 0 .165-.062c.01 0 .02-.019.028-.018.143.03.24-.074.339-.137.099-.063.173-.11.286-.068a.137.137 0 0 0 .072 0c.139-.035.277-.075.416-.108.139-.033.274-.058.412-.084.138-.026.288-.052.432-.075a2.115 2.115 0 0 0 .334.017c.094-.007.186-.042.279-.046h.131c.01-.06.014-.122.02-.183-.017.015-.036.019-.064.021Zm-1.994.271c-.115-.019-.183.072-.267.118a.43.43 0 0 1-.323.029l.165-.1c.015-.009.03-.018.045-.029.015-.011.015-.024.024-.026.123-.025.246-.049.369-.07.007 0 .028.032.027.048-.001.016-.028.032-.04.03Zm.512-.178c-.014 0-.048-.032-.047-.048.001-.016.031-.035.06-.064.023.031.051.058.047.063a.1.1 0 0 1-.06.049Zm.106 0-.014-.034.13-.087-.035-.069.017-.03.175.092a.47.47 0 0 1 .062-.076.294.294 0 0 1 .082-.034.554.554 0 0 1 .011.07v.128l-.428.04Zm.607-.1c-.021.014-.03.047-.042.073-.012.026-.006.038-.016.052-.01.014-.035 0-.038 0-.003 0-.022-.05-.013-.061.033-.044.082-.077.11-.123.046-.074.078-.029.135 0a.85.85 0 0 0-.139.056l.003.003Zm.27-.011c-.033 0-.062-.038-.092-.059l.008-.028a.378.378 0 0 1 .1-.005c.025.006.046.033.068.051-.028.012-.057.042-.084.038v.003Zm-4.118 1.5c-.053.018-.109.029-.164.043l-.012-.042c.044-.027.09-.052.137-.073.015-.006.04.013.061.021-.007.012-.01.042-.022.046v.005Zm-.423.162c-.041.006-.062-.021-.034-.062.054-.079.158-.088.251 0-.085.022-.149.046-.217.057v.005Z" fill="#F7F5FD"/><path d="M60.767 103.608a1.633 1.633 0 1 0 0-3.266 1.633 1.633 0 0 0 0 3.266ZM10.814 31.153a2.249 2.249 0 1 0 0-4.498 2.249 2.249 0 0 0 0 4.498ZM75.06 105.687s.4 4.649 1.357 5.693c.957 1.044 5.278 1.529 5.278 1.529s-4.312.367-5.278 1.4C75.451 115.342 75.06 120 75.06 120s-.393-4.654-1.356-5.693c-.963-1.039-5.279-1.463-5.279-1.463s4.315-.425 5.279-1.464c.964-1.039 1.356-5.693 1.356-5.693ZM31.037 53.315s.314 3.66 1.069 4.483c.755.822 4.156 1.202 4.156 1.202s-3.4.289-4.156 1.1c-.756.81-1.069 4.483-1.069 4.483s-.309-3.665-1.068-4.483c-.759-.818-4.156-1.152-4.156-1.152s3.4-.334 4.156-1.153c.756-.82 1.068-4.48 1.068-4.48ZM89.337 2.718s.336 3.917 1.143 4.8c.807.883 4.447 1.282 4.447 1.282s-3.633.31-4.447 1.178c-.814.868-1.143 4.8-1.143 4.8s-.331-3.921-1.143-4.8-4.447-1.232-4.447-1.232 3.635-.358 4.447-1.233c.812-.875 1.143-4.795 1.143-4.795ZM188.27 11.778s.46 5.362 1.565 6.567 6.089 1.763 6.089 1.763-4.974.425-6.089 1.614c-1.115 1.189-1.565 6.568-1.565 6.568s-.454-5.37-1.565-6.568c-1.111-1.198-6.089-1.688-6.089-1.688s4.978-.49 6.089-1.689c1.111-1.199 1.565-6.567 1.565-6.567Z" fill="#F0ECFD"/><path d="m237.927 25.931-.056.091c.076.058.157.109.243.15.223.081.452.147.712.231-.124-.155-.215-.352-.367-.433a1.359 1.359 0 0 0-.532-.039Zm-2.841-1.031-.041.094c.194.252.7.4.847.242l-.806-.336Zm2.762 1.026-.373-.4-.255.109c.18.158.217.49.628.291Zm-2.843-1.035-.5-.132.073.225.4.075.027-.168Zm-2.779-.976c-.176-.02-.352-.037-.526-.062-.174-.025-.374-.078-.563-.089-.417-.023-.836-.021-1.253-.043-.417-.022-.835-.071-1.253-.089-.267-.011-.536.012-.805.019v.086a3.76 3.76 0 0 1 .612.034c.498.057.999.082 1.5.075.458.1.931.105 1.391.015.023-.007.063.064.1.076.12.05.247.079.376.087a2.01 2.01 0 0 0 .429-.111l-.008.002Zm-6.279.036.793-.175-.018-.076-.807.158.032.093Z" fill="#E1D9FA"/><path d="M222.261 0a17.736 17.736 0 0 0-17.739 17.739V65.6H240V17.739A17.738 17.738 0 0 0 222.261 0Z" fill="#F7F5FD"/><path d="M240 24.482a10.931 10.931 0 0 0-2.952-.887 44.34 44.34 0 0 0-5.529-.343c-.901.048-1.796.165-2.679.351a3.222 3.222 0 0 1-.456.049 6.578 6.578 0 0 0-1.189-.018c-.848.155-1.682.384-2.746.636.381-.783 1.081-.6 1.524-.814a9.527 9.527 0 0 1 1.617-.479l-.084-.288c-1.17.284-2.422.245-3.384 1.011.045.33.059.715-.094.8a12.39 12.39 0 0 1-1.748.744c-.183.067-.517-.056-.594.048-.09.12-.201.224-.328.306-.29.057-.578.12-.867.183a4.335 4.335 0 0 0-1.145-.074c-.073-.22-.207-.388-.3-.369a8.77 8.77 0 0 1-1.967.441 14.942 14.942 0 0 0-10.023 3.353.755.755 0 0 0-.289.52 1.13 1.13 0 0 1-.5 1.116c-.586.5-1.163 1-1.742 1.51v.32c.174-.142.345-.288.518-.429l.182.143c-.231.266-.466.529-.7.792V65.6H240V24.482Zm-34.363 7.634-.187-.213 2.126-1.7.235.264-2.174 1.649Z" fill="#E1D9FA"/><path d="m235.036 44.047 1.33-.2.127-.319c-.255-.13-.571-.426-.75-.359a3.42 3.42 0 0 0-.878.712c.056.057.113.112.171.166Z" fill="#F7F5FD"/><path d="M227.474 48.283c-2.1.317-4.171.844-6.257 1.267-2.931.594-5.86 1.2-8.8 1.756a18.51 18.51 0 0 1-2.216.164 73.777 73.777 0 0 1 9.788-3.41c3.5-.779 6.935-1.9 10.416-2.877-.236-.477-.236-.477-1.9-.349l-.531-.812c4.016-.947 8.01-1.746 12.023-2.38v-4.434c-1.051.176-2.1.355-3.153.528-2.023.334-4.054.622-6.067 1-1.766.336-3.515.765-5.269 1.167-2.623.6-5.255 1.166-7.86 1.837-1.691.435-3.332 1.059-5.009 1.551-2.192.643-4.419 1.173-6.594 1.869-.51.163-1.017.332-1.526.5v15.756c1.146-.182 2.279-.469 3.431-.607 1.941-.231 3.79-1.05 5.789-.891a.38.38 0 0 0 .105-.014c1.585-.3 3.169-.61 4.755-.905 2.1-.39 4.194-.765 6.289-1.16.366-.069 1 .117.793-.675.221-.116.463-.187.711-.208.9.054 1.8.215 2.7.222.273 0 .548-.365.822-.564l-.315-.428.416-.372a1.818 1.818 0 0 0-2.251.778l-1.427-.572a10.366 10.366 0 0 1 5.7-1.313c.83-.08 1.651-.23 2.454-.452 1.426-.241 2.853-.484 4.288-.655.241-.028.525.309.9.545-.593.459-.991.854-1.673.5-.166-.086-.457.076-.692.12-.987.187-1.879.869-3.016.252-.394-.214-1.143.226-1.73.368-.777.044-1.555.081-2.33.145-.058.005-.1.2-.152.3l-.045-.039-.022.02.041.012.548.925 2.737-.591c.528-.106 1.09-.6 1.652.207-.463.149-.843.3-1.236.393-1.59.381-3.19.719-4.774 1.125-1.351.346-2.678.787-4.028 1.142-2.7.711-5.421 1.348-8.111 2.1-1.811.505-3.587 1.138-5.372 1.734-2.317.776-4.635 1.557-6.954 2.342v.4H238.7a2.146 2.146 0 0 1-.1-.313c-.023-.1-.469-.089-.718-.13.718-.214 1.423-.479 2.128-.743V54.3a2.266 2.266 0 0 1-.2.06l-.181-.778.379-.026v-4.54a4.686 4.686 0 0 1-1.494-.314l1.486-.131v-1.905c-.508.059-1.017.112-1.525.172-3.675.435-7.344.894-11.001 1.445Zm-9.2-1.717c.244-.1.587.04.885.072-.128.345-.185.924-.4.99a8.756 8.756 0 0 1-1.86.188l-.132-.4c.482-.317.985-.601 1.506-.85h.001Zm-2.7 1.333c-1.526 1.084-1.827 1.081-2.1.15l2.1-.15Zm-9.106 3.412-.131-.3a2.967 2.967 0 0 1 3.079-.982l-2.948 1.282Zm4.849-1.651-2 .7c.941-1.4 1.055-1.433 1.994-.7h.006Z" fill="#F7F5FD"/><path d="M30.987 80.468C42.079 92.186 59.9 95.5 74.151 87.568c12.1-6.734 24.875-25.967 13.387-38.775-9.817-10.945-28.219-3.317-27.72 11.187.532 15.478 15.851 28.06 29.972 31.128 17.5 3.8 36.767-6.289 42.868-23.209a1.372 1.372 0 0 0-2.476-1.181c-7.682 13.965-22.737 23.588-38.988 20.858a37.265 37.265 0 0 1-21.541-11.911c-5.877-6.632-11.218-17.916-4.723-25.851 7.874-9.62 22.307-3.4 24.029 7.856C90.3 66.458 85 75.488 78.638 81.1c-13.574 11.96-33.747 10.418-46.094-2.476-1.077-1.124-2.613.729-1.557 1.844Z" fill="#D6CAF8"/><path d="M240 19.568c-5.266-.659-11 .175-15.691 1.167a47.571 47.571 0 0 0-19.787 9.57v8.073a55.084 55.084 0 0 1 21.551-8.317c4.558-.759 9.286-.234 13.927-.138V19.568Z" fill="#E1D9FA"/><path d="M204.522 44.556V51c11.184-6.061 22.985-8.017 35.478-7.257v-7.126a54.763 54.763 0 0 0-35.478 7.939Z" fill="#F7F5FD"/><path d="M214.318 36.418a16.812 16.812 0 0 1 2.958-1.052 8.46 8.46 0 0 0 2.832-1.406 1.348 1.348 0 0 0 .315-2.015 1.352 1.352 0 0 0-.634-.42 5.285 5.285 0 0 0-3.762.112 16.947 16.947 0 0 0-3.4 1.887 1.678 1.678 0 0 0 1.692 2.894h-.001ZM219.213 29.121a26.522 26.522 0 0 1 8.6-1.795c2.435-.012 2.435-3.849 0-3.781-3.457-.024-6.854.9-9.823 2.67-1.444.932-.557 3.519 1.225 2.906h-.002ZM240 29.055a30.32 30.32 0 0 0-8.5.367c-1.838.32-1.434 3.526.446 3.291a31.245 31.245 0 0 1 8.057.1L240 29.055Z" fill="#D6CAF8"/><path d="m153.629 28.9.432.328a1.228 1.228 0 0 1 .932.546h.15c.247-.016.247-.411.313-.178.157.555.416 1.584.584 2.135.116.378.264.747.388 1.123.217.687.229 1.423.036 2.117a3.571 3.571 0 0 1-.584 1.372c-.12.154-.6.255-.8.313-.3.089-.312.1-.314.266-.006.376.149.686-.024 1a.156.156 0 0 1-.131.066c-.165-.033-.326-.083-.517-.134l-.519.256-.239-.159-.093.21c-.064.138-.127.27-.307.3-.053.008-.1.077-.141.125-.106.122-.214.156-.349.038-.112-.1-.232-.187-.359-.288a.5.5 0 0 1-.6-.255c-.107-.172-.209-.347-.313-.52-.221.155-.375.055-.658-.343-.237.3-.262.3-.492.089.14-.335.185-.702.128-1.06-.03-.281-.117-.556-.167-.836a.327.327 0 0 0-.255-.287.326.326 0 0 0-.136 0c-.006-.041-.029-.088-.015-.11.15-.228-.019-.39-.112-.567a1.897 1.897 0 0 1-.264-1.25c.046-.26.257-.338.451-.415.224-.075.453-.137.685-.185-.021-.164-.037-.313-.058-.461a.55.55 0 0 1 .09-.491.327.327 0 0 0 .045-.249c-.1-.448-.034-.569.41-.661a.31.31 0 0 1 .234.091.336.336 0 0 0 .463.049 2.34 2.34 0 0 0 1.132-1.342c.026-.083.046-.168.062-.253.177-.048.405-.013.509-.259.027-.063.176-.073.269-.108l.134-.013Z" fill="#C4B3F4"/><path d="m150.66 31.271.26 2.36c-.189-.154-.367-.315-.561-.454a.78.78 0 0 0-.787-.122.466.466 0 0 0-.318.612c.143.377.31.744.5 1.1.143.265.458.2.7.285.019.006.059-.053.091-.079.1-.08.193-.1.287.019a3.343 3.343 0 0 0 2.043 1.142c.223.058.438.143.641.253.149.074.133.174-.017.257a.84.84 0 0 1-.664.09 3.572 3.572 0 0 1-1.85-1.025c-.222-.255-.535-.134-.787-.248a.05.05 0 0 0-.023-.001.05.05 0 0 0-.02.009c-.2.337-.6.253-.89.416-.351.2-.73.351-1.091.536a.339.339 0 0 0-.157.2 7.067 7.067 0 0 1-.831 1.912.327.327 0 0 1-.088.1 4.83 4.83 0 0 1-2.348 1.166 5.39 5.39 0 0 1-1.085-.009 3.713 3.713 0 0 1-1.665-.405c-.385-.233-.741-.514-1.1-.782a2.709 2.709 0 0 0-1.594-.6 6.953 6.953 0 0 0-1.123-.039 2.6 2.6 0 0 1-1.281-.136 2.807 2.807 0 0 1-1.706-1.643c-.177-.421-.36-.841-.523-1.268a.644.644 0 0 0-.536-.417.708.708 0 0 1-.361-.177c-.153-.16-.126-.328.05-.487.318-.241.69-.403 1.084-.471.309-.085.631-.126.946-.19a3.34 3.34 0 0 0 1.741-1.061c.4-.415.794-.833 1.228-1.207a4.143 4.143 0 0 1 2.008-.856 11.83 11.83 0 0 1 2.083-.238 8.998 8.998 0 0 0 2.563-.422 3.355 3.355 0 0 0 1.337-.816 13.85 13.85 0 0 1 2.076-1.776 3.438 3.438 0 0 1 1.736-.549c.412-.016.827.033 1.24.043a.49.49 0 0 0 .254-.067 6.616 6.616 0 0 1 2.693.433c.251.145.191.467.036.39-.341.359-.526-.1-.809-.136-.047.1-.1.224-.155.345-.055.121-.118.142-.229.071a2.545 2.545 0 0 0-.388-.217 1.038 1.038 0 0 0-.763.08.272.272 0 0 1-.205.027.268.268 0 0 1-.163-.127c-.073-.116-.154-.111-.257-.029-.223.197-.46.376-.711.535a12.877 12.877 0 0 0-2.616 1.836.43.43 0 0 0-.1.57c.065.132.104.276.113.423.008.148-.013.295-.062.434-.106.568-.183 1.14-.231 1.716.019.3.086.595.2.874.018.061.137.152.168.138a.454.454 0 0 0 .194-.193.403.403 0 0 0 .043-.241.647.647 0 0 1 .175-.539c.384-.458.547-1.034.938-1.486a.34.34 0 0 1 .43-.013.343.343 0 0 1 .097.12c.012.034.119.029.14.034Z" fill="#3C0F78"/><path d="M152.873 27.791c.136.237.544.064.541.452.367-.063.437-.021.422.322a1.83 1.83 0 0 1-.978 1.617.242.242 0 0 1-.2 0 .49.49 0 0 1-.161-.648c.016-.028.032-.077.019-.1-.116-.182 0-.327.061-.485a4.31 4.31 0 0 0 .194-.552c.046-.18.064-.373.102-.606ZM153.67 34.484a.267.267 0 0 1 .281-.3c.24-.017.483-.006.724-.024.217-.016.433-.055.649-.085.055-.014.111-.023.167-.028.374 0 .49.155.358.5a1.264 1.264 0 0 1-1.348.882 1.05 1.05 0 0 1-.831-.945Z" fill="#3C0F78"/><path d="M155.04 32.857c-.083-.144-.167-.284-.245-.428a.805.805 0 0 1-.116-.265c.001-.106.016-.212.043-.315.1.047.238.067.3.146.219.246.416.51.589.79a.433.433 0 0 1-.045.555.43.43 0 0 1-.169.106 3.345 3.345 0 0 1-.622.226.16.16 0 0 1-.141-.072.379.379 0 0 1 .007-.255c.125-.17.258-.332.399-.488Z" fill="#8966E9"/><path d="M153.117 30.726a1.39 1.39 0 0 1 .2 0 .19.19 0 0 1 .154.289c-.09.135-.151.294-.4.26a2.724 2.724 0 0 0-.657.108c-.08.01-.231-.017-.238-.051a.327.327 0 0 1 .052-.274c.251-.207.564-.324.889-.332ZM152.932 32.1l-.26.056c-.118-.054-.05-.207-.024-.295a.678.678 0 0 1 .606-.361.279.279 0 0 1 .21.113c.024.033.04.072.047.112a.265.265 0 0 1-.005.122 1.535 1.535 0 0 1-.266.5c-.082.112-.177.036-.232-.057a1.294 1.294 0 0 1-.076-.19ZM155.454 30.127c.043.021.178.046.222.123a.29.29 0 0 1-.089.268 5.23 5.23 0 0 1-.7.371c-.011 0-.142-.153-.134-.227a.8.8 0 0 1 .701-.535ZM155.162 31.437a.473.473 0 0 1 .138-.365.389.389 0 0 1 .456-.056c.019.012.033.03.04.052.085.225-.084.893-.338.868-.128-.013-.258-.324-.296-.5Z" fill="#3C0F78"/><path d="M155.816 29.046c-.04.083-.071.17-.092.261a.493.493 0 0 1-.408.45 5.293 5.293 0 0 0-.622.18.447.447 0 0 1-.566-.2 31.426 31.426 0 0 1-.911-1.393c-.1-.158-.182-.277-.4-.138.012.409.012.841.04 1.271a1.251 1.251 0 0 1-.8 1.167c-.451.186-.898.382-1.339.588-.209.1-.405.207-.624.062-.355.619-.71 1.219-1.046 1.83-.1.188-.147.408-.235.606-.033.076-.107.176-.172.184-.065.008-.151-.082-.2-.149a.954.954 0 0 1-.113-.266 5.653 5.653 0 0 1-.4-1.947c.017-.516.082-1.032.14-1.546a1.35 1.35 0 0 1 .129-.359 3 3 0 0 0 .143-.463c.085-.238.241-.444.447-.59a9.473 9.473 0 0 1 3.138-1.554c.4-.126.817-.183 1.226-.275.032-.007.059-.038.089-.058l.41-.012c.237.013.474.02.71.041a1.045 1.045 0 0 1 .986.585c.116.314.215.634.295.959.064.223.115.45.172.675l.003.091Zm-6.763.187c.535.422 1.038.825 1.552 1.214.046.034.171 0 .239-.039.276-.152.539-.326.816-.474.177-.1.344-.173.266-.423-.012-.038.023-.088.02-.131-.037-.456-.072-.911-.12-1.365-.012-.108-.09-.165-.216-.125a9.583 9.583 0 0 0-2.557 1.343Zm4.41-1.835c.376.539.727 1.047 1.086 1.551a.212.212 0 0 0 .162.086c.156-.05.31-.108.46-.174-.187-.405-.379-.778-.533-1.167-.058-.146-.141-.237-.273-.25-.301-.031-.605-.033-.902-.044v-.002Z" fill="#6B40E4"/><path d="M149.321 36.384c.1-.405.427-.373.689-.448.028-.008.1.043.107.075.023.116.017.237.04.352a.256.256 0 0 0 .093.169 5.26 5.26 0 0 0 1.954.553c.466.04.933.054 1.4.044.5-.023 1-.112 1.5-.167a.937.937 0 0 1 .317 0c.285.067.367.246.264.53a7.027 7.027 0 0 1-.982 1.638.676.676 0 0 1-.344.165c-.351.1-.7.2-1.057.293a4.4 4.4 0 0 1-2.249-.07 8.866 8.866 0 0 1-1.212-.456 2.51 2.51 0 0 1-.4-.284 1.838 1.838 0 0 0-1.021-.284c-.173-.006-.346-.024-.519-.029a4.5 4.5 0 0 0-2.445.682c-.629.372-1.212.822-1.811 1.246-.325.23-.704.372-1.1.414a4.042 4.042 0 0 1-.689.1 7.114 7.114 0 0 1-1.288-.171c-.965-.239-1.92-.515-2.877-.783a1.9 1.9 0 0 0-1.083.1 2.791 2.791 0 0 0-1.485.971c-.412-.263-.8-.537-1.211-.765-.439-.244-.9-.453-1.357-.662-.118-.054-.135-.075-.085-.207a1.66 1.66 0 0 1 .753-.834 8.459 8.459 0 0 1 2.462-1.145 6.529 6.529 0 0 1 1.749-.137 23.11 23.11 0 0 1 3.123.53 6.448 6.448 0 0 0 1.824.254c.89-.076 1.767-.27 2.606-.577a9.655 9.655 0 0 1 1.709-.368c.576-.07 1.16.014 1.692.244a1.741 1.741 0 0 0-.135-.168c-.4-.382-.807-.759-1.208-1.142a2.027 2.027 0 0 0-1.011-.394 3.105 3.105 0 0 0-1.446.133 5.383 5.383 0 0 1-3.36-.268 10.843 10.843 0 0 1-2.647-1.491 8.128 8.128 0 0 1-1.68-1.828.524.524 0 0 1 .022-.65c.277-.375.55-.754.847-1.114a.435.435 0 0 1 .349-.157.462.462 0 0 1 .26.312 2.12 2.12 0 0 0 .816 1.323c.398.388.828.743 1.284 1.06.56.32 1.149.588 1.759.8.357.11.727.174 1.1.192.419.045.84.064 1.261.055a3.741 3.741 0 0 1 1.484.236 5.631 5.631 0 0 1 1.687.846c.363.308.726.617 1.092.922.138.116.279.221.459.36Z" fill="#D6CAF8"/><path d="M149.053 29.233a9.598 9.598 0 0 1 2.557-1.343c.126-.04.2.017.216.125.048.454.083.909.12 1.365 0 .043-.032.093-.02.131.078.25-.089.328-.266.423-.277.148-.54.322-.816.474-.068.038-.193.073-.239.039-.514-.389-1.017-.792-1.552-1.214ZM153.463 27.4c.3.013.6.015.9.046.132.013.215.1.273.25.154.389.346.762.533 1.167-.15.066-.304.124-.46.174a.209.209 0 0 1-.162-.086c-.357-.506-.708-1.014-1.084-1.551ZM145.854 50.947c-.405-.227-.822-.43-1.25-.61a3.631 3.631 0 0 0-2.853.2c-.184.088-.234.007-.312-.117-.1-.153.01-.211.113-.268a4.22 4.22 0 0 1 1.768-.532 4.042 4.042 0 0 1 2.311.494c.017.006.036.01.054.009l.033-.052c-.309-.207-.607-.433-.929-.614a5.27 5.27 0 0 0-.716-.277.23.23 0 0 1-.053-.03c-.116-.077-.339-.076-.283-.288a.391.391 0 0 1 .224-.224.403.403 0 0 1 .317.01c.409.193.8.42 1.171.679.308.253.587.54.83.857a.966.966 0 0 1 .173.462c.031.2-.019.227-.217.145l-.067-.027-.19.174-.124.009ZM146.985 55.683c-.049-.045-.105-.137-.143-.13a2.307 2.307 0 0 1-1.106-.2c-.22-.068-.45-.1-.675-.156a.652.652 0 0 1-.192-.058 2.136 2.136 0 0 0-1.122-.159c-.4-.01-.794-.017-1.189-.043-.161-.011-.534-.37-.534-.51s.075-.257.075-.386a2.642 2.642 0 0 0-.067-.581.242.242 0 0 0-.2-.11 40.64 40.64 0 0 0-1.386.252c-.169.034-.239-.009-.3-.184-.044-.133-.152-.262-.15-.39-.034-.43.071-.86.3-1.227a2.21 2.21 0 0 1 .771-.752c.1-.04.202-.074.306-.1l.03.055-.258.2c.168.023.306.038.441.06.338.057-.043.237.079.358l.21-.089.026.032-.451.534-.056-.033.208-.393c-.371.094-.494.371-.686.6.046.018.071.037.084.031.319-.087.654-.095.977-.022.147.01.286.181.424.286.051.039.081.106.131.148.171.141.359.264.517.417.193.188.092.443.11.67a.965.965 0 0 1-.036.168c.26.008.5.012.735.023.48.05.948.179 1.385.384.416.166.835.321 1.258.468.2.07.419.106.627.166a.192.192 0 0 1 .067.033.194.194 0 0 1 .048.057.173.173 0 0 0 .194.122c.071 0 .144.095.237.163-.2.059-.361.1-.512.154-.042.016-.061.092-.091.141l-.086.001Zm-4.08-2.494-.061.3a2.18 2.18 0 0 0-.057.3.158.158 0 0 0 .068.131c.039.014.134-.018.142-.047.048-.156.076-.317.084-.48 0-.056-.105-.122-.176-.204ZM146.034 41.692c-.026.134.016.182.166.176.114.017.225.051.33.1.055.016.118 0 .173.017.11.024.216.063.315.116.027.016.019.168-.02.2a3.45 3.45 0 0 0-1.028 1.2.607.607 0 0 0 .029.643.962.962 0 0 1-.087.993 2.95 2.95 0 0 1-.875 1.052 2.086 2.086 0 0 0-.327.352c-.424.506-.846 1.013-1.267 1.52-.328.076-.48.406-.775.534-.082.035-.14.126-.232.182.056-.291.366-.615-.186-.8.1-.311.2-.621.309-.925.063-.172.138-.34.226-.5.134-.257.284-.506.449-.745.246-.341.538-.649.773-1 .131-.227.238-.467.319-.716a.272.272 0 0 0-.036-.172.808.808 0 0 1 .054-.762c.146-.27.324-.522.53-.75a6.69 6.69 0 0 1 .875-.671c.068-.048.182-.03.285-.044Z" fill="#8966E9"/><path d="M157.863 56.879a.656.656 0 0 1-.271-.474.596.596 0 0 0-.228-.418 7.275 7.275 0 0 0-2-.975c-.729-.194-1.477-.313-2.209-.5A.759.759 0 0 0 153 54.5l-.527.966.029-.008c-.03.043-.068.081-.094.126-.414.724-.789 1.471-1.165 2.216.391.081.794.109 1.192.159a5.624 5.624 0 0 1 1.661.612c.66.352 1.258.809 1.771 1.353.225.198.47.37.732.516.137.083.241-.006.25-.153a1.256 1.256 0 0 0-.149-.844c-.116-.167-.222-.341-.331-.513a.99.99 0 0 1-.056-.116c.174.082.337.188.483.313.3.249.592.516.908.748a.732.732 0 0 0 .434.113c.041 0 .074-.228.107-.352a.76.76 0 0 0 .008-.143.943.943 0 0 0 .208.131c.1.029.231.074.31.035.079-.039.09-.175.1-.273a2.212 2.212 0 0 0-.006-.364h.062c.05-.1.143-.2.141-.3a1.13 1.13 0 0 0-.113-.449 4.29 4.29 0 0 0-1.092-1.394Z" fill="#C4B3F4"/><path d="M158.932 59.061a.963.963 0 0 1-.3-.144c-.587-.617-1.162-1.245-1.747-1.865-.091-.1-.257-.33-.226-.371.218.064.433.14.642.23.416.249.768.591 1.029 1 .224.292.408.616.609.925l-.007.225ZM158.312 59.658c-.259-.318-.5-.654-.783-.949-.3-.311-.638-.582-.959-.871l-.973-.874c.914-.1 2.832 1.786 2.774 2.651l-.059.043ZM156.888 59.919c-.317-.347-.63-.7-.951-1.041a7.668 7.668 0 0 0-1.433-1.342c-.038-.024-.085-.1-.074-.121a.183.183 0 0 1 .132-.09c.082 0 .162.023.23.068.331.248.672.488.977.767.268.254.517.527.746.816.237.257.369.593.373.943ZM155.521 55.092c.104.003.208.02.307.052.468.222.926.465 1.4.681a.758.758 0 0 1 .477.468.251.251 0 0 1-.016.2.217.217 0 0 1-.2.036 6.86 6.86 0 0 1-.617-.364c-.39-.257-.775-.52-1.159-.785a2.603 2.603 0 0 1-.218-.185l.026-.103Z" fill="#8966E9"/><path d="M176.012 38.691c-.306.03-.609.109-.915.124-.306.015-.614.236-.936 0l3.381-.69-.963-.55a.858.858 0 0 0-.2-.113l-.034-.019-.012.005a.763.763 0 0 0-.12-.037c-.31-.043-.625-.059-.938-.078a4.887 4.887 0 0 0-2.6.281c-.32.164-.627.355-.93.55.015.005.035.006.045.015.156.131.301.275.433.431.336.414.668.832.985 1.261.11.139.199.293.265.457a.46.46 0 0 0 .131-.027c.287-.142.554-.322.829-.487a.942.942 0 0 1 .17-.1c.445-.161.9-.3 1.331-.488.122-.053.471-.261.45-.42-.025-.173-.317-.12-.372-.115Z" fill="#C4B3F4"/><path d="M168.115 43.733a1.892 1.892 0 0 1-.135.266c-.074.1-.166.269-.249.268a.496.496 0 0 1-.36-.2 10.56 10.56 0 0 1-.589-1.079 6.704 6.704 0 0 0-1.211-1.954c-.049-.049-.112-.174-.059-.236.053-.062.193-.021.241.023.2.173.372.369.557.555.046.045.1.085.146.127l.484.8.052-.034a1.77 1.77 0 0 0-.54-.764c-.137-.244-.282-.381-.421-.628a.837.837 0 0 1 1.153-.005c.429.534.722 1.163.855 1.834.006.026.032.048.048.071l.028.956ZM160.749 42.175a6.048 6.048 0 0 0-1.622-1.586.216.216 0 0 1-.087-.071c-.05-.1-.09-.208-.134-.313.11-.012.238-.067.329-.031a3.91 3.91 0 0 1 1.256.908c.969.97 1.752 2.11 2.307 3.363.223.592.316 1.226.272 1.857 0 .032-.031.065-.065.133-.78-1.15-1.042-2.533-1.852-3.659-.223.315-.581.235-.882.306-.771.183-1.55.332-2.324.5-.313.067-.624.146-.944.221.09.554.571 1.063.161 1.651-.25-.047-.315-.245-.4-.415-.165-.343-.315-.694-.485-1.071-.77.229-1.507.441-2.24.668a36.424 36.424 0 0 0-4.715 1.854.409.409 0 0 0-.245.4c-.034.363-.1.723-.154 1.083a.376.376 0 0 1-.081.183c-.071.079-.156.187-.244.2-.088.013-.186-.094-.237-.174a.776.776 0 0 1-.12-.637c.166-.695.228-1.41.184-2.124a9.157 9.157 0 0 0-.286-2.07 2.944 2.944 0 0 0-1.85-2.087c-.144-.058-.307-.113-.278-.344.376.01.742.123 1.057.328a3.294 3.294 0 0 1 1.586 2.023 7.75 7.75 0 0 1 .385 2c.016.321.061.64.1.987a37.139 37.139 0 0 1 6.9-2.795c-.185-.334-.359-.641-.526-.952-.22-.407-.434-.818-.655-1.225a2.603 2.603 0 0 0-.189-.281 6.153 6.153 0 0 1-.737-1.983.812.812 0 0 1-.023-.109l-.035-.2a.62.62 0 0 0 .189.052c.13-.005.259-.03.363-.044.066-.293.131-.591.2-.887.01-.043.052-.107.087-.112.258-.038.282-.251.349-.437.032-.088.069-.219.133-.24.139-.046.258.041.409.03 0 .128.079.192.043.308-.109.341-.254.671-.367 1.011a.403.403 0 0 0 .019.286c.1.177.246.326.33.506.066.171.11.35.131.532.061.49.146.976.256 1.457.2.7.468 1.379.71 2.073l4.021-1.073Z" fill="#8966E9"/><path d="M153.935 39.018c.13.698.379 1.369.737 1.982.069.09.132.183.189.281.221.407.435.818.655 1.225.167.311.341.618.526.952l.241.508c.17.377.32.728.485 1.071.081.17.146.368.4.415.41-.588-.071-1.1-.161-1.651l-.27-.558c-.242-.694-.51-1.374-.71-2.073-.134-.471-.169-.971-.256-1.457a2.17 2.17 0 0 0-.131-.532c-.084-.18-.235-.329-.33-.506a.403.403 0 0 1-.019-.286c.113-.34.258-.67.367-1.011.036-.116-.04-.18-.043-.308-.151.011-.27-.076-.409-.03-.064.021-.1.152-.133.24-.067.186-.091.4-.349.437-.035 0-.077.069-.087.112-.073.3-.138.594-.2.887-.1.014-.233.039-.363.044a.598.598 0 0 1-.188-.052l.034.2c.003.037.008.074.015.11Z" fill="#D6CAF8"/><path d="M152.549 37.7c-1.839-.15-4.3-.513-4.3-.513l-.153 2.048 5.935 1.671.02-1.494s.337-1.562-1.502-1.712Z" fill="#6B40E4"/><path d="M152.456 41.067a2.899 2.899 0 0 1-1.008-.3l-.26-.075-.029.08.982.405-.008.031-.347-.076-.026.064c.091.04.183.077.272.122.089.045.186.1.278.153l-.017.082-.77.022c-.058-.079-.134-.264-.363-.162-.072.033-.068-.084-.17-.1a2.43 2.43 0 0 1-.708-.366c-.068-.042-.095-.147-.16-.2a2.504 2.504 0 0 0-.281-.163 1.016 1.016 0 0 1-.173-.122c-.109-.1-.211-.212-.32-.315-.031-.029-.085-.036-.109-.068-.205-.267-.41-.534-.6-.81-.032-.045-.008-.129-.01-.2.049.053.117.144.129.137a.343.343 0 0 1 .374-.055c.082.039.11-.018.069.141l2.261.871-.315.269-.046-.136c-.017.008-.04.014-.041.021-.006.089-.066.194.067.247.252.1.5.213.756.3.187.066.383.106.575.158l-.002.045Z" fill="#8966E9"/></g><defs><clipPath id="_710310547__a"><path fill="#fff" d="M0 0h240v120H0z"/></clipPath></defs></svg>