<svg xmlns="http://www.w3.org/2000/svg" xmlns:xlink="http://www.w3.org/1999/xlink" viewBox="0 0 548.56 446.63"><defs><style>.cls-1{fill:url(#linear-gradient)}.cls-2{fill:url(#linear-gradient-2)}.cls-3{fill:#fff0b2}.cls-4{fill:url(#linear-gradient-3)}.cls-7{fill:#dfe1e5}.cls-8{fill:#505f79}.cls-9{fill:#97a0af}.cls-10{fill:#253858}.cls-12{fill:#fff}.cls-14{fill:#0065ff}.cls-15{fill:#ffab00}.cls-18{fill:#4c9aff}.cls-20{fill:#79e2f2}.cls-38{mix-blend-mode:multiply}.cls-31{fill:#b08874}.cls-32{fill:#0049b0}.cls-33{fill:#00c7e5}.cls-35{fill:#fafbfc}.cls-36{fill:#c1c7d0}.cls-38,.cls-42{fill:#ffc400}.cls-38{opacity:.3}.cls-39{fill:#ff991f}.cls-41{fill:#ffe380}.cls-44{fill:#e6fcff}.cls-46{fill:#ff8b00}.cls-48{fill:none}.cls-49{fill:#72594b}.cls-50{fill:#344563}.cls-54{fill:#00a3bf}.cls-55{fill:#172b4d}.cls-56{fill:#ecc19c}</style><linearGradient id="linear-gradient" x1="159.79" y1="91.68" x2="159.79" gradientUnits="userSpaceOnUse"><stop offset="0" stop-color="#2684ff"/><stop offset=".52" stop-color="#146ce6"/><stop offset="1" stop-color="#0052cc"/></linearGradient><linearGradient id="linear-gradient-2" x1="222.29" y1="228.11" x2="222.29" y2="136.9" gradientUnits="userSpaceOnUse"><stop offset=".12" stop-color="#2684ff"/><stop offset=".58" stop-color="#146ce6"/><stop offset="1" stop-color="#0052cc"/></linearGradient><linearGradient id="linear-gradient-3" x1="412.96" y1="413.75" x2="502.03" y2="324.68" gradientUnits="userSpaceOnUse"><stop offset="0" stop-color="#00a3bf"/><stop offset="1" stop-color="#00c7e5"/></linearGradient><linearGradient id="linear-gradient-4" x1="42.56" y1="443.99" x2="545.09" y2="443.99" gradientUnits="userSpaceOnUse"><stop offset="0" stop-color="#172b4d" stop-opacity=".1"/><stop offset="1" stop-color="#172b4d"/></linearGradient><linearGradient id="linear-gradient-5" x1="836.81" y1="-575.66" x2="866.9" y2="-675.94" gradientTransform="rotate(-27.76 1971.672 999.33)" gradientUnits="userSpaceOnUse"><stop offset=".32" stop-color="#fff"/><stop offset=".33" stop-color="#fefefe"/><stop offset=".61" stop-color="#dde0e5"/><stop offset=".84" stop-color="#c8ced6"/><stop offset="1" stop-color="#c1c7d0"/></linearGradient><linearGradient id="linear-gradient-6" x1="703.82" y1="-534.54" x2="735.56" y2="-534.54" gradientTransform="rotate(-13.49 3125.379 1942.968)" gradientUnits="userSpaceOnUse"><stop offset=".39" stop-color="#00b8d9"/><stop offset="1" stop-color="#79e2f2"/></linearGradient><linearGradient id="linear-gradient-7" x1="244.72" y1="185.71" x2="244.72" y2="23.9" gradientUnits="userSpaceOnUse"><stop offset="0" stop-color="#e6fcff"/><stop offset=".02" stop-color="#d1f7fd"/><stop offset=".07" stop-color="#a1ecf7"/><stop offset=".12" stop-color="#76e2f2"/><stop offset=".18" stop-color="#51daee"/><stop offset=".23" stop-color="#34d3eb"/><stop offset=".29" stop-color="#1dcee8"/><stop offset=".35" stop-color="#0dcae6"/><stop offset=".42" stop-color="#03c8e5"/><stop offset=".52" stop-color="#00c7e5"/><stop offset=".89" stop-color="#00c7e5" stop-opacity="0"/></linearGradient><clipPath id="clip-path"><path id="_Clipping_Path_" data-name="&lt;Clipping Path&gt;" class="cls-1" d="M134.31 8.34l35-7.49a38.32 38.32 0 0 1 45.47 29.49 38.32 38.32 0 0 1-29.49 45.47l-1.2.29A17.28 17.28 0 0 0 171.48 87l-1.75 4.7-3.51-3.58a17.28 17.28 0 0 0-15.93-4.8 38.32 38.32 0 0 1-45.47-29.49 38.33 38.33 0 0 1 29.49-45.49z"/></clipPath><linearGradient id="linear-gradient-9" x1="307.87" y1="152.25" x2="307.87" y2="50.73" gradientUnits="userSpaceOnUse"><stop offset=".12" stop-color="#00c7e5"/><stop offset="1" stop-color="#00b8d9"/></linearGradient><linearGradient id="linear-gradient-10" x1="937.45" y1="-488.32" x2="937.45" y2="-580.55" gradientTransform="rotate(-16.7 2949.537 1865.198)" gradientUnits="userSpaceOnUse"><stop offset=".32" stop-color="#fff"/><stop offset=".61" stop-color="#e6e9ec"/><stop offset="1" stop-color="#c1c7d0"/></linearGradient><linearGradient id="linear-gradient-11" x1="321.63" y1="77.85" x2="370.97" y2="28.51" gradientUnits="userSpaceOnUse"><stop offset="0" stop-color="#c1c7d0"/><stop offset=".39" stop-color="#e6e9ec"/><stop offset=".68" stop-color="#fff"/></linearGradient><clipPath id="clip-path-2"><path id="_Clipping_Path_2" data-name="&lt;Clipping Path&gt;" class="cls-2" d="M249.92 148.39l-34-10a38 38 0 0 0-47.06 25.81 38 38 0 0 0 25.8 47.06l1.16.38a17.11 17.11 0 0 1 11.65 11.66l1.38 4.77 3.72-3.28a17.14 17.14 0 0 1 16.1-3.57 38 38 0 0 0 47.06-25.81 38 38 0 0 0-25.81-47.02z"/></clipPath><linearGradient id="linear-gradient-13" x1="827.68" y1="-444.96" x2="827.68" y2="-527.82" gradientTransform="rotate(-27.76 1968.82 1054.49)" xlink:href="#linear-gradient-10"/><linearGradient id="linear-gradient-14" x1="230.23" y1="156.84" x2="274.56" y2="112.52" xlink:href="#linear-gradient-11"/><linearGradient id="linear-gradient-15" x1="936.78" y1="-464.03" x2="966.87" y2="-564.31" gradientTransform="rotate(-27.76 2017.89 1037.846)" xlink:href="#linear-gradient-5"/><linearGradient id="linear-gradient-16" x1="809.89" y1="-428.7" x2="841.64" y2="-428.7" xlink:href="#linear-gradient-6"/><linearGradient id="linear-gradient-17" x1="143.7" y1="273.66" x2="143.7" y2="118.82" gradientUnits="userSpaceOnUse"><stop offset=".29" stop-color="#fff"/><stop offset=".77" stop-color="#c1c7d0"/></linearGradient><linearGradient id="linear-gradient-18" x1="155.68" y1="261.3" x2="155.68" y2="108.69" gradientUnits="userSpaceOnUse"><stop offset=".29" stop-color="#fff"/><stop offset=".98" stop-color="#c1c7d0"/></linearGradient><linearGradient id="linear-gradient-19" x1="422.18" y1="-204.97" x2="449.66" y2="-351.86" gradientTransform="rotate(-10.6 2728.08 1394.465)" gradientUnits="userSpaceOnUse"><stop offset=".26" stop-color="#fff"/><stop offset=".46" stop-color="#eeeff2"/><stop offset=".68" stop-color="#e3e5e8"/><stop offset=".92" stop-color="#dfe1e5"/></linearGradient><linearGradient id="linear-gradient-20" x1="5264.83" y1="427.25" x2="5115.9" y2="169.28" gradientTransform="matrix(1 0 0 -1 -4883.49 596.53)" gradientUnits="userSpaceOnUse"><stop offset=".26" stop-color="#ffab00"/><stop offset=".89" stop-color="#ffe380"/></linearGradient><clipPath id="clip-path-3"><path id="_Clipping_Path_3" data-name="&lt;Clipping Path&gt;" class="cls-3" d="M268.56 244.49h206.13l-64.75-58.69H203.81l64.75 58.69z"/></clipPath><linearGradient id="linear-gradient-21" x1="348.74" y1="70.44" x2="348.74" y2=".71" gradientUnits="userSpaceOnUse"><stop offset="0" stop-color="#ffe380"/><stop offset=".11" stop-color="#ffda6c"/><stop offset=".4" stop-color="#ffc63e"/><stop offset=".65" stop-color="#ffb71c"/><stop offset=".86" stop-color="#ffae07"/><stop offset="1" stop-color="#ffab00"/></linearGradient><clipPath id="clip-path-4"><path id="_Clipping_Path_4" data-name="&lt;Clipping Path&gt;" class="cls-4" d="M409.94 291.71h45.44c17.48 0 31.66 13.34 31.66 29.78 0 11.84 7.45 22.56 19 27.29l16 6.57c11.53 4.74 19 15.45 19 27.29v28.09h-131.1z"/></clipPath><linearGradient id="linear-gradient-23" x1="233.32" y1="439.04" x2="269.95" y2="402.41" gradientUnits="userSpaceOnUse"><stop offset=".4" stop-color="#f4f5f7"/><stop offset="1" stop-color="#fff"/></linearGradient><linearGradient id="linear-gradient-24" x1="352.1" y1="439.04" x2="388.72" y2="402.41" xlink:href="#linear-gradient-23"/><linearGradient id="linear-gradient-25" x1="255.6" y1="149.79" x2="276.92" y2="149.79" gradientUnits="userSpaceOnUse"><stop offset="0" stop-color="#ff8b00"/><stop offset=".62" stop-color="#ff991f"/></linearGradient><linearGradient id="linear-gradient-26" x1="244.72" y1="176.9" x2="265.89" y2="155.72" xlink:href="#linear-gradient-25"/><linearGradient id="Y400-Y200" x1="259.24" y1="197.72" x2="284.46" y2="172.5" gradientUnits="userSpaceOnUse"><stop offset="0" stop-color="#ff991f"/><stop offset="1" stop-color="#ffc400"/></linearGradient><linearGradient id="Y400-Y200-2" x1="257.74" y1="193.32" x2="283.18" y2="193.32" xlink:href="#Y400-Y200"/><linearGradient id="linear-gradient-27" x1="237.6" y1="169.44" x2="250.62" y2="169.44" gradientUnits="userSpaceOnUse"><stop offset="0" stop-color="#ff8b00"/><stop offset=".7" stop-color="#ff991f"/></linearGradient><linearGradient id="linear-gradient-28" x1="250.47" y1="149.6" x2="258.02" y2="149.6" xlink:href="#linear-gradient-27"/></defs><g style="isolation:isolate"><g id="Layer_2" data-name="Layer 2"><g id="Layer_1-2" data-name="Layer 1"><path d="M42.56 441.35h499.9a2.64 2.64 0 0 1 2.64 2.64 2.64 2.64 0 0 1-2.64 2.64H42.56v-5.28z" opacity=".1" fill="url(#linear-gradient-4)"/><circle class="cls-7" cx="111.36" cy="420.73" r="25.9"/><circle class="cls-7" cx="111.5" cy="420.73" r="25.9"/><circle class="cls-7" cx="111.63" cy="420.73" r="25.9"/><circle class="cls-7" cx="111.76" cy="420.73" r="25.9"/><circle class="cls-7" cx="111.89" cy="420.73" r="25.9"/><circle class="cls-7" cx="112.03" cy="420.73" r="25.9"/><circle class="cls-7" cx="112.16" cy="420.73" r="25.9"/><circle class="cls-7" cx="112.29" cy="420.73" r="25.9"/><circle class="cls-7" cx="112.42" cy="420.73" r="25.9"/><circle class="cls-7" cx="112.56" cy="420.73" r="25.9"/><circle class="cls-7" cx="112.69" cy="420.73" r="25.9"/><circle class="cls-7" cx="112.82" cy="420.73" r="25.9"/><circle class="cls-7" cx="112.95" cy="420.73" r="25.9"/><circle class="cls-7" cx="113.09" cy="420.73" r="25.9"/><circle class="cls-7" cx="113.22" cy="420.73" r="25.9"/><circle class="cls-7" cx="113.35" cy="420.73" r="25.9"/><circle class="cls-7" cx="113.49" cy="420.73" r="25.9"/><circle class="cls-7" cx="113.62" cy="420.73" r="25.9"/><circle class="cls-7" cx="113.75" cy="420.73" r="25.9"/><circle class="cls-7" cx="113.88" cy="420.73" r="25.9"/><circle class="cls-7" cx="114.02" cy="420.73" r="25.9"/><circle class="cls-7" cx="114.15" cy="420.73" r="25.9"/><circle class="cls-7" cx="114.28" cy="420.73" r="25.9"/><circle class="cls-7" cx="114.41" cy="420.73" r="25.9"/><circle class="cls-7" cx="114.55" cy="420.73" r="25.9"/><circle class="cls-7" cx="114.68" cy="420.73" r="25.9"/><circle class="cls-7" cx="114.81" cy="420.73" r="25.9"/><circle class="cls-7" cx="114.94" cy="420.73" r="25.9"/><circle class="cls-7" cx="115.08" cy="420.73" r="25.9"/><circle class="cls-7" cx="115.21" cy="420.73" r="25.9"/><circle class="cls-7" cx="115.34" cy="420.73" r="25.9"/><circle class="cls-7" cx="115.47" cy="420.73" r="25.9"/><circle class="cls-7" cx="115.61" cy="420.73" r="25.9"/><circle class="cls-7" cx="115.74" cy="420.73" r="25.9"/><circle class="cls-7" cx="115.87" cy="420.73" r="25.9"/><circle class="cls-7" cx="116.01" cy="420.73" r="25.9"/><circle class="cls-7" cx="116.14" cy="420.73" r="25.9"/><circle class="cls-7" cx="116.27" cy="420.73" r="25.9"/><circle class="cls-7" cx="116.4" cy="420.73" r="25.9"/><circle class="cls-7" cx="116.54" cy="420.73" r="25.9"/><circle class="cls-7" cx="116.67" cy="420.73" r="25.9"/><circle class="cls-7" cx="116.8" cy="420.73" r="25.9"/><circle class="cls-7" cx="116.93" cy="420.73" r="25.9"/><circle class="cls-7" cx="117.07" cy="420.73" r="25.9"/><circle class="cls-7" cx="117.2" cy="420.73" r="25.9"/><circle class="cls-7" cx="117.33" cy="420.73" r="25.9"/><circle class="cls-7" cx="117.46" cy="420.73" r="25.9"/><circle class="cls-7" cx="117.6" cy="420.73" r="25.9"/><circle class="cls-7" cx="117.73" cy="420.73" r="25.9"/><circle class="cls-7" cx="117.86" cy="420.73" r="25.9"/><circle class="cls-7" cx="117.99" cy="420.73" r="25.9"/><circle class="cls-7" cx="118.13" cy="420.73" r="25.9"/><circle class="cls-7" cx="118.26" cy="420.73" r="25.9"/><circle class="cls-7" cx="118.39" cy="420.73" r="25.9"/><circle class="cls-7" cx="118.53" cy="420.73" r="25.9"/><circle class="cls-7" cx="118.66" cy="420.73" r="25.9"/><circle class="cls-7" cx="118.79" cy="420.73" r="25.9"/><circle class="cls-7" cx="118.92" cy="420.73" r="25.9"/><circle class="cls-7" cx="119.06" cy="420.73" r="25.9"/><circle class="cls-7" cx="119.19" cy="420.73" r="25.9"/><circle class="cls-7" cx="119.32" cy="420.73" r="25.9"/><circle class="cls-7" cx="119.45" cy="420.73" r="25.9"/><circle class="cls-7" cx="119.59" cy="420.73" r="25.9"/><circle class="cls-7" cx="119.72" cy="420.73" r="25.9"/><circle class="cls-7" cx="119.85" cy="420.73" r="25.9"/><circle class="cls-7" cx="119.98" cy="420.73" r="25.9"/><circle class="cls-7" cx="120.12" cy="420.73" r="25.9"/><circle class="cls-7" cx="120.25" cy="420.73" r="25.9"/><circle class="cls-7" cx="120.38" cy="420.73" r="25.9"/><circle class="cls-7" cx="120.51" cy="420.73" r="25.9"/><circle class="cls-7" cx="120.65" cy="420.73" r="25.9"/><circle class="cls-7" cx="120.78" cy="420.73" r="25.9"/><circle class="cls-7" cx="120.91" cy="420.73" r="25.9"/><circle class="cls-7" cx="121.05" cy="420.73" r="25.9"/><circle class="cls-7" cx="121.18" cy="420.73" r="25.9"/><circle class="cls-7" cx="121.31" cy="420.73" r="25.9"/><circle class="cls-7" cx="121.44" cy="420.73" r="25.9"/><circle class="cls-7" cx="121.58" cy="420.73" r="25.9"/><circle class="cls-7" cx="121.71" cy="420.73" r="25.9"/><circle class="cls-7" cx="121.84" cy="420.73" r="25.9"/><circle class="cls-7" cx="121.97" cy="420.73" r="25.9"/><circle class="cls-7" cx="122.11" cy="420.73" r="25.9"/><circle class="cls-7" cx="122.24" cy="420.73" r="25.9"/><circle class="cls-7" cx="122.37" cy="420.73" r="25.9"/><circle class="cls-7" cx="122.5" cy="420.73" r="25.9"/><circle class="cls-7" cx="122.64" cy="420.73" r="25.9"/><circle class="cls-7" cx="122.77" cy="420.73" r="25.9"/><circle class="cls-7" cx="122.9" cy="420.73" r="25.9"/><circle class="cls-7" cx="123.03" cy="420.73" r="25.9"/><circle class="cls-7" cx="123.17" cy="420.73" r="25.9"/><circle class="cls-7" cx="123.3" cy="420.73" r="25.9"/><circle class="cls-7" cx="123.43" cy="420.73" r="25.9"/><circle class="cls-7" cx="123.57" cy="420.73" r="25.9"/><circle class="cls-7" cx="123.7" cy="420.73" r="25.9"/><circle class="cls-7" cx="123.83" cy="420.73" r="25.9"/><circle class="cls-7" cx="123.96" cy="420.73" r="25.9"/><circle class="cls-7" cx="124.1" cy="420.73" r="25.9"/><circle class="cls-7" cx="124.23" cy="420.73" r="25.9"/><circle class="cls-7" cx="124.36" cy="420.73" r="25.9"/><circle class="cls-7" cx="124.49" cy="420.73" r="25.9"/><circle class="cls-7" cx="124.63" cy="420.73" r="25.9"/><circle class="cls-7" cx="124.76" cy="420.73" r="25.9"/><circle class="cls-7" cx="124.89" cy="420.73" r="25.9"/><circle class="cls-7" cx="125.02" cy="420.73" r="25.9"/><circle class="cls-7" cx="125.16" cy="420.73" r="25.9"/><circle class="cls-7" cx="125.29" cy="420.73" r="25.9"/><circle class="cls-7" cx="125.42" cy="420.73" r="25.9"/><circle class="cls-7" cx="125.55" cy="420.73" r="25.9"/><circle class="cls-7" cx="125.69" cy="420.73" r="25.9"/><circle class="cls-7" cx="125.82" cy="420.73" r="25.9"/><circle class="cls-7" cx="125.95" cy="420.73" r="25.9"/><circle class="cls-8" cx="125.95" cy="420.73" r="25.9"/><path class="cls-8" d="M126 420.73h334.37V428h-327.1a7.32 7.32 0 0 1-7.32-7.32l.05.05z"/><path class="cls-9" d="M251.63 394.83H237a25.9 25.9 0 1 0 0 51.8h14.59a25.9 25.9 0 0 0 0-51.8zM370.41 394.83h-14.59a25.9 25.9 0 1 0 0 51.8h14.59a25.9 25.9 0 0 0 0-51.8zM483.69 394.83H469.1a25.9 25.9 0 0 0 0 51.8h14.59a25.9 25.9 0 0 0 0-51.8z"/><path class="cls-10" d="M98.21 420.73a33.78 33.78 0 1 1 67.55 0"/><path transform="rotate(11.05 223.916 82.898)" fill="url(#linear-gradient-5)" d="M179.25 38.23h89.24v89.24h-89.24z"/><path class="cls-12" transform="rotate(101.05 223.879 82.857)" d="M185.67 44.65h76.4v76.4h-76.4z"/><path fill="url(#linear-gradient-6)" d="M192.01 95.85l20.48-13.78 13.77 20.47-34.25-6.69z"/><path class="cls-14" d="M204.03 98.2l26.58-17.89 17.89 26.58-44.47-8.69z"/><circle class="cls-15" cx="214.94" cy="63.62" r="5.96"/><path fill="url(#linear-gradient-7)" opacity=".4" d="M489.44 23.9H0l80.16 161.81h329.13L489.44 23.9z"/><path id="_Clipping_Path_5" data-name="&lt;Clipping Path&gt;" class="cls-1" d="M134.31 8.34l35-7.49a38.32 38.32 0 0 1 45.47 29.49 38.32 38.32 0 0 1-29.49 45.47l-1.2.29A17.28 17.28 0 0 0 171.48 87l-1.75 4.7-3.51-3.58a17.28 17.28 0 0 0-15.93-4.8 38.32 38.32 0 0 1-45.47-29.49 38.33 38.33 0 0 1 29.49-45.49z"/><g clip-path="url(#clip-path)"><path class="cls-18" transform="rotate(-12.73 156.406 32.332)" d="M130.13 30.2h52.62v4.25h-52.62z"/><path class="cls-18" transform="rotate(-12.73 159.16 43.848)" d="M132.9 41.73h52.62v4.25H132.9z"/><path class="cls-18" transform="rotate(-12.73 161.96 55.37)" d="M135.68 53.26h52.62v4.25h-52.62z"/></g><path id="_Path_" data-name="&lt;Path&gt;" d="M338.62 63.51l-37.85-11.08a42.23 42.23 0 0 0-52.38 28.72 42.26 42.26 0 0 0 28.72 52.39l1.29.41a19.05 19.05 0 0 1 13 13l1.54 5.31 4.15-3.65a19 19 0 0 1 17.91-4 42.26 42.26 0 0 0 52.39-28.72 42.25 42.25 0 0 0-28.77-52.38z" fill="url(#linear-gradient-9)"/><path class="cls-20" transform="rotate(-79 309.725 86.395)" d="M306.66 55.25h3.96v62.28h-3.96z"/><path class="cls-20" transform="rotate(-79.25 306.229 100.219)" d="M304.23 69.08h3.96v62.28h-3.96z"/><path class="cls-20" transform="rotate(-79.25 303.799 114.045)" d="M301.8 82.91h3.96v62.28h-3.96z"/><path d="M366.48 118.52L302.16 106l-9 46.07 3.89-3.42a19 19 0 0 1 17.91-4 42.25 42.25 0 0 0 51.52-26.13z" style="mix-blend-mode:multiply" fill="url(#linear-gradient-10)" opacity=".6"/><path d="M359.88 77.82a42 42 0 0 0-21.26-14.31L307 54.25a34.87 34.87 0 0 0 52.87 23.57z" style="mix-blend-mode:multiply" fill="url(#linear-gradient-11)" opacity=".4"/><path id="_Clipping_Path_6" data-name="&lt;Clipping Path&gt;" class="cls-2" d="M249.92 148.39l-34-10a38 38 0 0 0-47.06 25.81 38 38 0 0 0 25.8 47.06l1.16.38a17.11 17.11 0 0 1 11.65 11.66l1.38 4.77 3.72-3.28a17.14 17.14 0 0 1 16.1-3.57 38 38 0 0 0 47.06-25.81 38 38 0 0 0-25.81-47.02z"/><g clip-path="url(#clip-path-2)"><path class="cls-18" transform="rotate(-79 223.866 169.298)" d="M221.21 140.97h3.56v55.95h-3.56z"/><path class="cls-18" transform="rotate(-79.25 220.826 181.37)" d="M219.03 153.39h3.56v55.95h-3.56z"/><path class="cls-18" transform="rotate(-79 219.519 194.224)" d="M216.85 165.82h3.56v55.95h-3.56z"/><path transform="rotate(11.05 241.446 222.594)" style="mix-blend-mode:multiply" fill="url(#linear-gradient-13)" opacity=".6" d="M210.71 191.83h61.35v61.35h-61.35z"/><circle cx="252.39" cy="134.68" r="31.34" style="mix-blend-mode:multiply" fill="url(#linear-gradient-14)" opacity=".4"/></g><path transform="rotate(11.05 351.794 161.103)" fill="url(#linear-gradient-15)" d="M307.09 116.41h89.24v89.24h-89.24z"/><path class="cls-12" transform="rotate(101.05 351.716 161.048)" d="M313.51 122.83h76.4v76.4h-76.4z"/><path fill="url(#linear-gradient-16)" d="M319.85 174.04l20.47-13.78 13.78 20.47-34.25-6.69z"/><path class="cls-14" d="M331.87 176.39l26.57-17.89 17.89 26.57-44.46-8.68z"/><circle class="cls-15" cx="342.78" cy="141.81" r="5.96"/><path id="_Path_2" data-name="&lt;Path&gt;" fill="url(#linear-gradient-17)" d="M181.22 135.31l33.53 106.57-101 31.78-41.1-130.64 76.91-24.2 31.65 16.49h.01z"/><path id="_Path_3" data-name="&lt;Path&gt;" fill="url(#linear-gradient-18)" d="M196.31 126.91l27.56 108.27-102.61 26.12-33.78-132.72 78.14-19.89 30.68 18.23.01-.01z"/><path d="M144.51 70.46c.05-.18.58 0 2.1-.43a4.58 4.58 0 0 0 1.67-.61c1.23-.94.7-3.5.59-4h7.25c0 .67-.08 1.51-.12 2.48-.05 1.21 0 1.46.12 1.75.62 1.08 2.44.75 2.53 1.21s-2.29 2.07-5.23 2.38c-4.8.52-9.06-2.24-8.91-2.78z" fill="#9c7761"/><path class="cls-31" d="M145.63 82.51c-1.54 1.36-6.46-1.9-8.44-3.22-3.39-2.24-8.5-9-12.89-15.6a6.7 6.7 0 0 1-1-2.73c-.55-3.61-1.87-12.27-2.7-17.06 2.25-1.41 3.08-.21 4.8-.34 1.45 6.06 2.67 11.19 4.11 17.25.61.64 1.59 1.68 2.85 2.9 6.3 6.11 9.09 6.88 11.54 11 1.49 2.54 3.02 6.64 1.73 7.8z"/><path class="cls-10" d="M147.5 57a5.91 5.91 0 0 1-2.22-2.17c-.9-1.65-1.07-4.28.33-5.29a3.17 3.17 0 0 1 2.14-.39 5.19 5.19 0 0 1 2.73 1 11.78 11.78 0 0 1 2-.31c1.42-.11 3.87-.34 5.9 1.12a7.92 7.92 0 0 1 3.06 5.24 9.18 9.18 0 0 1-2.15 7.16c-1.11 1.34-2 2.43-3.31 2.46-2.86.07-3.11-5.29-8.48-8.82z"/><path class="cls-31" d="M158.1 59.66c.46.16.3 2.24-.28 3.7-1.14 2.85-4.19 4.1-5.58 4.56l-3.91-.47a20 20 0 0 1-2.4-9.57 18.69 18.69 0 0 1 .43-3.75 12.5 12.5 0 0 0 3.6 1.64c3.11.86 5.26.12 5.95 1.31s-.5 2.66.34 3.37a1.26 1.26 0 0 0 .75.26c.39-.58.84-1.15 1.1-1.05z"/><circle class="cls-32" cx="146.55" cy="59.74" r="1.96"/><circle class="cls-32" cx="152.32" cy="59.74" r="2.17"/><path class="cls-32" d="M148.14 59.21h2.73v1.07h-2.73zM153.43 59.21h2.73v1.07h-2.73z"/><path class="cls-33" d="M136.83 66.12c-1 .91-1.94 1.82-3 2.74a146.96 146.96 0 0 1-4.34 3.71 32.45 32.45 0 0 0 5.55 6.15c3 2.56 4.1 2.5 4.47 2.45 1.92-.25 2.51-2.38 4.83-2.53 1.44-.09 1.89.7 2.49.32 1.66-1.06.39-8.31-2.79-9.5-.47-.18-1.3-.34-3.23-1a10.75 10.75 0 0 1-1.87-.77 9.09 9.09 0 0 1-2.11-1.57z"/><path class="cls-33" d="M142.32 69.14c-1.43.21-2.23 2.59-2.56 3.66a33 33 0 0 0-1.28 9.67c-.08 5.29.08 7.14-.06 12.8 0 1.3 0 2-.09 2.76a77.41 77.41 0 0 1-1.77 13.18 38.28 38.28 0 0 0 17 4.2 37.64 37.64 0 0 0 8.18-.84q.31-6.69 1-13.83c.17-1.8.37-4.09.67-6.62a163.45 163.45 0 0 1 2.95-16.94 10.35 10.35 0 0 0-1.78-2.89 12.37 12.37 0 0 0-2.44-2.05 13.79 13.79 0 0 0-5.41-2.08 6.65 6.65 0 0 1-7 2.27 6.08 6.08 0 0 1-3.16-2.65c-.45 0-1.15-.14-2-.29a9.72 9.72 0 0 0-2.25-.35z"/><path class="cls-31" d="M118.37 39.86l2.18 4 4.8-.34.76-4.14s.66-4.21-.15-5.24c-.15-.18-.47-.14-.72 0s-.55 1.7-.55 1.7l-.6 1.46s-.32-5.12-.47-6.59c0-.27-1-.26-1.07 0-.18 1.17-.33 5.31-.33 5.31a54.8 54.8 0 0 0-1-5.48c-.09-.25-1-.1-1.07.17-.22 1.17.53 5.88.53 5.88s-.83-3.62-1.34-4.88c-.09-.23-1-.08-1 .17.12 1.42.8 5.55.8 5.55s-.55-2.71-1-4.08c0-.19-.7.2-.69.4.16 1.52.92 6.11.92 6.11z"/><path id="_Path_4" data-name="&lt;Path&gt;" fill="url(#linear-gradient-19)" d="M211.42 117.24l20.54 109.82-104.08 19.47-25.18-134.62 79.26-14.83 29.44 20.17.02-.01z"/><path class="cls-35" d="M211.42 117.24l-24.8 4.64-4.65-24.8 29.45 20.16z"/><path class="cls-36" transform="rotate(-10.6 159.838 136.98)" d="M129.76 134.78h60.05v4.25h-60.05z"/><path class="cls-36" transform="rotate(-10.6 162.425 150.701)" d="M132.33 148.52h60.05v4.25h-60.05z"/><path class="cls-36" transform="rotate(-10.6 165.007 164.477)" d="M134.9 162.27h60.05v4.25H134.9z"/><path class="cls-31" d="M139.29 103.85a12.35 12.35 0 0 1 3.27-1.89c1.37-.25 1.37.45 4.2.65 1.14.09 1.62 0 2 .41a2.08 2.08 0 0 1-.3 2.75 2.35 2.35 0 0 1-1.53.25 9.43 9.43 0 0 1-2.07-.41 12 12 0 0 0-1.58-.37c-.88 0-1.26.35-2.16.24a2.85 2.85 0 0 1-.84-.22 1.28 1.28 0 0 1-.72.22 1.23 1.23 0 0 1-.74-.22c-.31 0-.66-.05-.72-.23s.42-.67 1.19-1.18z"/><path id="_Rectangle_" data-name="&lt;Rectangle&gt;" transform="rotate(-180 306.875 298.265)" fill="url(#linear-gradient-20)" d="M203.81 185.8h206.13v224.94H203.81z"/><path class="cls-38" d="M203.81 185.8v158.56a71.39 71.39 0 0 1 21.74-28.1c35.69-27.88 82.67-12.78 123.78-32.29 24.24-11.51 50.45-37 59.3-98.17z"/><path id="_Rectangle_2" data-name="&lt;Rectangle&gt;" class="cls-39" transform="rotate(-180 142.125 298.265)" d="M80.44 185.8h123.37v224.94H80.44z"/><path class="cls-38" d="M80.44 349.78c2.47-10.22 6.58-21 13.52-30.1 21.35-27.87 49.47-12.77 74.07-32.29 14.78-11.72 30.78-37.9 35.78-101.59H80.44z"/><path class="cls-41" d="M139.47 185.8h5.31v224.94h-5.31z"/><path class="cls-42" d="M139.06 244.49H15.69l64.75-58.69h123.37l-64.75 58.69z"/><path id="_Clipping_Path_7" data-name="&lt;Clipping Path&gt;" class="cls-3" d="M268.56 244.49h206.13l-64.75-58.69H203.81l64.75 58.69z"/><g clip-path="url(#clip-path-3)"><ellipse class="cls-38" cx="266.99" cy="187.26" rx="22.15" ry="13.1"/></g><path class="cls-42" d="M120.65 373.92h39.81v36.81h-39.81z"/><path class="cls-41" d="M291.21 373.92h39.81v36.81h-39.81z"/><path class="cls-20" d="M414.24 93.69a13 13 0 0 0 9.84 9.84 13 13 0 0 0-9.84 9.84 13 13 0 0 0-9.84-9.84 13 13 0 0 0 9.84-9.84z"/><path class="cls-44" d="M76.52 40.57a13 13 0 0 0 9.84 9.84 13 13 0 0 0-9.84 9.84 13 13 0 0 0-9.85-9.84 13 13 0 0 0 9.85-9.84zM446 7.81a13 13 0 0 0 9.84 9.84A13 13 0 0 0 446 27.5a13 13 0 0 0-9.84-9.85A13 13 0 0 0 446 7.81z"/><path class="cls-20" d="M256.53 13.51a13 13 0 0 0 9.84 9.84 13 13 0 0 0-9.84 9.84 13 13 0 0 0-9.84-9.84 13 13 0 0 0 9.84-9.84zM87.48 79.88a13 13 0 0 0 9.84 9.84 13 13 0 0 0-9.84 9.84 13 13 0 0 0-9.84-9.84 13 13 0 0 0 9.84-9.84z"/><circle cx="348.74" cy="35.57" r="34.87" fill="url(#linear-gradient-21)"/><circle class="cls-46" cx="332.01" cy="30.5" r="3.71"/><circle class="cls-46" cx="365.47" cy="29.75" r="3.71"/><path class="cls-39" d="M332 43.57a23.06 23.06 0 0 0 33.46 0z"/><path class="cls-31" d="M161.53 73.17c2.69-.78 7.32 6.9 9.33 11.7a28.69 28.69 0 0 1 2.21 10.78c.08 2.39.11 3.61-.5 4.69-.94 1.71-3 3-12.79 4-3 .32-6.93.66-11.68.77-.08-1.08-.17-2.16-.25-3.25 2.36-.62 4.44-1.19 6.16-1.67 3.1-.86 4.93-1.62 8.13-2.33 1.36-.3 2.47-.5 3.2-.62-.23-1-.57-2.47-1-4.21-1.06-4-1.58-4.93-1.83-5.37a12.68 12.68 0 0 0-3.2-3.66c-.31-9.48 1.52-10.62 2.22-10.83z"/><path class="cls-33" d="M161.12 90.08l2.63 1a6.26 6.26 0 0 1 2.06-3.89 6.6 6.6 0 0 1 5.72-1.2 39.92 39.92 0 0 0-4-8 17.92 17.92 0 0 0-3.82-4.53c-1.37-1.07-5.27-3.65-6.92-2.44-2.17 1.6.56 9.15 2.42 14.31.73 2.05 1.44 3.67 1.91 4.75z"/><path id="_Clipping_Path_8" data-name="&lt;Clipping Path&gt;" class="cls-4" d="M409.94 291.71h45.44c17.48 0 31.66 13.34 31.66 29.78 0 11.84 7.45 22.56 19 27.29l16 6.57c11.53 4.74 19 15.45 19 27.29v28.09h-131.1z"/><g clip-path="url(#clip-path-4)"><circle class="cls-20" cx="536.92" cy="369.94" r="11.62"/><path id="_Rectangle_3" data-name="&lt;Rectangle&gt;" class="cls-44" d="M415.55 298.22h42.9a23.92 23.92 0 0 1 23.92 23.92v29.09h-66.82v-53-.01z"/><path class="cls-48" d="M453.51 338.62l-.76-.44a4.49 4.49 0 0 1-.41.58l-4.61.16a26.58 26.58 0 0 1 1.62 3.83c2.08 1.2 4.41 2.41 7 3.57 1.05.48 2.08.91 3.09 1.31a18.26 18.26 0 0 1-2.84-8.42 4.84 4.84 0 0 1-3.09-.59zM460.39 333.78l2.26-.17.09 1.93a2.59 2.59 0 0 1-1.29 2.35 2.1 2.1 0 0 1-.64.26l-.69.19c.4 5.79 3.6 10.48 7.34 10.48a5.68 5.68 0 0 0 4.15-2.09l-5.2-9a1.22 1.22 0 0 1 2.11-1.21l4.62 8a16.14 16.14 0 0 0 1.72-7.41c0-6.35-3.39-11.71-7.4-11.71-2.92 0-5.5 2.86-6.69 6.87a1.63 1.63 0 0 1-.26 1z"/><path class="cls-12" d="M420.3 325.47v-1a.41.41 0 0 0 0-.11 7 7 0 0 1-3.64-2.22 7.79 7.79 0 0 1-1.14-1.49v3.62a11.81 11.81 0 0 1 2.63 1.63c.69-.17 1.4-.31 2.15-.43zM428.79 324.35a5.56 5.56 0 0 0 .12 1.26l.4.07v-2.82l-.31.14a5.11 5.11 0 0 0-.21 1.35zM417.65 304.55a4.32 4.32 0 0 1 2.33 2.6.17.17 0 0 1 0 .07 7.78 7.78 0 0 1 3.64-.55 24.08 24.08 0 0 0-8.08-6.19v3.67a4.63 4.63 0 0 1 2.11.4zM477 351.22l-1.82-3.14a12 12 0 0 1-1.71 1.9l.72 1.24zM466.86 336.05a1.21 1.21 0 0 0-.45 1.66l5.2 9a10.48 10.48 0 0 0 1.53-2.22l-4.62-8a1.21 1.21 0 0 0-1.66-.44z"/><path class="cls-49" d="M461.45 337.89a2.59 2.59 0 0 0 1.29-2.35l-.09-1.93-2.26.17a18 18 0 0 0-.32 3.32c0 .42 0 .83.05 1.24l.69-.19a2.1 2.1 0 0 0 .64-.26z"/><path class="cls-50" d="M475.2 348.08a18.69 18.69 0 0 0 3.26-11c0-8.59-4.83-15.32-11-15.32-5 0-9.13 4.44-10.5 10.71l3.82-.36v.13c1.19-4 3.77-6.87 6.69-6.87 4 0 7.4 5.36 7.4 11.71a16.14 16.14 0 0 1-1.72 7.41 10.48 10.48 0 0 1-1.53 2.22 5.68 5.68 0 0 1-4.15 2.09c-3.74 0-6.94-4.69-7.34-10.48 0-.41-.05-.82-.05-1.24a18 18 0 0 1 .32-3.32l.12-.55a1.65 1.65 0 0 1-.87.68l-.66.23-1 .92a5.07 5.07 0 0 1-1.43.88v1.16a20.83 20.83 0 0 0 .11 2.11 18.26 18.26 0 0 0 2.84 8.42q2.43 1 4.65 1.72l-1 1.85h8.69a9.83 9.83 0 0 0 1.68-1.24 12 12 0 0 0 1.67-1.86z"/><path class="cls-49" d="M453.29 335.55a3.63 3.63 0 0 1-.54 2.63l.76.44a4.84 4.84 0 0 0 3.07.59 20.83 20.83 0 0 1-.11-2.11v-1.16a5.07 5.07 0 0 0 1.43-.88l1-.92.66-.23a1.66 1.66 0 0 0 1.13-1.65v-.13l-3.82.36-1.72.16-2.6 1.5a3.45 3.45 0 0 1 .74 1.4z"/><path class="cls-50" d="M436.83 339.3h1a59.11 59.11 0 0 1-1.63-2.58 6.41 6.41 0 0 1 .63 2.58zM447.73 338.92l4.61-.16a4.49 4.49 0 0 0 .41-.58 3.63 3.63 0 0 0 .54-2.63 3.45 3.45 0 0 0-.65-1.4l-8.55-.49.6.68a24.44 24.44 0 0 1 3.04 4.58z"/><path class="cls-10" d="M459.42 347.63c-1-.4-2-.83-3.09-1.31-2.57-1.16-4.9-2.37-7-3.57a26.58 26.58 0 0 0-1.62-3.83 24.44 24.44 0 0 0-3.07-4.62l-.6-.68a26.28 26.28 0 0 0-14.75-7.94l-.4-.07a28.27 28.27 0 0 0-5.5-.45 26.61 26.61 0 0 0-3.11.31c-.75.12-1.46.26-2.12.42a11.69 11.69 0 0 1 4.24 9v16.31h12.79c-1.1-4.17-.54-6.5.29-7.89a7.22 7.22 0 0 0 1.35-3.72v-.31a6.41 6.41 0 0 0-.66-2.61c.49.83 1 1.69 1.63 2.58a56.48 56.48 0 0 0 3.38 4.54c1.22 1.45 2.43 2.75 3.6 3.9a37 37 0 0 0 8.28 3.5h10l1-1.85q-2.21-.72-4.64-1.71z"/><path class="cls-49" d="M428 316.59c-.27.05-.55-1-.95-.95s-.65 1-.75 1.76c-.2 1.48.25 2.06.21 2.91-.09 1.88-2.55 4-5.14 4.12a4.31 4.31 0 0 1-1-.08.41.41 0 0 1 0 .11v1a26.61 26.61 0 0 1 3.11-.31 28.27 28.27 0 0 1 5.5.45 5.56 5.56 0 0 1-.12-1.26A5.11 5.11 0 0 1 429 323l.29-.11.42-.16 1.87-.73-.64-4.65c.07-.29.73-.73.85-1.06s-.49-.44-.94-.68-.47-.34-.55-.57a24.26 24.26 0 0 0-1.77-3.17 11.6 11.6 0 0 0-.31 2.92c.02.62.04 1.74-.22 1.8z"/><path class="cls-10" d="M420.33 324.35a4.31 4.31 0 0 0 1 .08c2.59-.08 5.05-2.24 5.14-4.12 0-.85-.41-1.43-.21-2.91.1-.72.36-1.73.75-1.76s.68 1 .95.95.25-1.18.25-1.83a11.6 11.6 0 0 1 .31-2.92 2.33 2.33 0 0 0 0-1.21c-.45-2.15-2.81-3.31-3.11-3.45a5.71 5.71 0 0 0-1.85-.51 7.78 7.78 0 0 0-3.64.55.17.17 0 0 0 0-.07 4.32 4.32 0 0 0-2.33-2.6 4.63 4.63 0 0 0-2.1-.4v16.49a7.79 7.79 0 0 0 1.14 1.49 7 7 0 0 0 3.7 2.22z"/><path d="M422.42 334.91a11.69 11.69 0 0 0-4.24-9 11.81 11.81 0 0 0-2.63-1.63v27h6.87z" fill="#5e6c84"/></g><path class="cls-9" d="M217.86 420.73a33.78 33.78 0 1 1 67.55 0"/><path class="cls-33" d="M409.94 394.83h131.08v15.9H409.94z"/><path class="cls-9" d="M336.63 420.73a33.78 33.78 0 1 1 67.55 0M448.59 420.73a33.78 33.78 0 1 1 67.55 0"/><path class="cls-9" d="M66.24 410.73h482.31v9.99H66.24z"/><circle cx="251.63" cy="420.73" r="25.9" fill="url(#linear-gradient-23)"/><circle cx="370.41" cy="420.73" r="25.9" fill="url(#linear-gradient-24)"/><circle class="cls-54" cx="251.63" cy="420.73" r="14.8"/><circle class="cls-54" cx="370.41" cy="420.73" r="14.8"/><path class="cls-55" d="M258.88 133.26c4.34 5.32-1.32 17.4-7 18.66a6.79 6.79 0 0 1-3.47-.2c-2.57-1-3.69-3.53-4.23-4.76-1.53-3.52-1.73-8.65 1.21-12.53a9.24 9.24 0 0 1 5.06-3.65 8.68 8.68 0 0 1 8.43 2.48z"/><path class="cls-56" d="M238.15 182.34c-1.06.19-2.2.36-3.41.49s-2.48.22-3.6.25c-.46.18-.81.37-.79.52s.28.2.27.24-.51-.18-.73 0a.16.16 0 0 0-.08.13c0 .21.42.37.39.46s-.23 0-.5.1c-.06 0-.32.12-.34.29s.31.3.28.43-.7.1-.75.27.28.37.69.56c1.31.61 2.57.3 4.16.27a13.37 13.37 0 0 1 2.68.23 7.56 7.56 0 0 1-1.79 1 3.12 3.12 0 0 0-1.34.79 1.06 1.06 0 0 0-.32.71.87.87 0 0 0 .13.49 18.6 18.6 0 0 0 2.75-.85c2.15-.85 4.5-1.78 4.66-3.3s-1.91-2.8-2.36-3.08z"/><path class="cls-10" d="M273.74 204.54l-.74 10.09 2.1.72a1 1 0 0 1 1.63.48 16.32 16.32 0 0 0 1.86.9 17.46 17.46 0 0 0 2.47.8 17 17 0 0 0 4.17.46 3.39 3.39 0 0 0-.37-1.37 4.22 4.22 0 0 0-1.67-1.54c-1.62-1.09-2.87-1.93-3.46-3.27a4.81 4.81 0 0 1-.34-1.53 9 9 0 0 1 .78-4.67zM285 198.31l3.23 9.59 2.22-.16a.88.88 0 0 1 .47-.81 1 1 0 0 1 1.21.61 15.06 15.06 0 0 0 4.66-.14 15.37 15.37 0 0 0 3.88-1.32 3.25 3.25 0 0 0-.75-1c-1.81-1.67-4.44-.16-6.31-1.72a4.81 4.81 0 0 1-1.21-2 14.32 14.32 0 0 1-1.12-4.61z"/><path class="cls-55" d="M258.17 151.1l-4 1-2.48-10 7.87-1.95a8.57 8.57 0 0 0 2.4 4.16c2.09 1.89 4 1.37 5.85 2.46 4.25 2.46 6.3 11.91 2 16a7.42 7.42 0 0 1-7.45 1.65c-3.81-1.5-6.21-7.13-4.19-13.32z"/><path d="M256.24 157.09c3.55 1.26 6.58 2.16 8.89 2.79a48.57 48.57 0 0 0 6.54 1.31c2.46.31 3.69.47 4.23.11 1.83-1.22.88-5-.41-15.31-.33-2.67-.57-4.83-.71-6.15-.08-.59-.17-1.18-.25-1.77l-4.27.27 1 2.07q-.07 7-.16 14l-10.91-4.14a6.65 6.65 0 0 0-1.71.4 4.26 4.26 0 0 0-2.28 6.39z" fill="url(#linear-gradient-25)"/><path id="_Clipping_Path_9" data-name="&lt;Clipping Path&gt;" d="M265.82 159.22c-.53-2.2-1.61-1.84-3.21-5.48a8.15 8.15 0 0 0-1.81-3.11 6.26 6.26 0 0 0-2.53-1.39h-5.25c-.74.34-1.68.77-2.79 1.26a16.25 16.25 0 0 1-3.29 1.17h-.1a5.64 5.64 0 0 0-2.75 1.6 5 5 0 0 0-1.39 2.87 14.75 14.75 0 0 0 1.64 7.93 31.5 31.5 0 0 1 2.36 9.93l-1.28 3.56 20.94 1.86c-2.25-6.84-1.91-11.45-1.11-14.48 1.08-4.06.87-4.45.57-5.72z" fill="url(#linear-gradient-26)"/><path class="cls-56" d="M257.87 150.68a10.44 10.44 0 0 1-3.41.57 10 10 0 0 1-4-.82 8 8 0 0 0 .92-2.09 7.34 7.34 0 0 0 .25-2.74l6.46.87z"/><path class="cls-56" d="M257.4 133.8c.34.61.69 1.29 1 2a21.69 21.69 0 0 1 1 2.9c.11.14.3.39.56.68.79.88 1.55 1.35 1.41 1.62 0 0-.72.44-.83.56-.77.83.29 2.42-.09 3.53-.82 2.38-8.57 2.34-9 .89-.17-.64 1.23-1 1.27-2.39 0-.54-.14-2.56-.05-2.79a2.91 2.91 0 0 1 .18-.35 34.15 34.15 0 0 1 2.58-2.58 6.21 6.21 0 0 0 1.54-2 4.89 4.89 0 0 0 .43-2.07z"/><path id="_Clipping_Path_10" data-name="&lt;Clipping Path&gt;" d="M246.87 185.26a9.55 9.55 0 0 0 4.95 3.25 9.9 9.9 0 0 0 5.92-.15l22.33-7.62c.24 1.84.57 3.83 1 5.94.5 2.31 1 4.17 1.76 6.68.5 1.74 1.26 4.4 2 7q2.53-.54 5.21-1.23l2.34-.64c-.76-3.35-1.84-8-3.24-13.62-2.47-9.82-3-10.74-4-11.61-2.53-2.27-6.34-2.54-24.14 1-6.4 1.27-11.75 2.46-15.65 3.36a7.13 7.13 0 0 0-.47 2.09 8.26 8.26 0 0 0 1.99 5.55z" fill="url(#Y400-Y200)"/><path id="_Path_5" data-name="&lt;Path&gt;" d="M257.74 188.36c2.7.13 5.62.17 8.73 0 2-.09 3.84-.22 5.62-.41h1.44c-.12.74-.24 1.53-.34 2.39 0 0-.18 1.41-.29 2.73a91.69 91.69 0 0 0 .67 13.63 9.38 9.38 0 0 0 6 1.07l3.51-19.57.08-4.86a5.41 5.41 0 0 0-2.82-4 6.57 6.57 0 0 0-3.46-.66z" fill="url(#Y400-Y200-2)"/><path d="M274.63 179.89l-13.69 6.86a23.05 23.05 0 0 1-2 1.65c2.19.09 4.5.1 6.94 0a26.9 26.9 0 0 0 8.75-8.51z" style="mix-blend-mode:multiply" opacity=".49" fill="#ffc400"/><path d="M242.64 156.38l-2.79 13.31-2.25 15.58 2.76.65L245 171.8l5.05-12.57a4.33 4.33 0 0 0-.77-5.27 4.07 4.07 0 0 0-1.72-.9 4.18 4.18 0 0 0-4.92 3.32z" fill="url(#linear-gradient-27)"/><path class="cls-35" d="M279.67 132.25h3.95v9.21a.47.47 0 0 1-.47.47h-3a.47.47 0 0 1-.47-.47v-9.21z" transform="rotate(88.72 281.647 137.099)"/><path class="cls-35" d="M271 133h3v8.12a.48.48 0 0 1-.48.48h-2a.48.48 0 0 1-.48-.48V133H271z" transform="rotate(88.72 272.516 137.306)"/><path class="cls-35" transform="rotate(88.72 264.752 137.477)" d="M263.83 134h1.83v6.94h-1.83z"/><rect class="cls-35" x="259.47" y="137.21" width="2.92" height=".71" rx=".29" ry=".29" transform="rotate(88.72 260.933 137.57)"/><rect class="cls-35" x="284.69" y="136.4" width="4.73" height="1.14" rx=".46" ry=".46" transform="rotate(88.72 287.06 136.988)"/><path class="cls-56" d="M272.48 137.47h-1.41a.71.71 0 0 1-.7-.7v-1.41a1 1 0 0 1 .21-.49 1 1 0 0 1 .61-.35h1.29a.73.73 0 0 1 .53.23.78.78 0 0 1 .17.65v1.41a.71.71 0 0 1-.7.66z"/><rect class="cls-56" x="272.97" y="134.66" width="1.4" height="2.24" rx=".7" ry=".7"/><rect class="cls-56" x="269.28" y="134.66" width="1.4" height="2.24" rx=".7" ry=".7"/><path d="M254.67 148.37a13 13 0 0 1-3.19-.4c0 .13 0 .24-.09.37a8 8 0 0 1-.92 2.09 10 10 0 0 0 4 .82 10.44 10.44 0 0 0 3.41-.57L258 148a12.51 12.51 0 0 1-3.33.37z" fill="url(#linear-gradient-28)"/></g></g></g></svg>