<?xml version="1.0" encoding="UTF-8"?>
<svg width="44px" height="44px" viewBox="0 0 44 44" version="1.1" xmlns="http://www.w3.org/2000/svg" xmlns:xlink="http://www.w3.org/1999/xlink">
    <!-- Generator: Sketch 56.2 (81672) - https://sketch.com -->
    <title>AWS-Direct-Connect_Icon_48_Squid</title>
    <desc>Created with Sketch.</desc>
    <g id="Page-1" stroke="none" stroke-width="1" fill="none" fill-rule="evenodd">
        <g id="AWS-Networking-&amp;-Content-Delivery-Product-Icons_Squid" transform="translate(-142.000000, -802.000000)" fill="#232F3E">
            <path d="M156.318953,840.267224 L169.93881,840.267224 L169.93881,835.530104 C169.93881,835.243915 169.584762,834.99275 169.179706,834.99275 L157.078056,834.99275 C156.673001,834.99275 156.318953,835.243915 156.318953,835.530104 L156.318953,840.267224 Z M174.542438,843.105093 L174.542438,846 L172.542165,846 L172.542165,843.105093 C172.542165,842.601762 172.259126,842.268542 172.073101,842.268542 L154.184662,842.268542 C153.998636,842.268542 153.715598,842.601762 153.715598,843.105093 L153.715598,846 L151.715325,846 L151.715325,843.105093 C151.715325,841.540062 152.823476,840.267224 154.184662,840.267224 L154.31868,840.267224 L154.31868,835.530104 C154.31868,834.130182 155.555849,832.991432 157.078056,832.991432 L169.179706,832.991432 C170.701914,832.991432 171.939083,834.130182 171.939083,835.530104 L171.939083,840.267224 L172.073101,840.267224 C173.434286,840.267224 174.542438,841.540062 174.542438,843.105093 L174.542438,843.105093 Z M167.997545,822.902787 C168.881666,822.902787 169.599764,822.183313 169.599764,821.29873 C169.599764,820.414148 168.881666,819.694674 167.997545,819.694674 C167.113425,819.694674 166.393326,820.414148 166.393326,821.29873 C166.393326,822.183313 167.113425,822.902787 167.997545,822.902787 L167.997545,822.902787 Z M166.997409,831.990773 L166.997409,824.745 C165.498204,824.308713 164.393054,822.93781 164.393054,821.29873 C164.393054,819.310421 166.009274,817.693356 167.997545,817.693356 C169.983816,817.693356 171.600036,819.310421 171.600036,821.29873 C171.600036,822.93781 170.495886,824.308713 168.997682,824.745 L168.997682,831.990773 L166.997409,831.990773 Z M164.549075,815.220727 C164.549075,814.336144 163.830977,813.61667 162.946856,813.61667 C162.062736,813.61667 161.342638,814.336144 161.342638,815.220727 C161.342638,816.10531 162.062736,816.824784 162.946856,816.824784 C163.830977,816.824784 164.549075,816.10531 164.549075,815.220727 L164.549075,815.220727 Z M166.549348,815.220727 C166.549348,816.838793 165.472201,818.194686 164.004001,818.649986 L164.004001,831.990773 L162.003728,831.990773 L162.003728,818.685009 C160.474519,818.267734 159.342365,816.87982 159.342365,815.220727 C159.342365,813.232417 160.959585,811.615352 162.946856,811.615352 C164.933127,811.615352 166.549348,813.232417 166.549348,815.220727 L166.549348,815.220727 Z M157.923171,819.694674 C157.039051,819.694674 156.318953,820.414148 156.318953,821.29873 C156.318953,822.183313 157.039051,822.902787 157.923171,822.902787 C158.806292,822.902787 159.52539,822.183313 159.52539,821.29873 C159.52539,820.414148 158.806292,819.694674 157.923171,819.694674 L157.923171,819.694674 Z M157.923171,817.693356 C159.909442,817.693356 161.525663,819.310421 161.525663,821.29873 C161.525663,822.93781 160.421512,824.308713 158.923308,824.745 L158.923308,831.990773 L156.923035,831.990773 L156.923035,824.745 C155.42283,824.308713 154.31868,822.93781 154.31868,821.29873 C154.31868,819.310421 155.9349,817.693356 157.923171,817.693356 L157.923171,817.693356 Z M186,821.819073 C186,827.935101 181.357367,830.113536 177.012774,830.113536 L170.997954,830.113536 L170.997954,828.112218 L177.012774,828.112218 C178.651998,828.112218 183.999727,827.657919 183.999727,821.819073 C183.999727,818.432843 181.933445,816.299438 177.85789,815.480898 C177.412829,815.39184 177.083784,815.013591 177.05678,814.559291 C176.861754,811.26212 174.962495,810.092349 173.394281,810.092349 C172.338137,810.092349 171.347002,810.597682 170.67491,811.477261 C170.45488,811.767452 170.097832,811.918552 169.731782,811.860514 C169.370732,811.806478 169.067691,811.559315 168.941674,811.21709 C168.292585,809.453929 167.365459,807.956943 166.260308,806.888239 C164.842115,805.50833 160.956585,802.54738 155.454835,804.802865 C152.346411,806.075704 149.819066,809.912231 149.819066,813.354498 C149.819066,813.742754 149.842069,814.131009 149.889076,814.507257 C149.952084,815.011589 149.62804,815.481899 149.133973,815.602979 C147.216711,816.071287 144.000273,817.494224 144.000273,821.759034 C144.000273,821.915136 144.008274,822.071239 144.016275,822.228343 C144.1983,825.470478 147.263718,828.112218 150.849207,828.112218 L154.97977,828.112218 L154.97977,830.113536 L150.849207,830.113536 C146.220576,830.113536 142.259035,826.624238 142.019003,822.336414 C142.008001,822.138283 142,821.948158 142,821.759034 C142,817.981545 144.162295,815.095645 147.831795,813.894854 C147.822794,813.714735 147.818793,813.534616 147.818793,813.354498 C147.818793,809.100696 150.839205,804.530686 154.696731,802.950645 C159.272355,801.074409 164.116016,802.010026 167.653498,805.451292 C168.660636,806.426935 169.538755,807.682762 170.23185,809.132717 C171.146975,808.459274 172.244124,808.091031 173.394281,808.091031 C175.867618,808.091031 178.464972,809.827175 178.981043,813.683715 C183.514661,814.819463 186,817.687352 186,821.819073 L186,821.819073 Z" id="AWS-Direct-Connect_Icon_48_Squid"></path>
        </g>
    </g>
</svg>