<?xml version="1.0" encoding="UTF-8" standalone="no"?>
<svg
   id="Calque_1"
   data-name="Calque 1"
   viewBox="0 0 120.88777 144.4005"
   version="1.1"
   sodipodi:docname="4a6f004b6a4ae4182ff023a53ceedf99.svg"
   width="120.88777"
   height="144.4005"
   xmlns:inkscape="http://www.inkscape.org/namespaces/inkscape"
   xmlns:sodipodi="http://sodipodi.sourceforge.net/DTD/sodipodi-0.dtd"
   xmlns="http://www.w3.org/2000/svg"
   xmlns:svg="http://www.w3.org/2000/svg">
  <sodipodi:namedview
     id="namedview75"
     pagecolor="#ffffff"
     bordercolor="#666666"
     borderopacity="1.0"
     inkscape:pageshadow="2"
     inkscape:pageopacity="0.0"
     inkscape:pagecheckerboard="0" />
  <defs
     id="defs4">
    <style
       id="style2">.cls-1{fill:#0071bc;}.cls-2{fill:#fff;}.cls-3{fill:#15b2ad;}</style>
  </defs>
  <path
     class="cls-1"
     d="m 118.14777,51.75049 c 0,0 0,0.09 -0.06,0.09 -0.06,0 -0.05,0 -0.09,0 a 0.26,0.26 0 0 0 0,-0.09 0.24,0.24 0 0 0 0.15,0 z"
     id="path6" />
  <path
     class="cls-1"
     d="m 113.37777,55.16049 c -0.24,0.17 -0.2,0.28 0,0.44 a 7.53,7.53 0 0 1 1.47,1.46 c 0.13,0.18 0.22,0.27 0.39,0 a 6.71,6.71 0 0 1 1.55,-1.55 c 0.18,-0.15 0.16,-0.24 0,-0.37 a 9,9 0 0 1 -1.74,-1.75 9,9 0 0 1 -1.67,1.77 z m -4.27,0.35 a 1.16,1.16 0 0 1 0.69,-1.22 9.19,9.19 0 0 0 2.47,-1.41 0.27,0.27 0 0 0 0.12,-0.23 v 0 0 a 4.86,4.86 0 0 0 1.38,-2.35 1.26,1.26 0 0 1 1.72,-0.73 1.42,1.42 0 0 1 0.78,1 5.3,5.3 0 0 0 2.11,2.83 c 0,0.11 0.14,0.12 0.24,0.12 a 3,3 0 0 0 1.27,0.68 c 0.73,0.27 1,0.58 1,1.2 0,0.62 -0.42,1 -1,1.22 a 2.3,2.3 0 0 0 -1.06,0.57 0.15,0.15 0 0 0 -0.09,0 4.11,4.11 0 0 0 -1.84,1.73 v 0 a 0.85,0.85 0 0 1 -0.11,0.14 3.39,3.39 0 0 0 -0.57,1.14 c -0.47,1.25 -1.24,1.47 -2.28,0.65 a 8.29,8.29 0 0 0 -0.82,-1.79 1.31,1.31 0 0 0 -0.38,-0.65 5.08,5.08 0 0 0 -1.66,-1.26 7.85,7.85 0 0 0 -1.24,-0.6 1.16,1.16 0 0 1 -0.74,-1.04 z"
     id="path8" />
  <path
     class="cls-1"
     d="m 101.37777,73.45049 a 13.75,13.75 0 0 1 4.89,4.87 13.51,13.51 0 0 1 4.86,-4.87 13.83,13.83 0 0 1 -4.88,-4.88 13.8,13.8 0 0 1 -4.87,4.88 z m -3.729996,-1.05 c 0.62,-0.31 1.4,-0.29 1.91,-0.84 a 8,8 0 0 0 3.209996,-2.43 c 0.31,-0.4 0.81,-0.69 0.86,-1.27 0.29,0 0.31,-0.22 0.35,-0.44 0,0 0.05,0 0.07,-0.09 a 7.3,7.3 0 0 0 1.11,-2.48 c 0.09,-0.11 0.17,-0.22 0.26,-0.35 a 1.58,1.58 0 0 1 1.77,0.26 0.48,0.48 0 0 1 0.09,0.11 7.56,7.56 0 0 0 0.74,1.82 9.31,9.31 0 0 0 3.07,3.79 0.83,0.83 0 0 0 0.14,0.13 10.21,10.21 0 0 0 3.6,1.82 0.62,0.62 0 0 1 0.12,0.08 1.32,1.32 0 0 1 0,1.89 2.44,2.44 0 0 1 -0.6,0.31 3.94,3.94 0 0 0 -1.42,0.66 3.56,3.56 0 0 0 -1.79,1.17 4.83,4.83 0 0 0 -1.8,1.67 0.69,0.69 0 0 0 -0.11,0.13 8.33,8.33 0 0 0 -1.81,3.47 c 0,0 -0.09,0 -0.09,0.09 v 0 a 0.23,0.23 0 0 0 0,0.11 1.4,1.4 0 0 1 -1.8,0.44 c 0,0 0,0 0,0 0,0 -0.27,-0.28 -0.4,-0.41 a 7.56,7.56 0 0 0 -1.33,-2.91 c 0,0 0,0 -0.06,0 -0.07,-0.44 -0.41,-0.71 -0.65,-1 a 7.85,7.85 0 0 0 -2.88,-2.32 1,1 0 0 0 -0.699996,-0.36 3,3 0 0 0 -1.8,-0.73 c -0.15,-0.27 -0.4,-0.44 -0.51,-0.77 a 1.1,1.1 0 0 1 0.45,-1.55 z"
     id="path10" />
  <path
     class="cls-1"
     d="m 86.867774,56.07049 a 5,5 0 0 1 -4.1,7.72 5.12,5.12 0 0 1 -4.23,-2.23 c -0.64,-0.89 -1.3,-1.8 -2,-2.68 -0.22,-0.27 -0.16,-0.4 0.11,-0.58 q 3.72,-2.62 7.44,-5.29 c 0.26,-0.18 0.4,-0.22 0.6,0.07 0.69,1.01 1.53,1.97 2.18,2.99 z"
     id="path12" />
  <path
     class="cls-2"
     d="m 73.887774,97.74049 c 2.41,-1.4 4.79,-2.84 7.2,-4.27 a 1.92,1.92 0 0 0 0.62,-0.43 1.27,1.27 0 0 0 0.11,-1.43 l 3.56,-2.11 c 0.54,0.91 1.07,1.82 1.62,2.73 0.55,0.91 1.09,1.88 1.68,2.81 0.18,0.31 0.16,0.46 -0.17,0.66 -3.94,2.31 -7.87,4.65 -11.81,7 -0.31,0.2 -0.39,0.06 -0.53,-0.18 -0.8,-1.37 -1.61,-2.75 -2.45,-4.1 -0.2,-0.35 -0.16,-0.5 0.17,-0.68 z"
     id="path14" />
  <path
     class="cls-2"
     d="m 82.657774,113.53049 c -1.57,-2.7 -3.14,-5.38 -4.74,-8.06 -0.26,-0.43 -0.18,-0.6 0.24,-0.84 q 8,-4.72 16.06,-9.5 l 0.35,-0.2 c 0.2,0 0.23,0.17 0.29,0.28 1.64,2.75 3.26,5.52 4.9,8.26 0.24,0.38 0,0.45 -0.25,0.6 l -14.35,8.51 c -0.62,0.37 -1.24,0.72 -1.86,1.1 -0.28,0.18 -0.44,0.2 -0.64,-0.15 z"
     id="path16" />
  <path
     class="cls-2"
     d="m 69.287774,109.81049 c 0.3,-0.18 0.4,-0.14 0.59,0.15 q 2.4,4.08 4.85,8.15 c 0.23,0.4 0.11,0.51 -0.22,0.71 q -7.06,4.16 -14.13,8.35 c -0.7,0.42 -1.41,0.82 -2.1,1.24 -0.11,0.06 -0.22,0.11 -0.31,0.17 -0.09,0.06 -0.18,-0.15 -0.24,-0.24 -1.64,-2.77 -3.28,-5.56 -4.94,-8.32 -0.18,-0.31 -0.07,-0.41 0.18,-0.54 1.06,-0.59 2.12,-1.19 3.14,-1.83 1.77,-1.07 3.56,-2.11 5.32,-3.19 2.61,-1.55 5.26,-3.06 7.86,-4.65 z"
     id="path18" />
  <path
     class="cls-2"
     d="m 55.597774,114.46049 q -2.3,-3.9 -4.61,-7.82 l 3.46,-2 a 1.2,1.2 0 0 0 1.68,0.36 c 1.71,-1 3.41,-2 5.1,-3 0.84,-0.51 1.72,-1 2.56,-1.51 0.23,-0.15 0.36,-0.15 0.51,0.11 1.29,2.21 2.6,4.43 3.94,6.62 0.2,0.35 0,0.44 -0.22,0.58 -3.91,2.3 -7.79,4.58 -11.66,6.91 -0.4,0.19 -0.54,0.1 -0.76,-0.25 z"
     id="path20" />
  <path
     class="cls-1"
     d="m 65.207774,143.58049 c 0,0.28 0,0.55 0,0.82 h -9.5 v -0.82 z"
     id="path22" />
  <path
     class="cls-3"
     d="m 64.767774,49.93049 a 8.77,8.77 0 0 1 1.84,1.57 79.78,79.78 0 0 1 10.31,11.9 c 0.16,0.24 0.11,0.31 -0.1,0.44 -0.83,0.47 -1.65,1 -2.46,1.48 -0.38,0.23 -0.47,0 -0.6,-0.24 -1.33,-2.24 -2.66,-4.49 -4,-6.73 z"
     id="path24" />
  <path
     class="cls-2"
     d="m 55.777774,39.86049 3.67,-1 c 0.67,0.35 1.33,0.09 1.77,-0.71 0.58,-1.08 1.2,-2.15 1.75,-3.25 0.31,-0.62 0.62,-0.12 0.91,0 0.29,0.12 0.11,0.36 0,0.55 -0.26,0.41 -0.55,0.82 -0.8,1.25 a 1.23,1.23 0 0 0 0.3,1.7 1.26,1.26 0 0 0 1.75,-0.48 9.41,9.41 0 0 0 0.83,-1.29 c 0.26,-0.53 0.53,-0.48 1,-0.24 a 51.25,51.25 0 0 1 9.67,7.15 53.69,53.69 0 0 1 6.14,6.91 c 0.18,0.22 0.29,0.36 0,0.58 -2.53,1.79 -5.06,3.58 -7.58,5.4 -0.35,0.24 -0.49,0 -0.68,-0.16 a 104.14,104.14 0 0 0 -7.27,-7.59 31,31 0 0 0 -6,-4.76 20.48,20.48 0 0 1 -3.32,-2.06 17.69,17.69 0 0 1 -2.14,-2 z"
     id="path26" />
  <path
     class="cls-2"
     d="m 55.777774,39.86049 a 13.09,13.09 0 0 1 -3.17,-7.62 v -0.33 c -0.15,-0.58 0.16,-0.64 0.65,-0.53 a 48.84,48.84 0 0 1 7.17,2 c 0.4,0.15 0.46,0.27 0.24,0.66 -0.57,1 -1.08,1.95 -1.61,2.93 a 1.28,1.28 0 0 0 0.39,1.86 z"
     id="path28" />
  <path
     class="cls-1"
     d="m 53.377774,61.13049 a 1.09,1.09 0 0 0 -1,1 1.06,1.06 0 1 0 2.12,0 1.08,1.08 0 0 0 -1.12,-1 z m -3.44,1.11 a 3.48,3.48 0 1 1 3.55,3.41 3.45,3.45 0 0 1 -3.54,-3.41 z"
     id="path30" />
  <path
     class="cls-1"
     d="m 52.187774,116.40049 c 0,0 0.07,0 0.09,0 0.02,0 0,0.08 0,0.08 0,0 0,0 -0.09,0 -0.09,0 -0.02,-0.08 0,-0.08 z"
     id="path32" />
  <path
     class="cls-3"
     d="m 48.377774,28.40049 c -0.32,0 -0.54,0 -0.45,-0.5 a 23.49,23.49 0 0 0 -1,-11.7 c -0.16,-0.48 -0.07,-0.62 0.4,-0.77 4.32,-1.29 8,0 10.43,4 2.79,4.47 5.4,9 8.08,13.58 a 1.34,1.34 0 0 1 0,0.2 49.9,49.9 0 0 0 -10,-3.62 39.86,39.86 0 0 0 -7.46,-1.19 z"
     id="path34" />
  <path
     class="cls-1"
     d="m 41.167774,6.22049 c 0,0 0,0 0,0.09 0,0.09 -0.09,0 -0.09,0 0,0 0,-0.07 0,-0.09 z"
     id="path36" />
  <path
     class="cls-3"
     d="m 53.377774,58.72049 a 3.47,3.47 0 1 0 3.52,3.44 3.45,3.45 0 0 0 -3.52,-3.44 z m -23.2,-1.32 17.36,-10.29 c 0.87,-0.51 1.77,-1 2.62,-1.55 0.39,-0.25 0.57,-0.24 0.81,0.18 q 2.66,4.55 5.34,9.05 c 1.73,2.93 3.48,5.89 5.23,8.82 0.24,0.4 0.2,0.57 -0.2,0.81 -6.6,3.9 -13.22,7.8 -19.8,11.74 -0.53,0.31 -0.75,0.29 -1.06,-0.26 -1.29,-2.26 -2.62,-4.5 -4,-6.72 -0.22,-0.37 -0.17,-0.53 0.18,-0.73 2.19,-1.28 4.36,-2.58 6.53,-3.85 0.18,-0.13 0.38,-0.22 0.56,-0.35 0.82,-0.49 1.08,-1.17 0.7,-1.8 -0.38,-0.63 -1.1,-0.77 -1.92,-0.3 -1.15,0.68 -2.3,1.35 -3.45,2 -1.15,0.65 -2.46,1.52 -3.7,2.25 -0.3,0.18 -0.42,0.13 -0.59,-0.14 -0.58,-1 -1.18,-2 -1.78,-3 -0.2,-0.31 -0.13,-0.44 0.16,-0.6 l 10.83,-6.4 2.21,-1.32 a 1.15,1.15 0 0 0 0.51,-1.4 1.08,1.08 0 0 0 -1.19,-0.82 1.4,1.4 0 0 0 -0.91,0.35 l -12.58,7.45 c -0.42,0.24 -0.58,0.19 -0.78,-0.22 -0.41,-0.74 -0.83,-1.47 -1.28,-2.15 -0.29,-0.42 -0.15,-0.54 0.2,-0.75 z"
     id="path38" />
  <path
     class="cls-1"
     d="m 31.197774,91.52049 a 5,5 0 0 1 -9.46,2.15 c -0.4,-0.83 -0.77,-1.69 -1.19,-2.53 -0.16,-0.33 -0.09,-0.47 0.24,-0.62 l 8.26,-4 c 0.14,-0.07 0.29,-0.22 0.42,0 a 38.23,38.23 0 0 1 1.6,3.78 3.6,3.6 0 0 1 0.13,1.22 z"
     id="path40" />
  <path
     class="cls-3"
     d="m 36.427774,86.82049 c 0.22,0.36 0.26,0.55 -0.18,0.78 -0.87,0.48 -1.73,1 -2.57,1.52 -0.27,0.16 -0.35,0.14 -0.49,-0.17 -0.75,-1.75 -1.59,-3.46 -2.37,-5.2 a 48.75,48.75 0 0 1 -1.92,-5.27 54.43,54.43 0 0 1 -2,-7.82 c 1.33,2.24 2.64,4.47 4,6.71 1.8,3.16 3.66,6.29 5.53,9.45 z"
     id="path42" />
  <path
     class="cls-1"
     d="m 33.807774,44.62049 a 39.23,39.23 0 0 0 7,-4.57 1.22,1.22 0 0 1 1.44,-0.21 1.13,1.13 0 0 1 0.62,1.14 1,1 0 0 1 -0.38,0.83 c -4,3.2 -8.17,5.88 -13.16,7.13 a 3.81,3.81 0 0 1 -0.42,0.1 1.21,1.21 0 0 1 -1.3,-1 1.16,1.16 0 0 1 1,-1.35 24.12,24.12 0 0 0 5.2,-2.07 z"
     id="path44" />
  <path
     class="cls-2"
     d="m 34.957774,22.50049 c 0,0.26 0,0.51 0.09,0.77 0,0.86 -0.35,1.44 -1.08,1.49 -0.73,0.05 -1.27,-0.43 -1.35,-1.31 a 10.79,10.79 0 0 0 -2.4,-5.63 22.83,22.83 0 0 0 -3.76,-3.91 1.25,1.25 0 0 1 -0.51,-1.36 1.17,1.17 0 0 1 1,-0.86 1,1 0 0 1 0.89,0.2 c 3.21,2.66 5.91,5.69 7,9.85 0.03,0.25 0.08,0.51 0.12,0.76 z"
     id="path46" />
  <path
     class="cls-1"
     d="m 35.047774,23.27049 c 0,-0.26 0,-0.51 -0.09,-0.77 -0.09,-0.26 -0.09,-0.51 -0.15,-0.76 -1.09,-4.16 -3.79,-7.19 -7,-9.85 a 1,1 0 0 0 -0.89,-0.2 1.17,1.17 0 0 0 -1,0.86 1.25,1.25 0 0 0 0.51,1.36 22.83,22.83 0 0 1 3.76,3.91 10.79,10.79 0 0 1 2.4,5.63 c 0.08,0.88 0.59,1.39 1.35,1.31 0.76,-0.08 1.16,-0.63 1.11,-1.49 z m 3.72,-3 a 14.44,14.44 0 0 1 0,6 1.15,1.15 0 0 1 -0.31,0.62 38.64,38.64 0 0 1 -18.31,10.89 1.29,1.29 0 0 1 -0.8,0 c -6.07,-2.18 -9.6699996,-6.38 -10.5199996,-12.78 a 15.06,15.06 0 0 1 11.2299996,-16.41 14.58,14.58 0 0 1 3.72,-0.46 15.18,15.18 0 0 1 14.99,12.18 z"
     id="path48" />
  <path
     class="cls-1"
     d="m 53.117774,72.10049 -11.09,6.57 a 2.07,2.07 0 0 1 -3.15,-0.75 l -11.33,-19.09 c -0.07,-0.11 -0.12,-0.24 -0.18,-0.35 a 2,2 0 0 1 1,-2.83 q 10.51,-6.19 21.01,-12.41 c 1.55,-0.92 2.59,-0.66 3.48,0.87 l 0.27,0.46 q 5.47,9.24 10.93,18.43 a 2.51,2.51 0 0 1 0.32,1.4 2.19,2.19 0 0 1 -1.26,1.82 c -3.33,1.93 -6.66,3.91 -10,5.88 z m -6.91,-17.16 -2.21,1.32 -10.83,6.4 c -0.29,0.16 -0.36,0.29 -0.16,0.6 0.6,1 1.2,2 1.78,3 0.17,0.27 0.29,0.32 0.59,0.14 1.24,-0.76 2.49,-1.49 3.73,-2.22 1.24,-0.73 2.3,-1.37 3.45,-2 0.82,-0.47 1.53,-0.36 1.92,0.3 0.39,0.66 0.12,1.31 -0.7,1.8 -0.18,0.13 -0.38,0.22 -0.56,0.35 -2.17,1.27 -4.34,2.57 -6.53,3.85 -0.35,0.2 -0.4,0.36 -0.18,0.73 1.35,2.22 2.68,4.46 4,6.72 0.31,0.55 0.53,0.57 1.06,0.26 6.58,-3.94 13.2,-7.84 19.8,-11.74 0.4,-0.24 0.44,-0.41 0.2,-0.81 -1.75,-2.93 -3.5,-5.89 -5.23,-8.82 -1.73,-2.93 -3.57,-6 -5.34,-9.05 -0.24,-0.42 -0.42,-0.43 -0.81,-0.18 -0.85,0.55 -1.75,1 -2.62,1.55 l -17.39,10.26 c -0.35,0.2 -0.49,0.32 -0.2,0.74 0.45,0.68 0.87,1.41 1.28,2.15 0.2,0.41 0.36,0.46 0.78,0.22 l 12.58,-7.45 a 1.4,1.4 0 0 1 0.91,-0.35 1.08,1.08 0 0 1 1.19,0.82 1.15,1.15 0 0 1 -0.51,1.41 z"
     id="path50" />
  <path
     class="cls-2"
     d="m 38.877774,77.92049 a 2.07,2.07 0 0 0 3.15,0.75 l 11.09,-6.57 c 3.34,-2 6.67,-4 10,-5.91 a 2.19,2.19 0 0 0 1.26,-1.79 2.51,2.51 0 0 0 -0.38,-1.37 q -5.47,-9.21 -10.93,-18.43 l 2.48,-1.48 a 23.83,23.83 0 0 0 3.76,2.72 1.59,1.59 0 0 1 0.56,0.65 q 12.75,21.54 25.5,43 l -3.56,2.11 a 1.58,1.58 0 0 0 -0.13,-0.18 1.19,1.19 0 0 0 -1.58,-0.18 c -1.44,0.84 -2.88,1.7 -4.32,2.53 -1.06,0.64 -2.12,1.24 -3.18,1.9 -0.29,0.18 -0.42,0.15 -0.58,-0.15 -0.64,-1.13 -1.3,-2.24 -2,-3.33 -0.2,-0.31 -0.11,-0.44 0.16,-0.6 l 3.45,-2 a 1.26,1.26 0 0 0 0.6,-1.8 1.27,1.27 0 0 0 -1.84,-0.3 c -1.08,0.64 -2.17,1.26 -3.23,1.94 -0.42,0.25 -0.69,0.31 -0.93,-0.22 a 13.07,13.07 0 0 0 -1,-1.61 4.6091322,4.6091322 0 0 0 -8,4.58 c 1,1.82 2.07,3.59 3.15,5.34 0.29,0.48 0.33,0.72 -0.24,1 -2.35,1.33 -4.67,2.73 -7,4.12 a 4.64,4.64 0 0 0 -0.42,0.25 1.21,1.21 0 0 0 -0.42,1.7 l -3.46,2 c -1.39,-2.37 -2.79,-4.72 -4.2,-7.09 q -10.06,-17 -20.17,-34 a 6.15,6.15 0 0 1 -0.69,-2.48 20.6,20.6 0 0 0 -0.86,-3.76 l 2.3,-0.8 c 0.06,0.11 0.11,0.24 0.18,0.35 z"
     id="path52" />
  <path
     class="cls-2"
     d="m 42.207774,39.84049 a 1.22,1.22 0 0 0 -1.44,0.21 39.23,39.23 0 0 1 -7,4.57 24.12,24.12 0 0 1 -5.27,2 1.16,1.16 0 0 0 -1,1.35 1.21,1.21 0 0 0 1.3,1 3.81,3.81 0 0 0 0.42,-0.1 c 5,-1.25 9.2,-3.93 13.16,-7.13 a 1,1 0 0 0 0.38,-0.83 1.13,1.13 0 0 0 -0.55,-1.07 z m 4.34,-8.88 c 0.44,-0.4 0.92,-0.14 1.39,-0.23 0.62,0 1.26,0.11 1.88,0.14 0.24,0 0.36,0.08 0.36,0.35 a 15.43,15.43 0 0 0 5.38,11.87 l -2.48,1.48 -0.27,-0.46 c -0.89,-1.53 -1.93,-1.79 -3.48,-0.87 q -10.45,6.21 -20.95,12.41 a 2,2 0 0 0 -1,2.83 l -2.3,0.8 a 15.3,15.3 0 0 0 -6.87,-8.57 c -0.93,-0.56 -0.95,-0.54 -0.48,-1.53 a 7.63,7.63 0 0 1 0.48,-0.89 3.38,3.38 0 0 1 2,-1.59 95.31,95.31 0 0 0 9.66,-3.3 42.94,42.94 0 0 0 11.72,-7.9 c 1.65,-1.56 3.32,-3.02 4.96,-4.54 z"
     id="path54" />
  <path
     class="cls-2"
     d="m 19.967774,71.26049 a 58.79,58.79 0 0 1 0.11,-8.29 c 0,-0.62 0.09,-1.22 0.16,-1.84 0.09,-0.77 0,-1.26 -0.31,-1.54 l 2.3,-0.93 a 14.64,14.64 0 0 1 0.82,2.25 23.59,23.59 0 0 1 0.66,5.25 42.24,42.24 0 0 0 2,10.32 c 0.71,2.44 1.53,4.85 2.42,7.24 0.11,0.29 0.15,0.44 -0.22,0.62 -2.75,1.31 -5.5,2.66 -8.26,4 -0.31,0.16 -0.45,0.16 -0.62,-0.2 a 53.44,53.44 0 0 1 -4.24,-14.48 c -0.1,-0.55 0.09,-0.69 0.58,-0.73 1.13,-0.07 2.26,-0.2 3.39,-0.33 a 1.16,1.16 0 0 0 1.21,-1.34 z"
     id="path56" />
  <path
     class="cls-2"
     d="m 16.377774,53.08049 c 0.11,-0.4 0.24,-0.49 0.64,-0.25 a 13,13 0 0 1 5.2,5.83 l -2.3,0.93 a 1.89,1.89 0 0 0 -1.33,-0.29 c -1,0 -2.06,0 -3.1,0 -0.35,0 -0.49,-0.05 -0.42,-0.47 0.38,-1.94 0.81,-3.85 1.31,-5.75 z"
     id="path58" />
  <path
     class="cls-1"
     d="m 12.867774,114.86049 a 10.37,10.37 0 0 0 -1.69,1.74 c -0.29,-0.35 -0.55,-0.66 -0.82,-0.95 -0.27,-0.29 -0.5899996,-0.51 -0.8999996,-0.79 0.31,-0.27 0.6199996,-0.52 0.8999996,-0.8 0.28,-0.28 0.53,-0.58 0.8,-0.89 0.27,0.29 0.53,0.58 0.82,0.86 0.29,0.28 0.58,0.54 0.89,0.83 z"
     id="path60" />
  <path
     class="cls-3"
     d="m 11.887774,66.29049 -5.7799996,-9.76 c -0.79,-1.33 -1.55,-2.68 -2.37,-4 -2,-3.25 -1.62,-6.39 0.29,-9.5 a 15.93,15.93 0 0 1 2.1,-2.63 c 0.22,-0.23 0.33,-0.31 0.58,0 a 23.73,23.73 0 0 0 9.2799996,6.14 c 0.15,0.06 0.46,0 0.24,0.37 a 26.29,26.29 0 0 0 -2.61,7.31 51,51 0 0 0 -1.66,11.85 2.08,2.08 0 0 1 -0.07,0.22 z"
     id="path62" />
  <path
     class="cls-1"
     d="m 11.157774,113.17049 c -0.27,0.31 -0.53,0.6 -0.8,0.89 -0.27,0.29 -0.5899996,0.53 -0.8999996,0.8 0.31,0.28 0.6199996,0.51 0.8999996,0.79 0.28,0.28 0.53,0.6 0.82,0.95 a 10.37,10.37 0 0 1 1.69,-1.74 c -0.31,-0.29 -0.62,-0.54 -0.89,-0.83 -0.27,-0.29 -0.55,-0.57 -0.82,-0.86 z m -2.2099996,4.7 a 5.1,5.1 0 0 0 -2.59,-1.8 c -0.25,-0.08 -0.6,-0.15 -0.71,-0.44 a 1.39,1.39 0 0 1 0.81,-2 5.84,5.84 0 0 0 1.92,-1.14 c 0,-0.05 0.07,-0.11 0.13,-0.18 a 0.39,0.39 0 0 0 0.36,-0.25 1.23,1.23 0 0 0 0.48,-0.75 2.69,2.69 0 0 0 0.58,-1.06 1.32,1.32 0 0 1 0.9999996,-1.08 1.3,1.3 0 0 1 1.43,0.95 5.65,5.65 0 0 0 2.53,3.1 3.93,3.93 0 0 0 1,0.46 1.2,1.2 0 0 1 1,1.15 1.27,1.27 0 0 1 -0.93,1.24 3.58,3.58 0 0 0 -1.44,0.73 0.48,0.48 0 0 1 -0.11,0.09 4.48,4.48 0 0 0 -1.64,1.89 c -0.16,0.41 -0.31,0.84 -0.47,1.21 a 1.23,1.23 0 0 1 -1.3,0.51 0.94,0.94 0 0 1 -0.89,-0.71 4.37,4.37 0 0 0 -1.1599996,-1.92 z"
     id="path64" />
  <path
     class="cls-1"
     d="m 38.727774,26.31049 a 14.44,14.44 0 0 0 0,-6 15.18,15.18 0 0 0 -15,-12.18 14.58,14.58 0 0 0 -3.72,0.46 15.06,15.06 0 0 0 -11.1799996,16.41 c 0.85,6.4 4.4499996,10.6 10.5499996,12.73 a 1.29,1.29 0 0 0 0.8,0 38.64,38.64 0 0 0 18.2,-10.8 1.15,1.15 0 0 0 0.35,-0.62 z m 2.52,-5.91 a 18,18 0 0 1 -0.28,7 1.71,1.71 0 0 1 -0.43,0.82 41.22,41.22 0 0 1 -20.3,12 1.68,1.68 0 0 1 -0.89,0 17.59,17.59 0 0 1 0.78,-34.19 c 0.59,-0.11 1.17,-0.22 1.75,-0.27 0.79,-0.07 1.55,-0.09 2.34,-0.13 a 17.67,17.67 0 0 1 17.03,14.77 z"
     id="path66" />
  <path
     class="cls-1"
     d="m 7.3777744,116.98049 c 0,0 0.07,0 0.09,0 0.02,0 0,0.09 0,0.09 0,0 0,0 -0.09,0 -0.09,0 0,-0.07 0,-0.09 z"
     id="path68" />
  <path
     class="cls-2"
     d="m 40.967774,27.40049 a 18,18 0 0 0 0.28,-7 17.67,17.67 0 0 0 -17,-14.72 c -0.79,0 -1.55,0.06 -2.34,0.13 -0.58,0.05 -1.16,0.16 -1.75,0.27 a 17.59,17.59 0 0 0 -0.78,34.18 1.68,1.68 0 0 0 0.89,0 41.22,41.22 0 0 0 20.3,-12 1.71,1.71 0 0 0 0.4,-0.86 z m -38.3799996,-3.44 a 21.64,21.64 0 0 1 42.7899996,-4.45 21.87,21.87 0 0 1 0,8.9 1.07,1.07 0 0 1 -0.3,0.62 c -2.77,2.41 -5.38,5 -8.24,7.26 a 39.21,39.21 0 0 1 -13.13,6.75 c -1.58,0.49 -3.13,1 -4.7,1.53 a 1.55,1.55 0 0 1 -1,0 21.65,21.65 0 0 1 -15.2899996,-18.77 c -0.06,-0.62 -0.09,-1.24 -0.13,-1.84 z"
     id="path70" />
  <path
     class="cls-1"
     d="m 17.307774,61.69049 a 19.45,19.45 0 0 1 -2.16,0 c -0.34,0 -0.47,0.07 -0.51,0.46 a 33.63,33.63 0 0 0 -0.16,4.81 v 3.16 c 0,0.23 0,0.51 0.36,0.47 0.79,-0.09 1.57,-0.16 2.37,-0.24 0.22,0 0.3,-0.13 0.28,-0.36 a 62.59,62.59 0 0 1 0.22,-7.86 c 0.03,-0.35 -0.08,-0.44 -0.4,-0.44 z m 18.94,25.91 c 0.44,-0.23 0.4,-0.42 0.18,-0.78 -1.87,-3.16 -3.73,-6.29 -5.59,-9.45 -1.34,-2.24 -2.65,-4.47 -4,-6.71 a 54.43,54.43 0 0 0 2,7.82 48.75,48.75 0 0 0 1.92,5.27 c 0.78,1.74 1.62,3.45 2.37,5.2 0.14,0.31 0.22,0.33 0.49,0.17 0.9,-0.53 1.76,-1.04 2.63,-1.52 z m -20.87,-14.66 c -0.49,0 -0.68,0.18 -0.58,0.73 a 53.44,53.44 0 0 0 4.24,14.48 c 0.17,0.36 0.31,0.36 0.62,0.2 2.76,-1.35 5.51,-2.7 8.26,-4 0.37,-0.18 0.33,-0.33 0.22,-0.62 -0.89,-2.39 -1.71,-4.8 -2.42,-7.24 a 42.24,42.24 0 0 1 -2,-10.32 23.59,23.59 0 0 0 -0.66,-5.25 14.64,14.64 0 0 0 -0.82,-2.25 13,13 0 0 0 -5.2,-5.83 c -0.4,-0.24 -0.53,-0.15 -0.64,0.25 -0.51,1.9 -0.94,3.81 -1.31,5.75 -0.07,0.42 0.07,0.47 0.42,0.47 1,0 2.08,0 3.1,0 a 1.89,1.89 0 0 1 1.33,0.29 c 0.33,0.28 0.4,0.77 0.31,1.54 -0.07,0.62 -0.11,1.22 -0.16,1.84 a 58.79,58.79 0 0 0 -0.11,8.29 1.16,1.16 0 0 1 -1.17,1.35 c -1.14,0.12 -2.27,0.25 -3.43,0.32 z m 68.69,-19.93 q -3.72,2.65 -7.44,5.29 c -0.27,0.18 -0.33,0.31 -0.11,0.58 0.69,0.88 1.35,1.79 2,2.68 a 5.12,5.12 0 0 0 4.23,2.23 5,5 0 0 0 4.1,-7.72 c -0.65,-1 -1.46,-2 -2.17,-3 -0.18,-0.28 -0.3,-0.24 -0.58,-0.06 z m 10.12,42.12 q -8,4.77 -16.06,9.5 c -0.42,0.24 -0.5,0.41 -0.24,0.84 1.6,2.68 3.17,5.36 4.74,8.06 0.2,0.35 0.36,0.33 0.64,0.15 0.62,-0.38 1.24,-0.73 1.86,-1.1 l 14.35,-8.51 c 0.25,-0.15 0.49,-0.22 0.25,-0.6 -1.64,-2.74 -3.26,-5.51 -4.9,-8.26 -0.06,-0.11 -0.09,-0.26 -0.29,-0.28 z m -27.58,-43.63 a 8.77,8.77 0 0 0 -1.84,-1.57 l 5,8.46 c 1.31,2.24 2.64,4.49 4,6.73 0.13,0.24 0.22,0.47 0.6,0.24 0.81,-0.53 1.63,-1 2.46,-1.48 0.21,-0.13 0.26,-0.2 0.1,-0.44 a 79.78,79.78 0 0 0 -10.32,-11.94 z m -13.35,-20.1 c -0.49,-0.11 -0.8,0 -0.65,0.53 v 0.33 a 13.09,13.09 0 0 0 3.17,7.62 17.69,17.69 0 0 0 2.06,2 20.48,20.48 0 0 0 3.32,2.06 31,31 0 0 1 6,4.76 104.14,104.14 0 0 1 7.27,7.59 c 0.19,0.2 0.33,0.4 0.68,0.16 2.52,-1.82 5.05,-3.61 7.58,-5.4 0.33,-0.22 0.22,-0.36 0,-0.58 a 53.69,53.69 0 0 0 -6.14,-6.91 51.25,51.25 0 0 0 -9.61,-7.16 c -0.44,-0.24 -0.71,-0.29 -1,0.24 a 9.41,9.41 0 0 1 -0.83,1.29 1.26,1.26 0 0 1 -1.73,0.47 1.23,1.23 0 0 1 -0.31,-1.74 c 0.25,-0.43 0.54,-0.84 0.8,-1.25 0.11,-0.19 0.42,-0.42 0,-0.55 -0.42,-0.13 -0.6,-0.59 -0.91,0 -0.55,1.1 -1.17,2.17 -1.75,3.25 -0.44,0.8 -1.1,1.06 -1.77,0.71 a 1.28,1.28 0 0 1 -0.39,-1.86 c 0.53,-1 1,-2 1.61,-2.93 0.22,-0.39 0.16,-0.51 -0.24,-0.66 a 48.84,48.84 0 0 0 -7.16,-1.97 z m 2.85,86.27 c -1,0.64 -2.08,1.24 -3.14,1.83 -0.25,0.13 -0.36,0.23 -0.18,0.54 1.66,2.76 3.3,5.55 4.94,8.32 0.06,0.09 0.08,0.22 0.24,0.24 0.16,0.02 0.2,-0.11 0.31,-0.17 0.69,-0.42 1.4,-0.82 2.1,-1.24 q 7.08,-4.19 14.13,-8.35 c 0.33,-0.2 0.45,-0.31 0.22,-0.71 q -2.46,-4.08 -4.85,-8.15 c -0.19,-0.29 -0.29,-0.33 -0.59,-0.15 -2.6,1.57 -5.25,3.1 -7.86,4.65 -1.76,1.06 -3.55,2.1 -5.32,3.17 z m -8.15,-89.79 c -0.09,0.48 0.13,0.48 0.45,0.5 a 39.86,39.86 0 0 1 7.61,1.15 49.9,49.9 0 0 1 10,3.62 1.34,1.34 0 0 0 0,-0.2 c -2.68,-4.54 -5.29,-9.11 -8.08,-13.58 -2.56,-3.97 -6.21,-5.27 -10.56,-3.97 -0.47,0.15 -0.56,0.29 -0.4,0.77 a 23.49,23.49 0 0 1 0.98,11.69 z m 0,2.87 c -0.47,0.09 -1,-0.17 -1.39,0.23 -1.64,1.52 -3.31,3 -5,4.49 a 42.94,42.94 0 0 1 -11.7,7.93 95.31,95.31 0 0 1 -9.63,3.35 3.38,3.38 0 0 0 -2,1.59 7.63,7.63 0 0 0 -0.48,0.89 c -0.47,1 -0.45,1 0.48,1.53 a 15.3,15.3 0 0 1 6.87,8.57 20.6,20.6 0 0 1 0.86,3.76 6.15,6.15 0 0 0 0.69,2.48 q 10.13,17 20.17,34 c 1.41,2.37 2.81,4.72 4.2,7.09 q 2.33,3.91 4.61,7.82 c 0.22,0.35 0.36,0.44 0.76,0.2 3.87,-2.33 7.75,-4.61 11.66,-6.91 0.23,-0.14 0.42,-0.23 0.22,-0.58 -1.34,-2.19 -2.65,-4.41 -3.94,-6.62 -0.15,-0.26 -0.28,-0.26 -0.51,-0.11 -0.84,0.51 -1.72,1 -2.56,1.51 -1.69,1 -3.39,2 -5.1,3 a 1.21,1.21 0 1 1 -1.26,-2.06 4.64,4.64 0 0 1 0.42,-0.25 c 2.31,-1.39 4.63,-2.79 7,-4.12 0.57,-0.31 0.53,-0.55 0.24,-1 -1.08,-1.75 -2.15,-3.52 -3.15,-5.34 a 4.6091322,4.6091322 0 0 1 8,-4.58 13.07,13.07 0 0 1 1,1.61 c 0.24,0.53 0.51,0.47 0.93,0.22 1.06,-0.68 2.15,-1.3 3.23,-1.94 a 1.27,1.27 0 0 1 1.84,0.3 1.26,1.26 0 0 1 -0.6,1.8 l -3.45,2 c -0.27,0.16 -0.36,0.29 -0.16,0.6 0.67,1.09 1.33,2.2 2,3.33 0.16,0.3 0.29,0.33 0.58,0.15 1.06,-0.66 2.12,-1.26 3.18,-1.9 1.44,-0.83 2.88,-1.69 4.32,-2.53 a 1.19,1.19 0 0 1 1.58,0.18 1.58,1.58 0 0 1 0.13,0.18 1.27,1.27 0 0 1 -0.11,1.43 1.92,1.92 0 0 1 -0.62,0.43 c -2.41,1.43 -4.79,2.87 -7.2,4.27 -0.33,0.18 -0.37,0.33 -0.17,0.66 0.84,1.35 1.65,2.73 2.45,4.1 0.14,0.24 0.22,0.38 0.53,0.18 3.94,-2.33 7.87,-4.67 11.81,-7 0.33,-0.2 0.35,-0.35 0.17,-0.66 -0.59,-0.93 -1.13,-1.88 -1.68,-2.81 -0.55,-0.93 -1.26,-1.82 -1.8,-2.72 q -12.75,-21.52 -25.5,-43 a 1.59,1.59 0 0 0 -0.56,-0.65 23.83,23.83 0 0 1 -3.76,-2.72 15.43,15.43 0 0 1 -5.38,-11.87 c 0,-0.27 -0.12,-0.33 -0.36,-0.35 -0.62,-0.07 -1.26,-0.13 -1.88,-0.18 z m -20.58,65.65 a 5,5 0 0 0 3.87,-4.84 3.6,3.6 0 0 0 -0.13,-1.18 38.23,38.23 0 0 0 -1.6,-3.78 c -0.13,-0.27 -0.28,-0.12 -0.42,0 l -8.26,4 c -0.33,0.15 -0.4,0.29 -0.24,0.62 0.42,0.84 0.79,1.7 1.19,2.53 a 5,5 0 0 0 5.59,2.65 z m -23.6399996,-43.86 c 0.82,1.31 1.58,2.66 2.37,4 l 5.7799996,9.76 a 2.08,2.08 0 0 0 0.07,-0.28 51,51 0 0 1 1.66,-11.85 26.29,26.29 0 0 1 2.61,-7.31 c 0.22,-0.35 -0.09,-0.31 -0.24,-0.37 a 23.73,23.73 0 0 1 -9.2799996,-6.14 c -0.25,-0.28 -0.36,-0.2 -0.58,0 a 15.93,15.93 0 0 0 -2.1,2.67 c -1.91,3.13 -2.3,6.27 -0.29,9.52 z m 15.6399996,-49.69 a 21.63,21.63 0 0 0 -16.7899996,21.11 c 0,0.6 0.07,1.22 0.13,1.84 a 21.65,21.65 0 0 0 15.2799996,18.8 1.55,1.55 0 0 0 1,0 c 1.57,-0.51 3.12,-1 4.7,-1.53 a 39.21,39.21 0 0 0 13.13,-6.75 c 2.86,-2.28 5.47,-4.85 8.24,-7.26 a 1.07,1.07 0 0 0 0.31,-0.66 21.64,21.64 0 0 0 -26,-25.55 z m -14.6899996,35.44 c 0.18,-0.14 0,-0.31 0,-0.41 a 23,23 0 0 1 -1.81,-2.92 24.17,24.17 0 0 1 -1.99999997,-5.24 16.9,16.9 0 0 1 -0.59,-3.42 21.84,21.84 0 0 1 -0.07,-3.71 44.33,44.33 0 0 1 0.73,-4.57 23.93,23.93 0 0 1 3.64999997,-8.06 19.57,19.57 0 0 1 4.12,-4.45 3.74,3.74 0 0 0 0.27,-0.31 c 0.4,0 0.51,-0.48 0.84,-0.62 v 0 c 0.6599996,-0.44 1.2999996,-0.9 1.9999996,-1.32 a 12.51,12.51 0 0 0 2.1,-1.2 0.3,0.3 0 0 0 0.11,0 c 0.09,0 0.2,0 0.23,-0.09 a 0.71,0.71 0 0 0 0.5,-0.23 9.19,9.19 0 0 0 2.26,-0.83999997 h 0.11 0.11 c 0.11,0 0.2,0 0.25,-0.07 0.68,-0.17 1.37,-0.31 2,-0.48 h 0.22 c 0.29,0 0.55,-0.11 0.84,-0.13 a 34.88,34.88 0 0 1 6.93,-0.09 0.18,0.18 0 0 0 0.18,0.11 29,29 0 0 1 5.71,1.37999997 18.88,18.88 0 0 1 3.14,1.65 30.72,30.72 0 0 1 3.77,2.64 c 0.19,0.18 0.35,0.38 0.53,0.55 a 22,22 0 0 1 4.74,6.27 c 0.26,0.51 0.5,0.62 1,0.42 a 11.21,11.21 0 0 1 5.5,-0.51 9.4,9.4 0 0 1 5.62,2.76 c 0.13,0.1 0.22,0.2 0.4,0.1 a 0.2,0.2 0 0 0 0,0.11 c 0,0.33 0.29,0.46 0.47,0.66 q 0,0 0.06,0.06 a 36.16,36.16 0 0 1 2.77,4.15 0.54,0.54 0 0 0 0.22,0.36 c 0.73,1.3 1.46,2.59 2.28,3.83 0.27,1 1.09,1 1.8,1 a 10.44,10.44 0 0 0 5.14,-1 11.75,11.75 0 0 0 2.19,-0.91 c 0.18,0.07 0.29,-0.17 0.48,-0.13 h 0.21 a 12.32,12.32 0 0 1 8.19,-0.31 13.45,13.45 0 0 1 3.28,1.7 v 0 a 22,22 0 0 0 1.9,1.57 4.1,4.1 0 0 0 1.09,1 6,6 0 0 0 6.86,1.42 c 0.24,-0.11 0.37,-0.44 0.69,-0.38 0.1,0 0.2,0 0.24,-0.1 a 2,2 0 0 0 0.51,-0.23 6.88,6.88 0 0 0 2,-1.77 c 0.36,-0.07 0.49,-0.44 0.69,-0.68 a 9.35,9.35 0 0 0 1.789996,-2.93 3.25,3.25 0 0 1 0.11,-0.37 1.53,1.53 0 0 0 0.51,-0.71 c 0.63,-1.09 1.27,-2.15 1.91,-3.23 l 0.11,-0.1 c 0.05,0 0.13,0 0.11,-0.15 a 9.5,9.5 0 0 1 1.89,-1.96 6.59,6.59 0 0 1 3,-1.18 20.36,20.36 0 0 1 4,-0.06 6.08,6.08 0 0 0 3.75,-0.74 3,3 0 0 0 1,-1.06 c 0.4,-0.75 0.71,-0.84 1.46,-0.62 a 1.16,1.16 0 0 1 0.8,1.38 4.29,4.29 0 0 1 -2.21,2.55 8.9,8.9 0 0 1 -5.25,0.89 c -0.3,0 -0.59,0 -0.9,0 a 0.07,0.07 0 0 0 -0.09,0 h -1.2 a 0.72,0.72 0 0 0 -0.48,0.07 h -0.08 a 1.5,1.5 0 0 0 -0.86,0.22 2.83,2.83 0 0 0 -1.92,1.2 c -0.56,0.18 -0.78,0.71 -1.09,1.13 a 21.38,21.38 0 0 0 -2,3.52 17.42,17.42 0 0 0 -1.13,1.9 1.82,1.82 0 0 0 -0.48,0.84 c -0.27,0.07 -0.4,0.31 -0.54,0.51 a 9.59,9.59 0 0 1 -1.679996,1.86 c -0.66,0.53 -1.31,1 -2,1.55 -0.46,0.17 -0.8,0.55 -1.24,0.71 a 10.45,10.45 0 0 1 -3.34,0.84 12.72,12.72 0 0 1 -2,-0.09 19.57,19.57 0 0 1 -2.32,-0.73 c -0.83,-0.6 -1.67,-1.18 -2.53,-1.79 0,-0.07 0,-0.1 -0.09,-0.12 a 1.72,1.72 0 0 0 -0.84,-0.71 9.06,9.06 0 0 0 -2.52,-1.92 7.93,7.93 0 0 0 -3.26,-1.2 c -2.53,-0.49 -4.74,0.51 -7,1.38 a 27,27 0 0 1 -4.32,1.35 5.53,5.53 0 0 1 -2.28,0.11 c 0.54,0.95 1,1.81 1.55,2.65 0.69,1.16 1.44,2.29 2.06,3.5 a 5.34,5.34 0 0 0 2,2.08 c 0.75,0.49 1.5,1 2.25,1.51 1,0.84 2,1.68 3,2.52 1.19,1.15 2.48,2.2 3.58,3.46 0.71,0.75 1.4,1.55 2.09,2.34 a 10.92,10.92 0 0 0 1.39,1.58 c 0,0 0,0 0.07,0 a 33.86,33.86 0 0 0 2.3,3.28 c 0.84,1.22 1.73,2.41 2.63,3.59 a 19.57,19.57 0 0 1 1.07,2.21 4.82,4.82 0 0 0 0.13,1.26 7.51,7.51 0 0 1 -0.57,3.41 7.28,7.28 0 0 1 -6.16,4.61 5,5 0 0 1 -2.88,-0.31 1.3,1.3 0 0 0 -0.4,0 v 0 c -0.48,-0.38 -1,-0.67 -1.57,-0.21 -0.57,0.46 -1.2,0.76 -1.8,1.13 a 9.94,9.94 0 0 0 -1.1,0.65 c -0.42,0.24 -0.27,0.37 -0.09,0.66 1,1.64 1.93,3.32 2.92,4.94 a 4.69,4.69 0 0 0 1,1.5 c 0,0.56 0.47,0.93 0.71,1.38 0.4,0.79 0.91,1.52 1.37,2.26 0.46,0.74 0.71,1.22 1.08,1.84 0,0 0,0.06 0,0.06 0.59,1 1.17,2 1.77,3 0.18,0.31 0.24,0.73 0.66,0.86 a 1.52,1.52 0 0 1 0,0.21 5.25,5.25 0 0 0 0.24,0.53 c 1,1.77 2.08,3.54 3.12,5.29 0.76,1.28 1.55,2.54 2.28,3.83 0.2,0.33 0.38,0.4 0.67,0.15 0.13,-0.11 0.35,-0.15 0.39,-0.35 a 0.18,0.18 0 0 0 0.1,0 c 0.1,0 0.11,0 0.13,-0.09 a 6,6 0 0 0 1.79,-1.08 4.23,4.23 0 0 1 1.7,0 2.93,2.93 0 0 1 1.53,1.64 8.2,8.2 0 0 0 0.84,1.32 11.4,11.4 0 0 0 1.31,2.33 c 0.999996,1.7 1.999996,3.36 2.999996,5 a 2.15,2.15 0 0 1 -0.8,3 5,5 0 0 0 -1.459996,0.95 19.08,19.08 0 0 0 -2.59,1.49 13.15,13.15 0 0 1 -1.42,0.79 1.53,1.53 0 0 0 -0.42,0.38 9.06,9.06 0 0 0 -2.26,1.24 c -0.39,0.2 -0.88,0.31 -1.11,0.75 -0.08,0 -0.11,0 -0.1,0.09 a 4.14,4.14 0 0 0 -1.56,0.98 c -1.63,0.93 -3.25,1.87 -4.85,2.88 a 24.24,24.24 0 0 1 -2.39,1.33 1.59,1.59 0 0 1 -1.95,-0.73 c 0,-0.09 -0.06,-0.11 -0.11,-0.13 -0.19,-0.35 -0.37,-0.69 -0.57,-1 -0.51,-0.89 -1.06,-1.79 -1.57,-2.68 -1,-1.7 -1.93,-3.39 -3,-5.05 a 17,17 0 0 0 -1.16,-2 c -0.62,-1 -1.23,-2.1 -1.85,-3.14 -1.25,-2.13 -2.53,-4.27 -3.81,-6.4 a 24.81,24.81 0 0 0 -1.49,-2.54 v 0 c -0.78,-1.33 -1.53,-2.68 -2.35,-4 a 2.17,2.17 0 0 0 -3.76,2.16 c 1.24,2.13 2.52,4.23 3.78,6.34 1.38,2.35 2.75,4.71 4.13,7 1.08,1.82 2.17,3.59 3.27,5.4 0.67,1.26 1.4,2.48 2.17,3.68 v 0 a 0.3,0.3 0 0 1 0.09,0.13 c 0.44,0.95 1.06,1.77 1.57,2.66 0,0 0,0.05 0,0.07 0,0.02 0.11,0.2 0.22,0.26 a 6.15,6.15 0 0 0 0.71,1.37 1.74,1.74 0 0 1 -0.7,2.42 c -1.58,0.89 -3.17,1.82 -4.74,2.74 -1.24,0.73 -2.48,1.44 -3.68,2.2 -0.35,0.22 -0.79,0.31 -1,0.68 a 5.53,5.53 0 0 0 -1.3,0.67 c -1.11,0.64 -2.2,1.3 -3.3,2 a 11.73,11.73 0 0 0 -1.86,1.19 4.24,4.24 0 0 0 -1.69,1.07 2.78,2.78 0 0 0 -0.84,0.24 2,2 0 0 1 -2.33,-0.95 c -0.64,-1.13 -1.41,-2.17 -2,-3.3 -0.49,-0.91 -1,-1.8 -1.55,-2.72 -0.67,-1.18 -1.46,-2.29 -2.06,-3.53 a 2.85,2.85 0 0 1 -0.11,-2 3.9,3.9 0 0 1 1.42,-1.22 c 0.61,-0.33 1.19,-0.71 1.79,-1.06 0.18,-0.11 0.35,-0.24 0.18,-0.4 -0.33,-0.35 -0.33,-0.89 -0.74,-1.19 a 5.14,5.14 0 0 0 -1.1,-1.8 0.63,0.63 0 0 0 -0.47,-0.65 5.28,5.28 0 0 0 -1.17,-2 10.06,10.06 0 0 0 -1.44,-2.42 9.26,9.26 0 0 0 -1.39,-2.58 c -0.66,-1.13 -1.3,-2.26 -1.95,-3.39 -0.55,-0.95 -1.13,-1.88 -1.7,-2.83 -1.49,-2.55 -3,-5.12 -4.5,-7.66 -0.37,-0.6 -0.71,-1.22 -1.1,-1.82 -0.09,-0.17 -0.11,-0.35 -0.43,-0.13 -1.19,0.75 -2.43,1.42 -3.67,2.12 a 0.94,0.94 0 0 0 -0.44,0.74 6.75,6.75 0 0 1 -0.93,2.76 7.15,7.15 0 0 1 -6,3.66 3.82,3.82 0 0 0 -0.51,0.11 16.22,16.22 0 0 1 -3.1,-0.71 8.26,8.26 0 0 0 -1.33,-1 11.59,11.59 0 0 1 -1.9,-2.06 c 0,0 0,-0.07 0,-0.09 0,-0.02 -0.13,-0.2 -0.23,-0.26 a 9.35,9.35 0 0 0 -0.88,-2.15 c -0.71,-1.55 -1.57,-3.06 -2.22,-4.65 a 60.33,60.33 0 0 1 -2.56,-7.24 50.76,50.76 0 0 1 -1.35,-5.4 20.15,20.15 0 0 1 -0.38,-3.12 2.38,2.38 0 0 0 -0.73,-1.77 6.34,6.34 0 0 0 -1.31,-2.11 0.23,0.23 0 0 0 0,-0.11 c 0,-0.07 0,-0.11 -0.09,-0.14 a 18.59,18.59 0 0 0 -1.8099996,-3 c 0,0 0,-0.06 0,-0.09 0,-0.03 0,-0.11 -0.07,-0.13 0,-0.26 -0.22,-0.38 -0.33,-0.57 a 18.59,18.59 0 0 0 -1.84,-3 c 0,-0.08 0,-0.15 0,-0.22 0,-0.07 0,-0.13 -0.07,-0.15 -0.2,-0.27 -0.27,-0.66 -0.6,-0.84 0,-0.38 -0.31,-0.56 -0.49,-0.84 0,0 0,0 0,-0.09 a 4.93,4.93 0 0 0 -0.69,-1.2 7.82,7.82 0 0 0 -0.95,-1.57 c 0,-0.49 -0.44,-0.77 -0.64,-1.15 a 25.4,25.4 0 0 1 -2.23999997,-4.45 c 0,0 0,-0.07 0,-0.11 0,-0.04 0.07,-0.29 -0.11,-0.38 v -0.11 c 0,-0.42 -0.06,-0.86 -0.11,-1.29 0,-0.2 0.11,-0.44 -0.11,-0.62 a 0.93,0.93 0 0 1 0,-0.24 4.15,4.15 0 0 0 0.13,-1.79 c 0.42,-1 0.6,-2 1.07999997,-2.95 a 5.57,5.57 0 0 0 0.49,-1.08 c 0.07,0 0.15,0 0.13,-0.14 a 0.26,0.26 0 0 0 0,-0.11 5.07,5.07 0 0 0 1,-1.44 c 0.54,-0.76 1.08,-1.6 1.85,-2.3 z"
     id="path72" />
</svg>
