<svg id="Calque_1" data-name="Calque 1" xmlns="http://www.w3.org/2000/svg" viewBox="0 0 85 87"><defs><style>.cls-1{fill:#cee4ff;}.cls-2,.cls-3{fill:#0071bc;}.cls-3{opacity:0.24;}.cls-4{fill:#fff;stroke:#0071bc;stroke-linecap:round;stroke-linejoin:round;stroke-width:0.79px;}</style></defs><circle class="cls-1" cx="41.82" cy="43.69" r="38.77"/><path class="cls-2" d="M59,40a.43.43,0,0,1,.21-.34l2.83-1.18,1.18-2.83a.39.39,0,0,1,.69,0l1.18,2.83L68,39.7a.38.38,0,0,1,0,.68l-2.83,1.18L64,44.4a.39.39,0,0,1-.69,0l-1.18-2.84-2.83-1.18A.43.43,0,0,1,59,40Zm14.61,8.22a.35.35,0,0,1-.17.27l-2.27.95-.94,2.26a.31.31,0,0,1-.55,0l-.94-2.26-2.27-.95a.35.35,0,0,1-.17-.27.32.32,0,0,1,.17-.27l2.27-1,.94-2.26a.31.31,0,0,1,.55,0L71.21,47l2.27,1A.32.32,0,0,1,73.65,48.26Z"/><path class="cls-3" d="M35.38,56.38c.6-.48-4.91-3.32-4.91-3.32s1.13,2.11-2.7,8.4q-.19.32-.39.6A4.34,4.34,0,0,0,26,62.2a5.45,5.45,0,0,0-.84-.58,5.39,5.39,0,0,0-7.2,2,3.67,3.67,0,0,0-.61-.42A3.5,3.5,0,1,0,17,69.46a5.35,5.35,0,0,0,2.63,3.37,5.47,5.47,0,0,0,3.09.64,4.92,4.92,0,0,0,4.46,3.2A3,3,0,0,0,28.47,78a3,3,0,0,0,3.63-4.78,4.91,4.91,0,0,0-.21-3.44,6.22,6.22,0,0,0-.4-1.87A4.48,4.48,0,0,0,29.92,63C30.39,59.33,34.92,56.75,35.38,56.38Z"/><path class="cls-4" d="M60,12.2h0v0c-7.1.66-10.84,7.8-10.84,7.8L52,23l4.24,3.25S62.36,18.93,60,12.2Z"/><polygon class="cls-4" points="28.78 45.63 27.43 49.81 26.07 53.99 24.19 52.8 22.32 51.59 25.55 48.61 28.78 45.63"/><polygon class="cls-4" points="42.34 54.31 40.98 58.49 39.62 62.68 37.75 61.48 35.88 60.28 39.11 57.29 42.34 54.31"/><polygon class="cls-4" points="34.43 51.74 33.38 56.12 32.33 60.5 29.84 58.91 27.35 57.31 30.89 54.52 34.43 51.74"/><polygon class="cls-4" points="17.14 45.56 47.95 65.29 40.61 41.47 17.14 45.56"/><rect class="cls-4" x="37.93" y="19.51" width="9.51" height="38.78" transform="translate(27.72 -16.88) rotate(32.64)"/><line class="cls-4" x1="46.62" y1="23.94" x2="54.63" y2="29.07"/><line class="cls-4" x1="45.9" y1="25.75" x2="53.39" y2="30.54"/><path class="cls-4" d="M22.29,49.72,29.79,38s5.52-8.63,9.78-8.51C40.86,32.94,35.45,42,35.45,42L27.83,53.28Z"/><path class="cls-4" d="M35.84,58.41l7.5-11.71s5.53-8.63,9.79-8.5C54.41,41.62,49,50.69,49,50.69L41.39,62Z"/></svg>