<?xml version="1.0" encoding="UTF-8"?>
<svg width="118px" height="158px" viewBox="0 0 118 158" version="1.1" xmlns="http://www.w3.org/2000/svg" xmlns:xlink="http://www.w3.org/1999/xlink">
    <title>B62A119F-A345-4CFF-B138-5E55EE0C4494</title>
    <g id="Page-1" stroke="none" stroke-width="1" fill="none" fill-rule="evenodd" stroke-linejoin="round">
        <g id="Empty-State" transform="translate(-660.000000, -371.000000)" stroke-width="2">
            <g id="empty_gfx" transform="translate(661.000000, 372.000000)">
                <g id="DeckAssets_allup_light_storage" transform="translate(3.000000, 30.000000)">
                    <g id="Group">
                        <g transform="translate(0.000000, 50.000000)" stroke="#232F3E">
                            <polyline id="Path" points="108 8 98.5 0.1 94.9 0.1"></polyline>
                            <polyline id="Path" points="19.2 0.1 15.5 0.1 6 8"></polyline>
                            <line x1="77.1" y1="76" x2="96.2" y2="76" id="Path"></line>
                            <polyline id="Path" points="1.1 39.5 1.1 76 72 76"></polyline>
                            <line x1="1.1" y1="25.1" x2="1.1" y2="35.2" id="Path"></line>
                            <polyline id="Path" points="101.4 76 112.9 76 112.9 12.2 1.1 12.2 1.1 21"></polyline>
                            <rect id="Rectangle" x="39.8" y="23.9" width="35.9" height="7.3"></rect>
                        </g>
                        <g transform="translate(23.000000, 8.000000)" id="Path" stroke="#527FFF">
                            <path d="M0.5,44.9 L0.5,3 C0.5,1.8 1.5,0.8 2.7,0.8 L37.4,0.8 L55.9,19.3 L55.9,45"></path>
                            <polygon points="37.4 19.3 55.9 19.3 37.4 0.8"></polygon>
                            <line x1="8.7" y1="34.2" x2="47.8" y2="34.2"></line>
                            <line x1="8.7" y1="23.4" x2="30.8" y2="23.4"></line>
                        </g>
                        <g transform="translate(35.000000, 0.000000)" id="Path" stroke="#527FFF">
                            <path d="M0.1,4.1 L0.1,2.2 C0.1,1 1.1,0 2.3,0 L37,0 L55.5,18.5 L55.5,53"></path>
                            <polyline points="43.9 18.5 55.5 18.5 37 0 37 12.7"></polyline>
                        </g>
                    </g>
                    <line x1="31.7" y1="115.8" x2="104.1" y2="115.8" id="Path" stroke="#232F3E"></line>
                    <line x1="9.8" y1="115.8" x2="26.5" y2="115.8" id="Path" stroke="#232F3E"></line>
                </g>
                <rect id="Rectangle" stroke="#527FFF" transform="translate(2.800000, 46.800000) rotate(-180.000000) translate(-2.800000, -46.800000) " x="-4.52970994e-14" y="44" width="5.6" height="5.6"></rect>
                <rect id="Rectangle" stroke="#527FFF" transform="translate(22.800000, 24.800000) rotate(-180.000000) translate(-22.800000, -24.800000) " x="20" y="22" width="5.6" height="5.6"></rect>
                <rect id="Rectangle" stroke="#527FFF" transform="translate(73.800000, 12.800000) rotate(-180.000000) translate(-73.800000, -12.800000) " x="71" y="10" width="5.6" height="5.6"></rect>
                <rect id="Rectangle" stroke="#527FFF" transform="translate(106.800000, 12.800000) rotate(-180.000000) translate(-106.800000, -12.800000) " x="104" y="10" width="5.6" height="5.6"></rect>
                <rect id="Rectangle" stroke="#527FFF" transform="translate(16.800000, 2.800000) rotate(-180.000000) translate(-16.800000, -2.800000) " x="14" y="1.82076576e-13" width="5.6" height="5.6"></rect>
                <rect id="Rectangle" stroke="#527FFF" transform="translate(97.800000, 37.800000) rotate(-180.000000) translate(-97.800000, -37.800000) " x="95" y="35" width="5.6" height="5.6"></rect>
            </g>
        </g>
    </g>
</svg>