<?xml version="1.0" encoding="UTF-8"?>
<svg width="1026px" height="58px" viewBox="0 0 1026 58" version="1.1" xmlns="http://www.w3.org/2000/svg" xmlns:xlink="http://www.w3.org/1999/xlink">
    <!-- Generator: Sketch 51.3 (57544) - http://www.bohemiancoding.com/sketch -->
    <title>Desktop Header Element/Service Hub</title>
    <desc>Created with Sketch.</desc>
    <defs>
        <rect id="path-1" x="0" y="0" width="1440" height="70"></rect>
    </defs>
    <g id="Marketing-Hub-Overview" stroke="none" stroke-width="1" fill="none" fill-rule="evenodd">
        <g id="Desktop-Header-Element/Marketing-Hub" transform="translate(-174.000000, 0.000000)">
            <g>
                <mask id="mask-2" fill="white">
                    <use xlink:href="#path-1"></use>
                </mask>
                <g id="Rectangle" fill-rule="nonzero"></g>
                <g id="Background" mask="url(#mask-2)">
                    <g transform="translate(-186.000000, -1156.000000)" id="Blobs-[Orange]">
                        <g transform="translate(872.000000, 721.500000) scale(-1, 1) translate(-872.000000, -721.500000) ">
                            <path d="M178.851316,876.944085 C184.832699,864.180616 187.367359,852.654659 187.25109,841.94163 C187.137405,831.231189 184.40638,821.382865 179.972664,812.142942 C162.232631,775.183249 117.228861,747.9735 99.8505536,708.342022 C73.7856762,648.894805 114.110274,586.861238 161.504014,548.361126 C217.93313,500.84374 279.604676,467.638008 335.713407,425.438303 C343.834136,419.338762 351.908357,412.980328 360.1221,406.088573 C442.016664,323.845748 560.455798,283.779328 674.791935,318.543601 C783.521334,353.307873 850.401722,444.226233 892.584036,545.181909 C897.276127,556.40237 901.660752,567.74969 905.794754,579.187622 C922.707986,658.10625 990.818239,743.445446 994.236541,825.778884 C994.241709,825.897975 994.246876,826.014477 994.252044,826.133568 C994.970327,844.427011 990.658047,862.572884 982.684592,879.046303 C941.497021,964.126605 881.202614,1076.05679 806.348771,1149.44027 C797.424496,1158.18829 788.293521,1166.39005 778.963597,1173.93163 C685.669526,1248.50861 561.104319,1222.8574 462.93471,1174.04813 C452.005444,1168.58806 441.399147,1162.84321 431.108068,1156.77214 C398.899031,1137.73309 369.320253,1172.79768 341.389908,1166.69296 C276.22513,1152.44603 272.246154,1058.74197 210.125035,1030.50182 C157.318338,1004.29917 148.050424,946.081701 170.68408,901.280111 C173.061131,893.559895 175.838663,885.415093 178.851316,876.944085" id="Fill-2" fill="#FAE0B5" transform="translate(542.992123, 763.365846) rotate(-13.000000) translate(-542.992123, -763.365846) "></path>
                            <circle id="Oval" fill="#F5C26B" fill-rule="nonzero" cx="606.5" cy="1190.5" r="10.5"></circle>
                            <path d="M800.874082,899.252344 C806.500361,887.246619 808.884543,876.404938 808.775176,866.327921 C808.668241,856.25334 806.099352,846.989693 801.928858,838.298327 C785.242018,803.532864 742.91004,777.938509 726.563451,740.659879 C702.045998,684.741935 739.976598,626.391188 784.556657,590.176758 C837.63568,545.480393 895.645898,514.246025 948.423556,474.551639 C956.062172,468.814218 963.657041,462.833272 971.383149,456.350668 C1048.41578,378.99045 1159.8234,341.3027 1267.37161,374.003081 C1369.64594,406.703462 1432.55576,492.224164 1472.23379,587.186285 C1476.64732,597.740609 1480.77164,608.414258 1484.66021,619.173142 C1500.56933,693.406514 1564.63601,773.679277 1567.85137,851.124728 C1567.85623,851.236749 1567.86109,851.346335 1567.86595,851.458356 C1568.54159,868.66575 1564.48532,885.734336 1556.98524,901.229758 C1518.2429,981.258997 1461.52806,1086.54409 1391.11815,1155.57093 C1382.7237,1163.7996 1374.13481,1171.51443 1365.35879,1178.60828 C1277.60342,1248.75776 1160.43342,1224.62942 1068.09196,1178.71787 C1057.81155,1173.58195 1047.83493,1168.17816 1038.15481,1162.46752 C1007.85796,1144.55878 980.035224,1177.54165 953.763053,1171.79935 C892.46699,1158.39824 888.724238,1070.25722 830.291137,1043.69364 C780.619477,1019.04659 771.901783,964.285386 793.19172,922.143585 C795.427649,914.881704 798.040284,907.220444 800.874082,899.252344" id="Fill-2" fill="#FF8F59" transform="translate(1143.396512, 792.417039) rotate(-232.000000) translate(-1143.396512, -792.417039) "></path>
                            <path d="M577.421574,849.703425 C584.175533,835.291381 587.037578,822.276691 586.906292,810.179929 C586.777923,798.086091 583.69415,786.965723 578.687759,776.532338 C558.656362,734.798801 507.839746,704.074546 488.216795,659.324127 C458.785287,592.198498 504.318351,522.152458 557.833633,478.679536 C621.551332,425.024637 691.188592,387.529937 754.544524,339.879569 C763.714154,332.992191 772.83127,325.812479 782.10593,318.03056 C874.578283,225.164963 1008.31543,179.923424 1137.41963,219.177972 C1260.1929,258.43252 1335.71179,361.094215 1383.34252,475.08968 C1388.64066,487.759416 1393.59162,500.572395 1398.25958,513.487691 C1417.35738,602.599726 1494.265,698.961632 1498.12482,791.929546 C1498.13065,792.06402 1498.13649,792.19557 1498.14232,792.330043 C1498.95338,812.986331 1494.08411,833.475989 1485.08078,852.077173 C1438.57328,948.146746 1370.49103,1074.53423 1285.96881,1157.39617 C1275.89184,1167.27412 1265.58148,1176.53525 1255.04647,1185.05093 C1149.7022,1269.26053 1009.04772,1240.29612 898.198177,1185.18248 C885.857249,1179.01716 873.881005,1172.53028 862.260694,1165.67506 C825.891425,1144.17685 792.492148,1183.77051 760.954221,1176.87728 C687.372532,1160.79017 682.879617,1054.98296 612.734716,1023.09522 C553.10732,993.508142 542.64233,927.771098 568.199429,877.182778 C570.883508,868.465391 574.019796,859.268578 577.421574,849.703425" id="Fill-2" fill="#F5C26B" transform="translate(988.596087, 721.455021) scale(-1, 1) rotate(-51.000000) translate(-988.596087, -721.455021) "></path>
                        </g>
                    </g>
                </g>
            </g>
        </g>
    </g>
</svg>