<svg width="125" height="122" viewBox="0 0 125 122" fill="none" xmlns="http://www.w3.org/2000/svg">
<ellipse opacity="0.1" cx="54" cy="118" rx="40" ry="4" fill="black"/>
<path d="M34.626 83.0122C33.1344 82.906 31.637 83.1086 30.227 83.6073C28.817 84.106 27.5246 84.8902 26.4303 85.9109C25.3361 86.9316 24.4634 88.167 23.8667 89.5403C23.27 90.9135 22.962 92.395 22.9619 93.8926C22.9619 96.0687 21.2584 97.2743 19.2756 97.8453C18.8919 97.9594 18.5502 98.1841 18.2933 98.4915C18.0364 98.7989 17.8756 99.1753 17.831 99.5737C17.7865 99.9721 17.8601 100.375 18.0427 100.732C18.2254 101.088 18.5089 101.383 18.858 101.579C24.1374 104.609 29.5882 104.811 33.8517 104.811C36.6719 104.809 39.3814 103.711 41.41 101.749C43.4387 99.7865 44.6283 97.1128 44.7286 94.29C44.8289 91.4673 43.8321 88.7156 41.9479 86.614C40.0637 84.5123 37.439 83.2245 34.626 83.0216V83.0122Z" fill="#0083D7"/>
<path d="M37.2705 112.481V95.3449C37.2705 92.8304 39.2227 90.6825 41.7287 90.5979C42.3499 90.5745 42.9694 90.6769 43.5501 90.8989C44.1309 91.1209 44.6609 91.4581 45.1085 91.8901C45.5561 92.3221 45.912 92.8401 46.1549 93.4132C46.3979 93.9862 46.5229 94.6025 46.5225 95.225V112.601C46.5225 113.222 46.3977 113.837 46.1555 114.409C45.9133 114.98 45.5585 115.497 45.1125 115.929C44.6665 116.361 44.1383 116.698 43.5593 116.921C42.9804 117.143 42.3626 117.247 41.7428 117.226C39.2227 117.143 37.2705 114.995 37.2705 112.481Z" fill="#F9F1DA"/>
<path d="M37.2705 110.728V112.62C37.2705 115.137 39.2227 117.285 41.7287 117.369C42.3522 117.391 42.9735 117.286 43.5556 117.061C44.1376 116.836 44.6684 116.496 45.116 116.061C45.5636 115.626 45.9189 115.105 46.1606 114.529C46.4023 113.953 46.5254 113.334 46.5225 112.709V110.728H37.2705Z" fill="#495059"/>
<path d="M54.2866 112.479V95.3472C54.2866 92.8303 56.2389 90.6824 58.7448 90.6002C59.3647 90.5787 59.9825 90.6825 60.5614 90.9052C61.1403 91.128 61.6685 91.4652 62.1146 91.8968C62.5606 92.3284 62.9153 92.8455 63.1575 93.4173C63.3998 93.989 63.5246 94.6038 63.5245 95.225V112.598C63.5249 113.22 63.4003 113.835 63.1582 114.407C62.9161 114.979 62.5615 115.496 62.1154 115.928C61.6693 116.36 61.141 116.697 60.5619 116.92C59.9828 117.143 59.3649 117.247 58.7448 117.226C56.2389 117.141 54.2866 114.993 54.2866 112.479Z" fill="#F9F1DA"/>
<path d="M54.2866 110.728V112.62C54.2866 115.137 56.2389 117.285 58.7448 117.369C59.3671 117.389 59.987 117.282 60.5674 117.057C61.1478 116.831 61.6768 116.491 62.1229 116.056C62.5691 115.621 62.9231 115.1 63.1639 114.525C63.4047 113.95 63.5274 113.333 63.5245 112.709V110.728H54.2866Z" fill="#495059"/>
<path d="M27.8449 13.967C14.7495 16.2794 7.81811 26.7909 9.77738 37.8993C9.91247 38.6666 10.0951 39.4248 10.3241 40.1694C10.5285 40.8651 10.5638 41.5996 10.4271 42.3118C10.2903 43.0239 9.9855 43.6929 9.53804 44.2631C6.90535 47.7058 5.66643 51.8489 6.39852 56.0365C7.28078 61.0444 5.97616 66.118 2.17494 68.4234C1.81524 68.6497 1.51877 68.9638 1.31328 69.3361C1.10779 69.7085 1 70.127 1 70.5524C1 70.9779 1.10779 71.3964 1.31328 71.7688C1.51877 72.1411 1.81524 72.4552 2.17494 72.6815C12.2153 79.0453 45.2695 80.2015 51.45 57.9941C51.45 57.9941 56.2719 48.8902 52.994 30.2642C51.0441 19.1581 42.6509 11.3538 27.8449 13.967Z" fill="#0083D7"/>
<path d="M57.6868 25.5055C55.8777 30.4781 58.21 32.6894 61.6265 33.9349C65.0429 35.1804 68.2457 34.9877 70.0525 30.0128C71.8592 25.0378 71.4604 17.4944 68.0533 16.2489C64.6463 15.0034 59.4935 20.5306 57.6868 25.5055Z" fill="#F0E4C0"/>
<path d="M81.1911 90.1584C78.8163 90.1647 76.4595 89.7461 74.2316 88.9223C69.5833 87.1669 66.5705 83.7523 65.7422 79.3344C65.5308 78.1256 65.8037 76.8821 66.5018 75.8736C67.1999 74.865 68.2668 74.1728 69.4712 73.947C70.6756 73.7213 71.9203 73.9801 72.9353 74.6675C73.9504 75.3549 74.6539 76.4154 74.8933 77.6189C74.9731 78.0536 75.189 79.2075 77.2139 80.0746C79.9593 81.2496 83.4367 80.7961 84.2532 80.2767C85.2281 79.5176 86.4641 79.1774 87.6894 79.331C88.9147 79.4846 90.0289 80.1193 90.7869 81.0957C91.5448 82.072 91.8845 83.3099 91.7312 84.5371C91.5778 85.7642 90.944 86.8801 89.9691 87.6392C87.8644 89.3007 84.6169 90.1584 81.1911 90.1584Z" fill="#F5EBCD"/>
<path d="M82.4935 90.1162C85.4265 89.9235 88.1249 89.0822 89.9739 87.6393C90.9488 86.8802 91.5826 85.7643 91.7359 84.5371C91.8893 83.31 91.5496 82.0721 90.7917 81.0957C90.0337 80.1194 88.9195 79.4846 87.6942 79.331C86.4689 79.1775 85.2329 79.5176 84.258 80.2768C83.8122 80.5611 82.5709 80.8243 81.0903 80.8149L82.4935 90.1162Z" fill="#495059"/>
<path d="M75.203 80.2626C75.203 91.7635 67.807 101.084 51.3515 101.084C34.896 101.084 27.5 91.7635 27.5 80.2626C27.5 68.7618 38.1786 59.4558 51.3515 59.4558C64.5244 59.4558 75.203 68.7665 75.203 80.2626Z" fill="#F9F1DA"/>
<path d="M51.3516 101.084C56.1805 101.084 60.2211 100.277 63.5319 98.851C31.4327 96.9264 38.0872 66.6068 49.688 59.4957C37.2918 60.243 27.5024 69.2552 27.5024 80.2626C27.5001 91.7635 34.8984 101.084 51.3516 101.084Z" fill="#F0E4C0"/>
<path d="M90.4596 30.6025C79.9851 23.2659 61.162 21.1767 40.8771 24.7581C37.7187 25.3158 34.7009 26.491 31.996 28.2167C29.2911 29.9424 26.952 32.1848 25.1124 34.8158C23.2728 37.4469 21.9686 40.415 21.2744 43.5509C20.5801 46.6867 20.5094 49.9287 21.0662 53.092C21.623 56.2552 22.7964 59.2775 24.5195 61.9866C26.2426 64.6956 28.4816 67.0382 31.1087 68.8806C33.7357 70.723 36.6994 72.0291 39.8305 72.7244C42.9616 73.4197 46.1987 73.4906 49.3571 72.9329C64.0294 70.3479 86.4096 69.0413 95.0492 56.6851C96.4588 54.671 97.4583 52.3984 97.9905 49.9973C98.5228 47.5962 98.5773 45.1136 98.1511 42.6913C97.7248 40.269 96.8262 37.9547 95.5064 35.8804C94.1867 33.8061 92.4717 32.0127 90.4596 30.6025V30.6025Z" fill="#F9F1DA"/>
<path d="M28.4551 30.9739C24.6101 34.5734 22.0293 39.3208 21.0973 44.5087C20.1653 49.6966 20.9321 55.0472 23.2833 59.7632C25.6346 64.4792 29.4444 68.308 34.1451 70.6791C38.8458 73.0503 44.1856 73.8367 49.3689 72.9212C59.2591 71.1752 72.6549 70.0143 82.9815 65.6574C30.5669 78.7586 24.2128 47.0337 28.4551 30.9739Z" fill="#F5EBCD"/>
<path d="M73.4921 61.4086C73.1389 61.4085 72.7933 61.3049 72.4981 61.1107C72.2028 60.9165 71.9707 60.64 71.8303 60.3153C71.69 59.9907 71.6474 59.632 71.708 59.2835C71.7685 58.9349 71.9295 58.6117 72.1711 58.3536C73.4805 56.9522 75.2104 56.0167 77.0986 55.6887C79.2104 55.315 80.874 55.315 82.1927 55.6887C82.4282 55.7473 82.6496 55.8527 82.8437 55.9986C83.0378 56.1445 83.2007 56.3279 83.3228 56.538C83.4448 56.7481 83.5235 56.9806 83.5542 57.2217C83.5849 57.4629 83.567 57.7077 83.5015 57.9417C83.436 58.1758 83.3243 58.3943 83.173 58.5843C83.0216 58.7743 82.8337 58.932 82.6205 59.048C82.4072 59.1639 82.1728 59.2359 81.9313 59.2595C81.6897 59.2831 81.4459 59.2579 81.2142 59.1855C80.6839 59.0374 79.6468 58.9317 77.7274 59.2701C76.6102 59.4649 75.5865 60.0184 74.8108 60.8469C74.641 61.0259 74.4364 61.168 74.2096 61.2647C73.9828 61.3613 73.7386 61.4102 73.4921 61.4086V61.4086Z" fill="#495059"/>
<path d="M42.3222 42.4254C41.8962 42.4247 41.4841 42.2738 41.158 41.9993C40.8319 41.7247 40.6128 41.344 40.5389 40.9238L40.1072 38.4727C40.0631 38.2369 40.066 37.9947 40.1159 37.76C40.1658 37.5254 40.2616 37.3029 40.3978 37.1056C40.534 36.9082 40.7079 36.7398 40.9094 36.6101C41.111 36.4804 41.3362 36.392 41.572 36.3499C41.8079 36.3078 42.0497 36.313 42.2835 36.3651C42.5174 36.4171 42.7386 36.5151 42.9345 36.6532C43.1303 36.7914 43.2969 36.967 43.4246 37.17C43.5523 37.373 43.6386 37.5993 43.6784 37.8359L44.1102 40.2869C44.1561 40.5484 44.1443 40.8167 44.0756 41.0731C44.0069 41.3295 43.883 41.5677 43.7126 41.7711C43.5423 41.9744 43.3295 42.1379 43.0893 42.2502C42.8491 42.3624 42.5873 42.4206 42.3222 42.4207V42.4254Z" fill="#495059"/>
<path d="M71.803 37.2178C71.377 37.2171 70.9649 37.0662 70.6388 36.7916C70.3128 36.5171 70.0936 36.1363 70.0198 35.7161L69.588 33.2651C69.5046 32.7905 69.6129 32.3021 69.889 31.9075C70.1651 31.5128 70.5865 31.2442 71.0604 31.1607C71.5343 31.0772 72.0219 31.1856 72.4159 31.4622C72.81 31.7387 73.0782 32.1607 73.1616 32.6353L73.591 35.0863C73.6326 35.3211 73.6275 35.5617 73.5762 35.7944C73.5248 36.0272 73.4282 36.2475 73.2918 36.4428C73.1554 36.6381 72.9818 36.8046 72.7812 36.9328C72.5805 37.0609 72.3565 37.1482 72.1222 37.1896C72.0168 37.2082 71.91 37.2176 71.803 37.2178V37.2178Z" fill="#495059"/>
<path d="M36.7473 5.61272L33.216 8.71471C32.1687 9.635 30.8809 10.2367 29.5039 10.449L24.8627 11.154C23.0431 11.4339 21.3956 12.3902 20.2485 13.8321C19.1013 15.2741 18.5387 17.096 18.6728 18.9348L19.5011 30.5156L54.9955 13.9387L46.668 5.85947C45.3478 4.57766 43.5941 3.84058 41.7558 3.79486C39.9176 3.74914 38.1295 4.39813 36.7473 5.61272V5.61272Z" fill="#A38A80"/>
<path d="M27.2815 10.7921L24.8623 11.1634C23.0447 11.4438 21.399 12.3988 20.2522 13.8386C19.1053 15.2784 18.5414 17.0977 18.6724 18.9348L19.5007 30.5156L34.6892 23.421C28.3468 21.7407 26.9788 15.1842 27.2815 10.7921Z" fill="#917B71"/>
<path d="M19.0386 24.0343L19.5079 30.5156L54.9953 13.9387L50.3353 9.41736L19.0386 24.0343Z" fill="#FACE7C"/>
<path d="M29.1331 19.3203L19.0435 24.0344L19.5127 30.5157L34.7012 23.4211C32.3766 22.8457 30.3744 21.3711 29.1331 19.3203V19.3203Z" fill="#F0C16A"/>
<path d="M59.5193 19.5224L20.8642 37.575C20.4662 37.761 20.0356 37.8666 19.5968 37.8859C19.1581 37.9052 18.7199 37.8377 18.3072 37.6874C17.8945 37.537 17.5155 37.3067 17.1916 37.0096C16.8678 36.7125 16.6056 36.3545 16.42 35.9559L16.3027 35.7044C15.929 34.8997 15.8894 33.9793 16.1925 33.1453C16.4956 32.3113 17.1166 31.6318 17.9194 31.2559L56.5745 13.2009C56.9726 13.015 57.4034 12.9095 57.8422 12.8904C58.281 12.8713 58.7193 12.9389 59.132 13.0895C59.5447 13.2401 59.9238 13.4706 60.2475 13.768C60.5712 14.0653 60.8332 14.4236 61.0186 14.8224L61.136 15.0738C61.3216 15.4722 61.4271 15.9033 61.4463 16.3426C61.4655 16.7818 61.3981 17.2205 61.248 17.6336C61.0978 18.0467 60.8679 18.4262 60.5713 18.7502C60.2747 19.0743 59.9172 19.3367 59.5193 19.5224V19.5224Z" fill="#A38A80"/>
<path d="M35.053 23.2518L17.9193 31.2559C17.116 31.6318 16.4945 32.3118 16.1913 33.1463C15.8882 33.9809 15.9282 34.9018 16.3026 35.7068L16.4199 35.9582C16.6056 36.3568 16.8678 36.7149 17.1916 37.012C17.5154 37.3091 17.8944 37.5394 18.3071 37.6897C18.7198 37.8401 19.158 37.9076 19.5968 37.8883C20.0355 37.869 20.4661 37.7634 20.8641 37.5774L40.5366 28.3913C37.322 27.6557 35.7053 25.3292 35.053 23.2518Z" fill="#917B71"/>
<path d="M60.0002 31.5849C57.7718 32.5738 55.2999 32.8757 52.8995 32.4521C50.4991 32.0286 48.2791 30.8988 46.5223 29.2067C45.9404 28.6453 45.5369 27.9243 45.3625 27.1342C45.188 26.3441 45.2503 25.52 45.5415 24.7652L54.0942 2.60948C54.4343 1.7279 55.0694 0.991907 55.8911 0.527219C56.7128 0.062531 57.6701 -0.102024 58.5995 0.0616629C59.5289 0.225349 60.3727 0.707122 60.9868 1.42469C61.6009 2.14225 61.9472 3.0511 61.9665 3.99597L62.4358 27.745C62.453 28.5542 62.231 29.3505 61.7976 30.0337C61.3643 30.7169 60.7389 31.2566 60.0002 31.5849Z" fill="#00D6FF"/>
<mask id="mask0" mask-type="alpha" maskUnits="userSpaceOnUse" x="45" y="0" width="18" height="33">
<path d="M60.0002 31.5849C57.7718 32.5738 55.2999 32.8757 52.8995 32.4521C50.4991 32.0286 48.2791 30.8988 46.5223 29.2067C45.9404 28.6453 45.5369 27.9243 45.3625 27.1342C45.188 26.3441 45.2503 25.52 45.5415 24.7652L54.0942 2.60948C54.4343 1.7279 55.0694 0.991907 55.8911 0.527219C56.7128 0.062531 57.6701 -0.102024 58.5995 0.0616629C59.5289 0.225349 60.3727 0.707122 60.9868 1.42469C61.6009 2.14225 61.9472 3.0511 61.9665 3.99597L62.4358 27.745C62.453 28.5542 62.231 29.3505 61.7976 30.0337C61.3643 30.7169 60.7389 31.2566 60.0002 31.5849Z" fill="#00D6FF"/>
</mask>
<g mask="url(#mask0)">
<path d="M59.9202 -1.96828C56.8699 -2.36543 53.8547 -1.11524 52.7331 1.01151L46.9351 12.0306C51.7804 11.8356 57.9961 10.7898 65.4202 7.63143L65.2935 2.63535C65.2208 0.355859 62.9753 -1.57113 59.9202 -1.96828Z" fill="#FF6862"/>
<path d="M45.9404 12.6604L52.2148 0.736541C53.442 -1.5923 56.7153 -2.97645 59.9956 -2.55345C63.3299 -2.12105 65.8007 0.0550435 65.8617 2.61653L66.0095 8.02152L65.6411 8.17662C59.2799 10.8815 52.9915 12.3784 46.9494 12.6228L45.9404 12.6604ZM58.7848 -1.45365C56.3609 -1.45365 54.1342 -0.386755 53.2543 1.28409L47.9302 11.3914C53.3997 11.0389 59.0734 9.64771 64.8245 7.24602L64.7002 2.65178C64.6462 0.670741 62.6048 -1.0283 59.8477 -1.3855C59.4953 -1.43148 59.1402 -1.45424 58.7848 -1.45365V-1.45365Z" fill="white"/>
<path d="M64.1582 28.671L63.9634 19.8796C54.6926 25.5807 47.5173 26.1941 42.8901 25.8674C42.6731 26.6635 42.6906 27.5054 42.9403 28.2917C43.1901 29.0781 43.6616 29.7753 44.298 30.2995C48.7796 34.1699 55.4271 35.2227 61.1148 32.9597C63.0014 32.2195 64.2004 30.5275 64.1582 28.671Z" fill="#0083D7"/>
<path d="M54.899 34.7409C50.8789 34.7657 46.9827 33.3486 43.9154 30.7459C43.1952 30.1482 42.6622 29.3554 42.3801 28.4623C42.098 27.5692 42.0787 26.6137 42.3245 25.7099L42.4535 25.2399L42.9228 25.2728C49.5445 25.7428 56.518 23.757 63.6489 19.3719L64.5194 18.8385L64.7376 28.6497C64.7845 30.753 63.4447 32.6564 61.3259 33.5001C59.2809 34.3159 57.1003 34.7369 54.899 34.7409ZM43.3569 26.4924C43.2753 27.1202 43.3542 27.7585 43.586 28.3475C43.8179 28.9364 44.1952 29.4568 44.6826 29.86C49.0235 33.6082 55.3894 34.614 60.9012 32.4215C62.5601 31.7611 63.609 30.3065 63.5714 28.6897L63.4001 20.9159C56.5368 24.9555 49.8073 26.8332 43.3569 26.4924V26.4924Z" fill="white"/>
</g>
<path d="M33.0655 29.8459C36.4631 33.902 35.0271 36.7784 32.2419 39.1167C29.4567 41.4549 26.3758 42.3737 22.9829 38.3177C19.59 34.2616 17.3796 27.0377 20.1672 24.6877C22.9547 22.3377 29.6679 25.7993 33.0655 29.8459Z" fill="#F0E4C0"/>
<path d="M37.8198 88.403C36.6118 88.4089 35.4488 87.9441 34.5765 87.107C33.7043 86.27 33.1911 85.1261 33.1454 83.917C33.0997 82.708 33.5251 81.5285 34.3317 80.6278C35.1382 79.7271 36.2628 79.1757 37.4679 79.09C46.2834 78.4109 48.4961 74.3642 49.3924 71.3773C49.5649 70.7869 49.8523 70.2365 50.2381 69.7578C50.6239 69.2791 51.1004 68.8816 51.6403 68.5882C52.1802 68.2948 52.7727 68.1113 53.3837 68.0483C53.9947 67.9853 54.6122 68.044 55.2004 68.2211C55.7887 68.3981 56.3361 68.69 56.8112 69.0799C57.2863 69.4698 57.6797 69.9501 57.9686 70.4929C58.2576 71.0358 58.4364 71.6305 58.4948 72.2429C58.5532 72.8553 58.49 73.4732 58.3089 74.061C56.5186 80.0277 51.5723 87.3573 38.1812 88.396C38.0592 88.3983 37.9395 88.403 37.8198 88.403Z" fill="#F5EBCD"/>
<path d="M118.323 56.6639C117.053 56.5445 115.774 56.7674 114.619 57.3095C113.464 57.8516 112.474 58.6932 111.753 59.7471C111.442 60.2116 111.014 60.5862 110.513 60.8336C110.012 61.081 109.455 61.1926 108.898 61.1571C108.532 61.1301 108.165 61.1301 107.799 61.1571C106.597 61.2557 105.439 61.6569 104.432 62.3235C103.426 62.9901 102.604 63.9004 102.043 64.9701C101.481 66.0398 101.199 67.2341 101.221 68.4423C101.244 69.6505 101.571 70.8334 102.172 71.8813C102.773 72.9291 103.629 73.808 104.659 74.4363C105.69 75.0646 106.862 75.4219 108.068 75.4753C109.273 75.5286 110.472 75.2761 111.554 74.7413C112.636 74.2065 113.566 73.4066 114.257 72.4159C114.597 71.9377 115.053 71.5542 115.582 71.3013C116.112 71.0485 116.696 70.9347 117.281 70.9707C117.403 70.9707 117.516 70.9707 117.65 70.9707C119.474 70.9459 121.221 70.2247 122.532 68.9543C123.844 67.6839 124.622 65.9601 124.708 64.1347C124.794 62.3092 124.181 60.5197 122.995 59.1314C121.808 57.7431 120.137 56.8605 118.323 56.6639V56.6639Z" fill="#AFDAEE"/>
<path d="M116.068 44.2677C116.068 45.373 115.741 46.4534 115.128 47.3724C114.515 48.2914 113.643 49.0077 112.624 49.4306C111.604 49.8536 110.482 49.9643 109.4 49.7486C108.318 49.533 107.323 49.0008 106.543 48.2192C105.763 47.4377 105.231 46.442 105.016 45.3579C104.801 44.2739 104.911 43.1503 105.333 42.1292C105.756 41.1081 106.471 40.2353 107.389 39.6212C108.306 39.0072 109.385 38.6794 110.489 38.6794C111.968 38.6794 113.388 39.2682 114.434 40.3162C115.48 41.3642 116.068 42.7856 116.068 44.2677V44.2677Z" fill="#AFDAEE"/>
<path d="M97.8837 72.1458L97.1164 73.6357C96.7073 74.4298 96.0232 75.0474 95.1922 75.3727C94.3612 75.698 93.4402 75.7087 92.6019 75.4029L86.6466 73.2456C85.4231 72.8009 84.0734 72.8612 82.8943 73.4132C81.7152 73.9651 80.8034 74.9636 80.3593 76.189C79.9153 77.4143 79.9755 78.7661 80.5267 79.9469C81.0778 81.1278 82.0748 82.0411 83.2983 82.4858L97.0014 87.4795C98.4048 87.9906 99.895 88.2198 101.387 88.1539C102.879 88.088 104.343 87.7283 105.696 87.0954C107.049 86.4625 108.264 85.5688 109.272 84.4654C110.28 83.3619 111.061 82.0704 111.57 80.6645L112.57 77.9127C112.708 77.5351 112.77 77.1341 112.753 76.7324C112.736 76.3308 112.64 75.9365 112.47 75.5721C112.301 75.2077 112.061 74.8805 111.765 74.6091C111.469 74.3377 111.122 74.1275 110.744 73.9905L101.645 70.6747C100.947 70.4186 100.179 70.4268 99.4865 70.6977C98.7939 70.9686 98.2239 71.4836 97.8837 72.1458V72.1458Z" fill="#A38A80"/>
<path d="M99.552 88.081C96.084 85.1647 94.7395 79.8749 94.472 75.5791C93.8425 75.6897 93.195 75.6322 92.5948 75.4122L86.6466 73.2455C85.4232 72.8008 84.0734 72.8611 82.8943 73.4131C81.7152 73.9651 80.8034 74.9636 80.3593 76.1889C79.9153 77.4142 79.9755 78.766 80.5267 79.9469C81.0778 81.1278 82.0748 82.041 83.2983 82.4857L97.0014 87.4794C97.8255 87.7782 98.6814 87.9801 99.552 88.081V88.081Z" fill="#917B71"/>
<path d="M91.5108 75.0151L86.6466 73.2455C85.4231 72.8008 84.0734 72.8611 82.8943 73.4131C81.7152 73.9651 80.8034 74.9636 80.3593 76.1889C79.9153 77.4142 79.9755 78.766 80.5267 79.9469C81.0778 81.1278 82.0748 82.041 83.2983 82.4857L88.1554 84.2552L91.5108 75.0151Z" fill="#FACE7C"/>
<path d="M39.0422 36.9358C38.5738 36.9315 38.1253 36.7459 37.7905 36.4178C37.4557 36.0898 37.2605 35.6447 37.246 35.1758C37.2314 34.7069 37.3986 34.2506 37.7124 33.9023C38.0262 33.5541 38.4624 33.3409 38.9296 33.3074L43.6225 33.0137C43.8602 32.9983 44.0986 33.0299 44.3242 33.1067C44.5497 33.1836 44.7579 33.3042 44.9369 33.4616C45.1159 33.6191 45.2622 33.8103 45.3674 34.0243C45.4726 34.2384 45.5347 34.4711 45.5501 34.7092C45.5655 34.9473 45.5339 35.1861 45.4572 35.412C45.3804 35.6378 45.26 35.8464 45.1028 36.0256C44.9456 36.2049 44.7547 36.3514 44.5409 36.4568C44.3272 36.5621 44.0948 36.6243 43.8571 36.6397L39.176 36.9335L39.0422 36.9358Z" fill="#495059"/>
<path d="M68.5248 31.9044C68.0877 31.9057 67.6649 31.749 67.3341 31.463C67.0033 31.177 66.7868 30.781 66.7242 30.3478C66.6617 29.9146 66.7574 29.4734 66.9938 29.1053C67.2302 28.7372 67.5914 28.4669 68.0109 28.3442L72.5114 27.0259C72.9728 26.8897 73.4694 26.9427 73.8918 27.1732C74.3142 27.4036 74.628 27.7928 74.7639 28.2549C74.8999 28.7171 74.847 29.2144 74.6169 29.6374C74.3867 30.0605 73.9982 30.3747 73.5367 30.5109L69.048 31.8292C68.8784 31.8805 68.702 31.9058 68.5248 31.9044V31.9044Z" fill="#495059"/>
<path d="M54.1318 70.1976C53.7726 70.843 53.1757 71.3222 52.4686 71.5329C51.7615 71.7437 51.0001 71.6692 50.347 71.3256V71.3256C50.007 71.1405 49.7073 70.8893 49.4655 70.5866C49.2237 70.284 49.0448 69.936 48.9392 69.5631L45.7152 56.7251C45.6833 56.6254 45.6719 56.5204 45.6816 56.4162C45.6913 56.312 45.722 56.2109 45.7717 56.1189C45.8215 56.0269 45.8893 55.946 45.9711 55.8809C46.053 55.8159 46.1471 55.7681 46.2478 55.7404L49.0635 54.9038C49.1629 54.8715 49.2677 54.8597 49.3717 54.8691C49.4757 54.8785 49.5767 54.909 49.6686 54.9586C49.7605 55.0083 49.8414 55.0761 49.9064 55.158C49.9714 55.2398 50.0191 55.334 50.0467 55.4349L54.3125 68.0215C54.4345 68.377 54.4814 68.7539 54.4503 69.1285C54.4192 69.5031 54.3108 69.8671 54.1318 70.1976Z" fill="#9C6330"/>
<path d="M47.7613 51.7734L45.6201 52.411L46.5751 55.6276L48.7163 54.99L47.7613 51.7734Z" fill="#B4C2D5"/>
<path d="M47.4939 54.7793L47.6558 55.3221L48.7375 55.0002L47.7708 51.7501L45.6074 52.4058L46.0908 54.0296C46.2317 53.9781 46.382 53.9568 46.5317 53.9673C46.6813 53.9778 46.8271 54.0198 46.9595 54.0906C47.0919 54.1613 47.208 54.2592 47.3 54.3779C47.3921 54.4965 47.4582 54.6333 47.4939 54.7793V54.7793Z" fill="#9FB2CA"/>
<path d="M49.1716 30.6942C47.0903 29.5665 44.7218 29.0821 42.3657 29.3023C40.0095 29.5226 37.7714 30.4374 35.9343 31.9313C34.0973 33.4252 32.7437 35.4311 32.0447 37.6953C31.3457 39.9596 31.3327 42.3805 32.0073 44.6522C32.682 46.9238 34.0139 48.9441 35.8348 50.4577C37.6557 51.9714 39.8839 52.9103 42.2375 53.1559C44.5912 53.4015 46.9647 52.9427 49.058 51.8375C51.1514 50.7323 52.8706 49.0303 53.9982 46.9467C54.7491 45.5627 55.2198 44.0438 55.3836 42.4773C55.5473 40.9107 55.4008 39.3271 54.9524 37.8173C54.5041 36.3076 53.7627 34.9012 52.7707 33.6789C51.7787 32.4566 50.5557 31.4423 49.1716 30.6942V30.6942ZM38.9107 49.6704C37.2456 48.7668 35.8855 47.389 35.0022 45.7113C34.119 44.0335 33.7523 42.1312 33.9485 40.2447C34.1447 38.3583 34.895 36.5725 36.1046 35.1131C37.3141 33.6537 38.9286 32.5863 40.7439 32.0457C42.5591 31.5052 44.4936 31.5159 46.3028 32.0765C48.112 32.637 49.7146 33.7222 50.908 35.1949C52.1014 36.6676 52.832 38.4616 53.0074 40.3501C53.1828 42.2386 52.7952 44.1368 51.8935 45.8046C50.6786 48.0362 48.631 49.6955 46.1984 50.4199C43.7657 51.1442 41.1456 50.8748 38.9107 49.6704V49.6704Z" fill="#C7D5E3"/>
<g opacity="0.5">
<path opacity="0.5" d="M43.4723 50.8289C48.7608 50.8289 53.0481 46.5352 53.0481 41.2386C53.0481 35.942 48.7608 31.6483 43.4723 31.6483C38.1837 31.6483 33.8965 35.942 33.8965 41.2386C33.8965 46.5352 38.1837 50.8289 43.4723 50.8289Z" fill="#87B5E2"/>
</g>
<g opacity="0.5">
<path opacity="0.5" d="M38.8189 39.9509C39.6937 38.744 40.9414 37.8596 42.3688 37.4348C43.7963 37.0099 45.3237 37.0683 46.7147 37.6009L46.7851 37.6385C48.0545 38.1438 49.0353 36.4964 48.0287 35.6763C47.4034 35.1705 46.7058 34.7617 45.9591 34.4637C42.9956 33.4015 39.6425 34.4002 37.8475 36.8818C37.3503 37.5176 36.9864 38.2473 36.7775 39.0273C36.3411 40.3363 38.1009 41.1094 38.8893 39.9908C38.779 40.012 38.8189 39.9509 38.8189 39.9509Z" fill="#A0C3E8"/>
</g>
<path d="M35.3722 37.7536C36.5872 35.5227 38.6341 33.8638 41.0661 33.1391C43.4981 32.4143 46.1176 32.6827 48.3527 33.8855C50.5302 35.0605 51.9686 36.9405 52.8274 39.0391C52.5207 37.7161 51.9337 36.4745 51.1063 35.3985C50.2788 34.3224 49.2301 33.437 48.0312 32.8022C45.7974 31.598 43.1786 31.3279 40.7465 32.0508C38.3145 32.7738 36.2669 34.4311 35.0508 36.6609C34.4104 37.8545 34.0252 39.1687 33.9198 40.5196C33.8143 41.8706 33.9909 43.2287 34.4384 44.5075C34.0113 42.2868 34.1943 39.9321 35.3722 37.7536Z" fill="#6A9AD2"/>
<path d="M37.7729 51.7807C39.1552 52.5308 40.6714 53.0007 42.235 53.1637C43.7986 53.3267 45.3789 53.1795 46.8858 52.7306C48.3926 52.2817 49.7963 51.5398 51.0167 50.5474C52.2371 49.555 53.2504 48.3315 53.9985 46.9468C53.9064 46.8968 53.8053 46.8654 53.7011 46.8545C53.5969 46.8436 53.4915 46.8534 53.3911 46.8833C53.2906 46.9132 53.1971 46.9626 53.1157 47.0288C53.0343 47.0949 52.9667 47.1764 52.9168 47.2687C51.5046 49.5283 49.3126 51.1892 46.7574 51.9358C44.1506 52.7468 41.3381 52.5798 38.8453 51.4658C38.6608 51.3678 38.4455 51.3459 38.2451 51.4047C38.0448 51.4636 37.8753 51.5985 37.7729 51.7807V51.7807Z" fill="#B5C7D8"/>
<path d="M49.1714 30.6942C47.7892 29.9441 46.2729 29.4742 44.7093 29.3112C43.1457 29.1482 41.5654 29.2954 40.0586 29.7443C38.5518 30.1932 37.1481 30.9351 35.9276 31.9275C34.7072 32.9199 33.6939 34.1434 32.9458 35.5281V35.5281C33.132 35.6285 33.3503 35.651 33.553 35.5906C33.7557 35.5303 33.9263 35.3921 34.0275 35.2062C35.3719 33.0443 37.4352 31.4272 39.8537 30.6401C42.554 29.7634 45.4802 29.897 48.0897 31.0161C48.1818 31.0661 48.2829 31.0975 48.3871 31.1084C48.4913 31.1193 48.5967 31.1095 48.6971 31.0796C48.7976 31.0497 48.8912 31.0003 48.9725 30.9341C49.0539 30.868 49.1215 30.7865 49.1714 30.6942V30.6942Z" fill="#E2E5EE"/>
<path d="M54.2799 67.9157L54.0452 67.3353C54.17 67.9658 54.073 68.6201 53.7707 69.1871V69.1871C53.2779 70.0989 51.9639 69.8427 51.6753 68.8675L48.2965 57.4912C48.2555 57.3397 48.1842 57.1981 48.087 57.0751C47.9897 56.952 47.8685 56.8501 47.7307 56.7754C47.5929 56.7006 47.4414 56.6547 47.2853 56.6404C47.1293 56.6261 46.972 56.6437 46.8229 56.6922L45.7412 57.0141L48.9441 69.3868C49.1211 70.0495 49.5061 70.6377 50.0422 71.0647C50.3883 71.3112 50.7858 71.4755 51.2047 71.5452C51.6236 71.6149 52.0529 71.5881 52.4599 71.467C52.867 71.3458 53.2411 71.1334 53.554 70.8459C53.8669 70.5583 54.1103 70.2032 54.2658 69.8075C54.5567 69.2458 54.4723 68.562 54.2799 67.9157Z" fill="#90552C"/>
<path d="M49.6739 59.1432C49.6035 59.1056 49.4627 59.0281 49.4393 58.92L48.6344 56.2128C48.6033 56.1121 48.6134 56.0032 48.6625 55.91C48.7115 55.8168 48.7956 55.7469 48.8961 55.7158C48.9966 55.6846 49.1053 55.6947 49.1984 55.7438C49.2915 55.793 49.3612 55.8771 49.3923 55.9778L50.1972 58.685C50.2133 58.735 50.2191 58.7877 50.2142 58.84C50.2094 58.8922 50.194 58.943 50.169 58.9891C50.144 59.0353 50.1099 59.0759 50.0687 59.1084C50.0276 59.141 49.9803 59.1648 49.9297 59.1785C49.8827 59.256 49.742 59.1808 49.6739 59.1432Z" fill="#B47533"/>
<path d="M55.1904 68.2542C54.605 68.0777 53.9905 68.0185 53.3822 68.0799C52.7739 68.1414 52.1836 68.3223 51.6451 68.6123C51.1066 68.9024 50.6305 69.2959 50.244 69.7703C49.8575 70.2448 49.5681 70.7908 49.3924 71.3773C49.1205 72.3189 48.721 73.2187 48.2051 74.0516L56.732 77.8939C57.3845 76.6724 57.9127 75.3883 58.3088 74.061C58.6641 72.8768 58.5352 71.5998 57.9504 70.5108C57.3656 69.4218 56.3728 68.6101 55.1904 68.2542V68.2542Z" fill="#495059"/>
</svg>
