<?xml version="1.0" encoding="UTF-8"?>
<svg width="546px" height="676px" viewBox="0 0 546 676" version="1.1" xmlns="http://www.w3.org/2000/svg" xmlns:xlink="http://www.w3.org/1999/xlink">
    <!-- Generator: Sketch 51.3 (57544) - http://www.bohemiancoding.com/sketch -->
    <title>BG Blob</title>
    <desc>Created with Sketch.</desc>
    <defs>
        <rect id="path-1" x="0" y="0" width="546" height="688"></rect>
    </defs>
    <g id="Symbols" stroke="none" stroke-width="1" fill="none" fill-rule="evenodd">
        <g id="CMS-Header/Desktop" transform="translate(-894.000000, 0.000000)">
            <g id="Background">
                <g>
                    <g id="BG-Blob" transform="translate(894.000000, 0.000000)">
                        <g id="Group-12">
                            <mask id="mask-2" fill="white">
                                <use xlink:href="#path-1"></use>
                            </mask>
                            <g id="Rectangle-9" fill-rule="nonzero"></g>
                            <path d="M111.475401,266.085403 C119.110302,249.793548 122.345653,235.08131 122.197242,221.406727 C122.05213,207.735449 118.56613,195.164615 112.906739,183.37037 C90.2625801,136.193389 32.8177854,101.461668 10.6353483,50.8743033 C-22.6350093,-25.006743 28.8370834,-104.189121 89.3325404,-153.332359 C161.36115,-213.985644 240.081428,-256.370902 311.701083,-310.236465 C322.066739,-318.022187 332.37303,-326.138372 342.857415,-334.935313 C447.391242,-439.913677 598.57217,-491.05622 744.515852,-446.681571 C883.302845,-402.306922 968.671918,-286.254723 1022.51528,-157.390452 C1028.50447,-143.06816 1034.1012,-128.583942 1039.37802,-113.984061 C1060.96682,-13.248849 1147.90575,95.6818596 1152.26902,200.775886 C1152.27561,200.927899 1152.28221,201.076608 1152.28881,201.228621 C1153.20565,224.579177 1147.70127,247.74137 1137.5236,268.768767 C1084.94997,377.369012 1007.98753,520.241634 912.440792,613.911535 C901.049454,625.077899 889.394275,635.546985 877.48515,645.173389 C758.400487,740.366727 599.399971,707.624396 474.091958,645.322098 C460.141362,638.352621 446.603017,631.019634 433.46703,623.270264 C392.353997,598.967972 354.598342,643.725959 318.946819,635.933628 C235.767626,617.748217 230.688686,498.14023 151.394554,462.093264 C83.9897589,428.647045 72.1597854,354.335701 101.050381,297.148979 C104.084554,287.294555 107.629918,276.898171 111.475401,266.085403" id="Fill-2" fill="#E6F5F8" mask="url(#mask-2)"></path>
                        </g>
                    </g>
                </g>
            </g>
        </g>
    </g>
</svg>