<?xml version="1.0" encoding="UTF-8"?>
<svg width="40px" height="40px" viewBox="0 0 40 40" version="1.1" xmlns="http://www.w3.org/2000/svg" xmlns:xlink="http://www.w3.org/1999/xlink">
    <title>969DE637-CA4B-40AA-8482-B97F87A76D79</title>
    <g id="Page-1" stroke="none" stroke-width="1" fill="none" fill-rule="evenodd">
        <g id="Cards---Topic-Card---Design-Specs" transform="translate(-62.000000, -2212.000000)">
            <g id="Icon_Application_Integration" transform="translate(62.000000, 2212.000000)">
                <rect id="Rectangle" x="0" y="0" width="40" height="40"></rect>
                <path d="M32.6703448,5 L7.12275862,5 C5.95039141,5 5,5.95039141 5,7.12275862 L5,32.6703448 C5,33.842712 5.95039141,34.7931034 7.12275862,34.7931034 L32.6703448,34.7931034 C33.842712,34.7931034 34.7931034,33.842712 34.7931034,32.6703448 L34.7931034,7.12275862 C34.7931034,5.95039141 33.842712,5 32.6703448,5 L32.6703448,5 Z M33.5517241,7.12275862 L33.5517241,19.2758621 L30.1317241,19.2758621 C30.7675315,17.8619482 30.3608362,16.1967994 29.1448276,15.2351724 C28.319328,14.5964289 27.2480384,14.3680089 26.2337931,14.6144828 C25.0218353,14.9034301 24.0674828,15.8363097 23.7510345,17.0413793 C23.5554378,17.7938373 23.6210893,18.5904087 23.9372414,19.3006897 L20.5172414,19.3006897 L20.5172414,14.3103448 C20.5162393,14.0576681 20.3621645,13.8308194 20.1276523,13.7367418 C19.8931401,13.6426643 19.6250056,13.7001383 19.4496552,13.882069 C18.9092195,14.4664782 18.0905181,14.7051667 17.3206897,14.5027586 C16.5645811,14.3087124 15.9787333,13.7109085 15.8,12.9510345 C15.5644579,12.0026873 15.9968683,11.0146028 16.8533177,10.5441383 C17.7097671,10.0736737 18.7756214,10.2387318 19.4496552,10.9462069 C19.6303409,11.1349443 19.909876,11.1903186 20.1488686,11.0847173 C20.3878613,10.9791159 20.5351312,10.7351532 20.5172414,10.4744828 L20.5172414,6.24137931 L32.6703448,6.24137931 C33.1557092,6.24476176 33.5483417,6.63739423 33.5517241,7.12275862 Z M7.12275862,6.24137931 L19.2758621,6.24137931 L19.2758621,9.28275862 C17.8611135,8.65619038 16.2017992,9.06146068 15.2351724,10.2696552 C14.5970613,11.0978456 14.3688018,12.1706653 14.6144828,13.1868966 C14.9011191,14.3979294 15.831783,15.3524565 17.0351724,15.6696552 C17.7818734,15.8599404 18.5708133,15.7943776 19.2758621,15.4834483 L19.2758621,19.2758621 L14.6703448,19.2758621 C14.4159838,19.2756158 14.1872169,19.4305869 14.0931034,19.6668966 C14.0005833,19.9017255 14.0594756,20.1691948 14.242069,20.3434483 C14.949544,21.017482 15.1146021,22.0833364 14.6441376,22.9397858 C14.173673,23.7962352 13.1855886,24.2286455 12.2372414,23.9931034 C11.4770587,23.8126128 10.878137,23.2280079 10.6793103,22.4724138 C10.4825348,21.7026698 10.7203861,20.8868397 11.3,20.3434483 C11.4825933,20.1691948 11.5414857,19.9017255 11.4489655,19.6668966 C11.354852,19.4305869 11.1260851,19.2756158 10.8717241,19.2758621 L6.24137931,19.2758621 L6.24137931,7.12275862 C6.24476176,6.63739423 6.63739423,6.24476176 7.12275862,6.24137931 Z M6.24137931,32.6703448 L6.24137931,20.5172414 L9.66137931,20.5172414 C9.34476135,21.2295922 9.27911657,22.0282703 9.47517241,22.7827586 C9.79360031,23.9854308 10.747584,24.9155649 11.957931,25.2034483 C12.2190747,25.2596021 12.4853058,25.2887212 12.7524138,25.2903448 C13.9041845,25.297034 14.9802144,24.7172212 15.608059,23.7515962 C16.2359037,22.7859711 16.3292778,21.5672405 15.8558621,20.5172414 L19.2758621,20.5172414 L19.2758621,24.7503448 C19.2768642,25.0030216 19.430939,25.2298703 19.6654512,25.3239478 C19.8999633,25.4180254 20.1680978,25.3605514 20.3434483,25.1786207 C21.017482,24.4711456 22.0833364,24.3060875 22.9397858,24.7765521 C23.7962352,25.2470166 24.2286455,26.2351011 23.9931034,27.1834483 C23.8143702,27.9433223 23.2285223,28.5411262 22.4724138,28.7351724 C21.7025853,28.9375805 20.883884,28.698892 20.3434483,28.1144828 C20.1627626,27.9257454 19.8832274,27.870371 19.6442348,27.9759724 C19.4052422,28.0815738 19.2579722,28.3255365 19.2758621,28.5862069 L19.2758621,33.5517241 L7.12275862,33.5517241 C6.63739423,33.5483417 6.24476176,33.1557092 6.24137931,32.6703448 Z M32.6703448,33.5517241 L20.5172414,33.5517241 L20.5172414,29.7593103 C21.2303093,30.07386 22.0289672,30.137315 22.7827586,29.9393103 C23.986148,29.6221117 24.9168119,28.6675846 25.2034483,27.4565517 C25.4491292,26.4403204 25.2208697,25.3675008 24.5827586,24.5393103 C23.6111162,23.3214691 21.9372573,22.9176986 20.5172414,23.5586207 L20.5172414,20.5172414 L25.1227586,20.5172414 C25.3771196,20.5174876 25.6058865,20.3625165 25.7,20.1262069 C25.7925201,19.891378 25.7336278,19.6239086 25.5510345,19.4496552 C24.9714206,18.9062637 24.7335693,18.0904337 24.9303448,17.3206897 C25.1291715,16.5650955 25.7280932,15.9804906 26.4882759,15.8 C27.436623,15.5644579 28.4247075,15.9968683 28.8951721,16.8533177 C29.3656366,17.7097671 29.2005785,18.7756214 28.4931034,19.4496552 C28.3105101,19.6239086 28.2516178,19.891378 28.3441379,20.1262069 C28.4382514,20.3625165 28.6670183,20.5174876 28.9213793,20.5172414 L33.5517241,20.5172414 L33.5517241,32.6703448 C33.5483417,33.1557092 33.1557092,33.5483417 32.6703448,33.5517241 Z" id="Shape" fill="#232F3E" fill-rule="nonzero"></path>
            </g>
        </g>
    </g>
</svg>