<?xml version="1.0" encoding="UTF-8"?>
<svg width="40px" height="40px" viewBox="0 0 40 40" version="1.1" xmlns="http://www.w3.org/2000/svg" xmlns:xlink="http://www.w3.org/1999/xlink">
    <title>CD78D6D2-C153-4FC9-B43A-0C4C67C8DAF9</title>
    <g id="Page-1" stroke="none" stroke-width="1" fill="none" fill-rule="evenodd">
        <g id="Cards---Topic-Card---Design-Specs" transform="translate(-499.000000, -2155.000000)">
            <g id="Icon_Management_Governance" transform="translate(499.000000, 2155.000000)">
                <rect id="Rectangle" x="0" y="0" width="40" height="40"></rect>
                <path d="M32.87,6.8 L27.8,6.8 L27.8,5.6 C27.8,5.26862915 27.5313708,5 27.2,5 L19.4,5 C19.0686292,5 18.8,5.26862915 18.8,5.6 L18.8,6.8 L13.784,6.8 C12.5900545,6.79000483 11.6131879,7.74808546 11.6,8.942 L11.6,13.4 L5.6,13.4 C5.26862915,13.4 5,13.6686292 5,14 L5,29.6 C5,29.9313708 5.26862915,30.2 5.6,30.2 L11.6,30.2 L11.6,32.864 C11.6032757,34.0399823 12.5540315,34.9934164 13.73,35 L32.87,35 C34.0459685,34.9934164 34.9967243,34.0399823 35.0000339,32.864 L35.0000339,8.948 C35.0031916,8.38149489 34.7812045,7.83692547 34.3828753,7.43409538 C33.9845461,7.03126529 33.4425052,6.80317367 32.876,6.8 L32.87,6.8 Z M20,6.2 L26.6,6.2 L26.6,9.2 L20,9.2 L20,6.2 Z M6.2,29 L6.2,14.6 L27.2,14.6 L27.2,29 L6.2,29 Z M33.8,32.858 C33.8,33.3736017 33.3855599,33.7934318 32.87,33.8 L13.73,33.8 C13.2167681,33.7934716 12.8032277,33.3772632 12.8,32.864 L12.8,30.2 L27.8,30.2 C28.1313708,30.2 28.4,29.9313708 28.4,29.6 L28.4,14 C28.4,13.6686292 28.1313708,13.4 27.8,13.4 L12.8,13.4 L12.8,8.942 C12.8047139,8.68631464 12.9112483,8.44307748 13.0959752,8.26623523 C13.2807021,8.08939298 13.5283522,7.99356333 13.784,8 L18.8,8 L18.8,9.8 C18.8,10.1313708 19.0686292,10.4 19.4,10.4 L27.2,10.4 C27.5313708,10.4 27.8,10.1313708 27.8,9.8 L27.8,8 L32.87,8 C33.3865232,8.00980916 33.8,8.43138369 33.8,8.948 L33.8,32.858 Z M24.8,23.6 L24.8,24.8 L21.2,24.8 L21.2,26.6 L20,26.6 L20,24.8 L8.6,24.8 L8.6,23.6 L20,23.6 L20,21.8 L21.2,21.8 L21.2,23.6 L24.8,23.6 Z M24.8,18.8 L24.8,20 L12.8,20 L12.8,21.8 L11.6,21.8 L11.6,20 L8.6,20 L8.6,18.8 L11.6,18.8 L11.6,17 L12.8,17 L12.8,18.8 L24.8,18.8 Z" id="Shape" fill="#232F3E" fill-rule="nonzero"></path>
            </g>
        </g>
    </g>
</svg>