<?xml version="1.0" encoding="UTF-8"?>
<svg version="1.1" viewBox="0 0 27 27" xmlns="http://www.w3.org/2000/svg">
<title>OperationsHub Icon logo</title>
<g fill="none" fill-rule="evenodd">
<g transform="translate(.92 .20157)" fill-rule="nonzero">
<path d="m24.99 10.798c-0.55585-5.8325-5.2647-10.398-11.112-10.774-5.8469-0.37553-11.101 3.5502-12.398 9.2636-0.022286 0.13062 0.028981 0.26292 0.13346 0.34441 0.10448 0.081494 0.24528 0.099007 0.36654 0.04559l3.81-1.74c0.20892-0.099082 0.38568-0.25505 0.51-0.45 1.801-2.7796 5.1097-4.1868 8.3612-3.5559 3.2514 0.63086 5.7939 3.1733 6.4247 6.4247 0.63086 3.2514-0.77631 6.5602-3.5559 8.3612-0.1926 0.12705-0.34792 0.30308-0.45 0.51l-1.73 3.82c-0.055943 0.12026-0.039102 0.26181 0.043495 0.36559 0.082598 0.10378 0.21676 0.15195 0.3465 0.12441 5.8482-1.3166 9.8088-6.7716 9.25-12.74z" fill="#33475B"/>
<path d="m10.75 11.658c-0.24602 0.24756-0.61726 0.32189-0.93963 0.18812-0.32236-0.13377-0.53191-0.4491-0.53037-0.79812 0-0.47496-0.38504-0.86006-0.86-0.86006h-2c-0.22891-0.0026496-0.44923 0.087087-0.6111 0.24896-0.16187 0.16187-0.25161 0.38219-0.2489 0.6111 0.0015384 0.34901-0.20801 0.66435-0.53037 0.79812s-0.69361 0.059446-0.93963-0.18812c-0.16143-0.16244-0.38099-0.25378-0.61-0.25378s-0.44857 0.091343-0.61 0.25378l-1.4 1.4c-0.33172 0.33513-0.33172 0.87487 0 1.21 0.24756 0.24602 0.32189 0.61726 0.18812 0.93963-0.13377 0.32236-0.4491 0.53191-0.79812 0.53037-0.47271 0.0054029-0.8546 0.38729-0.86 0.86v2c0 0.47496 0.38504 0.86 0.86 0.86 0.34901-0.0015383 0.66435 0.20801 0.79812 0.53037 0.13377 0.32236 0.059446 0.69361-0.18812 0.93963-0.32764 0.34067-0.32764 0.87933 0 1.22l1.4 1.4c0.16143 0.16244 0.38099 0.25378 0.61 0.25378s0.44857-0.091343 0.61-0.25378c0.24602-0.24756 0.61726-0.32189 0.93963-0.18812s0.53191 0.4491 0.53037 0.79812c0 0.47496 0.38504 0.86 0.86 0.86h2c0.47271-0.0054029 0.8546-0.38729 0.86-0.86-0.0015384-0.34901 0.20801-0.66435 0.53037-0.79812 0.32236-0.13377 0.69361-0.059446 0.93963 0.18812 0.16143 0.16244 0.38099 0.25378 0.61 0.25378s0.44857-0.091343 0.61-0.25378l1.4-1.4c0.3329-0.33854 0.3329-0.88146 0-1.22-0.24756-0.24602-0.32189-0.61726-0.18812-0.93963 0.13377-0.32236 0.4491-0.53191 0.79812-0.53037 0.22891 0.0027093 0.44923-0.087027 0.6111-0.2489s0.25161-0.38219 0.24896-0.6111v-2c0-0.47496-0.38509-0.86-0.86006-0.86-0.34901 0.0015384-0.66435-0.20801-0.79812-0.53037-0.13377-0.32236-0.059446-0.69361 0.18812-0.93963 0.16184-0.15972 0.25294-0.37762 0.25294-0.605 0-0.22738-0.091103-0.44528-0.25294-0.605l-1.39-1.4c-0.16181-0.16554-0.38352-0.25886-0.615-0.25886s-0.45319 0.093318-0.615 0.25886zm-1.75 7.51c-0.63736 0.63886-1.5969 0.83061-2.4309 0.48575-0.83394-0.34486-1.3778-1.1583-1.3778-2.0608 0-0.90243 0.54389-1.7159 1.3778-2.0608s1.7935-0.15311 2.4309 0.48575c0.86841 0.87044 0.86841 2.2796 0 3.15z" fill="#FF7A59"/>
</g>
</g>
</svg>
