<svg width="300" height="270" xmlns="http://www.w3.org/2000/svg"><g fill="none" fill-rule="evenodd"><path d="M77.368 265.422C71.014 264.048-5.324 251.669.295 160.367 5.915 69.064 12.968 41.607 42.647 31.56c29.68-10.045 101.824-57.58 158.437-12.382 56.612 45.198 117.702 85.735 93.459 157.903-24.243 72.167-28.211 96.239-91.46 92.558-63.25-3.684-95.503 2.319-125.715-4.218" fill="#F9F9F9"/><path d="M63.056 195.748c-2.86-.594-4-1.305-2.828-2.155 8.156-5.917 49.47-5.955 69.498-6.053 25.19-.124 51.372-.417 74.306.893 9.598.548 31.204.985 35.237 2.95 10.58 5.165-57.803 6.96-68.9 7.09-18.496.215-90.976.665-107.313-2.725" fill="#E5E5E5"/><path d="M225.223 70.252l-78.585.254a15.234 15.234 0 01-11.968-5.746l-3.09-3.882a6.798 6.798 0 00-5.34-2.564l-53.849.175a5.85 5.85 0 00-5.83 5.869l.394 121.884a5.85 5.85 0 005.87 5.83l155.21-.503a5.85 5.85 0 005.832-5.868l-.348-107.207a8.269 8.269 0 00-8.296-8.242" fill="#E3E3E3"/><path d="M220.203 70.268l-73.784.316c-4.51.015-8.78-2.102-11.59-5.747l-2.994-3.883c-1.253-1.626-3.159-2.57-5.17-2.564l-54.459.1c-3.128.01-5.656 2.637-5.646 5.868l.395 121.884c.01 3.23 2.555 5.842 5.684 5.832l150.3-.488c3.13-.01 5.657-2.637 5.647-5.868l-.348-107.207c-.015-4.567-3.612-8.258-8.035-8.243" fill="#EFEFEF"/><path d="M227.957 188.018l-155.077.503a5.917 5.917 0 01-5.936-5.898l-.318-97.9a5.917 5.917 0 015.898-5.937l155.077-.503a5.917 5.917 0 015.936 5.898l.318 97.901a5.917 5.917 0 01-5.898 5.936" fill="#E3E3E3"/><path d="M234.25 80.506c-.006-2.098.055-4.116-.96-6.038a8.64 8.64 0 00-5.997-4.423c-1.282-.247-2.644-.16-3.946-.156l-17.147.055-48.793.158c-3.488.012-6.981.076-10.47.034-3.405-.04-6.69-1.189-9.33-3.353-1.666-1.366-2.93-3.134-4.264-4.81-1.356-1.703-2.689-3.239-4.91-3.798-.833-.21-1.666-.232-2.514-.229l-42.594.138-8.36.027c-1.91.007-3.784-.1-5.556.797-2.195 1.11-3.517 3.207-3.573 5.66-.023 1.014.006 2.033.01 3.047l.038 11.984.01 2.72c0 .375 1.45.125 1.448-.388-.019-5.894-.226-11.817-.057-17.708.078-2.748 1.93-5.26 4.833-5.365.426-.015.854-.002 1.28-.004l7.114-.023 43.468-.14c2.657-.01 5.014.188 6.923 2.458 2.822 3.355 5.088 6.807 9.34 8.552 3.992 1.638 8.637 1.167 12.87 1.153l45.928-.149 19.984-.065 5.13-.016c3.318-.01 6.388 1.446 7.86 4.58.854 1.82.78 3.736.787 5.69 0 .375 1.449.125 1.449-.388" fill="#6A79A8"/><path d="M229.909 191.561l-158.958.516a3.977 3.977 0 01-3.99-3.964l-.33-101.782a3.977 3.977 0 013.964-3.99l158.958-.515a3.977 3.977 0 013.99 3.964l.33 101.781a3.977 3.977 0 01-3.964 3.99" fill="#EFEFEF"/><path d="M225.804 187.77l-154.865.501a3.977 3.977 0 01-3.99-3.964l-.316-97.642a3.977 3.977 0 013.963-3.99l154.866-.502a3.977 3.977 0 013.99 3.964l.316 97.642a3.977 3.977 0 01-3.964 3.99" fill="#FFF"/><path d="M67.442 111.896l-.075-23.31c-.008-2.462-.14-5.628 3.226-5.794 1.113-.054 2.243-.007 3.357-.01l16.297-.053 25.616-.084 30.342-.098 30.982-.1 26.976-.088 18.852-.06 4.952-.017c2.028-.006 4.074.305 4.718 2.71.284 1.062.134 2.315.138 3.399l.02 6.355.047 14.215.008 2.617c.002.66 1.457.379 1.456-.157l-.077-23.721c-.004-1.176.138-2.55-.328-3.65-.73-1.726-2.398-2.619-4.208-2.675-.945-.03-1.897.006-2.842.009l-15.974.052-25.956.084-31.026.1-31.548.103-27.419.089-18.639.06c-3.295.01-8.535-.83-10.103 2.93-.473 1.136-.327 2.47-.324 3.677l.02 6.22.048 14.649.009 2.705c.002.66 1.457.379 1.455-.157M111.37 191.494l-21.72.071-13.902.045c-2.968.01-7.686.797-8.05-3.431-.134-1.565-.019-3.188-.024-4.756l-.037-11.482-.1-30.63-.04-12.674c-.007-2.151.24-4.48-.022-6.619-.012-.096 0-.2 0-.297-.003-.659-1.458-.379-1.456.157l.053 16.486.101 31.197c.02 6.173-.076 12.358.06 18.53.05 2.254 1.57 4.085 3.843 4.388.78.104 1.594.046 2.38.043l12.098-.039c8.585-.028 17.17-.03 25.755-.083.174-.002.347-.002.52-.002.597-.002 1.518-.907.542-.904M232.93 121.353l.053 16.22.1 31.042c.02 6.277.148 12.563.061 18.84-.026 1.897-1.093 3.515-3.102 3.655-.933.065-1.892.006-2.827.009l-12.892.042c-8.383.027-16.767.03-25.15.081l-.502.002c-.598.002-1.518.906-.542.903l22.548-.073 14.372-.046c2.504-.009 5.931.514 7.976-1.231 1.94-1.655 1.572-4.155 1.565-6.42l-.035-10.928-.102-31.556-.044-13.394c-.007-2.274.242-4.72-.022-6.983-.013-.103-.001-.215-.002-.32-.002-.66-1.457-.379-1.455.157" fill="#6A79A8"/><path fill="#EFEFEF" d="M121.116 175.407l-40.356.13-.094-28.96 40.356-.131.094 28.961"/><path d="M85.99 166.398l25.089-.081c.56-.002 1.532-.851.557-.848l-25.09.081c-.561.002-1.532.851-.557.848M86.178 159.381l25.09-.081c.82-.003 1.118-1.046.133-1.042l-25.09.081c-.82.003-1.118 1.045-.133 1.042M85.94 150.518l25.376-.083 3.613-.011c.574-.003 1.526-.872.55-.87l-25.375.083-3.612.012c-.575.002-1.527.871-.551.869M86.22 173.281l8.743-.028c.81-.002 1.128-1.019.141-1.015l-8.744.028c-.81.003-1.127 1.019-.14 1.016M101.143 173.023l8.744-.029c.312 0 1.64-.599.938-.597l-8.744.029c-.312 0-1.64.599-.938.597" fill="#6A79A8"/><path fill="#F9F9F9" d="M30 219.045h14.016V104.572H30z"/><path d="M30 218.652c0 1.612 3.138 2.92 7.008 2.92s7.007-1.308 7.007-2.92H30" fill="#F9F9F9"/><path d="M29.266 108.618V214.09c0 1.379-.202 2.934 0 4.302.01.063 0 .133 0 .196 0 .749 1.467.526 1.467-.115v-10.96-26.172-31.811-27.503-9.025c0-1.38.202-2.934 0-4.303-.009-.062 0-.132 0-.195 0-.749-1.467-.527-1.467.114M44.75 108.844v-4.33c0-.374-.353-.465-.668-.465H30.066c-.821 0-1.117 1.045-.132 1.045h14.015l-.667-.465v4.33c0 .749 1.467.526 1.467-.115M44.75 218.473v-10.499-25.064-30.472-26.35-8.678c0-1.31.196-2.795 0-4.095-.01-.06 0-.127 0-.189 0-.748-1.468-.526-1.468.115v101.064c0 1.31-.197 2.794 0 4.094.01.06 0 .128 0 .19 0 .748 1.467.525 1.467-.116" fill="#6A79A8"/><path d="M29.276 219.002c.2 2.16 3.443 2.849 5.125 3.1 2.84.427 6.12.24 8.68-1.173.86-.474.085-1.308-.654-.9-2.086 1.151-4.711 1.312-7.035 1.045-1.4-.162-4.495-.605-4.667-2.46-.064-.692-1.516-.337-1.449.388" fill="#6A79A8"/><path d="M30 104.647c0 1.613 3.138 2.92 7.008 2.92s7.007-1.307 7.007-2.92c0-1.612-3.137-2.92-7.007-2.92-3.87 0-7.008 1.308-7.008 2.92" fill="#FFF"/><path d="M29.276 104.841c.287 3.103 6.076 3.344 8.221 3.27 1.951-.066 7.32-.65 7.248-3.585-.073-2.996-5.696-3.354-7.68-3.352-2.22.002-7.516.45-7.8 3.522-.071.77 1.408.589 1.471-.098.2-2.167 4.7-2.321 6.214-2.317 1.368.004 6.456.291 6.302 2.527-.148 2.167-5.217 2.237-6.634 2.19-1.603-.051-5.689-.338-5.893-2.545-.064-.692-1.516-.337-1.449.388M47.182 112.047c.336 5.998 11.281 5.845 11.353-.1.073-6.043-11.023-5.797-11.353.1-.043.77 1.432.579 1.47-.1.254-4.536 8.325-4.373 8.412.1.09 4.57-8.163 4.336-8.412-.1-.043-.778-1.508-.57-1.47.1" fill="#6A79A8"/><path d="M47.169 111.455h-2.43c-.319 0-.763.247-.797.594-.037.38.382.488.674.488h2.43c.318 0 .762-.246.796-.593.037-.38-.382-.489-.673-.489" fill="#6A79A8"/><path fill="#F9F9F9" d="M255.984 219.045H270V104.572h-14.016z"/><path d="M270 218.652c0 1.612-3.138 2.92-7.008 2.92s-7.007-1.308-7.007-2.92h14.014" fill="#F9F9F9"/><path d="M269.266 108.618V214.09c0 1.379-.202 2.934 0 4.302.01.063 0 .133 0 .196 0 .749 1.466.526 1.466-.115v-10.96-26.172-31.811-27.503-9.025c0-1.38.204-2.934 0-4.303-.01-.062 0-.132 0-.195 0-.749-1.466-.527-1.466.114M256.717 108.844v-4.33l-.8.58h14.017c.822 0 1.116-1.045.132-1.045H256.05c-.279 0-.8.243-.8.58v4.33c0 .749 1.467.526 1.467-.115M256.717 218.473v-10.499-25.064-30.472-26.35-8.678c0-1.31.198-2.795 0-4.095-.009-.06 0-.127 0-.189 0-.748-1.466-.526-1.466.115v101.064c0 1.31-.198 2.794 0 4.094.009.06 0 .128 0 .19 0 .748 1.466.525 1.466-.116" fill="#6A79A8"/><path d="M269.264 218.857c-.167 1.8-3.576 2.156-4.869 2.261-2.179.178-4.642.009-6.594-1.07-.58-.319-1.832.463-1.11.861 2.653 1.465 6.01 1.639 8.949 1.146 1.765-.295 4.89-1.074 5.095-3.296.072-.77-1.408-.59-1.471.098" fill="#6A79A8"/><path d="M270 104.647c0 1.613-3.138 2.92-7.008 2.92s-7.007-1.307-7.007-2.92c0-1.612 3.137-2.92 7.007-2.92 3.87 0 7.007 1.308 7.007 2.92" fill="#FFF"/><path d="M269.264 104.696c-.2 2.167-4.7 2.321-6.214 2.317-1.369-.004-6.456-.291-6.303-2.527.149-2.167 5.218-2.237 6.635-2.19 1.603.051 5.689.338 5.893 2.545.064.692 1.517.337 1.448-.388-.285-3.103-6.075-3.344-8.22-3.27-1.951.066-7.32.65-7.248 3.586.073 2.995 5.695 3.353 7.679 3.351 2.22-.002 7.516-.45 7.8-3.522.073-.77-1.407-.589-1.47.098M250.485 112.047c-.255 4.535-8.325 4.371-8.412-.1-.09-4.57 8.163-4.338 8.412.1.043.777 1.508.568 1.47-.1-.336-6-11.281-5.846-11.353.1-.073 6.042 11.023 5.796 11.353-.1.043-.771-1.432-.58-1.47.1" fill="#6A79A8"/><path d="M251.968 112.537h2.43c.319 0 .763-.246.797-.593.037-.38-.382-.489-.673-.489h-2.43c-.319 0-.763.247-.797.594-.037.38.382.488.673.488" fill="#6A79A8"/><path d="M149.283 132.783c-1.57.026-3.134.04-4.694.04-7.264 0-14.42-.288-21.443-.864-24.239-1.99-46.944-7.442-67.485-16.206-1.46-.623-2.164-2.373-1.571-3.908.592-1.536 2.256-2.275 3.716-1.652 31.336 13.37 63.826 16.998 91.483 16.554l-.006 6.036" fill="#EF8F7F"/><path d="M149.283 131.283c-1.57.026-3.134.04-4.694.04-7.264 0-14.42-.288-21.443-.864-24.239-1.99-46.944-7.442-67.485-16.206-1.46-.623-2.164-.873-1.571-2.408.592-1.536 2.256-2.275 3.716-1.652 31.336 13.37 63.826 16.998 91.483 16.554l-.006 4.536" fill="#F9AB98"/><path d="M134.259 132.268a23.065 23.065 0 016.869-5.11c.895-.438.086-1.055-.605-.717-2.813 1.376-5.325 3.195-7.45 5.5-.597.648.804.741 1.186.327" fill="#EF8F7F"/><path d="M128.74 126.79c6.817.405 13.643.541 20.471.438.789-.012 1.146-.977.155-.962-6.704.101-13.408-.043-20.1-.44-.65-.039-1.505.906-.526.964M119.319 131.106c-18.222-1.823-36.246-5.671-53.464-11.947a197.125 197.125 0 01-5.897-2.257c-1.838-.738-5.035-1.355-5.324-3.694-.121-.977.321-2.218 1.296-2.62 1.109-.46 2.611.552 3.597.958 2.316.954 4.651 1.861 7.003 2.722 8.797 3.22 17.827 5.79 26.983 7.761 9.62 2.071 19.37 3.48 29.173 4.322.652.056 1.504-.881.525-.965-19.978-1.717-39.775-5.844-58.522-13.032-1.17-.45-2.337-.91-3.5-1.383-1.13-.459-2.318-1.146-3.51-1.395-1.275-.266-2.657.15-3.56 1.098-1.03 1.08-1.264 2.75-.546 4.06.867 1.582 3.008 2.048 4.557 2.68 8.953 3.648 18.175 6.625 27.554 8.968 10.877 2.716 21.956 4.573 33.11 5.69.653.064 1.502-.868.525-.966M149.36 132.302c-8.66.137-17.319-.127-25.951-.826-.652-.053-1.504.886-.526.965 8.757.709 17.538.962 26.322.823.788-.012 1.146-.978.155-.962" fill="#6A79A8"/><path d="M175.245 205.123h-50.49c-6.13 0-11.1-4.97-11.1-11.1v-41.518h72.69v41.518c0 6.13-4.97 11.1-11.1 11.1" fill="#DBDBDB"/><path d="M175.245 201.9H127.8c-6.13 0-11.1-4.97-11.1-11.1v-38.295h69.645V190.8c0 6.13-4.97 11.1-11.1 11.1" fill="#EFEFEF"/><path d="M175.504 204.628h-43.746c-2.185 0-4.371.014-6.557 0-5.935-.038-10.72-4.703-10.815-10.673-.1-6.317 0-12.644 0-18.961V152.44l-.99.56h72.69l-.473-.43v40.819c0 6.002-3.996 11.123-10.294 11.24-.799.014-1.138 1.007-.148.989 6.412-.118 11.807-5.162 11.905-11.661.031-2.05 0-4.103 0-6.153v-27.72-7.644c0-.254-.218-.43-.472-.43h-72.69c-.292 0-.99.13-.99.56 0 13.763-.083 27.529 0 41.291.031 5.277 3.391 10.001 8.583 11.362 2.16.566 4.486.395 6.7.395H174.987c.653 0 1.494-.99.518-.99" fill="#6A79A8"/><path d="M150 114.334c-17.935 0-32.474 14.54-32.474 32.474v5.444h9.367v-5.204c0-12.761 10.345-23.106 23.107-23.106 12.761 0 23.106 10.345 23.106 23.106v5.204h9.368v-5.444c0-17.935-14.54-32.474-32.474-32.474" fill="#DBDBDB"/><path d="M179.252 132.305c-2.105.335-4.194.761-6.311.97 2.28 3.338 3.606 7.297 3.606 11.547v1.368a3.482 3.482 0 003.483 3.482h2.444v-5.074c0-4.377-1.22-8.536-3.222-12.293M170.9 129.2c2.015-.032 3.975-.39 5.946-.73-6.166-8.493-16.143-14.136-23.405-14.136-17.935 0-32.474 13.55-32.474 30.264v1.257a3.816 3.816 0 003.816 3.817h2.11v-4.85c0-11.893 13.786-21.534 26.548-21.534 6.36 0 12.118 2.395 16.296 6.27.307-.215.693-.35 1.163-.358" fill="#EFEFEF"/><path d="M173.95 123.868c-8.836-8.957-22.192-12.277-34.176-8.354-10.536 3.449-18.91 12.078-21.835 22.8-1.259 4.614-1.142 9.282-1.142 14.012 0 .251.219.392.461.392h9.368c.268 0 .996-.132.996-.54 0-2.417-.123-4.874.092-7.284a22.79 22.79 0 014.46-11.633c5.9-7.854 16.23-10.736 25.427-7.447.531.19 1.697-.578.863-.876-7.304-2.612-15.553-1.63-21.968 2.764-5.823 3.987-9.69 10.496-10.256 17.546-.188 2.344-.076 4.729-.076 7.078l.997-.539h-9.368l.461.391c0-3.335-.147-6.71.32-10.02a32.117 32.117 0 016.064-14.703c6.715-8.982 17.888-13.762 29.019-12.421 7.203.867 13.876 4.286 18.956 9.434.403.409 1.78-.15 1.336-.6M168.147 133.933a23.301 23.301 0 014.23 13.19c.018 1.734 0 3.47 0 5.203 0 .251.22.392.462.392h9.368c.268 0 .996-.132.996-.54 0-1.993.028-3.989-.005-5.982a33.154 33.154 0 00-3.405-14.074c-.273-.559-1.695-.116-1.448.388a33.085 33.085 0 013.4 14.372c.013 1.815 0 3.63 0 5.444l.996-.539h-9.367l.461.391c0-2.075.062-4.16-.022-6.233-.185-4.554-1.726-8.886-4.329-12.612-.323-.462-1.72.052-1.337.6" fill="#6A79A8"/><path d="M154.963 198.846h-9.927l2.37-11.335a4.664 4.664 0 01-2.37-4.079c0-2.57 2.043-4.652 4.564-4.652 2.52 0 4.564 2.083 4.564 4.652 0 1.758-.958 3.288-1.57 4.08l2.37 11.334" fill="#E5E5E5"/><path d="M154.963 198.846h-7.578l2.369-11.335a4.664 4.664 0 01-2.37-4.079c0-2.57 2.044-4.317 4.564-4.317 0 0 2.216 1.748 2.216 4.317 0 1.758-.958 3.288-1.57 4.08l2.37 11.334" fill="#FFF"/><path d="M155.223 198.352h-9.927l.471.429 2.37-11.335c.027-.13-.063-.269-.168-.334-1.89-1.172-2.768-3.528-1.806-5.61 1.109-2.397 4.136-2.914 5.998-1.05 1.606 1.607 1.517 3.976.488 5.864-.4.732-.82.999-.696 1.786.575 3.665 1.527 7.306 2.286 10.938.13.622 1.583.252 1.449-.388l-1.662-7.953-.445-2.127c-.065-.31-.32-.902-.254-1.215-.056.262.237-.192.315-.283.366-.428.618-1.059.815-1.572.427-1.115.583-2.336.268-3.501-1.217-4.507-7.547-4.87-9.753-.981-1.146 2.02-.765 4.639.952 6.211.578.53.673.134.667.742-.006.548-.246 1.178-.358 1.715l-1.928 9.223c-.053.252.26.43.472.43h9.927c.653 0 1.495-.99.519-.99M159 167.887c-5 4.988-14.828 5.183-20.018.374-.166-.155.323.96.56 1.178 5.245 4.862 15.178 4.782 20.255-.28.217-.217-.708-1.36-.796-1.272M157.952 162.813c.038-.705.462-1.543 1.263-1.093.545.306.805.878.838 1.481.013.246 1.47.007 1.449-.388-.155-2.875-4.861-2.169-4.999.388-.01.2 1.426.035 1.45-.388M139.123 162.931c.038-.705.462-1.542 1.263-1.092.545.306.805.878.837 1.48.014.246 1.47.008 1.45-.388-.155-2.874-4.861-2.168-4.999.389-.01.2 1.426.034 1.45-.389" fill="#6A79A8"/><path d="M149.289 126.747c12.308-.197 23.66-1.202 33.525-2.513 34.83-4.629 59.223-13.982 59.465-14.076 1.478-.573 3.119.222 3.664 1.776.545 1.554-.21 3.28-1.689 3.853-.246.096-25.133 9.652-60.571 14.38-11.64 1.552-23.141 2.425-34.4 2.616l.006-6.036" fill="#EF8F7F"/><path d="M149.289 126.747c12.308-.197 23.66-1.202 33.525-2.513 34.83-4.629 59.223-13.982 59.465-14.076 1.478-.573 3.119.222 3.664 1.776.545 1.554-.21 1.78-1.689 2.353-.246.096-25.133 9.652-60.571 14.38-11.64 1.552-23.141 2.425-34.4 2.616l.006-4.536" fill="#F9AB98"/><path d="M149.211 127.228c29.716-.509 59.72-5.429 87.953-14.79 1.767-.586 3.59-1.496 5.406-1.896 3.076-.677 3.667 3.864 1.12 4.965-.783.338-1.619.59-2.424.87-10.118 3.52-20.512 6.292-30.967 8.604-20.007 4.427-40.447 6.954-60.939 7.321-.788.014-1.146.98-.155.962 19.167-.344 38.28-2.589 57.048-6.474 11.663-2.415 23.253-5.408 34.526-9.272 1.985-.68 4.972-1.232 5.83-3.412 1.146-2.91-1.741-5.232-4.45-4.393-.52.161-1.028.382-1.542.566-9.819 3.523-19.959 6.232-30.127 8.528-17.672 3.99-35.696 6.481-53.8 7.245-2.44.103-4.882.172-7.324.214-.788.014-1.146.98-.155.962" fill="#6A79A8"/></g></svg>