<?xml version="1.0" encoding="UTF-8"?>
<svg width="1009px" height="62px" viewBox="0 0 1009 62" version="1.1" xmlns="http://www.w3.org/2000/svg" xmlns:xlink="http://www.w3.org/1999/xlink">
    <!-- Generator: Sketch 51.3 (57544) - http://www.bohemiancoding.com/sketch -->
    <title>Desktop Header Element/Service Hub</title>
    <desc>Created with Sketch.</desc>
    <defs>
        <rect id="path-1" x="0" y="0" width="1440" height="70"></rect>
    </defs>
    <g id="Service-Hub-Overview" stroke="none" stroke-width="1" fill="none" fill-rule="evenodd">
        <g id="Desktop-Header-Element/Service-Hub" transform="translate(-205.000000, 0.000000)">
            <g>
                <g id="Header-[Light]">
                    <mask id="mask-2" fill="white">
                        <use xlink:href="#path-1"></use>
                    </mask>
                    <g id="Rectangle" fill-rule="nonzero"></g>
                    <g id="Background" mask="url(#mask-2)">
                        <g transform="translate(-527.000000, -1090.000000)" id="Blobs-[Orange]">
                            <g transform="translate(371.000000, 147.000000)">
                                <path d="M178.851316,660.944085 C184.832699,648.180616 187.367359,636.654659 187.25109,625.94163 C187.137405,615.231189 184.40638,605.382865 179.972664,596.142942 C162.232631,559.183249 117.228861,531.9735 99.8505536,492.342022 C73.7856762,432.894805 114.110274,370.861238 161.504014,332.361126 C217.93313,284.84374 279.604676,251.638008 335.713407,209.438303 C343.834136,203.338762 351.908357,196.980328 360.1221,190.088573 C442.016664,107.845748 560.455798,67.7793277 674.791935,102.543601 C783.521334,137.307873 850.401722,228.226233 892.584036,329.181909 C897.276127,340.40237 901.660752,351.74969 905.794754,363.187622 C922.707986,442.10625 990.818239,527.445446 994.236541,609.778884 C994.241709,609.897975 994.246876,610.014477 994.252044,610.133568 C994.970327,628.427011 990.658047,646.572884 982.684592,663.046303 C941.497021,748.126605 881.202614,860.056794 806.348771,933.440269 C797.424496,942.188294 788.293521,950.390053 778.963597,957.931632 C685.669526,1032.50861 561.104319,1006.8574 462.93471,958.048135 C452.005444,952.588062 441.399147,946.843207 431.108068,940.772145 C398.899031,921.733087 369.320253,956.797677 341.389908,950.692959 C276.22513,936.446028 272.246154,842.74197 210.125035,814.501823 C157.318338,788.299172 148.050424,730.081701 170.68408,685.280111 C173.061131,677.559895 175.838663,669.415093 178.851316,660.944085" id="Fill-2" fill="#00BDA5" transform="translate(542.992123, 547.365846) rotate(-13.000000) translate(-542.992123, -547.365846) "></path>
                                <path d="M693.91026,730.867337 C699.120365,719.749671 701.328189,709.709944 701.226913,700.378321 C701.127887,691.048953 698.749018,682.470534 694.887014,674.422066 C679.434494,642.228191 640.233796,618.52704 625.096358,584.005897 C602.392452,532.224182 637.517339,478.189618 678.799829,444.653956 C727.952616,403.263764 781.67184,374.33979 830.545554,337.581583 C837.619145,332.268557 844.652224,326.730019 851.806835,320.726931 C923.141393,249.089019 1026.30823,214.189018 1125.90114,244.470564 C1220.61028,274.752111 1278.86668,353.946878 1315.60974,441.884687 C1319.6968,451.658311 1323.51605,461.542435 1327.11698,471.505488 C1341.84932,540.247845 1401.177,614.582862 1404.15453,686.299702 C1404.15903,686.403437 1404.16353,686.504917 1404.16803,686.608652 C1404.79369,702.543222 1401.03746,718.349251 1394.09216,732.698482 C1358.21557,806.807988 1305.69591,904.305186 1240.4942,968.226129 C1232.72068,975.846128 1224.76711,982.9903 1216.64024,989.55942 C1135.3761,1054.51997 1026.87313,1032.17639 941.362133,989.6609 C931.842156,984.904884 922.603503,979.900807 913.639421,974.612586 C885.583622,958.028546 859.81892,988.571684 835.490091,983.254147 C778.728074,970.844306 775.262173,889.223046 721.151346,864.624363 C675.15388,841.800448 667.08103,791.089908 686.796159,752.065321 C688.866698,745.340599 691.286077,738.246039 693.91026,730.867337" id="Fill-2" fill="#00A4BD" transform="translate(1011.096434, 631.934599) rotate(-79.000000) translate(-1011.096434, -631.934599) "></path>
                                <path d="M825.006878,703.311394 C830.460202,691.674731 832.771093,681.166328 832.665089,671.399084 C832.56144,661.6342 830.07152,652.655323 826.029229,644.231134 C809.855351,610.534378 768.824679,585.726805 752.980592,549.594139 C729.216818,495.39514 765.981412,438.838124 809.191059,403.736943 C860.638406,360.414566 916.865362,330.140358 968.020609,291.666197 C975.424409,286.105147 982.785809,280.308058 990.274413,274.024732 C1064.93902,199.042605 1172.92192,162.513396 1277.16404,194.208551 C1376.29441,225.903707 1437.27035,308.79546 1475.72866,400.838399 C1480.00651,411.068277 1484.00405,421.413814 1487.77308,431.841964 C1503.19315,503.793365 1565.29038,581.598504 1568.40691,656.663244 C1568.41162,656.771822 1568.41633,656.878039 1568.42104,656.986616 C1569.07591,673.665047 1565.14433,690.208936 1557.87481,705.228021 C1520.32342,782.797122 1465.35203,884.845703 1397.10656,951.750617 C1388.97015,959.726334 1380.64529,967.204011 1372.13905,974.079792 C1287.08132,1042.07284 1173.51318,1018.68622 1084.01035,974.18601 C1074.04596,969.207972 1064.37602,963.970294 1054.99348,958.435207 C1025.62797,941.076988 998.660519,973.045947 973.195967,967.480176 C913.784175,954.491016 910.156477,869.059496 853.519638,843.312493 C805.374909,819.423107 796.925201,766.345288 817.560675,725.498947 C819.727871,718.4603 822.260193,711.034551 825.006878,703.311394" id="Fill-2" fill="#0091AE" transform="translate(1157.000000, 599.760258) scale(-1, 1) rotate(-86.000000) translate(-1157.000000, -599.760258) "></path>
                            </g>
                        </g>
                    </g>
                </g>
                <circle id="Oval" fill="#F5C26B" fill-rule="nonzero" cx="352.5" cy="33.5" r="10.5"></circle>
            </g>
        </g>
    </g>
</svg>