<svg width="156" height="196" viewBox="0 0 156 196" xmlns="http://www.w3.org/2000/svg" xmlns:xlink="http://www.w3.org/1999/xlink">
    <defs>
        <path id="a" d="M0 .361h155.483V89H0z"/>
    </defs>
    <g fill="none" fill-rule="evenodd">
        <g transform="translate(0 106.566)">
            <mask id="b" fill="#fff">
                <use xlink:href="#a"/>
            </mask>
            <path d="M82.658 1.533c-2.705-1.562-7.13-1.562-9.834 0L2.02 42.412c-2.704 1.56-2.69 4.092.031 5.624L72.793 87.85c2.721 1.533 7.175 1.533 9.896 0l70.744-39.815c2.721-1.532 2.735-4.063.031-5.624L82.658 1.532z" fill="#00A4BF" opacity=".2" mask="url(#b)"/>
        </g>
        <path d="M79.906 34.252c-1.054-.608-1.916-.11-1.916 1.106v56.838c0 1.217.862 2.71 1.916 3.318l70.982 40.98c1.054.61 1.915.112 1.915-1.104V78.552c0-1.217-.861-2.71-1.915-3.32l-70.982-40.98z" stroke="#33475C" stroke-width="5" stroke-linecap="round" stroke-linejoin="round"/>
        <path d="M79.906 34.252c-1.054-.608-1.916-.11-1.916 1.106v56.838c0 1.217.862 2.71 1.916 3.318l70.982 40.98c1.054.61 1.915.112 1.915-1.104V78.552c0-1.217-.861-2.71-1.915-3.32l-70.982-40.98z" stroke="#33475C" stroke-width="5" stroke-linecap="round" stroke-linejoin="round"/>
        <path d="M150.888 75.233l-70.982-40.98c-1.054-.61-1.915-.112-1.915 1.105v3.747l74.813 43.193v-3.747c0-1.216-.862-2.71-1.916-3.318zM82.807 51.84c0 1.826 1.293 4.066 2.874 4.979l58.956 34.039c1.581.912 2.874.165 2.874-1.66s-1.293-4.065-2.874-4.977L85.681 50.183c-1.58-.913-2.874-.166-2.874 1.658z" stroke="#33475C" stroke-width="5" stroke-linecap="round" stroke-linejoin="round"/>
        <path d="M82.807 51.84c0 1.826 1.293 4.066 2.874 4.979l58.956 34.039c1.581.912 2.874.165 2.874-1.66s-1.293-4.065-2.874-4.977L85.681 50.183c-1.58-.913-2.874-.166-2.874 1.658z" stroke="#33475C" stroke-width="5" stroke-linecap="round" stroke-linejoin="round"/>
        <path d="M79.906 34.252c-1.054-.608-1.916-.11-1.916 1.106v56.838c0 1.217.862 2.71 1.916 3.318l70.982 40.98c1.054.61 1.915.112 1.915-1.104V78.552c0-1.217-.861-2.71-1.915-3.32l-70.982-40.98z" stroke="#33475C" stroke-width="5" stroke-linecap="round" stroke-linejoin="round"/>
        <path d="M79.906 34.252c-1.054-.608-1.916-.11-1.916 1.106v56.838c0 1.217.862 2.71 1.916 3.318l70.982 40.98c1.054.61 1.915.112 1.915-1.104V78.552c0-1.217-.861-2.71-1.915-3.32l-70.982-40.98z" stroke="#33475C" stroke-width="5" stroke-linecap="round" stroke-linejoin="round"/>
        <path d="M150.888 75.233l-70.982-40.98c-1.054-.61-1.915-.112-1.915 1.105v3.747l74.813 43.193v-3.747c0-1.216-.862-2.71-1.916-3.318zM82.807 51.84c0 1.826 1.293 4.066 2.874 4.979l58.956 34.039c1.581.912 2.874.165 2.874-1.66s-1.293-4.065-2.874-4.977L85.681 50.183c-1.58-.913-2.874-.166-2.874 1.658z" stroke="#33475C" stroke-width="5" stroke-linecap="round" stroke-linejoin="round"/>
        <path d="M82.807 51.84c0 1.826 1.293 4.066 2.874 4.979l58.956 34.039c1.581.912 2.874.165 2.874-1.66s-1.293-4.065-2.874-4.977L85.681 50.183c-1.58-.913-2.874-.166-2.874 1.658zM84.46 62.458c-.464-.268-.844-.05-.844.487v25.042c0 .536.38 1.195.844 1.462l31.273 18.056c.465.268.845.049.845-.487V81.976c0-.537-.38-1.194-.845-1.462L84.46 62.458zM130.472 88.038l16.377 9.455M124.014 86.686l22.835 13.256M130.472 92.936l16.377 9.456M126.088 92.936l20.762 11.905M130.472 102.612l16.377 9.456M124.014 101.262l22.835 13.256M130.472 107.512l16.377 9.455M126.088 107.512l20.762 11.904M130.472 117.187l16.377 9.455M124.014 115.836l22.835 13.256M130.472 122.086l16.377 9.455" stroke="#33475C" stroke-width="5" stroke-linecap="round" stroke-linejoin="round"/>
        <path d="M79.906 34.252c-1.054-.608-1.916-.11-1.916 1.106v56.838c0 1.217.862 2.71 1.916 3.318l70.982 40.98c1.054.61 1.915.112 1.915-1.104V78.552c0-1.217-.861-2.71-1.915-3.32l-70.982-40.98z" stroke="#33475C" stroke-width="5" stroke-linecap="round" stroke-linejoin="round"/>
        <path d="M79.906 34.252c-1.054-.608-1.916-.11-1.916 1.106v56.838c0 1.217.862 2.71 1.916 3.318l70.982 40.98c1.054.61 1.915.112 1.915-1.104V78.552c0-1.217-.861-2.71-1.915-3.32l-70.982-40.98z" stroke="#33475C" stroke-width="5" stroke-linecap="round" stroke-linejoin="round"/>
        <path d="M150.888 75.233l-70.982-40.98c-1.054-.61-1.915-.112-1.915 1.105v3.747l74.813 43.193v-3.747c0-1.216-.862-2.71-1.916-3.318zM82.807 51.84c0 1.826 1.293 4.066 2.874 4.979l58.956 34.039c1.581.912 2.874.165 2.874-1.66s-1.293-4.065-2.874-4.977L85.681 50.183c-1.58-.913-2.874-.166-2.874 1.658z" stroke="#33475C" stroke-width="5" stroke-linecap="round" stroke-linejoin="round"/>
        <path d="M82.807 51.84c0 1.826 1.293 4.066 2.874 4.979l58.956 34.039c1.581.912 2.874.165 2.874-1.66s-1.293-4.065-2.874-4.977L85.681 50.183c-1.58-.913-2.874-.166-2.874 1.658z" stroke="#33475C" stroke-width="5" stroke-linecap="round" stroke-linejoin="round"/>
        <path d="M79.906 34.252c-1.054-.608-1.916-.11-1.916 1.106v56.838c0 1.217.862 2.71 1.916 3.318l70.982 40.98c1.054.61 1.915.112 1.915-1.104V78.552c0-1.217-.861-2.71-1.915-3.32l-70.982-40.98z" fill="#FFF"/>
        <path d="M79.906 34.252c-1.054-.608-1.916-.11-1.916 1.106v56.838c0 1.217.862 2.71 1.916 3.318l70.982 40.98c1.054.61 1.915.112 1.915-1.104V78.552c0-1.217-.861-2.71-1.915-3.32l-70.982-40.98z" stroke="#33475C" stroke-linecap="round" stroke-linejoin="round"/>
        <path d="M150.888 75.233l-70.982-40.98c-1.054-.61-1.915-.112-1.915 1.105v3.747l74.813 43.193v-3.747c0-1.216-.862-2.71-1.916-3.318" fill="#55A9D9"/>
        <path d="M150.888 75.233l-70.982-40.98c-1.054-.61-1.915-.112-1.915 1.105v3.747l74.813 43.193v-3.747c0-1.216-.862-2.71-1.916-3.318z" stroke="#33475C" stroke-linecap="round" stroke-linejoin="round"/>
        <path d="M82.807 51.84c0 1.826 1.293 4.066 2.874 4.979l58.956 34.039c1.581.912 2.874.165 2.874-1.66s-1.293-4.065-2.874-4.977L85.681 50.183c-1.58-.913-2.874-.166-2.874 1.658" fill="#AAD3EB"/>
        <path d="M82.807 51.84c0 1.826 1.293 4.066 2.874 4.979l58.956 34.039c1.581.912 2.874.165 2.874-1.66s-1.293-4.065-2.874-4.977L85.681 50.183c-1.58-.913-2.874-.166-2.874 1.658z" stroke="#33475C" stroke-linecap="round" stroke-linejoin="round"/>
        <path d="M82.807 51.84c0 1.826 1.293 4.066 2.874 4.979l58.956 34.039c1.581.912 2.874.165 2.874-1.66s-1.293-4.065-2.874-4.977L85.681 50.183c-1.58-.913-2.874-.166-2.874 1.658z" stroke="#33475C" stroke-linecap="round" stroke-linejoin="round"/>
        <path d="M84.46 62.458c-.464-.268-.844-.05-.844.487v25.042c0 .536.38 1.195.844 1.462l31.273 18.056c.465.268.845.049.845-.487V81.976c0-.537-.38-1.194-.845-1.462L84.46 62.458z" fill="#EAF0F6"/>
        <path d="M130.472 88.038l16.377 9.455" stroke="#7C98B6" stroke-linecap="round" stroke-linejoin="round"/>
        <path d="M124.014 86.687l22.835 13.256" fill="#33475C"/>
        <path d="M124.014 86.687l22.835 13.256" stroke="#CBD6E3" stroke-linecap="round" stroke-linejoin="round"/>
        <path d="M130.472 92.937l16.377 9.456" fill="#33475C"/>
        <path d="M130.472 92.937l16.377 9.456" stroke="#D4E7F7" stroke-linecap="round" stroke-linejoin="round"/>
        <path d="M126.088 92.937l20.762 11.905" fill="#33475C"/>
        <path d="M126.088 92.937l20.762 11.905" stroke="#D4E7F7" stroke-linecap="round" stroke-linejoin="round"/>
        <path d="M130.472 102.612l16.377 9.456" stroke="#7C98B6" stroke-linecap="round" stroke-linejoin="round"/>
        <path d="M124.014 101.262l22.835 13.256" fill="#33475C"/>
        <path d="M124.014 101.262l22.835 13.256" stroke="#CBD6E3" stroke-linecap="round" stroke-linejoin="round"/>
        <path d="M130.472 107.512l16.377 9.455" fill="#33475C"/>
        <path d="M130.472 107.512l16.377 9.455" stroke="#D4E7F7" stroke-linecap="round" stroke-linejoin="round"/>
        <path d="M126.088 107.512l20.762 11.904" fill="#33475C"/>
        <path d="M126.088 107.512l20.762 11.904" stroke="#D4E7F7" stroke-linecap="round" stroke-linejoin="round"/>
        <path d="M130.472 117.187l16.377 9.455" stroke="#7C98B6" stroke-linecap="round" stroke-linejoin="round"/>
        <path d="M124.014 115.836l22.835 13.256" fill="#33475C"/>
        <path d="M124.014 115.836l22.835 13.256" stroke="#CBD6E3" stroke-linecap="round" stroke-linejoin="round"/>
        <path d="M130.472 122.086l16.377 9.455" fill="#33475C"/>
        <path d="M130.472 122.086l16.377 9.455" stroke="#D4E7F7" stroke-linecap="round" stroke-linejoin="round"/>
        <path d="M42.5 55.667c-1.055-.608-1.917-.11-1.917 1.106v56.838c0 1.217.862 2.71 1.916 3.319l70.982 40.98c1.054.609 1.915.11 1.915-1.105V99.967c0-1.217-.86-2.71-1.915-3.32L42.5 55.668z" stroke="#33475C" stroke-width="5" stroke-linecap="round" stroke-linejoin="round"/>
        <path d="M42.5 55.667c-1.055-.608-1.917-.11-1.917 1.106v56.838c0 1.217.862 2.71 1.916 3.319l70.982 40.98c1.054.609 1.915.11 1.915-1.105V99.967c0-1.217-.86-2.71-1.915-3.32L42.5 55.668z" stroke="#33475C" stroke-width="5" stroke-linecap="round" stroke-linejoin="round"/>
        <path d="M113.481 96.648L42.5 55.668c-1.054-.61-1.915-.112-1.915 1.105v3.747l74.813 43.194v-3.748c0-1.216-.862-2.71-1.916-3.318zM45.4 73.257c0 1.824 1.294 4.064 2.875 4.977l58.956 34.039c1.58.912 2.874.166 2.874-1.66 0-1.825-1.293-4.064-2.874-4.977L48.275 71.598c-1.581-.913-2.874-.166-2.874 1.659z" stroke="#33475C" stroke-width="5" stroke-linecap="round" stroke-linejoin="round"/>
        <path d="M45.4 73.257c0 1.824 1.294 4.064 2.875 4.977l58.956 34.039c1.58.912 2.874.166 2.874-1.66 0-1.825-1.293-4.064-2.874-4.977L48.275 71.598c-1.581-.913-2.874-.166-2.874 1.659z" stroke="#33475C" stroke-width="5" stroke-linecap="round" stroke-linejoin="round"/>
        <path d="M42.5 55.667c-1.055-.608-1.917-.11-1.917 1.106v56.838c0 1.217.862 2.71 1.916 3.319l70.982 40.98c1.054.609 1.915.11 1.915-1.105V99.967c0-1.217-.86-2.71-1.915-3.32L42.5 55.668z" stroke="#33475C" stroke-width="5" stroke-linecap="round" stroke-linejoin="round"/>
        <path d="M42.5 55.667c-1.055-.608-1.917-.11-1.917 1.106v56.838c0 1.217.862 2.71 1.916 3.319l70.982 40.98c1.054.609 1.915.11 1.915-1.105V99.967c0-1.217-.86-2.71-1.915-3.32L42.5 55.668z" stroke="#33475C" stroke-width="5" stroke-linecap="round" stroke-linejoin="round"/>
        <path d="M113.481 96.648L42.5 55.668c-1.054-.61-1.915-.112-1.915 1.105v3.747l74.813 43.194v-3.748c0-1.216-.862-2.71-1.916-3.318zM45.4 73.257c0 1.824 1.294 4.064 2.875 4.977l58.956 34.039c1.58.912 2.874.166 2.874-1.66 0-1.825-1.293-4.064-2.874-4.977L48.275 71.598c-1.581-.913-2.874-.166-2.874 1.659z" stroke="#33475C" stroke-width="5" stroke-linecap="round" stroke-linejoin="round"/>
        <path d="M45.4 73.257c0 1.824 1.294 4.064 2.875 4.977l58.956 34.039c1.58.912 2.874.166 2.874-1.66 0-1.825-1.293-4.064-2.874-4.977L48.275 71.598c-1.581-.913-2.874-.166-2.874 1.659zM47.053 83.873c-.464-.268-.844-.048-.844.487v25.042c0 .536.38 1.195.844 1.462l31.273 18.056c.465.268.845.049.845-.487v-25.042c0-.536-.38-1.194-.845-1.462L47.053 83.873zM93.065 109.453l16.377 9.455M86.608 108.102l22.835 13.255M93.065 114.352l16.377 9.456M93.065 124.027l16.377 9.456M86.608 122.677l22.835 13.256M93.065 128.927l16.377 9.455M88.68 128.927l20.763 11.904M93.065 138.602l16.377 9.456M86.608 137.25l22.835 13.257M93.065 143.5l16.377 9.456" stroke="#33475C" stroke-width="5" stroke-linecap="round" stroke-linejoin="round"/>
        <path d="M42.5 55.667c-1.055-.608-1.917-.11-1.917 1.106v56.838c0 1.217.862 2.71 1.916 3.319l70.982 40.98c1.054.609 1.915.11 1.915-1.105V99.967c0-1.217-.86-2.71-1.915-3.32L42.5 55.668z" stroke="#33475C" stroke-width="5" stroke-linecap="round" stroke-linejoin="round"/>
        <path d="M42.5 55.667c-1.055-.608-1.917-.11-1.917 1.106v56.838c0 1.217.862 2.71 1.916 3.319l70.982 40.98c1.054.609 1.915.11 1.915-1.105V99.967c0-1.217-.86-2.71-1.915-3.32L42.5 55.668z" stroke="#33475C" stroke-width="5" stroke-linecap="round" stroke-linejoin="round"/>
        <path d="M113.481 96.648L42.5 55.668c-1.054-.61-1.915-.112-1.915 1.105v3.747l74.813 43.194v-3.748c0-1.216-.862-2.71-1.916-3.318zM45.4 73.257c0 1.824 1.294 4.064 2.875 4.977l58.956 34.039c1.58.912 2.874.166 2.874-1.66 0-1.825-1.293-4.064-2.874-4.977L48.275 71.598c-1.581-.913-2.874-.166-2.874 1.659z" stroke="#33475C" stroke-width="5" stroke-linecap="round" stroke-linejoin="round"/>
        <path d="M45.4 73.257c0 1.824 1.294 4.064 2.875 4.977l58.956 34.039c1.58.912 2.874.166 2.874-1.66 0-1.825-1.293-4.064-2.874-4.977L48.275 71.598c-1.581-.913-2.874-.166-2.874 1.659z" stroke="#33475C" stroke-width="5" stroke-linecap="round" stroke-linejoin="round"/>
        <path d="M42.5 55.667c-1.055-.608-1.917-.11-1.917 1.106v56.838c0 1.217.862 2.71 1.916 3.319l70.982 40.98c1.054.609 1.915.11 1.915-1.105V99.967c0-1.217-.86-2.71-1.915-3.32L42.5 55.668z" fill="#FFF"/>
        <path d="M42.5 55.667c-1.055-.608-1.917-.11-1.917 1.106v56.838c0 1.217.862 2.71 1.916 3.319l70.982 40.98c1.054.609 1.915.11 1.915-1.105V99.967c0-1.217-.86-2.71-1.915-3.32L42.5 55.668z" stroke="#33475C" stroke-linecap="round" stroke-linejoin="round"/>
        <path d="M113.481 96.648L42.5 55.668c-1.054-.61-1.915-.112-1.915 1.105v3.747l74.813 43.194v-3.748c0-1.216-.862-2.71-1.916-3.318" fill="#FF6C1F"/>
        <path d="M113.481 96.648L42.5 55.668c-1.054-.61-1.915-.112-1.915 1.105v3.747l74.813 43.194v-3.748c0-1.216-.862-2.71-1.916-3.318z" stroke="#33475C" stroke-linecap="round" stroke-linejoin="round"/>
        <path d="M45.4 73.257c0 1.824 1.294 4.064 2.875 4.977l58.956 34.039c1.58.912 2.874.166 2.874-1.66 0-1.825-1.293-4.064-2.874-4.977L48.275 71.598c-1.581-.913-2.874-.166-2.874 1.659" fill="#FFB593"/>
        <path d="M45.4 73.257c0 1.824 1.294 4.064 2.875 4.977l58.956 34.039c1.58.912 2.874.166 2.874-1.66 0-1.825-1.293-4.064-2.874-4.977L48.275 71.598c-1.581-.913-2.874-.166-2.874 1.659z" stroke="#33475C" stroke-linecap="round" stroke-linejoin="round"/>
        <path d="M45.4 73.257c0 1.824 1.294 4.064 2.875 4.977l58.956 34.039c1.58.912 2.874.166 2.874-1.66 0-1.825-1.293-4.064-2.874-4.977L48.275 71.598c-1.581-.913-2.874-.166-2.874 1.659z" stroke="#33475C" stroke-linecap="round" stroke-linejoin="round"/>
        <path d="M47.053 83.873c-.464-.268-.844-.048-.844.487v25.042c0 .536.38 1.195.844 1.462l31.273 18.056c.465.268.845.049.845-.487v-25.042c0-.536-.38-1.194-.845-1.462L47.053 83.873z" fill="#EAF0F6"/>
        <path d="M93.065 109.453l16.377 9.455" stroke="#7C98B6" stroke-linecap="round" stroke-linejoin="round"/>
        <path d="M86.608 108.102l22.835 13.255" fill="#33475C"/>
        <path d="M86.608 108.102l22.835 13.255" stroke="#CBD6E3" stroke-linecap="round" stroke-linejoin="round"/>
        <path d="M93.065 114.352l16.377 9.455" fill="#33475C"/>
        <path d="M93.065 114.352l16.377 9.455" stroke="#D4E7F7" stroke-linecap="round" stroke-linejoin="round"/>
        <path d="M93.065 124.027l16.377 9.456" stroke="#7C98B6" stroke-linecap="round" stroke-linejoin="round"/>
        <path d="M86.608 122.677l22.835 13.256" fill="#33475C"/>
        <path d="M86.608 122.677l22.835 13.256" stroke="#CBD6E3" stroke-linecap="round" stroke-linejoin="round"/>
        <path d="M93.065 128.927l16.377 9.455" fill="#33475C"/>
        <path d="M93.065 128.927l16.377 9.455" stroke="#D4E7F7" stroke-linecap="round" stroke-linejoin="round"/>
        <path d="M88.68 128.927l20.763 11.904" fill="#33475C"/>
        <path d="M88.68 128.927l20.763 11.904" stroke="#D4E7F7" stroke-linecap="round" stroke-linejoin="round"/>
        <path d="M93.065 138.602l16.377 9.456" stroke="#7C98B6" stroke-linecap="round" stroke-linejoin="round"/>
        <path d="M86.608 137.25l22.835 13.257" fill="#33475C"/>
        <path d="M86.608 137.25l22.835 13.257" stroke="#CBD6E3" stroke-linecap="round" stroke-linejoin="round"/>
        <path d="M93.065 143.5l16.377 9.456" fill="#33475C"/>
        <path d="M93.065 143.5l16.377 9.456" stroke="#D4E7F7" stroke-linecap="round" stroke-linejoin="round"/>
        <path d="M5.093 77.692c-1.054-.608-1.917-.11-1.917 1.106v56.838c0 1.217.862 2.71 1.917 3.318l70.981 40.982c1.055.608 1.916.11 1.916-1.106v-56.838c0-1.217-.861-2.71-1.915-3.319L5.091 77.693z" stroke="#33475C" stroke-width="5" stroke-linecap="round" stroke-linejoin="round"/>
        <path d="M5.093 77.692c-1.054-.608-1.917-.11-1.917 1.106v56.838c0 1.217.862 2.71 1.917 3.318l70.981 40.982c1.055.608 1.916.11 1.916-1.106v-56.838c0-1.217-.861-2.71-1.915-3.319L5.091 77.693z" stroke="#33475C" stroke-width="5" stroke-linecap="round" stroke-linejoin="round"/>
        <path d="M76.074 118.674L5.092 77.693c-1.054-.61-1.915-.111-1.915 1.106v3.747L77.99 125.74v-3.748c0-1.216-.862-2.71-1.916-3.318zM7.994 95.282c0 1.824 1.293 4.064 2.874 4.977l58.956 34.04c1.58.911 2.874.165 2.874-1.66 0-1.826-1.293-4.066-2.874-4.978L10.868 93.623c-1.581-.913-2.874-.166-2.874 1.66z" stroke="#33475C" stroke-width="5" stroke-linecap="round" stroke-linejoin="round"/>
        <path d="M7.994 95.282c0 1.824 1.293 4.064 2.874 4.977l58.956 34.04c1.58.911 2.874.165 2.874-1.66 0-1.826-1.293-4.066-2.874-4.978L10.868 93.623c-1.581-.913-2.874-.166-2.874 1.66z" stroke="#33475C" stroke-width="5" stroke-linecap="round" stroke-linejoin="round"/>
        <path d="M5.093 77.692c-1.054-.608-1.917-.11-1.917 1.106v56.838c0 1.217.862 2.71 1.917 3.318l70.981 40.982c1.055.608 1.916.11 1.916-1.106v-56.838c0-1.217-.861-2.71-1.915-3.319L5.091 77.693z" stroke="#33475C" stroke-width="5" stroke-linecap="round" stroke-linejoin="round"/>
        <path d="M5.093 77.692c-1.054-.608-1.917-.11-1.917 1.106v56.838c0 1.217.862 2.71 1.917 3.318l70.981 40.982c1.055.608 1.916.11 1.916-1.106v-56.838c0-1.217-.861-2.71-1.915-3.319L5.091 77.693z" stroke="#33475C" stroke-width="5" stroke-linecap="round" stroke-linejoin="round"/>
        <path d="M76.074 118.674L5.092 77.693c-1.054-.61-1.915-.111-1.915 1.106v3.747L77.99 125.74v-3.748c0-1.216-.862-2.71-1.916-3.318zM7.994 95.282c0 1.824 1.293 4.064 2.874 4.977l58.956 34.04c1.58.911 2.874.165 2.874-1.66 0-1.826-1.293-4.066-2.874-4.978L10.868 93.623c-1.581-.913-2.874-.166-2.874 1.66z" stroke="#33475C" stroke-width="5" stroke-linecap="round" stroke-linejoin="round"/>
        <path d="M7.994 95.282c0 1.824 1.293 4.064 2.874 4.977l58.956 34.04c1.58.911 2.874.165 2.874-1.66 0-1.826-1.293-4.066-2.874-4.978L10.868 93.623c-1.581-.913-2.874-.166-2.874 1.66zM9.647 105.898c-.464-.268-.844-.049-.844.487v25.042c0 .536.38 1.195.844 1.462l31.273 18.056c.465.268.845.05.845-.487v-25.042c0-.537-.38-1.194-.845-1.462L9.647 105.898zM55.658 131.478l16.377 9.455M49.2 130.127l22.836 13.256M55.658 136.377l16.377 9.456M51.274 136.377l20.762 11.905M55.658 146.053l16.377 9.456M49.2 144.702l22.836 13.256M55.658 150.952l16.377 9.455M51.274 150.952l20.762 11.904M55.658 160.628l16.377 9.455M49.2 159.276l22.836 13.256M55.658 165.526l16.377 9.455" stroke="#33475C" stroke-width="5" stroke-linecap="round" stroke-linejoin="round"/>
        <path d="M5.093 77.692c-1.054-.608-1.917-.11-1.917 1.106v56.838c0 1.217.862 2.71 1.917 3.318l70.981 40.982c1.055.608 1.916.11 1.916-1.106v-56.838c0-1.217-.861-2.71-1.915-3.319L5.091 77.693z" stroke="#33475C" stroke-width="5" stroke-linecap="round" stroke-linejoin="round"/>
        <path d="M5.093 77.692c-1.054-.608-1.917-.11-1.917 1.106v56.838c0 1.217.862 2.71 1.917 3.318l70.981 40.982c1.055.608 1.916.11 1.916-1.106v-56.838c0-1.217-.861-2.71-1.915-3.319L5.091 77.693z" stroke="#33475C" stroke-width="5" stroke-linecap="round" stroke-linejoin="round"/>
        <path d="M76.074 118.674L5.092 77.693c-1.054-.61-1.915-.111-1.915 1.106v3.747L77.99 125.74v-3.748c0-1.216-.862-2.71-1.916-3.318zM7.994 95.282c0 1.824 1.293 4.064 2.874 4.977l58.956 34.04c1.58.911 2.874.165 2.874-1.66 0-1.826-1.293-4.066-2.874-4.978L10.868 93.623c-1.581-.913-2.874-.166-2.874 1.66z" stroke="#33475C" stroke-width="5" stroke-linecap="round" stroke-linejoin="round"/>
        <path d="M7.994 95.282c0 1.824 1.293 4.064 2.874 4.977l58.956 34.04c1.58.911 2.874.165 2.874-1.66 0-1.826-1.293-4.066-2.874-4.978L10.868 93.623c-1.581-.913-2.874-.166-2.874 1.66z" stroke="#33475C" stroke-width="5" stroke-linecap="round" stroke-linejoin="round"/>
        <path d="M5.093 77.692c-1.054-.608-1.917-.11-1.917 1.106v56.838c0 1.217.862 2.71 1.917 3.318l70.981 40.982c1.055.608 1.916.11 1.916-1.106v-56.838c0-1.217-.861-2.71-1.915-3.319L5.091 77.693z" fill="#FFF"/>
        <path d="M5.093 77.692c-1.054-.608-1.917-.11-1.917 1.106v56.838c0 1.217.862 2.71 1.917 3.318l70.981 40.982c1.055.608 1.916.11 1.916-1.106v-56.838c0-1.217-.861-2.71-1.915-3.319L5.091 77.693z" stroke="#33475C" stroke-linecap="round" stroke-linejoin="round"/>
        <path d="M76.074 118.674L5.092 77.693c-1.054-.61-1.915-.111-1.915 1.106v3.747L77.99 125.74v-3.748c0-1.216-.862-2.71-1.916-3.318" fill="#F7C45B"/>
        <path d="M76.074 118.674L5.092 77.693c-1.054-.61-1.915-.111-1.915 1.106v3.747L77.99 125.74v-3.748c0-1.216-.862-2.71-1.916-3.318z" stroke="#33475C" stroke-linecap="round" stroke-linejoin="round"/>
        <path d="M7.994 95.282c0 1.824 1.293 4.064 2.874 4.977l58.956 34.04c1.58.911 2.874.165 2.874-1.66 0-1.826-1.293-4.066-2.874-4.978L10.868 93.623c-1.581-.913-2.874-.166-2.874 1.66" fill="#E4EAEF"/>
        <path d="M7.994 95.282c0 1.824 1.293 4.064 2.874 4.977l58.956 34.04c1.58.911 2.874.165 2.874-1.66 0-1.826-1.293-4.066-2.874-4.978L10.868 93.623c-1.581-.913-2.874-.166-2.874 1.66" fill="#FAE1AE"/>
        <path d="M7.994 95.282c0 1.824 1.293 4.064 2.874 4.977l58.956 34.04c1.58.911 2.874.165 2.874-1.66 0-1.826-1.293-4.066-2.874-4.978L10.868 93.623c-1.581-.913-2.874-.166-2.874 1.66z" stroke="#33475C" stroke-linecap="round" stroke-linejoin="round"/>
        <path d="M9.647 105.898c-.464-.268-.844-.049-.844.487v25.042c0 .536.38 1.195.844 1.462l31.273 18.056c.465.268.845.05.845-.487v-25.042c0-.537-.38-1.194-.845-1.462L9.647 105.898z" fill="#EAF0F6"/>
        <path d="M55.658 131.478l16.377 9.455" stroke="#7C98B6" stroke-linecap="round" stroke-linejoin="round"/>
        <path d="M49.2 130.127l22.836 13.256" fill="#33475C"/>
        <path d="M49.2 130.127l22.836 13.256" stroke="#CBD6E3" stroke-linecap="round" stroke-linejoin="round"/>
        <path d="M55.658 136.377l16.377 9.456" fill="#33475C"/>
        <path d="M55.658 136.377l16.377 9.456" stroke="#D4E7F7" stroke-linecap="round" stroke-linejoin="round"/>
        <path d="M51.274 136.377l20.762 11.905" fill="#33475C"/>
        <path d="M51.274 136.377l20.762 11.905" stroke="#D4E7F7" stroke-linecap="round" stroke-linejoin="round"/>
        <path d="M55.658 146.053l16.377 9.456" stroke="#7C98B6" stroke-linecap="round" stroke-linejoin="round"/>
        <path d="M49.2 144.702l22.836 13.256" fill="#33475C"/>
        <path d="M49.2 144.702l22.836 13.256" stroke="#CBD6E3" stroke-linecap="round" stroke-linejoin="round"/>
        <path d="M55.658 150.952l16.377 9.455" fill="#33475C"/>
        <path d="M55.658 150.952l16.377 9.455" stroke="#D4E7F7" stroke-linecap="round" stroke-linejoin="round"/>
        <path d="M51.274 150.952l20.762 11.904" fill="#33475C"/>
        <path d="M51.274 150.952l20.762 11.904" stroke="#D4E7F7" stroke-linecap="round" stroke-linejoin="round"/>
        <path d="M55.658 160.628l16.377 9.455" stroke="#7C98B6" stroke-linecap="round" stroke-linejoin="round"/>
        <path d="M49.2 159.276l22.836 13.256" fill="#33475C"/>
        <path d="M49.2 159.276l22.836 13.256" stroke="#CBD6E3" stroke-linecap="round" stroke-linejoin="round"/>
        <g>
            <path d="M55.658 165.526l16.377 9.455" fill="#33475C"/>
            <path d="M55.658 165.526l16.377 9.455" stroke="#D4E7F7" stroke-linecap="round" stroke-linejoin="round"/>
        </g>
        <path d="M152.526 50.62L78.92 8.854l-.758-.258v.022c-1.031-.272-2.23-.303-3.324-.103 1.427-.161 3.324.428 3.324 4.713v8.516l75.015 43.363V52.244c0-.902-.162-1.283-.651-1.624z" stroke="#33475C" stroke-width="5" stroke-linecap="round" stroke-linejoin="round"/>
        <path d="M78.92 8.854c-1.608-.698-4.103-.654-5.636.121L40.854 26.91 6.584 46.694c-.627.361-1.212.921-1.697 1.581-.162.221-.313.451-.45.69-.139.24-.263.485-.373.735-.109.25-.204.505-.28.758-.156.51-.24 1.02-.24 1.502v12.864l74.616 43.081V95.041c0-.965.342-2.04.893-2.996.552-.955 1.312-1.789 2.148-2.27l69.294-38.902c.782-.452 1.49-.506 2.03-.253L78.918 8.854z" stroke="#33475C" stroke-width="5" stroke-linecap="round" stroke-linejoin="round"/>
        <path d="M77.915 91.894L4.718 49.634c-.048.096-.103.19-.146.288-.1.23-.188.463-.259.698-.143.472-.216.922-.216 1.34v12.544l73.511 42.443V95.04c0-.906.28-1.912.77-2.878l-.463-.268z" stroke="#33475C" stroke-width="5" stroke-linecap="round" stroke-linejoin="round"/>
        <path d="M152.526 50.62L78.92 8.854l-.758-.258v.022c-1.031-.272-2.23-.303-3.324-.103 1.427-.161 3.324.428 3.324 4.713v8.516l75.015 43.363V52.244c0-.902-.162-1.283-.651-1.624" fill="#CBD6E3"/>
        <path d="M152.526 50.62L78.92 8.854l-.758-.258v.022c-1.031-.272-2.23-.303-3.324-.103 1.427-.161 3.324.428 3.324 4.713v8.516l75.015 43.363V52.244c0-.902-.162-1.283-.651-1.624z" stroke="#33475C" stroke-linecap="round" stroke-linejoin="round"/>
        <path d="M78.92 8.854c-1.608-.698-4.103-.654-5.636.121L40.854 26.91 6.584 46.694c-.627.361-1.212.921-1.697 1.581-.162.221-.313.451-.45.69-.139.24-.263.485-.373.735-.109.25-.204.505-.28.758-.156.51-.24 1.02-.24 1.502v12.864l74.616 43.081V95.041c0-.965.342-2.04.893-2.996.552-.955 1.312-1.789 2.148-2.27l69.294-38.902c.782-.452 1.49-.506 2.03-.253L78.918 8.854z" fill="#EAF0F6"/>
        <path d="M78.92 8.854c-1.608-.698-4.103-.654-5.636.121L40.854 26.91 6.584 46.694c-.627.361-1.212.921-1.697 1.581-.162.221-.313.451-.45.69-.139.24-.263.485-.373.735-.109.25-.204.505-.28.758-.156.51-.24 1.02-.24 1.502v12.864l74.616 43.081V95.041c0-.965.342-2.04.893-2.996.552-.955 1.312-1.789 2.148-2.27l69.294-38.902c.782-.452 1.49-.506 2.03-.253L78.918 8.854z" stroke="#33475C" stroke-linecap="round" stroke-linejoin="round"/>
        <path d="M77.915 91.894L4.718 49.634c-.048.096-.103.19-.146.288-.1.23-.188.463-.259.698-.143.472-.216.922-.216 1.34v12.544l73.511 42.443V95.04c0-.906.28-1.912.77-2.878l-.463-.268z" fill="#CBD6E3"/>
        <path d="M88.763 46.209c6.812 3.933 6.812 10.368 0 14.3-6.812 3.934-17.96 3.934-24.771 0-6.812-3.932-6.812-10.367 0-14.3 6.812-3.934 17.959-3.934 24.77 0" fill="#CEDAE6"/>
        <path d="M90.23 27.155c2.646 1.527 2.646 4.028 0 5.556l-.847.49c-2.647 1.527-6.977 1.527-9.623 0l-16.928-9.774c-2.646-1.528-2.654-4.042-.018-5.586l.806-.473c2.637-1.545 6.96-1.559 9.606-.03l17.004 9.817zM90.23 48.09c2.646 1.528 2.646 4.029 0 5.557l-.847.489c-2.647 1.528-6.977 1.528-9.623 0l-16.928-9.774c-2.646-1.527-2.654-4.042-.018-5.585l.806-.473c2.637-1.545 6.96-1.56 9.606-.03L90.23 48.09z" stroke="#33475C" stroke-width="5" stroke-linecap="round" stroke-linejoin="round"/>
        <path d="M60.842 20.64c.003 1.013.667 2.023 1.99 2.788L79.759 33.2c2.647 1.528 6.978 1.528 9.624 0l.847-.49c1.147-.662 1.766-1.508 1.919-2.376l.066.023v20.795l-.044-.013c-.109.915-.737 1.812-1.941 2.507l-.847.489c-2.646 1.528-6.977 1.528-9.624 0l-16.927-9.773c-1.011-.583-1.631-1.312-1.871-2.075-.074-.235-.118-.473-.119-.712V20.64z" stroke="#33475C" stroke-width="5" stroke-linecap="round" stroke-linejoin="round"/>
        <path d="M86.252 30.991c1.534 0 2.778-1.243 2.778-2.777v-4.786c0-7.196-4.88-15.65-11.112-19.249-3.435-1.98-6.95-2.219-9.645-.666-2.697 1.558-4.245 4.724-4.245 8.686v6.176c0 1.534 1.244 2.778 2.778 2.778s2.778-1.244 2.778-2.778V12.2c0-1.923.535-3.335 1.466-3.874.933-.537 2.426-.296 4.09.668 4.517 2.606 8.334 9.218 8.334 14.435v4.786c0 1.534 1.244 2.777 2.778 2.777z" stroke="#33475C" stroke-width="5" stroke-linecap="round" stroke-linejoin="round"/>
        <path d="M90.23 27.155c2.646 1.527 2.646 4.028 0 5.556l-.847.49c-2.647 1.527-6.977 1.527-9.623 0l-16.928-9.774c-2.646-1.528-2.654-4.042-.018-5.586l.806-.473c2.637-1.545 6.96-1.559 9.606-.03l17.004 9.817z" fill="#FBE1B2"/>
        <path d="M90.23 27.155c2.646 1.527 2.646 4.028 0 5.556l-.847.49c-2.647 1.527-6.977 1.527-9.623 0l-16.928-9.774c-2.646-1.528-2.654-4.042-.018-5.586l.806-.473c2.637-1.545 6.96-1.559 9.606-.03l17.004 9.817z" stroke="#33475C"/>
        <path d="M90.23 48.09c2.646 1.528 2.646 4.029 0 5.557l-.847.489c-2.647 1.528-6.977 1.528-9.623 0l-16.928-9.774c-2.646-1.527-2.654-4.042-.018-5.585l.806-.473c2.637-1.545 6.96-1.56 9.606-.03L90.23 48.09z" fill="#FFF"/>
        <path d="M90.23 48.09c2.646 1.528 2.646 4.029 0 5.557l-.847.489c-2.647 1.528-6.977 1.528-9.623 0l-16.928-9.774c-2.646-1.527-2.654-4.042-.018-5.585l.806-.473c2.637-1.545 6.96-1.56 9.606-.03L90.23 48.09z" stroke="#33475C" stroke-linecap="round" stroke-linejoin="round"/>
        <path d="M60.842 20.64c.003 1.013.667 2.023 1.99 2.788L79.759 33.2c2.647 1.528 6.978 1.528 9.624 0l.847-.49c1.147-.662 1.766-1.508 1.919-2.376l.066.023v20.795l-.044-.013c-.109.915-.737 1.812-1.941 2.507l-.847.489c-2.646 1.528-6.977 1.528-9.624 0l-16.927-9.773c-1.011-.583-1.631-1.312-1.871-2.075-.074-.235-.118-.473-.119-.712V20.64z" fill="#F6C364"/>
        <path d="M60.842 20.64c.003 1.013.667 2.023 1.99 2.788L79.759 33.2c2.647 1.528 6.978 1.528 9.624 0l.847-.49c1.147-.662 1.766-1.508 1.919-2.376l.066.023v20.795l-.044-.013c-.109.915-.737 1.812-1.941 2.507l-.847.489c-2.646 1.528-6.977 1.528-9.624 0l-16.927-9.773c-1.011-.583-1.631-1.312-1.871-2.075-.074-.235-.118-.473-.119-.712V20.64z" stroke="#33475C"/>
        <path d="M86.252 30.991c1.534 0 2.778-1.243 2.778-2.777v-4.786c0-7.196-4.88-15.65-11.112-19.249-3.435-1.98-6.95-2.219-9.645-.666-2.697 1.558-4.245 4.724-4.245 8.686v6.176c0 1.534 1.244 2.778 2.778 2.778s2.778-1.244 2.778-2.778V12.2c0-1.923.535-3.335 1.466-3.874.933-.537 2.426-.296 4.09.668 4.517 2.606 8.334 9.218 8.334 14.435v4.786c0 1.534 1.244 2.777 2.778 2.777" fill="#F9D28C"/>
        <path d="M86.252 30.991c1.534 0 2.778-1.243 2.778-2.777v-4.786c0-7.196-4.88-15.65-11.112-19.249-3.435-1.98-6.95-2.219-9.645-.666-2.697 1.558-4.245 4.724-4.245 8.686v6.176c0 1.534 1.244 2.778 2.778 2.778s2.778-1.244 2.778-2.778V12.2c0-1.923.535-3.335 1.466-3.874.933-.537 2.426-.296 4.09.668 4.517 2.606 8.334 9.218 8.334 14.435v4.786c0 1.534 1.244 2.777 2.778 2.777z" stroke="#33475C"/>
    </g>
</svg>
