<svg width="300" height="270" xmlns="http://www.w3.org/2000/svg"><g fill="none" fill-rule="evenodd"><path d="M77.368 265.422C71.014 264.048-5.324 251.669.295 160.367 5.915 69.064 12.968 41.607 42.647 31.56c29.68-10.045 101.824-57.58 158.437-12.382 56.612 45.198 117.702 85.735 93.459 157.903-24.243 72.167-28.211 96.239-91.46 92.558-63.25-3.684-95.503 2.319-125.715-4.218" fill="#F8F8F8"/><path d="M68.63 249.647c-2.58-.323-3.53-.712-2.288-1.178 8.637-3.243 47.366-3.288 66.153-3.354 18.81-.065 37.626-.038 56.429.194 6.972.086 13.944.208 20.916.36 3.485.075 6.97.158 10.456.247 1.743.045 9.613-.167 10.934 1.89.635.99-5.703 2.164-6.303 2.26-3.437.548-6.894.541-10.352.672-3.707.14-7.416.226-11.124.314-26.056.62-52.614.204-78.732.09-17.748-.079-38.911.655-56.088-1.495" fill="#EEE"/><path fill="#E3E3E3" d="M98.348 239.106h103.386v-88.044H98.348z"/><path d="M106.752 150.584h-7.788c-.632 0-1.504.956-.528.956h7.788c.632 0 1.504-.956.528-.956" fill="#5D7183"/><path fill="#EEE" d="M98.348 151.105l-20.511 13.496v76.303l20.511-.585v-89.214"/><path d="M99.08 161.64v-8.195c0-.736-1.465-.504-1.465.12v8.196c0 .735 1.465.503 1.465-.122M97.872 150.792l-20.576 13.45c-.82.537.378 1.002.951.627l20.577-13.45c.82-.537-.379-1.002-.952-.627" fill="#5D7183"/><path fill="#EEE" d="M201.734 151.105l20.51 13.496v76.303l-20.51-.585v-89.214"/><path d="M222.806 164.193l-16.676-10.972-3.288-2.164c-.767-.505-1.383-.49-2.333-.505-2.804-.043-5.612-.001-8.417-.001h-10.323c-.813 0-1.125 1.022-.139 1.022 6.11 0 12.223-.054 18.333 0 .315.002.454.075 1.047.027.4-.031.414.03.198-.063.095.04.196.12.278.182.926.704 1.967 1.294 2.938 1.934l10.088 6.637 7.172 4.72c.512.336 1.794-.374 1.122-.817" fill="#5D7183"/><path d="M202.466 161.94v-8.795c0-.736-1.465-.504-1.465.12v8.796c0 .735 1.465.503 1.465-.122" fill="#5D7183"/><path d="M102.286 128.546c4.079 26.518 23.897 37.96 23.897 37.96 48.33.106 76.572-36.927 76.572-36.927-21.152-4.122-27.183-36.962-27.183-36.962-20.442 27.84-73.286 35.93-73.286 35.93" fill="#FFF"/><path d="M149.793 157.227c-10.561-4.148-16.619-15.016-20.322-25.15-.194-.532-1.632-.115-1.448.389 3.754 10.273 9.92 21.283 20.623 25.487.458.18 1.77-.48 1.147-.726M161.939 152.649c-8.486-3.34-14.04-11.123-17.818-19.097-.247-.523-1.668-.074-1.449.388 3.844 8.114 9.484 16.034 18.12 19.434.458.18 1.77-.48 1.147-.725M184.73 138.533c-10.283-4.04-16.289-14.475-20.016-24.323-.201-.532-1.637-.11-1.448.388 3.78 9.989 9.89 20.564 20.318 24.66.458.18 1.77-.48 1.147-.725M173.335 145.59c-8.525-3.355-14.09-11.19-17.87-19.206-.246-.523-1.667-.075-1.448.388 3.844 8.156 9.496 16.13 18.171 19.544.458.18 1.77-.48 1.147-.725M110.973 126.412c-2.847.643-5.709 1.264-8.594 1.71-.277.042-.88.223-.817.618 2.064 13.039 8.463 25.09 18.368 33.852.4.353 1.76-.21 1.342-.58-9.861-8.723-16.206-20.678-18.261-33.66l-.817.619c3.016-.467 6.01-1.114 8.986-1.786.886-.2.673-.972-.207-.773" fill="#5D7183"/><path d="M151.28 163.53c18.84-5.264 36.316-16.21 49.436-30.729.936-1.035 1.87-2.086 2.717-3.195.154-.201-.043-.398-.239-.438-12.556-2.568-19.753-14.91-23.838-26.037-.196-.533-1.633-.115-1.449.388 4.187 11.404 11.57 23.844 24.41 26.47l-.24-.438c-2.385 3.121-5.235 5.943-8.09 8.626-6.957 6.538-14.775 12.183-23.201 16.675a97.943 97.943 0 01-19.714 7.905c-.867.242-.67 1.018.207.773" fill="#5D7183"/><path d="M222.245 164.585l-144.473-.03-.016 79.35a3.025 3.025 0 003.024 3.026l138.441.027a3.007 3.007 0 003.008-3.006l.016-79.367" fill="#F8F8F8"/><path d="M201.269 164.58l-123.498-.025-.013 61.881c-.001 7.982 6.468 14.455 14.45 14.456l82.177.017c22.273.004 40.333-18.048 40.337-40.321l.005-22.544c.001-7.435-6.024-13.463-13.458-13.464" fill="#FFF"/><path d="M222.312 164.064l-14.342-.003a1318443.734 1318443.734 0 00-76.297-.015l-36.049-.008-11.886-.002c-1.862 0-3.791-.146-5.65-.001-.082.006-.167 0-.25 0-.278 0-.8.243-.8.579l-.005 25.15-.008 41.765-.003 11.554c0 1.647.292 3.245 2.006 4.025.8.364 1.62.344 2.467.344l22.366.004 40.673.009 42.656.008 28.339.006c1.741 0 4.143.355 5.692-.607 2.54-1.578 1.742-5.879 1.742-8.413l.008-38.287.007-33.805v-1.84c0-.747-1.466-.523-1.467.116l-.004 24.449-.009 41.438-.002 12.11c0 1.529.106 3.415-1.9 3.761-.451.078-.929.036-1.383.036l-22.67-.004-40.244-.008-41.99-.009-28.37-.006c-1.455 0-3.987.464-5.298-.41-1.304-.87-1.152-2.266-1.152-3.592l.001-4.895.008-38.265.006-32.96v-1.79l-.8.579 14.342.002 34.45.008 41.847.008 36.049.007 11.886.003c1.862 0 3.792.146 5.65 0 .082-.006.167 0 .25 0 .82.001 1.118-1.041.134-1.041" fill="#5D7183"/><path d="M135.664 210.665c3.406 3.442 8.647 5.206 13.39 5.329 4.887.127 10.607-1.33 14.304-4.736.72-.663-.41-1.252-.979-.728-3.305 3.045-8.338 4.363-12.71 4.337a19.512 19.512 0 01-9.412-2.512 18.563 18.563 0 01-2.363-1.577 16.124 16.124 0 01-.718-.6c-.064-.057-.382-.365-.19-.172-.492-.497-1.857.117-1.322.659" fill="#5D7183"/><path d="M132.995 208.945c.025 1.93-1.128 3.509-2.575 3.528-1.447.018-2.64-1.53-2.666-3.46-.025-1.93 1.128-3.509 2.575-3.528 1.447-.019 2.64 1.53 2.666 3.46M170.553 208.453c.025 1.93-1.127 3.51-2.574 3.528-1.447.02-2.641-1.53-2.666-3.46-.025-1.929 1.127-3.508 2.574-3.527 1.447-.019 2.641 1.53 2.666 3.46" fill="#FF9C80"/><path d="M156.993 203.452c.065-1.193.853-2.338 2.18-2.23 1.183.098 1.984 1.203 2.044 2.323.042.792 1.51.597 1.473-.093-.241-4.473-6.934-4.278-7.17.093-.042.786 1.436.607 1.473-.093M137.586 203.305c.078-1.46 1.322-2.916 2.879-2.016.88.51 1.315 1.418 1.368 2.404.015.271 1.471.026 1.449-.388-.232-4.302-6.932-3.564-7.145.388-.012.227 1.425.051 1.449-.388" fill="#5D7183"/><path d="M169.191 94.825c-5.073 26.346-25.308 37.034-25.308 37.034-48.3-1.713-75.128-39.784-75.128-39.784C90.048 88.753 97.31 56.164 97.31 56.164c19.38 28.588 71.881 38.66 71.881 38.66" fill="#FFF"/><path d="M121.49 122.403c11.092-3.881 17.774-14.86 21.96-25.218.2-.494-1.25-.33-1.453.169-4.02 9.95-10.427 20.675-21.091 24.407-.951.333-.09.879.585.642M109.526 117.37c11.68-4.083 18.502-15.996 22.632-26.955.191-.506-1.262-.335-1.452.17-3.973 10.54-10.516 22.21-21.765 26.143-.952.333-.09.879.585.643M87.282 102.407c11.68-4.084 18.502-15.997 22.632-26.955.191-.506-1.262-.335-1.452.169-3.973 10.54-10.516 22.21-21.765 26.144-.951.332-.091.878.585.642M98.404 109.89c11.68-4.085 18.502-15.998 22.632-26.957.191-.505-1.262-.335-1.452.17-3.973 10.54-10.516 22.21-21.765 26.143-.952.333-.091.88.585.643" fill="#5D7183"/><path d="M165.102 106.154c-3.97 9.438-10.546 17.935-18.995 23.783-.744.515-1.505 1.059-2.308 1.479-.114.059-.242.177-.367.206.538-.123-.005-.192-.21-.233-.368-.072-.79-.038-1.166-.06a91.848 91.848 0 01-20.336-3.499c-17.242-5.008-32.907-15.023-45.331-27.916-2.462-2.555-4.912-5.223-6.963-8.128l-.764.714c15.452-2.528 23.931-18.574 28.187-32.154.441-1.406.865-2.827 1.187-4.267l-1.397.375c8.562 12.496 22.169 20.773 35.714 26.927.452.205 1.77-.442 1.147-.726-13.49-6.128-26.994-14.338-35.519-26.781-.27-.395-1.305-.037-1.397.374-.818 3.652-2.091 7.243-3.507 10.7-2.794 6.817-6.59 13.564-12.092 18.566-3.424 3.113-7.54 5.385-12.137 6.137-.267.044-1.055.303-.764.714 1.79 2.535 3.898 4.877 6.017 7.134a110.416 110.416 0 0017.292 14.935c8.53 5.956 17.924 10.664 27.867 13.743a93.563 93.563 0 0022.476 4.03c.881.048 1.811.247 2.631-.127.57-.26 1.11-.649 1.632-.988 9.206-5.967 16.326-15.05 20.555-25.107.205-.486-1.243-.327-1.452.17" fill="#5D7183"/><path d="M130.9 68.535c5.688 26.22 26.167 36.432 26.167 36.432 48.247-2.843 74.178-41.53 74.178-41.53-21.365-2.824-29.387-35.234-29.387-35.234C183.152 57.237 130.9 68.535 130.9 68.535" fill="#FFF"/><path d="M130.176 68.729c2.565 11.602 8.574 22.232 17.427 30.19 2.332 2.096 4.844 4.03 7.535 5.646.41.247.885.614 1.347.76.942.297 2.293-.052 3.266-.138a93.047 93.047 0 005.402-.639c22.028-3.26 42.255-14.527 57.726-30.385 3.237-3.317 6.452-6.839 9.044-10.699.133-.197-.025-.408-.24-.438C216.636 60.924 208.1 44.92 203.752 31.9c-.428-1.283-.843-2.578-1.17-3.891-.133-.54-1.214-.122-1.401.166-7.639 11.761-19.834 19.976-32.162 26.19-10.108 5.094-20.8 9.07-31.695 12.115-2.16.604-4.333 1.192-6.527 1.668-.888.192-.673.964.208.773 6.461-1.4 12.826-3.437 19.05-5.64 12.791-4.53 25.398-10.345 36.331-18.464 6.223-4.622 11.91-10.059 16.15-16.587l-1.402.167c.966 3.887 2.44 7.698 4.08 11.344 3.133 6.962 7.33 13.84 13.36 18.663 3.556 2.845 7.704 4.811 12.233 5.444l-.239-.439c-1.993 2.968-4.393 5.705-6.811 8.325a109.047 109.047 0 01-19.903 16.96c-10.06 6.658-21.273 11.533-33.088 14.033a91.11 91.11 0 01-10.143 1.547c-1.252.12-2.467.625-3.515.044-2.204-1.224-4.27-2.72-6.219-4.312-9.839-8.045-16.525-19.28-19.263-31.666-.118-.53-1.571-.162-1.45.389" fill="#5D7183"/><path d="M179.956 94.251c-11.407-3.693-18.287-15.307-22.528-25.807-.214-.53-1.647-.1-1.449.389 4.364 10.805 11.394 22.45 23.1 26.24.487.157 1.698-.556.877-.822M191.8 88.94c-11.407-3.693-18.287-15.307-22.528-25.807-.214-.53-1.646-.1-1.449.389 4.365 10.805 11.394 22.45 23.1 26.24.488.157 1.698-.556.878-.822M213.689 73.46C202.28 69.768 195.4 58.153 191.16 47.654c-.214-.53-1.646-.101-1.449.388 4.365 10.805 11.394 22.45 23.1 26.24.488.158 1.698-.556.878-.822M202.745 81.2c-11.408-3.692-18.288-15.307-22.529-25.807-.214-.53-1.646-.1-1.449.389 4.365 10.805 11.394 22.45 23.1 26.24.488.158 1.698-.556.878-.822" fill="#5D7183"/></g></svg>