<svg width="300" height="253" xmlns="http://www.w3.org/2000/svg"><g fill="none" fill-rule="evenodd"><path d="M77.335 248.399c-6.351-1.287-82.656-12.872-77.04-98.318C5.912 64.635 12.963 38.938 42.63 29.537c29.666-9.401 101.78-53.887 158.368-11.588 56.588 42.299 117.65 80.236 93.419 147.775-24.231 67.539-28.2 90.067-91.421 86.62-27.555-1.501-49.224-1.282-67.404-1.063-23.533.284-41.22.568-58.256-2.882" fill="#F9F9F9"/><path d="M49.523 51.2h82.007c.4-7.868-3.506-15.746-10.48-19.407-6.976-3.66-16.047-2.88-22.294 1.919-5.59-4.818-11.398-9.76-18.45-11.93-7.054-2.171-15.744-.829-20.098 5.13-3.01 4.116-3.421 9.746-1.945 14.627-6.388-.05-12.777.1-19.155.45-3.638.2-8.597 1.26-8.778 4.898-.272 5.455 19.193 4.312 19.193 4.312M224.51 49.38c-1.523-.81-3.242-.945-4.91-.567-1.006.229-1.976.588-2.96.89-1.875.577-2.038 1.067-2.802-.564-.834-1.782.188-3.61-1.446-5.467a6.266 6.266 0 00-4.68-2.116 6.23 6.23 0 00-1.86.282c-1.236-2.908-2.664-5.69-5.019-7.954-4.682-4.501-11.827-6.38-17.934-3.857-2.74 1.133-5.139 3-7.068 5.239a23.054 23.054 0 00-2.648 3.796c-.684 1.224-.986 2.818-1.81 3.926-1.803-.679-3.468-1.575-5.35-2.094-3.684-1.016-7.69-1.215-10.916 1.184-2.648 1.969-4.325 5.527-3.47 8.816.486 1.865 1.37 3.245 3.26 3.271 2.675.038 5.352 0 8.026 0h66.262s-1.919-3.324-4.675-4.786M259.448 74.97c.875-4.581-.784-9.623-4.178-12.886-4.238-4.072-10.702-5.772-16.228-3.488-2.48 1.025-4.65 2.714-6.396 4.74a20.868 20.868 0 00-2.396 3.436c-.619 1.107-.893 2.55-1.638 3.553-1.632-.615-3.139-1.426-4.84-1.895-3.335-.92-6.961-1.1-9.88 1.07-2.431 1.809-3.952 5.094-3.106 8.101.3 1.067 1.083 2.812 2.28 2.913.347.03.71 0 1.058 0h40.195c.605 0 1.21.004 1.814 0 .71-.004.8-.133 1.221-.706a11.864 11.864 0 002.094-4.839M13.32 81.664c-.875-4.58.784-9.622 4.178-12.884 4.237-4.073 10.702-5.772 16.227-3.489 2.48 1.025 4.651 2.715 6.396 4.74a20.868 20.868 0 012.397 3.436c.619 1.107.892 2.55 1.637 3.553 1.633-.615 3.14-1.426 4.841-1.895 3.335-.92 6.96-1.1 9.88 1.07 2.431 1.809 3.951 5.094 3.106 8.102-.3 1.067-1.083 2.81-2.28 2.912-.347.03-.71 0-1.058 0H18.449c-.605 0-1.21.004-1.815 0-.709-.004-.799-.133-1.22-.705a11.866 11.866 0 01-2.095-4.84M60.07 175.143h82.007c.4-7.867-3.506-15.746-10.48-19.406-6.975-3.66-16.047-2.88-22.294 1.92-5.59-4.819-11.397-9.76-18.45-11.931-7.053-2.171-15.744-.829-20.098 5.13-3.009 4.116-3.421 9.746-1.945 14.627-6.388-.05-12.777.1-19.155.451-3.638.2-8.597 1.259-8.778 4.897-.271 5.455 19.193 4.312 19.193 4.312M235.057 173.323c-1.523-.808-3.242-.944-4.91-.566-1.005.228-1.975.588-2.96.89-1.875.577-2.038 1.067-2.802-.564-.834-1.781.188-3.61-1.445-5.467a6.27 6.27 0 00-4.681-2.116 6.23 6.23 0 00-1.86.282c-1.236-2.909-2.664-5.69-5.018-7.954-4.683-4.501-11.828-6.38-17.934-3.857-2.741 1.133-5.14 3-7.069 5.238a23.057 23.057 0 00-2.648 3.798c-.684 1.223-.986 2.817-1.81 3.925-1.803-.679-3.468-1.575-5.349-2.094-3.684-1.016-7.691-1.215-10.917 1.183-2.648 1.97-4.325 5.528-3.47 8.817.486 1.865 1.37 3.244 3.26 3.271 2.675.038 5.352 0 8.027 0h66.262s-1.92-3.324-4.676-4.786M172.804 237.415c-1.523-.809-3.242-.945-4.91-.566-1.005.228-1.975.588-2.96.89-1.875.577-2.038 1.067-2.801-.564-.835-1.782.187-3.61-1.446-5.467a6.27 6.27 0 00-4.681-2.117 6.23 6.23 0 00-1.86.283c-1.236-2.908-2.663-5.69-5.018-7.954-4.683-4.501-11.828-6.38-17.934-3.857-2.741 1.133-5.14 3-7.069 5.239a23.054 23.054 0 00-2.648 3.796c-.684 1.224-.986 2.818-1.809 3.926-1.804-.679-3.469-1.575-5.35-2.094-3.684-1.016-7.691-1.215-10.917 1.183-2.648 1.97-4.325 5.528-3.47 8.817.486 1.865 1.37 3.245 3.26 3.271 2.675.038 5.352 0 8.027 0h66.262s-1.92-3.324-4.676-4.786M269.996 198.913c.873-4.58-.785-9.622-4.18-12.884-4.236-4.073-10.7-5.773-16.226-3.49-2.48 1.026-4.651 2.716-6.397 4.741a20.876 20.876 0 00-2.396 3.436c-.619 1.107-.892 2.55-1.637 3.553-1.633-.615-3.14-1.426-4.842-1.896-3.334-.92-6.96-1.099-9.879 1.072-2.431 1.808-3.952 5.093-3.106 8.1.3 1.068 1.083 2.811 2.28 2.913.347.03.71 0 1.058 0h40.195c.605 0 1.21.004 1.814 0 .71-.004.8-.133 1.221-.705a11.865 11.865 0 002.095-4.84M23.866 205.608c-.874-4.58.785-9.622 4.18-12.884 4.237-4.072 10.7-5.773 16.226-3.49 2.48 1.026 4.651 2.716 6.397 4.741a20.856 20.856 0 012.396 3.436c.619 1.108.893 2.55 1.637 3.553 1.633-.615 3.14-1.426 4.841-1.895 3.335-.92 6.96-1.1 9.88 1.07 2.431 1.809 3.952 5.094 3.106 8.102-.3 1.067-1.083 2.81-2.28 2.912-.347.03-.71 0-1.058 0H28.996c-.605 0-1.21.004-1.814 0-.71-.004-.8-.133-1.221-.705a11.87 11.87 0 01-2.095-4.84" fill="#FFF"/><path d="M10.64 114.648c-.902 0-1.886-.267-2.083-1.076-.327-1.341 1.454-2.091 2.417-2.43l.579-.205.019-.007-.003.001h.004l.394-.14-.185.065.783-.277 5.868-2.079c11.863-4.211 23.719-8.447 35.545-12.761 5.4-1.97 10.799-3.949 16.167-6.006a198.978 198.978 0 005.178-2.044c.54-.225 1.077-.46 1.611-.7.135-.06.407-.242.414-.242l-.011.01c.695-.408 1.534-.664 2.336-.664.33 0 .653.043.958.137 1.14.35 1.571 1.474.63 2.352-1.006.939-2.42 1.437-3.672 1.955-2.056.851-4.136 1.646-6.216 2.436-12.039 4.58-24.175 8.908-36.302 13.247a5528.336 5528.336 0 01-23.205 8.248c-.304.107-.754.18-1.226.18m.932-3.718l.21-.074-.21.074M18.52 126.624c-.469 0-.874-.097-1.098-.367-.705-.853 1.046-1.638 1.648-1.85 2.672-.943 5.342-1.89 8.012-2.837 11.837-4.202 23.665-8.427 35.466-12.73 5.428-1.98 10.854-3.968 16.25-6.033a210.034 210.034 0 005.25-2.068c.318-.132.633-.27.95-.401a5.36 5.36 0 01.057-.023l.065-.033c.134-.068.282-.162.427-.22.946-.631 2.16-.951 3.26-.995l.065-.002c.628 0 2.303.302 1.353 1.188-1.086 1.014-2.642 1.532-3.987 2.09-2.029.844-4.082 1.628-6.135 2.41-12.014 4.575-24.127 8.894-36.23 13.225a5318.005 5318.005 0 01-22.729 8.08c-.479.17-1.68.566-2.625.566m66.875-26.48c-.006 0-.111.083-.403.356.09-.083.182-.162.279-.238a.047.047 0 01-.013.003c-.006 0-.002-.006.017-.02a.7.7 0 00.12-.101M63.999 135.798c-.398 0-.728-.077-.898-.283-.634-.77 1.205-1.436 1.711-1.614a5373.428 5373.428 0 0026.157-9.31c.426-.152 1.81-.614 2.788-.614.398 0 .728.077.898.283.635.77-1.206 1.433-1.71 1.614-8.712 3.123-17.43 6.23-26.157 9.31-.428.15-1.813.614-2.789.614M105.086 121.563c-.545 0-1.033-.122-1.31-.474-.745-.944.84-1.857 1.574-2.124 6.007-2.183 12.011-4.375 17.986-6.645 2.02-.768 4.039-1.54 6.038-2.36.608-.248 1.208-.513 1.811-.771.81-.627 2.082-1.026 3.171-1.026.255 0 .499.022.725.067 1.143.231 1.367 1.054.49 1.826-.941.826-2.285 1.268-3.423 1.745-1.93.808-3.886 1.556-5.84 2.303-6.232 2.38-12.5 4.664-18.769 6.943-.512.186-1.558.516-2.453.516M103.77 175.464c-.471 0-.901-.086-1.19-.321h3.065c-.533.164-1.24.321-1.876.321" fill="#F5F5F5"/><path d="M105.645 175.143h-3.066a.95.95 0 01-.15-.151c-.758-.961.857-1.829 1.575-2.124 4.902-2.016 9.8-4.044 14.695-6.075.492-.204 1.529-.515 2.422-.515.562 0 1.066.123 1.342.473.76.962-.857 1.827-1.574 2.124a5119.538 5119.538 0 01-14.696 6.075 6.467 6.467 0 01-.548.193" fill="#FAFAFA"/><path d="M94.688 212.388c-.56 0-1.064-.123-1.34-.473-.758-.96.856-1.829 1.574-2.124 2.62-1.077 5.24-2.16 7.857-3.242 11.607-4.8 23.205-9.624 34.77-14.524 5.32-2.253 10.637-4.516 15.92-6.854a250.069 250.069 0 005.34-2.426l.169-.088c.222-.113.447-.222.667-.341.152-.082.312-.205.473-.265h.002c.908-.653 2.056-.99 3.17-.99h.018c.683.002 2.461.498 1.5 1.49-1.05 1.087-2.557 1.677-3.898 2.315-1.984.944-3.993 1.834-6.004 2.72-11.765 5.182-23.641 10.114-35.507 15.057a5346.35 5346.35 0 01-22.287 9.23c-.493.203-1.53.515-2.424.515M56.138 211.626c-.577 0-1.13-.126-1.52-.473h3.706l-.08.033c-.533.219-1.341.44-2.106.44m16.507-6.391c-.225-1.21-.756-2.371-1.5-3.368a3919.03 3919.03 0 0027.428-11.484c5.307-2.249 10.61-4.506 15.88-6.839a200.687 200.687 0 005.159-2.346c.502-.24.997-.495 1.495-.743.014-.01.027-.02.039-.027a4.537 4.537 0 012.71-.94c.35 0 .693.048 1.009.153 1.181.392 1.57 1.55.666 2.485-.95.982-2.388 1.53-3.602 2.107-1.978.94-3.982 1.825-5.987 2.708-11.777 5.185-23.665 10.122-35.543 15.07a6872.908 6872.908 0 01-7.754 3.224" fill="#F5F5F5"/><path d="M58.324 211.153h-3.706a1.483 1.483 0 01-.225-.25c-.779-1.097.433-2.292 1.42-2.698a6664.833 6664.833 0 0015.332-6.338c.744.997 1.275 2.158 1.5 3.368-4.77 1.98-9.544 3.953-14.321 5.918" fill="#FAFAFA"/><path d="M166.253 181.172l-.291-.505-29.149-43.27s-31.41 18.437-30.545 14.585c.203-.905 17.385-38.415 17.385-38.415l-49.036-23.11a1.021 1.021 0 01-.565-1.151 1.02 1.02 0 01.997-.804l155.435-2.125c.431-.008.947.294 1.039.982.03.22.006.413-.054.577.02.267-.056.539-.23.76l-63.56 92.152-.325.406-1.101-.082" fill="#E5E5E5"/><path d="M164.111 171.05l-33.695-44.008s-.158-.417-1.21.636c-7.885 7.884-23.598 27.245-22.938 24.304.203-.905 17.385-38.415 17.385-38.415l-38.96-20.953c-1.139-.613-.716-2.34.578-2.357l143.914-1.891c.432-.008-58.15 82.792-58.15 82.792-1.727 2.364-5.273 2.309-6.924-.109" fill="#FFF"/><path d="M123.47 113.97l-17.202 38.012c1.828 1.827 22.452-24.252 22.452-24.252l1.162-.8 101.64-39.57-106.684 26.022c-.305.081-1.235.298-1.368.589" fill="#EFEFEF"/><path d="M136.501 136.995c-8.424 4.944-16.992 10.06-25.998 13.873-.929.393-1.887.812-2.875 1.033-.224.05-.595.137-.715.097.065.022.045.108.079-.077.127-.687-1.334-.496-1.447.12-.274 1.48 2.155.863 2.833.66 2.401-.714 4.696-1.868 6.937-2.968 5.987-2.939 11.818-6.202 17.608-9.509a410.289 410.289 0 004.202-2.426c.836-.49.071-1.211-.624-.803" fill="#6A79A8"/><path d="M122.789 113.898l-15.041 33.234-2.162 4.777c-.09.197-.027.344.128.477 1.03.883 2.866-.854 3.554-1.456 2.05-1.792 3.893-3.83 5.71-5.851 4.245-4.722 8.288-9.627 12.272-14.57.852-1.056 1.624-2.4 2.829-3.08.425-.24.896-.399 1.356-.578l8.736-3.401 33.547-13.06a1944414.386 1944414.386 0 0151.043-19.872c2.242-.873 4.588-1.627 6.774-2.637.097-.045.2-.079.3-.117.8-.312.259-1.047-.439-.877l-10.875 2.652-26.016 6.346-31.243 7.621-26.557 6.478c-3.986.972-7.99 1.89-11.962 2.918-.686.177-1.36.356-1.868.87-.625.631.756.836 1.191.397.583-.588 2.747-.765 3.475-.943l7.578-1.848 25.366-6.188 30.941-7.547 26.97-6.578 8.857-2.16 2.742-.67c.382-.093 1.145-.125 1.469-.358.042-.03.133-.033.185-.045l-.438-.877-16.508 6.426-35.693 13.896-35.183 13.697-10.915 4.25c-1.59.619-3.58 1.1-4.822 2.35-1.022 1.03-1.864 2.335-2.776 3.46a484.485 484.485 0 01-5.836 7.077c-2.159 2.564-4.344 5.107-6.606 7.58-1.668 1.826-3.36 3.754-5.327 5.268-.238.182-.551.33-.77.528-.251.227-.071-.011.047.09l.128.477 15.04-33.234 2.163-4.776c.33-.73-1.112-.705-1.364-.146" fill="#6A79A8"/><path d="M166.911 180.868c-1.087-1.888-2.414-3.657-3.63-5.462l-8.574-12.73-19.684-29.219-4.578-6.795c-.25-.373-1.019-.162-1.25.121a556.362 556.362 0 01-8.478 10.15c-3.994 4.675-7.964 9.706-12.65 13.72-.301.257-.612.497-.932.73-.409.297-.337.076-.197.223.423.446.356.038.577-.514.788-1.964 1.663-3.895 2.519-5.83 2.761-6.244 5.58-12.463 8.401-18.68 1.96-4.32 3.925-8.639 5.897-12.953.072-.157.058-.37-.122-.454-10.16-4.79-20.321-9.578-30.482-14.367L77.415 91.12c-.58-.274-1.248-.5-1.79-.844-.097-.061-.307-.093-.382-.18-.102-.119-.342-1.052-.259-1.109.224-.154 1.073-.015 1.332-.018l24.349-.333 42.715-.584a2383178.296 2383178.296 0 0179.33-1.084l4.603-.063c.835-.012 1.77-.144 2.599-.036.127.017.354-.06.47-.006.662.307.357 1.399.093 1.892-.384.72-.959 1.39-1.421 2.062l-18.35 26.603-26.17 37.944-16.757 24.296c-.33.48-.678.99-1.015 1.411l.85-.303-1.102-.082c-.655-.048-1.482.9-.514.972 1.111.083 1.686.177 2.384-.78.127-.173.245-.355.367-.532l2.064-2.992 8.408-12.191 25.862-37.496 22.45-32.55c1.434-2.08 3.05-4.118 4.339-6.291.872-1.47.168-2.906-1.503-2.932-.711-.011-1.426.02-2.138.03l-27.559.376-45.164.617-46.085.63-30.333.415c-1.364.019-4.54-.482-5.496.837-1.18 1.629 1.136 2.366 2.197 2.865l6.492 3.06 38.004 17.912 2.811 1.324-.122-.454c-4.811 10.523-9.618 21.05-14.299 31.633-.88 1.991-1.796 3.977-2.589 6.005-.098.252-.4.744-.3 1.03.229.64 1.204.368 1.638.174 1.827-.817 3.385-2.752 4.74-4.153 2.474-2.558 4.833-5.23 7.168-7.914a528.98 528.98 0 0011.046-13.132l-1.25.122 12.386 18.386 19.55 29.021c1.514 2.247 3.177 4.45 4.53 6.799.294.508 1.67.004 1.317-.61" fill="#6A79A8"/><path d="M177.802 133.109c2.75 8.1-.675 16.584-7.649 18.953-6.975 2.368-14.858-2.279-17.607-10.378-2.75-8.1.675-16.584 7.649-18.952 6.974-2.368 14.858 2.278 17.607 10.377" fill="#EA8571"/><path fill="#FFF" d="M169.864 144.15l-2.966.96-3.965-12.253-3.068.993-.736-2.274 5.864-2.482 4.871 15.057"/></g></svg>