<svg xmlns="http://www.w3.org/2000/svg" width="120" height="120" viewBox="0 0 120 120">
  <defs>
    <linearGradient id="world-class-service-a" x1="100%" x2="-7.711%" y1="121.766%" y2="-62.697%">
      <stop offset="0%" stop-color="#FFF"/>
      <stop offset="100%" stop-color="#8BBBFF"/>
    </linearGradient>
    <linearGradient id="world-class-service-b" x1="50%" x2="50%" y1="0%" y2="103.46%">
      <stop offset="0%" stop-color="#0069FF"/>
      <stop offset="100%" stop-color="#0069FF" stop-opacity="0"/>
    </linearGradient>
  </defs>
  <g fill="none" fill-rule="evenodd">
    <circle cx="60" cy="60" r="51" fill="url(#world-class-service-a)"/>
    <circle cx="60" cy="60" r="35" fill="#F9F9F9"/>
    <path stroke="url(#world-class-service-b)" stroke-dasharray="0 8.784" stroke-linecap="round" stroke-width="3" d="M116,5.13321332 C95.353092,12.7349441 80.4161488,32.2699633 79.4285714,55.4434443" transform="matrix(-1 0 0 1 195.429 0)"/>
    <path stroke="url(#world-class-service-b)" stroke-dasharray="0 8.784" stroke-linecap="round" stroke-width="3" d="M55.4285714,65.689769 C28.5494674,66.9572497 6.77010657,88.5412043 4,116" transform="matrix(1 0 0 -1 0 181.69)"/>
    <path stroke="#120078" stroke-width="2.196" d="M80.6692407,55.0784158 C80.8481555,54.9191667 80.9206216,54.6717109 80.8559074,54.4409901 C80.7930905,54.205127 80.6012118,54.0258819 80.3617897,53.9794059 L66.0543387,51.2978218 C65.8500322,51.2609635 65.67728,51.1251097 65.5931623,50.9351485 L61.0033583,40.3846535 C60.9029831,40.1520745 60.6745211,40.0010699 60.4213976,40 C60.1713948,40.0025661 59.9469014,40.153801 59.8504172,40.3846535 L55.2496329,50.8911881 C55.1688133,51.083691 54.99445,51.2208118 54.7884564,51.2538614 L40.5139466,53.9794059 C40.2745245,54.0258819 40.0826458,54.205127 40.0198289,54.4409901 C39.9604282,54.673767 40.0368395,54.9201991 40.217476,55.0784158 L50.0229662,63.6726733 C50.1898828,63.8210566 50.2651952,64.0471935 50.2206132,64.2661386 L47.695123,77.74 C47.6422842,77.9927799 47.7498492,78.252108 47.9660219,78.3931091 C48.1821945,78.5341102 48.4626652,78.5278828 48.6723779,78.3774257 L60.0919858,70.3986139 C60.1988455,70.3260605 60.3252158,70.2877326 60.4543387,70.2887129 C60.5836657,70.2862891 60.7104629,70.3247464 60.8166917,70.3986139 L72.2362995,78.3774257 C72.4508972,78.5264983 72.7354273,78.5264983 72.950025,78.3774257 C73.1610401,78.2341853 73.2684883,77.9803834 73.2245348,77.7290099 L70.655123,64.2661386 C70.6154892,64.0453556 70.6947206,63.8199727 70.8637505,63.6726733 L80.6692407,55.0784158 Z"/>
    <path fill="#6CA9FF" d="M72.0327768,57.0401465 C72.1385033,56.9446699 72.1813259,56.7963097 72.1430842,56.6579828 C72.1059637,56.5165729 71.9925763,56.4091079 71.851094,56.3812437 L63.396356,54.7735208 C63.2756246,54.7514227 63.1735397,54.6699726 63.1238318,54.5560829 L60.4115674,48.230616 C60.3522524,48.0911751 60.2172468,48.0006415 60.0676679,48 C59.9199331,48.0015385 59.7872726,48.0922102 59.730257,48.230616 L57.0115039,54.5297268 C56.963745,54.6451403 56.8607081,54.7273501 56.7389798,54.7471647 L48.3037077,56.3812437 C48.1622254,56.4091079 48.0488381,56.5165729 48.0117176,56.6579828 C47.9766157,56.7975424 48.0217697,56.9452888 48.1285136,57.0401465 L53.9228966,62.1927664 C54.0215331,62.2817284 54.0660376,62.417307 54.0396927,62.5485739 L52.5472984,70.6267223 C52.5160743,70.7782745 52.5796379,70.9337526 52.7073813,71.0182887 C52.8351248,71.1028248 53.000864,71.0990913 53.1247901,71.0088859 L59.8730077,66.2252515 C59.9361546,66.1817528 60.0108309,66.1587736 60.0871339,66.1593613 C60.1635574,66.1579081 60.238486,66.1809649 60.30126,66.2252515 L67.0494776,71.0088859 C67.1762904,71.0982611 67.3444285,71.0982611 67.4712412,71.0088859 C67.5959369,70.9230072 67.6594315,70.7708422 67.633458,70.6201332 L66.115109,62.5485739 C66.0916881,62.4162052 66.1385085,62.2810786 66.2383938,62.1927664 L72.0327768,57.0401465 Z"/>
    <path stroke="#0069FF" stroke-linecap="round" stroke-linejoin="round" stroke-width="2.196" d="M23.8862222,77.2324257 L23.8862222,81.6834158 C23.8862222,89.0580577 29.9035152,95.0363861 37.3262222,95.0363861 L44.7928889,95.0363861"/>
    <path fill="#FFF" stroke="#0069FF" stroke-linecap="round" stroke-linejoin="round" stroke-width="2.196" d="M26.8728889,65.3631188 L32.8462222,65.3631188 L32.8462222,80.1997525 L26.8728889,80.1997525 C25.2233984,80.1997525 23.8862222,78.871235 23.8862222,77.2324257 L23.8862222,68.3304455 C23.8862222,67.5434616 24.200888,66.7887104 24.7609966,66.2322287 C25.3211053,65.675747 26.0807756,65.3631188 26.8728889,65.3631188 Z"/>
    <path fill="#0069FF" d="M28.1568627,77.9742574 C28.1568627,79.8558533 29.9856479,81.3811881 32.2415686,81.3811881 C34.4974894,81.3811881 36.3262745,79.8558533 36.3262745,77.9742574 L36.3262745,67.7534653 C36.3262745,65.8718695 34.4974894,64.3465347 32.2415686,64.3465347 C29.9856479,64.3465347 28.1568627,65.8718695 28.1568627,67.7534653 L28.1568627,77.9742574 Z"/>
    <path fill="#FFF" stroke="#0069FF" stroke-linecap="round" stroke-linejoin="round" stroke-width="2.196" d="M89.5928889,65.3631188 L95.5662222,65.3631188 L95.5662222,80.1997525 L89.5928889,80.1997525 C87.9433984,80.1997525 86.6062222,78.871235 86.6062222,77.2324257 L86.6062222,68.3304455 C86.6062222,67.5434616 86.920888,66.7887104 87.4809966,66.2322287 C88.0411053,65.675747 88.8007756,65.3631188 89.5928889,65.3631188 Z" transform="rotate(180 91.086 72.781)"/>
    <path fill="#0069FF" d="M83.0588235 77.9742574C83.0588235 79.8558533 84.8876086 81.3811881 87.1435294 81.3811881 89.3994502 81.3811881 91.2282353 79.8558533 91.2282353 77.9742574L91.2282353 67.7534653C91.2282353 65.8718695 89.3994502 64.3465347 87.1435294 64.3465347 84.8876086 64.3465347 83.0588235 65.8718695 83.0588235 67.7534653L83.0588235 77.9742574zM53.7528889 95.0363861C53.7528889 97.4946001 51.7471246 99.4873762 49.2728889 99.4873762 46.7986532 99.4873762 44.7928889 97.4946001 44.7928889 95.0363861 44.7928889 92.5781722 46.7986532 90.585396 49.2728889 90.585396 51.7471246 90.585396 53.7528889 92.5781722 53.7528889 95.0363861z"/>
    <path stroke="#0069FF" stroke-linecap="round" stroke-linejoin="round" stroke-width="2.196" d="M23.8862222,72.7814356 L23.8862222,59.4284653 C23.8862222,39.7627537 39.9323368,23.8205446 59.7262222,23.8205446 C79.5201077,23.8205446 95.5662222,39.7627537 95.5662222,59.4284653 L95.5662222,72.7814356"/>
  </g>
</svg>
