<svg xmlns="http://www.w3.org/2000/svg" xmlns:xlink="http://www.w3.org/1999/xlink" viewBox="0 0 257 206"><defs><style>.cls-1{fill:none;}.cls-2{fill:url(#linear-gradient);}.cls-3{fill:#99acc2;}.cls-4{clip-path:url(#clip-path);}.cls-10,.cls-5{fill:#dfe3eb;}.cls-6{fill:#253342;}.cls-7{fill:#ff7a59;}.cls-13,.cls-14,.cls-8{fill:#fff;}.cls-11,.cls-9{stroke:#fff;stroke-width:0.44px;}.cls-10,.cls-11,.cls-12,.cls-9{stroke-miterlimit:10;}.cls-10{stroke:#eaf0f6;stroke-width:0.65px;}.cls-11{fill:#eaf0f6;}.cls-12,.cls-17{fill:#ea1f5e;}.cls-12{stroke:#253342;stroke-width:0.71px;}.cls-13{opacity:0.23;}.cls-14{opacity:0.17;}.cls-15{fill:#cbd6e2;opacity:0.66;}.cls-16{clip-path:url(#clip-path-2);}.cls-18{fill:#2d3e50;}</style><linearGradient id="linear-gradient" x1="128.49" y1="199.06" x2="128.64" y2="185.69" gradientUnits="userSpaceOnUse"><stop offset="0.15" stop-color="#cbd6e2"/><stop offset="0.75" stop-color="#99acc2"/></linearGradient><clipPath id="clip-path"><rect class="cls-1" x="7.4" y="21.17" width="242.11" height="144.49" rx="11.99"/></clipPath><clipPath id="clip-path-2"><path class="cls-1" d="M142.19,62.88A62.2,62.2,0,1,1,80,.69a62.19,62.19,0,0,1,62.19,62.19"/></clipPath></defs><g id="notifcation-base"><path class="cls-2" d="M116.12,172.67a138.44,138.44,0,0,1-1.49,17.65c-1.55,10.25-5.5,15.32-5.5,15.32h38.58a32.22,32.22,0,0,1-6.19-15.07c-1.26-9.63-2.66-19.83-2-17.9Z"/><rect class="cls-3" x="0.13" y="12.81" width="256.74" height="164.74" rx="13.19"/><rect class="cls-3" x="89.79" y="198.03" width="76.29" height="7.61" rx="1.52"/><rect class="cls-1" x="7.4" y="21.17" width="242.11" height="144.49" rx="11.99"/></g><g id="Bell_notifs_rev" data-name="Bell notifs rev"><g class="cls-4"><rect class="cls-5" x="7.4" y="21.17" width="242.11" height="147.59"/><rect class="cls-6" x="7.4" y="23.41" width="242.11" height="19.85"/><rect class="cls-7" x="7.4" y="21.17" width="242.11" height="2.87"/><path class="cls-8" d="M133.68,38.82l-2.8-2.8a3.57,3.57,0,0,0,.75-2.2,3.58,3.58,0,1,0-1.39,2.85h0L133,39.48a.47.47,0,0,0,.31.11.45.45,0,0,0,.46-.46.43.43,0,0,0-.12-.31h0ZM128,36.5a2.68,2.68,0,1,1,2.68-2.68h0A2.68,2.68,0,0,1,128,36.5Z"/><path class="cls-8" d="M152.32,35a1.14,1.14,0,0,1-.85-.71s0,0-.07,0l0,0a1.18,1.18,0,0,1-1.1.75,1.42,1.42,0,0,1-1.35-.75s-.07-.07-.11,0a1.33,1.33,0,0,1-1.21.75,1.39,1.39,0,0,1-1.31-.75s-.07,0-.07,0c-.32.5-.5.75-1.14.75a1,1,0,0,1-.43-.07v4.65h8.14V35A.89.89,0,0,1,152.32,35Zm-3.48,1.21a.24.24,0,0,1,.25-.25h2.55a.24.24,0,0,1,.25.25v1.5a.23.23,0,0,1-.25.24h-2.55a.23.23,0,0,1-.25-.24Zm-3.13,3.09V36.61a.25.25,0,0,1,.25-.25h1.35a.25.25,0,0,1,.25.25v2.7h-1.85Z"/><path class="cls-8" d="M146.35,30.21,146,33.62a1.06,1.06,0,0,1-1.14.86c-.64,0-1.21-.39-1.14-.86s1-3.41,1-3.41Z"/><path class="cls-8" d="M148.73,30.21v3.41c0,.5-.5.86-1.14.86s-1.13-.39-1.13-.86.28-3.41.28-3.41Z"/><path class="cls-8" d="M149.09,30.21v3.41c0,.5.49.86,1.13.86s1.14-.39,1.14-.86l-.28-3.41Z"/><path class="cls-8" d="M151.4,30.21l.35,3.41c0,.5.5.86,1.14.86s1.14-.39,1.14-.86l-.93-3.41Z"/><path class="cls-8" d="M166.08,35.35H167a3.32,3.32,0,0,0,.28.69v0l-.61.61a.74.74,0,0,0,0,1l.26.26a.71.71,0,0,0,.52.22.73.73,0,0,0,.52-.22h0l.6-.6a3.42,3.42,0,0,0,.65.27h0v.86a.72.72,0,0,0,.72.72h.36a.72.72,0,0,0,.72-.72h0V37.6a3.87,3.87,0,0,0,.72-.29h0l.61.61a.71.71,0,0,0,1,0l.26-.26a.75.75,0,0,0,.22-.52.73.73,0,0,0-.22-.51h0L173,36a3,3,0,0,0,.27-.65v0h.86a.72.72,0,0,0,.72-.72h0v-.36a.72.72,0,0,0-.72-.72h-.86a3.29,3.29,0,0,0-.29-.71h0l.61-.61a.73.73,0,0,0,.22-.51.75.75,0,0,0-.22-.52h0l-.25-.26a.71.71,0,0,0-1,0h0l-.62.61a3.17,3.17,0,0,0-.65-.27h0v-.86a.72.72,0,0,0-.72-.72h-.36a.72.72,0,0,0-.72.72h0v.86a3.61,3.61,0,0,0-.72.29h0l-.6-.61a.73.73,0,0,0-.53-.22.71.71,0,0,0-.52.22h0l-.25.25a.74.74,0,0,0,0,1h0l.61.62a3.17,3.17,0,0,0-.27.65v0h-.86a.71.71,0,0,0-.71.72h0v.38a.72.72,0,0,0,.72.72Zm1.9-1.46c0-.09.05-.16.07-.23v0l.06-.16a2.23,2.23,0,0,1,1.07-1.07h0l.15-.07a2.06,2.06,0,0,1,.57-.12h.38a2.21,2.21,0,0,1,.59.14h0l.15.07a2.21,2.21,0,0,1,1.07,1.06h0l.06.16a2.38,2.38,0,0,1,.13.57h0v.36a2.29,2.29,0,0,1-.14.6v0l-.06.15A2.25,2.25,0,0,1,171,36.43h0l-.15.06a2.07,2.07,0,0,1-.57.13h-.38a2.21,2.21,0,0,1-.59-.13h0l-.15-.06a2.16,2.16,0,0,1-1.07-1.06v0l-.06-.15a2,2,0,0,1-.13-.57h0v-.36a2.28,2.28,0,0,1,.06-.39Z"/><path class="cls-8" d="M168.66,34.62a1.56,1.56,0,0,0,.1.37h0v0a1.45,1.45,0,0,0,.2.32h0v0a1.1,1.1,0,0,0,.21.22h0a1.08,1.08,0,0,0,.31.19h0a1.79,1.79,0,0,0,.35.09h.38a1.56,1.56,0,0,0,.37-.1h0a1.45,1.45,0,0,0,.32-.2h0a2.18,2.18,0,0,0,.22-.21h0v0a1.61,1.61,0,0,0,.19-.31h0v0a1.06,1.06,0,0,0,.09-.35h0v0s0-.05,0-.08,0,0,0-.08h0s0,0,0-.08,0-.06,0-.08h0v0a1.18,1.18,0,0,0-.09-.37h0v0a1.42,1.42,0,0,0-.19-.32h0v0a2.28,2.28,0,0,0-.22-.22h0l0,0a1.61,1.61,0,0,0-.31-.19h0a1.06,1.06,0,0,0-.36-.09h-.37a1.12,1.12,0,0,0-.37.09h0a1.5,1.5,0,0,0-.33.19h0a1.14,1.14,0,0,0-.22.22h0v0a1.23,1.23,0,0,0-.19.31h0v0a1.9,1.9,0,0,0-.09.36h0v.19h0v.16h0Z"/><path class="cls-8" d="M193.75,36.79l-1.32-1.15V32.41a2.87,2.87,0,1,0-5.74,0h0v3.23l-1.32,1.15a.4.4,0,0,0-.12.28.37.37,0,0,0,.36.37h7.89a.38.38,0,0,0,.37-.37.4.4,0,0,0-.12-.28Z"/><path class="cls-8" d="M190.63,38.17a1.1,1.1,0,1,1-2.2,0h2.2Z"/><line class="cls-9" x1="202.14" y1="31.15" x2="202.14" y2="38.25"/><circle class="cls-10" cx="214.13" cy="34.44" r="4.43"/><line class="cls-11" x1="222.95" y1="34.7" x2="238.91" y2="34.7"/><circle class="cls-12" cx="192.63" cy="30.09" r="2.71"/></g><g id="monitor_highlight_copy" data-name="monitor highlight copy"><path class="cls-13" d="M252,12.81H221.37a160,160,0,0,0-8.77,19.76c-5.73,15.33-10.47,33-14.94,51.06-4.76,19.25-9.53,38.51-13.83,58.54-2.48,11.52-4.81,23.29-6.88,35.38h75c2.7,0,4.89-5.91,4.89-13.19V26C256.87,18.71,254.68,12.81,252,12.81Z"/><path class="cls-14" d="M12.26,177.55C19.1,139.32,28.57,104,38.09,69.68c5-18.05,10.48-35.6,17-50.36,1-2.22,2-4.4,3-6.51H5.43C2.5,12.81.13,18.71.13,26V164.36c0,7.28,2.37,13.19,5.3,13.19Z"/></g><polygon class="cls-15" points="92.88 2.03 189.95 36.53 129.72 100.25 92.88 2.03"/><g class="cls-16"><path class="cls-3" d="M133.33,93.66H26.66a62.22,62.22,0,0,0,9.8,12.76,61.6,61.6,0,0,0,96.87-12.76M80,1.31A61.34,61.34,0,0,0,43.24,13.48h73.51A61.31,61.31,0,0,0,80,1.31"/><path class="cls-6" d="M18.83,55.76c-.19,1.68-.31,3.37-.37,5.09,0,0,0,.07,0,.11v1.36c0,.1,0,.2,0,.3v.26c0,1.63.06,3.24.18,4.84A8.08,8.08,0,0,0,20.71,65a5.25,5.25,0,0,0,.22-.55l0,.06a7.92,7.92,0,0,0,.49-2.16V61a7.82,7.82,0,0,0-.47-2.08c-.06-.18-.14-.36-.22-.55l0,0a8,8,0,0,0-1.86-2.52M84,79.17a4,4,0,0,1-4-4h8a4,4,0,0,1-4,4m.3-35.33a11.14,11.14,0,0,1,22.09,2h0A11.14,11.14,0,0,1,95.24,57l-.71,0v9l4.76,4.19h0a1.34,1.34,0,0,1-.89,2.33H69.77a1.33,1.33,0,0,1-1.32-1.33,1.31,1.31,0,0,1,.45-1L73.66,66V54.27A10.43,10.43,0,0,1,84.1,43.84h.19M127.65,23.9H32.34A61.26,61.26,0,0,0,19.61,50.81L21.47,49a2.6,2.6,0,0,1,3.75,0l.9.94a2.62,2.62,0,0,1,0,3.75l-2.21,2.2a11.81,11.81,0,0,1,1,2.54h3.13A2.61,2.61,0,0,1,30.66,61v1.31A2.61,2.61,0,0,1,28.05,65H24.92l0,.08a11.13,11.13,0,0,1-1,2.36l2.21,2.22a2.62,2.62,0,0,1,0,3.75l-.94.94a2.6,2.6,0,0,1-3.75,0l-2.21-2.2-.1.05a61.27,61.27,0,0,0,7.54,21.51H133.33a61.25,61.25,0,0,0,8.24-30.78h0a61.27,61.27,0,0,0-13.92-39"/><path class="cls-7" d="M116.75,13.48H43.24a62.08,62.08,0,0,0-6.78,5.86,61.4,61.4,0,0,0-4.12,4.56h95.31a61.4,61.4,0,0,0-4.12-4.56,62.08,62.08,0,0,0-6.78-5.86"/><path class="cls-8" d="M23.34,48.19a2.6,2.6,0,0,0-1.87.8l-1.86,1.82q-.48,2.44-.78,4.95a8,8,0,0,1,1.86,2.52l0,0c.08.19.16.37.22.55A7.82,7.82,0,0,1,21.4,61v1.36a7.92,7.92,0,0,1-.49,2.16l0-.06a5.25,5.25,0,0,1-.22.55,8.08,8.08,0,0,1-2.1,2.76c.12,1.49.29,3,.51,4.43l.1-.05,2.21,2.2a2.6,2.6,0,0,0,3.75,0l.94-.94a2.62,2.62,0,0,0,0-3.75l-2.21-2.22a11.13,11.13,0,0,0,1-2.36l0-.08h3.13a2.61,2.61,0,0,0,2.61-2.61V61a2.61,2.61,0,0,0-2.61-2.61H24.92a11.81,11.81,0,0,0-1-2.54l2.21-2.2a2.62,2.62,0,0,0,0-3.75l-.9-.94a2.62,2.62,0,0,0-1.88-.8"/><path class="cls-8" d="M18.46,60.85q0,.88,0,1.77c0-.1,0-.2,0-.3V61s0-.07,0-.11"/><path class="cls-8" d="M84.1,43.84A10.43,10.43,0,0,0,73.66,54.27V66L68.9,70.19a1.31,1.31,0,0,0-.45,1,1.33,1.33,0,0,0,1.32,1.33H98.41a1.34,1.34,0,0,0,.89-2.33h0L94.53,66V57A11.15,11.15,0,0,1,84.1,45.87a11.35,11.35,0,0,1,.19-2H84.1"/><path class="cls-8" d="M88,75.18H80a4,4,0,1,0,8,0"/><path class="cls-17" d="M95.24,37.3a8.57,8.57,0,1,0,8.57,8.57h0a8.57,8.57,0,0,0-8.57-8.57"/><path class="cls-6" d="M106.38,45.87h0M95.24,34.73a11.14,11.14,0,0,0-10.95,9.11,11.35,11.35,0,0,0-.19,2A11.15,11.15,0,0,0,94.53,57l.71,0a11.14,11.14,0,0,0,11.14-11.14h-2.57a8.57,8.57,0,1,1-2.51-6.06,8.54,8.54,0,0,1,2.51,6.06h2.57A11.14,11.14,0,0,0,95.24,34.73"/></g><path class="cls-18" d="M142.82,62.88h0M80,.06a62.82,62.82,0,1,0,62.82,62.82h-1.25A61.57,61.57,0,0,1,36.46,106.42a62.22,62.22,0,0,1-9.8-12.76,61.27,61.27,0,0,1-7.54-21.51c-.22-1.46-.39-2.94-.51-4.43s-.18-3.21-.18-4.84v-.26q0-.88,0-1.77c.06-1.72.18-3.41.37-5.09s.46-3.32.78-4.95A61.82,61.82,0,0,1,36.46,19.34a62.08,62.08,0,0,1,6.78-5.86,61.59,61.59,0,0,1,73.51,0,62.08,62.08,0,0,1,6.78,5.86,61.72,61.72,0,0,1,18,43.54h1.25A62.83,62.83,0,0,0,80,.06"/></g></svg>