<svg width="154" height="142" viewBox="0 0 154 142" xmlns="http://www.w3.org/2000/svg">
    <g fill="none" fill-rule="evenodd">
        <path d="M74.245 62.458c2.448-1.413 6.453-1.413 8.9 0l64.077 36.994c2.447 1.415 2.435 3.705-.029 5.09l-64.02 36.033c-2.463 1.386-6.493 1.386-8.955 0l-64.023-36.032c-2.462-1.386-2.475-3.676-.027-5.09l64.077-36.995z" fill-opacity=".2" fill="#FF8F52" fill-rule="nonzero"/>
        <path d="M104.654 11.79c-.543-.122-1.126-.23-1.753-.325-12.047-1.831-30.308 2.999-39.873 10.545-4.202 3.314-5.293 6.005-4.95 7.3.342 1.295 2.61 3.088 7.91 3.899 12.048 1.83 30.307-2.999 39.874-10.545 4.201-3.315 5.293-6.004 4.95-7.3-.302-1.143-2.11-2.677-6.158-3.574zM62.41 41.159c-9.144-2.026-11.775-6.851-12.525-9.682-.809-3.057-.857-9.217 7.894-16.12C69.293 6.273 89.673.885 104.174 3.088c11.017 1.668 14.021 7.053 14.83 10.11.808 3.057.857 9.215-7.893 16.12-11.514 9.085-31.894 14.473-46.395 12.27-.811-.123-1.579-.266-2.306-.428z" stroke="#33475C" stroke-width="5" stroke-linecap="round" stroke-linejoin="round"/>
        <path d="M104.173 3.087c-8.45-1.284-18.895.014-28.421 3.115-.851.279-1.695.57-2.53.875-.002.001-.004.003-.007.003-1.64.6-3.243 1.255-4.795 1.959l-.14.064c-.743.338-1.474.688-2.19 1.05l-.199.102c-1.412.717-2.765 1.478-4.053 2.277-.1.06-.2.123-.3.186-.601.378-1.19.767-1.76 1.164-.102.071-.203.144-.305.217-.58.411-1.15.83-1.695 1.26-8.75 6.9-8.701 13.06-7.894 16.118.05.188.11.387.179.592.02.06.047.128.069.193.051.145.105.291.168.444.032.08.071.163.106.245.063.14.126.283.198.429.044.09.092.182.14.272.077.144.157.288.243.435.054.094.113.188.173.283.093.149.193.298.3.448.063.094.129.188.2.283.116.157.246.314.375.473.073.088.142.176.22.263.157.177.327.356.502.532.065.068.126.134.195.202.254.245.525.49.818.73-1.95-4.12-1.672-7.635-.831-10.206.105-.349.238-.704.393-1.06l.005-.009c.06-.14.119-.277.186-.418.92-1.977 2.016-3.103 2.016-3.103h.002c3.975-4.916 11.702-10.05 21.367-13.75 1.69-.556 32.14-10.358 41.66 3.157-1.281-3.098-4.796-7.37-14.395-8.825z" stroke="#33475C" stroke-width="5" stroke-linecap="round" stroke-linejoin="round"/>
        <path d="M113.888 16.111c-.049-4.702-9.52-5.124-9.52-5.124l.003.744c.093.02.192.038.282.059 4.05.897 5.856 2.43 6.159 3.573.343 1.297-.749 3.986-4.95 7.3-7.523 5.934-20.418 10.186-31.442 10.843l-.469 3.315c26.655-1.478 39.986-16.009 39.937-20.71z" stroke="#33475C" stroke-width="5" stroke-linecap="round" stroke-linejoin="round"/>
        <path d="M104.654 11.79c-.543-.122-1.126-.23-1.753-.325-12.047-1.831-30.308 2.999-39.873 10.545-4.202 3.314-5.293 6.005-4.95 7.3.342 1.295 2.61 3.088 7.91 3.899 12.048 1.83 30.307-2.999 39.874-10.545 4.201-3.315 5.293-6.004 4.95-7.3-.302-1.143-2.11-2.677-6.158-3.574zM62.41 41.159c-9.144-2.026-11.775-6.851-12.525-9.682-.809-3.057-.857-9.217 7.894-16.12C69.293 6.273 89.673.885 104.174 3.088c11.017 1.668 14.021 7.053 14.83 10.11.808 3.057.857 9.215-7.893 16.12-11.514 9.085-31.894 14.473-46.395 12.27-.811-.123-1.579-.266-2.306-.428z" stroke="#33475C" stroke-width="5" stroke-linecap="round" stroke-linejoin="round"/>
        <path d="M89.167 101.668c-1.21-2.272-4.03-3.137-6.304-1.927l-5.095 2.707.499-4.027 11.449-6.084c2.272-1.208 3.137-4.03 1.928-6.303-1.208-2.272-4.028-3.137-6.303-1.928l-5.674 3.016 2.826-22.824c2.47-.899 4.831-2.623 6.866-5.077 4.578-5.525 7.01-13.99 6.71-21.773-3.017 1.125-6.163 2.068-9.338 2.802-.296 4.83-1.93 9.861-4.548 13.023-1.373 1.654-2.868 2.575-3.911 2.406l-.012-.001c-1.044-.178-2.158-1.545-2.908-3.568-2.281-6.148-.61-15.97 3.572-21.019 1.373-1.655 2.87-2.575 3.913-2.407l.011.001c.96.163 1.975 1.338 2.715 3.095 3.05-.744 6.065-1.701 8.909-2.83-1.968-5.255-5.631-8.7-10.06-9.453l-.089-.016c-4.42-.714-8.999 1.346-12.575 5.662-6.33 7.638-8.587 20.907-5.136 30.21 1.416 3.817 3.726 6.677 6.572 8.263l-5.768 46.58c-.213 1.726.55 3.427 1.984 4.413.502.345 1.056.582 1.632.71 1.065.236 2.2.096 3.197-.434l13.01-6.914c2.272-1.207 3.136-4.03 1.928-6.303z" stroke="#33475C" stroke-width="5" stroke-linecap="round" stroke-linejoin="round"/>
        <path d="M77.435 64.559c-2.246-.012-4.25-.943-4.25-.943l-5.769 46.581c-.214 1.725.55 3.426 1.984 4.412.502.345 1.057.582 1.632.71.025.007.049.006.074.01l6.33-50.77zM85.341 84.107l-5.675 3.015-.348 3.945 11.704-5.914c-1.393-1.587-3.733-2.081-5.681-1.046zM82.864 99.74l-5.096 2.708-.337 3.7 10.959-5.516c-1.409-1.458-3.648-1.891-5.526-.891zM82.848 28.685c.96.164 1.974 1.339 2.715 3.096.697-.17 1.393-.355 2.085-.547-1.947-2.687-4.8-2.549-4.8-2.549zM89.072 42.38c.154-1.007.248-1.93.302-2.796-.877.238-1.758.462-2.643.667-.296 4.83-1.93 9.86-4.549 13.021-1.371 1.655-2.867 2.576-3.91 2.407 3.176 2.129 8.646.82 10.8-13.298z" stroke="#33475C" stroke-width="5" stroke-linecap="round" stroke-linejoin="round"/>
        <path d="M77.026 23.962c7.579-6.13 13.712-1.052 13.713-1.051-1.793-1.823-3.949-3.01-6.328-3.415l-.088-.015c-4.42-.713-9 1.345-12.575 5.662-6.33 7.638-8.586 20.908-5.136 30.21.398 1.07.871 2.058 1.402 2.97-3.222-11.204 1.438-28.234 9.012-34.361z" stroke="#33475C" stroke-width="5" stroke-linecap="round" stroke-linejoin="round"/>
        <path d="M89.167 101.668c-1.21-2.272-4.03-3.137-6.304-1.927l-5.095 2.707.499-4.027 11.449-6.084c2.272-1.208 3.137-4.03 1.928-6.303-1.208-2.272-4.028-3.137-6.303-1.928l-5.674 3.016 2.826-22.824c2.47-.899 4.831-2.623 6.866-5.077 4.578-5.525 7.01-13.99 6.71-21.773-3.017 1.125-6.163 2.068-9.338 2.802-.296 4.83-1.93 9.861-4.548 13.023-1.373 1.654-2.868 2.575-3.911 2.406l-.012-.001c-1.044-.178-2.158-1.545-2.908-3.568-2.281-6.148-.61-15.97 3.572-21.019 1.373-1.655 2.87-2.575 3.913-2.407l.011.001c.96.163 1.975 1.338 2.715 3.095 3.05-.744 6.065-1.701 8.909-2.83-1.968-5.255-5.631-8.7-10.06-9.453l-.089-.016c-4.42-.714-8.999 1.346-12.575 5.662-6.33 7.638-8.587 20.907-5.136 30.21 1.416 3.817 3.726 6.677 6.572 8.263l-5.768 46.58c-.213 1.726.55 3.427 1.984 4.413.502.345 1.056.582 1.632.71 1.065.236 2.2.096 3.197-.434l13.01-6.914c2.272-1.207 3.136-4.03 1.928-6.303z" stroke="#33475C" stroke-width="5" stroke-linecap="round" stroke-linejoin="round"/>
        <path d="M150.986 85.042c-1.067-2.344-3.832-3.38-6.173-2.313l-6.763 3.076-1.645-3.723 6.778-3.084c2.344-1.066 3.38-3.828 2.315-6.172-1.067-2.343-3.831-3.38-6.173-2.313l-6.688 3.041-6.77-15.319 6.046-27.608c.436-1.983-.464-4.02-2.224-5.035l-10.882-6.277c-.71 2.3-2.23 4.955-5.157 7.787l8.43 4.862-4.161 18.999-16.849-9.718 4.16-18.999.67.386c4.169-3.3 5.254-5.977 4.912-7.268-.083-.316-.286-.66-.614-1.013l-5.829-3.363c-1.287-.742-2.854-.827-4.212-.227-1.36.602-2.352 1.815-2.669 3.268l-6.252 28.554c-.436 1.982.464 4.019 2.225 5.034l23.52 13.565 14.399 32.59c.624 1.41 1.86 2.357 3.258 2.668.027.006.055.006.083.012.037.01.073.024.11.03.952.212 1.98.128 2.936-.306l10.906-4.961c2.342-1.067 3.378-3.829 2.313-6.173z" stroke="#33475C" stroke-width="5" stroke-linecap="round" stroke-linejoin="round"/>
        <path d="M99.949 17.664c2.445-5.4 5.228-3.88 5.228-3.88l5.5 3.13c.209-.63.24-1.157.135-1.55-.084-.315-.286-.66-.614-1.013l-5.83-3.363c-1.286-.742-2.853-.827-4.211-.226-1.36.601-2.352 1.814-2.669 3.267l-6.252 28.554c-.204.927-.105 1.86.226 2.7 1.869-6.888 6.264-22.707 8.487-27.619zM122.3 31.62s2.862 1.635 2.209 4.257c-.509 2.043-3.742 16.878-3.742 16.878l-2.979-1.43L122.3 31.62zM148.672 91.215c4.015-2.596 2.161-4.3 2.603-5.335-3.372 2.994-12.228 6.754-13.677 6.66-1.954-.125-2.988-2.272-2.99-2.28l-12.333-27.017-5.31-2.515 13.555 31.1.86 1.944c.623 1.41 1.859 2.358 3.258 2.669.027.006.056.006.083.01.037.01.074.024.11.033.953.21 1.98.126 2.935-.309l10.906-4.96z" stroke="#33475C" stroke-width="5" stroke-linecap="round" stroke-linejoin="round"/>
        <path d="M134.963 79.041l1.147 3.128L143.179 79l.004-.003h.003c.828-.38 1.876-2.014 2.676-3.626.108-.805.344-.425.003-1.222l-10.902 4.891z" stroke="#33475C" stroke-width="5" stroke-linecap="round" stroke-linejoin="round"/>
        <path d="M150.986 85.042c-1.067-2.344-3.832-3.38-6.173-2.313l-6.763 3.076-1.645-3.723 6.778-3.084c2.344-1.066 3.38-3.828 2.315-6.172-1.067-2.343-3.831-3.38-6.173-2.313l-6.688 3.041-6.77-15.319 6.046-27.608c.436-1.983-.464-4.02-2.224-5.035l-10.882-6.277c-.71 2.3-2.23 4.955-5.157 7.787l8.43 4.862-4.161 18.999-16.849-9.718 4.16-18.999.67.386c4.169-3.3 5.254-5.977 4.912-7.268-.083-.316-.286-.66-.614-1.013l-5.829-3.363c-1.287-.742-2.854-.827-4.212-.227-1.36.602-2.352 1.815-2.669 3.268l-6.252 28.554c-.436 1.982.464 4.019 2.225 5.034l23.52 13.565 14.399 32.59c.624 1.41 1.86 2.357 3.258 2.668.027.006.055.006.083.012.037.01.073.024.11.03.952.212 1.98.128 2.936-.306l10.906-4.961c2.342-1.067 3.378-3.829 2.313-6.173zM45.932 43.194c-1.354-.377-2.143-1.78-1.765-3.132.377-1.352 1.78-2.143 3.13-1.764 1.354.377 2.143 1.78 1.767 3.132-.378 1.351-1.78 2.142-3.132 1.764zm9.874 11.837c.032-1.212-.399-2.383-.74-3.546-.924-3.145-1.222-6.69-.869-10.025.056-.563.03-1.104-.046-1.637l-.014-.112c-.022-.13-.044-.262-.07-.392-.029-.15-.061-.298-.1-.446-.65-2.545-2.6-4.683-5.31-5.44-.808-.227-1.621-.306-2.415-.267h-.005c-.26.013-.52.04-.776.08l-.046.008c-.246.04-.489.092-.728.155l-.038.01c-.244.066-.484.143-.72.233l-.014.006c-.59.226-1.154.517-1.671.88-2.53 1.447-5.286 2.608-8.054 2.958-1.204.152-2.45.222-3.548.739-1.175.55-2.066 1.553-2.912 2.537-8.802 10.224-16.661 21.256-23.45 32.912-.88 1.51-1.77 3.14-1.678 4.885.11 2.12 1.63 3.875 3.144 5.361 3.754 3.68 10.228 8.007 14.816 10.572.764.426 1.53.821 2.305 1.167.32.154.65.303 1 .444 1.967.796 4.183 1.487 6.17.74 1.636-.612 2.775-2.079 3.808-3.488 7.972-10.882 14.943-22.497 20.798-34.65.563-1.168 1.127-2.386 1.163-3.684z" stroke="#33475C" stroke-width="5" stroke-linecap="round" stroke-linejoin="round"/>
        <path d="M19.6 67.944c-.427 2.88.178 5.903 1.685 8.396.343.569.804 1.157 1.46 1.263.75.121 1.471-.481 1.724-1.2.252-.715.14-1.506-.032-2.246-.34-1.454-.954-2.923-2.136-3.835-1.183-.91-3.043-1.06-4.1-.005-1.018 1.017-.957 2.67-.686 4.082.5 2.595 1.482 5.097 2.881 7.34.617.989 1.349 1.958 2.373 2.514 1.023.556 2.406.596 3.277-.178.781-.694.971-1.822 1.087-2.862.598-5.357.476-8.465-.906-14.111 1.267.18 2.462-.425 2.673.835.21 1.262.173 2.631.875 3.701.321.49.888.912 1.458.772.66-.164.927-.951 1.021-1.625.592-4.29-1.252-9.2 1.312-12.687.87 2.693 1.605 5.43 2.206 8.195 2.56-2.388-.649-7.23 1.457-10.028l2.063 3.684c1.573-2.821 3.317-5.547 5.218-8.16M6.836 77.423c7.19-12.475 15.63-24.231 25.156-35.03M51.176 55.126C45.123 68.19 37.76 80.648 29.23 92.252M54.518 37.87c-.615-.44-1.153-.897-1.623-1.359-1.402.848-2.843 1.52-4.267 1.933-1.384.4-2.64.54-3.721.428-.342.31-.607.712-.74 1.19-.365 1.305.364 2.647 1.63 3.08 1.26-.017 2.603-.221 4.01-.63 2.305-.666 4.615-1.852 6.794-3.378H56.6c-.776-.399-1.467-.825-2.082-1.264zM65.919 12.958c-2.484-2.386-6.243-3.007-10.586-1.75-8.075 2.342-16.278 10.888-18.29 19.051-.605 2.46-.607 4.698-.073 6.624l-.001-.001c1.352-.413 2.685-.98 3.97-1.64v.002c-.21-1.136-.146-2.485.218-3.97 1.66-6.74 8.692-14.064 15.357-15.996 1.816-.526 3.413-.607 4.681-.253.705.196 1.309.527 1.79.989 1.347 1.293 1.702 3.58.998 6.436-.708 2.874-2.397 5.851-4.614 8.474.437.322.99.644 1.668.945.658.291 1.437.564 2.346.806 2.247-2.879 3.942-6.072 4.715-9.212 1.08-4.388.306-8.12-2.179-10.505z" stroke="#33475C" stroke-width="5" stroke-linecap="round" stroke-linejoin="round"/>
        <path d="M104.654 11.79c-.543-.122-1.126-.23-1.753-.325-12.047-1.831-30.308 2.999-39.873 10.545-4.202 3.314-5.293 6.005-4.95 7.3.342 1.295 2.61 3.088 7.91 3.899 12.048 1.83 30.307-2.999 39.874-10.545 4.201-3.315 5.293-6.004 4.95-7.3-.302-1.143-2.11-2.677-6.158-3.574M62.41 41.159c-9.144-2.026-11.775-6.851-12.525-9.682-.809-3.057-.857-9.217 7.894-16.12C69.293 6.273 89.673.885 104.174 3.088c11.017 1.668 14.021 7.053 14.83 10.11.808 3.057.857 9.215-7.893 16.12-11.514 9.085-31.894 14.473-46.395 12.27-.811-.123-1.579-.266-2.306-.428" fill="#F9D28C" fill-rule="nonzero"/>
        <path d="M104.654 11.79c-.543-.122-1.126-.23-1.753-.325-12.047-1.831-30.308 2.999-39.873 10.545-4.202 3.314-5.293 6.005-4.95 7.3.342 1.295 2.61 3.088 7.91 3.899 12.048 1.83 30.307-2.999 39.874-10.545 4.201-3.315 5.293-6.004 4.95-7.3-.302-1.143-2.11-2.677-6.158-3.574zM62.41 41.159c-9.144-2.026-11.775-6.851-12.525-9.682-.809-3.057-.857-9.217 7.894-16.12C69.293 6.273 89.673.885 104.174 3.088c11.017 1.668 14.021 7.053 14.83 10.11.808 3.057.857 9.215-7.893 16.12-11.514 9.085-31.894 14.473-46.395 12.27-.811-.123-1.579-.266-2.306-.428z" stroke="#33475C" stroke-linecap="round" stroke-linejoin="round"/>
        <path d="M104.173 3.087c-8.45-1.284-18.895.014-28.421 3.115-.851.279-1.695.57-2.53.875-.002.001-.004.003-.007.003-1.64.6-3.243 1.255-4.795 1.959l-.14.064c-.743.338-1.474.688-2.19 1.05l-.199.102c-1.412.717-2.765 1.478-4.053 2.277-.1.06-.2.123-.3.186-.601.378-1.19.767-1.76 1.164-.102.071-.203.144-.305.217-.58.411-1.15.83-1.695 1.26-8.75 6.9-8.701 13.06-7.894 16.118.05.188.11.387.179.592.02.06.047.128.069.193.051.145.105.291.168.444.032.08.071.163.106.245.063.14.126.283.198.429.044.09.092.182.14.272.077.144.157.288.243.435.054.094.113.188.173.283.093.149.193.298.3.448.063.094.129.188.2.283.116.157.246.314.375.473.073.088.142.176.22.263.157.177.327.356.502.532.065.068.126.134.195.202.254.245.525.49.818.73-1.95-4.12-1.672-7.635-.831-10.206.105-.349.238-.704.393-1.06l.005-.009c.06-.14.119-.277.186-.418.92-1.977 2.016-3.103 2.016-3.103h.002c3.975-4.916 11.702-10.05 21.367-13.75 1.69-.556 32.14-10.358 41.66 3.157-1.281-3.098-4.796-7.37-14.395-8.825" fill="#FEF8F0" fill-rule="nonzero" opacity=".5"/>
        <path d="M113.888 16.111c-.049-4.702-9.52-5.124-9.52-5.124l.003.744c.093.02.192.038.282.059 4.05.897 5.856 2.43 6.159 3.573.343 1.297-.749 3.986-4.95 7.3-7.523 5.934-20.418 10.186-31.442 10.843l-.469 3.315c26.655-1.478 39.986-16.009 39.937-20.71" fill-opacity=".75" fill="#FEF8F0" fill-rule="nonzero"/>
        <path d="M104.654 11.79c-.543-.122-1.126-.23-1.753-.325-12.047-1.831-30.308 2.999-39.873 10.545-4.202 3.314-5.293 6.005-4.95 7.3.342 1.295 2.61 3.088 7.91 3.899 12.048 1.83 30.307-2.999 39.874-10.545 4.201-3.315 5.293-6.004 4.95-7.3-.302-1.143-2.11-2.677-6.158-3.574zM62.41 41.159c-9.144-2.026-11.775-6.851-12.525-9.682-.809-3.057-.857-9.217 7.894-16.12C69.293 6.273 89.673.885 104.174 3.088c11.017 1.668 14.021 7.053 14.83 10.11.808 3.057.857 9.215-7.893 16.12-11.514 9.085-31.894 14.473-46.395 12.27-.811-.123-1.579-.266-2.306-.428z" stroke="#33475C" stroke-linecap="round" stroke-linejoin="round"/>
        <path d="M89.167 101.668c-1.21-2.272-4.03-3.137-6.304-1.927l-5.095 2.707.499-4.027 11.449-6.084c2.272-1.208 3.137-4.03 1.928-6.303-1.208-2.272-4.028-3.137-6.303-1.928l-5.674 3.016 2.826-22.824c2.47-.899 4.831-2.623 6.866-5.077 4.578-5.525 7.01-13.99 6.71-21.773-3.017 1.125-6.163 2.068-9.338 2.802-.296 4.83-1.93 9.861-4.548 13.023-1.373 1.654-2.868 2.575-3.911 2.406l-.012-.001c-1.044-.178-2.158-1.545-2.908-3.568-2.281-6.148-.61-15.97 3.572-21.019 1.373-1.655 2.87-2.575 3.913-2.407l.011.001c.96.163 1.975 1.338 2.715 3.095 3.05-.744 6.065-1.701 8.909-2.83-1.968-5.255-5.631-8.7-10.06-9.453l-.089-.016c-4.42-.714-8.999 1.346-12.575 5.662-6.33 7.638-8.587 20.907-5.136 30.21 1.416 3.817 3.726 6.677 6.572 8.263l-5.768 46.58c-.213 1.726.55 3.427 1.984 4.413.502.345 1.056.582 1.632.71 1.065.236 2.2.096 3.197-.434l13.01-6.914c2.272-1.207 3.136-4.03 1.928-6.303" fill="#EAF0F6" fill-rule="nonzero"/>
        <path d="M89.167 101.668c-1.21-2.272-4.03-3.137-6.304-1.927l-5.095 2.707.499-4.027 11.449-6.084c2.272-1.208 3.137-4.03 1.928-6.303-1.208-2.272-4.028-3.137-6.303-1.928l-5.674 3.016 2.826-22.824c2.47-.899 4.831-2.623 6.866-5.077 4.578-5.525 7.01-13.99 6.71-21.773-3.017 1.125-6.163 2.068-9.338 2.802-.296 4.83-1.93 9.861-4.548 13.023-1.373 1.654-2.868 2.575-3.911 2.406l-.012-.001c-1.044-.178-2.158-1.545-2.908-3.568-2.281-6.148-.61-15.97 3.572-21.019 1.373-1.655 2.87-2.575 3.913-2.407l.011.001c.96.163 1.975 1.338 2.715 3.095 3.05-.744 6.065-1.701 8.909-2.83-1.968-5.255-5.631-8.7-10.06-9.453l-.089-.016c-4.42-.714-8.999 1.346-12.575 5.662-6.33 7.638-8.587 20.907-5.136 30.21 1.416 3.817 3.726 6.677 6.572 8.263l-5.768 46.58c-.213 1.726.55 3.427 1.984 4.413.502.345 1.056.582 1.632.71 1.065.236 2.2.096 3.197-.434l13.01-6.914c2.272-1.207 3.136-4.03 1.928-6.303z" stroke="#33475C" stroke-linecap="round" stroke-linejoin="round"/>
        <path d="M77.435 64.559c-2.246-.012-4.25-.943-4.25-.943l-5.769 46.581c-.214 1.725.55 3.426 1.984 4.412.502.345 1.057.582 1.632.71.025.007.049.006.074.01l6.33-50.77zM85.341 84.107l-5.675 3.015-.348 3.945 11.704-5.914c-1.393-1.587-3.733-2.081-5.681-1.046M82.864 99.74l-5.096 2.708-.337 3.7 10.959-5.516c-1.409-1.458-3.648-1.891-5.526-.891M82.848 28.685c.96.164 1.974 1.339 2.715 3.096.697-.17 1.393-.355 2.085-.547-1.947-2.687-4.8-2.549-4.8-2.549M89.072 42.38c.154-1.007.248-1.93.302-2.796-.877.238-1.758.462-2.643.667-.296 4.83-1.93 9.86-4.549 13.021-1.371 1.655-2.867 2.576-3.91 2.407 3.176 2.129 8.646.82 10.8-13.298" fill="#CBD6E3" fill-rule="nonzero"/>
        <path d="M77.026 23.962c7.579-6.13 13.712-1.052 13.713-1.051-1.793-1.823-3.949-3.01-6.328-3.415l-.088-.015c-4.42-.713-9 1.345-12.575 5.662-6.33 7.638-8.586 20.908-5.136 30.21.398 1.07.871 2.058 1.402 2.97-3.222-11.204 1.438-28.234 9.012-34.361" fill="#FFF" fill-rule="nonzero"/>
        <path d="M89.167 101.668c-1.21-2.272-4.03-3.137-6.304-1.927l-5.095 2.707.499-4.027 11.449-6.084c2.272-1.208 3.137-4.03 1.928-6.303-1.208-2.272-4.028-3.137-6.303-1.928l-5.674 3.016 2.826-22.824c2.47-.899 4.831-2.623 6.866-5.077 4.578-5.525 7.01-13.99 6.71-21.773-3.017 1.125-6.163 2.068-9.338 2.802-.296 4.83-1.93 9.861-4.548 13.023-1.373 1.654-2.868 2.575-3.911 2.406l-.012-.001c-1.044-.178-2.158-1.545-2.908-3.568-2.281-6.148-.61-15.97 3.572-21.019 1.373-1.655 2.87-2.575 3.913-2.407l.011.001c.96.163 1.975 1.338 2.715 3.095 3.05-.744 6.065-1.701 8.909-2.83-1.968-5.255-5.631-8.7-10.06-9.453l-.089-.016c-4.42-.714-8.999 1.346-12.575 5.662-6.33 7.638-8.587 20.907-5.136 30.21 1.416 3.817 3.726 6.677 6.572 8.263l-5.768 46.58c-.213 1.726.55 3.427 1.984 4.413.502.345 1.056.582 1.632.71 1.065.236 2.2.096 3.197-.434l13.01-6.914c2.272-1.207 3.136-4.03 1.928-6.303z" stroke="#33475C" stroke-linecap="round" stroke-linejoin="round"/>
        <path d="M150.986 85.042c-1.067-2.344-3.832-3.38-6.173-2.313l-6.763 3.076-1.645-3.723 6.778-3.084c2.344-1.066 3.38-3.828 2.315-6.172-1.067-2.343-3.831-3.38-6.173-2.313l-6.688 3.041-6.77-15.319 6.046-27.608c.436-1.983-.464-4.02-2.224-5.035l-10.882-6.277c-.71 2.3-2.23 4.955-5.157 7.787l8.43 4.862-4.161 18.999-16.849-9.718 4.16-18.999.67.386c4.169-3.3 5.254-5.977 4.912-7.268-.083-.316-.286-.66-.614-1.013l-5.829-3.363c-1.287-.742-2.854-.827-4.212-.227-1.36.602-2.352 1.815-2.669 3.268l-6.252 28.554c-.436 1.982.464 4.019 2.225 5.034l23.52 13.565 14.399 32.59c.624 1.41 1.86 2.357 3.258 2.668.027.006.055.006.083.012.037.01.073.024.11.03.952.212 1.98.128 2.936-.306l10.906-4.961c2.342-1.067 3.378-3.829 2.313-6.173" fill="#F6C364" fill-rule="nonzero"/>
        <path d="M150.986 85.042c-1.067-2.344-3.832-3.38-6.173-2.313l-6.763 3.076-1.645-3.723 6.778-3.084c2.344-1.066 3.38-3.828 2.315-6.172-1.067-2.343-3.831-3.38-6.173-2.313l-6.688 3.041-6.77-15.319 6.046-27.608c.436-1.983-.464-4.02-2.224-5.035l-10.882-6.277c-.71 2.3-2.23 4.955-5.157 7.787l8.43 4.862-4.161 18.999-16.849-9.718 4.16-18.999.67.386c4.169-3.3 5.254-5.977 4.912-7.268-.083-.316-.286-.66-.614-1.013l-5.829-3.363c-1.287-.742-2.854-.827-4.212-.227-1.36.602-2.352 1.815-2.669 3.268l-6.252 28.554c-.436 1.982.464 4.019 2.225 5.034l23.52 13.565 14.399 32.59c.624 1.41 1.86 2.357 3.258 2.668.027.006.055.006.083.012.037.01.073.024.11.03.952.212 1.98.128 2.936-.306l10.906-4.961c2.342-1.067 3.378-3.829 2.313-6.173z" stroke="#33475C" stroke-linecap="round" stroke-linejoin="round"/>
        <path d="M99.949 17.664c2.445-5.4 5.228-3.88 5.228-3.88l5.5 3.13c.209-.63.24-1.157.135-1.55-.084-.315-.286-.66-.614-1.013l-5.83-3.363c-1.286-.742-2.853-.827-4.211-.226-1.36.601-2.352 1.814-2.669 3.267l-6.252 28.554c-.204.927-.105 1.86.226 2.7 1.869-6.888 6.264-22.707 8.487-27.619M122.3 31.62s2.862 1.635 2.209 4.257c-.509 2.043-3.742 16.878-3.742 16.878l-2.979-1.43L122.3 31.62z" fill-opacity=".5" fill="#FEF8F0" fill-rule="nonzero"/>
        <path d="M148.672 91.215c4.015-2.596 2.161-4.3 2.603-5.335-3.372 2.994-12.228 6.754-13.677 6.66-1.954-.125-2.988-2.272-2.99-2.28l-12.333-27.017-5.31-2.515 13.555 31.1.86 1.944c.623 1.41 1.859 2.358 3.258 2.669.027.006.056.006.083.01.037.01.074.024.11.033.953.21 1.98.126 2.935-.309l10.906-4.96z" fill="#DCAF59" fill-rule="nonzero"/>
        <path d="M134.963 79.041l1.147 3.128L143.179 79l.004-.003h.003c.828-.38 1.876-2.014 2.676-3.626.108-.805.344-.425.003-1.222l-10.902 4.891z" fill="#DCAF59" fill-rule="nonzero"/>
        <path d="M150.986 85.042c-1.067-2.344-3.832-3.38-6.173-2.313l-6.763 3.076-1.645-3.723 6.778-3.084c2.344-1.066 3.38-3.828 2.315-6.172-1.067-2.343-3.831-3.38-6.173-2.313l-6.688 3.041-6.77-15.319 6.046-27.608c.436-1.983-.464-4.02-2.224-5.035l-10.882-6.277c-.71 2.3-2.23 4.955-5.157 7.787l8.43 4.862-4.161 18.999-16.849-9.718 4.16-18.999.67.386c4.169-3.3 5.254-5.977 4.912-7.268-.083-.316-.286-.66-.614-1.013l-5.829-3.363c-1.287-.742-2.854-.827-4.212-.227-1.36.602-2.352 1.815-2.669 3.268l-6.252 28.554c-.436 1.982.464 4.019 2.225 5.034l23.52 13.565 14.399 32.59c.624 1.41 1.86 2.357 3.258 2.668.027.006.055.006.083.012.037.01.073.024.11.03.952.212 1.98.128 2.936-.306l10.906-4.961c2.342-1.067 3.378-3.829 2.313-6.173z" stroke="#33475C" stroke-linecap="round" stroke-linejoin="round"/>
        <path d="M45.932 43.194c-1.354-.377-2.143-1.78-1.765-3.132.377-1.352 1.78-2.143 3.13-1.764 1.354.377 2.143 1.78 1.767 3.132-.378 1.351-1.78 2.142-3.132 1.764m9.874 11.837c.032-1.212-.399-2.383-.74-3.546-.924-3.145-1.222-6.69-.869-10.025.056-.563.03-1.104-.046-1.637l-.014-.112c-.022-.13-.044-.262-.07-.392-.029-.15-.061-.298-.1-.446-.65-2.545-2.6-4.683-5.31-5.44-.808-.227-1.621-.306-2.415-.267h-.005c-.26.013-.52.04-.776.08l-.046.008c-.246.04-.489.092-.728.155l-.038.01c-.244.066-.484.143-.72.233l-.014.006c-.59.226-1.154.517-1.671.88-2.53 1.447-5.286 2.608-8.054 2.958-1.204.152-2.45.222-3.548.739-1.175.55-2.066 1.553-2.912 2.537-8.802 10.224-16.661 21.256-23.45 32.912-.88 1.51-1.77 3.14-1.678 4.885.11 2.12 1.63 3.875 3.144 5.361 3.754 3.68 10.228 8.007 14.816 10.572.764.426 1.53.821 2.305 1.167.32.154.65.303 1 .444 1.967.796 4.183 1.487 6.17.74 1.636-.612 2.775-2.079 3.808-3.488 7.972-10.882 14.943-22.497 20.798-34.65.563-1.168 1.127-2.386 1.163-3.684" fill="#FF8F52" fill-rule="nonzero"/>
        <path d="M45.932 43.194c-1.354-.377-2.143-1.78-1.765-3.132.377-1.352 1.78-2.143 3.13-1.764 1.354.377 2.143 1.78 1.767 3.132-.378 1.351-1.78 2.142-3.132 1.764zm9.874 11.837c.032-1.212-.399-2.383-.74-3.546-.924-3.145-1.222-6.69-.869-10.025.056-.563.03-1.104-.046-1.637l-.014-.112c-.022-.13-.044-.262-.07-.392-.029-.15-.061-.298-.1-.446-.65-2.545-2.6-4.683-5.31-5.44-.808-.227-1.621-.306-2.415-.267h-.005c-.26.013-.52.04-.776.08l-.046.008c-.246.04-.489.092-.728.155l-.038.01c-.244.066-.484.143-.72.233l-.014.006c-.59.226-1.154.517-1.671.88-2.53 1.447-5.286 2.608-8.054 2.958-1.204.152-2.45.222-3.548.739-1.175.55-2.066 1.553-2.912 2.537-8.802 10.224-16.661 21.256-23.45 32.912-.88 1.51-1.77 3.14-1.678 4.885.11 2.12 1.63 3.875 3.144 5.361 3.754 3.68 10.228 8.007 14.816 10.572.764.426 1.53.821 2.305 1.167.32.154.65.303 1 .444 1.967.796 4.183 1.487 6.17.74 1.636-.612 2.775-2.079 3.808-3.488 7.972-10.882 14.943-22.497 20.798-34.65.563-1.168 1.127-2.386 1.163-3.684z" stroke="#33475C" stroke-linecap="round" stroke-linejoin="round"/>
        <path d="M19.6 67.944c-.427 2.88.178 5.903 1.685 8.396.343.569.804 1.157 1.46 1.263.75.121 1.471-.481 1.724-1.2.252-.715.14-1.506-.032-2.246-.34-1.454-.954-2.923-2.136-3.835-1.183-.91-3.043-1.06-4.1-.005-1.018 1.017-.957 2.67-.686 4.082.5 2.595 1.482 5.097 2.881 7.34.617.989 1.349 1.958 2.373 2.514 1.023.556 2.406.596 3.277-.178.781-.694.971-1.822 1.087-2.862.598-5.357.476-8.465-.906-14.111 1.267.18 2.462-.425 2.673.835.21 1.262.173 2.631.875 3.701.321.49.888.912 1.458.772.66-.164.927-.951 1.021-1.625.592-4.29-1.252-9.2 1.312-12.687.87 2.693 1.605 5.43 2.206 8.195 2.56-2.388-.649-7.23 1.457-10.028l2.063 3.684c1.573-2.821 3.317-5.547 5.218-8.16M6.836 77.423c7.19-12.475 15.63-24.231 25.156-35.03M51.176 55.126C45.123 68.19 37.76 80.648 29.23 92.252" stroke="#E86E4B" stroke-width="2" stroke-linecap="round" stroke-linejoin="round"/>
        <path d="M54.518 37.87c-.615-.44-1.153-.897-1.623-1.359-1.402.848-2.843 1.52-4.267 1.933-1.384.4-2.64.54-3.721.428-.342.31-.607.712-.74 1.19-.365 1.305.364 2.647 1.63 3.08 1.26-.017 2.603-.221 4.01-.63 2.305-.666 4.615-1.852 6.794-3.378H56.6c-.776-.399-1.467-.825-2.082-1.264" fill="#F6C364" fill-rule="nonzero"/>
        <path d="M54.518 37.87c-.615-.44-1.153-.897-1.623-1.359-1.402.848-2.843 1.52-4.267 1.933-1.384.4-2.64.54-3.721.428-.342.31-.607.712-.74 1.19-.365 1.305.364 2.647 1.63 3.08 1.26-.017 2.603-.221 4.01-.63 2.305-.666 4.615-1.852 6.794-3.378H56.6c-.776-.399-1.467-.825-2.082-1.264z" stroke="#33475C" stroke-linecap="round" stroke-linejoin="round"/>
        <path d="M65.919 12.958c-2.484-2.386-6.243-3.007-10.586-1.75-8.075 2.342-16.278 10.888-18.29 19.051-.605 2.46-.607 4.698-.073 6.624l-.001-.001c1.352-.413 2.685-.98 3.97-1.64v.002c-.21-1.136-.146-2.485.218-3.97 1.66-6.74 8.692-14.064 15.357-15.996 1.816-.526 3.413-.607 4.681-.253.705.196 1.309.527 1.79.989 1.347 1.293 1.702 3.58.998 6.436-.708 2.874-2.397 5.851-4.614 8.474.437.322.99.644 1.668.945.658.291 1.437.564 2.346.806 2.247-2.879 3.942-6.072 4.715-9.212 1.08-4.388.306-8.12-2.179-10.505" fill="#F6C364" fill-rule="nonzero"/>
        <path d="M65.919 12.958c-2.484-2.386-6.243-3.007-10.586-1.75-8.075 2.342-16.278 10.888-18.29 19.051-.605 2.46-.607 4.698-.073 6.624l-.001-.001c1.352-.413 2.685-.98 3.97-1.64v.002c-.21-1.136-.146-2.485.218-3.97 1.66-6.74 8.692-14.064 15.357-15.996 1.816-.526 3.413-.607 4.681-.253.705.196 1.309.527 1.79.989 1.347 1.293 1.702 3.58.998 6.436-.708 2.874-2.397 5.851-4.614 8.474.437.322.99.644 1.668.945.658.291 1.437.564 2.346.806 2.247-2.879 3.942-6.072 4.715-9.212 1.08-4.388.306-8.12-2.179-10.505z" stroke="#33475C" stroke-linecap="round" stroke-linejoin="round"/>
    </g>
</svg>
