<svg xmlns="http://www.w3.org/2000/svg" viewBox="0 0 92 99" width="92" height="99">
    <defs>
        <style>
            .a{fill:#fff}.a,.ab,.ae,.ah,.ai,.aj,.ap,.aq,.ar,.g,.j,.k,.o,.s,.u,.w,.x,.y{fill-rule:evenodd}.aa,.ac,.am,.ao,.c,.h,.k,.r,.u{fill:none;stroke-linecap:round;stroke-linejoin:round}.c,.h{stroke:#33475c}.aa,.am,.c,.r{stroke-width:5px}.d{mask:url(#a)}.e{mask:url(#d)}.g{fill:#fbe1b2}.j{fill:#fef8f0}.k{stroke:#f6c364}.l{mask:url(#v)}.m{mask:url(#w)}.o{fill:#dcaf59}.r,.u{stroke:#ff8f52}.s{fill:#ffc7aa}.w{fill:#e8824a}.x{fill:#7bded2}.ad,.y{fill:#00a48d}.z{mask:url(#ah)}.aa,.ac{stroke:#00a48d}.ab{fill:#e5f5f8}.ae{fill:#e4f8f6}.ah{fill:#d29b6a}.ai{fill:#935324}.aj{fill:#c78244}.al{mask:url(#ba)}.am,.ao{stroke:#935324}.an{mask:url(#bb)}.ap{fill:#f7c45b}.aq{fill:#eaba56}.ar{fill:#e6eff6}
        </style>
        <mask id="a" x="2.4" y="3.14" width="39.11" height="39.11" maskUnits="userSpaceOnUse">
            <path class="a" d="M2.4 22.7A19.56 19.56 0 1 0 22 3.14 19.55 19.55 0 0 0 2.4 22.7z"/>
        </mask>
        <mask id="d" x="2.4" y="3.14" width="39.11" height="39.11" maskUnits="userSpaceOnUse">
            <path class="a" d="M2.4 22.7A19.56 19.56 0 1 0 22 3.14 19.55 19.55 0 0 0 2.4 22.7"/>
        </mask>
        <mask id="u" x="2.4" y="3.14" width="41.49" height="47.92" maskUnits="userSpaceOnUse">
            <path class="a" d="M2.4 22.7A19.56 19.56 0 1 0 22 3.14 19.55 19.55 0 0 0 2.4 22.7"/>
        </mask>
        <mask id="v" x="2.19" y="3.58" width="39.11" height="39.11" maskUnits="userSpaceOnUse">
            <path class="a" d="M2.19 23.14A19.56 19.56 0 1 0 21.74 3.58 19.55 19.55 0 0 0 2.19 23.14"/>
        </mask>
        <mask id="w" x="2.19" y="3.58" width="39.11" height="39.11" maskUnits="userSpaceOnUse">
            <path class="a" d="M2.19 23.14A19.56 19.56 0 1 0 21.74 3.58 19.55 19.55 0 0 0 2.19 23.14z"/>
        </mask>
        <mask id="ah" x="50.24" y="2.94" width="39.12" height="39.11" maskUnits="userSpaceOnUse">
            <path class="a" d="M50.24 22.5A19.56 19.56 0 1 0 69.8 2.94 19.55 19.55 0 0 0 50.24 22.5z"/>
        </mask>
        <mask id="ay" x="50.24" y="2.94" width="39.12" height="39.11" maskUnits="userSpaceOnUse">
            <path class="a" d="M50.24 22.5A19.56 19.56 0 1 0 69.8 2.94 19.55 19.55 0 0 0 50.24 22.5"/>
        </mask>
        <mask id="az" x="50.44" y="3.01" width="39.12" height="39.11" maskUnits="userSpaceOnUse">
            <path class="a" d="M50.44 22.57A19.56 19.56 0 1 0 70 3a19.56 19.56 0 0 0-19.56 19.57z"/>
        </mask>
        <mask id="ba" x="25.85" y="43.57" width="39.11" height="39.12" maskUnits="userSpaceOnUse">
            <path class="a" d="M25.85 63.12a19.56 19.56 0 1 0 19.56-19.55 19.56 19.56 0 0 0-19.56 19.55"/>
        </mask>
        <mask id="bb" x="25.85" y="43.57" width="39.11" height="39.12" maskUnits="userSpaceOnUse">
            <path class="a" d="M25.85 63.12a19.56 19.56 0 1 0 19.56-19.55 19.56 19.56 0 0 0-19.56 19.55z"/>
        </mask>
    </defs>
    <path d="M48.35 51A6 6 0 0 0 43 51L4.07 73.47c-1.49.86-1.48 2.25 0 3.09l38.87 21.86a6.17 6.17 0 0 0 5.43 0l38.85-21.86c1.49-.84 1.5-2.23 0-3.09z" style="isolation:isolate" fill="#00a4bf" opacity=".2" fill-rule="evenodd"/>
    <path class="c" d="M41.51 22.7A19.56 19.56 0 1 1 22 3.14 19.56 19.56 0 0 1 41.51 22.7z"/>
    <g class="d">
        <path class="c" d="M24.4 12.67c0-3-2.12-4.22-4.72-2.72A10.47 10.47 0 0 0 15 18.13c0 3 2.12 4.23 4.72 2.73a10.49 10.49 0 0 0 4.68-8.19z"/>
    </g>
    <g class="d">
        <path class="c" d="M18.28 15.73c0-.41-.29-.58-.64-.37a1.42 1.42 0 0 0-.64 1.11c0 .41.29.58.65.38a1.45 1.45 0 0 0 .63-1.12z"/>
    </g>
    <g class="d">
        <path class="c" d="M22.11 13.53c0-.41-.29-.57-.65-.37a1.45 1.45 0 0 0-.64 1.12c0 .41.29.57.64.37a1.43 1.43 0 0 0 .65-1.12z"/>
    </g>
    <g class="e">
        <path class="c" d="M17.64 18.68a1.4 1.4 0 0 0 1.66 0 4.53 4.53 0 0 0 1.7-1.92"/>
    </g>
    <g class="d">
        <path class="c" d="M24.4 12.67c0-3-2.12-4.22-4.72-2.72A10.47 10.47 0 0 0 15 18.13c0 3 2.12 4.23 4.72 2.73a10.49 10.49 0 0 0 4.68-8.19z"/>
    </g>
    <g class="d">
        <path class="c" d="M18.28 15.73c0-.41-.29-.58-.64-.37a1.42 1.42 0 0 0-.64 1.11c0 .41.29.58.65.38a1.45 1.45 0 0 0 .63-1.12z"/>
    </g>
    <g class="d">
        <path class="c" d="M22.11 13.53c0-.41-.29-.57-.65-.37a1.45 1.45 0 0 0-.64 1.12c0 .41.29.57.64.37a1.43 1.43 0 0 0 .65-1.12z"/>
    </g>
    <g class="e">
        <path class="c" d="M17.64 18.68a1.4 1.4 0 0 0 1.66 0 4.53 4.53 0 0 0 1.7-1.92"/>
    </g>
    <g class="d">
        <path class="c" d="M24.4 12.67c0-3-2.12-4.22-4.72-2.72A10.47 10.47 0 0 0 15 18.13c0 3 2.12 4.23 4.72 2.73a10.49 10.49 0 0 0 4.68-8.19z"/>
    </g>
    <g class="d">
        <path class="c" d="M18.28 15.73c0-.41-.29-.58-.64-.37a1.42 1.42 0 0 0-.64 1.11c0 .41.29.58.65.38a1.45 1.45 0 0 0 .63-1.12z"/>
    </g>
    <g class="d">
        <path class="c" d="M22.11 13.53c0-.41-.29-.57-.65-.37a1.45 1.45 0 0 0-.64 1.12c0 .41.29.57.64.37a1.43 1.43 0 0 0 .65-1.12z"/>
    </g>
    <g class="e">
        <path class="c" d="M17.64 18.68a1.4 1.4 0 0 0 1.66 0 4.53 4.53 0 0 0 1.7-1.92"/>
    </g>
    <g class="d">
        <path class="c" d="M26.77 31.56c1.42 2.24 1.66 4.92-.21 6.52s-5.64 1.17-7.44-1.68-.6-6.4 1.66-7.4 4.57.31 5.99 2.56z"/>
    </g>
    <g class="e">
        <path class="c" d="M22.65 36.6a2.39 2.39 0 0 0 2.3-.29 1.93 1.93 0 0 0 .66-1.43"/>
    </g>
    <g class="d">
        <path class="c" d="M21.26 34.09a.58.58 0 0 1 0 .77.63.63 0 0 1-.88-.2.62.62 0 0 1 .2-.88.56.56 0 0 1 .68.31z"/>
    </g>
    <g class="d">
        <path class="c" d="M24.91 31.94a.58.58 0 0 1 0 .77.62.62 0 0 1-.88-.2.61.61 0 0 1 .2-.87.57.57 0 0 1 .68.3z"/>
    </g>
    <g class="d">
        <path class="c" d="M26.77 31.56c1.42 2.24 1.66 4.92-.21 6.52s-5.64 1.17-7.44-1.68-.6-6.4 1.66-7.4 4.57.31 5.99 2.56z"/>
    </g>
    <g class="e">
        <path class="c" d="M22.65 36.6a2.39 2.39 0 0 0 2.3-.29 1.93 1.93 0 0 0 .66-1.43"/>
    </g>
    <g class="d">
        <path class="c" d="M26.77 31.56c1.42 2.24 1.66 4.92-.21 6.52s-5.64 1.17-7.44-1.68-.6-6.4 1.66-7.4 4.57.31 5.99 2.56z"/>
    </g>
    <g class="e">
        <path class="c" d="M22.65 36.6a2.39 2.39 0 0 0 2.3-.29 1.93 1.93 0 0 0 .66-1.43"/>
    </g>
    <g mask="url(#u)">
        <path class="c" d="M37.06 48.55a6 6 0 0 0 3.24-.64c.88-.51 1.21-1.19 1.05-1.84"/>
    </g>
    <path class="c" d="M41.51 22.7A19.56 19.56 0 1 1 22 3.14 19.56 19.56 0 0 1 41.51 22.7z"/>
    <path class="g" d="M41.51 22.7A19.56 19.56 0 1 1 22 3.14 19.56 19.56 0 0 1 41.51 22.7"/>
    <path class="h" d="M41.51 22.7A19.56 19.56 0 1 1 22 3.14 19.56 19.56 0 0 1 41.51 22.7z"/>
    <path d="M37.45 11.53l-23.2 13.39V13.67a3.34 3.34 0 0 1 1.35-2.34l11.92-6.88a19.72 19.72 0 0 0-5.78-.87 19 19 0 0 0-3.22.29L13.1 7a8.28 8.28 0 0 0-3.85 6.67v12.58a4.27 4.27 0 0 0 2 3.85 3.81 3.81 0 0 0 1.92.51 4.81 4.81 0 0 0 2.41-.69l24.3-14a19.41 19.41 0 0 0-2.43-4.39z" fill="#f6c364" fill-rule="evenodd"/>
    <path class="j" d="M23.83 3.7l-9.48 5.47a5.76 5.76 0 0 0-2.6 4.5v12.58c0 1.65 1.17 2.33 2.6 1.5l24.47-14.13A19.53 19.53 0 0 0 23.83 3.7z"/>
    <path class="g" d="M28.14 4.68a4.39 4.39 0 0 0-1.77 3.08c0 1.15 1 1.52 2.18.83l3.52-2a19.44 19.44 0 0 0-3.93-1.91z"/>
    <path class="k" d="M28.14 4.68a4.39 4.39 0 0 0-1.77 3.08c0 1.15 1 1.52 2.18.83l3.52-2a19.44 19.44 0 0 0-3.93-1.91z"/>
    <path class="g" d="M26.37 15.08c0 1.15 1 1.52 2.18.83L37.06 11a20 20 0 0 0-2.59-2.69l-5.92 3.41a4.46 4.46 0 0 0-2.18 3.36z"/>
    <path class="k" d="M26.37 15.08c0 1.15 1 1.52 2.18.83L37.06 11a20 20 0 0 0-2.59-2.69l-5.92 3.41a4.46 4.46 0 0 0-2.18 3.36z"/>
    <g class="l">
        <path class="g" d="M24.19 13.12c0-3-2.12-4.23-4.72-2.73a10.47 10.47 0 0 0-4.72 8.18c0 3 2.12 4.23 4.72 2.73a10.47 10.47 0 0 0 4.72-8.18"/>
    </g>
    <path d="M24.19 13.12c0-3-2.12-4.23-4.72-2.73a10.47 10.47 0 0 0-4.72 8.18c0 3 2.12 4.23 4.72 2.73a10.47 10.47 0 0 0 4.72-8.18z" stroke="#f6c364" fill="none" stroke-linecap="round" stroke-linejoin="round"/>
    <g class="l">
        <path class="o" d="M18.07 16.17c0-.41-.29-.57-.64-.37a1.42 1.42 0 0 0-.65 1.11c0 .41.29.58.65.38a1.45 1.45 0 0 0 .64-1.12"/>
    </g>
    <g class="l">
        <path class="o" d="M21.9 14c0-.41-.29-.57-.65-.37a1.45 1.45 0 0 0-.64 1.12c0 .41.29.57.64.37A1.43 1.43 0 0 0 21.9 14"/>
    </g>
    <path d="M17.43 19.12a1.4 1.4 0 0 0 1.66 0 4.53 4.53 0 0 0 1.66-1.89" stroke="#dcaf59" fill="none" stroke-linecap="round" stroke-linejoin="round"/>
    <path d="M39.62 31.06L22.14 41.21a1.22 1.22 0 0 1-1.49.06 20.69 20.69 0 0 1-5.73-8.51 1.4 1.4 0 0 1 .34-.47l25.27-14.54a19.63 19.63 0 0 0-2-4.62L12.62 28l-.19.12A5.65 5.65 0 0 0 10.08 34v.17a24.44 24.44 0 0 0 3.55 6.77 19.51 19.51 0 0 0 25.95-9.88z" fill="#ff8f52" fill-rule="evenodd"/>
    <g class="m">
        <path class="r" d="M26.56 32c1.42 2.24 1.66 4.92-.21 6.53s-5.64 1.16-7.44-1.69-.6-6.43 1.66-7.44 4.57.35 5.99 2.6z"/>
    </g>
    <g class="l">
        <path class="r" d="M22.44 37a2.37 2.37 0 0 0 2.3-.29 1.93 1.93 0 0 0 .66-1.43"/>
    </g>
    <path class="j" d="M25.08 42.39l11.77-6.83a19.55 19.55 0 0 0 2.83-20.21L13.87 30.21S12 31.5 12.5 33.39a22.83 22.83 0 0 0 5.69 9 19.87 19.87 0 0 0 3.55.34 19.39 19.39 0 0 0 3.34-.34z"/>
    <g class="l">
        <path class="s" d="M26.56 32c1.42 2.24 1.66 4.92-.21 6.53s-5.64 1.16-7.44-1.69-.6-6.43 1.66-7.44 4.57.35 6 2.6"/>
    </g>
    <path d="M26.56 32c1.42 2.24 1.66 4.92-.21 6.53s-5.64 1.16-7.44-1.69-.6-6.43 1.66-7.44 4.57.35 5.99 2.6z" stroke="#ff8f52" fill="none" stroke-linecap="round" stroke-linejoin="round"/>
    <path class="s" d="M29.07 28.64zM41.24 21.87a19.87 19.87 0 0 0-.56-3.56L28.22 25.5a1.68 1.68 0 0 0 .85 3.14 1.64 1.64 0 0 0 .84-.23z"/>
    <path class="u" d="M29.07 28.64zM41.24 21.87a19.87 19.87 0 0 0-.56-3.56L28.22 25.5a1.68 1.68 0 0 0 .85 3.14 1.64 1.64 0 0 0 .84-.23z"/>
    <path class="s" d="M41.16 25.38l-10 5.77A1.69 1.69 0 0 0 32 34.3a1.67 1.67 0 0 0 .84-.22l7.23-4.17a19.49 19.49 0 0 0 1.09-4.53z"/>
    <path class="u" d="M41.16 25.38l-10 5.77A1.69 1.69 0 0 0 32 34.3a1.8 1.8 0 0 0 .84-.23l7.23-4.17a19.49 19.49 0 0 0 1.09-4.52z"/>
    <path d="M22.44 37a2.37 2.37 0 0 0 2.3-.29 1.93 1.93 0 0 0 .66-1.43" stroke="#e8824a" fill="none" stroke-linecap="round" stroke-linejoin="round"/>
    <g class="l">
        <path class="w" d="M21.05 34.53a.58.58 0 0 1 0 .77.64.64 0 1 1-.68-1.08.59.59 0 0 1 .7.31"/>
    </g>
    <g class="l">
        <path class="w" d="M24.7 32.39a.56.56 0 0 1 0 .76.62.62 0 0 1-.88-.2.61.61 0 0 1 .2-.87.56.56 0 0 1 .7.31"/>
    </g>
    <path class="c" d="M88.91 22.7A19.56 19.56 0 1 1 69.35 3.14 19.56 19.56 0 0 1 88.91 22.7z"/>
    <path class="c" d="M88.91 22.7A19.56 19.56 0 1 1 69.35 3.14 19.56 19.56 0 0 1 88.91 22.7z"/>
    <path class="x" d="M88.91 22.7A19.56 19.56 0 1 1 69.35 3.14 19.56 19.56 0 0 1 88.91 22.7"/>
    <path class="h" d="M88.91 22.7A19.56 19.56 0 1 1 69.35 3.14 19.56 19.56 0 0 1 88.91 22.7z"/>
    <path class="y" d="M69 14.62l-11-6.4a4 4 0 0 0-1.05-.41A19.39 19.39 0 0 0 53 12.54v15.59a5.15 5.15 0 0 0 2.47 4.29l11.08 6.4a3.59 3.59 0 0 0 1.8.49 3.06 3.06 0 0 0 1.56-.41 3.34 3.34 0 0 0 1.61-3v-17A5.17 5.17 0 0 0 69 14.62zM66.51 33L58 28.14a.47.47 0 0 1 0-.1V14l8.47 4.89a.47.47 0 0 1 .05.1z"/>
    <path class="y" d="M85 34.73V16.2a5.18 5.18 0 0 0-2.48-4.29l-11.03-6.4a3.33 3.33 0 0 0-3.51 0l-13.51 8.8a2.5 2.5 0 0 0 1.48 4.58L66.46 25a.25.25 0 0 1 0 .07v16.69a19.83 19.83 0 0 0 3.29.29c.58 0 1.15 0 1.71-.08V25a5 5 0 0 0-.93-2.83A4.86 4.86 0 0 0 69 20.71l-8-4.66 8.83-5.74L80 16.2a.18.18 0 0 1 .06.09v22.84a19.48 19.48 0 0 0 4.94-4.4z"/>
    <g class="z">
        <path class="aa" d="M76.55 22.8l3.79-2.32v4.38l-3.79 2.32z"/>
    </g>
    <g class="z">
        <path class="aa" d="M71.21 25.87L75 23.55v4.38l-3.79 2.32z"/>
    </g>
    <g class="z">
        <path class="aa" d="M76.55 29l3.79-2.32v4.38l-3.79 2.34z"/>
    </g>
    <path class="x" d="M67.79 22.88l-11.08-6.4c-.67-.39-1.22-.07-1.22.71V35.8A19.44 19.44 0 0 0 69 42V25a2.72 2.72 0 0 0-1.21-2.12zM54.26 25.58l-4-2.29a19.43 19.43 0 0 0 5.23 12.51v-8.09a2.75 2.75 0 0 0-1.23-2.13z"/>
    <path class="y" d="M54.51 25.15l-4.26-2.46c0 .4 0 .8.06 1.19L54 26a2.23 2.23 0 0 1 1 1.69v7.54c.32.37.65.74 1 1.09v-8.61a3.22 3.22 0 0 0-1.49-2.56z"/>
    <g class="z">
        <path class="ab" d="M61.48 22.81l-3.8-2.19V25l3.8 2.19z"/>
    </g>
    <g class="z">
        <path class="ac" d="M61.48 22.81l-3.8-2.19V25l3.8 2.19z"/>
    </g>
    <g class="z">
        <path class="ab" d="M66.81 25.69L63 23.5v4.38l3.79 2.19z"/>
    </g>
    <g class="z">
        <path class="ac" d="M66.81 25.69L63 23.5v4.38l3.79 2.19z"/>
    </g>
    <g class="z">
        <path class="ab" d="M61.48 29l-3.8-2.19v4.38l3.8 2.19z"/>
    </g>
    <g class="z">
        <path class="ac" d="M61.48 29l-3.8-2.19v4.38l3.8 2.19z"/>
    </g>
    <g class="z">
        <path class="ab" d="M66.81 31.91L63 29.72v4.38l3.79 2.19z"/>
    </g>
    <g class="z">
        <path class="ad" d="M66.81 36.79a.47.47 0 0 1-.25-.07l-3.79-2.19a.5.5 0 0 1-.25-.43v-4.38a.5.5 0 0 1 .25-.43.5.5 0 0 1 .5 0l3.79 2.19a.48.48 0 0 1 .25.43v4.38a.48.48 0 0 1-.25.43.43.43 0 0 1-.25.07zm-3.29-3l2.79 1.61v-3.2l-2.79-1.61z"/>
    </g>
    <g class="z">
        <path class="ab" d="M61.48 35.25l-3.8-2.19v4.38l3.8 2.19z"/>
    </g>
    <g class="z">
        <path class="ad" d="M61.48 40.13a.43.43 0 0 1-.25-.07l-3.8-2.19a.49.49 0 0 1-.25-.43v-4.38a.5.5 0 0 1 .25-.43.5.5 0 0 1 .5 0l3.8 2.19a.5.5 0 0 1 .25.43v4.38a.49.49 0 0 1-.25.43.47.47 0 0 1-.25.07zm-3.3-3L61 38.77v-3.23l-2.8-1.61z"/>
    </g>
    <path class="ab" d="M63 40.32l1.9 1.1c.62.16 1.25.28 1.89.38v-3.67L63 35.94z"/>
    <path class="y" d="M63.27 35.51a.5.5 0 0 0-.5 0 .5.5 0 0 0-.25.43v4.38a.5.5 0 0 0 .22.4 19.36 19.36 0 0 0 4.58 1.16v-3.75a.5.5 0 0 0-.25-.43zm3 6.13L63.52 40v-3.19l2.8 1.61z"/>
    <path class="ab" d="M53 32.54l.25.15v-4.38l-2.55-1.47a19.22 19.22 0 0 0 2.3 5.7z"/>
    <path class="y" d="M50.6 26.18c.08.45.2.89.31 1.34l1.88 1.08v3.22l-.26-.15c.27.51.57 1 .88 1.48a.61.61 0 0 0 .13 0 .5.5 0 0 0 .25-.43v-4.41a.49.49 0 0 0-.25-.43z"/>
    <path class="x" d="M81.31 14.08l-11.07-6.4a.86.86 0 0 0-.89-.07l-13.53 8.81a.83.83 0 0 1 .89.06l11.08 6.4a2.42 2.42 0 0 1 .73.7A2.62 2.62 0 0 1 69 25v17h.79a19.44 19.44 0 0 0 12.74-4.74V16.2a2.7 2.7 0 0 0-1.22-2.12z"/>
    <path class="ae" d="M56.76 10.39a.85.85 0 0 0-.9-.07l-2.46 1.6a19.52 19.52 0 0 0-3.12 10.58v.79l4 2.3a2.69 2.69 0 0 1 1.23 2.12V17.19a.85.85 0 0 1 .35-.78L61.19 13z"/>
    <path class="y" d="M61.44 12.52L57 10a1.31 1.31 0 0 0-1.42-.06l-1.4.91a19.27 19.27 0 0 0-1.37 2.09l3.32-2.17a.45.45 0 0 1 .37.08L60.23 13l-4.64 3h-.06a1.39 1.39 0 0 0-.5 1.15v8.32a2.74 2.74 0 0 0-.48-.36l-4.26-2.46c0 .4 0 .8.06 1.19l3.7 2.16a2.23 2.23 0 0 1 1 1.69.5.5 0 1 0 1 0v-10.5a.46.46 0 0 1 .11-.36h.06l5.26-3.42a.51.51 0 0 0 .23-.43.5.5 0 0 0-.27-.46z"/>
    <g class="z">
        <path class="ae" d="M76.55 22.8l3.79-2.32v4.38l-3.79 2.32z"/>
    </g>
    <g class="z">
        <path class="ae" d="M71.21 25.87L75 23.55v4.38l-3.79 2.32z"/>
    </g>
    <g class="z">
        <path class="ae" d="M76.55 29l3.79-2.32v4.38l-3.79 2.34z"/>
    </g>
    <g class="z">
        <path class="ae" d="M71.21 32.09L75 29.77v4.38l-3.79 2.32z"/>
    </g>
    <path class="ae" d="M75.18 35.88l-3.79 2.32v3.79c.33 0 .9-.11 1.42-.15l2.4-1.58z"/>
    <g mask="url(#ay)">
        <path class="ae" d="M81.31 14.08l-11.07-6.4a.86.86 0 0 0-.89-.07l-13.53 8.81a.83.83 0 0 1 .89.06l11.08 6.4a2.42 2.42 0 0 1 .73.7L82.19 15a2.47 2.47 0 0 0-.88-.93"/>
    </g>
    <path class="y" d="M81.56 13.64L70.49 7.25a1.33 1.33 0 0 0-1.42 0L55.56 16a.5.5 0 0 0 .55.83s.18 0 .36.08l11.08 6.4a2 2 0 0 1 .57.56 2.1 2.1 0 0 1 .4 1.13v17h1V25a3.08 3.08 0 0 0-.58-1.7 3 3 0 0 0-.89-.86l-10.9-6.29L69.62 8s.19 0 .37.08l11.07 6.4a2.23 2.23 0 0 1 1 1.69v21.57c.35-.28.67-.58 1-.88V16.2a3.22 3.22 0 0 0-1.5-2.56z"/>
    <g mask="url(#az)">
        <path class="ae" d="M76.75 35.32l3.8-2.32v4.38l-3.8 2.32z"/>
    </g>
    <path class="h" d="M88.91 22.7A19.56 19.56 0 1 1 69.35 3.14 19.56 19.56 0 0 1 88.91 22.7z"/>
    <path class="c" d="M65.21 63.58A19.56 19.56 0 1 1 45.65 44a19.56 19.56 0 0 1 19.56 19.58z"/>
    <path class="c" d="M65.21 63.58A19.56 19.56 0 1 1 45.65 44a19.56 19.56 0 0 1 19.56 19.58z"/>
    <path class="ah" d="M65.21 63.58A19.56 19.56 0 1 1 45.65 44a19.56 19.56 0 0 1 19.56 19.58"/>
    <path class="h" d="M65.21 63.58A19.56 19.56 0 1 1 45.65 44a19.56 19.56 0 0 1 19.56 19.58z"/>
    <path class="ai" d="M63.06 64a2.53 2.53 0 0 0-1.25-2.07L40.57 49.69a2.51 2.51 0 0 0-2.54 0 2.47 2.47 0 0 0-1.2 2.31l.61 15.75a2.49 2.49 0 0 0 1.24 2.07l17.14 9.89A19.65 19.65 0 0 0 63.33 71zm-20.68 2.13L42 56.28l16.12 9.3.38 9.86z"/>
    <path class="ai" d="M57.41 75.17L36.18 62.93a2.48 2.48 0 0 0-2.46 0A2.51 2.51 0 0 0 32.43 65l-.22 5.59a3.17 3.17 0 0 0 1.5 2.87l15.37 8.87a19.51 19.51 0 0 0 9.58-4.85 2.48 2.48 0 0 0-1.25-2.31zm-3.82 4l-16.34-9.44v-.4l16.34 9.42z"/>
    <path class="aj" d="M56.39 79.31L39 69.27l-3.39 2 17.26 10a19.28 19.28 0 0 0 3.52-1.96z"/>
    <path class="aj" d="M61 74.93l-.44-10.83a.62.62 0 0 0-1-.56l-1.94 1.13a2.26 2.26 0 0 0-1 1.67l-.54 13.16A19.55 19.55 0 0 0 61 74.93z"/>
    <path class="aj" d="M61.06 64.08a1.2 1.2 0 0 0-.57-1 1.19 1.19 0 0 0-1.19.07l-1.94 1.13a2.74 2.74 0 0 0-1.26 2.08l-.53 13.49c.35-.21.69-.42 1-.66l.5-12.8a1.79 1.79 0 0 1 .76-1.25L59.8 64c.13-.07.2-.07.21-.06s0 .06.05.2l.44 11.44c.34-.41.65-.84 1-1.27z"/>
    <path class="aj" d="M34.71 70.67a.66.66 0 0 0 .25.62l17.45 10.08a19.2 19.2 0 0 0 3.67-1.87l.09-2.16L34.93 65.1z"/>
    <path d="M35.18 64.66a.51.51 0 0 0-.75.42l-.22 5.58a1.17 1.17 0 0 0 .5 1.07l17.09 9.86c.41-.14.83-.28 1.23-.45L35.24 70.88a.41.41 0 0 1 0-.19l.19-4.75 20.23 11.68-.09 2.19c.35-.21.69-.42 1-.66l.07-1.79a.53.53 0 0 0-.25-.46z" fill="#935323" fill-rule="evenodd"/>
    <g class="al">
        <path class="am" d="M56.6 66.34a2.26 2.26 0 0 1 1-1.67l2-1.13a.72.72 0 0 1 .67-.07L39 51.22a.7.7 0 0 0-.69.06l-2 1.13-.16.11a2.27 2.27 0 0 0-.85 1.55"/>
    </g>
    <g class="an">
        <path class="am" d="M51.47 61.53a1.31 1.31 0 0 0 1.16 0l.29-.17.29-.17a.35.35 0 0 0 0-.67c-.51-.3-1.24-.67-1.24-.67l-1.66 1 1.16.72z"/>
    </g>
    <g class="an">
        <path class="am" d="M52.05 60.37a.51.51 0 0 0-.57.49.27.27 0 0 0 .17.23.87.87 0 0 0 .8 0 .27.27 0 0 0 .17-.23.51.51 0 0 0-.57-.49z"/>
    </g>
    <g class="an">
        <path class="am" d="M43.7 55a1.34 1.34 0 0 0-1.17 0l-.29.17-.28.17c-.33.18-.33.48 0 .67.51.3 1.24.67 1.24.67l1.66-1z"/>
    </g>
    <g class="an">
        <path class="am" d="M43.16 55.26a.51.51 0 0 1 .57.49.27.27 0 0 1-.17.23.87.87 0 0 1-.8 0 .27.27 0 0 1-.17-.23.51.51 0 0 1 .57-.49z"/>
    </g>
    <g class="an">
        <path class="am" d="M50.86 58.57l-.55.32v1.92l.55-.32z"/>
    </g>
    <g class="an">
        <path class="am" d="M51.42 58.25v1.92l.55-.32v-1.92z"/>
    </g>
    <g class="an">
        <path class="am" d="M43.79 54.42l-.59.34v1.92l.59-.35z"/>
    </g>
    <g class="an">
        <path class="am" d="M44.35 54.1V56l.51-.29v-1.9z"/>
    </g>
    <g class="an">
        <path class="am" d="M52.36 57.36a.53.53 0 0 0-.07-.34s-2-3.14-4.19-4.08a3.89 3.89 0 0 0-2.38-.33 5.62 5.62 0 0 0-1 .42l-1.14.66a.94.94 0 0 0-.48.63v.55c0 .14.14.25.34.29h.51a3.58 3.58 0 0 1 1.38.26 11.82 11.82 0 0 1 3.81 3.27 1.45 1.45 0 0 0 1.17.59 1.36 1.36 0 0 0 .72-.19l1.09-.63a.52.52 0 0 0 .27-.42v-.66z"/>
    </g>
    <g class="an">
        <path class="am" d="M50.53 58.52l1.5-.87a.4.4 0 0 0 .19-.25.43.43 0 0 0 0-.31s-2-3.11-4.12-4a3.89 3.89 0 0 0-2.29-.33 6.08 6.08 0 0 0-1 .41l-1.14.66a.83.83 0 0 0-.41.51v.07a.54.54 0 0 0 .36.08h.32a4.55 4.55 0 0 1 1.75.33 12.47 12.47 0 0 1 4.21 3.6.52.52 0 0 0 .63.1z"/>
    </g>
    <g class="an">
        <path class="am" d="M56.68 65.91a.83.83 0 0 0 0 .15.83.83 0 0 1 0-.15z"/>
    </g>
    <g class="an">
        <path class="am" d="M56.62 66.13a1.5 1.5 0 0 0 0 .2 1.5 1.5 0 0 1 0-.2z"/>
    </g>
    <g class="an">
        <path class="am" d="M56.86 65.48v.06-.06z"/>
    </g>
    <g class="an">
        <path class="am" d="M56.77 65.66l-.07.18.07-.18z"/>
    </g>
    <g class="al">
        <path class="am" d="M35.36 54.1l-.43 11 21.24 12.24.43-11"/>
    </g>
    <g class="an">
        <path class="am" d="M52.36 57.36a.53.53 0 0 0-.07-.34s-2-3.14-4.19-4.08a3.89 3.89 0 0 0-2.38-.33 5.62 5.62 0 0 0-1 .42l-1.14.66a.94.94 0 0 0-.48.63v.55c0 .14.14.25.34.29h.51a3.58 3.58 0 0 1 1.38.26 11.82 11.82 0 0 1 3.81 3.27 1.45 1.45 0 0 0 1.17.59 1.36 1.36 0 0 0 .72-.19l1.09-.63a.52.52 0 0 0 .27-.42v-.66z"/>
    </g>
    <g class="al">
        <path class="ah" d="M56.6 66.34a2.26 2.26 0 0 1 1-1.67l2-1.13a.72.72 0 0 1 .67-.07L39 51.22a.7.7 0 0 0-.69.06l-2 1.13-.16.11a2.27 2.27 0 0 0-.85 1.55"/>
    </g>
    <g class="al">
        <path class="ao" d="M56.6 66.34a2.26 2.26 0 0 1 1-1.67l2-1.13a.72.72 0 0 1 .67-.07L39 51.22a.7.7 0 0 0-.69.06l-2 1.13-.16.11a2.27 2.27 0 0 0-.85 1.55"/>
    </g>
    <g class="an">
        <path class="aj" d="M51.47 61.53a1.31 1.31 0 0 0 1.16 0l.29-.17.29-.17a.35.35 0 0 0 0-.67c-.51-.3-1.24-.67-1.24-.67l-1.66 1 1.16.72z"/>
    </g>
    <g class="al">
        <path class="ap" d="M52.05 60.37a.51.51 0 0 0-.57.49.27.27 0 0 0 .17.23.87.87 0 0 0 .8 0 .27.27 0 0 0 .17-.23.51.51 0 0 0-.57-.49"/>
    </g>
    <g class="an">
        <path class="aj" d="M43.7 55a1.34 1.34 0 0 0-1.17 0l-.29.17-.28.17c-.33.18-.33.48 0 .67.51.3 1.24.67 1.24.67l1.66-1z"/>
    </g>
    <g class="al">
        <path class="ap" d="M43.16 55.26a.51.51 0 0 1 .57.49.27.27 0 0 1-.17.23.87.87 0 0 1-.8 0 .27.27 0 0 1-.17-.23.51.51 0 0 1 .57-.49"/>
    </g>
    <g class="an">
        <path class="ap" d="M50.86 58.57l-.55.32v1.92l.55-.32z"/>
    </g>
    <g class="an">
        <path class="ap" d="M51.42 58.25v1.92l.55-.32v-1.92z"/>
    </g>
    <g class="an">
        <path class="aq" d="M43.79 54.42l-.59.34v1.92l.59-.35z"/>
    </g>
    <g class="an">
        <path class="aq" d="M44.35 54.1V56l.51-.29v-1.9z"/>
    </g>
    <g class="an">
        <path class="aj" d="M52.36 57.36a.53.53 0 0 0-.07-.34s-2-3.14-4.19-4.08a3.89 3.89 0 0 0-2.38-.33 5.62 5.62 0 0 0-1 .42l-1.14.66a.94.94 0 0 0-.48.63v.55c0 .14.14.25.34.29h.51a3.58 3.58 0 0 1 1.38.26 11.82 11.82 0 0 1 3.81 3.27 1.45 1.45 0 0 0 1.17.59 1.36 1.36 0 0 0 .72-.19l1.09-.63a.52.52 0 0 0 .27-.42v-.66z"/>
    </g>
    <g class="an">
        <path class="h" d="M52.36 57.36a.53.53 0 0 0-.07-.34s-2-3.14-4.19-4.08a3.89 3.89 0 0 0-2.38-.33 5.62 5.62 0 0 0-1 .42l-1.14.66a.94.94 0 0 0-.48.63v.55c0 .14.14.25.34.29h.51a3.58 3.58 0 0 1 1.38.26 11.82 11.82 0 0 1 3.81 3.27 1.45 1.45 0 0 0 1.17.59 1.36 1.36 0 0 0 .72-.19l1.09-.63a.52.52 0 0 0 .27-.42v-.66z"/>
    </g>
    <g class="al">
        <path class="ah" d="M50.53 58.52l1.5-.87a.4.4 0 0 0 .19-.25.43.43 0 0 0 0-.31s-2-3.11-4.12-4a3.89 3.89 0 0 0-2.29-.33 6.08 6.08 0 0 0-1 .41l-1.14.66a.83.83 0 0 0-.41.51v.07a.54.54 0 0 0 .36.08h.32a4.55 4.55 0 0 1 1.75.33 12.47 12.47 0 0 1 4.21 3.6.52.52 0 0 0 .63.13"/>
    </g>
    <g class="al">
        <path class="ar" d="M56.68 65.91a.83.83 0 0 0 0 .15.83.83 0 0 1 0-.15"/>
    </g>
    <g class="an">
        <path class="ao" d="M56.68 65.91a.83.83 0 0 0 0 .15.83.83 0 0 1 0-.15z"/>
    </g>
    <g class="al">
        <path class="ar" d="M56.62 66.13a1.5 1.5 0 0 0 0 .2 1.5 1.5 0 0 1 0-.2"/>
    </g>
    <g class="an">
        <path class="ao" d="M56.62 66.13a1.5 1.5 0 0 0 0 .2 1.5 1.5 0 0 1 0-.2z"/>
    </g>
    <g class="al">
        <path class="ar" d="M56.86 65.48v.06-.06"/>
    </g>
    <g class="an">
        <path class="ao" d="M56.86 65.48v.06-.06z"/>
    </g>
    <g class="al">
        <path class="ar" d="M56.77 65.66l-.07.18.07-.18"/>
    </g>
    <g class="an">
        <path class="ao" d="M56.77 65.66l-.07.18.07-.18z"/>
    </g>
    <g class="al">
        <path class="aj" d="M35.36 54.1l-.43 11 21.24 12.24.43-11"/>
    </g>
    <g class="al">
        <path class="ao" d="M35.36 54.1l-.43 11 21.24 12.24.43-11"/>
    </g>
    <g class="an">
        <path class="ao" d="M52.36 57.36a.53.53 0 0 0-.07-.34s-2-3.14-4.19-4.08a3.89 3.89 0 0 0-2.38-.33 5.62 5.62 0 0 0-1 .42l-1.14.66a.94.94 0 0 0-.48.63v.55c0 .14.14.25.34.29h.51a3.58 3.58 0 0 1 1.38.26 11.82 11.82 0 0 1 3.81 3.27 1.45 1.45 0 0 0 1.17.59 1.36 1.36 0 0 0 .72-.19l1.09-.63a.52.52 0 0 0 .27-.42v-.66z"/>
    </g>
    <g class="an">
        <path class="aq" d="M47.24 72.22v1.26c0 .78-.64 1.06-1.43.6l-.72-.41a3 3 0 0 1-1.43-2.26v-1.26z"/>
    </g>
    <path d="M46.17 73.61a.52.52 0 0 1-.27-.07l-1.45-.84a.56.56 0 0 1-.21-.76.55.55 0 0 1 .76-.2l1.45.83a.56.56 0 0 1-.28 1" fill="#f8d07e" fill-rule="evenodd"/>
    <g class="al">
        <path class="aj" d="M44.37 67.4c-2.22-.57-.71 2.75-.71 2.75l1.79 1 1.79 1s1.51-1.57-.71-3.58a7.58 7.58 0 0 0-1.08-.76 5.36 5.36 0 0 0-1.08-.48"/>
    </g>
    <g class="an">
        <path class="ao" d="M44.37 67.4c-2.22-.57-.71 2.75-.71 2.75l1.79 1 1.79 1s1.51-1.57-.71-3.58a7.58 7.58 0 0 0-1.08-.76 5.36 5.36 0 0 0-1.08-.48z"/>
    </g>
    <g class="al">
        <path class="ap" d="M47.22 72.2l-3.54-2a.33.33 0 0 0-.33 0s-.78.45.33 1l3.54 2c.23.14.43.06.43-.18v-.1a.92.92 0 0 0-.43-.68"/>
    </g>
    <g class="al">
        <path class="ap" d="M47.17 72.17c.26.16.55.2.65.1a2.68 2.68 0 0 0 0-1.38s-1.22-.74-2.52-1.48a21.3 21.3 0 0 0-2.14-1.09 2 2 0 0 0-.46.32c-.55.65.55 1.35.55 1.35s.93.62 1.9 1.13l2 1"/>
    </g>
    <g class="al">
        <path class="aq" d="M47.12 71.5a.7.7 0 0 0 .4.66h.2a3.34 3.34 0 0 0 0-1.18s-.59 0-.6.51"/>
    </g>
    <g class="an">
        <path class="ao" d="M47.82 72.27a2.68 2.68 0 0 0 0-1.38s-1.22-.74-2.52-1.48a21.3 21.3 0 0 0-2.14-1.09 2 2 0 0 0-.46.32c-.55.65.55 1.35.55 1.35l.17.11h-.07s-.76.44.31 1v.3a3 3 0 0 0 1.43 2.26l.72.41c.79.46 1.43.18 1.43-.6v-.3c.23.11.41 0 .41-.2v-.1a.87.87 0 0 0-.41-.66h-.07c.26.12.55.16.65.06z"/>
    </g>
    <path class="h" d="M65.21 63.58A19.56 19.56 0 1 1 45.65 44a19.56 19.56 0 0 1 19.56 19.58z"/>
    <path d="M41.94 22.49A19.77 19.77 0 1 1 22.17 2.71a19.77 19.77 0 0 1 19.77 19.78z" stroke-width="1.01" stroke="#33475c" fill="none" stroke-linecap="round" stroke-linejoin="round"/>
    <path class="h" d="M41.46 22.83A19.56 19.56 0 1 1 21.9 3.27a19.56 19.56 0 0 1 19.56 19.56z"/>
</svg>
