<svg xmlns="http://www.w3.org/2000/svg" viewBox="0 0 120 120" width="120" height="120">
    <defs>
        <style>
            .o{stroke-linecap:round;stroke-linejoin:round}.f,.h{fill-rule:evenodd}.f{fill:#f2547d}.h{fill:#98acc3}.i{fill:#33475c}.o{fill:none;stroke:#33475c;stroke-width:.46px}
        </style>
    </defs>
    <path d="M1.84 88l58 31.54a4.06 4.06 0 0 0 3.9 0L118.25 88a3.3 3.3 0 0 0 .13-5.75l-54.5-34.68a4 4 0 0 0-4.17 0l-58 34.65A3.31 3.31 0 0 0 1.84 88z" fill="#7fded2" opacity=".6"/>
    <path stroke-linecap="round" stroke-linejoin="round" stroke="#516f90" stroke-width="2.85" fill="#fff" d="M57.39 14.79l-40.4 23.53v47.07l40.4 23.53 40.4-23.53V38.32l-40.4-23.53z"/>
    <path fill-rule="evenodd" fill="#ccd6e2" d="M96.33 39.36L57.39 61.85v46.09l39.03-23.37-.09-45.21z"/>
    <path fill="#dfe3eb" fill-rule="evenodd" d="M18.39 39.16l39 22.69v46.09l-39-23.41V39.16z"/>
    <path d="M16.49 12.93c3.61.89 4.33 1.61 5.22 5.24.89-3.63 1.61-4.35 5.23-5.24-3.62-.88-4.34-1.6-5.23-5.23-.89 3.63-1.6 4.35-5.22 5.23" fill="#f5c26b" fill-rule="evenodd"/>
    <path class="f" d="M29.23 11.79c1.85.45 2.22.82 2.67 2.68.46-1.86.82-2.23 2.68-2.68-1.86-.46-2.22-.83-2.68-2.68-.45 1.85-.82 2.22-2.67 2.68"/>
    <path d="M24.33 3.85C27 4.51 27.47 5 28.11 7.7c.65-2.7 1.17-3.19 3.79-3.85-2.62-.65-3.14-1.18-3.79-3.85-.64 2.67-1.11 3.2-3.78 3.85" fill="#7fd1de" fill-opacity=".5" fill-rule="evenodd"/>
    <path class="h" d="M83.74 5c-.82-.25-1.38-.84-1.23-1.31s.92-.67 1.75-.42 1.38.83 1.24 1.31-.93.66-1.76.42"/>
    <path class="i" d="M84.46 5.32a2.81 2.81 0 0 1-.79-.12 2.51 2.51 0 0 1-1.09-.64 1 1 0 0 1-.31-1 .88.88 0 0 1 .45-.52A2.19 2.19 0 0 1 84.33 3a2.49 2.49 0 0 1 1.09.63 1 1 0 0 1 .31 1 1 1 0 0 1-.8.64 1.84 1.84 0 0 1-.47.05zm-.92-1.95a1.17 1.17 0 0 0-.54.13.42.42 0 0 0-.21.23.56.56 0 0 0 .2.5 2 2 0 0 0 .87.5 2 2 0 0 0 1 .06c.24-.06.4-.17.44-.31a.55.55 0 0 0-.2-.51 2.1 2.1 0 0 0-.87-.5 2.57 2.57 0 0 0-.69-.1zM104.11 28.36L82.89 5.94l21.21 22.42.15.19a1.33 1.33 0 0 0-.14-.19zM113.27 36.71a.83.83 0 0 1 .13.14l-.06-.07z"/>
    <path class="i" d="M112.54 26.64a13 13 0 0 0-1.37-.34l-11.5-12.19-.07-.11L88.54 2.35A8.45 8.45 0 0 0 81.09.14a3.54 3.54 0 0 0-2.74 2.27l-1.21 4.07a3.47 3.47 0 0 0 1 3.37l22.34 23.62-.09.3c-.5 1.67.09 3.51 1.65 5.16a13.27 13.27 0 0 0 5.8 3.37 15.12 15.12 0 0 0 3.28.6h.08a1.22 1.22 0 0 0 1.17-.87l1.25-4.03v-.13a1.5 1.5 0 0 0 0-.22 1.94 1.94 0 0 0 0-.24c0-.06 0-.11-.05-.16a.36.36 0 0 0 0-.09 1.06 1.06 0 0 0-.11-.21v-.06a.83.83 0 0 0-.13-.14l-2.87-3a1.77 1.77 0 0 1-.28-.4.85.85 0 0 1 .45-.21 4.05 4.05 0 0 1 3.38 1l2.94 3.12a1.21 1.21 0 0 0 1.65.1 4.28 4.28 0 0 0 1.4-2.2 4.17 4.17 0 0 0 .17-1.16c0-2.94-3.09-6-7.63-7.36zM80.68 3.1c.07-.23.45-.47 1-.59a2.27 2.27 0 0 1 .25-.06 1.87 1.87 0 0 0-.56.86 1.81 1.81 0 0 0 0 1l-.17-.18a2.15 2.15 0 0 1-.36-.49.41.41 0 0 1-.06-.11.79.79 0 0 1-.07-.3s-.03-.1-.03-.13zM80 8.18c-.44-.46-.54-.82-.48-1l.3-1 22 23.22c0 .1-.07.2-.1.3l-.32 1.07zm30.41 32.19a12.7 12.7 0 0 1-1.78-.41 10.85 10.85 0 0 1-4.74-2.71 3.1 3.1 0 0 1-1.09-2.78l.06-.18.09.12c.18.21.37.42.58.63s.21.21.32.3a2.74 2.74 0 0 0 .36.32l.31.25a11.25 11.25 0 0 0 .94.67l.84.48c.25.14.52.28.79.4l1.11.45c.31.12.62.22.95.32a15.8 15.8 0 0 0 1.78.41zm7.31-5.9l-2-2.06A6.38 6.38 0 0 0 110 30.7a2.87 2.87 0 0 0-2.21 1.86 2.83 2.83 0 0 0 .84 2.78l.2.23a2.87 2.87 0 0 1-.37-.15c-.2-.08-.39-.16-.57-.25a10.38 10.38 0 0 1-1.55-.91l-.45-.33a4.32 4.32 0 0 1-.39-.34 4 4 0 0 1-.36-.35 3.25 3.25 0 0 1-.31-.35 2.06 2.06 0 0 1-.27-.35 2.84 2.84 0 0 1-.22-.35 1.53 1.53 0 0 1-.16-.31v-.05c0-.05-.08-.22-.11-.32a.59.59 0 0 1-.05-.22.32.32 0 0 1 0-.14 1.33 1.33 0 0 1 0-.28 1.78 1.78 0 0 1 .07-.47 1.71 1.71 0 0 1 .24-.49 1.21 1.21 0 0 0 0-1.35l-.15-.19L82.89 5.94a3.41 3.41 0 0 0 .5.19 3.47 3.47 0 0 0 1.77.08 2 2 0 0 0 1.5-1.31 1.72 1.72 0 0 0 0-1l.11.1 11 11.6.07.08 11.85 12.55a1.15 1.15 0 0 0 .68.37 11.1 11.1 0 0 1 1.49.35c4.02 1.22 6.3 3.89 5.81 5.52z"/>
    <path class="i" d="M116.56 41.64a1.2 1.2 0 0 1-.88-.38l-2.94-3.11a3.92 3.92 0 0 0-2.08-1 1.24 1.24 0 0 1-.67-.37l-1.35-1.42A2.64 2.64 0 0 1 110 30.7a6.39 6.39 0 0 1 5.7 1.71l2 2.06a1.22 1.22 0 1 1 2.33.69l-1.21 4.08a4.39 4.39 0 0 1-1.46 2.13 1.25 1.25 0 0 1-.8.27zm-5.07-6.81a6.11 6.11 0 0 1 3 1.65l2 2.06.42-1.38-2.91-3.08a4 4 0 0 0-3.38-1 .85.85 0 0 0-.45.21 1.63 1.63 0 0 0 .28.39z"/>
    <path class="i" d="M108.48 35.43a2.87 2.87 0 0 0 .37.15zm-.62-.27a12 12 0 0 1-1.55-.91 10.38 10.38 0 0 0 1.55.91z"/>
    <path d="M83.74 5c-.82-.25-1.38-.84-1.23-1.31s.92-.67 1.75-.42 1.38.83 1.24 1.31-.93.66-1.76.42m28.45 22.8a14.68 14.68 0 0 0-1.63-.38L98.71 14.87 96 12l-8.34-8.82a7.26 7.26 0 0 0-6.29-1.86 2.31 2.31 0 0 0-1.85 1.44A2.27 2.27 0 0 0 80.28 5l11 11.68 11.94 12.52a2.93 2.93 0 0 0-.42.85c-.76 2.55 2.21 5.69 6.64 7a13.41 13.41 0 0 0 3 .55l-2.93-3.1c-1-1.1-.7-2.27.77-2.62a5.19 5.19 0 0 1 4.54 1.35l2.94 3.11a3.09 3.09 0 0 0 1.06-1.53c.76-2.56-2.21-5.7-6.64-7" fill="#cbd6e3" fill-rule="evenodd"/>
    <path class="i" d="M112.45 37.86a13.44 13.44 0 0 1-3.07-.56c-4.55-1.35-7.6-4.63-6.8-7.31a3 3 0 0 1 .34-.76L80.1 5.11a2.5 2.5 0 0 1-.82-2.42 2.54 2.54 0 0 1 2-1.6A7.36 7.36 0 0 1 87.83 3l11.06 11.7 11.76 12.45a15.1 15.1 0 0 1 1.58.38c4.55 1.36 7.6 4.64 6.81 7.32a3.42 3.42 0 0 1-1.15 1.65.25.25 0 0 1-.33 0l-2.94-3.11a5 5 0 0 0-4.3-1.29 1.45 1.45 0 0 0-1.15.86 1.41 1.41 0 0 0 .5 1.36l2.93 3.1a.25.25 0 0 1-.18.42zM82.63 1.43a5.19 5.19 0 0 0-1.2.13 2.11 2.11 0 0 0-1.68 1.26 2.07 2.07 0 0 0 .7 2L103.4 29a.24.24 0 0 1 0 .31 2.57 2.57 0 0 0-.38.78c-.73 2.42 2.18 5.43 6.47 6.71a13.87 13.87 0 0 0 2.32.48l-2.49-2.63a1.68 1.68 0 0 1 .9-3 5.42 5.42 0 0 1 4.78 1.43l2.79 2.92a2.74 2.74 0 0 0 .81-1.26c.72-2.42-2.18-5.43-6.48-6.71a13.87 13.87 0 0 0-1.61-.38.31.31 0 0 1-.14-.07L98.53 15l-11-11.64a7.08 7.08 0 0 0-4.9-1.93zm1.83 3.89a2.81 2.81 0 0 1-.79-.12 2.51 2.51 0 0 1-1.09-.64 1 1 0 0 1-.31-1 .88.88 0 0 1 .45-.52A2.19 2.19 0 0 1 84.33 3a2.49 2.49 0 0 1 1.09.63 1 1 0 0 1 .31 1 1 1 0 0 1-.8.64 1.84 1.84 0 0 1-.47.05zm-.92-1.95a1.17 1.17 0 0 0-.54.13.42.42 0 0 0-.21.23.56.56 0 0 0 .2.5 2 2 0 0 0 .87.5 2 2 0 0 0 1 .06c.24-.06.4-.17.44-.31a.55.55 0 0 0-.2-.51 2.1 2.1 0 0 0-.87-.5 2.57 2.57 0 0 0-.69-.1z"/>
    <path class="h" d="M113.62 37.32l2.94 3.1a3.16 3.16 0 0 0 1.06-1.53l1.21-4.07a3.09 3.09 0 0 1-1.06 1.53l-2.94-3.11a5.19 5.19 0 0 0-4.54-1.35c-1.47.35-1.81 1.52-.77 2.62l1.35 1.43a5.05 5.05 0 0 1 2.75 1.38"/>
    <path class="i" d="M116.56 40.67a.25.25 0 0 1-.18-.08l-2.94-3.11a4.87 4.87 0 0 0-2.61-1.3.37.37 0 0 1-.14-.07l-1.35-1.43a1.68 1.68 0 0 1 .9-3 5.42 5.42 0 0 1 4.76 1.4l2.79 2.92a2.74 2.74 0 0 0 .81-1.26.25.25 0 0 1 .3-.17.26.26 0 0 1 .17.31L117.85 39a3.35 3.35 0 0 1-1.14 1.65.22.22 0 0 1-.15.02zm-5.57-5a5.36 5.36 0 0 1 2.81 1.44l2.78 2.94a2.91 2.91 0 0 0 .81-1.27l.73-2.45-.2.17a.25.25 0 0 1-.33 0l-2.94-3.11a5 5 0 0 0-4.3-1.29 1.45 1.45 0 0 0-1.15.86 1.43 1.43 0 0 0 .5 1.36z"/>
    <path class="h" d="M109.44 37.06c-4.43-1.32-7.4-4.46-6.64-7l-1.21 4.07c-.76 2.56 2.21 5.7 6.64 7a14 14 0 0 0 3 .56l1.21-4.08a13.41 13.41 0 0 1-3-.55"/>
    <path class="i" d="M111.24 41.93a14.39 14.39 0 0 1-3.07-.56 12.31 12.31 0 0 1-5.37-3.11c-1.32-1.39-1.83-2.89-1.43-4.21l1.2-4.05a.25.25 0 0 1 .3-.17.26.26 0 0 1 .17.31c-.72 2.42 2.18 5.43 6.47 6.71a14.22 14.22 0 0 0 3 .54.22.22 0 0 1 .18.1.23.23 0 0 1 0 .21l-1.22 4.07a.23.23 0 0 1-.23.16zm-8.68-10.2l-.74 2.46c-.34 1.15.13 2.47 1.32 3.73a11.82 11.82 0 0 0 5.16 3 14.29 14.29 0 0 0 2.76.53l1.07-3.6a13.6 13.6 0 0 1-2.76-.54c-3.59-1.09-6.25-3.31-6.81-5.58z"/>
    <path d="M102.8 30.05v.24a2 2 0 0 1 0-.24" fill-rule="evenodd" fill="#fff"/>
    <path class="i" d="M102.75 30.51a.23.23 0 0 1-.2-.26 1.68 1.68 0 0 1 .06-.27.25.25 0 0 1 .3-.17.26.26 0 0 1 .17.31c0 .06 0 .12-.05.18a.26.26 0 0 1-.28.21z"/>
    <path class="h" d="M102.8 30.05a2.7 2.7 0 0 1 .42-.85L91.33 16.63 80.28 5a2.27 2.27 0 0 1-.76-2.19L78.3 6.83A2.32 2.32 0 0 0 79.06 9l11.06 11.7 11.76 12.44z"/>
    <path class="i" d="M101.88 33.38a.23.23 0 0 1-.17-.08L78.89 9.19a2.51 2.51 0 0 1-.82-2.43l1.21-4.07a.25.25 0 0 1 .31-.17.26.26 0 0 1 .16.31 2.06 2.06 0 0 0 .7 2L103.4 29a.25.25 0 0 1 0 .31 2.57 2.57 0 0 0-.38.78l-.92 3.09a.26.26 0 0 1-.18.16zM79.38 4.05l-.84 2.85a2.05 2.05 0 0 0 .7 1.95l22.53 23.81.8-2.68a3 3 0 0 1 .34-.76L80.1 5.11a3.44 3.44 0 0 1-.72-1.06zm23.42 26z"/>
    <path d="M113 4.92a3.54 3.54 0 0 0-2.29-2.17 1.35 1.35 0 0 0-.75 0 86.29 86.29 0 0 0-14.84 13.63c-6.65 7.93-10 12.83-10 12.83l4 4.09C102.7 24.44 113 5.75 113 5.75a1.3 1.3 0 0 0 0-.83z" stroke-width="3.22" fill="none" stroke="#33475c" stroke-linecap="round" stroke-linejoin="round"/>
    <path d="M89.78 33.79a2.5 2.5 0 0 0-.11-1 6.09 6.09 0 0 0-4-3.78 2.67 2.67 0 0 0-.87-.01 1.52 1.52 0 0 0-.21 0h-.06a2.49 2.49 0 0 0-2.23 2.16l2.52 2.31a6.32 6.32 0 0 0 .6.56l2.38 2.2A2.86 2.86 0 0 0 89.74 34v-.13a.62.62 0 0 0 0-.09z" stroke-width="2.31" fill="none" stroke="#33475c" stroke-linecap="round" stroke-linejoin="round"/>
    <path d="M81.55 30.79c-3.25 1.84-2.91 5-2.75 7.32a5.62 5.62 0 0 1-2 4.51s8.43 2.4 11.71-5.53a1 1 0 0 0 .07-.15l.07-.18a2.82 2.82 0 0 0 0-1.62 7.44 7.44 0 0 0-4.87-4.61 2.8 2.8 0 0 0-2.23.26z" stroke-width="3.32" fill="none" stroke="#33475c" stroke-linecap="round" stroke-linejoin="round"/>
    <path class="f" d="M113 4.92a3.54 3.54 0 0 0-2.29-2.17 1.35 1.35 0 0 0-.75 0 86.29 86.29 0 0 0-14.84 13.63c-6.65 7.93-10 12.83-10 12.83l4 4.09C102.7 24.44 113 5.75 113 5.75a1.3 1.3 0 0 0 0-.83"/>
    <path class="o" d="M113 4.92a3.54 3.54 0 0 0-2.29-2.17 1.35 1.35 0 0 0-.75 0 86.29 86.29 0 0 0-14.84 13.63c-6.65 7.93-10 12.83-10 12.83l4 4.09C102.7 24.44 113 5.75 113 5.75a1.3 1.3 0 0 0 0-.83z"/>
    <path d="M89.78 33.79a2.5 2.5 0 0 0-.11-1 6.09 6.09 0 0 0-4-3.78 2.67 2.67 0 0 0-.87-.01 1.52 1.52 0 0 0-.21 0h-.06a2.49 2.49 0 0 0-2.23 2.16l2.52 2.31a6.32 6.32 0 0 0 .6.56l2.38 2.2A2.86 2.86 0 0 0 89.74 34v-.13a.62.62 0 0 0 0-.09" fill="#7cd1df" fill-rule="evenodd"/>
    <path class="o" d="M89.78 33.79a2.5 2.5 0 0 0-.11-1 6.09 6.09 0 0 0-4-3.78 2.67 2.67 0 0 0-.87-.01 1.52 1.52 0 0 0-.21 0h-.06a2.49 2.49 0 0 0-2.23 2.16l2.52 2.31a6.32 6.32 0 0 0 .6.56l2.38 2.2A2.86 2.86 0 0 0 89.74 34v-.13a.62.62 0 0 0 0-.09z"/>
    <path d="M81.55 30.79c-3.25 1.84-2.91 5-2.75 7.32a5.62 5.62 0 0 1-2 4.51s8.43 2.4 11.71-5.53a1 1 0 0 0 .07-.15l.07-.18a2.82 2.82 0 0 0 0-1.62 7.44 7.44 0 0 0-4.87-4.61 2.8 2.8 0 0 0-2.14.27" fill="#dcad83" fill-rule="evenodd"/>
    <path d="M88.49 37.09a1 1 0 0 0 .07-.15l.07-.18a2.82 2.82 0 0 0 0-1.62A7.5 7.5 0 0 0 84 30.62c-1.49-.26-3.28 1.94-3.33 6.18a6.17 6.17 0 0 1-3.9 5.82s8.43 2.4 11.71-5.53" fill="#c9823d" fill-rule="evenodd"/>
    <path d="M88.49 37.09a1 1 0 0 0 .07-.15l.07-.18a2.82 2.82 0 0 0 0-1.62 6.72 6.72 0 0 0-1.77-2.76c-1-.68-3.83-1.55-4.22 5.44-.25 4.51-5.79 4.81-5.79 4.81s8.43 2.4 11.71-5.53" fill="#d39b66" fill-rule="evenodd"/>
    <path class="o" d="M81.55 30.79c-3.25 1.84-2.91 5-2.75 7.32a5.62 5.62 0 0 1-2 4.51s8.43 2.4 11.71-5.53a1 1 0 0 0 .07-.15l.07-.18a2.82 2.82 0 0 0 0-1.62 7.44 7.44 0 0 0-4.87-4.61 2.8 2.8 0 0 0-2.23.26z"/>
</svg>
