<svg width="148" height="155" viewBox="0 0 148 155" xmlns="http://www.w3.org/2000/svg" xmlns:xlink="http://www.w3.org/1999/xlink">
    <defs>
        <path id="a" d="M.343.863H144.34V84H.343z"/>
    </defs>
    <g fill="none" fill-rule="evenodd">
        <g transform="translate(2 70.477)">
            <mask id="b" fill="#fff">
                <use xlink:href="#a"/>
            </mask>
            <path d="M54.214 83.215L1.702 52.897c-2.015-1.163-1.76-3.215.567-4.559L82.572 1.975c2.328-1.344 5.88-1.49 7.896-.327l52.513 30.318c2.015 1.163 1.76 3.215-.567 4.56L62.11 82.887c-2.327 1.344-5.88 1.491-7.896.327" fill="#FF8F52" opacity=".2" mask="url(#b)"/>
        </g>
        <path stroke="#33475C" stroke-width="5" stroke-linecap="round" stroke-linejoin="round" d="M84.608 3.427l3.27-.928 57.125 32.982-26.838 56.244-2.132-1.296 25.701-54.02z"/>
        <path stroke="#33475C" stroke-width="5" stroke-linecap="round" stroke-linejoin="round" d="M84.608 3.427l-25.7 54.02 57.125 32.982 25.701-54.02z"/>
        <path stroke="#33475C" stroke-width="5" stroke-linecap="round" stroke-linejoin="round" d="M84.608 3.427l-25.7 54.02 57.125 32.982 25.701-54.02z"/>
        <path stroke="#33475C" stroke-width="5" stroke-linecap="round" stroke-linejoin="round" d="M58.907 57.448l25.701-54.02h.001l3.27-.928 57.125 32.98-26.839 56.245-2.132-1.296zM47.667 75.102L2.502 101.18l57.125 32.982 45.167-26.078z"/>
        <path stroke="#33475C" stroke-width="5" stroke-linecap="round" stroke-linejoin="round" d="M59.626 134.16L2.5 101.18v2.783l57.126 32.98 45.168-26.076v-2.783zM85.827 7.344L62.525 56.322l52.29 30.19 23.302-48.979-52.29-30.189"/>
        <path d="M58.723 69.721c-2.564-6.77-3.713-14.112-2.825-21.276.888-7.165 3.873-14.135 8.844-19.44 3.151-3.363 7.017-6.003 10.333-9.209 3.316-3.206 6.172-7.247 6.451-11.815l52.29 30.19c-.279 4.568-3.135 8.61-6.45 11.815-3.317 3.206-7.183 5.845-10.334 9.21-4.97 5.304-7.956 12.274-8.844 19.438-.888 7.165.261 14.507 2.825 21.276M81.526 7.981l4.301-.637 52.29 30.19-4.3.637zM47.667 75.101l57.126 32.982v2.784l-45.168 26.077-57.124-32.982v-2.783z" stroke="#33475C" stroke-width="5" stroke-linecap="round" stroke-linejoin="round"/>
        <path d="M113.679 89.073s.452 4.51-3.063 9.697c-2.271-6.451-3.266-13.37-2.427-20.135.887-7.165 3.872-14.134 8.843-19.44 3.152-3.363 7.017-6.003 10.334-9.21 3.316-3.205 6.17-7.246 6.45-11.813l4.3-.638-23.301 48.978-1.136 2.56z" stroke="#33475C" stroke-width="5" stroke-linecap="round" stroke-linejoin="round"/>
        <path stroke="#33475C" stroke-width="5" stroke-linecap="round" stroke-linejoin="round" d="M81.526 7.981l4.301-.637 52.29 30.19-4.3.637"/>
        <path d="M138.117 37.534l-52.29-30.19-4.3.637c-.28 4.569-3.136 8.609-6.452 11.816-3.316 3.206-7.182 5.845-10.333 9.209-4.97 5.304-7.956 12.274-8.844 19.439-.888 7.165.261 14.507 2.825 21.276l52.29 30.19c-.143-.377-.264-.762-.397-1.141 3.515-5.188 3.063-9.697 3.063-9.697l1.136-2.56 23.302-48.98M7.32 101.18v-9.923l52.306 30.323v9.797z" stroke="#33475C" stroke-width="5" stroke-linecap="round" stroke-linejoin="round"/>
        <path d="M107.043 96.174L59.879 70.15S43.263 60.557 7.322 91.257l52.305 30.323s34.328-33.052 47.417-25.406z" stroke="#33475C" stroke-width="5" stroke-linecap="round" stroke-linejoin="round"/>
        <path d="M82.757 101.836c20.84-14.892 27.893-3.438 29.728 1.047l-1.888 2.1-8.214 1.709-42.757 24.687v-9.798s3.816-5.944 23.131-19.745z" stroke="#33475C" stroke-width="5" stroke-linecap="round" stroke-linejoin="round"/>
        <path d="M60.819 70.397l-15.547 3.321s-19.07 9.817-23.12 15.4l44.114 25.575c14.09-12.383 31.24-23.94 38.779-19.536l-44.226-24.76z" stroke="#33475C" stroke-width="5" stroke-linecap="round" stroke-linejoin="round"/>
        <path d="M59.88 70.151l46.298 25.546c3.637 1.82 5.49 5.19 6.307 7.185l-1.887 2.102-8.215 1.708-42.757 24.686L7.32 101.18v-9.922c35.94-30.7 52.559-21.106 52.559-21.106z" stroke="#33475C" stroke-width="5" stroke-linecap="round" stroke-linejoin="round"/>
        <path d="M105.685 95.46l-12.402-6.852c.476-.067.952-.126 1.433-.164 2.708-.212 5.476.016 8.213.875 4.324 2.497 6.775 7.145 8.26 10.454l-.676-.39c-1.119-1.491-2.683-2.975-4.828-3.922z" stroke="#33475C" stroke-width="5" stroke-linecap="round" stroke-linejoin="round"/>
        <path d="M102.93 89.319c4.323 2.497 6.774 7.145 8.258 10.454l-.675-.39c-1.119-1.492-2.683-2.975-4.828-3.922l-12.379-6.84c-12.374 1.659-23.112 11.914-23.112 11.914L17.621 70.248s21.498-19.483 38.657-8.719l46.651 27.79" stroke="#33475C" stroke-width="5" stroke-linecap="round" stroke-linejoin="round"/>
        <path d="M113.679 89.073s.535 9.769-11.295 17.619l2.41 1.392s10.97-1.245 11.24-17.655l-2.355-1.356z" stroke="#33475C" stroke-width="5" stroke-linecap="round" stroke-linejoin="round"/>
        <path d="M104.794 110.867s11.86-5.094 13.371-19.142l-2.131-1.295c-1.98 13.545-11.24 17.654-11.24 17.654v2.783z" stroke="#33475C" stroke-width="5" stroke-linecap="round" stroke-linejoin="round"/>
        <path d="M113.679 89.073l2.355 1.356 2.13 1.296c-1.51 14.048-13.37 19.142-13.37 19.142v-2.783l-2.41-1.392c11.83-7.85 11.295-17.62 11.295-17.62zM23.208 88.208c-.162-.18-.127-.498.07-.64-.222 1.755.18 3.583 1.119 5.083.695-1.978 1.786-3.816 3.187-5.375.267-.296.589-.602.987-.608.797-.013 1.06 1.054 1.07 1.852 2.484-1.464 2.737-5.471 5.417-6.532-.02.547.192 1.098.573 1.49l3.007-4.644c.93-1.44 2.112-3.03 3.823-3.135M34.704 96.215c-.379 1.004-.142 2.213.588 3 .62-1.934 1.68-3.727 3.078-5.2-.276.504.437 1.08.99.92.551-.159.883-.707 1.16-1.21l2.814-5.096.861 1.468c1.798-1.606 1.616-4.772 3.586-6.16.434 1.344.938 2.666 1.51 3.96.951-1.686 1.948-3.344 2.99-4.974M45.17 103.85c.097.581.283 1.27.846 1.45.79.25 1.39-.707 1.666-1.487l1.732-4.888c.164.62 1.047.784 1.596.454.55-.329.84-.953 1.098-1.54l2.083-4.746c.335.62.771 1.186 1.285 1.668.709-1.507 1.416-3.015 2.124-4.522.292-.62.725-1.337 1.411-1.335.631.002 1.217.645 1.803.412.209-.083.36-.264.502-.438.426-.524.853-1.048 1.28-1.57M56.212 110.424c-.27.418.018 1.072.51 1.155-.147-1.43.47-2.918 1.588-3.825l.894 1.048c.587-2.097 1.442-4.118 2.537-6l1.13 1.54c.551-2.538 1.66-4.954 3.226-7.026l1.562 2.519c.9-3.07 2.064-6.47 4.922-7.905.56-.283 1.162-.473 1.76-.66" stroke="#33475C" stroke-width="5" stroke-linecap="round" stroke-linejoin="round"/>
        <path d="M102.93 89.32L56.278 61.528c-17.158-10.763-38.656 8.721-38.656 8.721l52.573 30.286s11.563-11.076 24.522-12.091c2.708-.212 5.476.016 8.213.876z" stroke="#33475C" stroke-width="5" stroke-linecap="round" stroke-linejoin="round"/>
        <path fill="#40BBCE" d="M84.608 3.427l3.27-.928 57.125 32.982-26.838 56.244-2.132-1.296 25.701-54.02z"/>
        <path fill="#FFAB7D" d="M84.608 3.427l-25.7 54.02 57.125 32.982 25.701-54.02z"/>
        <path fill="#7CD1DF" d="M84.608 3.427l-25.7 54.02 57.125 32.982 25.701-54.02z"/>
        <path stroke="#33475C" stroke-linecap="round" stroke-linejoin="round" d="M58.907 57.448l25.701-54.02h.001l3.27-.928 57.125 32.98-26.839 56.245-2.132-1.296z"/>
        <path fill="#7CD1DF" d="M47.667 75.102L2.502 101.18l57.125 32.982 45.167-26.078z"/>
        <path fill="#40BBCE" d="M59.626 134.16L2.5 101.18v2.783l57.126 32.98 45.168-26.076v-2.783z"/>
        <path fill="#FF8F52" d="M85.827 7.344L62.525 56.322l52.29 30.19 23.302-48.979z"/>
        <path d="M58.723 69.721c-2.564-6.77-3.713-14.112-2.825-21.276.888-7.165 3.873-14.135 8.844-19.44 3.151-3.363 7.017-6.003 10.333-9.209 3.316-3.206 6.172-7.247 6.451-11.815l52.29 30.19c-.279 4.568-3.135 8.61-6.45 11.815-3.317 3.206-7.183 5.845-10.334 9.21-4.97 5.304-7.956 12.274-8.844 19.438-.888 7.165.261 14.507 2.825 21.276M81.526 7.981l4.301-.637 52.29 30.19-4.3.637z" fill="#FFF"/>
        <path stroke="#33475C" stroke-linecap="round" stroke-linejoin="round" d="M47.667 75.101l57.126 32.982v2.784l-45.168 26.077-57.124-32.982v-2.783z"/>
        <path d="M113.679 89.073s.452 4.51-3.063 9.697c-2.271-6.451-3.266-13.37-2.427-20.135.887-7.165 3.872-14.134 8.843-19.44 3.152-3.363 7.017-6.003 10.334-9.21 3.316-3.205 6.17-7.246 6.45-11.813l4.3-.638-23.301 48.978-1.136 2.56z" fill="#CBD6E3"/>
        <path d="M113.679 89.073s.452 4.51-3.063 9.697c-2.271-6.451-3.266-13.37-2.427-20.135.887-7.165 3.872-14.134 8.843-19.44 3.152-3.363 7.017-6.003 10.334-9.21 3.316-3.205 6.17-7.246 6.45-11.813l4.3-.638-23.301 48.978-1.136 2.56z" stroke="#33475C" stroke-linecap="round" stroke-linejoin="round"/>
        <path fill="#CBD6E3" d="M81.526 7.981l4.301-.637 52.29 30.19-4.3.637"/>
        <path stroke="#33475C" stroke-linecap="round" stroke-linejoin="round" d="M81.526 7.981l4.301-.637 52.29 30.19-4.3.637"/>
        <path d="M138.117 37.534l-52.29-30.19-4.3.637c-.28 4.569-3.136 8.609-6.452 11.816-3.316 3.206-7.182 5.845-10.333 9.209-4.97 5.304-7.956 12.274-8.844 19.439-.888 7.165.261 14.507 2.825 21.276l52.29 30.19c-.143-.377-.264-.762-.397-1.141 3.515-5.188 3.063-9.697 3.063-9.697l1.136-2.56 23.302-48.98" stroke="#33475C" stroke-linecap="round" stroke-linejoin="round"/>
        <path fill="#EAF0F6" d="M7.32 101.18v-9.923l52.306 30.323v9.797z"/>
        <path stroke="#33475C" stroke-linecap="round" stroke-linejoin="round" d="M7.32 101.18v-9.923l52.306 30.323v9.797z"/>
        <path d="M107.043 96.174L59.879 70.15S43.263 60.557 7.322 91.257l52.305 30.323s34.328-33.052 47.417-25.406" fill="#FFF"/>
        <path d="M107.043 96.174L59.879 70.15S43.263 60.557 7.322 91.257l52.305 30.323s34.328-33.052 47.417-25.406z" stroke="#33475C" stroke-linecap="round" stroke-linejoin="round"/>
        <path d="M82.757 101.836c20.84-14.892 27.893-3.438 29.728 1.047l-1.888 2.1-8.214 1.709-42.757 24.687v-9.798s3.816-5.944 23.131-19.745" fill="#CBD6E3"/>
        <path d="M82.757 101.836c20.84-14.892 27.893-3.438 29.728 1.047l-1.888 2.1-8.214 1.709-42.757 24.687v-9.798s3.816-5.944 23.131-19.745z" stroke="#33475C" stroke-linecap="round" stroke-linejoin="round"/>
        <path d="M60.819 70.397l-15.547 3.321s-19.07 9.817-23.12 15.4l44.114 25.575c14.09-12.383 31.24-23.94 38.779-19.536l-44.226-24.76z" fill="#33475C" opacity=".1"/>
        <path d="M59.88 70.151l46.298 25.546c3.637 1.82 5.49 5.19 6.307 7.185l-1.887 2.102-8.215 1.708-42.757 24.686L7.32 101.18v-9.922c35.94-30.7 52.559-21.106 52.559-21.106z" stroke="#33475C" stroke-linecap="round" stroke-linejoin="round"/>
        <path d="M105.685 95.46l-12.402-6.852c.476-.067.952-.126 1.433-.164 2.708-.212 5.476.016 8.213.875 4.324 2.497 6.775 7.145 8.26 10.454l-.676-.39c-1.119-1.491-2.683-2.975-4.828-3.922" fill="#CBD6E3"/>
        <path d="M105.685 95.46l-12.402-6.852c.476-.067.952-.126 1.433-.164 2.708-.212 5.476.016 8.213.875 4.324 2.497 6.775 7.145 8.26 10.454l-.676-.39c-1.119-1.491-2.683-2.975-4.828-3.922z" stroke="#33475C" stroke-linecap="round" stroke-linejoin="round"/>
        <path d="M102.93 89.319c4.323 2.497 6.774 7.145 8.258 10.454l-.675-.39c-1.119-1.492-2.683-2.975-4.828-3.922l-12.379-6.84c-12.374 1.659-23.112 11.914-23.112 11.914L17.621 70.248s21.498-19.483 38.657-8.719l46.651 27.79" stroke="#33475C" stroke-linecap="round" stroke-linejoin="round"/>
        <path d="M113.679 89.073s.535 9.769-11.295 17.619l2.41 1.392s10.97-1.245 11.24-17.655l-2.355-1.356z" fill="#7CD1DF"/>
        <path d="M104.794 110.867s11.86-5.094 13.371-19.142l-2.131-1.295c-1.98 13.545-11.24 17.654-11.24 17.654v2.783z" fill="#40BBCE"/>
        <path d="M113.679 89.073l2.355 1.356 2.13 1.296c-1.51 14.048-13.37 19.142-13.37 19.142v-2.783l-2.41-1.392c11.83-7.85 11.295-17.62 11.295-17.62z" stroke="#33475C" stroke-linecap="round" stroke-linejoin="round"/>
        <path d="M23.208 88.208c-.162-.18-.127-.498.07-.64-.222 1.755.18 3.583 1.119 5.083.695-1.978 1.786-3.816 3.187-5.375.267-.296.589-.602.987-.608.797-.013 1.06 1.054 1.07 1.852 2.484-1.464 2.737-5.471 5.417-6.532-.02.547.192 1.098.573 1.49l3.007-4.644c.93-1.44 2.112-3.03 3.823-3.135" stroke="#FFAB7D" stroke-linecap="round" stroke-linejoin="round"/>
        <path d="M34.704 96.215c-.379 1.004-.142 2.213.588 3 .62-1.934 1.68-3.727 3.078-5.2-.276.504.437 1.08.99.92.551-.159.883-.707 1.16-1.21l2.814-5.096.861 1.468c1.798-1.606 1.616-4.772 3.586-6.16.434 1.344.938 2.666 1.51 3.96.951-1.686 1.948-3.344 2.99-4.974" stroke="#98ACC3" stroke-linecap="round" stroke-linejoin="round"/>
        <path d="M45.17 103.85c.097.581.283 1.27.846 1.45.79.25 1.39-.707 1.666-1.487l1.732-4.888c.164.62 1.047.784 1.596.454.55-.329.84-.953 1.098-1.54l2.083-4.746c.335.62.771 1.186 1.285 1.668.709-1.507 1.416-3.015 2.124-4.522.292-.62.725-1.337 1.411-1.335.631.002 1.217.645 1.803.412.209-.083.36-.264.502-.438.426-.524.853-1.048 1.28-1.57" stroke="#7BDED2" stroke-linecap="round" stroke-linejoin="round"/>
        <path d="M56.212 110.424c-.27.418.018 1.072.51 1.155-.147-1.43.47-2.918 1.588-3.825l.894 1.048c.587-2.097 1.442-4.118 2.537-6l1.13 1.54c.551-2.538 1.66-4.954 3.226-7.026l1.562 2.519c.9-3.07 2.064-6.47 4.922-7.905.56-.283 1.162-.473 1.76-.66" stroke="#98ACC3" stroke-linecap="round" stroke-linejoin="round"/>
        <path d="M102.93 89.32L56.278 61.528c-17.158-10.763-38.656 8.721-38.656 8.721l52.573 30.286s11.563-11.076 24.522-12.091c2.708-.212 5.476.016 8.213.876" fill="#FFF"/>
        <path d="M102.93 89.32L56.278 61.528c-17.158-10.763-38.656 8.721-38.656 8.721l52.573 30.286s11.563-11.076 24.522-12.091c2.708-.212 5.476.016 8.213.876z" stroke="#33475C" stroke-linecap="round" stroke-linejoin="round"/>
        <path d="M55.685 46.681c-.702 0-1.39-.242-1.937-.682-.646-.517-1.052-1.255-1.143-2.079-.09-.823.145-1.632.663-2.277.797-.995 1.662-2.033 2.701-3.242-1.35-1.279-2.508-2.342-3.613-3.324-1.277-1.137-1.393-3.1-.257-4.376.588-.662 1.433-1.04 2.317-1.04.76 0 1.491.278 2.06.783 1.118.995 2.282 2.065 3.637 3.344 1.06-1.128 1.971-2.07 2.846-2.94.586-.583 1.363-.904 2.188-.904.83 0 1.61.324 2.196.912 1.205 1.21 1.202 3.177-.008 4.384-.857.852-1.748 1.774-2.783 2.878.871.88 1.734 1.766 2.581 2.663.568.601.87 1.387.846 2.215-.023.83-.367 1.598-.968 2.166-.579.547-1.335.848-2.13.848-.849 0-1.67-.353-2.253-.97-.73-.772-1.47-1.538-2.218-2.297-.86 1.008-1.618 1.921-2.305 2.777-.589.738-1.472 1.161-2.42 1.161" fill="#40CEBB"/>
        <path d="M54.416 29.16c-1.026 0-2.008.44-2.69 1.208-.64.719-.96 1.643-.904 2.603.056.96.483 1.84 1.201 2.479 1.002.89 2.072 1.873 3.256 2.987-.905 1.06-1.679 1.994-2.4 2.893-1.242 1.548-.992 3.818.556 5.06.636.51 1.435.792 2.25.792 1.1 0 2.124-.492 2.81-1.35.586-.728 1.224-1.502 1.943-2.348.63.645 1.242 1.28 1.828 1.9.677.715 1.63 1.126 2.616 1.126.922 0 1.8-.35 2.472-.984.698-.661 1.097-1.553 1.126-2.515.025-.962-.324-1.875-.984-2.574-.688-.726-1.428-1.494-2.25-2.328.892-.945 1.68-1.757 2.442-2.515.68-.678 1.056-1.581 1.058-2.543.003-.962-.37-1.867-1.048-2.547-.68-.684-1.587-1.06-2.551-1.06-.959 0-1.86.372-2.54 1.049-.785.78-1.596 1.617-2.514 2.589-1.193-1.12-2.273-2.11-3.285-3.011-.66-.587-1.51-.91-2.392-.91m0 1c.616 0 1.232.217 1.728.657 1.346 1.197 2.674 2.43 3.99 3.679 1.044-1.117 2.1-2.222 3.178-3.295.508-.505 1.17-.758 1.835-.758.666 0 1.334.255 1.841.765 1.013 1.017 1.01 2.664-.007 3.677-1.06 1.055-2.096 2.142-3.123 3.242.984.989 1.957 1.987 2.911 2.997.986 1.042.94 2.688-.103 3.675-.501.474-1.144.71-1.784.71-.692 0-1.379-.273-1.89-.814-.856-.905-1.727-1.802-2.607-2.691-.907 1.055-1.802 2.122-2.67 3.203-.514.64-1.269.974-2.03.974-.57 0-1.145-.187-1.623-.572-1.121-.898-1.301-2.535-.404-3.654.974-1.214 1.98-2.407 3-3.59-1.309-1.243-2.63-2.472-3.97-3.663-1.073-.954-1.169-2.598-.215-3.67.514-.578 1.227-.872 1.944-.872" fill="#FFF"/>
        <path d="M88.655 28.11c-1.177 0-2.134.957-2.134 2.134 0 1.178.957 2.136 2.134 2.136s2.135-.958 2.135-2.136c0-1.177-.958-2.135-2.135-2.135m0 10.47c-4.595 0-8.334-3.74-8.334-8.335 0-4.596 3.74-8.334 8.334-8.334 4.596 0 8.334 3.738 8.334 8.334 0 4.595-3.738 8.335-8.334 8.335" fill="#40CEBB"/>
        <path d="M88.656 31.88c-.901 0-1.635-.733-1.635-1.636 0-.901.734-1.635 1.635-1.635.9 0 1.634.734 1.634 1.635 0 .903-.733 1.636-1.634 1.636m0-10.47c-4.871 0-8.834 3.963-8.834 8.834 0 4.872 3.963 8.835 8.834 8.835 4.87 0 8.834-3.963 8.834-8.835 0-4.871-3.963-8.834-8.834-8.834m0 11.47c1.453 0 2.634-1.182 2.634-2.636 0-1.453-1.181-2.635-2.634-2.635-1.453 0-2.635 1.182-2.635 2.635 0 1.454 1.182 2.636 2.635 2.636m0-10.47c4.319 0 7.834 3.515 7.834 7.834 0 4.32-3.515 7.835-7.834 7.835-4.32 0-7.834-3.514-7.834-7.835 0-4.32 3.514-7.834 7.834-7.834" fill="#FFF"/>
        <path d="M64.745 88.722c-.12 0-.24-.007-.36-.02-.856-.1-1.61-.536-2.125-1.226-.636-.852-1.282-1.697-1.937-2.539-.972.902-1.829 1.722-2.61 2.492-.585.576-1.358.894-2.177.894-.122 0-.243-.007-.363-.02-.698-.083-1.353-.403-1.845-.903-.582-.589-.899-1.369-.894-2.198.006-.828.333-1.603.923-2.185.904-.893 1.908-1.847 3.058-2.906-1.167-1.395-2.218-2.616-3.204-3.722-.55-.618-.827-1.414-.779-2.24.047-.827.414-1.585 1.032-2.136.57-.507 1.301-.785 2.061-.785.884 0 1.728.378 2.316 1.037.987 1.11 2.045 2.338 3.225 3.744 1.184-.998 2.2-1.828 3.168-2.592.552-.434 1.215-.664 1.916-.664.957 0 1.845.431 2.437 1.182 1.057 1.342.826 3.295-.516 4.352-.95.748-1.943 1.561-3.098 2.536.763.975 1.517 1.957 2.254 2.945 1.023 1.368.741 3.314-.628 4.338-.542.403-1.182.616-1.854.616" fill="#40CEBB"/>
        <path d="M55.525 70.728c-.883 0-1.732.323-2.393.911-.718.64-1.144 1.521-1.2 2.481-.054.96.267 1.884.906 2.601.89 1 1.84 2.1 2.888 3.346-1.021.946-1.898 1.783-2.721 2.595-1.412 1.392-1.427 3.676-.033 5.09.574.58 1.334.953 2.143 1.046.139.017.28.025.42.025.953 0 1.85-.368 2.529-1.038.664-.656 1.389-1.35 2.199-2.109.555.718 1.089 1.421 1.596 2.1.59.79 1.489 1.307 2.468 1.422.138.015.279.024.419.024.78 0 1.524-.247 2.15-.715.772-.576 1.273-1.417 1.41-2.369.138-.95-.102-1.899-.678-2.67-.595-.797-1.242-1.644-1.964-2.572.994-.834 1.87-1.55 2.716-2.216.755-.595 1.234-1.448 1.347-2.403.113-.955-.152-1.897-.747-2.652-.687-.872-1.72-1.372-2.83-1.372-.803 0-1.593.274-2.225.772-.873.687-1.777 1.424-2.798 2.28-1.052-1.25-2.011-2.358-2.913-3.372-.682-.766-1.662-1.205-2.69-1.205m0 1c.717 0 1.43.294 1.943.871 1.199 1.345 2.375 2.724 3.538 4.116 1.166-.988 2.343-1.963 3.539-2.905.476-.375 1.043-.557 1.606-.557.77 0 1.53.34 2.044.992.889 1.127.695 2.761-.433 3.65-1.174.926-2.332 1.885-3.478 2.857.86 1.098 1.713 2.202 2.544 3.315.859 1.15.623 2.78-.528 3.64-.466.346-1.012.515-1.553.515-.102 0-.202-.006-.303-.017-.685-.08-1.337-.43-1.782-1.028-.746-.999-1.507-1.99-2.278-2.976-1.023.944-2.036 1.9-3.022 2.873-.507.5-1.167.75-1.826.75-.102 0-.203-.007-.304-.019-.566-.065-1.115-.317-1.547-.756-1.01-1.022-.998-2.668.024-3.676 1.107-1.092 2.246-2.162 3.397-3.217-1.157-1.388-2.327-2.76-3.52-4.1-.955-1.07-.86-2.715.21-3.67.498-.44 1.115-.658 1.73-.658" fill="#FFF"/>
        <path d="M35.569 60.032c-1.177 0-2.135.958-2.135 2.135 0 1.178.958 2.136 2.135 2.136 1.177 0 2.134-.958 2.134-2.136 0-1.177-.957-2.135-2.134-2.135m0 10.47c-4.595 0-8.334-3.74-8.334-8.335 0-4.596 3.739-8.334 8.334-8.334s8.334 3.738 8.334 8.334c0 4.595-3.74 8.335-8.334 8.335" fill="#40CEBB"/>
        <path d="M35.569 63.802c-.901 0-1.635-.733-1.635-1.636 0-.9.734-1.635 1.635-1.635.9 0 1.635.734 1.635 1.635 0 .903-.734 1.636-1.635 1.636m0-10.47c-4.871 0-8.834 3.963-8.834 8.834 0 4.872 3.963 8.835 8.834 8.835 4.87 0 8.834-3.963 8.834-8.835 0-4.87-3.963-8.834-8.834-8.834m0 11.47c1.453 0 2.635-1.182 2.635-2.636 0-1.453-1.182-2.635-2.635-2.635-1.453 0-2.635 1.182-2.635 2.635 0 1.454 1.182 2.636 2.635 2.636m0-10.47c4.319 0 7.834 3.515 7.834 7.834 0 4.321-3.515 7.835-7.834 7.835-4.32 0-7.834-3.514-7.834-7.835 0-4.319 3.514-7.834 7.834-7.834" fill="#FFF"/>
        <path d="M107.09 52.775c-.703 0-1.39-.242-1.938-.682-.646-.517-1.052-1.255-1.142-2.079-.09-.823.144-1.632.662-2.277.805-1.003 1.67-2.04 2.701-3.242-1.35-1.279-2.508-2.342-3.613-3.324-.619-.55-.986-1.309-1.035-2.135-.048-.827.228-1.623.78-2.24.586-.663 1.431-1.042 2.315-1.042.76 0 1.492.28 2.06.784 1.114.991 2.278 2.061 3.637 3.344 1.05-1.117 1.961-2.059 2.846-2.94.586-.583 1.363-.904 2.188-.904.83 0 1.61.324 2.196.913.584.586.905 1.365.904 2.192-.002.828-.326 1.607-.912 2.191-.854.85-1.767 1.795-2.783 2.878.871.88 1.734 1.766 2.581 2.663.57.6.87 1.387.846 2.215-.023.83-.367 1.598-.968 2.166-.579.547-1.335.848-2.13.848-.847 0-1.669-.353-2.252-.97-.73-.772-1.47-1.538-2.218-2.297-.867 1.016-1.624 1.928-2.306 2.777-.589.738-1.472 1.161-2.42 1.161" fill="#40CEBB"/>
        <path d="M105.82 35.255c-1.026 0-2.007.44-2.69 1.207-.64.719-.96 1.644-.903 2.604.056.96.483 1.839 1.2 2.478 1.002.89 2.073 1.873 3.257 2.988-.906 1.06-1.68 1.994-2.401 2.893-1.241 1.548-.992 3.817.557 5.059.636.51 1.435.792 2.25.792 1.099 0 2.124-.492 2.81-1.348.585-.73 1.225-1.504 1.942-2.35.633.649 1.246 1.285 1.828 1.9.677.715 1.63 1.127 2.616 1.127.923 0 1.8-.35 2.473-.985.698-.661 1.098-1.553 1.125-2.515.026-.961-.323-1.875-.984-2.574-.685-.725-1.427-1.492-2.25-2.328.89-.941 1.678-1.754 2.442-2.515 1.406-1.401 1.41-3.684.01-5.09-.68-.684-1.586-1.06-2.551-1.06-.958 0-1.86.373-2.54 1.049-.784.78-1.596 1.617-2.514 2.589-1.192-1.12-2.272-2.11-3.284-3.011-.66-.587-1.51-.91-2.392-.91m0 1c.615 0 1.232.217 1.727.657 1.346 1.197 2.674 2.43 3.99 3.679 1.045-1.117 2.1-2.222 3.179-3.295.507-.505 1.17-.758 1.834-.758.667 0 1.334.255 1.842.766 1.013 1.016 1.01 2.663-.007 3.676-1.06 1.055-2.097 2.142-3.123 3.242.983.99 1.956 1.987 2.91 2.997.987 1.042.94 2.688-.101 3.675-.503.474-1.146.71-1.786.71-.691 0-1.378-.273-1.89-.813-.856-.906-1.727-1.803-2.607-2.692-.907 1.056-1.802 2.122-2.67 3.203-.513.64-1.268.974-2.03.974-.57 0-1.144-.187-1.623-.571-1.121-.9-1.301-2.535-.403-3.655.973-1.214 1.98-2.407 3-3.59-1.31-1.243-2.631-2.472-3.971-3.663-1.072-.953-1.168-2.598-.214-3.67.513-.578 1.227-.872 1.943-.872" fill="#FFF"/>
        <path d="M78.426 55.5c-1.177 0-2.135.958-2.135 2.135 0 1.178.958 2.136 2.135 2.136 1.177 0 2.135-.958 2.135-2.136 0-1.177-.958-2.135-2.135-2.135m0 10.47c-4.595 0-8.334-3.74-8.334-8.335 0-4.596 3.74-8.334 8.334-8.334 4.595 0 8.334 3.738 8.334 8.334 0 4.595-3.739 8.335-8.334 8.335" fill="#40CEBB"/>
        <path d="M78.426 59.27c-.9 0-1.635-.733-1.635-1.636 0-.9.734-1.635 1.635-1.635s1.635.734 1.635 1.635c0 .903-.734 1.636-1.635 1.636m0-10.47c-4.87 0-8.834 3.963-8.834 8.834 0 4.872 3.963 8.835 8.834 8.835 4.871 0 8.834-3.963 8.834-8.835 0-4.87-3.963-8.834-8.834-8.834m0 11.47c1.453 0 2.635-1.182 2.635-2.636 0-1.453-1.182-2.635-2.635-2.635-1.453 0-2.635 1.182-2.635 2.635 0 1.454 1.182 2.636 2.635 2.636m0-10.47c4.32 0 7.834 3.515 7.834 7.834 0 4.321-3.515 7.835-7.834 7.835-4.32 0-7.834-3.514-7.834-7.835 0-4.319 3.514-7.834 7.834-7.834" fill="#FFF"/>
        <path d="M72.18 83.364c-.297 0-.597-.004-.895-.011-.436-.01-.871-.03-1.306-.056-.478-.03-.918-.244-1.236-.603-.32-.36-.48-.823-.45-1.303.059-.948.842-1.691 1.782-1.691l.133.005c.64.039 1.289.057 1.937.057 6.746 0 13.477-2.131 18.953-6.002 5.019-3.55 8.9-8.396 11.279-14.066l-1.334.54c-.215.088-.443.133-.675.133-.737 0-1.392-.441-1.668-1.125-.372-.921.074-1.972.994-2.345l5.088-2.058.145-.026c.109-.03.228-.06.372-.067h.028c.147 0 .238.012.33.026.058 0 .14 0 .24.03l.069.02.044.027c.129.05.237.118.325.173.078.042.152.08.225.144.09.078.152.16.202.226l-.314.408.38-.324c.036.04.08.094.123.162l.023.025 2.455 4.978c.438.888.07 1.969-.82 2.41-.25.12-.524.184-.795.184-.716-.017-1.32-.402-1.615-1.005l-.533-1.082c-2.645 6.27-6.945 11.629-12.49 15.55-6.08 4.299-13.535 6.666-20.995 6.666" fill="#40CEBB"/>
        <path d="M105.363 54.244h-.028l-.066.003c-.168.009-.312.04-.435.075-.071.01-.18.029-.303.079l-5.025 2.033c-1.175.476-1.746 1.819-1.27 2.995.354.874 1.19 1.438 2.13 1.438.3 0 .59-.058.869-.171l.186-.075c-2.37 5.102-6.003 9.47-10.612 12.73-5.391 3.812-12.02 5.912-18.664 5.912-.636 0-1.281-.02-1.916-.058-.041-.003-.097-.005-.153-.005-1.204 0-2.206.948-2.281 2.159-.038.614.166 1.205.573 1.665.407.46.969.735 1.583.772.438.028.879.047 1.32.057.303.008.607.012.909.012 7.563 0 15.12-2.4 21.285-6.76 5.327-3.766 9.52-8.842 12.227-14.772l.059.119c.379.77 1.147 1.262 2.007 1.283H107.815c.352 0 .693-.078 1.012-.234 1.14-.564 1.61-1.945 1.05-3.081l-2.417-4.905-.064-.127-.045-.05c-.054-.082-.106-.144-.142-.187l-.047-.058c-.058-.078-.145-.195-.28-.31-.112-.095-.215-.15-.277-.184-.1-.061-.227-.14-.388-.205-.05-.024-.111-.051-.184-.072-.142-.043-.267-.05-.34-.05-.118-.016-.223-.028-.33-.028m0 1c.076 0 .15.012.226.023.055.01.109-.002.165.015.018.005.03.019.047.024.098.033.184.086.27.14.056.034.115.059.164.1.065.055.11.129.166.197.049.063.106.118.142.188.006.01.014.016.019.027l2.418 4.904c.317.643.053 1.422-.592 1.74-.185.09-.38.134-.573.134l-.032-.001c-.47-.012-.914-.275-1.135-.725l-1.027-2.084c-2.534 6.555-6.971 12.289-12.734 16.364-6.046 4.276-13.325 6.575-20.707 6.575-.294 0-.59-.004-.883-.012-.43-.01-.858-.028-1.286-.055-.717-.043-1.262-.66-1.218-1.376.042-.686.617-1.222 1.283-1.222.03 0 .062 0 .094.004.659.039 1.317.059 1.975.059 6.86 0 13.624-2.123 19.24-6.095 5.404-3.821 9.554-9.213 11.89-15.376l-2.42.978c-.16.066-.325.097-.488.097-.513 0-1-.308-1.204-.812-.27-.666.052-1.424.718-1.694l5.028-2.034c.047-.02.095-.015.142-.028.09-.026.178-.05.273-.054l.039-.001" fill="#FFF"/>
        <path d="M34.266 51.459c-.16-.016-.288-.064-.391-.104l-.058-.013-.193-.073c-.21-.107-.39-.248-.542-.422l-.026-.017-3.804-5.002c-.292-.383-.416-.856-.351-1.333.065-.476.312-.9.694-1.19.316-.24.692-.367 1.088-.367.568 0 1.09.259 1.434.71l1.176 1.546c2.015-9.858 7.64-18.384 15.558-23.515 5.047-3.271 11.194-5.072 17.31-5.072 5.312 0 10.382 1.326 14.665 3.832.856.5 1.145 1.606.644 2.462-.322.55-.917.892-1.554.892-.318 0-.632-.085-.91-.247-3.741-2.191-8.185-3.35-12.85-3.35-5.416 0-10.867 1.6-15.347 4.503-6.9 4.472-12.043 12.246-13.93 20.973l1.529-1.108c.308-.224.673-.342 1.055-.342.575 0 1.12.277 1.458.743.582.804.403 1.93-.4 2.514l-5.031 3.645c-.08.059-.161.093-.213.116-.121.064-.176.092-.235.114-.21.075-.413.112-.607.112-.056 0-.112-.002-.17-.007" fill="#40CEBB"/>
        <path d="M66.16 16.107v1-1c-6.21 0-12.453 1.83-17.581 5.152-7.743 5.018-13.325 13.233-15.544 22.77l-.52-.684c-.44-.576-1.107-.907-1.832-.907-.506 0-.988.163-1.391.47-.49.371-.804.911-.887 1.52-.082.61.077 1.214.449 1.702l3.749 4.928.107.141.043.028c.187.201.4.362.64.484.122.062.229.091.292.106.153.06.322.12.538.14.067.005.14.008.21.008.254 0 .515-.047.776-.14.088-.032.166-.072.244-.115.088-.04.207-.092.333-.184l5.027-3.643c1.027-.744 1.257-2.184.514-3.21-.433-.597-1.13-.953-1.865-.953-.488 0-.954.153-1.35.441l-.437.317c2.07-8.068 6.96-15.182 13.406-19.359 4.4-2.852 9.754-4.423 15.075-4.423 4.576 0 8.933 1.135 12.598 3.281.354.206.756.316 1.162.316.814 0 1.575-.437 1.985-1.14.64-1.093.272-2.505-.822-3.146-4.358-2.55-9.517-3.9-14.918-3.9m0 1c5.094 0 10.113 1.246 14.412 3.763.619.363.828 1.16.465 1.778-.242.414-.676.645-1.122.645-.223 0-.45-.058-.656-.179-3.906-2.286-8.466-3.418-13.104-3.418-5.41 0-10.924 1.54-15.62 4.583-7.396 4.794-12.73 13.252-14.394 22.544L38.7 44.97c.23-.168.497-.249.76-.249.404 0 .802.188 1.056.538.42.581.29 1.394-.29 1.816l-5.031 3.644c-.057.042-.122.062-.183.093-.048.025-.091.054-.142.072-.143.051-.29.082-.437.082-.04 0-.08 0-.12-.004-.115-.01-.216-.058-.32-.096-.048-.018-.1-.02-.146-.044-.17-.086-.313-.206-.43-.352-.005-.007-.014-.008-.02-.016l-3.748-4.928c-.435-.57-.324-1.388.247-1.82.235-.18.512-.267.786-.267.392 0 .78.177 1.036.513l1.855 2.44c1.769-10.098 7.424-19.027 15.549-24.293 5.115-3.314 11.128-4.99 17.038-4.99" fill="#FFF"/>
    </g>
</svg>
