<svg width="76" height="68" viewBox="0 0 76 68" xmlns="http://www.w3.org/2000/svg">
    <g fill="none" fill-rule="evenodd">
        <path d="M30.832 24.277c1.14-.658 3.006-.658 4.146 0L75.04 47.408c1.14.658 1.135 1.724-.013 2.37L45.205 66.563c-1.148.646-3.025.646-4.172 0L.996 43.881c-1.147-.645-1.153-1.712-.013-2.37l29.849-17.234z" fill="#00A4BF" opacity=".2"/>
        <path d="M48.867 19.161L25.404 32.708M48.867 19.161l-.866.5M45.166 21.298L26.27 32.208M26.27 32.208l-.866.5M72.969 35.514h-.023.002c-1.606.026-3.245-.32-4.722-.948-2.966-1.257-5.404-3.485-7.672-5.772-3.032-3.056-5.877-6.3-8.516-9.703-2.611-3.424-5.431-6.689-8.438-9.77-2.25-2.307-4.67-4.554-7.624-5.835-2.956-1.282-6.57-1.45-9.271.304l-4.588 2.57c.277.27.529.553.744.85 1.639 2.257.71 4.342-2.064 4.632-1.818.192-3.987-.443-5.732-1.532l-1.525.853-10.605 5.941h-.001l-.095.055c-.14.085-.38.284-.333.642.06.476.488.469.583.462.009 0 .017 0 .026-.002h.012l-.002.002c1.605-.015 3.24.346 4.712.983 2.955 1.282 5.375 3.53 7.625 5.835 3.006 3.081 5.826 6.346 8.437 9.771 2.639 3.404 5.485 6.646 8.517 9.704 2.268 2.287 4.705 4.514 7.67 5.77 2.967 1.258 6.58 1.396 9.269-.379l5.237-2.933c-.26-.162-.514-.33-.74-.518-2.143-1.785-1.754-4.035.864-4.998 2.354-.865 5.727-.4 7.945.997l3.11-1.742 7.24-4.056h.002l.095-.054c.153-.093.437-.314.414-.663-.032-.5-.491-.472-.553-.466z" stroke="#33475C" stroke-width="5" stroke-linecap="round" stroke-linejoin="round"/>
        <path d="M65.771 40.753l7.24-4.056.001-.001.095-.052c.154-.094.437-.314.414-.663 0-.022-.012-.031-.015-.05-6.019 1.815-12.692.292-18.656-1.925-11.004-4.092-21.079-10.394-32.066-14.531-3.506-1.321-7.146-2.426-10.889-2.582-3.09-.13-6.127.394-9.069 1.33.111.04.221.043.263.04l.026-.001h.011c1.604-.013 3.238.347 4.71.985 2.956 1.28 5.375 3.528 7.625 5.834 3.007 3.082 5.826 6.347 8.438 9.772 2.638 3.403 5.484 6.645 8.516 9.703 2.268 2.287 4.706 4.514 7.671 5.77 2.966 1.258 6.581 1.397 9.268-.38l5.237-2.931c-.26-.162-.514-.33-.738-.518-2.144-1.785-1.755-4.035.863-4.998 2.353-.866 5.727-.401 7.945.996l3.11-1.742zM52.038 19.092c-2.611-3.424-5.431-6.69-8.438-9.771-2.25-2.306-4.67-4.553-7.624-5.834-2.956-1.282-6.57-1.45-9.271.304L22.118 6.36c.276.27.528.554.743.85 1.64 2.258.71 4.343-2.064 4.633-1.818.19-3.987-.443-5.732-1.532l-1.525.853-4.463 2.5c5.003-.15 10.012.815 14.889 2.015 4.185 1.029 8.327 2.23 12.412 3.603 5.367 1.804 10.652 3.904 16.168 5.18 1.55.36 3.129.642 4.716.842-1.817-2.006-3.566-4.073-5.224-6.212z" stroke="#33475C" stroke-width="5" stroke-linecap="round" stroke-linejoin="round"/>
        <path d="M53.853 46.497c-1.671-1.392-1.784-3.058-.521-4.185-10.905-3.23-20.176-10.307-29.503-16.82-2.161-1.508-4.352-3-6.758-4.072-2.788-1.243-5.794-1.871-8.84-1.982 2.776 1.305 5.083 3.443 7.23 5.643 3.007 3.082 5.827 6.347 8.438 9.77 2.639 3.405 5.485 6.647 8.517 9.705 2.268 2.287 4.705 4.514 7.67 5.77 2.967 1.258 6.58 1.397 9.269-.38l5.237-2.931c-.26-.163-.514-.331-.74-.518z" stroke="#33475C" stroke-width="5" stroke-linecap="round" stroke-linejoin="round"/>
        <path d="M72.969 35.514h-.023.002c-1.606.026-3.245-.32-4.722-.948-2.966-1.257-5.404-3.485-7.672-5.772-3.032-3.056-5.877-6.3-8.516-9.703-2.611-3.424-5.431-6.689-8.438-9.77-2.25-2.307-4.67-4.554-7.624-5.835-2.956-1.282-6.57-1.45-9.271.304l-4.588 2.57c.277.27.529.553.744.85 1.639 2.257.71 4.342-2.064 4.632-1.818.192-3.987-.443-5.732-1.532l-1.525.853-10.605 5.941h-.001l-.095.055c-.14.085-.38.284-.333.642.06.476.488.469.583.462.009 0 .017 0 .026-.002h.012l-.002.002c1.605-.015 3.24.346 4.712.983 2.955 1.282 5.375 3.53 7.625 5.835 3.006 3.081 5.826 6.346 8.437 9.771 2.639 3.404 5.485 6.646 8.517 9.704 2.268 2.287 4.705 4.514 7.67 5.77 2.967 1.258 6.58 1.396 9.269-.379l5.237-2.933c-.26-.162-.514-.33-.74-.518-2.143-1.785-1.754-4.035.864-4.998 2.354-.865 5.727-.4 7.945.997l3.11-1.742 7.24-4.056h.002l.095-.054c.153-.093.437-.314.414-.663-.032-.5-.491-.472-.553-.466z" stroke="#33475C" stroke-width="5" stroke-linecap="round" stroke-linejoin="round"/>
        <path d="M31.354 5.996c1.06 0 2.178.24 3.232.698 2.256.978 4.235 2.733 6.512 5.068 2.897 2.968 5.642 6.147 8.178 9.472 2.718 3.506 5.678 6.878 8.796 10.022 2.104 2.122 4.42 4.257 7.207 5.766l-1.216.68-1.505.844c-1.596-.634-3.386-.981-5.147-.981-1.412 0-2.725.22-3.902.653-2.452.902-4.075 2.679-4.455 4.877-.168.97-.08 1.946.246 2.877l-1.654.925c-.073.042-.146.086-.218.133-.938.62-2.038.75-2.796.75-1.043 0-2.143-.232-3.18-.672-2.263-.96-4.256-2.698-6.554-5.014-2.924-2.95-5.695-6.107-8.22-9.362-2.685-3.522-5.617-6.92-8.714-10.093-2.113-2.165-4.443-4.344-7.261-5.878l4.43-2.482c1.644.705 3.39 1.094 5.003 1.094.348 0 .692-.018 1.025-.053 2.598-.272 4.609-1.596 5.517-3.633.559-1.255.637-2.642.254-4.017l1.48-.83c.067-.036.132-.075.196-.116.926-.602 2.005-.728 2.746-.728M23.623 34.075l27.753-15.698" stroke="#33475C" stroke-width="5" stroke-linecap="round" stroke-linejoin="round"/>
        <path d="M25.259 20.846c-.42 1.42-.278 2.996.387 4.319 1.699-1.384 1.172-4.35 2.787-5.832.784 1.21-.193 3.105.804 4.145.666-2.465 1.557-4.868 2.659-7.17 1.119 1.168-.037 3.363.976 4.625.826-1.405 1.488-2.906 1.968-4.464.202-.654.47-1.422 1.13-1.604l.2 2.92c.014.19.044.407.205.505.205.128.465-.026.645-.186.84-.75 1.417-1.787 1.609-2.898M37.06 35.438c-.05.877.116 1.765.48 2.564.206.457.681.954 1.128.724.724-.767.754-1.93.846-2.98.092-1.052.406-2.253 1.37-2.683.163.814.338 1.627.525 2.437.053.233.126.491.333.61.298.173.674-.053.893-.318.673-.818.693-1.968.772-3.023.08-1.056.336-2.24 1.243-2.785l.528 2.9c.07.376.27.857.65.803.283-.04.416-.366.495-.643l.931-3.244c.214-.749.45-1.534 1.01-2.075.435.478.73 1.084.834 1.722.067.403.061.825.213 1.204.153.38.532.717.934.64.372-.072.593-.446.765-.783" stroke="#33475C" stroke-width="5" stroke-linecap="round" stroke-linejoin="round"/>
        <path d="M48.867 19.161l-.866.5" stroke="#F6C364" stroke-linecap="round" stroke-linejoin="round"/>
        <path d="M45.166 21.298L26.27 32.208" stroke="#F6C364" stroke-linecap="round" stroke-linejoin="round" stroke-dasharray="2.182,3.273,0,0"/>
        <path d="M26.27 32.208l-.866.5" stroke="#F6C364" stroke-linecap="round" stroke-linejoin="round"/>
        <path d="M72.969 35.514h-.023.002c-1.606.026-3.245-.32-4.722-.948-2.966-1.257-5.404-3.485-7.672-5.772-3.032-3.056-5.877-6.3-8.516-9.703-2.611-3.424-5.431-6.689-8.438-9.77-2.25-2.307-4.67-4.554-7.624-5.835-2.956-1.282-6.57-1.45-9.271.304l-4.588 2.57c.277.27.529.553.744.85 1.639 2.257.71 4.342-2.064 4.632-1.818.192-3.987-.443-5.732-1.532l-1.525.853-10.605 5.941h-.001l-.095.055c-.14.085-.38.284-.333.642.06.476.488.469.583.462.009 0 .017 0 .026-.002h.012l-.002.002c1.605-.015 3.24.346 4.712.983 2.955 1.282 5.375 3.53 7.625 5.835 3.006 3.081 5.826 6.346 8.437 9.771 2.639 3.404 5.485 6.646 8.517 9.704 2.268 2.287 4.705 4.514 7.67 5.77 2.967 1.258 6.58 1.396 9.269-.379l5.237-2.933c-.26-.162-.514-.33-.74-.518-2.143-1.785-1.754-4.035.864-4.998 2.354-.865 5.727-.4 7.945.997l3.11-1.742 7.24-4.056h.002l.095-.054c.153-.093.437-.314.414-.663-.032-.5-.491-.472-.553-.466" fill="#FBE1B2"/>
        <path d="M65.771 40.753l7.24-4.056.001-.001.095-.052c.154-.094.437-.314.414-.663 0-.022-.012-.031-.015-.05-6.019 1.815-12.692.292-18.656-1.925-11.004-4.092-21.079-10.394-32.066-14.531-3.506-1.321-7.146-2.426-10.889-2.582-3.09-.13-6.127.394-9.069 1.33.111.04.221.043.263.04l.026-.001h.011c1.604-.013 3.238.347 4.71.985 2.956 1.28 5.375 3.528 7.625 5.834 3.007 3.082 5.826 6.347 8.438 9.772 2.638 3.403 5.484 6.645 8.516 9.703 2.268 2.287 4.706 4.514 7.671 5.77 2.966 1.258 6.581 1.397 9.268-.38l5.237-2.931c-.26-.162-.514-.33-.738-.518-2.144-1.785-1.755-4.035.863-4.998 2.353-.866 5.727-.401 7.945.996l3.11-1.742z" fill="#FAD99E"/>
        <path d="M52.038 19.092c-2.611-3.424-5.431-6.69-8.438-9.771-2.25-2.306-4.67-4.553-7.624-5.834-2.956-1.282-6.57-1.45-9.271.304L22.118 6.36c.276.27.528.554.743.85 1.64 2.258.71 4.343-2.064 4.633-1.818.19-3.987-.443-5.732-1.532l-1.525.853-4.463 2.5c5.003-.15 10.012.815 14.889 2.015 4.185 1.029 8.327 2.23 12.412 3.603 5.367 1.804 10.652 3.904 16.168 5.18 1.55.36 3.129.642 4.716.842-1.817-2.006-3.566-4.073-5.224-6.212" fill="#FDE7C1"/>
        <path d="M53.853 46.497c-1.671-1.392-1.784-3.058-.521-4.185-10.905-3.23-20.176-10.307-29.503-16.82-2.161-1.508-4.352-3-6.758-4.072-2.788-1.243-5.794-1.871-8.84-1.982 2.776 1.305 5.083 3.443 7.23 5.643 3.007 3.082 5.827 6.347 8.438 9.77 2.639 3.405 5.485 6.647 8.517 9.705 2.268 2.287 4.705 4.514 7.67 5.77 2.967 1.258 6.58 1.397 9.269-.38l5.237-2.931c-.26-.163-.514-.331-.74-.518" fill="#F9D48F"/>
        <path d="M72.969 35.514h-.023.002c-1.606.026-3.245-.32-4.722-.948-2.966-1.257-5.404-3.485-7.672-5.772-3.032-3.056-5.877-6.3-8.516-9.703-2.611-3.424-5.431-6.689-8.438-9.77-2.25-2.307-4.67-4.554-7.624-5.835-2.956-1.282-6.57-1.45-9.271.304l-4.588 2.57c.277.27.529.553.744.85 1.639 2.257.71 4.342-2.064 4.632-1.818.192-3.987-.443-5.732-1.532l-1.525.853-10.605 5.941h-.001l-.095.055c-.14.085-.38.284-.333.642.06.476.488.469.583.462.009 0 .017 0 .026-.002h.012l-.002.002c1.605-.015 3.24.346 4.712.983 2.955 1.282 5.375 3.53 7.625 5.835 3.006 3.081 5.826 6.346 8.437 9.771 2.639 3.404 5.485 6.646 8.517 9.704 2.268 2.287 4.705 4.514 7.67 5.77 2.967 1.258 6.58 1.396 9.269-.379l5.237-2.933c-.26-.162-.514-.33-.74-.518-2.143-1.785-1.754-4.035.864-4.998 2.354-.865 5.727-.4 7.945.997l3.11-1.742 7.24-4.056h.002l.095-.054c.153-.093.437-.314.414-.663-.032-.5-.491-.472-.553-.466z" stroke="#33475C" stroke-linecap="round" stroke-linejoin="round"/>
        <path d="M31.354 5.996c1.06 0 2.178.24 3.232.698 2.256.978 4.235 2.733 6.512 5.068 2.897 2.968 5.642 6.147 8.178 9.472 2.718 3.506 5.678 6.878 8.796 10.022 2.104 2.122 4.42 4.257 7.207 5.766l-1.216.68-1.505.844c-1.596-.634-3.386-.981-5.147-.981-1.412 0-2.725.22-3.902.653-2.452.902-4.075 2.679-4.455 4.877-.168.97-.08 1.946.246 2.877l-1.654.925c-.073.042-.146.086-.218.133-.938.62-2.038.75-2.796.75-1.043 0-2.143-.232-3.18-.672-2.263-.96-4.256-2.698-6.554-5.014-2.924-2.95-5.695-6.107-8.22-9.362-2.685-3.522-5.617-6.92-8.714-10.093-2.113-2.165-4.443-4.344-7.261-5.878l4.43-2.482c1.644.705 3.39 1.094 5.003 1.094.348 0 .692-.018 1.025-.053 2.598-.272 4.609-1.596 5.517-3.633.559-1.255.637-2.642.254-4.017l1.48-.83c.067-.036.132-.075.196-.116.926-.602 2.005-.728 2.746-.728" stroke="#F6C364" stroke-linecap="round" stroke-linejoin="round"/>
        <path d="M23.623 34.075l27.753-15.698" stroke="#33475C" stroke-linecap="round" stroke-linejoin="round" stroke-dasharray="2,3,0,0"/>
        <path d="M25.259 20.846c-.42 1.42-.278 2.996.387 4.319 1.699-1.384 1.172-4.35 2.787-5.832.784 1.21-.193 3.105.804 4.145.666-2.465 1.557-4.868 2.659-7.17 1.119 1.168-.037 3.363.976 4.625.826-1.405 1.488-2.906 1.968-4.464.202-.654.47-1.422 1.13-1.604l.2 2.92c.014.19.044.407.205.505.205.128.465-.026.645-.186.84-.75 1.417-1.787 1.609-2.898M37.06 35.438c-.05.877.116 1.765.48 2.564.206.457.681.954 1.128.724.724-.767.754-1.93.846-2.98.092-1.052.406-2.253 1.37-2.683.163.814.338 1.627.525 2.437.053.233.126.491.333.61.298.173.674-.053.893-.318.673-.818.693-1.968.772-3.023.08-1.056.336-2.24 1.243-2.785l.528 2.9c.07.376.27.857.65.803.283-.04.416-.366.495-.643l.931-3.244c.214-.749.45-1.534 1.01-2.075.435.478.73 1.084.834 1.722.067.403.061.825.213 1.204.153.38.532.717.934.64.372-.072.593-.446.765-.783" stroke="#F6C364" stroke-linecap="round" stroke-linejoin="round"/>
    </g>
</svg>
