<svg width="100" height="102" viewBox="0 0 100 102" xmlns="http://www.w3.org/2000/svg">
    <g fill="none" fill-rule="evenodd">
        <path d="M39.977 100.166L1.57 77.991c-2.093-1.207-2.093-3.185 0-4.395l50.052-28.897c2.093-1.209 5.52-1.209 7.613 0l38.407 22.174c2.093 1.21 2.093 3.188 0 4.395L47.59 100.166c-2.095 1.209-5.521 1.209-7.613 0" fill-opacity=".5" fill="#E3EBF3"/>
        <path d="M40.353 81.741l-35.42-20.45c-2.095-1.209-2.095-3.187 0-4.396l46.31-26.738c2.094-1.21 5.521-1.21 7.615 0l35.422 20.45c2.094 1.21 2.094 3.187 0 4.396L47.968 81.74c-2.095 1.21-5.521 1.21-7.615 0z" stroke="#CBD6E6" stroke-width="5" stroke-linecap="round" stroke-linejoin="round"/>
        <path d="M47.53 81.994c-1.853 1.07-4.886 1.07-6.74 0L4.495 61.04c-1.853-1.072-1.853-2.823 0-3.893L51.68 29.906c1.854-1.072 4.888-1.072 6.74 0l36.295 20.953c1.854 1.07 1.854 2.821 0 3.893L47.531 81.994z" stroke="#CBD6E6" stroke-width="5" stroke-linecap="round" stroke-linejoin="round"/>
        <path d="M40.353 81.741l-35.42-20.45c-2.095-1.209-2.095-3.187 0-4.396l46.31-26.738c2.094-1.21 5.521-1.21 7.615 0l35.422 20.45c2.094 1.21 2.094 3.187 0 4.396L47.968 81.74c-2.095 1.21-5.521 1.21-7.615 0" fill="#FFF"/>
        <path d="M40.353 81.741l-35.42-20.45c-2.095-1.209-2.095-3.187 0-4.396l46.31-26.738c2.094-1.21 5.521-1.21 7.615 0l35.422 20.45c2.094 1.21 2.094 3.187 0 4.396L47.968 81.74c-2.095 1.21-5.521 1.21-7.615 0z" stroke="#CBD6E6" stroke-linecap="round" stroke-linejoin="round"/>
        <path d="M47.53 81.994c-1.853 1.07-4.886 1.07-6.74 0L4.495 61.04c-1.853-1.072-1.853-2.823 0-3.893L51.68 29.906c1.854-1.072 4.888-1.072 6.74 0l36.295 20.953c1.854 1.07 1.854 2.821 0 3.893L47.531 81.994z" stroke="#CBD6E6" stroke-linecap="round" stroke-linejoin="round"/>
        <path d="M48.946 39.108L78.775 56.33M40.942 43.73l25.616 14.79M32.937 48.351l29.828 17.221M16.928 57.594l29.828 17.221M24.932 52.974L50.55 67.763" stroke="#CBD6E6" stroke-width="2.4" opacity=".25" stroke-linecap="round" stroke-linejoin="round"/>
        <path d="M65.582 3.456c-2.093-1.21-5.519-1.21-7.614 0L4.674 34.226c-2.092 1.208-2.092 3.185 0 4.394l40.994 23.667c2.093 1.21 5.52 1.21 7.614.001l42.824-24.725V21.079L65.582 3.456z" stroke="#CBD6E6" stroke-width="5" stroke-linecap="round" stroke-linejoin="round"/>
        <path stroke="#CBD6E6" stroke-width="5" stroke-linecap="round" stroke-linejoin="round" d="M81.832 29.321l14.274 8.242V21.08zM74.004 23.917c-2.09-1.48-4.475-2.844-6.829-4.197.906-.36 1.79-.738 2.669-1.13.6-.265.425-.952-.25-1.116-2.42-.589-5.17-.722-7.881-.77 2.315-.624 5.486-1.112 6.703-1.391.829-.19 1.277-.939.287-1.21-1.94-.53-3.88-.744-6.032-.76-2.202-.015-4.793.31-7.063.118 1.414-.736 6.054-1.154 7.07-1.257.804-.083.62-.81-.17-.803-2.697.024-9.396.41-9.523 2.517-.013.208.21.466.55.552 3.267.815 6.932.185 10.45.303-2.734.488-5.63 1.09-6.917 2.248-.55.497.203 1.03 1.076 1.073 2.461.122 5.399.01 7.983.267-.556.2-1.12.392-1.699.578-.781.25-.879.86-.298 1.214 2.641 1.612 5.265 3.294 8.172 4.748 1.17.584 2.664-.303 1.702-.984M44.015 19.575l33.688 19.45M44.015 19.575l33.688 19.45M37.353 23.421l28.93 16.704M37.353 23.421l28.93 16.704M30.692 27.267l33.688 19.45M30.692 27.267l33.688 19.45M17.368 34.96l33.689 19.45M17.368 34.96l33.689 19.45M24.03 31.114l28.93 16.703M24.03 31.114l28.93 16.703"/>
        <path d="M65.582 3.456c-2.093-1.21-5.519-1.21-7.614 0L4.674 34.226c-2.092 1.208-2.092 3.185 0 4.394l40.994 23.667c2.093 1.21 5.52 1.21 7.614.001l42.824-24.725V21.079L65.582 3.456z" fill="#FFF"/>
        <path d="M65.582 3.456c-2.093-1.21-5.519-1.21-7.614 0L4.674 34.226c-2.092 1.208-2.092 3.185 0 4.394l40.994 23.667c2.093 1.21 5.52 1.21 7.614.001l42.824-24.725V21.079L65.582 3.456z" stroke="#CBD6E6" stroke-linecap="round" stroke-linejoin="round"/>
        <path fill="#F2F5F8" d="M81.832 29.321l14.274 8.242V21.08z"/>
        <path stroke="#CBD6E6" stroke-linecap="round" stroke-linejoin="round" d="M81.832 29.321l14.274 8.242V21.08z"/>
        <path d="M74.004 23.917c-2.09-1.48-4.475-2.844-6.829-4.197.906-.36 1.79-.738 2.669-1.13.6-.265.425-.952-.25-1.116-2.42-.589-5.17-.722-7.881-.77 2.315-.624 5.486-1.112 6.703-1.391.829-.19 1.277-.939.287-1.21-1.94-.53-3.88-.744-6.032-.76-2.202-.015-4.793.31-7.063.118 1.414-.736 6.054-1.154 7.07-1.257.804-.083.62-.81-.17-.803-2.697.024-9.396.41-9.523 2.517-.013.208.21.466.55.552 3.267.815 6.932.185 10.45.303-2.734.488-5.63 1.09-6.917 2.248-.55.497.203 1.03 1.076 1.073 2.461.122 5.399.01 7.983.267-.556.2-1.12.392-1.699.578-.781.25-.879.86-.298 1.214 2.641 1.612 5.265 3.294 8.172 4.748 1.17.584 2.664-.303 1.702-.984" fill="#CBD6E6" opacity=".75"/>
        <path d="M44.015 19.575l33.688 19.45M37.353 23.421l28.93 16.704M30.692 27.267l33.688 19.45M17.368 34.96l33.689 19.45M24.03 31.114l28.93 16.703" stroke="#CBD6E6" stroke-width="2.4" opacity=".5" stroke-linecap="round" stroke-linejoin="round"/>
    </g>
</svg>
