<svg width="151" height="199" viewBox="0 0 151 199" xmlns="http://www.w3.org/2000/svg" xmlns:xlink="http://www.w3.org/1999/xlink">
    <defs>
        <path id="a" d="M0 .23v87.55h52.96V.23H0z"/>
    </defs>
    <g fill="none" fill-rule="evenodd">
        <path d="M78.244 118.655c-2.564-1.48-6.76-1.48-9.325 0L7.1 154.247c-2.564 1.48-2.55 3.88.03 5.332l67.08 37.754c2.58 1.452 6.803 1.452 9.383 0l61.76-34.584c2.582-1.452 2.595-3.852.03-5.332l-67.14-38.763z" fill="#FF8F52" opacity=".2"/>
        <g transform="translate(0 19.423)">
            <mask id="b" fill="#fff">
                <use xlink:href="#a"/>
            </mask>
            <path d="M4.73 25.987C2.127 27.49 0 31.175 0 34.18v50.23c0 3.003 2.128 4.23 4.73 2.73l43.5-25.115c2.602-1.502 4.73-5.188 4.73-8.192V3.603c0-3.004-2.13-4.233-4.73-2.73L4.73 25.986z" fill="#7CD1DF" opacity=".5" mask="url(#b)"/>
        </g>
        <path d="M10.223 50.903c-2.602 1.502-4.73 5.188-4.73 8.192v50.23c0 3.004 2.128 4.232 4.73 2.73l43.5-25.114c2.602-1.5 4.73-5.187 4.73-8.19V28.517c0-3.003-2.13-4.232-4.73-2.73l-43.5 25.115z" fill="#7BDED2" opacity=".5"/>
        <path d="M15.716 56.396c-2.6 1.502-4.73 5.188-4.73 8.192v50.23c0 3.004 2.128 4.232 4.73 2.73l43.5-25.114c2.602-1.502 4.73-5.188 4.73-8.192v-50.23c0-3.004-2.128-4.233-4.73-2.73l-43.5 25.114z" fill="#FBE1B2" opacity=".5"/>
        <path d="M51.238 65.048c1.205-.162 1.69.42 1.67 1.462 0 1.535-.623 2.883-1.67 3.964v-5.426zm-3.34-8.664v5.4c-1.2.16-1.662-.365-1.67-1.436 0-1.535.624-2.883 1.67-3.964zm1.67-7.147c-.922.532-1.67 1.71-1.67 2.633v1.044c-2.835 2.357-5.008 6.134-5.008 9.362 0 2.093 1.017 3.142 2.27 3.333.916.14 1.852-.008 2.74-.147v6.81c-.818.006-1.48-.358-1.854-.888-.335-.67-1.467-.454-2.296.438-.828.893-1.167 2.262-.678 2.766.866 1.23 2.54 2.01 4.827 1.282v1.044c0 .922.746 1.238 1.668.706.922-.533 1.67-1.712 1.67-2.634v-1.044c2.836-2.357 5.01-6.134 5.01-9.362 0-2.093-1.018-3.168-2.27-3.36-.918-.14-1.853.008-2.74.147v-6.784c.816-.014 1.48.33 1.852.86.336.67 1.468.455 2.296-.437.83-.894 1.168-2.263.678-2.767-.866-1.232-2.54-1.99-4.826-1.257v-1.043c0-.923-.748-1.24-1.67-.706zm-28.126 31.88c.323-.163.685-.213.92-.06l7.16 4.223 7.16-12.492c.465-.817 1.424-1.437 1.946-1.294.548.15.65 1.006.15 1.86l-6.285 10.96 3.185-1.84c.756-.436 1.368-.177 1.368.578 0 .756-.612 1.722-1.368 2.158l-4.788 2.765v2.736l4.788-2.764c.756-.436 1.368-.177 1.368.58 0 .754-.612 1.72-1.368 2.156l-4.788 2.765v4.104c.01.718-.645 1.742-1.368 2.16-.723.416-1.378.15-1.368-.58v-4.103l-4.788 2.764c-.755.437-1.368.18-1.368-.577 0-.756.613-1.722 1.368-2.158l4.788-2.764v-2.736l-4.788 2.765c-.755.435-1.368.176-1.368-.58 0-.755.613-1.72 1.368-2.157l3.185-1.84-6.284-3.703c-.33-.183-.415-.706-.235-1.275.18-.568.618-1.114 1.113-1.454.092-.07.19-.14.3-.193zm6.336-34.113c-5.65 3.262-10.43 9.78-12.025 15.84l-2.062 1.19c-.817.473-1.482 1.52-1.482 2.34 0 .818.665 1.1 1.483.626l1.53-.883c-.015.258-.046.516-.046.768 0 .5.036.98.092 1.43l-1.575.91c-.817.472-1.482 1.52-1.482 2.338 0 .82.665 1.1 1.483.627l2.318-1.338c1.806 3.72 6.39 4.467 11.77 1.36 4.036-2.33 6.827-5.74 9.175-9.444.583-.912.59-1.855.015-2.106-.575-.252-1.513.283-2.096 1.195 0 .002-.003.004-.004.006-2.097 3.31-3.86 5.52-7.09 7.384-3.738 2.158-6.945 1.91-8.55-.254l9.268-5.35c.82-.473 1.483-1.52 1.483-2.34 0-.82-.665-1.1-1.484-.626l-10.24 5.912c-.075-.44-.117-.912-.117-1.417 0-.254.027-.508.046-.768l10.31-5.953c.82-.472 1.483-1.52 1.483-2.34 0-.818-.665-1.098-1.484-.625l-9.615 5.55c1.452-4.324 4.87-8.742 8.898-11.067 3.23-1.865 4.993-1.715 7.09-.827.58.243 1.52-.302 2.096-1.216.577-.915.574-1.852-.007-2.094l-.004-.002c-2.348-.993-5.14-1.156-9.175 1.174z" fill="#FFF" opacity=".5"/>
        <path d="M67.58 103.655l70.356 40.62c1.135.655 2.756.88 4.373.728l5.475-44.033c.22-1.778-2.118-3.13-5.2-3l-76.265 3.16c-.266.934.126 1.87 1.26 2.525z" stroke="#33475C" stroke-width="5" stroke-linecap="round" stroke-linejoin="round"/>
        <path d="M75.828 180.47L5.473 139.85c-2.022-1.168-1.766-3.225.57-4.573l57.232-33.044c2.335-1.348 5.9-1.496 7.92-.328l70.356 40.62c2.023 1.166 1.767 3.224-.568 4.572L83.75 180.14c-2.336 1.35-5.9 1.496-7.922.33z" stroke="#33475C" stroke-width="5" stroke-linecap="round" stroke-linejoin="round"/>
        <path d="M141.55 142.524l-70.355-40.62c-1.134-.655-2.755-.88-4.372-.728l-5.476 44.033c-.22 1.777 2.117 3.128 5.2 3l76.264-3.16c.267-.935-.125-1.87-1.26-2.526zm1.262 2.526v-.002zm-4.514-32.61L76.04 76.498c-.94-.544-1.712-1.76-1.712-2.703V4.398c0-.942.772-1.268 1.713-.724L138.3 39.618c.942.544 1.714 1.76 1.714 2.703v69.397c0 .942-.772 1.268-1.714.724z" stroke="#33475C" stroke-width="5" stroke-linecap="round" stroke-linejoin="round"/>
        <path d="M75.19 4.32l-.017.002.066 69.472c0 .56.538 1.498 1.258 1.914l62.256 35.945c.24.137.394.144.414.14l-.066-69.472c0-.56-.54-1.498-1.26-1.914L75.588 4.462c-.204-.118-.343-.142-.396-.142zm63.964 109.295c-.418 0-.868-.13-1.31-.386L75.586 77.284c-1.237-.714-2.168-2.214-2.168-3.49V4.397c0-.738.317-1.346.87-1.666.617-.355 1.424-.3 2.208.153l62.256 35.944c1.237.713 2.168 2.214 2.168 3.49v69.397c0 .738-.318 1.345-.874 1.666-.27.154-.573.232-.894.232z" stroke="#33475C" stroke-width="5" stroke-linecap="round" stroke-linejoin="round"/>
        <path d="M138.3 39.618L76.04 3.674c-.942-.544-1.713-.218-1.713.724v20.815l65.682 37.922V42.32c0-.942-.77-2.158-1.713-2.702z" stroke="#33475C" stroke-width="5" stroke-linecap="round" stroke-linejoin="round"/>
        <path d="M75.237 24.686l63.865 36.872V42.32c0-.56-.54-1.498-1.26-1.914L75.588 4.463c-.23-.135-.382-.153-.414-.14l.064 20.363zm64.775 39.36c-.156 0-.315-.042-.455-.123L73.873 26c-.28-.162-.455-.462-.455-.788V4.4c0-.74.32-1.347.873-1.667.616-.356 1.423-.3 2.207.153l62.256 35.944c1.238.713 2.17 2.215 2.17 3.49v20.815c0 .325-.175.625-.456.788-.14.08-.3.122-.455.122z" stroke="#33475C" stroke-width="5" stroke-linecap="round" stroke-linejoin="round"/>
        <path stroke="#33475C" stroke-width="5" stroke-linecap="round" stroke-linejoin="round" d="M74.328 33.865l65.684 37.922v-8.652L74.328 25.213z"/>
        <path d="M75.24 33.34l63.86 36.87v-6.55L75.24 26.79v6.55zm64.772 39.358c-.156 0-.314-.04-.455-.122L73.874 34.654c-.28-.163-.455-.463-.455-.79v-8.652c0-.325.173-.626.454-.788.28-.162.63-.162.91 0l65.683 37.922c.28.163.455.463.455.79v8.652c0 .325-.174.626-.455.788-.14.08-.298.122-.455.122zm-17.494-34.09L91.823 20.886m30.692 19.542c-.31 0-.622-.078-.908-.244L90.912 22.462c-.87-.503-1.17-1.617-.666-2.487.5-.87 1.617-1.17 2.487-.666l30.694 17.72c.87.504 1.17 1.618.667 2.488-.338.584-.95.91-1.58.91zM132.847 77.7l-30.695-17.723m30.696 18.633c-.155 0-.31-.04-.455-.123l-30.696-17.72c-.436-.253-.585-.81-.333-1.245.25-.433.81-.582 1.243-.334l30.696 17.722c.436.252.585.81.333 1.245-.168.29-.475.454-.788.454zm-.001 16.5l-30.695-17.723m30.696 18.177c-.078 0-.156-.02-.228-.06L101.924 77.78c-.216-.124-.29-.402-.167-.62.127-.22.41-.292.623-.166l30.696 17.72c.216.126.29.405.167.622-.086.146-.24.228-.395.228zm-.001 3.478l-8.8-5.08m8.801 5.99c-.155 0-.31-.04-.455-.122l-8.802-5.08c-.434-.252-.583-.808-.33-1.244.25-.435.81-.58 1.242-.333l8.8 5.08c.437.252.586.808.334 1.244-.168.29-.475.455-.788.455zm-.001-8.622l-8.8-5.082m8.801 5.536c-.078 0-.156-.02-.228-.06l-8.8-5.082c-.218-.125-.293-.404-.168-.62.126-.22.407-.294.622-.168l8.802 5.08c.216.126.29.405.167.622-.086.146-.24.228-.395.228zm-.001-4.144l-11.59-6.69m11.591 7.144c-.078 0-.156-.02-.228-.06l-11.59-6.692c-.215-.124-.29-.403-.166-.62.128-.22.407-.292.623-.166l11.59 6.69c.215.125.29.404.166.62-.086.147-.24.228-.395.228zm-.001-4.604l-8.8-5.082m8.801 5.536c-.078 0-.156-.02-.228-.06l-8.8-5.082c-.218-.125-.293-.404-.168-.62.126-.22.407-.294.622-.168l8.802 5.08c.216.126.29.405.167.622-.086.146-.24.228-.395.228zm-19.742-42.65L97.754 32.43m15.352 9.774c-.155 0-.31-.04-.455-.122L97.3 33.218c-.435-.25-.585-.807-.332-1.243.25-.436.81-.583 1.242-.333l15.35 8.863c.437.252.586.808.334 1.244-.168.29-.475.454-.788.454zm9.214 15.149l7.597 4.387" stroke="#33475C" stroke-width="5" stroke-linecap="round" stroke-linejoin="round"/>
        <path d="M129.918 62.195c-.078 0-.156-.02-.228-.06l-7.598-4.388c-.216-.125-.29-.403-.167-.62.128-.22.407-.294.623-.167l7.598 4.386c.216.125.29.404.167.62-.086.147-.24.23-.395.23zm-16.812-10.161l6.26 3.614m.001.455c-.078 0-.156-.02-.228-.06l-6.262-3.614c-.217-.127-.29-.405-.167-.623.127-.218.41-.294.623-.166l6.262 3.614c.216.126.29.404.167.622-.086.146-.24.227-.395.227zm-15.061-9.15l6.25 3.608m-.001.455c-.078 0-.156-.02-.228-.06l-6.248-3.608c-.218-.126-.293-.404-.168-.622.126-.22.41-.292.622-.166l6.25 3.607c.215.125.29.404.166.62-.086.147-.24.23-.395.23zM91.624 39.63l3.585 2.07 5.966 3.446" stroke="#33475C" stroke-width="5" stroke-linecap="round" stroke-linejoin="round"/>
        <path d="M101.176 45.6c-.078 0-.156-.02-.228-.06l-9.55-5.515c-.218-.125-.293-.403-.168-.62.126-.22.41-.294.622-.167l9.552 5.514c.216.125.29.404.167.62-.085.147-.238.23-.394.23zM82.11 34.138l6.14 3.545m0 .455c-.078 0-.156-.02-.228-.06l-6.14-3.546c-.217-.125-.29-.404-.167-.62.126-.22.41-.294.622-.168l6.14 3.545c.217.124.292.403.168.62-.086.146-.24.228-.395.228zm.983 31.802c3.932 2.27 7.15.413 7.15-4.13 0-4.54-3.218-10.114-7.15-12.385-3.934-2.27-7.15-.413-7.15 4.13 0 4.54 3.216 10.114 7.15 12.385" stroke="#33475C" stroke-width="5" stroke-linecap="round" stroke-linejoin="round"/>
        <path d="M85.813 73.042c3.134 1.81 5.698.33 5.698-3.29 0-3.618-2.563-8.06-5.697-9.87-3.134-1.808-5.698-.328-5.698 3.29 0 3.62 2.564 8.06 5.698 9.87m31.686-.562l-15.35-8.862m15.35 9.316c-.08 0-.157-.02-.23-.06l-15.346-8.862c-.217-.126-.29-.404-.167-.622.126-.218.41-.293.622-.166l15.347 8.86c.216.126.29.405.167.622-.086.146-.24.228-.395.228zm-61.786 42.262s20.072-6.366 20.072-24.425l64.513 36.86s-1.556 24.617-22.444 24.617" stroke="#33475C" stroke-width="5" stroke-linecap="round" stroke-linejoin="round"/>
        <path d="M117.856 153.157c-.503 0-.91-.407-.91-.91 0-.503.407-.91.91-.91 18.088 0 21.087-19.625 21.482-23.208L76.648 92.31C75.55 109.657 56.19 116 55.987 116.066c-.48.156-.99-.114-1.142-.592-.15-.48.114-.99.592-1.143.194-.064 19.436-6.39 19.436-23.56 0-.323.173-.623.453-.786.28-.163.626-.164.91-.003l64.514 36.86c.304.17.48.5.458.847-.016.255-1.858 25.47-23.352 25.47zm14.064-20.061l-51.65-29.818" stroke="#33475C" stroke-width="5" stroke-linecap="round" stroke-linejoin="round"/>
        <path d="M131.92 134.006c-.155 0-.31-.04-.455-.122l-51.647-29.818c-.435-.25-.584-.808-.332-1.243.25-.435.81-.582 1.243-.333l51.645 29.817c.436.252.585.808.333 1.244-.168.292-.475.456-.788.456zm-46.013-7.214L69.31 117.21m16.597 10.037c-.078 0-.156-.02-.228-.06l-16.596-9.583c-.216-.126-.29-.404-.167-.622.127-.22.407-.292.622-.166l16.595 9.582c.216.125.29.404.167.62-.086.147-.24.23-.395.23zm28.14 18.183l-14.013-8.09m14.012 9c-.155 0-.31-.04-.455-.123l-14.01-8.09c-.437-.252-.586-.808-.334-1.244.25-.435.81-.58 1.243-.333l14.01 8.09c.437.252.586.808.334 1.244-.168.292-.475.455-.788.455zm8.664-.91l-14.013-8.09m14.013 8.544c-.077 0-.155-.02-.227-.06l-14.013-8.092c-.217-.125-.292-.403-.167-.62.126-.22.407-.294.622-.167l14.014 8.09c.215.125.29.404.166.62-.086.147-.24.23-.395.23zm2.784-2.632l-18.453-10.654m18.452 11.109c-.078 0-.156-.02-.228-.06l-18.452-10.655c-.217-.126-.292-.404-.167-.622.128-.22.407-.29.622-.166l18.453 10.654c.217.125.292.404.168.62-.086.147-.24.23-.395.23zm1.465-3.525l-14.013-8.09m14.013 8.545c-.078 0-.156-.02-.228-.06l-14.012-8.092c-.216-.125-.29-.403-.167-.62.128-.22.41-.293.624-.167l14.012 8.09c.216.125.29.404.167.62-.086.147-.24.23-.395.23zm-25.823-19.24l-24.438-14.11m24.438 14.565c-.078 0-.156-.02-.228-.06L76.47 107.68c-.218-.126-.292-.405-.168-.622.126-.22.41-.292.622-.167l24.44 14.11c.215.125.29.404.166.62-.086.147-.24.23-.395.23zM76.053 180.34L5.698 139.72c-1.135-.656-1.527-1.592-1.26-2.525l76.265-3.162c3.08-.127 5.42 1.223 5.2 3.002l-5.477 44.032c-1.617.154-3.238-.073-4.373-.728z" stroke="#33475C" stroke-width="5" stroke-linecap="round" stroke-linejoin="round"/>
        <path d="M5.32 138.07c.11.316.39.605.833.86l70.355 40.62c.772.447 1.913.678 3.11.652l5.38-43.28c.038-.302-.067-.58-.318-.855-.695-.755-2.252-1.198-3.94-1.124L5.32 138.07zm74.152 43.952c-1.494 0-2.866-.31-3.874-.895l-70.355-40.62c-1.45-.837-2.078-2.17-1.68-3.56l.18-.633 76.923-3.19c2.262-.09 4.28.545 5.353 1.71.618.673.89 1.472.785 2.313l-5.566 44.757-.728.07c-.35.032-.7.048-1.04.048z" stroke="#33475C" stroke-width="5" stroke-linecap="round" stroke-linejoin="round"/>
        <path d="M4.248 137.2l.19-.005 58.206-2.413 4.178-33.606c-.182.017-.365.025-.547.053-1.076.16-2.124.498-3 1.004L6.042 135.276c-.876.506-1.46 1.11-1.74 1.732-.028.06-.032.126-.054.19z" stroke="#33475C" stroke-width="5" stroke-linecap="round" stroke-linejoin="round"/>
        <path d="M65.772 102.25c-.757.17-1.454.433-2.043.77L6.496 136.067c-.08.046-.158.093-.233.142l55.57-2.303 3.938-31.656zM4.247 138.11c-.292 0-.566-.14-.738-.377-.172-.236-.22-.54-.127-.817.017-.068.067-.234.09-.28.37-.822 1.1-1.564 2.114-2.147l57.232-33.045c.945-.545 2.093-.93 3.318-1.116.148-.023.295-.035.443-.046.266-.02.627.074.815.272.19.197.365.462.33.733l-4.18 33.604c-.054.442-.42.78-.864.798L4.273 138.11h-.025zm76.179 42.957v.108c1.188-.14 2.36-.48 3.322-1.035l57.234-33.042c1.024-.592 1.622-1.32 1.83-2.05l-58.207 2.413-4.18 33.607z" stroke="#33475C" stroke-width="5" stroke-linecap="round" stroke-linejoin="round"/>
        <path d="M85.414 148.34l-3.947 31.725c.68-.168 1.3-.41 1.826-.713l57.234-33.043c.15-.087.29-.18.42-.272l-55.533 2.3zm-4.987 33.746c-.218 0-.432-.08-.6-.225-.192-.17-.306-.413-.31-.67 0-.042 0-.192.006-.234l4.18-33.606c.054-.442.42-.78.865-.798l58.206-2.412c.31-.01.57.116.752.346.18.23.24.532.16.813-.288 1.008-1.065 1.902-2.25 2.586L84.204 180.93c-1.024.59-2.293.988-3.67 1.15-.034.004-.07.006-.106.006z" stroke="#33475C" stroke-width="5" stroke-linecap="round" stroke-linejoin="round"/>
        <path d="M67.58 103.655l70.356 40.62c1.135.655 2.756.88 4.373.728l5.475-44.033c.22-1.778-2.118-3.13-5.2-3l-76.265 3.16c-.266.934.126 1.87 1.26 2.525" fill="#D4E7F8"/>
        <path d="M67.58 103.655l70.356 40.62c1.135.655 2.756.88 4.373.728l5.475-44.033c.22-1.778-2.118-3.13-5.2-3l-76.265 3.16c-.266.934.126 1.87 1.26 2.525z" stroke="#33475C"/>
        <path d="M75.828 180.47L5.473 139.85c-2.022-1.168-1.766-3.225.57-4.573l57.232-33.044c2.335-1.348 5.9-1.496 7.92-.328l70.356 40.62c2.023 1.166 1.767 3.224-.568 4.572L83.75 180.14c-2.336 1.35-5.9 1.496-7.922.33" fill="#E6EFF7"/>
        <path d="M75.828 180.47L5.473 139.85c-2.022-1.168-1.766-3.225.57-4.573l57.232-33.044c2.335-1.348 5.9-1.496 7.92-.328l70.356 40.62c2.023 1.166 1.767 3.224-.568 4.572L83.75 180.14c-2.336 1.35-5.9 1.496-7.922.33z" stroke="#33475C" stroke-linecap="round" stroke-linejoin="round"/>
        <path d="M141.55 142.524l-70.355-40.62c-1.134-.655-2.755-.88-4.372-.728l-5.476 44.033c-.22 1.777 2.117 3.128 5.2 3l76.264-3.16c.267-.935-.125-1.87-1.26-2.526" fill="#D4E7F8"/>
        <path d="M141.55 142.524l-70.355-40.62c-1.134-.655-2.755-.88-4.372-.728l-5.476 44.033c-.22 1.777 2.117 3.128 5.2 3l76.264-3.16c.267-.935-.125-1.87-1.26-2.526z" stroke="#33475C"/>
        <path d="M142.812 145.05v-.002z" fill="#E6EFF7"/>
        <path d="M142.812 145.05v-.002z" stroke="#33475C" stroke-linecap="round" stroke-linejoin="round"/>
        <path d="M138.298 112.44L76.04 76.498c-.94-.544-1.712-1.76-1.712-2.703V4.398c0-.942.772-1.268 1.713-.724L138.3 39.618c.942.544 1.714 1.76 1.714 2.703v69.397c0 .942-.772 1.268-1.714.724" fill="#FFF"/>
        <path d="M75.19 4.32l-.017.002.066 69.472c0 .56.538 1.498 1.258 1.914l62.256 35.945c.24.137.394.144.414.14l-.066-69.472c0-.56-.54-1.498-1.26-1.914L75.588 4.462c-.204-.118-.343-.142-.396-.142m63.964 109.295c-.418 0-.868-.13-1.31-.386l-62.26-35.945c-1.237-.714-2.168-2.214-2.168-3.49V4.397c0-.738.317-1.346.87-1.666.617-.355 1.424-.3 2.208.153l62.256 35.944c1.237.713 2.168 2.214 2.168 3.49v69.397c0 .738-.318 1.345-.874 1.666-.27.154-.573.232-.894.232" fill="#33475C"/>
        <path d="M138.3 39.618L76.04 3.674c-.942-.544-1.713-.218-1.713.724v20.815l65.682 37.922V42.32c0-.942-.77-2.158-1.713-2.702" fill="#6976D4"/>
        <path d="M75.237 24.686l63.865 36.872V42.32c0-.56-.54-1.498-1.26-1.914L75.588 4.463c-.23-.135-.382-.153-.414-.14l.064 20.363zm64.775 39.36c-.156 0-.315-.042-.455-.123L73.873 26c-.28-.162-.455-.462-.455-.788V4.4c0-.74.32-1.347.873-1.667.616-.356 1.423-.3 2.207.153l62.256 35.944c1.238.713 2.17 2.215 2.17 3.49v20.815c0 .325-.175.625-.456.788-.14.08-.3.122-.455.122z" fill="#33475C"/>
        <path fill="#8E98DF" d="M74.328 33.865l65.684 37.922v-8.652L74.328 25.213"/>
        <path d="M75.24 33.34l63.86 36.87v-6.55L75.24 26.79v6.55zm64.772 39.358c-.156 0-.314-.04-.455-.122L73.874 34.654c-.28-.163-.455-.463-.455-.79v-8.652c0-.325.173-.626.454-.788.28-.162.63-.162.91 0l65.683 37.922c.28.163.455.463.455.79v8.652c0 .325-.174.626-.455.788-.14.08-.298.122-.455.122z" fill="#33475C"/>
        <path d="M122.518 38.608L91.823 20.886m30.692 19.542c-.31 0-.622-.078-.908-.244L90.912 22.462c-.87-.503-1.17-1.617-.666-2.487.5-.87 1.617-1.17 2.487-.666l30.694 17.72c.87.504 1.17 1.618.667 2.488-.338.584-.95.91-1.58.91" fill="#8E98DF"/>
        <path d="M132.847 77.7l-30.695-17.723m30.696 18.633c-.155 0-.31-.04-.455-.123l-30.696-17.72c-.436-.253-.585-.81-.333-1.245.25-.433.81-.582 1.243-.334l30.696 17.722c.436.252.585.81.333 1.245-.168.29-.475.454-.788.454m-.001 16.501l-30.695-17.723" fill="#6976D4"/>
        <path d="M132.848 95.564c-.078 0-.156-.02-.228-.06L101.924 77.78c-.216-.124-.29-.402-.167-.62.127-.22.41-.292.623-.166l30.696 17.72c.216.126.29.405.167.622-.086.146-.24.228-.395.228" fill="#8E98DF"/>
        <path d="M132.847 99.042l-8.8-5.08m8.801 5.99c-.155 0-.31-.04-.455-.122l-8.802-5.08c-.434-.252-.583-.808-.33-1.244.25-.435.81-.58 1.242-.333l8.8 5.08c.437.252.586.808.334 1.244-.168.29-.475.455-.788.455" fill="#00BEA5"/>
        <path d="M132.847 91.33l-8.8-5.082" fill="#6976D4"/>
        <path d="M132.848 91.784c-.078 0-.156-.02-.228-.06l-8.8-5.082c-.218-.125-.293-.404-.168-.62.126-.22.407-.294.622-.168l8.802 5.08c.216.126.29.405.167.622-.086.146-.24.228-.395.228" fill="#33475C"/>
        <path d="M132.847 87.64l-11.59-6.69" fill="#6976D4"/>
        <path d="M132.848 88.094c-.078 0-.156-.02-.228-.06l-11.59-6.692c-.215-.124-.29-.403-.166-.62.128-.22.407-.292.623-.166l11.59 6.69c.215.125.29.404.166.62-.086.147-.24.228-.395.228" fill="#33475C"/>
        <path d="M132.847 83.49l-8.8-5.082" fill="#6976D4"/>
        <path d="M132.848 83.944c-.078 0-.156-.02-.228-.06l-8.8-5.082c-.218-.125-.293-.404-.168-.62.126-.22.407-.294.622-.168l8.802 5.08c.216.126.29.405.167.622-.086.146-.24.228-.395.228" fill="#33475C"/>
        <path d="M113.106 41.294L97.754 32.43m15.352 9.774c-.155 0-.31-.04-.455-.122L97.3 33.218c-.435-.25-.585-.807-.332-1.243.25-.436.81-.583 1.242-.333l15.35 8.863c.437.252.586.808.334 1.244-.168.29-.475.454-.788.454m9.214 15.15l7.597 4.387" fill="#8E98DF"/>
        <path d="M129.918 62.195c-.078 0-.156-.02-.228-.06l-7.598-4.388c-.216-.125-.29-.403-.167-.62.128-.22.407-.294.623-.167l7.598 4.386c.216.125.29.404.167.62-.086.147-.24.23-.395.23" fill="#FFF"/>
        <path d="M113.106 52.034l6.26 3.614" fill="#8E98DF"/>
        <path d="M119.367 56.103c-.078 0-.156-.02-.228-.06l-6.262-3.614c-.217-.127-.29-.405-.167-.623.127-.218.41-.294.623-.166l6.262 3.614c.216.126.29.404.167.622-.086.146-.24.227-.395.227" fill="#FFF"/>
        <path d="M104.306 46.953l6.25 3.608" fill="#8E98DF"/>
        <path d="M110.555 51.016c-.078 0-.156-.02-.228-.06l-6.248-3.608c-.218-.126-.293-.404-.168-.622.126-.22.41-.292.622-.166l6.25 3.607c.215.125.29.404.166.62-.086.147-.24.23-.395.23" fill="#FFF"/>
        <path fill="#8E98DF" d="M91.624 39.63l3.585 2.07 5.966 3.446"/>
        <path d="M101.176 45.6c-.078 0-.156-.02-.228-.06l-9.55-5.515c-.218-.125-.293-.403-.168-.62.126-.22.41-.294.622-.167l9.552 5.514c.216.125.29.404.167.62-.085.147-.238.23-.394.23" fill="#FFF"/>
        <path d="M82.11 34.138l6.14 3.545" fill="#8E98DF"/>
        <path d="M88.25 38.138c-.078 0-.156-.02-.228-.06l-6.14-3.546c-.217-.125-.29-.404-.167-.62.126-.22.41-.294.622-.168l6.14 3.545c.217.124.292.403.168.62-.086.146-.24.228-.395.228" fill="#FFF"/>
        <path d="M89.233 69.94c3.932 2.27 7.15.413 7.15-4.13 0-4.54-3.218-10.114-7.15-12.385-3.934-2.27-7.15-.413-7.15 4.13 0 4.54 3.216 10.114 7.15 12.385" fill="#00A4BF" opacity=".5"/>
        <path d="M85.813 73.042c3.134 1.81 5.698.33 5.698-3.29 0-3.618-2.563-8.06-5.697-9.87-3.134-1.808-5.698-.328-5.698 3.29 0 3.62 2.564 8.06 5.698 9.87" fill="#FF8F52" opacity=".5"/>
        <path d="M117.5 72.48l-15.35-8.862" fill="#6976D4"/>
        <path d="M117.5 72.934c-.08 0-.157-.02-.23-.06l-15.346-8.862c-.217-.126-.29-.404-.167-.622.126-.218.41-.293.622-.166l15.347 8.86c.216.126.29.405.167.622-.086.146-.24.228-.395.228" fill="#33475C"/>
        <path d="M55.714 115.196s20.072-6.366 20.072-24.425l64.513 36.86s-1.556 24.617-22.444 24.617" fill="#FFF"/>
        <path d="M117.856 153.157c-.503 0-.91-.407-.91-.91 0-.503.407-.91.91-.91 18.088 0 21.087-19.625 21.482-23.208L76.648 92.31C75.55 109.657 56.19 116 55.987 116.066c-.48.156-.99-.114-1.142-.592-.15-.48.114-.99.592-1.143.194-.064 19.436-6.39 19.436-23.56 0-.323.173-.623.453-.786.28-.163.626-.164.91-.003l64.514 36.86c.304.17.48.5.458.847-.016.255-1.858 25.47-23.352 25.47" fill="#33475C"/>
        <path d="M131.92 133.096l-51.65-29.818m51.65 30.728c-.155 0-.31-.04-.455-.122l-51.647-29.818c-.435-.25-.584-.808-.332-1.243.25-.435.81-.582 1.243-.333l51.645 29.817c.436.252.585.808.333 1.244-.168.292-.475.456-.788.456m-46.012-7.215L69.31 117.21" fill="#6976D4"/>
        <path d="M85.907 127.247c-.078 0-.156-.02-.228-.06l-16.596-9.583c-.216-.126-.29-.404-.167-.622.127-.22.407-.292.622-.166l16.595 9.582c.216.125.29.404.167.62-.086.147-.24.23-.395.23" fill="#8E98DF"/>
        <path d="M114.047 145.43l-14.013-8.09m14.012 9c-.155 0-.31-.04-.455-.123l-14.01-8.09c-.437-.252-.586-.808-.334-1.244.25-.435.81-.58 1.243-.333l14.01 8.09c.437.252.586.808.334 1.244-.168.292-.475.455-.788.455" fill="#00BEA5"/>
        <path d="M122.71 145.43l-14.013-8.09" fill="#6976D4"/>
        <path d="M122.71 145.884c-.077 0-.155-.02-.227-.06l-14.013-8.092c-.217-.125-.292-.403-.167-.62.126-.22.407-.294.622-.167l14.014 8.09c.215.125.29.404.166.62-.086.147-.24.23-.395.23" fill="#33475C"/>
        <path d="M125.494 143.252l-18.453-10.654" fill="#6976D4"/>
        <path d="M125.493 143.707c-.078 0-.156-.02-.228-.06l-18.452-10.655c-.217-.126-.292-.404-.167-.622.128-.22.407-.29.622-.166l18.453 10.654c.217.125.292.404.168.62-.086.147-.24.23-.395.23" fill="#33475C"/>
        <path d="M126.958 140.182l-14.013-8.09" fill="#6976D4"/>
        <path d="M126.958 140.637c-.078 0-.156-.02-.228-.06l-14.012-8.092c-.216-.125-.29-.403-.167-.62.128-.22.41-.293.624-.167l14.012 8.09c.216.125.29.404.167.62-.086.147-.24.23-.395.23" fill="#33475C"/>
        <path d="M101.135 121.397l-24.438-14.11" fill="#6976D4"/>
        <path d="M101.135 121.852c-.078 0-.156-.02-.228-.06L76.47 107.68c-.218-.126-.292-.405-.168-.622.126-.22.41-.292.622-.167l24.44 14.11c.215.125.29.404.166.62-.086.147-.24.23-.395.23" fill="#33475C"/>
        <path d="M76.053 180.34L5.698 139.72c-1.135-.656-1.527-1.592-1.26-2.525l76.265-3.162c3.08-.127 5.42 1.223 5.2 3.002l-5.477 44.032c-1.617.154-3.238-.073-4.373-.728" fill="#FFF"/>
        <path d="M5.32 138.07c.11.316.39.605.833.86l70.355 40.62c.772.447 1.913.678 3.11.652l5.38-43.28c.038-.302-.067-.58-.318-.855-.695-.755-2.252-1.198-3.94-1.124L5.32 138.07zm74.152 43.952c-1.494 0-2.866-.31-3.874-.895l-70.355-40.62c-1.45-.837-2.078-2.17-1.68-3.56l.18-.633 76.923-3.19c2.262-.09 4.28.545 5.353 1.71.618.673.89 1.472.785 2.313l-5.566 44.757-.728.07c-.35.032-.7.048-1.04.048z" fill="#33475C"/>
        <path d="M4.248 137.2l.19-.005 58.206-2.413 4.178-33.606c-.182.017-.365.025-.547.053-1.076.16-2.124.498-3 1.004L6.042 135.276c-.876.506-1.46 1.11-1.74 1.732-.028.06-.032.126-.054.19" fill="#E6EFF7"/>
        <path d="M65.772 102.25c-.757.17-1.454.433-2.043.77L6.496 136.067c-.08.046-.158.093-.233.142l55.57-2.303 3.938-31.656zM4.247 138.11c-.292 0-.566-.14-.738-.377-.172-.236-.22-.54-.127-.817.017-.068.067-.234.09-.28.37-.822 1.1-1.564 2.114-2.147l57.232-33.045c.945-.545 2.093-.93 3.318-1.116.148-.023.295-.035.443-.046.266-.02.627.074.815.272.19.197.365.462.33.733l-4.18 33.604c-.054.442-.42.78-.864.798L4.273 138.11h-.025z" fill="#33475C"/>
        <path d="M80.426 181.067v.108c1.188-.14 2.36-.48 3.322-1.035l57.234-33.042c1.024-.592 1.622-1.32 1.83-2.05l-58.207 2.413-4.18 33.607z" fill="#E6EFF7"/>
        <path d="M85.414 148.34l-3.947 31.725c.68-.168 1.3-.41 1.826-.713l57.234-33.043c.15-.087.29-.18.42-.272l-55.533 2.3zm-4.987 33.746c-.218 0-.432-.08-.6-.225-.192-.17-.306-.413-.31-.67 0-.042 0-.192.006-.234l4.18-33.606c.054-.442.42-.78.865-.798l58.206-2.412c.31-.01.57.116.752.346.18.23.24.532.16.813-.288 1.008-1.065 1.902-2.25 2.586L84.204 180.93c-1.024.59-2.293.988-3.67 1.15-.034.004-.07.006-.106.006z" fill="#33475C"/>
    </g>
</svg>
