<svg width="177" height="180" viewBox="0 0 177 180" xmlns="http://www.w3.org/2000/svg" xmlns:xlink="http://www.w3.org/1999/xlink">
    <defs>
        <path id="a" d="M176.966 101V.09H0V101h176.966z"/>
    </defs>
    <g fill="none" fill-rule="evenodd">
        <g transform="translate(0 78.897)">
            <mask id="b" fill="#fff">
                <use xlink:href="#a"/>
            </mask>
            <path d="M98.46 1.353c-2.915-1.683-7.686-1.683-10.6 0L2.176 50.777c-2.915 1.683-2.9 4.41.033 6.062l76.263 42.92c2.934 1.652 7.734 1.652 10.668 0l85.617-48.276c2.933-1.65 2.948-4.38.033-6.062L98.46 1.352z" fill="#FF8F52" opacity=".2" mask="url(#b)"/>
        </g>
        <path stroke="#33475C" stroke-width="5" stroke-linecap="round" stroke-linejoin="round" d="M120.536 10.97L106.73 3l-13.806 7.97 13.806 7.972z"/>
        <path d="M93.924 10.97l12.807 7.395 12.806-7.394-12.805-7.393-12.806 7.394zm12.807 8.472c-.085 0-.172-.023-.25-.067l-13.806-7.97c-.154-.09-.25-.255-.25-.434 0-.178.096-.343.25-.432l13.807-7.97c.155-.09.346-.09.5 0l13.806 7.97c.155.09.25.254.25.433 0 .18-.095.345-.25.434l-13.805 7.97c-.077.045-.163.068-.25.068z" stroke="#33475C" stroke-width="5" stroke-linecap="round" stroke-linejoin="round"/>
        <path stroke="#33475C" stroke-width="5" stroke-linecap="round" stroke-linejoin="round" d="M92.924 10.97l13.806 7.972v87.68l-13.806-7.97z"/>
        <path d="M93.424 98.36l12.807 7.396V19.23l-12.806-7.393V98.36zm13.307 8.762c-.085 0-.172-.023-.25-.068l-13.806-7.97c-.154-.09-.25-.255-.25-.434V10.97c0-.178.096-.343.25-.432.154-.09.346-.09.5 0l13.807 7.97c.155.09.25.255.25.434v87.68c0 .178-.095.343-.25.432-.077.045-.163.068-.25.068z" stroke="#33475C" stroke-width="5" stroke-linecap="round" stroke-linejoin="round"/>
        <path stroke="#33475C" stroke-width="5" stroke-linecap="round" stroke-linejoin="round" d="M120.536 10.97l-13.806 7.972v87.68l13.806-7.97z"/>
        <path d="M107.23 19.23v86.525l12.806-7.394V11.838L107.23 19.23zm-.5 87.892c-.086 0-.173-.023-.25-.068-.154-.09-.25-.254-.25-.432v-87.68c0-.18.096-.344.25-.434l13.806-7.97c.154-.09.345-.09.5 0 .154.09.25.254.25.433v87.68c0 .18-.096.344-.25.433l-13.806 7.97c-.077.046-.164.07-.25.07z" stroke="#33475C" stroke-width="5" stroke-linecap="round" stroke-linejoin="round"/>
        <path stroke="#33475C" stroke-width="5" stroke-linecap="round" stroke-linejoin="round" d="M142.796 47.94l-13.806-7.97-13.806 7.97 13.806 7.972z"/>
        <path d="M116.184 47.94l12.806 7.395 12.805-7.394-12.805-7.393-12.806 7.394zm12.806 8.472c-.086 0-.173-.022-.25-.067l-13.806-7.97c-.154-.09-.25-.255-.25-.434 0-.178.096-.343.25-.432l13.806-7.97c.154-.09.345-.09.5 0l13.805 7.97c.155.09.25.255.25.433 0 .18-.095.345-.25.435l-13.805 7.97c-.077.045-.164.067-.25.067z" stroke="#33475C" stroke-width="5" stroke-linecap="round" stroke-linejoin="round"/>
        <path stroke="#33475C" stroke-width="5" stroke-linecap="round" stroke-linejoin="round" d="M115.184 47.94l13.806 7.972v63.767l-13.806-7.972z"/>
        <path d="M115.684 111.42l12.806 7.394V56.2l-12.806-7.393v62.612zm13.306 8.76c-.086 0-.173-.023-.25-.068l-13.806-7.97c-.154-.09-.25-.255-.25-.434V47.94c0-.178.096-.343.25-.432.154-.09.346-.09.5 0l13.806 7.97c.154.09.25.255.25.434v63.768c0 .178-.096.343-.25.432-.077.045-.164.068-.25.068z" stroke="#33475C" stroke-width="5" stroke-linecap="round" stroke-linejoin="round"/>
        <path stroke="#33475C" stroke-width="5" stroke-linecap="round" stroke-linejoin="round" d="M142.796 47.94l-13.806 7.972v63.767l13.806-7.972z"/>
        <path d="M129.49 56.2v62.613l12.806-7.395v-62.61L129.49 56.2zm-.5 63.98c-.086 0-.173-.023-.25-.068-.154-.09-.25-.254-.25-.433V55.91c0-.177.096-.342.25-.432l13.806-7.97c.154-.09.345-.09.5 0 .154.09.25.254.25.433v63.767c0 .18-.096.344-.25.433l-13.806 7.972c-.077.045-.164.067-.25.067z" stroke="#33475C" stroke-width="5" stroke-linecap="round" stroke-linejoin="round"/>
        <path stroke="#33475C" stroke-width="5" stroke-linecap="round" stroke-linejoin="round" d="M164.843 76.907l-13.806-7.97-13.806 7.97 13.807 7.97z"/>
        <path d="M138.23 76.906l12.807 7.394 12.805-7.394-12.805-7.394-12.807 7.394zm12.807 8.47c-.086 0-.173-.02-.25-.066l-13.807-7.97c-.154-.09-.25-.255-.25-.434 0-.178.096-.344.25-.433l13.807-7.97c.154-.09.345-.09.5 0l13.805 7.97c.155.09.25.255.25.433 0 .18-.095.344-.25.433l-13.805 7.97c-.078.046-.164.067-.25.067zm13.806 39.356l-13.806-7.97-13.806 7.97 13.807 7.97z" stroke="#33475C" stroke-width="5" stroke-linecap="round" stroke-linejoin="round"/>
        <path d="M138.23 124.732l12.807 7.394 12.805-7.394-12.805-7.394-12.807 7.394zm12.807 8.47c-.086 0-.173-.022-.25-.067l-13.807-7.97c-.154-.09-.25-.254-.25-.433 0-.18.096-.344.25-.433l13.807-7.97c.154-.09.345-.09.5 0l13.805 7.97c.155.088.25.253.25.432 0 .18-.095.344-.25.433l-13.805 7.97c-.078.045-.164.068-.25.068z" stroke="#33475C" stroke-width="5" stroke-linecap="round" stroke-linejoin="round"/>
        <path stroke="#33475C" stroke-width="5" stroke-linecap="round" stroke-linejoin="round" d="M137.23 76.907l13.807 7.97v47.826l-13.806-7.97z"/>
        <path d="M137.73 124.443l12.807 7.394v-46.67l-12.807-7.394v46.67zm13.307 8.76c-.086 0-.173-.023-.25-.068l-13.807-7.97c-.154-.09-.25-.254-.25-.433V76.906c0-.178.096-.343.25-.433.154-.09.346-.09.5 0l13.807 7.972c.154.09.25.254.25.433v47.825c0 .178-.096.344-.25.432-.078.045-.164.068-.25.068z" stroke="#33475C" stroke-width="5" stroke-linecap="round" stroke-linejoin="round"/>
        <path stroke="#33475C" stroke-width="5" stroke-linecap="round" stroke-linejoin="round" d="M164.843 76.907l-13.806 7.97v47.826l13.806-7.97z"/>
        <path d="M151.537 85.167v46.67l12.806-7.394v-46.67l-12.806 7.394zm-.5 48.036c-.086 0-.173-.022-.25-.067-.154-.09-.25-.254-.25-.433V84.878c0-.18.096-.344.25-.433l13.806-7.97c.154-.09.345-.09.5 0 .154.088.25.253.25.432v47.825c0 .18-.096.344-.25.433l-13.806 7.97c-.077.046-.164.068-.25.068z" stroke="#33475C" stroke-width="5" stroke-linecap="round" stroke-linejoin="round"/>
        <path fill="#E5F6F9" d="M120.536 10.97L106.73 3l-13.806 7.97 13.806 7.972"/>
        <path d="M93.924 10.97l12.807 7.395 12.806-7.394-12.805-7.393-12.806 7.394zm12.807 8.472c-.085 0-.172-.023-.25-.067l-13.806-7.97c-.154-.09-.25-.255-.25-.434 0-.178.096-.343.25-.432l13.807-7.97c.155-.09.346-.09.5 0l13.806 7.97c.155.09.25.254.25.433 0 .18-.095.345-.25.434l-13.805 7.97c-.077.045-.163.068-.25.068z" fill="#33475C"/>
        <path fill="#7CD1DF" d="M92.924 10.97l13.806 7.972v87.68l-13.806-7.97"/>
        <path d="M93.424 98.36l12.807 7.396V19.23l-12.806-7.393V98.36zm13.307 8.762c-.085 0-.172-.023-.25-.068l-13.806-7.97c-.154-.09-.25-.255-.25-.434V10.97c0-.178.096-.343.25-.432.154-.09.346-.09.5 0l13.807 7.97c.155.09.25.255.25.434v87.68c0 .178-.095.343-.25.432-.077.045-.163.068-.25.068z" fill="#33475C"/>
        <path fill="#40BBCE" d="M120.536 10.97l-13.806 7.972v87.68l13.806-7.97"/>
        <path d="M107.23 19.23v86.525l12.806-7.394V11.838L107.23 19.23zm-.5 87.892c-.086 0-.173-.023-.25-.068-.154-.09-.25-.254-.25-.432v-87.68c0-.18.096-.344.25-.434l13.806-7.97c.154-.09.345-.09.5 0 .154.09.25.254.25.433v87.68c0 .18-.096.344-.25.433l-13.806 7.97c-.077.046-.164.07-.25.07z" fill="#33475C"/>
        <path fill="#E4F9F7" d="M142.796 47.94l-13.806-7.97-13.806 7.97 13.806 7.972"/>
        <path d="M116.184 47.94l12.806 7.395 12.805-7.394-12.805-7.393-12.806 7.394zm12.806 8.472c-.086 0-.173-.022-.25-.067l-13.806-7.97c-.154-.09-.25-.255-.25-.434 0-.178.096-.343.25-.432l13.806-7.97c.154-.09.345-.09.5 0l13.805 7.97c.155.09.25.255.25.433 0 .18-.095.345-.25.435l-13.805 7.97c-.077.045-.164.067-.25.067z" fill="#33475C"/>
        <path fill="#7BDED2" d="M115.184 47.94l13.806 7.972v63.767l-13.806-7.972"/>
        <path d="M115.684 111.42l12.806 7.394V56.2l-12.806-7.393v62.612zm13.306 8.76c-.086 0-.173-.023-.25-.068l-13.806-7.97c-.154-.09-.25-.255-.25-.434V47.94c0-.178.096-.343.25-.432.154-.09.346-.09.5 0l13.806 7.97c.154.09.25.255.25.434v63.768c0 .178-.096.343-.25.432-.077.045-.164.068-.25.068z" fill="#33475C"/>
        <path fill="#40CEBB" d="M142.796 47.94l-13.806 7.972v63.767l13.806-7.972"/>
        <path d="M129.49 56.2v62.613l12.806-7.395v-62.61L129.49 56.2zm-.5 63.98c-.086 0-.173-.023-.25-.068-.154-.09-.25-.254-.25-.433V55.91c0-.177.096-.342.25-.432l13.806-7.97c.154-.09.345-.09.5 0 .154.09.25.254.25.433v63.767c0 .18-.096.344-.25.433l-13.806 7.972c-.077.045-.164.067-.25.067z" fill="#33475C"/>
        <path fill="#F0F1FA" d="M164.843 76.907l-13.806-7.97-13.806 7.97 13.807 7.97"/>
        <path d="M138.23 76.906l12.807 7.394 12.805-7.394-12.805-7.394-12.807 7.394zm12.807 8.47c-.086 0-.173-.02-.25-.066l-13.807-7.97c-.154-.09-.25-.255-.25-.434 0-.178.096-.344.25-.433l13.807-7.97c.154-.09.345-.09.5 0l13.805 7.97c.155.09.25.255.25.433 0 .18-.095.344-.25.433l-13.805 7.97c-.078.046-.164.067-.25.067z" fill="#33475C"/>
        <path fill="#E6EFF7" d="M164.843 124.732l-13.806-7.97-13.806 7.97 13.807 7.97"/>
        <path d="M138.23 124.732l12.807 7.394 12.805-7.394-12.805-7.394-12.807 7.394zm12.807 8.47c-.086 0-.173-.022-.25-.067l-13.807-7.97c-.154-.09-.25-.254-.25-.433 0-.18.096-.344.25-.433l13.807-7.97c.154-.09.345-.09.5 0l13.805 7.97c.155.088.25.253.25.432 0 .18-.095.344-.25.433l-13.805 7.97c-.078.045-.164.068-.25.068z" fill="#33475C"/>
        <path fill="#B4BAEB" d="M137.23 76.907l13.807 7.97v47.826l-13.806-7.97"/>
        <path d="M137.73 124.443l12.807 7.394v-46.67l-12.807-7.394v46.67zm13.307 8.76c-.086 0-.173-.023-.25-.068l-13.807-7.97c-.154-.09-.25-.254-.25-.433V76.906c0-.178.096-.343.25-.433.154-.09.346-.09.5 0l13.807 7.972c.154.09.25.254.25.433v47.825c0 .178-.096.344-.25.432-.078.045-.164.068-.25.068z" fill="#33475C"/>
        <path fill="#8E98DF" d="M164.843 76.907l-13.806 7.97v47.826l13.806-7.97"/>
        <path d="M151.537 85.167v46.67l12.806-7.394v-46.67l-12.806 7.394zm-.5 48.036c-.086 0-.173-.022-.25-.067-.154-.09-.25-.254-.25-.433V84.878c0-.18.096-.344.25-.433l13.806-7.97c.154-.09.345-.09.5 0 .154.088.25.253.25.432v47.825c0 .18-.096.344-.25.433l-13.806 7.97c-.077.046-.164.068-.25.068z" fill="#33475C"/>
        <path d="M68.95 147.93l13.205-16.51-26.534 10.022c3.416 2.808 8.05 5.034 13.33 6.487z" stroke="#33475C" stroke-width="5" stroke-linecap="round" stroke-linejoin="round"/>
        <path d="M56.622 141.597c3.177 2.426 7.35 4.407 12.146 5.762l11.857-14.827-24.003 9.064zm12.33 6.832c-.045 0-.09-.007-.134-.02-5.417-1.49-10.09-3.766-13.515-6.584-.138-.113-.205-.29-.176-.466.03-.177.15-.324.316-.387l26.534-10.02c.21-.08.45-.01.582.173.13.182.125.43-.015.607l-13.203 16.51c-.097.12-.24.186-.39.186zm45.72-17.009l-.034.032c.514 7.34-6.804 14.105-18.768 16.97v15.453c11.98-2.87 19.306-9.65 18.768-17.003l.034-15.45z" stroke="#33475C" stroke-width="5" stroke-linecap="round" stroke-linejoin="round"/>
        <path d="M96.37 148.816v14.42c11.332-2.88 18.287-9.247 17.77-16.328l.02-10.083c-2.362 5.32-8.767 9.75-17.79 11.99zm-.5 15.56c-.11 0-.22-.04-.31-.11-.12-.094-.19-.238-.19-.39v-15.453c0-.23.158-.432.384-.486 11.673-2.797 18.89-9.254 18.385-16.45-.012-.152.047-.3.16-.404.145-.133.376-.186.556-.104.182.08.316.243.316.44l-.034 15.453c.563 7.685-6.954 14.564-19.152 17.488-.038.01-.077.015-.116.015zM82.154 131.42L68.95 147.93v15.45l13.204-16.227z" stroke="#33475C" stroke-width="5" stroke-linecap="round" stroke-linejoin="round"/>
        <path d="M69.45 148.105v13.87l12.204-15v-14.13l-12.204 15.26zm-.5 15.776c-.056 0-.112-.008-.167-.028-.2-.07-.333-.26-.333-.47V147.93c0-.114.04-.224.11-.313l13.203-16.51c.133-.165.36-.23.556-.158.2.07.334.26.334.47v15.733c0 .115-.04.226-.112.315l-13.204 16.23c-.097.118-.24.183-.388.183z" stroke="#33475C" stroke-width="5" stroke-linecap="round" stroke-linejoin="round"/>
        <path stroke="#33475C" stroke-width="5" stroke-linecap="round" stroke-linejoin="round" d="M82.41 147.407l13.46 16.41v-15.945l-13.46-16.2z"/>
        <path d="M82.91 147.228l12.46 15.19v-14.366l-12.46-14.997v14.173zm12.96 17.09c-.147 0-.29-.066-.387-.184l-13.46-16.41c-.073-.09-.113-.202-.113-.317V131.67c0-.21.132-.397.33-.47.198-.07.42-.01.555.152l13.46 16.2c.074.09.115.202.115.32v15.945c0 .21-.133.4-.332.47-.055.02-.11.03-.168.03z" stroke="#33475C" stroke-width="5" stroke-linecap="round" stroke-linejoin="round"/>
        <path d="M51.057 136.067c1.042 1.96 2.604 3.762 4.563 5.374l26.534-10.02-23.052-13.513c-8.16 4.465-11.658 11.364-8.045 18.16z" stroke="#33475C" stroke-width="5" stroke-linecap="round" stroke-linejoin="round"/>
        <path d="M59.095 118.482c-8.002 4.48-10.913 11.11-7.596 17.35.947 1.783 2.365 3.476 4.216 5.04l25.282-9.55-21.903-12.84zm-3.475 23.46c-.114 0-.226-.04-.317-.115-2.063-1.697-3.64-3.556-4.687-5.526-3.637-6.84-.478-14.057 8.246-18.832.156-.083.34-.082.493.007l23.052 13.514c.167.096.262.28.246.472-.016.193-.142.358-.322.426l-26.533 10.02c-.057.022-.117.033-.177.033z" stroke="#33475C" stroke-width="5" stroke-linecap="round" stroke-linejoin="round"/>
        <path d="M113.25 126.775c-5.233-9.845-23.398-15.746-40.573-13.18-5.318.795-9.915 2.31-13.575 4.312l23.052 13.514 31.89 4.318c1.013-2.857.825-5.92-.793-8.963z" stroke="#33475C" stroke-width="5" stroke-linecap="round" stroke-linejoin="round"/>
        <path d="M82.32 130.938l31.38 4.248c.852-2.712.554-5.46-.89-8.178-5.135-9.656-23.104-15.446-40.058-12.92-4.714.705-9.057 2.03-12.622 3.842l22.19 13.008zm31.723 5.3c-.023 0-.045-.002-.068-.006l-31.888-4.316c-.066-.01-.128-.03-.186-.064L58.85 118.338c-.155-.09-.25-.258-.247-.44.004-.18.103-.344.26-.43 3.81-2.083 8.562-3.593 13.743-4.368 17.34-2.59 35.773 3.438 41.09 13.44 1.625 3.058 1.91 6.296.82 9.364-.07.202-.26.333-.47.333z" stroke="#33475C" stroke-width="5" stroke-linecap="round" stroke-linejoin="round"/>
        <path d="M95.87 148.423c9.584-2.296 16.188-7.094 18.173-12.686l-31.89-4.316 13.717 16.51v.493z" stroke="#33475C" stroke-width="5" stroke-linecap="round" stroke-linejoin="round"/>
        <path d="M83.36 132.09l12.895 15.52c.043.053.076.115.095.18 8.563-2.175 14.834-6.476 16.998-11.642l-29.99-4.06zm12.51 16.834c-.112 0-.22-.037-.31-.107-.12-.095-.19-.24-.19-.393v-.314l-13.6-16.37c-.133-.158-.153-.38-.054-.56.1-.18.3-.278.505-.254l31.89 4.316c.15.02.28.107.36.235.077.13.094.286.043.427-2.08 5.864-9.008 10.726-18.527 13.006-.038.01-.077.014-.116.014zm-40.25 7.972c3.416 2.808 8.05 5.034 13.33 6.486V147.93c-5.28-1.453-9.915-3.68-13.33-6.49v15.456z" stroke="#33475C" stroke-width="5" stroke-linecap="round" stroke-linejoin="round"/>
        <path d="M56.12 156.658c3.166 2.55 7.413 4.638 12.33 6.062v-14.41c-4.845-1.375-9.077-3.38-12.33-5.84v14.188zm12.83 7.224c-.044 0-.09-.006-.133-.018-5.416-1.49-10.09-3.767-13.514-6.583-.116-.094-.183-.235-.183-.385V141.44c0-.192.11-.368.286-.45.176-.084.383-.058.53.065 3.32 2.728 7.864 4.938 13.147 6.392.217.06.367.258.367.482v15.452c0 .156-.073.302-.197.397-.088.066-.195.102-.303.102z" stroke="#33475C" stroke-width="5" stroke-linecap="round" stroke-linejoin="round"/>
        <path d="M55.62 141.44c-1.96-1.61-3.52-3.412-4.563-5.373-.85-1.6-1.3-3.207-1.395-4.786v14.188c-.124 1.98.31 4.02 1.39 6.05 1.044 1.962 2.607 3.765 4.568 5.378V141.44z" stroke="#33475C" stroke-width="5" stroke-linecap="round" stroke-linejoin="round"/>
        <path d="M50.162 135.364v10.104c-.123 1.977.326 3.922 1.333 5.816.844 1.587 2.06 3.104 3.625 4.52v-14.128c-1.974-1.656-3.488-3.463-4.504-5.375-.165-.31-.316-.622-.454-.936zm5.458 22.03c-.113 0-.227-.038-.317-.113-2.065-1.696-3.643-3.556-4.69-5.527-1.096-2.06-1.584-4.184-1.45-6.316V131.28c0-.27.214-.49.484-.5.285-.02.498.2.514.47.094 1.545.544 3.086 1.34 4.583.983 1.852 2.476 3.61 4.437 5.222.116.095.183.237.183.386v15.455c0 .194-.11.37-.286.452-.068.033-.142.048-.214.048z" stroke="#33475C" stroke-width="5" stroke-linecap="round" stroke-linejoin="round"/>
        <path d="M68.95 147.93l13.205-16.51-26.534 10.022c3.416 2.808 8.05 5.034 13.33 6.487" fill="#F9AABE"/>
        <path d="M56.622 141.597c3.177 2.426 7.35 4.407 12.146 5.762l11.857-14.827-24.003 9.064zm12.33 6.832c-.045 0-.09-.007-.134-.02-5.417-1.49-10.09-3.766-13.515-6.584-.138-.113-.205-.29-.176-.466.03-.177.15-.324.316-.387l26.534-10.02c.21-.08.45-.01.582.173.13.182.125.43-.015.607l-13.203 16.51c-.097.12-.24.186-.39.186z" fill="#555"/>
        <path d="M114.672 131.42l-.034.032c.514 7.34-6.804 14.105-18.768 16.97v15.453c11.98-2.87 19.306-9.65 18.768-17.003l.034-15.45z" fill="#8E98DF"/>
        <path d="M96.37 148.816v14.42c11.332-2.88 18.287-9.247 17.77-16.328l.02-10.083c-2.362 5.32-8.767 9.75-17.79 11.99m-.5 15.56c-.11 0-.22-.038-.31-.108-.12-.095-.19-.24-.19-.392v-15.452c0-.23.158-.432.384-.486 11.673-2.797 18.89-9.254 18.385-16.45-.012-.152.047-.3.16-.404.145-.133.376-.186.556-.104.182.08.316.243.316.44l-.034 15.453c.563 7.685-6.954 14.564-19.152 17.488-.038.01-.077.015-.116.015" fill="#33475C"/>
        <path fill="#F87B9D" d="M82.154 131.42L68.95 147.93v15.45l13.204-16.227"/>
        <path d="M69.45 148.105v13.87l12.204-15v-14.13l-12.204 15.26zm-.5 15.776c-.056 0-.112-.008-.167-.028-.2-.07-.333-.26-.333-.47V147.93c0-.114.04-.224.11-.313l13.203-16.51c.133-.165.36-.23.556-.158.2.07.334.26.334.47v15.733c0 .115-.04.226-.112.315l-13.204 16.23c-.097.118-.24.183-.388.183z" fill="#33475C"/>
        <path fill="#8E98DF" d="M82.41 147.407l13.46 16.41v-15.945l-13.46-16.2"/>
        <path d="M82.91 147.228l12.46 15.19v-14.366l-12.46-14.997v14.173zm12.96 17.09c-.147 0-.29-.066-.387-.184l-13.46-16.41c-.073-.09-.113-.202-.113-.317V131.67c0-.21.132-.397.33-.47.198-.07.42-.01.555.152l13.46 16.2c.074.09.115.202.115.32v15.945c0 .21-.133.4-.332.47-.055.02-.11.03-.168.03z" fill="#33475C"/>
        <path d="M51.057 136.067c1.042 1.96 2.604 3.762 4.563 5.374l26.534-10.02-23.052-13.513c-8.16 4.465-11.658 11.364-8.045 18.16" fill="#80DDD2"/>
        <path d="M59.095 118.482c-8.002 4.48-10.913 11.11-7.596 17.35.947 1.783 2.365 3.476 4.216 5.04l25.282-9.55-21.903-12.84zm-3.475 23.46c-.114 0-.226-.04-.317-.115-2.063-1.697-3.64-3.556-4.687-5.526-3.637-6.84-.478-14.057 8.246-18.832.156-.083.34-.082.493.007l23.052 13.514c.167.096.262.28.246.472-.016.193-.142.358-.322.426l-26.533 10.02c-.057.022-.117.033-.177.033z" fill="#555"/>
        <path d="M113.25 126.775c-5.233-9.845-23.398-15.746-40.573-13.18-5.318.795-9.915 2.31-13.575 4.312l23.052 13.514 31.89 4.318c1.013-2.857.825-5.92-.793-8.963" fill="#FAE0B5"/>
        <path d="M82.32 130.938l31.38 4.248c.852-2.712.554-5.46-.89-8.178-5.135-9.656-23.104-15.446-40.058-12.92-4.714.705-9.057 2.03-12.622 3.842l22.19 13.008zm31.723 5.3c-.023 0-.045-.002-.068-.006l-31.888-4.316c-.066-.01-.128-.03-.186-.064L58.85 118.338c-.155-.09-.25-.258-.247-.44.004-.18.103-.344.26-.43 3.81-2.083 8.562-3.593 13.743-4.368 17.34-2.59 35.773 3.438 41.09 13.44 1.625 3.058 1.91 6.296.82 9.364-.07.202-.26.333-.47.333z" fill="#555"/>
        <path d="M95.87 148.423c9.584-2.296 16.188-7.094 18.173-12.686l-31.89-4.316 13.717 16.51v.493z" fill="#B4BBE8"/>
        <path d="M83.36 132.09l12.895 15.52c.043.053.076.115.095.18 8.563-2.175 14.834-6.476 16.998-11.642l-29.99-4.06zm12.51 16.834c-.112 0-.22-.037-.31-.107-.12-.095-.19-.24-.19-.393v-.314l-13.6-16.37c-.133-.158-.153-.38-.054-.56.1-.18.3-.278.505-.254l31.89 4.316c.15.02.28.107.36.235.077.13.094.286.043.427-2.08 5.864-9.008 10.726-18.527 13.006-.038.01-.077.014-.116.014z" fill="#555"/>
        <path d="M55.62 156.896c3.416 2.808 8.05 5.034 13.33 6.486V147.93c-5.28-1.453-9.915-3.68-13.33-6.49v15.456z" fill="#F87B9D"/>
        <path d="M56.12 156.658c3.166 2.55 7.413 4.638 12.33 6.062v-14.41c-4.845-1.375-9.077-3.38-12.33-5.84v14.188zm12.83 7.224c-.044 0-.09-.006-.133-.018-5.416-1.49-10.09-3.767-13.514-6.583-.116-.094-.183-.235-.183-.385V141.44c0-.192.11-.368.286-.45.176-.084.383-.058.53.065 3.32 2.728 7.864 4.938 13.147 6.392.217.06.367.258.367.482v15.452c0 .156-.073.302-.197.397-.088.066-.195.102-.303.102z" fill="#33475C"/>
        <path d="M55.62 141.44c-1.96-1.61-3.52-3.412-4.563-5.373-.85-1.6-1.3-3.207-1.395-4.786v14.188c-.124 1.98.31 4.02 1.39 6.05 1.044 1.962 2.607 3.765 4.568 5.378V141.44z" fill="#40CEBB"/>
        <path d="M50.162 135.364v10.104c-.123 1.977.326 3.922 1.333 5.816.844 1.587 2.06 3.104 3.625 4.52v-14.128c-1.974-1.656-3.488-3.463-4.504-5.375-.165-.31-.316-.622-.454-.936m5.458 22.03c-.113 0-.227-.038-.317-.113-2.065-1.696-3.643-3.556-4.69-5.527-1.096-2.06-1.584-4.184-1.45-6.316V131.28c0-.27.214-.49.484-.5.285-.02.498.2.514.47.094 1.545.544 3.086 1.34 4.583.983 1.852 2.476 3.61 4.437 5.222.116.095.183.237.183.386v15.455c0 .194-.11.37-.286.452-.068.033-.142.048-.214.048" fill="#33475C"/>
        <path fill="#FF8F52" opacity=".2" d="M66.443 84.997L9.677 117.31V56.73l56.766-32.312"/>
        <path d="M10.477 57.35l6.792 4.068" fill="#FFF"/>
        <path d="M17.268 61.92c-.088 0-.177-.024-.257-.072l-6.79-4.07c-.238-.14-.315-.447-.173-.684.143-.238.45-.314.686-.172l6.792 4.068c.237.142.314.45.172.686-.094.157-.26.243-.43.243" fill="#2E3E4F"/>
        <path d="M66.41 24.59l6.793 4.067" fill="#FFF"/>
        <path d="M73.203 29.157c-.088 0-.177-.023-.257-.07l-6.792-4.07c-.237-.14-.314-.448-.172-.685.142-.24.45-.315.686-.172l6.792 4.068c.237.142.314.45.172.686-.094.157-.26.243-.43.243" fill="#2E3E4F"/>
        <path d="M76.84 90.543c-.028-.033-.05-.07-.076-.106-.04-.06-.078-.114-.112-.168-.075-.115-.146-.234-.21-.36-.048-.094-.074-.154-.074-.154l.002-.002c-.277-.615-.435-1.354-.435-2.223V30.166L19.17 62.477v57.827c0 4.065 3.294 5.458 7.36 3.11L75.934 94.89l4.4-2.54c-1.815.037-2.927-1.03-3.496-1.807z" stroke="#33475C" stroke-width="5" stroke-linecap="round" stroke-linejoin="round"/>
        <path d="M19.67 62.767v57.537c0 1.583.547 2.772 1.543 3.347 1.243.72 3.09.472 5.066-.668l52.565-30.35c-.936-.303-1.764-.913-2.41-1.794l-.056-.08-.15-.22c-.082-.126-.16-.26-.233-.4-.056-.112-.086-.18-.086-.18-.006-.015-.012-.03-.016-.046-.305-.697-.46-1.498-.46-2.382V31.025L19.67 62.767zm3.177 62.285c-.79 0-1.514-.178-2.134-.535-1.318-.762-2.044-2.258-2.044-4.213V62.476c0-.18.096-.345.252-.434L75.688 29.73c.154-.088.345-.088.498.003.154.09.25.254.25.432V87.53c0 .76.13 1.44.39 2.018l.015.037.05.1c.054.107.116.21.18.31l.103.154-.334.392.402-.296c.548.75 1.495 1.65 3.083 1.603.252-.002.43.146.49.364.063.22-.033.454-.23.568L26.78 123.847c-1.383.8-2.736 1.205-3.933 1.205z" stroke="#33475C" stroke-width="5" stroke-linecap="round" stroke-linejoin="round"/>
        <path d="M68.054 88.857V48.724L56.6 84.178 38.24 73.78l-11.88 36.824v5.727s-.435 4.93 3.1 4.692L72.744 96.03c-1.84-.048-4.69-1.098-4.69-7.173zm3.432-33.211l-.494-.87.87-.494.493.87z" stroke="#33475C" stroke-width="5" stroke-linecap="round" stroke-linejoin="round"/>
        <path d="M68.097 57.575l-.493-.87 1.694-.963.493.87-1.693.963zm-3.387 1.93l-.494-.87 1.694-.965.495.87-1.695.964zm-3.388 1.927l-.495-.87 1.695-.964.494.87-1.694.964zm-3.39 1.93l-.492-.87 1.694-.965.493.87-1.694.964zm-3.387 1.927l-.494-.87 1.695-.964.495.87-1.695.963zm-3.388 1.928l-.494-.87 1.695-.964.494.87-1.694.964zm-3.387 1.928l-.495-.87 1.694-.963.492.87-1.693.963zm-3.39 1.93l-.494-.87 1.694-.964.495.87-1.695.963zm-3.387 1.927l-.495-.87 1.695-.963.494.87-1.694.963zm-3.39 1.93l-.492-.87 1.694-.965.494.87-1.694.964zm-3.386 1.928l-.495-.868 1.694-.965.495.87-1.693.964zm-3.39 1.93l-.494-.87 1.696-.964.492.87-1.694.963zm-3.387 1.928l-.494-.87 1.694-.964.494.87-1.694.964zm-2.562 1.459l-.494-.87.87-.495.493.87zm46.558-5.727l-.494-.87.87-.494.493.87zm-3.384 1.927l-.494-.87 1.692-.963.494.87-1.692.963zm-3.384 1.926l-.494-.87 1.69-.962.496.87-1.692.963zm-3.385 1.927l-.494-.87 1.692-.962.494.87-1.693.962zM57.9 84.156l-.495-.87 1.692-.962.494.87-1.69.962zm-3.385 1.927l-.494-.87 1.692-.962.494.87-1.69.963zM51.13 88.01l-.494-.87 1.692-.963.495.87-1.693.962zm-3.385 1.926l-.494-.87 1.694-.963.494.87-1.693.963zm-3.383 1.926l-.495-.87 1.693-.962.494.87-1.692.962zm-3.385 1.927l-.494-.87 1.692-.963.494.87-1.693.962zm-3.385 1.925l-.494-.87 1.692-.963.494.87-1.692.963zm-3.384 1.926l-.494-.868 1.692-.963.495.868-1.692.963zm-3.385 1.928l-.494-.87 1.692-.962.494.87-1.693.962zm-3.384 1.927l-.495-.87 1.692-.963.494.87-1.69.963zm-2.561 1.457l-.494-.87.87-.493.493.868z" stroke="#33475C" stroke-width="5" stroke-linecap="round" stroke-linejoin="round"/>
        <path d="M29.096 112.25c-1.484 2.504-3.65 2.675-4.835.38s-.943-6.186.54-8.69c1.485-2.506 3.65-2.676 4.836-.382 1.186 2.295.944 6.186-.54 8.69z" stroke="#33475C" stroke-width="5" stroke-linecap="round" stroke-linejoin="round"/>
        <path d="M27.48 102.693c-.67 0-1.428.605-2.033 1.628-1.342 2.266-1.58 5.913-.52 7.966.395.763.912 1.193 1.456 1.21.68-.025 1.452-.59 2.068-1.63 1.343-2.264 1.58-5.91.52-7.964-.395-.764-.913-1.193-1.457-1.21h-.032zm-1.064 12.302h-.076c-1.114-.033-2.09-.75-2.746-2.02-1.31-2.538-1.064-6.675.562-9.42.91-1.536 2.143-2.42 3.4-2.36 1.114.03 2.09.748 2.746 2.02 1.312 2.537 1.065 6.673-.56 9.416-.894 1.507-2.102 2.365-3.326 2.365zm11.116-40.567L26.948 108.08" stroke="#33475C" stroke-width="5" stroke-linecap="round" stroke-linejoin="round"/>
        <path d="M26.95 108.83c-.075 0-.15-.01-.226-.034-.395-.125-.615-.546-.49-.94l10.582-33.652c.125-.395.545-.618.94-.49.396.123.616.545.492.94l-10.583 33.65c-.102.32-.397.526-.716.526z" stroke="#33475C" stroke-width="5" stroke-linecap="round" stroke-linejoin="round"/>
        <path d="M40.43 77.038c-1.263 2.895-3.468 3.857-4.926 2.15-1.458-1.71-1.616-5.44-.354-8.335 1.263-2.895 3.468-3.857 4.926-2.15 1.458 1.71 1.617 5.44.354 8.335z" stroke="#33475C" stroke-width="5" stroke-linecap="round" stroke-linejoin="round"/>
        <path d="M38.418 68.61c-.06 0-.12.004-.18.013-.855.127-1.775 1.096-2.4 2.53-1.138 2.608-1.03 6.064.236 7.547.38.446.8.633 1.27.57.853-.128 1.773-1.098 2.398-2.532 1.138-2.608 1.03-6.064-.236-7.547-.33-.386-.695-.58-1.088-.58zm-1.26 12.172c-.828 0-1.606-.384-2.224-1.108-1.652-1.934-1.86-5.94-.47-9.12.854-1.962 2.15-3.206 3.553-3.415.975-.15 1.912.236 2.63 1.077 1.65 1.934 1.858 5.94.47 9.12-.855 1.962-2.15 3.207-3.553 3.415-.136.02-.27.03-.405.03zm1.082-7.002l18.36 10.4" stroke="#33475C" stroke-width="5" stroke-linecap="round" stroke-linejoin="round"/>
        <path d="M56.599 84.927c-.127 0-.254-.03-.37-.098L37.873 74.432c-.36-.204-.487-.662-.283-1.022.202-.358.66-.484 1.02-.28l18.36 10.393c.36.204.487.66.283 1.02-.136.245-.39.382-.65.382z" stroke="#33475C" stroke-width="5" stroke-linecap="round" stroke-linejoin="round"/>
        <path d="M58.747 87.893c-1.484 2.505-3.65 2.676-4.835.38-1.186-2.294-.944-6.185.54-8.69s3.65-2.675 4.835-.38c1.186 2.294.944 6.185-.54 8.69z" stroke="#33475C" stroke-width="5" stroke-linecap="round" stroke-linejoin="round"/>
        <path d="M57.133 78.337c-.67 0-1.43.606-2.035 1.63-1.342 2.264-1.58 5.91-.52 7.962.396.763.913 1.193 1.457 1.21.712.022 1.452-.59 2.067-1.63 1.343-2.265 1.58-5.91.52-7.963-.395-.764-.913-1.194-1.457-1.21h-.032zM56.068 90.64c-.026 0-.05 0-.076-.002-1.114-.03-2.088-.75-2.746-2.02-1.31-2.537-1.064-6.673.56-9.417.91-1.535 2.123-2.38 3.402-2.362 1.114.032 2.09.75 2.746 2.02 1.31 2.537 1.065 6.673-.56 9.417-.894 1.507-2.102 2.365-3.326 2.365zm.532-6.462l11.423-35.013" stroke="#33475C" stroke-width="5" stroke-linecap="round" stroke-linejoin="round"/>
        <path d="M56.6 84.927c-.078 0-.156-.012-.233-.037-.393-.127-.61-.552-.48-.945l11.422-35.012c.13-.395.552-.61.944-.48.394.127.61.55.48.944L57.316 84.41c-.105.317-.398.517-.715.517z" stroke="#33475C" stroke-width="5" stroke-linecap="round" stroke-linejoin="round"/>
        <path d="M70.202 52.88c-1.484 2.504-3.65 2.675-4.835.38-1.186-2.295-.944-6.186.54-8.69 1.484-2.506 3.65-2.676 4.835-.382 1.186 2.295.944 6.186-.54 8.69z" stroke="#33475C" stroke-width="5" stroke-linecap="round" stroke-linejoin="round"/>
        <path d="M70.202 52.88h.01-.01zm-1.614-9.557c-.67 0-1.43.605-2.035 1.628-1.343 2.266-1.58 5.914-.52 7.966.395.763.912 1.193 1.456 1.21.658.012 1.45-.59 2.066-1.63 1.342-2.264 1.58-5.91.52-7.964-.395-.763-.913-1.193-1.457-1.21h-.032zm-1.066 12.302h-.076c-1.114-.033-2.09-.75-2.745-2.02-1.31-2.537-1.064-6.674.562-9.418.91-1.537 2.196-2.38 3.4-2.363 1.114.032 2.09.75 2.746 2.02 1.312 2.537 1.065 6.674-.56 9.417-.893 1.508-2.102 2.365-3.326 2.365z" stroke="#33475C" stroke-width="5" stroke-linecap="round" stroke-linejoin="round"/>
        <path d="M76.84 90.543c-.028-.033-.05-.07-.076-.106-.04-.06-.078-.114-.112-.168-.075-.115-.146-.234-.21-.36-.048-.094-.074-.154-.074-.154l.002-.002c-.277-.615-.435-1.354-.435-2.223V30.166L19.17 62.477v57.827c0 4.065 3.294 5.458 7.36 3.11L75.934 94.89l4.4-2.54c-1.815.037-2.927-1.03-3.496-1.807" fill="#FFF"/>
        <path d="M19.67 62.767v57.537c0 1.583.547 2.772 1.543 3.347 1.243.72 3.09.472 5.066-.668l52.565-30.35c-.936-.303-1.764-.913-2.41-1.794l-.056-.08-.15-.22c-.082-.126-.16-.26-.233-.4-.056-.112-.086-.18-.086-.18-.006-.015-.012-.03-.016-.046-.305-.697-.46-1.498-.46-2.382V31.025L19.67 62.767zm3.177 62.285c-.79 0-1.514-.178-2.134-.535-1.318-.762-2.044-2.258-2.044-4.213V62.476c0-.18.096-.345.252-.434L75.688 29.73c.154-.088.345-.088.498.003.154.09.25.254.25.432V87.53c0 .76.13 1.44.39 2.018l.015.037.05.1c.054.107.116.21.18.31l.103.154-.334.392.402-.296c.548.75 1.495 1.65 3.083 1.603.252-.002.43.146.49.364.063.22-.033.454-.23.568L26.78 123.847c-1.383.8-2.736 1.205-3.933 1.205z" fill="#33475C"/>
        <path d="M68.054 88.857V48.724L56.6 84.178 38.24 73.78l-11.88 36.824v5.727s-.435 4.93 3.1 4.692L72.744 96.03c-1.84-.048-4.69-1.098-4.69-7.173" fill="#F4F2F9"/>
        <path fill="#E0E6EE" d="M71.486 55.646l-.494-.87.87-.494.493.87m-4.258 2.423l-.493-.87 1.694-.963.493.87-1.693.963zm-3.387 1.93l-.494-.87 1.694-.965.495.87-1.695.964zm-3.388 1.927l-.495-.87 1.695-.964.494.87-1.694.964zm-3.39 1.93l-.492-.87 1.694-.965.493.87-1.694.964zm-3.387 1.927l-.494-.87 1.695-.964.495.87-1.695.963zm-3.388 1.928l-.494-.87 1.695-.964.494.87-1.694.964zm-3.387 1.928l-.495-.87 1.694-.963.492.87-1.693.963zm-3.39 1.93l-.494-.87 1.694-.964.495.87-1.695.963zm-3.387 1.927l-.495-.87 1.695-.963.494.87-1.694.963zm-3.39 1.93l-.492-.87 1.694-.965.494.87-1.694.964zm-3.386 1.928l-.495-.868 1.694-.965.495.87-1.693.964zm-3.39 1.93l-.494-.87 1.696-.964.492.87-1.694.963zm-3.387 1.928l-.494-.87 1.694-.964.494.87-1.694.964zm-2.562 1.459l-.494-.87.87-.495.493.87m45.689-5.232l-.494-.87.87-.494.493.87m-4.253 2.421l-.494-.87 1.692-.963.494.87-1.692.963zm-3.384 1.926l-.494-.87 1.69-.962.496.87-1.692.963zm-3.385 1.927l-.494-.87 1.692-.962.494.87-1.693.962zM57.9 84.156l-.495-.87 1.692-.962.494.87-1.69.962zm-3.385 1.927l-.494-.87 1.692-.962.494.87-1.69.963zM51.13 88.01l-.494-.87 1.692-.963.495.87-1.693.962zm-3.385 1.926l-.494-.87 1.694-.963.494.87-1.693.963zm-3.383 1.926l-.495-.87 1.693-.962.494.87-1.692.962zm-3.385 1.927l-.494-.87 1.692-.963.494.87-1.693.962zm-3.385 1.925l-.494-.87 1.692-.963.494.87-1.692.963zm-3.384 1.926l-.494-.868 1.692-.963.495.868-1.692.963zm-3.385 1.928l-.494-.87 1.692-.962.494.87-1.693.962zm-3.384 1.927l-.495-.87 1.692-.963.494.87-1.69.963zm-2.561 1.457l-.494-.87.87-.493.493.868"/>
        <path d="M29.096 112.25c-1.484 2.504-3.65 2.675-4.835.38s-.943-6.186.54-8.69c1.485-2.506 3.65-2.676 4.836-.382 1.186 2.295.944 6.186-.54 8.69" fill="#FFF"/>
        <path d="M27.48 102.693c-.67 0-1.428.605-2.033 1.628-1.342 2.266-1.58 5.913-.52 7.966.395.763.912 1.193 1.456 1.21.68-.025 1.452-.59 2.068-1.63 1.343-2.264 1.58-5.91.52-7.964-.395-.764-.913-1.193-1.457-1.21h-.032zm-1.064 12.302h-.076c-1.114-.033-2.09-.75-2.746-2.02-1.31-2.538-1.064-6.675.562-9.42.91-1.536 2.143-2.42 3.4-2.36 1.114.03 2.09.748 2.746 2.02 1.312 2.537 1.065 6.673-.56 9.416-.894 1.507-2.102 2.365-3.326 2.365z" fill="#9782C4"/>
        <path d="M37.532 74.428L26.948 108.08" fill="#FFF"/>
        <path d="M26.95 108.83c-.075 0-.15-.01-.226-.034-.395-.125-.615-.546-.49-.94l10.582-33.652c.125-.395.545-.618.94-.49.396.123.616.545.492.94l-10.583 33.65c-.102.32-.397.526-.716.526" fill="#9782C4"/>
        <path d="M40.43 77.038c-1.263 2.895-3.468 3.857-4.926 2.15-1.458-1.71-1.616-5.44-.354-8.335 1.263-2.895 3.468-3.857 4.926-2.15 1.458 1.71 1.617 5.44.354 8.335" fill="#FFF"/>
        <path d="M38.418 68.61c-.06 0-.12.004-.18.013-.855.127-1.775 1.096-2.4 2.53-1.138 2.608-1.03 6.064.236 7.547.38.446.8.633 1.27.57.853-.128 1.773-1.098 2.398-2.532 1.138-2.608 1.03-6.064-.236-7.547-.33-.386-.695-.58-1.088-.58m-1.26 12.172c-.828 0-1.606-.384-2.224-1.108-1.652-1.934-1.86-5.94-.47-9.12.854-1.962 2.15-3.206 3.553-3.415.975-.15 1.912.236 2.63 1.077 1.65 1.934 1.858 5.94.47 9.12-.855 1.962-2.15 3.207-3.553 3.415-.136.02-.27.03-.405.03" fill="#9782C4"/>
        <path d="M38.24 73.78l18.36 10.4" fill="#FFF"/>
        <path d="M56.599 84.927c-.127 0-.254-.03-.37-.098L37.873 74.432c-.36-.204-.487-.662-.283-1.022.202-.358.66-.484 1.02-.28l18.36 10.393c.36.204.487.66.283 1.02-.136.245-.39.382-.65.382" fill="#9782C4"/>
        <path d="M58.747 87.893c-1.484 2.505-3.65 2.676-4.835.38-1.186-2.294-.944-6.185.54-8.69s3.65-2.675 4.835-.38c1.186 2.294.944 6.185-.54 8.69" fill="#FFF"/>
        <path d="M57.133 78.337c-.67 0-1.43.606-2.035 1.63-1.342 2.264-1.58 5.91-.52 7.962.396.763.913 1.193 1.457 1.21.712.022 1.452-.59 2.067-1.63 1.343-2.265 1.58-5.91.52-7.963-.395-.764-.913-1.194-1.457-1.21h-.032M56.068 90.64c-.026 0-.05 0-.076-.002-1.114-.03-2.088-.75-2.746-2.02-1.31-2.537-1.064-6.673.56-9.417.91-1.535 2.123-2.38 3.402-2.362 1.114.032 2.09.75 2.746 2.02 1.31 2.537 1.065 6.673-.56 9.417-.894 1.507-2.102 2.365-3.326 2.365" fill="#9782C4"/>
        <path d="M56.6 84.178l11.423-35.013" fill="#FFF"/>
        <path d="M56.6 84.927c-.078 0-.156-.012-.233-.037-.393-.127-.61-.552-.48-.945l11.422-35.012c.13-.395.552-.61.944-.48.394.127.61.55.48.944L57.316 84.41c-.105.317-.398.517-.715.517" fill="#9782C4"/>
        <path d="M70.202 52.88c-1.484 2.504-3.65 2.675-4.835.38-1.186-2.295-.944-6.186.54-8.69 1.484-2.506 3.65-2.676 4.835-.382 1.186 2.295.944 6.186-.54 8.69" fill="#FFF"/>
        <path d="M70.202 52.88h.01-.01zm-1.614-9.557c-.67 0-1.43.605-2.035 1.628-1.343 2.266-1.58 5.914-.52 7.966.395.763.912 1.193 1.456 1.21.658.012 1.45-.59 2.066-1.63 1.342-2.264 1.58-5.91.52-7.964-.395-.763-.913-1.193-1.457-1.21h-.032zm-1.066 12.302h-.076c-1.114-.033-2.09-.75-2.745-2.02-1.31-2.537-1.064-6.674.562-9.418.91-1.537 2.196-2.38 3.4-2.363 1.114.032 2.09.75 2.746 2.02 1.312 2.537 1.065 6.674-.56 9.417-.893 1.508-2.102 2.365-3.326 2.365z" fill="#9782C4"/>
    </g>
</svg>
