<svg width="100" height="79" viewBox="0 0 100 79" xmlns="http://www.w3.org/2000/svg">
    <g fill="none" fill-rule="evenodd">
        <path d="M55.627 22.068c-1.647-.951-4.343-.951-5.99 0L1.23 49.991c-1.647.95-1.639 2.492.018 3.425l43.087 24.25c1.657.933 4.37.933 6.027 0l48.37-27.275c1.657-.933 1.666-2.474.02-3.426L55.626 22.068z" fill-opacity=".5" fill="#F9D28C"/>
        <path stroke="#33475C" stroke-width="5" stroke-linecap="round" stroke-linejoin="round" d="M19.452 17.184L25.89 20.9v27.883l-6.438-3.716zM32.327 17.184L25.89 20.9v27.883l6.438-3.716z"/>
        <path d="M29.833 42.846c-.883.104-1.705-.497-1.864-1.384-.165-.922.449-1.803 1.37-1.968 2.338-.419 4.038-4.714 4.449-6.186.252-.9 1.187-1.428 2.087-1.178.9.25 1.429 1.183 1.18 2.084-.219.79-2.274 7.749-7.119 8.617-.034.006-.069.01-.103.015zM19.505 6.668c-.59 0-1.294.224-2.046.659-3.077 1.776-5.676 6.278-5.676 9.83 0 1.354.39 2.354 1.069 2.747.679.391 1.74.229 2.912-.448 3.077-1.776 5.676-6.279 5.676-9.831 0-1.526-.48-2.569-1.318-2.86-.187-.065-.394-.097-.617-.097zm-5.803 16.83c-.918 0-1.783-.218-2.545-.659-1.757-1.014-2.764-3.085-2.764-5.681 0-4.773 3.238-10.381 7.371-12.767 1.904-1.1 3.847-1.392 5.472-.827 2.251.784 3.594 3.05 3.594 6.06 0 4.774-3.238 10.382-7.371 12.768-1.272.735-2.56 1.106-3.757 1.106z" stroke="#33475C" stroke-width="5" stroke-linecap="round" stroke-linejoin="round"/>
        <path d="M48.201 51.416c0-9.687 6.864-21.577 15.254-26.421 3.49-2.015 6.713-2.5 9.29-1.69l.001-.006-52.671-16.55c-.174-.055-.365-.081-.57-.081-.59 0-1.294.224-2.046.659-3.077 1.775-5.676 6.278-5.676 9.83 0 1.113.263 1.988.734 2.481l38.498 40.316.005-.003c-1.772-1.854-2.819-4.757-2.819-8.535z" stroke="#33475C" stroke-width="5" stroke-linecap="round" stroke-linejoin="round"/>
        <path d="M54.416 19.345C46.026 24.19 39.16 36.08 39.16 45.766c0 .659.043 1.28.105 1.884l11.749 12.304.005-.003c-1.772-1.854-2.819-4.756-2.819-8.535 0-9.687 6.864-21.577 15.254-26.42 3.49-2.015 6.713-2.502 9.29-1.691l.001-.006-16.086-5.054c-.733.297-1.482.66-2.244 1.1z" stroke="#33475C" stroke-width="5" stroke-linecap="round" stroke-linejoin="round"/>
        <path d="M70.234 25.753c-1.59 0-3.435.574-5.367 1.688-7.502 4.333-13.841 15.312-13.841 23.976 0 3.58 1.118 6.28 3.069 7.405 1.95 1.126 4.846.745 7.948-1.045 7.503-4.332 13.841-15.31 13.841-23.975 0-4.081-1.401-6.91-3.846-7.762-.552-.192-1.157-.287-1.804-.287zM19.505 6.668c-.59 0-1.294.224-2.046.659-3.077 1.776-5.676 6.278-5.676 9.83 0 1.113.263 1.988.735 2.481l5.118 5.36c-.49-.808-.777-1.874-.777-3.183 0-4.384 3.107-9.766 6.904-11.957 1.184-.684 2.297-.97 3.273-.921l-6.96-2.187c-.175-.056-.366-.082-.57-.082z" stroke="#33475C" stroke-width="5" stroke-linecap="round" stroke-linejoin="round"/>
        <path d="M70.654 34.521c-.434-.151-.91-.225-1.419-.225-1.251 0-2.702.45-4.22 1.328-5.903 3.407-10.888 12.043-10.888 18.857 0 2.062.475 3.745 1.33 4.85 1.826.389 4.142-.144 6.586-1.554 4.463-2.577 8.512-7.504 11.063-12.898.366-1.452.573-2.889.573-4.252 0-3.21-1.102-5.436-3.025-6.106z" stroke="#33475C" stroke-width="5" stroke-linecap="round" stroke-linejoin="round"/>
        <path d="M70.234 25.753c-1.59 0-3.435.574-5.367 1.688-7.502 4.333-13.841 15.312-13.841 23.976 0 3.58 1.118 6.28 3.069 7.405 1.95 1.126 4.846.745 7.948-1.045 7.503-4.332 13.841-15.31 13.841-23.975 0-4.081-1.401-6.91-3.846-7.762-.552-.192-1.157-.287-1.804-.287z" stroke="#33475C" stroke-width="5" stroke-linecap="round" stroke-linejoin="round"/>
        <path d="M65.578 37.016l-9.312-5.612c-1.712 2.186-3.92 5.515-5.616 9.808l9.095 5.482c.912.55 1.918.812 2.911.812 1.915 0 3.783-.974 4.844-2.734 1.61-2.673.75-6.145-1.922-7.756z" stroke="#33475C" stroke-width="5" stroke-linecap="round" stroke-linejoin="round"/>
        <path d="M70.234 25.753c-1.59 0-3.435.574-5.367 1.688-7.502 4.333-13.841 15.312-13.841 23.976 0 3.58 1.118 6.28 3.069 7.405 1.95 1.126 4.846.745 7.948-1.045 7.503-4.332 13.841-15.31 13.841-23.975 0-4.081-1.401-6.91-3.846-7.762-.552-.192-1.157-.287-1.804-.287zm-13.56 39.375c-1.946 0-3.77-.47-5.405-1.413-3.8-2.194-5.893-6.562-5.893-12.298 0-10.612 7.477-23.562 16.667-28.868 4.221-2.436 8.32-3.074 11.852-1.844 4.784 1.666 7.64 6.562 7.64 13.097 0 10.612-7.477 23.562-16.668 28.868-2.83 1.634-5.618 2.458-8.194 2.458z" stroke="#33475C" stroke-width="5" stroke-linecap="round" stroke-linejoin="round"/>
        <path d="M66.024 36.998c-.123-.095-.255-.177-.402-.228h-.001c-.175-.062-.368-.091-.574-.091-.506 0-1.093.182-1.707.537-2.388 1.378-4.404 4.872-4.404 7.628 0 1.14.355 1.999.976 2.357.89.517 1.928.808 3.032.808 3.34 0 6.048-2.708 6.048-6.048 0-2.169-1.24-3.917-2.968-4.963z" stroke="#33475C" stroke-width="5" stroke-linecap="round" stroke-linejoin="round"/>
        <path fill="#EAF0F6" d="M19.452 17.184L25.89 20.9v27.883l-6.438-3.716z"/>
        <path stroke="#33475C" stroke-linecap="round" stroke-linejoin="round" d="M19.452 17.184L25.89 20.9v27.883l-6.438-3.716z"/>
        <path fill="#CBD6E3" d="M32.327 17.184L25.89 20.9v27.883l6.438-3.716z"/>
        <path stroke="#33475C" stroke-linecap="round" stroke-linejoin="round" d="M32.327 17.184L25.89 20.9v27.883l6.438-3.716z"/>
        <path d="M29.833 42.846c-.883.104-1.705-.497-1.864-1.384-.165-.922.449-1.803 1.37-1.968 2.338-.419 4.038-4.714 4.449-6.186.252-.9 1.187-1.428 2.087-1.178.9.25 1.429 1.183 1.18 2.084-.219.79-2.274 7.749-7.119 8.617-.034.006-.069.01-.103.015" fill="#7BDED2"/>
        <path d="M29.833 42.846c-.883.104-1.705-.497-1.864-1.384-.165-.922.449-1.803 1.37-1.968 2.338-.419 4.038-4.714 4.449-6.186.252-.9 1.187-1.428 2.087-1.178.9.25 1.429 1.183 1.18 2.084-.219.79-2.274 7.749-7.119 8.617-.034.006-.069.01-.103.015z" stroke="#33475C" stroke-linecap="round" stroke-linejoin="round"/>
        <path d="M19.505 6.668c-.59 0-1.294.224-2.046.659-3.077 1.776-5.676 6.278-5.676 9.83 0 1.354.39 2.354 1.069 2.747.679.391 1.74.229 2.912-.448 3.077-1.776 5.676-6.279 5.676-9.831 0-1.526-.48-2.569-1.318-2.86-.187-.065-.394-.097-.617-.097m-5.803 16.83c-.918 0-1.783-.218-2.545-.659-1.757-1.014-2.764-3.085-2.764-5.681 0-4.773 3.238-10.381 7.371-12.767 1.904-1.1 3.847-1.392 5.472-.827 2.251.784 3.594 3.05 3.594 6.06 0 4.774-3.238 10.382-7.371 12.768-1.272.735-2.56 1.106-3.757 1.106" fill="#7BDED2"/>
        <path d="M19.505 6.668c-.59 0-1.294.224-2.046.659-3.077 1.776-5.676 6.278-5.676 9.83 0 1.354.39 2.354 1.069 2.747.679.391 1.74.229 2.912-.448 3.077-1.776 5.676-6.279 5.676-9.831 0-1.526-.48-2.569-1.318-2.86-.187-.065-.394-.097-.617-.097zm-5.803 16.83c-.918 0-1.783-.218-2.545-.659-1.757-1.014-2.764-3.085-2.764-5.681 0-4.773 3.238-10.381 7.371-12.767 1.904-1.1 3.847-1.392 5.472-.827 2.251.784 3.594 3.05 3.594 6.06 0 4.774-3.238 10.382-7.371 12.768-1.272.735-2.56 1.106-3.757 1.106z" stroke="#33475C" stroke-linecap="round" stroke-linejoin="round"/>
        <path d="M48.201 51.416c0-9.687 6.864-21.577 15.254-26.421 3.49-2.015 6.713-2.5 9.29-1.69l.001-.006-52.671-16.55c-.174-.055-.365-.081-.57-.081-.59 0-1.294.224-2.046.659-3.077 1.775-5.676 6.278-5.676 9.83 0 1.113.263 1.988.734 2.481l38.498 40.316.005-.003c-1.772-1.854-2.819-4.757-2.819-8.535" fill="#EAF0F6"/>
        <path d="M48.201 51.416c0-9.687 6.864-21.577 15.254-26.421 3.49-2.015 6.713-2.5 9.29-1.69l.001-.006-52.671-16.55c-.174-.055-.365-.081-.57-.081-.59 0-1.294.224-2.046.659-3.077 1.775-5.676 6.278-5.676 9.83 0 1.113.263 1.988.734 2.481l38.498 40.316.005-.003c-1.772-1.854-2.819-4.757-2.819-8.535z" stroke="#33475C" stroke-linecap="round" stroke-linejoin="round"/>
        <path d="M54.416 19.345C46.026 24.19 39.16 36.08 39.16 45.766c0 .659.043 1.28.105 1.884l11.749 12.304.005-.003c-1.772-1.854-2.819-4.756-2.819-8.535 0-9.687 6.864-21.577 15.254-26.42 3.49-2.015 6.713-2.502 9.29-1.691l.001-.006-16.086-5.054c-.733.297-1.482.66-2.244 1.1" fill="#7BDED2"/>
        <path d="M54.416 19.345C46.026 24.19 39.16 36.08 39.16 45.766c0 .659.043 1.28.105 1.884l11.749 12.304.005-.003c-1.772-1.854-2.819-4.756-2.819-8.535 0-9.687 6.864-21.577 15.254-26.42 3.49-2.015 6.713-2.502 9.29-1.691l.001-.006-16.086-5.054c-.733.297-1.482.66-2.244 1.1z" stroke="#33475C" stroke-linecap="round" stroke-linejoin="round"/>
        <path d="M70.234 25.753c-1.59 0-3.435.574-5.367 1.688-7.502 4.333-13.841 15.312-13.841 23.976 0 3.58 1.118 6.28 3.069 7.405 1.95 1.126 4.846.745 7.948-1.045 7.503-4.332 13.841-15.31 13.841-23.975 0-4.081-1.401-6.91-3.846-7.762-.552-.192-1.157-.287-1.804-.287" fill="#CBD6E3"/>
        <path d="M70.234 25.753c-1.59 0-3.435.574-5.367 1.688-7.502 4.333-13.841 15.312-13.841 23.976 0 3.58 1.118 6.28 3.069 7.405 1.95 1.126 4.846.745 7.948-1.045 7.503-4.332 13.841-15.31 13.841-23.975 0-4.081-1.401-6.91-3.846-7.762-.552-.192-1.157-.287-1.804-.287z" stroke="#33475C" stroke-linecap="round" stroke-linejoin="round"/>
        <path d="M19.505 6.668c-.59 0-1.294.224-2.046.659-3.077 1.776-5.676 6.278-5.676 9.83 0 1.113.263 1.988.735 2.481l5.118 5.36c-.49-.808-.777-1.874-.777-3.183 0-4.384 3.107-9.766 6.904-11.957 1.184-.684 2.297-.97 3.273-.921l-6.96-2.187c-.175-.056-.366-.082-.57-.082" fill="#7BDED2"/>
        <path d="M19.505 6.668c-.59 0-1.294.224-2.046.659-3.077 1.776-5.676 6.278-5.676 9.83 0 1.113.263 1.988.735 2.481l5.118 5.36c-.49-.808-.777-1.874-.777-3.183 0-4.384 3.107-9.766 6.904-11.957 1.184-.684 2.297-.97 3.273-.921l-6.96-2.187c-.175-.056-.366-.082-.57-.082z" stroke="#33475C" stroke-linecap="round" stroke-linejoin="round"/>
        <path d="M70.654 34.521c-.434-.151-.91-.225-1.419-.225-1.251 0-2.702.45-4.22 1.328-5.903 3.407-10.888 12.043-10.888 18.857 0 2.062.475 3.745 1.33 4.85 1.826.389 4.142-.144 6.586-1.554 4.463-2.577 8.512-7.504 11.063-12.898.366-1.452.573-2.889.573-4.252 0-3.21-1.102-5.436-3.025-6.106" fill="#EAF0F6"/>
        <path d="M70.234 25.753c-1.59 0-3.435.574-5.367 1.688-7.502 4.333-13.841 15.312-13.841 23.976 0 3.58 1.118 6.28 3.069 7.405 1.95 1.126 4.846.745 7.948-1.045 7.503-4.332 13.841-15.31 13.841-23.975 0-4.081-1.401-6.91-3.846-7.762-.552-.192-1.157-.287-1.804-.287z" stroke="#33475C" stroke-linecap="round" stroke-linejoin="round"/>
        <path d="M65.578 37.016l-9.312-5.612c-1.712 2.186-3.92 5.515-5.616 9.808l9.095 5.482c.912.55 1.918.812 2.911.812 1.915 0 3.783-.974 4.844-2.734 1.61-2.673.75-6.145-1.922-7.756" fill="#EAF0F6"/>
        <path d="M65.578 37.016l-9.312-5.612c-1.712 2.186-3.92 5.515-5.616 9.808l9.095 5.482c.912.55 1.918.812 2.911.812 1.915 0 3.783-.974 4.844-2.734 1.61-2.673.75-6.145-1.922-7.756z" stroke="#33475C" stroke-linecap="round" stroke-linejoin="round"/>
        <path d="M70.234 25.753c-1.59 0-3.435.574-5.367 1.688-7.502 4.333-13.841 15.312-13.841 23.976 0 3.58 1.118 6.28 3.069 7.405 1.95 1.126 4.846.745 7.948-1.045 7.503-4.332 13.841-15.31 13.841-23.975 0-4.081-1.401-6.91-3.846-7.762-.552-.192-1.157-.287-1.804-.287m-13.56 39.375c-1.946 0-3.77-.47-5.405-1.413-3.8-2.194-5.893-6.562-5.893-12.298 0-10.612 7.477-23.562 16.667-28.868 4.221-2.436 8.32-3.074 11.852-1.844 4.784 1.666 7.64 6.562 7.64 13.097 0 10.612-7.477 23.562-16.668 28.868-2.83 1.634-5.618 2.458-8.194 2.458" fill="#7BDED2"/>
        <path d="M70.234 25.753c-1.59 0-3.435.574-5.367 1.688-7.502 4.333-13.841 15.312-13.841 23.976 0 3.58 1.118 6.28 3.069 7.405 1.95 1.126 4.846.745 7.948-1.045 7.503-4.332 13.841-15.31 13.841-23.975 0-4.081-1.401-6.91-3.846-7.762-.552-.192-1.157-.287-1.804-.287zm-13.56 39.375c-1.946 0-3.77-.47-5.405-1.413-3.8-2.194-5.893-6.562-5.893-12.298 0-10.612 7.477-23.562 16.667-28.868 4.221-2.436 8.32-3.074 11.852-1.844 4.784 1.666 7.64 6.562 7.64 13.097 0 10.612-7.477 23.562-16.668 28.868-2.83 1.634-5.618 2.458-8.194 2.458z" stroke="#33475C" stroke-linecap="round" stroke-linejoin="round"/>
        <path d="M66.024 36.998c-.123-.095-.255-.177-.402-.228h-.001c-.175-.062-.368-.091-.574-.091-.506 0-1.093.182-1.707.537-2.388 1.378-4.404 4.872-4.404 7.628 0 1.14.355 1.999.976 2.357.89.517 1.928.808 3.032.808 3.34 0 6.048-2.708 6.048-6.048 0-2.169-1.24-3.917-2.968-4.963" fill="#7BDED2"/>
        <path d="M66.024 36.998c-.123-.095-.255-.177-.402-.228h-.001c-.175-.062-.368-.091-.574-.091-.506 0-1.093.182-1.707.537-2.388 1.378-4.404 4.872-4.404 7.628 0 1.14.355 1.999.976 2.357.89.517 1.928.808 3.032.808 3.34 0 6.048-2.708 6.048-6.048 0-2.169-1.24-3.917-2.968-4.963z" stroke="#33475C" stroke-linecap="round" stroke-linejoin="round"/>
    </g>
</svg>
