
<svg width="227" height="172" viewBox="0 0 227 172" xmlns="http://www.w3.org/2000/svg" xmlns:xlink="http://www.w3.org/1999/xlink">
    <defs>
        <path id="a" d="M0 131V.133h226.668V131z"/>
    </defs>
    <g fill="none" fill-rule="evenodd">
        <path d="M48.218 58.303c-.31 0-.625-.079-.912-.244-.872-.504-1.171-1.62-.667-2.492 1.295-2.246 1.295-6.185 0-8.43-.428-.74-.958-1.203-1.38-1.203-.423 0-.953.462-1.38 1.203-.463.804-.777 1.85-.907 3.025-.11 1.001-1.002 1.727-2.014 1.614-1.002-.11-1.724-1.012-1.614-2.015.185-1.672.66-3.21 1.373-4.448 1.113-1.924 2.769-3.029 4.543-3.029 1.773 0 3.428 1.105 4.54 3.028 1.953 3.387 1.953 8.692 0 12.078-.338.586-.951.913-1.582.913z" stroke="#33475C" stroke-width="6" stroke-linecap="round" stroke-linejoin="round"/>
        <path d="M58.101 52.69c-.31 0-.624-.078-.91-.245-.874-.503-1.173-1.62-.669-2.491 1.297-2.245 1.297-6.185 0-8.43-.427-.742-.955-1.202-1.379-1.202-.422 0-.95.46-1.379 1.202-.465.805-.779 1.85-.909 3.026-.108 1.002-.996 1.73-2.013 1.615-1.002-.112-1.725-1.013-1.615-2.015.186-1.674.662-3.213 1.376-4.451 1.112-1.923 2.767-3.027 4.54-3.027h.002c1.775 0 3.428 1.104 4.538 3.029 1.955 3.385 1.955 8.69 0 12.077-.338.585-.95.912-1.582.912z" stroke="#33475C" stroke-width="6" stroke-linecap="round" stroke-linejoin="round"/>
        <path d="M67.987 47.078c-.31 0-.624-.079-.91-.245-.874-.503-1.173-1.62-.669-2.491 1.297-2.245 1.297-6.184 0-8.43-.427-.742-.957-1.203-1.379-1.203-.424 0-.952.461-1.379 1.202-.465.806-.779 1.852-.909 3.027-.11 1-.992 1.732-2.013 1.614-1.002-.11-1.725-1.011-1.615-2.014.186-1.674.662-3.213 1.376-4.451 1.11-1.923 2.764-3.027 4.538-3.028h.002c1.773 0 3.428 1.104 4.54 3.028 1.955 3.387 1.955 8.692 0 12.078-.338.587-.95.913-1.582.913z" stroke="#33475C" stroke-width="6" stroke-linecap="round" stroke-linejoin="round"/>
        <path d="M77.873 41.466c-.31 0-.624-.078-.911-.244-.873-.503-1.172-1.62-.668-2.492 1.295-2.246 1.295-6.185 0-8.43-.427-.74-.957-1.202-1.38-1.202-.423 0-.952.461-1.38 1.202-.465.808-.78 1.853-.907 3.023-.108 1-1.017 1.722-2.012 1.616-1.001-.11-1.724-1.01-1.616-2.012.182-1.668.658-3.207 1.374-4.45 1.112-1.925 2.767-3.029 4.542-3.029 1.773 0 3.428 1.104 4.54 3.028 1.953 3.386 1.953 8.691 0 12.077-.338.586-.952.913-1.582.913z" stroke="#33475C" stroke-width="6" stroke-linecap="round" stroke-linejoin="round"/>
        <path d="M87.757 35.853c-.31 0-.624-.078-.911-.244-.873-.504-1.172-1.62-.668-2.492 1.297-2.245 1.297-6.183 0-8.428-.427-.742-.955-1.203-1.38-1.203-.421 0-.951.461-1.378 1.203-.465.803-.78 1.849-.91 3.025-.11 1.001-.982 1.726-2.012 1.614-1.002-.111-1.725-1.012-1.615-2.015.186-1.674.66-3.213 1.376-4.451 1.112-1.922 2.767-3.026 4.54-3.026h.002c1.774.001 3.428 1.104 4.538 3.029 1.957 3.384 1.957 8.69 0 12.076-.338.586-.952.912-1.582.912z" stroke="#33475C" stroke-width="6" stroke-linecap="round" stroke-linejoin="round"/>
        <path d="M97.642 30.242c-.31 0-.624-.078-.91-.245-.873-.503-1.173-1.62-.67-2.492 1.299-2.244 1.297-6.183 0-8.43-.426-.741-.955-1.202-1.378-1.202-.424 0-.951.46-1.38 1.202-.464.806-.777 1.852-.908 3.027-.11 1.002-1.006 1.729-2.013 1.614-1.001-.111-1.725-1.012-1.615-2.014.186-1.675.662-3.213 1.376-4.451 1.11-1.923 2.764-3.026 4.539-3.027 1.774 0 3.43 1.103 4.542 3.028 1.954 3.387 1.954 8.693 0 12.078-.34.585-.952.912-1.583.912zM67.987 47.078c-.31 0-.624-.079-.91-.245-.874-.503-1.173-1.62-.669-2.491 1.297-2.245 1.297-6.184 0-8.43-.427-.742-.957-1.203-1.379-1.203-.424 0-.952.461-1.379 1.202-.465.806-.779 1.852-.909 3.027-.11 1-.992 1.732-2.013 1.614-1.002-.11-1.725-1.011-1.615-2.014.186-1.674.662-3.213 1.376-4.451 1.11-1.923 2.764-3.027 4.538-3.028h.002c1.773 0 3.428 1.104 4.54 3.028 1.955 3.387 1.955 8.692 0 12.078-.338.587-.95.913-1.582.913z" stroke="#33475C" stroke-width="6" stroke-linecap="round" stroke-linejoin="round"/>
        <path d="M107.526 24.63c-.31 0-.624-.079-.91-.246-.874-.503-1.173-1.619-.669-2.49 1.297-2.246 1.297-6.186.002-8.43-.428-.742-.957-1.203-1.379-1.203-.424 0-.954.461-1.38 1.202-.466.808-.78 1.853-.908 3.024-.11 1.001-1.005 1.713-2.012 1.617-1-.11-1.724-1.01-1.616-2.012.182-1.669.658-3.208 1.374-4.452 1.112-1.925 2.767-3.029 4.542-3.029 1.773 0 3.428 1.104 4.54 3.028 1.955 3.387 1.953 8.692-.002 12.078-.338.586-.952.912-1.582.912zM77.873 41.466c-.31 0-.624-.078-.911-.244-.873-.503-1.172-1.62-.668-2.492 1.295-2.246 1.295-6.185 0-8.43-.427-.74-.957-1.202-1.38-1.202-.423 0-.952.461-1.38 1.202-.465.808-.78 1.853-.907 3.023-.108 1-1.017 1.722-2.012 1.616-1.001-.11-1.724-1.01-1.616-2.012.182-1.668.658-3.207 1.374-4.45 1.112-1.925 2.767-3.029 4.542-3.029 1.773 0 3.428 1.104 4.54 3.028 1.953 3.386 1.953 8.691 0 12.077-.338.586-.952.913-1.582.913z" stroke="#33475C" stroke-width="6" stroke-linecap="round" stroke-linejoin="round"/>
        <path d="M117.411 19.018c-.31 0-.624-.079-.91-.245-.873-.504-1.173-1.62-.669-2.492 1.298-2.245 1.298-6.184 0-8.429-.427-.742-.956-1.203-1.379-1.203-.424 0-.95.461-1.379 1.202-.465.806-.779 1.852-.909 3.026-.11 1.001-.999 1.722-2.013 1.614-1-.111-1.725-1.012-1.615-2.014.186-1.674.662-3.212 1.376-4.45 1.11-1.923 2.764-3.027 4.54-3.028 1.773 0 3.43 1.104 4.541 3.028 1.954 3.387 1.954 8.692 0 12.079-.339.585-.952.912-1.583.912z" stroke="#33475C" stroke-width="6" stroke-linecap="round" stroke-linejoin="round"/>
        <path d="M48.218 58.303c-.31 0-.625-.079-.912-.244-.872-.504-1.171-1.62-.667-2.492 1.295-2.246 1.295-6.185 0-8.43-.428-.74-.958-1.203-1.38-1.203-.423 0-.953.462-1.38 1.203-.463.804-.777 1.85-.907 3.025-.11 1.001-1.002 1.727-2.014 1.614-1.002-.11-1.724-1.012-1.614-2.015.185-1.672.66-3.21 1.373-4.448 1.113-1.924 2.769-3.029 4.543-3.029 1.773 0 3.428 1.105 4.54 3.028 1.953 3.387 1.953 8.692 0 12.078-.338.586-.951.913-1.582.913" fill="#F6C364"/>
        <path d="M58.101 52.69c-.31 0-.624-.078-.91-.245-.874-.503-1.173-1.62-.669-2.491 1.297-2.245 1.297-6.185 0-8.43-.427-.742-.955-1.202-1.379-1.202-.422 0-.95.46-1.379 1.202-.465.805-.779 1.85-.909 3.026-.108 1.002-.996 1.73-2.013 1.615-1.002-.112-1.725-1.013-1.615-2.015.186-1.674.662-3.213 1.376-4.451 1.112-1.923 2.767-3.027 4.54-3.027h.002c1.775 0 3.428 1.104 4.538 3.029 1.955 3.385 1.955 8.69 0 12.077-.338.585-.95.912-1.582.912" fill="#F6C364"/>
        <path d="M67.987 47.078c-.31 0-.624-.079-.91-.245-.874-.503-1.173-1.62-.669-2.491 1.297-2.245 1.297-6.184 0-8.43-.427-.742-.957-1.203-1.379-1.203-.424 0-.952.461-1.379 1.202-.465.806-.779 1.852-.909 3.027-.11 1-.992 1.732-2.013 1.614-1.002-.11-1.725-1.011-1.615-2.014.186-1.674.662-3.213 1.376-4.451 1.11-1.923 2.764-3.027 4.538-3.028h.002c1.773 0 3.428 1.104 4.54 3.028 1.955 3.387 1.955 8.692 0 12.078-.338.587-.95.913-1.582.913" fill="#F6C364"/>
        <path d="M77.873 41.466c-.31 0-.624-.078-.911-.244-.873-.503-1.172-1.62-.668-2.492 1.295-2.246 1.295-6.185 0-8.43-.427-.74-.957-1.202-1.38-1.202-.423 0-.952.461-1.38 1.202-.465.808-.78 1.853-.907 3.023-.108 1-1.017 1.722-2.012 1.616-1.001-.11-1.724-1.01-1.616-2.012.182-1.668.658-3.207 1.374-4.45 1.112-1.925 2.767-3.029 4.542-3.029 1.773 0 3.428 1.104 4.54 3.028 1.953 3.386 1.953 8.691 0 12.077-.338.586-.952.913-1.582.913" fill="#F6C364"/>
        <path d="M87.757 35.853c-.31 0-.624-.078-.911-.244-.873-.504-1.172-1.62-.668-2.492 1.297-2.245 1.297-6.183 0-8.428-.427-.742-.955-1.203-1.38-1.203-.421 0-.951.461-1.378 1.203-.465.803-.78 1.849-.91 3.025-.11 1.001-.982 1.726-2.012 1.614-1.002-.111-1.725-1.012-1.615-2.015.186-1.674.66-3.213 1.376-4.451 1.112-1.922 2.767-3.026 4.54-3.026h.002c1.774.001 3.428 1.104 4.538 3.029 1.957 3.384 1.957 8.69 0 12.076-.338.586-.952.912-1.582.912" fill="#F6C364"/>
        <path d="M97.642 30.242c-.31 0-.624-.078-.91-.245-.873-.503-1.173-1.62-.67-2.492 1.299-2.244 1.297-6.183 0-8.43-.426-.741-.955-1.202-1.378-1.202-.424 0-.951.46-1.38 1.202-.464.806-.777 1.852-.908 3.027-.11 1.002-1.006 1.729-2.013 1.614-1.001-.111-1.725-1.012-1.615-2.014.186-1.675.662-3.213 1.376-4.451 1.11-1.923 2.764-3.026 4.539-3.027 1.774 0 3.43 1.103 4.542 3.028 1.954 3.387 1.954 8.693 0 12.078-.34.585-.952.912-1.583.912M67.987 47.078c-.31 0-.624-.079-.91-.245-.874-.503-1.173-1.62-.669-2.491 1.297-2.245 1.297-6.184 0-8.43-.427-.742-.957-1.203-1.379-1.203-.424 0-.952.461-1.379 1.202-.465.806-.779 1.852-.909 3.027-.11 1-.992 1.732-2.013 1.614-1.002-.11-1.725-1.011-1.615-2.014.186-1.674.662-3.213 1.376-4.451 1.11-1.923 2.764-3.027 4.538-3.028h.002c1.773 0 3.428 1.104 4.54 3.028 1.955 3.387 1.955 8.692 0 12.078-.338.587-.95.913-1.582.913" fill="#F6C364"/>
        <path d="M107.526 24.63c-.31 0-.624-.079-.91-.246-.874-.503-1.173-1.619-.669-2.49 1.297-2.246 1.297-6.186.002-8.43-.428-.742-.957-1.203-1.379-1.203-.424 0-.954.461-1.38 1.202-.466.808-.78 1.853-.908 3.024-.11 1.001-1.005 1.713-2.012 1.617-1-.11-1.724-1.01-1.616-2.012.182-1.669.658-3.208 1.374-4.452 1.112-1.925 2.767-3.029 4.542-3.029 1.773 0 3.428 1.104 4.54 3.028 1.955 3.387 1.953 8.692-.002 12.078-.338.586-.952.912-1.582.912M77.873 41.466c-.31 0-.624-.078-.911-.244-.873-.503-1.172-1.62-.668-2.492 1.295-2.246 1.295-6.185 0-8.43-.427-.74-.957-1.202-1.38-1.202-.423 0-.952.461-1.38 1.202-.465.808-.78 1.853-.907 3.023-.108 1-1.017 1.722-2.012 1.616-1.001-.11-1.724-1.01-1.616-2.012.182-1.668.658-3.207 1.374-4.45 1.112-1.925 2.767-3.029 4.542-3.029 1.773 0 3.428 1.104 4.54 3.028 1.953 3.386 1.953 8.691 0 12.077-.338.586-.952.913-1.582.913" fill="#F6C364"/>
        <path d="M117.411 19.018c-.31 0-.624-.079-.91-.245-.873-.504-1.173-1.62-.669-2.492 1.298-2.245 1.298-6.184 0-8.429-.427-.742-.956-1.203-1.379-1.203-.424 0-.95.461-1.379 1.202-.465.806-.779 1.852-.909 3.026-.11 1.001-.999 1.722-2.013 1.614-1-.111-1.725-1.012-1.615-2.014.186-1.674.662-3.212 1.376-4.45 1.11-1.923 2.764-3.027 4.54-3.028 1.773 0 3.43 1.104 4.541 3.028 1.954 3.387 1.954 8.692 0 12.079-.339.585-.952.912-1.583.912" fill="#F6C364"/>
        <g transform="translate(0 40.402)">
            <mask id="b" fill="#fff">
                <use xlink:href="#a"/>
            </mask>
            <path d="M106.406 129.515L2.571 69.566c-3.811-2.2-3.329-6.078 1.071-8.618L105.334 2.236c4.4-2.54 11.117-2.82 14.928-.619l103.835 59.95c3.811 2.2 3.329 6.078-1.071 8.618l-101.692 58.712c-4.4 2.54-11.117 2.818-14.928.618" fill-opacity=".5" fill="#F9D28C" mask="url(#b)"/>
        </g>
        <path d="M128.404 141.092h.01-.01zM93.404 121.538c2-1.156 5.276-1.156 7.278 0l8.404 4.853 3.638 2.1s1.638.944 3.639 2.101l19.496 11.255c2 1.155 2 3.046 0 4.202l-19.496 11.255c-2.001 1.156-5.276 1.156-7.277 0L89.59 146.05l-7.278-4.202-8.404-4.852c-2.001-1.155-2.001-3.047 0-4.202l19.495-11.255z" stroke="#33475C" stroke-width="5" stroke-linecap="round" stroke-linejoin="round"/>
        <path d="M93.404 117.09c2-1.156 5.276-1.156 7.278 0l8.404 4.852 3.638 2.1s1.638.945 3.639 2.102l19.496 11.255c2 1.155 2 3.045 0 4.202l-19.496 11.255c-2.001 1.156-5.276 1.156-7.277 0L89.59 141.601c-2.001-1.157-5.276-3.047-7.278-4.202l-8.404-4.852c-2.001-1.156-2.001-3.047 0-4.202l19.495-11.256z" stroke="#33475C" stroke-width="5" stroke-linecap="round" stroke-linejoin="round"/>
        <path d="M73.909 132.547l8.404 4.852 7.278 4.202 19.494 11.255c2.002 1.155 5.277 1.156 7.278 0l19.495-11.255c1.001-.578 1.501-1.34 1.501-2.102v4.45c0 .76-.5 1.522-1.501 2.1l-19.495 11.255c-2.001 1.156-5.276 1.156-7.278 0L89.591 146.05l-7.278-4.202-8.404-4.852c-1-.578-1.501-1.34-1.501-2.1v-4.45c0 .762.501 1.524 1.501 2.102z" stroke="#33475C" stroke-width="5" stroke-linecap="round" stroke-linejoin="round"/>
        <path stroke="#33475C" stroke-width="5" stroke-linecap="round" stroke-linejoin="round" d="M80 132.29l20.123-11.618 30.07 17.36-20.125 11.618z"/>
        <path stroke="#33475C" stroke-width="5" stroke-linecap="round" stroke-linejoin="round" d="M122.001 133.303l8.191 4.73-20.124 11.618-8.19-4.73zM124.383 135.413l-17.36 9.936M127.368 136.863l-11.666 6.734M80.999 132.29l19.124-11.041L121 133.304l-19.124 11.04z"/>
        <path d="M100.123 120.672L79.999 132.29l21.878 12.632L122 133.303l-21.878-12.63zm0 1.154L120 133.303l-18.124 10.463-19.878-11.477 18.124-10.463zM91.951 136.61l15.597-9.005M95.79 138.827l13.554-7.825M99.497 140.966l8.865-5.118M91.966 133.37l12.64 7.298M96.456 130.778L108.1 137.5M101.022 128.142l8.386 4.841" stroke="#33475C" stroke-width="5" stroke-linecap="round" stroke-linejoin="round"/>
        <path stroke="#33475C" stroke-width="5" stroke-linecap="round" stroke-linejoin="round" d="M100.123 120.671L79.999 132.29l5.539 3.198 20.123-11.619z"/>
        <path d="M128.404 141.092h.01-.01z" fill="#33475C"/>
        <path d="M93.404 121.538c2-1.156 5.276-1.156 7.278 0l8.404 4.853 3.638 2.1s1.638.944 3.639 2.101l19.496 11.255c2 1.155 2 3.046 0 4.202l-19.496 11.255c-2.001 1.156-5.276 1.156-7.277 0L89.59 146.05l-7.278-4.202-8.404-4.852c-2.001-1.155-2.001-3.047 0-4.202l19.495-11.255z" fill="#FFF"/>
        <path d="M93.404 121.538c2-1.156 5.276-1.156 7.278 0l8.404 4.853 3.638 2.1s1.638.944 3.639 2.101l19.496 11.255c2 1.155 2 3.046 0 4.202l-19.496 11.255c-2.001 1.156-5.276 1.156-7.277 0L89.59 146.05l-7.278-4.202-8.404-4.852c-2.001-1.155-2.001-3.047 0-4.202l19.495-11.255z" stroke="#231F20" stroke-linecap="round" stroke-linejoin="round"/>
        <path d="M93.404 117.09c2-1.156 5.276-1.156 7.278 0l8.404 4.852 3.638 2.1s1.638.945 3.639 2.102l19.496 11.255c2 1.155 2 3.045 0 4.202l-19.496 11.255c-2.001 1.156-5.276 1.156-7.277 0L89.59 141.601c-2.001-1.157-5.276-3.047-7.278-4.202l-8.404-4.852c-2.001-1.156-2.001-3.047 0-4.202l19.495-11.256z" fill="#FFF"/>
        <path d="M93.404 117.09c2-1.156 5.276-1.156 7.278 0l8.404 4.852 3.638 2.1s1.638.945 3.639 2.102l19.496 11.255c2 1.155 2 3.045 0 4.202l-19.496 11.255c-2.001 1.156-5.276 1.156-7.277 0L89.59 141.601c-2.001-1.157-5.276-3.047-7.278-4.202l-8.404-4.852c-2.001-1.156-2.001-3.047 0-4.202l19.495-11.256z" stroke="#33475C" stroke-linecap="round" stroke-linejoin="round"/>
        <path d="M73.909 132.547l8.404 4.852 7.278 4.202 19.494 11.255c2.002 1.155 5.277 1.156 7.278 0l19.495-11.255c1.001-.578 1.501-1.34 1.501-2.102v4.45c0 .76-.5 1.522-1.501 2.1l-19.495 11.255c-2.001 1.156-5.276 1.156-7.278 0L89.591 146.05l-7.278-4.202-8.404-4.852c-1-.578-1.501-1.34-1.501-2.1v-4.45c0 .762.501 1.524 1.501 2.102" fill="#FBE1B2"/>
        <path d="M73.909 132.547l8.404 4.852 7.278 4.202 19.494 11.255c2.002 1.155 5.277 1.156 7.278 0l19.495-11.255c1.001-.578 1.501-1.34 1.501-2.102v4.45c0 .76-.5 1.522-1.501 2.1l-19.495 11.255c-2.001 1.156-5.276 1.156-7.278 0L89.591 146.05l-7.278-4.202-8.404-4.852c-1-.578-1.501-1.34-1.501-2.1v-4.45c0 .762.501 1.524 1.501 2.102z" stroke="#33475C" stroke-linecap="round" stroke-linejoin="round"/>
        <path fill="#FFF" d="M80 132.29l20.123-11.618 30.07 17.36-20.125 11.618z"/>
        <path fill="#FFF" d="M122.001 133.303l8.191 4.73-20.124 11.618-8.19-4.73z"/>
        <path d="M124.383 135.413l-17.36 9.936" fill="#D4E7F7"/>
        <path d="M124.383 135.413l-17.36 9.936" stroke="#D4E7F7" stroke-linecap="round" stroke-linejoin="round"/>
        <path d="M127.368 136.863l-11.666 6.734" fill="#D4E7F7"/>
        <path d="M127.368 136.863l-11.666 6.734" stroke="#D4E7F7" stroke-linecap="round" stroke-linejoin="round"/>
        <path fill="#FFF" d="M80.999 132.29l19.124-11.041L121 133.304l-19.124 11.04z"/>
        <path d="M100.123 120.672L79.999 132.29l21.878 12.632L122 133.303l-21.878-12.63zm0 1.154L120 133.303l-18.124 10.463-19.878-11.477 18.124-10.463zM91.951 136.61l15.597-9.005" fill="#D4E7F7"/>
        <path d="M91.951 136.61l15.597-9.005" stroke="#D4E7F7" stroke-linecap="round" stroke-linejoin="round"/>
        <path d="M95.79 138.827l13.554-7.825" fill="#D4E7F7"/>
        <path d="M95.79 138.827l13.554-7.825" stroke="#D4E7F7" stroke-linecap="round" stroke-linejoin="round"/>
        <path d="M99.497 140.966l8.865-5.118" fill="#D4E7F7"/>
        <path d="M99.497 140.966l8.865-5.118" stroke="#D4E7F7" stroke-linecap="round" stroke-linejoin="round"/>
        <path d="M91.966 133.37l12.64 7.298" fill="#D4E7F7"/>
        <path d="M91.966 133.37l12.64 7.298" stroke="#D4E7F7" stroke-linecap="round" stroke-linejoin="round"/>
        <path d="M96.456 130.778L108.1 137.5" fill="#D4E7F7"/>
        <path d="M96.456 130.778L108.1 137.5" stroke="#D4E7F7" stroke-linecap="round" stroke-linejoin="round"/>
        <path d="M101.022 128.142l8.386 4.841" fill="#D4E7F7"/>
        <path d="M101.022 128.142l8.386 4.841" stroke="#D4E7F7" stroke-linecap="round" stroke-linejoin="round"/>
        <path fill="#F55257" d="M100.123 120.671L79.999 132.29l5.539 3.198 20.123-11.619z"/>
        <path stroke="#33475C" stroke-width="5" stroke-linecap="round" stroke-linejoin="round" d="M195.183 102.377l-3.865 2.265 1.42.925.932 1.592.75 2.512 3.698-2.424-.295-2.008-1.493-2.237z"/>
        <path stroke="#33475C" stroke-width="5" stroke-linecap="round" stroke-linejoin="round" d="M191.318 104.642l-2.492 1.355 1.42.926.932 1.592.75 2.512 2.491-1.356-.47-1.837-1.212-2.266z"/>
        <path stroke="#33475C" stroke-width="5" stroke-linecap="round" stroke-linejoin="round" d="M188.895 106.024l-32.115 18.48 1.42.926.933 1.593.748 2.51 32.115-18.48-.47-1.837-1.211-2.266z"/>
        <path d="M198.822 106.448c0-1.545-1.095-3.441-2.433-4.214-.588-.34-1.123-.394-1.546-.231l-.008-.02-.112.065c-.033.016-.064.035-.095.054L155.834 124.5l.024.049c-.266.068-.494.217-.663.446l-.006-.01-4.678 6.563 7.97-.95-.005-.006c.144-.023.274-.078.394-.144l.005.008.05-.03c.004 0 .007-.002.01-.004l39.148-22.383-.005-.01c.458-.247.744-.794.744-1.582z" stroke="#33475C" stroke-width="5" stroke-linecap="round" stroke-linejoin="round"/>
        <path d="M159.592 128.926c0-1.505-1.066-3.353-2.37-4.104-.862-.499-1.612-.387-2.027.173l-.006-.009-4.678 6.562 7.97-.948-.004-.008c.667-.102 1.115-.694 1.115-1.666z" stroke="#33475C" stroke-width="5" stroke-linecap="round" stroke-linejoin="round"/>
        <path d="M153.5 128.544c-.28-.16-.534-.18-.727-.089l-.326.446-1.936 2.647 3.282-.38.492-.057c.185-.118.3-.353.3-.686 0-.69-.488-1.536-1.085-1.88zM190.067 104.714c.437-.223 1.02-.183 1.665.188 1.34.775 2.439 2.676 2.439 4.226 0 .738-.254 1.261-.662 1.53l-2.375 1.371c.364-.284.592-.782.592-1.476 0-1.555-1.102-3.463-2.45-4.24-.617-.358-1.178-.405-1.61-.213l2.4-1.386zM158.403 130.097c-.025.004-.049.01-.072.017l-2.747.327.002-.016c0-1.044-.682-2.224-1.585-2.746-.03-.017-.06-.024-.09-.039l1.623-2.275c.023-.022.044-.046.063-.072.39-.526 1.091-.203 1.375-.038 1.15.663 2.12 2.344 2.12 3.671 0 .32-.068 1.077-.689 1.171z" stroke="#33475C" stroke-width="5" stroke-linecap="round" stroke-linejoin="round"/>
        <path fill="#FBA9BE" d="M195.183 102.377l-3.865 2.265 1.42.925.932 1.592.75 2.512 3.698-2.424-.295-2.008-1.493-2.237z"/>
        <path fill="#D4E7F7" d="M191.318 104.642l-2.492 1.355 1.42.926.932 1.592.75 2.512 2.491-1.356-.47-1.837-1.212-2.266z"/>
        <path fill="#F6C364" d="M188.895 106.024l-32.115 18.48 1.42.926.933 1.593.748 2.51 32.115-18.48-.47-1.837-1.211-2.266z"/>
        <path d="M198.822 106.448c0-1.545-1.095-3.441-2.433-4.214-.588-.34-1.123-.394-1.546-.231l-.008-.02-.112.065c-.033.016-.064.035-.095.054L155.834 124.5l.024.049c-.266.068-.494.217-.663.446l-.006-.01-4.678 6.563 7.97-.95-.005-.006c.144-.023.274-.078.394-.144l.005.008.05-.03c.004 0 .007-.002.01-.004l39.148-22.383-.005-.01c.458-.247.744-.794.744-1.582z" stroke="#33475C" stroke-width="2" stroke-linecap="round" stroke-linejoin="round"/>
        <path d="M159.592 128.926c0-1.505-1.066-3.353-2.37-4.104-.862-.499-1.612-.387-2.027.173l-.006-.009-4.678 6.562 7.97-.948-.004-.008c.667-.102 1.115-.694 1.115-1.666" fill="#FFF"/>
        <path d="M159.592 128.926c0-1.505-1.066-3.353-2.37-4.104-.862-.499-1.612-.387-2.027.173l-.006-.009-4.678 6.562 7.97-.948-.004-.008c.667-.102 1.115-.694 1.115-1.666z" stroke="#33475C" stroke-linecap="round" stroke-linejoin="round"/>
        <path d="M153.5 128.544c-.28-.16-.534-.18-.727-.089l-.326.446-1.936 2.647 3.282-.38.492-.057c.185-.118.3-.353.3-.686 0-.69-.488-1.536-1.085-1.88" fill="#33475C"/>
        <path d="M153.5 128.544c-.28-.16-.534-.18-.727-.089l-.326.446-1.936 2.647 3.282-.38.492-.057c.185-.118.3-.353.3-.686 0-.69-.488-1.536-1.085-1.88z" stroke="#33475C" stroke-width="2" stroke-linecap="round" stroke-linejoin="round"/>
        <path d="M190.067 104.714c.437-.223 1.02-.183 1.665.188 1.34.775 2.439 2.676 2.439 4.226 0 .738-.254 1.261-.662 1.53l-2.375 1.371c.364-.284.592-.782.592-1.476 0-1.555-1.102-3.463-2.45-4.24-.617-.358-1.178-.405-1.61-.213l2.4-1.386z" stroke="#33475C" stroke-linecap="round" stroke-linejoin="round"/>
        <path d="M158.403 130.097c-.025.004-.049.01-.072.017l-2.747.327.002-.016c0-1.044-.682-2.224-1.585-2.746-.03-.017-.06-.024-.09-.039l1.623-2.275c.023-.022.044-.046.063-.072.39-.526 1.091-.203 1.375-.038 1.15.663 2.12 2.344 2.12 3.671 0 .32-.068 1.077-.689 1.171" fill="#FEF8F0"/>
        <path d="M140.194 96.202c-.69 0-1.363-.36-1.734-1.001-.552-.956-.225-2.18.732-2.731l16.482-9.517c.957-.554 2.18-.224 2.733.732.552.956.224 2.18-.733 2.732l-16.482 9.516c-.314.182-.659.269-.998.269z" stroke="#33475C" stroke-width="5" stroke-linecap="round" stroke-linejoin="round"/>
        <path stroke="#33475C" stroke-width="5" stroke-linecap="round" stroke-linejoin="round" d="M164.164 88.83l-.294-2.007-1.493-2.237-1.147-.626-3.865 2.265-2.493 1.355.054.035-32.1 18.473 1.42.925.933 1.591.749 2.513 32.114-18.48-.014-.058 2.438-1.325z"/>
        <path d="M164.869 88.03c0-1.545-1.095-3.441-2.433-4.214-.59-.34-1.124-.393-1.546-.231l-.01-.02-.11.066c-.033.016-.064.034-.095.054l-38.795 22.399.025.048c-.266.068-.494.217-.664.447l-.006-.01-4.678 6.562 7.97-.95-.004-.006c.144-.022.273-.078.394-.144l.005.009.05-.03.007-.002 39.15-22.386-.005-.01c.457-.246.745-.793.745-1.582z" stroke="#33475C" stroke-width="5" stroke-linecap="round" stroke-linejoin="round"/>
        <path d="M125.638 110.508c0-1.505-1.066-3.352-2.37-4.104-.862-.498-1.618-.397-2.033.165 0 0-1.277.97-2.641 2.736-1.373 1.78-2.037 3.825-2.037 3.825s2.7.047 4.54-.145c1.729-.18 3.426-.81 3.426-.81.667-.102 1.115-.694 1.115-1.667z" stroke="#33475C" stroke-width="5" stroke-linecap="round" stroke-linejoin="round"/>
        <path d="M119.052 110.624c-.235-.135-.446-.15-.607-.075l-.272.372-1.617 2.21 2.74-.317.41-.047c.156-.1.251-.295.251-.575 0-.574-.406-1.28-.905-1.568zM164.869 88.03c0-1.545-1.095-3.441-2.433-4.214-.59-.34-1.124-.393-1.546-.231l-.01-.02-.11.066c-.033.016-.064.034-.095.054l-13.501 7.794c.393-.078.86.01 1.367.302 1.357.784 2.469 2.708 2.469 4.275 0 .58-.166 1.013-.427 1.312l13.546-7.746-.005-.01c.457-.246.745-.793.745-1.582zM145.231 112.324l-1.259 2.914c-2.319-1.46-3.034 1.016-3.034 1.016l-8.022.378 3.503-6.213c2.237.308 2.651-2.403 2.651-2.403h3.413l4.533-.17-1.785 4.478zM132.916 116.631l7.83-4.644" stroke="#33475C" stroke-width="5" stroke-linecap="round" stroke-linejoin="round"/>
        <path d="M142.287 111.834c0 .696-.564 1.261-1.261 1.261s-1.261-.565-1.261-1.26c0-.697.564-1.263 1.26-1.263.698 0 1.262.566 1.262 1.262zM180.597 91.852c0 1.443-1.013 2.028-2.264 1.307-1.25-.722-2.263-2.477-2.263-3.921s1.013-2.029 2.263-1.307c1.251.722 2.264 2.478 2.264 3.921z" stroke="#33475C" stroke-width="5" stroke-linecap="round" stroke-linejoin="round"/>
        <path d="M176.944 87.682c-22.466 5.683-34.46 20.334-34.46 20.334s2.663 1.134 2.747 4.308c0 0 16.956-2.833 34.85-19.108M148.554 111.514c-.536-3.42-2.46-5.139-3.792-5.929M178.245 94.838c-.873-3.366-2.797-5.28-4.338-6.308" stroke="#33475C" stroke-width="5" stroke-linecap="round" stroke-linejoin="round"/>
        <path d="M176.944 87.682c-22.466 5.683-34.46 20.334-34.46 20.334s2.663 1.134 2.747 4.308c0 0 16.956-2.833 34.85-19.108" stroke="#33475C" stroke-width="5" stroke-linecap="round" stroke-linejoin="round"/>
        <path d="M140.194 96.202c-.69 0-1.363-.36-1.734-1.001-.552-.956-.225-2.18.732-2.731l16.482-9.517c.957-.554 2.18-.224 2.733.732.552.956.224 2.18-.733 2.732l-16.482 9.516c-.314.182-.659.269-.998.269" fill="#FEF8F0"/>
        <path d="M140.194 96.202c-.69 0-1.363-.36-1.734-1.001-.552-.956-.225-2.18.732-2.731l16.482-9.517c.957-.554 2.18-.224 2.733.732.552.956.224 2.18-.733 2.732l-16.482 9.516c-.314.182-.659.269-.998.269z" stroke="#33475C" stroke-linecap="round" stroke-linejoin="round"/>
        <path fill="#98ACC3" d="M164.164 88.83l-.294-2.007-1.493-2.237-1.147-.626-3.865 2.265-2.493 1.355.054.035-32.1 18.473 1.42.925.933 1.591.749 2.513 32.114-18.48-.014-.058 2.438-1.325z"/>
        <path d="M164.869 88.03c0-1.545-1.095-3.441-2.433-4.214-.59-.34-1.124-.393-1.546-.231l-.01-.02-.11.066c-.033.016-.064.034-.095.054l-38.795 22.399.025.048c-.266.068-.494.217-.664.447l-.006-.01-4.678 6.562 7.97-.95-.004-.006c.144-.022.273-.078.394-.144l.005.009.05-.03.007-.002 39.15-22.386-.005-.01c.457-.246.745-.793.745-1.582z" stroke="#33475C" stroke-width="2" stroke-linecap="round" stroke-linejoin="round"/>
        <path d="M125.638 110.508c0-1.505-1.066-3.352-2.37-4.104-.862-.498-1.618-.397-2.033.165 0 0-1.277.97-2.641 2.736-1.373 1.78-2.037 3.825-2.037 3.825s2.7.047 4.54-.145c1.729-.18 3.426-.81 3.426-.81.667-.102 1.115-.694 1.115-1.667" fill="#FEF8F0"/>
        <path d="M125.638 110.508c0-1.505-1.066-3.352-2.37-4.104-.862-.498-1.618-.397-2.033.165 0 0-1.277.97-2.641 2.736-1.373 1.78-2.037 3.825-2.037 3.825s2.7.047 4.54-.145c1.729-.18 3.426-.81 3.426-.81.667-.102 1.115-.694 1.115-1.667z" stroke="#33475C" stroke-linecap="round" stroke-linejoin="round"/>
        <path d="M119.052 110.624c-.235-.135-.446-.15-.607-.075l-.272.372-1.617 2.21 2.74-.317.41-.047c.156-.1.251-.295.251-.575 0-.574-.406-1.28-.905-1.568" fill="#FEF8F0"/>
        <path d="M119.052 110.624c-.235-.135-.446-.15-.607-.075l-.272.372-1.617 2.21 2.74-.317.41-.047c.156-.1.251-.295.251-.575 0-.574-.406-1.28-.905-1.568z" stroke="#33475C" stroke-linecap="round" stroke-linejoin="round"/>
        <path d="M164.869 88.03c0-1.545-1.095-3.441-2.433-4.214-.59-.34-1.124-.393-1.546-.231l-.01-.02-.11.066c-.033.016-.064.034-.095.054l-13.501 7.794c.393-.078.86.01 1.367.302 1.357.784 2.469 2.708 2.469 4.275 0 .58-.166 1.013-.427 1.312l13.546-7.746-.005-.01c.457-.246.745-.793.745-1.582" fill="#506E91"/>
        <path d="M164.869 88.03c0-1.545-1.095-3.441-2.433-4.214-.59-.34-1.124-.393-1.546-.231l-.01-.02-.11.066c-.033.016-.064.034-.095.054l-13.501 7.794c.393-.078.86.01 1.367.302 1.357.784 2.469 2.708 2.469 4.275 0 .58-.166 1.013-.427 1.312l13.546-7.746-.005-.01c.457-.246.745-.793.745-1.582z" stroke="#33475C" stroke-width="2" stroke-linecap="round" stroke-linejoin="round"/>
        <path d="M145.231 112.324l-1.259 2.914c-2.319-1.46-3.034 1.016-3.034 1.016l-8.022.378 3.503-6.213c2.237.308 2.651-2.403 2.651-2.403h3.413l4.533-.17-1.785 4.478z" fill="#F6C364"/>
        <path d="M145.231 112.324l-1.259 2.914c-2.319-1.46-3.034 1.016-3.034 1.016l-8.022.378 3.503-6.213c2.237.308 2.651-2.403 2.651-2.403h3.413l4.533-.17-1.785 4.478z" stroke="#33475C" stroke-linecap="round" stroke-linejoin="round"/>
        <path d="M132.916 116.631l7.83-4.644" fill="#FFF"/>
        <path d="M132.916 116.631l7.83-4.644" stroke="#33475C" stroke-linecap="round" stroke-linejoin="round"/>
        <path d="M142.287 111.834c0 .696-.564 1.261-1.261 1.261s-1.261-.565-1.261-1.26c0-.697.564-1.263 1.26-1.263.698 0 1.262.566 1.262 1.262" fill="#33475C"/>
        <path d="M180.597 91.852c0 1.443-1.013 2.028-2.264 1.307-1.25-.722-2.263-2.477-2.263-3.921s1.013-2.029 2.263-1.307c1.251.722 2.264 2.478 2.264 3.921" fill="#B2743D"/>
        <path d="M180.597 91.852c0 1.443-1.013 2.028-2.264 1.307-1.25-.722-2.263-2.477-2.263-3.921s1.013-2.029 2.263-1.307c1.251.722 2.264 2.478 2.264 3.921z" stroke="#33475C" stroke-linecap="round" stroke-linejoin="round"/>
        <path d="M176.944 87.682c-22.466 5.683-34.46 20.334-34.46 20.334s2.663 1.134 2.747 4.308c0 0 16.956-2.833 34.85-19.108" fill="#B2743D"/>
        <path d="M176.944 87.682c-22.466 5.683-34.46 20.334-34.46 20.334s2.663 1.134 2.747 4.308c0 0 16.956-2.833 34.85-19.108" stroke="#33475C" stroke-linecap="round" stroke-linejoin="round"/>
        <path d="M148.554 111.514c-.536-3.42-2.46-5.139-3.792-5.929M178.245 94.838c-.873-3.366-2.797-5.28-4.338-6.308" stroke="#F6C364" stroke-linecap="round" stroke-linejoin="round"/>
        <path d="M176.944 87.682c-22.466 5.683-34.46 20.334-34.46 20.334s2.663 1.134 2.747 4.308c0 0 16.956-2.833 34.85-19.108" stroke="#33475C" stroke-linecap="round" stroke-linejoin="round"/>
        <path stroke="#33475C" stroke-width="5" stroke-linecap="round" stroke-linejoin="round" d="M103.721 56.932L121.159 67V4.57zM121.16 4.569V67l17.439 10.068zM56.071 124.715l82.527-47.646-34.877-20.137-82.527 47.646"/>
        <path stroke="#33475C" stroke-width="5" stroke-linecap="round" stroke-linejoin="round" d="M56.071 124.715l-17.438-72.5v.001l-17.439 52.362 17.84-.647z"/>
        <path stroke="#33475C" stroke-width="5" stroke-linecap="round" stroke-linejoin="round" d="M138.598 77.069l-82.527 47.646-17.439-72.5L121.16 4.569z"/>
        <path d="M56.071 124.715l89.642-63.272s-9.826 4.355-12.18-5.434l-77.462 68.706z" stroke="#33475C" stroke-width="5" stroke-linecap="round" stroke-linejoin="round"/>
        <path stroke="#33475C" stroke-width="5" stroke-linecap="round" stroke-linejoin="round" d="M56.071 124.715l82.527-47.646-2.989-12.427-31.888-7.71-82.527 47.646 17.84-.647z"/>
        <path stroke="#33475C" stroke-width="5" stroke-linecap="round" stroke-linejoin="round" d="M112.44 61.55L39.033 103.93l17.038 20.784 25.783-26.478z"/>
        <path stroke="#33475C" stroke-width="5" stroke-linecap="round" stroke-linejoin="round" d="M56.071 124.715l-17.038-20.784-17.839.647 17.84-.647zM133.533 56.01L121.159 4.57 38.633 52.214l17.438 72.5 89.642-63.272s-9.826 4.355-12.18-5.434z"/>
        <path stroke="#33475C" stroke-width="5" stroke-linecap="round" stroke-linejoin="round" d="M133.533 56.01L121.159 4.57 38.633 52.214M55.183 87.344l65.03-37.545M58.125 98.606L98.196 75.47M60.528 74.11l7.459 31.012M71.414 67l6.747 28.05M82.674 61.368l5.942 24.7"/>
        <path stroke="#33475C" stroke-width="5" stroke-linecap="round" stroke-linejoin="round" d="M127 28.85l-5.84-24.28-82.527 47.645 5.84 24.281M56.071 124.715l89.642-63.272s-9.826 4.355-12.18-5.434"/>
        <path fill="#FFF" d="M103.721 56.932L121.159 67V4.57z"/>
        <path stroke="#33475C" stroke-linecap="round" stroke-linejoin="round" d="M103.721 56.932L121.159 67V4.57z"/>
        <path fill="#FFF" d="M121.16 4.569V67l17.439 10.068z"/>
        <path stroke="#33475C" stroke-linecap="round" stroke-linejoin="round" d="M121.16 4.569V67l17.439 10.068zM56.071 124.715l82.527-47.646-34.877-20.137-82.527 47.646"/>
        <path fill="#E6EFF6" d="M56.071 124.715l-17.438-72.5v.001l-17.439 52.362 17.84-.647z"/>
        <path stroke="#33475C" stroke-linecap="round" stroke-linejoin="round" d="M56.071 124.715l-17.438-72.5v.001l-17.439 52.362 17.84-.647z"/>
        <path fill="#FFF" d="M138.598 77.069l-82.527 47.646-17.439-72.5L121.16 4.569z"/>
        <path stroke="#33475C" stroke-linecap="round" stroke-linejoin="round" d="M138.598 77.069l-82.527 47.646-17.439-72.5L121.16 4.569z"/>
        <path d="M56.071 124.715l89.642-63.272s-9.826 4.355-12.18-5.434l-77.462 68.706z" fill="#FFF"/>
        <path d="M56.071 124.715l89.642-63.272s-9.826 4.355-12.18-5.434l-77.462 68.706z" stroke="#33475C" stroke-linecap="round" stroke-linejoin="round"/>
        <path fill="#D4E7F7" d="M56.071 124.715l82.527-47.646-2.989-12.427-31.888-7.71-82.527 47.646 17.84-.647z"/>
        <path stroke="#33475C" d="M56.071 124.715l82.527-47.646-2.989-12.427-31.888-7.71-82.527 47.646 17.84-.647z"/>
        <path fill="#E6EFF6" d="M112.44 61.55L39.033 103.93l17.038 20.784 25.783-26.478z"/>
        <path stroke="#33475C" d="M112.44 61.55L39.033 103.93l17.038 20.784 25.783-26.478z"/>
        <path fill="#FFF" d="M56.071 124.715l-17.038-20.784-17.839.647 17.84-.647z"/>
        <path stroke="#33475C" stroke-linecap="round" stroke-linejoin="round" d="M56.071 124.715l-17.038-20.784-17.839.647 17.84-.647z"/>
        <path d="M133.533 56.01L121.159 4.57 38.633 52.214l17.438 72.5 89.642-63.272s-9.826 4.355-12.18-5.434" fill="#FFF"/>
        <path d="M133.533 56.01L121.159 4.57 38.633 52.214l17.438 72.5 89.642-63.272s-9.826 4.355-12.18-5.434z" stroke="#33475C" stroke-linecap="round" stroke-linejoin="round"/>
        <path fill="#FFF" d="M133.533 56.01L121.159 4.57 38.633 52.214"/>
        <path stroke="#33475C" stroke-linecap="round" stroke-linejoin="round" d="M133.533 56.01L121.159 4.57 38.633 52.214"/>
        <path d="M55.183 87.344l65.03-37.545" fill="#33475C"/>
        <path d="M55.183 87.344l65.03-37.545" stroke="#D4E7F7" stroke-linecap="round" stroke-linejoin="round"/>
        <path d="M58.125 98.606L98.196 75.47" fill="#33475C"/>
        <path d="M58.125 98.606L98.196 75.47" stroke="#D4E7F7" stroke-linecap="round" stroke-linejoin="round"/>
        <path d="M60.528 74.11l7.459 31.012" fill="#33475C"/>
        <path d="M60.528 74.11l7.459 31.012" stroke="#D4E7F7" stroke-linecap="round" stroke-linejoin="round"/>
        <g>
            <path d="M71.414 67l6.747 28.05" fill="#33475C"/>
            <path d="M71.414 67l6.747 28.05" stroke="#D4E7F7" stroke-linecap="round" stroke-linejoin="round"/>
        </g>
        <g>
            <path d="M82.674 61.368l5.942 24.7" fill="#33475C"/>
            <path d="M82.674 61.368l5.942 24.7" stroke="#D4E7F7" stroke-linecap="round" stroke-linejoin="round"/>
        </g>
        <g>
            <path fill="#F55257" d="M127 28.85l-5.84-24.28-82.527 47.645 5.84 24.281"/>
            <path stroke="#33475C" stroke-linecap="round" stroke-linejoin="round" d="M127 28.85l-5.84-24.28-82.527 47.645 5.84 24.281"/>
        </g>
        <g>
            <path d="M56.071 124.715l89.642-63.272s-9.826 4.355-12.18-5.434" fill="#E6EFF6"/>
            <path d="M56.071 124.715l89.642-63.272s-9.826 4.355-12.18-5.434" stroke="#33475C" stroke-linecap="round" stroke-linejoin="round"/>
        </g>
        <path d="M48.218 58.303c-.31 0-.625-.079-.912-.244-.872-.504-1.171-1.62-.667-2.492 1.295-2.246 1.295-6.185 0-8.43-.428-.74-.958-1.203-1.38-1.203-.423 0-.953.462-1.38 1.203-.463.804-.777 1.85-.907 3.025-.11 1.001-1.002 1.727-2.014 1.614-1.002-.11-1.724-1.012-1.614-2.015.185-1.672.66-3.21 1.373-4.448 1.113-1.924 2.769-3.029 4.543-3.029 1.773 0 3.428 1.105 4.54 3.028 1.953 3.387 1.953 8.692 0 12.078-.338.586-.951.913-1.582.913" fill="#F6C364"/>
        <path d="M58.101 52.69c-.31 0-.624-.078-.91-.245-.874-.503-1.173-1.62-.669-2.491 1.297-2.245 1.297-6.185 0-8.43-.427-.742-.955-1.202-1.379-1.202-.422 0-.95.46-1.379 1.202-.465.805-.779 1.85-.909 3.026-.108 1.002-.996 1.73-2.013 1.615-1.002-.112-1.725-1.013-1.615-2.015.186-1.674.662-3.213 1.376-4.451 1.112-1.923 2.767-3.027 4.54-3.027h.002c1.775 0 3.428 1.104 4.538 3.029 1.955 3.385 1.955 8.69 0 12.077-.338.585-.95.912-1.582.912" fill="#F6C364"/>
        <path d="M67.987 47.078c-.31 0-.624-.079-.91-.245-.874-.503-1.173-1.62-.669-2.491 1.297-2.245 1.297-6.184 0-8.43-.427-.742-.957-1.203-1.379-1.203-.424 0-.952.461-1.379 1.202-.465.806-.779 1.852-.909 3.027-.11 1-.992 1.732-2.013 1.614-1.002-.11-1.725-1.011-1.615-2.014.186-1.674.662-3.213 1.376-4.451 1.11-1.923 2.764-3.027 4.538-3.028h.002c1.773 0 3.428 1.104 4.54 3.028 1.955 3.387 1.955 8.692 0 12.078-.338.587-.95.913-1.582.913" fill="#F6C364"/>
        <path d="M77.873 41.466c-.31 0-.624-.078-.911-.244-.873-.503-1.172-1.62-.668-2.492 1.295-2.246 1.295-6.185 0-8.43-.427-.74-.957-1.202-1.38-1.202-.423 0-.952.461-1.38 1.202-.465.808-.78 1.853-.907 3.023-.108 1-1.017 1.722-2.012 1.616-1.001-.11-1.724-1.01-1.616-2.012.182-1.668.658-3.207 1.374-4.45 1.112-1.925 2.767-3.029 4.542-3.029 1.773 0 3.428 1.104 4.54 3.028 1.953 3.386 1.953 8.691 0 12.077-.338.586-.952.913-1.582.913" fill="#F6C364"/>
        <path d="M87.757 35.853c-.31 0-.624-.078-.911-.244-.873-.504-1.172-1.62-.668-2.492 1.297-2.245 1.297-6.183 0-8.428-.427-.742-.955-1.203-1.38-1.203-.421 0-.951.461-1.378 1.203-.465.803-.78 1.849-.91 3.025-.11 1.001-.982 1.726-2.012 1.614-1.002-.111-1.725-1.012-1.615-2.015.186-1.674.66-3.213 1.376-4.451 1.112-1.922 2.767-3.026 4.54-3.026h.002c1.774.001 3.428 1.104 4.538 3.029 1.957 3.384 1.957 8.69 0 12.076-.338.586-.952.912-1.582.912" fill="#F6C364"/>
        <path d="M97.642 30.242c-.31 0-.624-.078-.91-.245-.873-.503-1.173-1.62-.67-2.492 1.299-2.244 1.297-6.183 0-8.43-.426-.741-.955-1.202-1.378-1.202-.424 0-.951.46-1.38 1.202-.464.806-.777 1.852-.908 3.027-.11 1.002-1.006 1.729-2.013 1.614-1.001-.111-1.725-1.012-1.615-2.014.186-1.675.662-3.213 1.376-4.451 1.11-1.923 2.764-3.026 4.539-3.027 1.774 0 3.43 1.103 4.542 3.028 1.954 3.387 1.954 8.693 0 12.078-.34.585-.952.912-1.583.912M67.987 47.078c-.31 0-.624-.079-.91-.245-.874-.503-1.173-1.62-.669-2.491 1.297-2.245 1.297-6.184 0-8.43-.427-.742-.957-1.203-1.379-1.203-.424 0-.952.461-1.379 1.202-.465.806-.779 1.852-.909 3.027-.11 1-.992 1.732-2.013 1.614-1.002-.11-1.725-1.011-1.615-2.014.186-1.674.662-3.213 1.376-4.451 1.11-1.923 2.764-3.027 4.538-3.028h.002c1.773 0 3.428 1.104 4.54 3.028 1.955 3.387 1.955 8.692 0 12.078-.338.587-.95.913-1.582.913" fill="#F6C364"/>
        <path d="M107.526 24.63c-.31 0-.624-.079-.91-.246-.874-.503-1.173-1.619-.669-2.49 1.297-2.246 1.297-6.186.002-8.43-.428-.742-.957-1.203-1.379-1.203-.424 0-.954.461-1.38 1.202-.466.808-.78 1.853-.908 3.024-.11 1.001-1.005 1.713-2.012 1.617-1-.11-1.724-1.01-1.616-2.012.182-1.669.658-3.208 1.374-4.452 1.112-1.925 2.767-3.029 4.542-3.029 1.773 0 3.428 1.104 4.54 3.028 1.955 3.387 1.953 8.692-.002 12.078-.338.586-.952.912-1.582.912M77.873 41.466c-.31 0-.624-.078-.911-.244-.873-.503-1.172-1.62-.668-2.492 1.295-2.246 1.295-6.185 0-8.43-.427-.74-.957-1.202-1.38-1.202-.423 0-.952.461-1.38 1.202-.465.808-.78 1.853-.907 3.023-.108 1-1.017 1.722-2.012 1.616-1.001-.11-1.724-1.01-1.616-2.012.182-1.668.658-3.207 1.374-4.45 1.112-1.925 2.767-3.029 4.542-3.029 1.773 0 3.428 1.104 4.54 3.028 1.953 3.386 1.953 8.691 0 12.077-.338.586-.952.913-1.582.913" fill="#F6C364"/>
        <path d="M117.411 19.018c-.31 0-.624-.079-.91-.245-.873-.504-1.173-1.62-.669-2.492 1.298-2.245 1.298-6.184 0-8.429-.427-.742-.956-1.203-1.379-1.203-.424 0-.95.461-1.379 1.202-.465.806-.779 1.852-.909 3.026-.11 1.001-.999 1.722-2.013 1.614-1-.111-1.725-1.012-1.615-2.014.186-1.674.662-3.212 1.376-4.45 1.11-1.923 2.764-3.027 4.54-3.028 1.773 0 3.43 1.104 4.541 3.028 1.954 3.387 1.954 8.692 0 12.079-.339.585-.952.912-1.583.912" fill="#F6C364"/>
    </g>
</svg>
