<?xml version="1.0" encoding="UTF-8"?>
<svg width="98px" height="133px" viewBox="0 0 98 133" version="1.1" xmlns="http://www.w3.org/2000/svg" xmlns:xlink="http://www.w3.org/1999/xlink">
    <!-- Generator: Sketch 63.1 (92452) - https://sketch.com -->
    <title>Group 15</title>
    <desc>Created with Sketch.</desc>
    <g id="Rough-work" stroke="none" stroke-width="1" fill="none" fill-rule="evenodd">
        <g id="GS-explore-+-support-expanded" transform="translate(-653.000000, -266.000000)">
            <g id="Explore" transform="translate(50.000000, 266.000000)">
                <g id="Group-3" transform="translate(1.000000, 0.000000)">
                    <g id="Group-15" transform="translate(602.166352, -77.906135)">
                        <path d="M128.879295,21.8420973 C162.480651,55.4103135 188.459488,139.97766 177.426022,166.937269 C166.392556,193.896877 92.9692015,248.564521 63.0403943,175.436898 C33.1115871,102.309275 -28.6673428,132.499667 15.297668,60.1803635 C59.2626788,-12.13894 95.2779388,-11.7261188 128.879295,21.8420973 Z" id="Oval" fill="#F0F1FA"></path>
                        <path d="M47.5922734,61.1609321 C71.6051612,49.4478643 75.3782034,31.9061352 100.08781,31.9061352 C124.797417,31.9061352 136.833648,65.7002653 136.833648,93.6057764 C136.833648,121.511287 123.334796,140.906135 91.725577,140.906135 C60.116358,140.906135 23.5793857,72.8739999 47.5922734,61.1609321 Z" id="Mask-Copy" fill="#B4BBE8" transform="translate(88.333648, 86.406135) rotate(190.000000) translate(-88.333648, -86.406135) "></path>
                    </g>
                </g>
            </g>
        </g>
    </g>
</svg>