
<svg width="142" height="90" viewBox="0 0 142 90" xmlns="http://www.w3.org/2000/svg" xmlns:xlink="http://www.w3.org/1999/xlink">
    <defs>
        <path id="a" d="M0 81h141.03V.6H0z"/>
    </defs>
    <g fill="none" fill-rule="evenodd">
        <g transform="translate(0 9.054)">
            <mask id="b" fill="#fff">
                <use xlink:href="#a"/>
            </mask>
            <path d="M74.975 1.663c-2.453-1.416-6.467-1.416-8.92 0L1.833 38.742c-2.453 1.417-2.44 3.712.028 5.102l64.167 36.114c2.469 1.39 6.508 1.39 8.976 0l64.168-36.114c2.469-1.39 2.48-3.685.028-5.102L74.975 1.662z" fill-opacity=".5" fill="#F9D28C" mask="url(#b)"/>
        </g>
        <path d="M34.502 22.182c-1.772 0-3.208-.83-3.208-1.853 0-1.022 1.436-1.852 3.208-1.852 1.772 0 3.209.83 3.209 1.852 0 1.024-1.437 1.853-3.21 1.853zM103.945 50.5c-1.182 0-2.337.069-3.451.2l-30.71-17.786.012-.006-7.148-4.128-.076-.044-21.405-12.36c-3.732-2.154-9.741-2.131-13.472.024-1.881 1.087-2.818 2.499-2.818 3.907 0 1.403.929 2.802 2.779 3.87l28.63 16.53L87.08 58.502c-.211.622-.323 1.265-.323 1.923 0 5.482 7.696 9.925 17.189 9.925 2.21 0 4.322-.241 6.263-.68l-7.602-4.388c-2.693-1.555-2.718-4.062-.014-5.622 2.685-1.55 6.99-1.58 9.738.007l7.612 4.396c.769-1.126 1.192-2.354 1.192-3.638 0-5.48-7.696-9.924-17.19-9.924z" stroke="#33475C" stroke-width="5" stroke-linecap="round" stroke-linejoin="round"/>
        <path d="M34.502 13.448c-1.772 0-3.208-.83-3.208-1.853 0-1.023 1.436-1.852 3.208-1.852 1.772 0 3.209.829 3.209 1.852 0 1.023-1.437 1.853-3.21 1.853zm69.443 28.317c-1.182 0-2.337.069-3.451.2L69.784 24.18l.012-.006-7.148-4.128-.076-.043-21.405-12.36c-3.732-2.155-9.741-2.131-13.472.023-1.881 1.087-2.818 2.499-2.818 3.908 0 1.402.929 2.8 2.779 3.869l28.63 16.53L87.08 49.767c-.211.622-.323 1.265-.323 1.923 0 5.482 7.696 9.925 17.189 9.925 2.21 0 4.322-.241 6.263-.68l-7.602-4.388c-2.693-1.555-2.718-4.062-.014-5.622 2.685-1.55 6.99-1.58 9.738.008l7.612 4.396c.769-1.127 1.192-2.354 1.192-3.64 0-5.48-7.696-9.923-17.19-9.923z" stroke="#33475C" stroke-width="5" stroke-linecap="round" stroke-linejoin="round"/>
        <path d="M112.33 59.667l7.612 4.395c.77-1.126 1.192-2.354 1.192-3.637v-8.737c0 1.286-.423 2.512-1.192 3.64l-7.613-4.397c-2.748-1.586-7.053-1.558-9.738-.008-2.703 1.56-2.679 4.068.015 5.622l3.5 2.02c2.164-.252 4.5.107 6.223 1.102zM103.945 61.614c-9.493 0-17.19-4.443-17.19-9.925v8.736c0 5.48 7.697 9.924 17.19 9.924 2.209 0 4.322-.241 6.262-.68v-8.734c-1.94.438-4.053.679-6.262.679z" stroke="#33475C" stroke-width="5" stroke-linecap="round" stroke-linejoin="round"/>
        <path d="M86.756 51.689c0 .194.013.358.034.504-.015-.168-.034-.334-.034-.504z" stroke="#33475C" stroke-width="5" stroke-linecap="round" stroke-linejoin="round"/>
        <path d="M86.756 51.689c0-.658.111-1.301.322-1.923L56.286 31.972l-28.63-16.53c-1.851-1.068-2.78-2.467-2.78-3.87v8.735c0 1.403.929 2.802 2.78 3.87l28.63 16.532 30.47 17.606v-6.626zM34.502 13.448c-1.772 0-3.208-.83-3.208-1.853 0-1.023 1.436-1.852 3.208-1.852 1.772 0 3.209.829 3.209 1.852 0 1.023-1.437 1.853-3.21 1.853z" stroke="#33475C" stroke-width="5" stroke-linecap="round" stroke-linejoin="round"/>
        <path d="M119.297 8.863c0-2.16-1.538-4.813-3.417-5.898-.564-.326-1.088-.456-1.558-.446l-.011-.018S93.917 9.303 75.264 21.69C56.612 34.078 46.737 42.199 46.737 42.199l5.793 10.943c33.512-10.078 66.275-42.546 66.275-42.546l-.007-.012c.31-.412.499-.985.499-1.721z" stroke="#33475C" stroke-width="5" stroke-linecap="round" stroke-linejoin="round"/>
        <path d="M53.51 54.546l-.014-.025c.232-.595.379-1.285.379-2.103 0-3.768-2.684-8.4-5.964-10.295-.613-.353-1.195-.55-1.754-.673l-.021-.038c-.155-.03-.297-.043-.446-.064-.043-.005-.088-.016-.13-.019-4.57-.585-5.96 3.113-5.96 3.113l3.799 6.35c.275.527.578 1.038.915 1.528l3.597 6.013c3.199.013 4.845-2.38 5.389-3.366.045-.086.095-.166.136-.258.05-.103.075-.163.075-.163z" stroke="#33475C" stroke-width="5" stroke-linecap="round" stroke-linejoin="round"/>
        <path d="M38.29 43.262c-7.87 1.826-9.13 8.682-10.197 13.5-1.311 5.912-6.96 8.116-6.96 8.116S37.152 75.033 48.82 60.6c.082-.086.154-.185.229-.28.085-.109.172-.205.257-.317l-.026-.038c.545-.856.884-1.974.884-3.389 0-4.595-3.273-10.246-7.274-12.555-1.74-1.005-3.3-1.061-4.6-.759z" stroke="#33475C" stroke-width="5" stroke-linecap="round" stroke-linejoin="round"/>
        <path d="M48.82 60.6c.082-.086.153-.185.229-.28.084-.11.172-.205.257-.317l-.026-.04c.545-.854.883-1.972.883-3.386 0-4.362-2.958-9.64-6.678-12.143-2.935-1.472-7.986 2.002-10.69 10.76-2.882 9.34-11.661 9.683-11.661 9.683S37.15 75.034 48.82 60.6z" stroke="#33475C" stroke-width="5" stroke-linecap="round" stroke-linejoin="round"/>
        <path d="M48.82 60.6c.082-.086.153-.185.229-.28.084-.11.172-.205.257-.317l-.026-.04c.545-.854.883-1.972.883-3.386 0-2.194-.76-4.621-1.974-6.817-1.696-2.04-7-5.561-12.093 8.703-3.282 9.19-14.962 6.414-14.962 6.414S37.15 75.034 48.82 60.6z" stroke="#33475C" stroke-width="5" stroke-linecap="round" stroke-linejoin="round"/>
        <path d="M48.82 60.6c.082-.086.153-.185.229-.28.084-.11.172-.205.257-.317l-.026-.04c.545-.854.883-1.972.883-3.386 0-.555-.052-1.127-.143-1.706-.551-2.088-5.308-5.79-8.93 4.152-4.208 11.552-19.956 5.854-19.956 5.854S37.15 75.034 48.82 60.6z" stroke="#33475C" stroke-width="5" stroke-linecap="round" stroke-linejoin="round"/>
        <path d="M48.82 60.6c.082-.086.153-.185.229-.28.084-.11.172-.205.257-.317l-.026-.04c.378-.592.647-1.322.783-2.18l-.037-.072s-2.668-1.986-6.444 5.12c-5.262 9.902-22.448 2.046-22.448 2.046S37.15 75.034 48.82 60.6z" stroke="#33475C" stroke-width="5" stroke-linecap="round" stroke-linejoin="round"/>
        <path d="M38.29 43.262c-7.87 1.826-9.13 8.682-10.197 13.5-1.311 5.912-6.96 8.116-6.96 8.116S37.152 75.033 48.82 60.6c.082-.086.154-.185.229-.28.085-.109.172-.205.257-.317l-.026-.038c.545-.856.884-1.974.884-3.389 0-4.595-3.273-10.246-7.274-12.555-1.74-1.005-3.3-1.061-4.6-.759z" stroke="#33475C" stroke-width="5" stroke-linecap="round" stroke-linejoin="round"/>
        <path d="M34.502 22.182c-1.772 0-3.208-.83-3.208-1.853 0-1.022 1.436-1.852 3.208-1.852 1.772 0 3.209.83 3.209 1.852 0 1.024-1.437 1.853-3.21 1.853M103.946 50.5c-1.182 0-2.337.069-3.451.2l-30.71-17.786.012-.006-7.148-4.128-.076-.044-21.405-12.36c-3.732-2.154-9.741-2.131-13.472.024-1.881 1.087-2.818 2.499-2.818 3.907 0 1.403.929 2.802 2.779 3.87l28.63 16.53L87.08 58.502c-.211.622-.323 1.265-.323 1.923 0 5.482 7.696 9.925 17.189 9.925 2.21 0 4.322-.241 6.263-.68l-7.602-4.388c-2.693-1.555-2.718-4.062-.014-5.622 2.685-1.55 6.99-1.58 9.738.007l7.612 4.396c.769-1.126 1.192-2.354 1.192-3.638 0-5.48-7.696-9.924-17.19-9.924" fill="#FFF"/>
        <path d="M34.502 22.182c-1.772 0-3.208-.83-3.208-1.853 0-1.022 1.436-1.852 3.208-1.852 1.772 0 3.209.83 3.209 1.852 0 1.024-1.437 1.853-3.21 1.853zM103.945 50.5c-1.182 0-2.337.069-3.451.2l-30.71-17.786.012-.006-7.148-4.128-.076-.044-21.405-12.36c-3.732-2.154-9.741-2.131-13.472.024-1.881 1.087-2.818 2.499-2.818 3.907 0 1.403.929 2.802 2.779 3.87l28.63 16.53L87.08 58.502c-.211.622-.323 1.265-.323 1.923 0 5.482 7.696 9.925 17.189 9.925 2.21 0 4.322-.241 6.263-.68l-7.602-4.388c-2.693-1.555-2.718-4.062-.014-5.622 2.685-1.55 6.99-1.58 9.738.007l7.612 4.396c.769-1.126 1.192-2.354 1.192-3.638 0-5.48-7.696-9.924-17.19-9.924z" stroke="#33475C" stroke-linecap="round" stroke-linejoin="round"/>
        <path d="M34.502 13.448c-1.772 0-3.208-.83-3.208-1.853 0-1.023 1.436-1.852 3.208-1.852 1.772 0 3.209.829 3.209 1.852 0 1.023-1.437 1.853-3.21 1.853m69.444 28.317c-1.182 0-2.337.069-3.451.2L69.784 24.18l.012-.006-7.148-4.128-.076-.043-21.405-12.36c-3.732-2.155-9.741-2.131-13.472.023-1.881 1.087-2.818 2.499-2.818 3.908 0 1.402.929 2.8 2.779 3.869l28.63 16.53L87.08 49.767c-.211.622-.323 1.265-.323 1.923 0 5.482 7.696 9.925 17.189 9.925 2.21 0 4.322-.241 6.263-.68l-7.602-4.388c-2.693-1.555-2.718-4.062-.014-5.622 2.685-1.55 6.99-1.58 9.738.008l7.612 4.396c.769-1.127 1.192-2.354 1.192-3.64 0-5.48-7.696-9.923-17.19-9.923" fill="#CBD6E3"/>
        <path d="M34.502 13.448c-1.772 0-3.208-.83-3.208-1.853 0-1.023 1.436-1.852 3.208-1.852 1.772 0 3.209.829 3.209 1.852 0 1.023-1.437 1.853-3.21 1.853zm69.443 28.317c-1.182 0-2.337.069-3.451.2L69.784 24.18l.012-.006-7.148-4.128-.076-.043-21.405-12.36c-3.732-2.155-9.741-2.131-13.472.023-1.881 1.087-2.818 2.499-2.818 3.908 0 1.402.929 2.8 2.779 3.869l28.63 16.53L87.08 49.767c-.211.622-.323 1.265-.323 1.923 0 5.482 7.696 9.925 17.189 9.925 2.21 0 4.322-.241 6.263-.68l-7.602-4.388c-2.693-1.555-2.718-4.062-.014-5.622 2.685-1.55 6.99-1.58 9.738.008l7.612 4.396c.769-1.127 1.192-2.354 1.192-3.64 0-5.48-7.696-9.923-17.19-9.923z" stroke="#33475C" stroke-linecap="round" stroke-linejoin="round"/>
        <path d="M112.33 59.667l7.612 4.395c.77-1.126 1.192-2.354 1.192-3.637v-8.737c0 1.286-.423 2.512-1.192 3.64l-7.613-4.397c-2.748-1.586-7.053-1.558-9.738-.008-2.703 1.56-2.679 4.068.015 5.622l3.5 2.02c2.164-.252 4.5.107 6.223 1.102" fill="#98ACC3"/>
        <path d="M112.33 59.667l7.612 4.395c.77-1.126 1.192-2.354 1.192-3.637v-8.737c0 1.286-.423 2.512-1.192 3.64l-7.613-4.397c-2.748-1.586-7.053-1.558-9.738-.008-2.703 1.56-2.679 4.068.015 5.622l3.5 2.02c2.164-.252 4.5.107 6.223 1.102z" stroke="#33475C" stroke-linecap="round" stroke-linejoin="round"/>
        <path d="M103.945 61.614c-9.493 0-17.19-4.443-17.19-9.925v8.736c0 5.48 7.697 9.924 17.19 9.924 2.209 0 4.322-.241 6.262-.68v-8.734c-1.94.438-4.053.679-6.262.679" fill="#98ACC3"/>
        <path d="M103.945 61.614c-9.493 0-17.19-4.443-17.19-9.925v8.736c0 5.48 7.697 9.924 17.19 9.924 2.209 0 4.322-.241 6.262-.68v-8.734c-1.94.438-4.053.679-6.262.679z" stroke="#33475C" stroke-linecap="round" stroke-linejoin="round"/>
        <path d="M86.756 51.689c0 .194.013.358.034.504-.015-.168-.034-.334-.034-.504" fill="#FFF"/>
        <path d="M86.756 51.689c0 .194.013.358.034.504-.015-.168-.034-.334-.034-.504z" stroke="#33475C" stroke-linecap="round" stroke-linejoin="round"/>
        <path d="M86.756 51.689c0-.658.111-1.301.322-1.923L56.286 31.972l-28.63-16.53c-1.851-1.068-2.78-2.467-2.78-3.87v8.735c0 1.403.929 2.802 2.78 3.87l28.63 16.532 30.47 17.606v-6.626z" fill="#98ACC3"/>
        <path d="M86.756 51.689c0-.658.111-1.301.322-1.923L56.286 31.972l-28.63-16.53c-1.851-1.068-2.78-2.467-2.78-3.87v8.735c0 1.403.929 2.802 2.78 3.87l28.63 16.532 30.47 17.606v-6.626z" stroke="#33475C" stroke-linecap="round" stroke-linejoin="round"/>
        <path d="M34.502 13.448c-1.772 0-3.208-.83-3.208-1.853 0-1.023 1.436-1.852 3.208-1.852 1.772 0 3.209.829 3.209 1.852 0 1.023-1.437 1.853-3.21 1.853" fill="#98ACC3"/>
        <path d="M34.502 13.448c-1.772 0-3.208-.83-3.208-1.853 0-1.023 1.436-1.852 3.208-1.852 1.772 0 3.209.829 3.209 1.852 0 1.023-1.437 1.853-3.21 1.853z" stroke="#33475C" stroke-linecap="round" stroke-linejoin="round"/>
        <path d="M119.297 8.863c0-2.16-1.538-4.813-3.417-5.898-.564-.326-1.088-.456-1.558-.446l-.011-.018S93.917 9.303 75.264 21.69C56.612 34.078 46.737 42.199 46.737 42.199l5.793 10.943c33.512-10.078 66.275-42.546 66.275-42.546l-.007-.012c.31-.412.499-.985.499-1.721" fill="#00A4BF"/>
        <path d="M119.297 8.863c0-2.16-1.538-4.813-3.417-5.898-.564-.326-1.088-.456-1.558-.446l-.011-.018S93.917 9.303 75.264 21.69C56.612 34.078 46.737 42.199 46.737 42.199l5.793 10.943c33.512-10.078 66.275-42.546 66.275-42.546l-.007-.012c.31-.412.499-.985.499-1.721z" stroke="#33475C" stroke-linecap="round" stroke-linejoin="round"/>
        <path d="M53.51 54.546l-.014-.025c.232-.595.379-1.285.379-2.103 0-3.768-2.684-8.4-5.964-10.295-.613-.353-1.195-.55-1.754-.673l-.021-.038c-.155-.03-.297-.043-.446-.064-.043-.005-.088-.016-.13-.019-4.57-.585-5.96 3.113-5.96 3.113l3.799 6.35c.275.527.578 1.038.915 1.528l3.597 6.013c3.199.013 4.845-2.38 5.389-3.366.045-.086.095-.166.136-.258.05-.103.075-.163.075-.163" fill="#7CD1DF"/>
        <path d="M53.51 54.546l-.014-.025c.232-.595.379-1.285.379-2.103 0-3.768-2.684-8.4-5.964-10.295-.613-.353-1.195-.55-1.754-.673l-.021-.038c-.155-.03-.297-.043-.446-.064-.043-.005-.088-.016-.13-.019-4.57-.585-5.96 3.113-5.96 3.113l3.799 6.35c.275.527.578 1.038.915 1.528l3.597 6.013c3.199.013 4.845-2.38 5.389-3.366.045-.086.095-.166.136-.258.05-.103.075-.163.075-.163z" stroke="#33475C" stroke-linecap="round" stroke-linejoin="round"/>
        <path d="M38.29 43.262c-7.87 1.826-9.13 8.682-10.197 13.5-1.311 5.912-6.96 8.116-6.96 8.116S37.152 75.033 48.82 60.6c.082-.086.154-.185.229-.28.085-.109.172-.205.257-.317l-.026-.038c.545-.856.884-1.974.884-3.389 0-4.595-3.273-10.246-7.274-12.555-1.74-1.005-3.3-1.061-4.6-.759" fill="#DCAD83"/>
        <path d="M48.82 60.6c.082-.086.153-.185.229-.28.084-.11.172-.205.257-.317l-.026-.04c.545-.854.883-1.972.883-3.386 0-4.362-2.958-9.64-6.678-12.143-2.935-1.472-7.986 2.002-10.69 10.76-2.882 9.34-11.661 9.683-11.661 9.683S37.15 75.034 48.82 60.6" fill="#C9823D"/>
        <path d="M48.82 60.6c.082-.086.153-.185.229-.28.084-.11.172-.205.257-.317l-.026-.04c.545-.854.883-1.972.883-3.386 0-2.194-.76-4.621-1.974-6.817-1.696-2.04-7-5.561-12.093 8.703-3.282 9.19-14.962 6.414-14.962 6.414S37.15 75.034 48.82 60.6" fill="#D39B66"/>
        <path d="M48.82 60.6c.082-.086.153-.185.229-.28.084-.11.172-.205.257-.317l-.026-.04c.545-.854.883-1.972.883-3.386 0-.555-.052-1.127-.143-1.706-.551-2.088-5.308-5.79-8.93 4.152-4.208 11.552-19.956 5.854-19.956 5.854S37.15 75.034 48.82 60.6" fill="#C9823D"/>
        <path d="M48.82 60.6c.082-.086.153-.185.229-.28.084-.11.172-.205.257-.317l-.026-.04c.378-.592.647-1.322.783-2.18l-.037-.072s-2.668-1.986-6.444 5.12c-5.262 9.902-22.448 2.046-22.448 2.046S37.15 75.034 48.82 60.6" fill="#DCAD83"/>
        <path d="M38.29 43.262c-7.87 1.826-9.13 8.682-10.197 13.5-1.311 5.912-6.96 8.116-6.96 8.116S37.152 75.033 48.82 60.6c.082-.086.154-.185.229-.28.085-.109.172-.205.257-.317l-.026-.038c.545-.856.884-1.974.884-3.389 0-4.595-3.273-10.246-7.274-12.555-1.74-1.005-3.3-1.061-4.6-.759z" stroke="#33475C" stroke-linecap="round" stroke-linejoin="round"/>
    </g>
</svg>
