<svg width="154" height="181" viewBox="0 0 154 181" xmlns="http://www.w3.org/2000/svg">
    <g fill="none" fill-rule="evenodd">
        <path d="M92.918 98.927c-3.603-2.08-9.497-2.08-13.099 0l-73.63 42.51c-3.602 2.08-3.583 5.45.042 7.49l51.928 30.047c3.626 2.04 9.557 2.04 13.18 0l73.55-42.528c3.624-2.04 3.642-5.411.04-7.49l-52.011-30.03z" fill="#FBE1B2" opacity=".25"/>
        <path d="M4.163 121.478c-.815-.795-1.663-2.16-1.663-4.416V56.24c0-2.882 2.04-6.416 4.537-7.858l15.488-8.942L42.55 27.88l20.025-11.56 15.488-8.943c1.308-.755 2.488-.785 3.318-.232l.009-.002 3.134 2.084-1.924 1.105v63.793L62.575 85.688 42.55 97.248l-20.025 11.56-16.882 9.746v3.91l-.872-.582-.608-.404zM7.457 127.703c-.997-.576-1.813-1.99-1.813-3.143l-.002-2.095 5.622-1.293-.21 2.36 14.614-8.437 20.025-11.562L85.742 80.41l40.048 23.123 13.59 7.846v-.656h3.77v4.351h-.002c.008.956-.612 1.914-1.868 2.64l-15.49 8.941-20.024 11.562-20.025 11.561-15.489 8.943c-2.493 1.44-6.575 1.44-9.07 0l-15.49-8.943-20.024-11.56-18.21-10.515z" stroke="#33475C" stroke-width="5" stroke-linecap="round" stroke-linejoin="round"/>
        <path d="M25.668 134.026l20.025 11.562 15.489 8.942c2.494 1.44 6.576 1.44 9.07 0l15.49-8.942 20.024-11.562 20.025-11.56 15.489-8.943c2.494-1.44 2.494-3.798 0-5.238l-15.489-8.943-40.05-23.122-40.048 23.122-20.025 11.562-20.024 11.56 20.023 11.562" stroke="#33475C" stroke-width="5" stroke-linecap="round" stroke-linejoin="round"/>
        <path d="M65.717 87.781L45.693 99.343l-20.025 11.561-20.025 11.561V58.336c0-2.88 2.04-6.416 4.536-7.858l15.489-8.942 20.024-11.56 20.025-11.562 15.489-8.943c2.494-1.44 4.535-.26 4.536 2.62V76.22L65.717 87.781" stroke="#33475C" stroke-width="5" stroke-linecap="round" stroke-linejoin="round"/>
        <path d="M78.4 17.765c1.497-.864 2.722-.156 2.722 1.572v50.69c0 1.729-1.225 3.85-2.722 4.716L12.984 112.51c-1.497.864-2.722.157-2.722-1.571V60.247c0-1.728 1.225-3.85 2.722-4.713L78.4 17.764zM70.285 132.08c-2.116-1.222-2.116-3.22 0-4.442l23.912-13.806c2.116-1.222 5.578-1.222 7.693 0l12.332 7.12c2.115 1.221 2.115 3.22 0 4.441L90.31 139.2c-2.115 1.222-5.577 1.222-7.692 0l-12.332-7.12z" stroke="#33475C" stroke-width="5" stroke-linecap="round" stroke-linejoin="round"/>
        <path d="M70.285 132.08c-2.116-1.222-2.116-3.22 0-4.442l23.912-13.806c2.116-1.222 5.578-1.222 7.693 0l12.332 7.12c2.115 1.221 2.115 3.22 0 4.441L90.31 139.2c-2.115 1.222-5.577 1.222-7.692 0l-12.332-7.12zM28.02 122.99c-2.116-1.223-2.116-3.222 0-4.442l52.867-30.524c2.116-1.222 5.578-1.222 7.693 0l18.081 10.44c2.116 1.22 2.116 3.22 0 4.441l-52.867 30.522c-2.116 1.222-5.578 1.222-7.693 0L28.02 122.99z" stroke="#33475C" stroke-width="5" stroke-linecap="round" stroke-linejoin="round"/>
        <path d="M28.02 122.99c-2.116-1.223-2.116-3.222 0-4.442l52.867-30.524c2.116-1.222 5.578-1.222 7.693 0l18.081 10.44c2.116 1.22 2.116 3.22 0 4.441l-52.867 30.522c-2.116 1.222-5.578 1.222-7.693 0L28.02 122.99zM16.353 116.281l9.314-5.377 20.025-11.56 31.222-18.027 3.524 2.034-60.561 34.965z" stroke="#33475C" stroke-width="5" stroke-linecap="round" stroke-linejoin="round"/>
        <path d="M4.163 121.478c-.815-.795-1.663-2.16-1.663-4.416V56.24c0-2.882 2.04-6.416 4.537-7.858l15.488-8.942L42.55 27.88l20.025-11.56 15.488-8.943c1.308-.755 2.488-.785 3.318-.232l.009-.002 3.134 2.084-1.924 1.105v63.793L62.575 85.688 42.55 97.248l-20.025 11.56-16.882 9.746v3.91l-.872-.582-.608-.404z" fill="#CBD6E3"/>
        <path d="M4.163 121.478c-.815-.795-1.663-2.16-1.663-4.416V56.24c0-2.882 2.04-6.416 4.537-7.858l15.488-8.942L42.55 27.88l20.025-11.56 15.488-8.943c1.308-.755 2.488-.785 3.318-.232l.009-.002 3.134 2.084-1.924 1.105v63.793L62.575 85.688 42.55 97.248l-20.025 11.56-16.882 9.746v3.91l-.872-.582-.608-.404z" stroke="#33475C" stroke-linecap="round" stroke-linejoin="round"/>
        <path d="M7.457 127.703c-.997-.576-1.813-1.99-1.813-3.143l-.002-2.095 5.622-1.293-.21 2.36 14.614-8.437 20.025-11.562L85.742 80.41l40.048 23.123 13.59 7.846v-.656h3.77v4.351h-.002c.008.956-.612 1.914-1.868 2.64l-15.49 8.941-20.024 11.562-20.025 11.561-15.489 8.943c-2.493 1.44-6.575 1.44-9.07 0l-15.49-8.943-20.024-11.56-18.21-10.515z" fill="#CBD6E3"/>
        <path d="M7.457 127.703c-.997-.576-1.813-1.99-1.813-3.143l-.002-2.095 5.622-1.293-.21 2.36 14.614-8.437 20.025-11.562L85.742 80.41l40.048 23.123 13.59 7.846v-.656h3.77v4.351h-.002c.008.956-.612 1.914-1.868 2.64l-15.49 8.941-20.024 11.562-20.025 11.561-15.489 8.943c-2.493 1.44-6.575 1.44-9.07 0l-15.49-8.943-20.024-11.56-18.21-10.515z" stroke="#33475C" stroke-linecap="round" stroke-linejoin="round"/>
        <path d="M25.668 134.026l20.025 11.562 15.489 8.942c2.494 1.44 6.576 1.44 9.07 0l15.49-8.942 20.024-11.562 20.025-11.56 15.489-8.943c2.494-1.44 2.494-3.798 0-5.238l-15.489-8.943-40.05-23.122-40.048 23.122-20.025 11.562-20.024 11.56 20.023 11.562" fill="#E4EAEF"/>
        <path d="M25.668 134.026l20.025 11.562 15.489 8.942c2.494 1.44 6.576 1.44 9.07 0l15.49-8.942 20.024-11.562 20.025-11.56 15.489-8.943c2.494-1.44 2.494-3.798 0-5.238l-15.489-8.943-40.05-23.122-40.048 23.122-20.025 11.562-20.024 11.56 20.023 11.562" stroke="#33475C" stroke-linecap="round" stroke-linejoin="round"/>
        <path d="M65.717 87.781L45.693 99.343l-20.025 11.561-20.025 11.561V58.336c0-2.88 2.04-6.416 4.536-7.858l15.489-8.942 20.024-11.56 20.025-11.562 15.489-8.943c2.494-1.44 4.535-.26 4.536 2.62V76.22L65.717 87.781" fill="#32475C"/>
        <path d="M65.717 87.781L45.693 99.343l-20.025 11.561-20.025 11.561V58.336c0-2.88 2.04-6.416 4.536-7.858l15.489-8.942 20.024-11.56 20.025-11.562 15.489-8.943c2.494-1.44 4.535-.26 4.536 2.62V76.22L65.717 87.781" stroke="#33475C" stroke-linecap="round" stroke-linejoin="round"/>
        <path d="M78.4 17.765c1.497-.864 2.722-.156 2.722 1.572v50.69c0 1.729-1.225 3.85-2.722 4.716L12.984 112.51c-1.497.864-2.722.157-2.722-1.571V60.247c0-1.728 1.225-3.85 2.722-4.713L78.4 17.764z" fill="#415A77"/>
        <path d="M78.4 17.765c1.497-.864 2.722-.156 2.722 1.572v50.69c0 1.729-1.225 3.85-2.722 4.716L12.984 112.51c-1.497.864-2.722.157-2.722-1.571V60.247c0-1.728 1.225-3.85 2.722-4.713L78.4 17.764z" stroke="#33475C" stroke-linecap="round" stroke-linejoin="round"/>
        <path d="M70.285 132.08c-2.116-1.222-2.116-3.22 0-4.442l23.912-13.806c2.116-1.222 5.578-1.222 7.693 0l12.332 7.12c2.115 1.221 2.115 3.22 0 4.441L90.31 139.2c-2.115 1.222-5.577 1.222-7.692 0l-12.332-7.12z" fill="#EAF0F6"/>
        <path d="M70.285 132.08c-2.116-1.222-2.116-3.22 0-4.442l23.912-13.806c2.116-1.222 5.578-1.222 7.693 0l12.332 7.12c2.115 1.221 2.115 3.22 0 4.441L90.31 139.2c-2.115 1.222-5.577 1.222-7.692 0l-12.332-7.12z" stroke="#33475C"/>
        <path d="M28.02 122.99c-2.116-1.223-2.116-3.222 0-4.442l52.867-30.524c2.116-1.222 5.578-1.222 7.693 0l18.081 10.44c2.116 1.22 2.116 3.22 0 4.441l-52.867 30.522c-2.116 1.222-5.578 1.222-7.693 0L28.02 122.99z" fill="#CBD6E3"/>
        <path d="M28.02 122.99c-2.116-1.223-2.116-3.222 0-4.442l52.867-30.524c2.116-1.222 5.578-1.222 7.693 0l18.081 10.44c2.116 1.22 2.116 3.22 0 4.441l-52.867 30.522c-2.116 1.222-5.578 1.222-7.693 0L28.02 122.99z" stroke="#33475C" stroke-linecap="round" stroke-linejoin="round"/>
        <path fill="#415A77" d="M16.353 116.281l9.314-5.377 20.025-11.56 31.222-18.027 3.524 2.034-60.561 34.965z"/>
        <path stroke="#33475C" stroke-linecap="round" stroke-linejoin="round" d="M16.353 116.281l9.314-5.377 20.025-11.56 31.222-18.027 3.524 2.034-60.561 34.965z"/>
        <path d="M79.308 17.643c.998-.576 1.814-.105 1.814 1.047v53.834c0 1.152-.816 2.566-1.814 3.142l-67.231 38.817c-.998.576-1.814.104-1.814-1.048V59.6c0-1.152.816-2.566 1.814-3.143l67.23-38.815z" fill="#FFF"/>
        <path d="M79.308 17.643c.998-.576 1.814-.105 1.814 1.047v53.834c0 1.152-.816 2.566-1.814 3.142l-67.231 38.817c-.998.576-1.814.104-1.814-1.048V59.6c0-1.152.816-2.566 1.814-3.143l67.23-38.815z" stroke="#33475C" stroke-linecap="round" stroke-linejoin="round"/>
        <path d="M10.786 59.6c0-.971.71-2.202 1.553-2.687l67.23-38.817c.31-.18.588-.223.759-.125.172.1.27.362.27.719v29.97L10.787 88.965V59.6z" fill="#E5F5F8"/>
        <path d="M12.077 56.458l67.23-38.815c.999-.577 1.815-.106 1.815 1.046v3.55L10.262 63.15v-3.549c0-1.153.817-2.567 1.815-3.143" fill="#CBD6E3"/>
        <path d="M12.077 56.458l67.23-38.815c.999-.577 1.815-.106 1.815 1.046v3.55L10.262 63.15v-3.549c0-1.153.817-2.567 1.815-3.143z" stroke="#33475C" stroke-linecap="round" stroke-linejoin="round"/>
        <path d="M38.092 98.857V86.184c0-.63.446-1.403.992-1.719L75.848 63.24c.546-.315.993-.057.993.573v12.673L38.092 98.857z" fill="#E5F5F8"/>
        <path d="M79.308 17.643c.998-.576 1.814-.105 1.814 1.047v53.834c0 1.152-.816 2.566-1.814 3.142l-67.231 38.817c-.998.576-1.814.104-1.814-1.048V59.6c0-1.152.816-2.566 1.814-3.143l67.23-38.815z" stroke="#33475C" stroke-linecap="round" stroke-linejoin="round"/>
        <path d="M32.84 60.08s10.135-3.497 10.495 9.938M32.54 71.61s7.077-4.086 9.476-.069" stroke="#7CD1DF"/>
        <path d="M33.864 71.993l-15.463 8.928c-.768.443-1.397-.032-1.397-1.056s.63-2.226 1.397-2.67l15.463-8.927c.77-.444 1.397.032 1.397 1.056s-.628 2.226-1.397 2.67" fill="#E5F5F8"/>
        <path d="M33.864 71.993l-15.463 8.928c-.768.443-1.397-.032-1.397-1.056s.63-2.226 1.397-2.67l15.463-8.927c.77-.444 1.397.032 1.397 1.056s-.628 2.226-1.397 2.67z" stroke="#7CD1DF"/>
        <path d="M39.562 57.209l-15.463 8.928c-.768.443-1.398-.032-1.398-1.057 0-1.024.63-2.225 1.398-2.669l15.463-8.928c.768-.443 1.397.033 1.397 1.057s-.63 2.226-1.398 2.669" fill="#E5F5F8"/>
        <path d="M39.562 57.209l-15.463 8.928c-.768.443-1.398-.032-1.398-1.057 0-1.024.63-2.225 1.398-2.669l15.463-8.928c.768-.443 1.397.033 1.397 1.057s-.63 2.226-1.398 2.669zM32.84 92.384s10.135-8.205 10.495-22.055M32.54 81.201s7.077-4.086 9.476-10.872" stroke="#7CD1DF"/>
        <path d="M33.864 79.289l-15.463 8.927c-.768.444-1.397 1.645-1.397 2.67 0 1.024.63 1.499 1.397 1.055l15.463-8.927c.77-.444 1.397-1.645 1.397-2.669 0-1.025-.628-1.5-1.397-1.056" fill="#E5F5F8"/>
        <path d="M33.864 79.289l-15.463 8.927c-.768.444-1.397 1.645-1.397 2.67 0 1.024.63 1.499 1.397 1.055l15.463-8.927c.77-.444 1.397-1.645 1.397-2.669 0-1.025-.628-1.5-1.397-1.056z" stroke="#7CD1DF"/>
        <path d="M39.562 87.494l-15.463 8.928c-.768.443-1.398 1.644-1.398 2.67 0 1.023.63 1.5 1.398 1.055l15.463-8.927c.768-.444 1.397-1.645 1.397-2.669 0-1.025-.63-1.5-1.398-1.057" fill="#E5F5F8"/>
        <path d="M39.562 87.494l-15.463 8.928c-.768.443-1.398 1.644-1.398 2.67 0 1.023.63 1.5 1.398 1.055l15.463-8.927c.768-.444 1.397-1.645 1.397-2.669 0-1.025-.63-1.5-1.398-1.057zM58.544 45.24s-10.135 8.206-10.495 22.056M58.844 56.424s-7.077 4.086-9.476 10.872" stroke="#7CD1DF"/>
        <path d="M57.52 58.336l15.462-8.928c.769-.443 1.397-1.644 1.397-2.67 0-1.023-.629-1.5-1.397-1.054L57.52 54.61c-.77.445-1.398 1.646-1.398 2.67 0 1.025.629 1.499 1.398 1.056" fill="#E5F5F8"/>
        <path d="M57.52 58.336l15.462-8.928c.769-.443 1.397-1.644 1.397-2.67 0-1.023-.629-1.5-1.397-1.054L57.52 54.61c-.77.445-1.398 1.646-1.398 2.67 0 1.025.629 1.499 1.398 1.056z" stroke="#7CD1DF"/>
        <path d="M51.822 50.13l15.463-8.928c.768-.443 1.397-1.644 1.397-2.67 0-1.023-.629-1.498-1.397-1.054l-15.463 8.927c-.768.444-1.397 1.645-1.397 2.669 0 1.025.63 1.5 1.397 1.056" fill="#E5F5F8"/>
        <path d="M51.822 50.13l15.463-8.928c.768-.443 1.397-1.644 1.397-2.67 0-1.023-.629-1.498-1.397-1.054l-15.463 8.927c-.768.444-1.397 1.645-1.397 2.669 0 1.025.63 1.5 1.397 1.056zM58.544 77.544s-10.135 3.497-10.495-9.937M58.844 66.015s-7.077 4.086-9.476.069" stroke="#7CD1DF"/>
        <path d="M57.52 65.63l15.462-8.926c.769-.444 1.397.03 1.397 1.056 0 1.024-.629 2.225-1.397 2.669L57.52 69.357c-.77.443-1.398-.032-1.398-1.056s.629-2.226 1.398-2.67" fill="#E5F5F8"/>
        <path d="M57.52 65.63l15.462-8.926c.769-.444 1.397.03 1.397 1.056 0 1.024-.629 2.225-1.397 2.669L57.52 69.357c-.77.443-1.398-.032-1.398-1.056s.629-2.226 1.398-2.67z" stroke="#7CD1DF"/>
        <path d="M51.822 80.416l15.463-8.928c.768-.444 1.397.032 1.397 1.056s-.629 2.226-1.397 2.669l-15.463 8.928c-.768.443-1.397-.032-1.397-1.056s.63-2.226 1.397-2.669" fill="#E5F5F8"/>
        <path d="M51.822 80.416l15.463-8.928c.768-.444 1.397.032 1.397 1.056s-.629 2.226-1.397 2.669l-15.463 8.928c-.768.443-1.397-.032-1.397-1.056s.63-2.226 1.397-2.669z" stroke="#7CD1DF"/>
        <path d="M51.411 68.886l-11.362 6.56c-1.328.767-2.415-.054-2.415-1.826 0-1.77 1.087-3.847 2.415-4.614l11.362-6.56c1.328-.766 2.415.055 2.415 1.826 0 1.77-1.087 3.847-2.415 4.614" fill="#FFF"/>
        <path d="M51.411 68.886l-11.362 6.56c-1.328.767-2.415-.054-2.415-1.826 0-1.77 1.087-3.847 2.415-4.614l11.362-6.56c1.328-.766 2.415.055 2.415 1.826 0 1.77-1.087 3.847-2.415 4.614z" stroke="#60C8D9"/>
        <path stroke="#34475B" stroke-linecap="round" stroke-linejoin="round" stroke-dasharray="2,2,0,0" d="M94.82 124.895l29.55-17.06V79.32"/>
        <path d="M124.37 7c-11.99 0-21.71 9.72-21.71 21.709 0 4.481 1.358 8.645 3.684 12.104 1.178 1.75 2.607 3.315 4.231 4.653h-.007s4.002 3.251 4.006 6.501c0 .702.22 1.403.664 2.065.477.708 1.208 1.371 2.194 1.941 3.815 2.202 10.06 2.202 13.874 0 .986-.57 1.718-1.233 2.194-1.941.446-.662.664-1.363.664-2.065h.002c.004-3.25 4.006-6.501 4.006-6.501h-.008c1.623-1.338 3.053-2.903 4.23-4.653 2.327-3.459 3.684-7.623 3.684-12.104C146.078 16.72 136.36 7 124.37 7" fill="#FFF"/>
        <path d="M124.37 7c-11.99 0-21.71 9.72-21.71 21.709 0 4.481 1.358 8.645 3.684 12.104 1.178 1.75 2.607 3.315 4.231 4.653h-.007s4.002 3.251 4.006 6.501c0 .702.22 1.403.664 2.065.477.708 1.208 1.371 2.194 1.941 3.815 2.202 10.06 2.202 13.874 0 .986-.57 1.718-1.233 2.194-1.941.446-.662.664-1.363.664-2.065h.002c.004-3.25 4.006-6.501 4.006-6.501h-.008c1.623-1.338 3.053-2.903 4.23-4.653 2.327-3.459 3.684-7.623 3.684-12.104C146.078 16.72 136.36 7 124.37 7z" stroke="#FFF" stroke-width="14" opacity=".5" stroke-linecap="round" stroke-linejoin="round"/>
        <path d="M127.548 74.56c0 1.756-1.423 3.179-3.179 3.179-1.756 0-3.179-1.423-3.179-3.18 0-1.755 1.423-3.178 3.18-3.178 1.755 0 3.178 1.423 3.178 3.179z" stroke="#33475C" stroke-width="5" stroke-linecap="round" stroke-linejoin="round"/>
        <path d="M132.908 52.16H115.83v17.47c0 .611.194 1.222.582 1.8.415.616 1.053 1.194 1.912 1.69 3.324 1.92 8.765 1.92 12.089 0 .86-.496 1.496-1.074 1.912-1.69.388-.578.578-1.189.578-1.8h.004V52.16z" stroke="#33475C" stroke-width="5" stroke-linecap="round" stroke-linejoin="round"/>
        <path d="M126.65 66.129c0 1.253-1.015 2.269-2.268 2.269s-2.27-1.016-2.27-2.27c0-1.252 1.017-2.268 2.27-2.268 1.253 0 2.269 1.016 2.269 2.269z" stroke="#33475C" stroke-width="5" stroke-linecap="round" stroke-linejoin="round"/>
        <path d="M116.413 71.43c.415.616 1.052 1.194 1.912 1.69 3.324 1.919 8.764 1.919 12.09 0 .858-.496 1.495-1.074 1.911-1.69.387-.577.578-1.188.578-1.8h.004v-3.887h-.004c0 .612-.19 1.223-.578 1.8-.416.617-1.053 1.195-1.912 1.69-3.325 1.92-8.765 1.92-12.089 0-.86-.495-1.497-1.073-1.912-1.69-.388-.577-.582-1.188-.582-1.8v3.887c0 .612.194 1.223.582 1.8zM117.432 55.973c-.647-.374-1.173-.791-1.6-1.231v3.886c.427.44.953.858 1.6 1.23 3.815 2.204 10.06 2.204 13.875 0 .646-.372 1.173-.79 1.601-1.23v-3.886c-.428.44-.955.857-1.6 1.23-3.817 2.203-10.06 2.203-13.876 0z" stroke="#33475C" stroke-width="5" stroke-linecap="round" stroke-linejoin="round"/>
        <path d="M124.37 7c-11.99 0-21.71 9.72-21.71 21.709 0 4.481 1.358 8.645 3.684 12.104 1.178 1.75 2.607 3.315 4.231 4.653h-.007s4.002 3.251 4.006 6.501c0 .702.22 1.403.664 2.065.477.708 1.208 1.371 2.194 1.941 3.815 2.202 10.06 2.202 13.874 0 .986-.57 1.718-1.233 2.194-1.941.446-.662.664-1.363.664-2.065h.002c.004-3.25 4.006-6.501 4.006-6.501h-.008c1.623-1.338 3.053-2.903 4.23-4.653 2.327-3.459 3.684-7.623 3.684-12.104C146.078 16.72 136.36 7 124.37 7z" stroke="#33475C" stroke-width="5" stroke-linecap="round" stroke-linejoin="round"/>
        <path d="M114.654 15.102c3.626-1.496 6.169.463 5.65 4.351-.517 3.887-3.908 8.292-7.534 9.788-3.627 1.495-6.17-.463-5.652-4.35.518-3.89 3.91-8.294 7.536-9.789z" stroke="#33475C" stroke-width="5" stroke-linecap="round" stroke-linejoin="round"/>
        <path d="M106.826 20.339c2.046-2.488 4.646-2.057 5.778.96 1.132 3.016.385 7.519-1.661 10.008-2.046 2.488-4.646 2.056-5.78-.96-1.13-3.016-.383-7.52 1.663-10.008z" stroke="#33475C" stroke-width="5" stroke-linecap="round" stroke-linejoin="round"/>
        <path d="M114.833 12.277c2.644-.473 4.061 1.206 3.149 3.732-.912 2.527-3.82 4.981-6.464 5.455-2.643.473-4.061-1.207-3.149-3.732.912-2.526 3.82-4.98 6.464-5.455zM137.754 38.685c1.691-.303 2.597.77 2.014 2.388-.583 1.615-2.444 3.184-4.134 3.488-1.69.303-2.597-.772-2.014-2.388.583-1.615 2.443-3.184 4.134-3.488zM121.711 9.57c.92.272 1.103 1.036.407 1.696-.697.66-2.02.978-2.94.704-.92-.273-1.103-1.037-.406-1.697.696-.66 2.02-.976 2.94-.704z" stroke="#33475C" stroke-width="5" stroke-linecap="round" stroke-linejoin="round"/>
        <path d="M139.55 37.643c1.093-.516 1.905.048 1.805 1.253-.1 1.204-1.077 2.61-2.17 3.127-1.094.516-1.907-.05-1.806-1.253.1-1.205 1.077-2.612 2.17-3.127zM105.663 34.892c.122-.952.846-1.256 1.61-.674.764.58 1.289 1.836 1.167 2.788-.122.952-.846 1.255-1.61.674-.764-.582-1.29-1.836-1.167-2.788zM143.34 35.297c-.076-.586-.522-.773-.993-.415-.47.358-.794 1.132-.719 1.718.075.587.522.773.992.415.47-.358.794-1.131.72-1.718zM136.238 43.928c-.122-.952-.846-1.255-1.61-.674-.764.582-1.29 1.836-1.167 2.788.122.952.846 1.256 1.61.674.764-.581 1.289-1.836 1.167-2.788zM132.359 50.644c-.31-.253-.66-.495-1.052-.722-3.816-2.203-10.06-2.203-13.875 0-.392.227-.742.469-1.052.722" stroke="#33475C" stroke-width="5" stroke-linecap="round" stroke-linejoin="round"/>
        <path d="M129.356 51.084c2.743 1.082 2.743 2.852 0 3.933-2.743 1.082-7.23 1.082-9.974 0-2.743-1.081-2.743-2.851 0-3.933 2.743-1.082 7.231-1.082 9.974 0z" stroke="#33475C" stroke-width="5" stroke-linecap="round" stroke-linejoin="round"/>
        <path d="M121.834 55.745c-1.528 0-2.77-1.236-2.775-2.765-.014-4.065-.154-8.11-.763-11.55-.55.13-1.108.191-1.672.155-2.271-.137-5.131-1.512-5.854-7.282-.191-1.513.119-3.065.807-4.048.349-.497.955-1.165 1.873-1.53 1.984-.786 4.399-.109 6.012 1.69.264.294.514.6.752.92l.15-.947c.206-1.269 1.256-2.232 2.539-2.326.452-.032.883.044 1.276.208l.066-.39c.21-1.245 1.233-2.19 2.489-2.302.87-.072 1.699.257 2.269.862.265-1.1.532-2.2.802-3.298.229-.934.515-2.097 1.15-3.276 2.16-4.018 4.709-3.237 5.439-2.903 1.159.532 3.64 2.491 1.669 9.18-.358 1.213-.841 2.285-1.434 3.186-.996 1.513-2.215 2.466-3.365 3.186-.587 2.51-1.16 5.011-1.713 7.493-.611 2.734-1.371 6.137-1.218 8.741.089 1.53-1.078 2.843-2.61 2.932-1.515.085-2.841-1.078-2.931-2.608-.151-2.586.29-5.345.924-8.356-.056.006-.113.012-.17.016-.675.046-1.316-.152-1.831-.529.759 4.065.879 8.542.895 12.756.005 1.533-1.233 2.78-2.766 2.785h-.01z" stroke="#33475C" stroke-width="5" stroke-linecap="round" stroke-linejoin="round"/>
        <path d="M121.834 52.97c-.029-8.048-.502-16.312-4.438-20.702-.749-.835-1.963-1.345-2.921-.964-.269.107-.488.348-.623.54-.229.327-.447 1.18-.33 2.114.283 2.25.993 4.72 3.27 4.858 1.636.098 3.645-1.41 5.486-2.85l.827-5.136 2.25 7.136 1.626-9.624 1.411 3.916c2-1.575 4.343-2.062 5.92-4.455.499-.758.844-1.614 1.088-2.443.674-2.286 1.019-5.331-.164-5.874-.574-.264-1.381.846-1.838 1.696-.457.849-.684 1.75-.898 2.622-1.28 5.213-2.499 10.413-3.658 15.6-.733 3.28-1.448 6.63-1.279 9.507" stroke="#33475C" stroke-width="5" stroke-linecap="round" stroke-linejoin="round"/>
        <path d="M127.548 74.56c0 1.756-1.423 3.179-3.179 3.179-1.756 0-3.179-1.423-3.179-3.18 0-1.755 1.423-3.178 3.18-3.178 1.755 0 3.178 1.423 3.178 3.179" fill="#98ACC3"/>
        <path d="M127.548 74.56c0 1.756-1.423 3.179-3.179 3.179-1.756 0-3.179-1.423-3.179-3.18 0-1.755 1.423-3.178 3.18-3.178 1.755 0 3.178 1.423 3.178 3.179z" stroke="#33475C" stroke-linecap="round" stroke-linejoin="round"/>
        <path d="M132.908 52.16H115.83v17.47c0 .611.194 1.222.582 1.8.415.616 1.053 1.194 1.912 1.69 3.324 1.92 8.765 1.92 12.089 0 .86-.496 1.496-1.074 1.912-1.69.388-.578.578-1.189.578-1.8h.004V52.16z" fill="#98ACC3"/>
        <path d="M132.908 52.16H115.83v17.47c0 .611.194 1.222.582 1.8.415.616 1.053 1.194 1.912 1.69 3.324 1.92 8.765 1.92 12.089 0 .86-.496 1.496-1.074 1.912-1.69.388-.578.578-1.189.578-1.8h.004V52.16z" stroke="#33475C" stroke-linecap="round" stroke-linejoin="round"/>
        <path d="M126.65 66.129c0 1.253-1.015 2.269-2.268 2.269s-2.27-1.016-2.27-2.27c0-1.252 1.017-2.268 2.27-2.268 1.253 0 2.269 1.016 2.269 2.269" fill="#7B97B7"/>
        <path d="M126.65 66.129c0 1.253-1.015 2.269-2.268 2.269s-2.27-1.016-2.27-2.27c0-1.252 1.017-2.268 2.27-2.268 1.253 0 2.269 1.016 2.269 2.269z" stroke="#33475C" stroke-linecap="round" stroke-linejoin="round"/>
        <path d="M116.413 71.43c.415.616 1.052 1.194 1.912 1.69 3.324 1.919 8.764 1.919 12.09 0 .858-.496 1.495-1.074 1.911-1.69.387-.577.578-1.188.578-1.8h.004v-3.887h-.004c0 .612-.19 1.223-.578 1.8-.416.617-1.053 1.195-1.912 1.69-3.325 1.92-8.765 1.92-12.089 0-.86-.495-1.497-1.073-1.912-1.69-.388-.577-.582-1.188-.582-1.8v3.887c0 .612.194 1.223.582 1.8" fill="#7B97B7"/>
        <path d="M116.413 71.43c.415.616 1.052 1.194 1.912 1.69 3.324 1.919 8.764 1.919 12.09 0 .858-.496 1.495-1.074 1.911-1.69.387-.577.578-1.188.578-1.8h.004v-3.887h-.004c0 .612-.19 1.223-.578 1.8-.416.617-1.053 1.195-1.912 1.69-3.325 1.92-8.765 1.92-12.089 0-.86-.495-1.497-1.073-1.912-1.69-.388-.577-.582-1.188-.582-1.8v3.887c0 .612.194 1.223.582 1.8z" stroke="#33475C" stroke-linecap="round" stroke-linejoin="round"/>
        <path d="M117.432 55.973c-.647-.374-1.173-.791-1.6-1.231v3.886c.427.44.953.858 1.6 1.23 3.815 2.204 10.06 2.204 13.875 0 .646-.372 1.173-.79 1.601-1.23v-3.886c-.428.44-.955.857-1.6 1.23-3.817 2.203-10.06 2.203-13.876 0" fill="#7B97B7"/>
        <path d="M117.432 55.973c-.647-.374-1.173-.791-1.6-1.231v3.886c.427.44.953.858 1.6 1.23 3.815 2.204 10.06 2.204 13.875 0 .646-.372 1.173-.79 1.601-1.23v-3.886c-.428.44-.955.857-1.6 1.23-3.817 2.203-10.06 2.203-13.876 0z" stroke="#33475C" stroke-linecap="round" stroke-linejoin="round"/>
        <path d="M124.37 7c-11.99 0-21.71 9.72-21.71 21.709 0 4.481 1.358 8.645 3.684 12.104 1.178 1.75 2.607 3.315 4.231 4.653h-.007s4.002 3.251 4.006 6.501c0 .702.22 1.403.664 2.065.477.708 1.208 1.371 2.194 1.941 3.815 2.202 10.06 2.202 13.874 0 .986-.57 1.718-1.233 2.194-1.941.446-.662.664-1.363.664-2.065h.002c.004-3.25 4.006-6.501 4.006-6.501h-.008c1.623-1.338 3.053-2.903 4.23-4.653 2.327-3.459 3.684-7.623 3.684-12.104C146.078 16.72 136.36 7 124.37 7" fill="#FBE1B2"/>
        <path d="M124.37 7c-11.99 0-21.71 9.72-21.71 21.709 0 4.481 1.358 8.645 3.684 12.104 1.178 1.75 2.607 3.315 4.231 4.653h-.007s4.002 3.251 4.006 6.501c0 .702.22 1.403.664 2.065.477.708 1.208 1.371 2.194 1.941 3.815 2.202 10.06 2.202 13.874 0 .986-.57 1.718-1.233 2.194-1.941.446-.662.664-1.363.664-2.065h.002c.004-3.25 4.006-6.501 4.006-6.501h-.008c1.623-1.338 3.053-2.903 4.23-4.653 2.327-3.459 3.684-7.623 3.684-12.104C146.078 16.72 136.36 7 124.37 7z" stroke="#33475C" stroke-linecap="round" stroke-linejoin="round"/>
        <path d="M114.654 15.102c3.626-1.496 6.169.463 5.65 4.351-.517 3.887-3.908 8.292-7.534 9.788-3.627 1.495-6.17-.463-5.652-4.35.518-3.89 3.91-8.294 7.536-9.789" fill="#FFF" opacity=".35"/>
        <path d="M106.826 20.339c2.046-2.488 4.646-2.057 5.778.96 1.132 3.016.385 7.519-1.661 10.008-2.046 2.488-4.646 2.056-5.78-.96-1.13-3.016-.383-7.52 1.663-10.008" fill="#FFF" opacity=".25"/>
        <path d="M114.833 12.277c2.644-.473 4.061 1.206 3.149 3.732-.912 2.527-3.82 4.981-6.464 5.455-2.643.473-4.061-1.207-3.149-3.732.912-2.526 3.82-4.98 6.464-5.455" fill="#FFF"/>
        <path d="M137.754 38.685c1.691-.303 2.597.77 2.014 2.388-.583 1.615-2.444 3.184-4.134 3.488-1.69.303-2.597-.772-2.014-2.388.583-1.615 2.443-3.184 4.134-3.488" fill="#FFF" opacity=".35"/>
        <path d="M121.711 9.57c.92.272 1.103 1.036.407 1.696-.697.66-2.02.978-2.94.704-.92-.273-1.103-1.037-.406-1.697.696-.66 2.02-.976 2.94-.704M139.55 37.643c1.093-.516 1.905.048 1.805 1.253-.1 1.204-1.077 2.61-2.17 3.127-1.094.516-1.907-.05-1.806-1.253.1-1.205 1.077-2.612 2.17-3.127" fill="#FFF"/>
        <path d="M105.663 34.892c.122-.952.846-1.256 1.61-.674.764.58 1.289 1.836 1.167 2.788-.122.952-.846 1.255-1.61.674-.764-.582-1.29-1.836-1.167-2.788" fill-opacity=".25" fill="#FFF" opacity=".3"/>
        <path d="M143.34 35.297c-.076-.586-.522-.773-.993-.415-.47.358-.794 1.132-.719 1.718.075.587.522.773.992.415.47-.358.794-1.131.72-1.718" fill="#FFF"/>
        <path d="M136.238 43.928c-.122-.952-.846-1.255-1.61-.674-.764.582-1.29 1.836-1.167 2.788.122.952.846 1.256 1.61.674.764-.581 1.289-1.836 1.167-2.788" fill="#FFF" opacity=".35"/>
        <path d="M132.359 50.644c-.31-.253-.66-.495-1.052-.722-3.816-2.203-10.06-2.203-13.875 0-.392.227-.742.469-1.052.722" stroke="#F6C364" opacity=".25" stroke-linecap="round" stroke-linejoin="round"/>
        <path d="M129.356 51.084c2.743 1.082 2.743 2.852 0 3.933-2.743 1.082-7.23 1.082-9.974 0-2.743-1.081-2.743-2.851 0-3.933 2.743-1.082 7.231-1.082 9.974 0z" stroke="#F6C364" opacity=".25" stroke-linecap="round" stroke-linejoin="round"/>
        <path d="M121.834 55.745c-1.528 0-2.77-1.236-2.775-2.765-.014-4.065-.154-8.11-.763-11.55-.55.13-1.108.191-1.672.155-2.271-.137-5.131-1.512-5.854-7.282-.191-1.513.119-3.065.807-4.048.349-.497.955-1.165 1.873-1.53 1.984-.786 4.399-.109 6.012 1.69.264.294.514.6.752.92l.15-.947c.206-1.269 1.256-2.232 2.539-2.326.452-.032.883.044 1.276.208l.066-.39c.21-1.245 1.233-2.19 2.489-2.302.87-.072 1.699.257 2.269.862.265-1.1.532-2.2.802-3.298.229-.934.515-2.097 1.15-3.276 2.16-4.018 4.709-3.237 5.439-2.903 1.159.532 3.64 2.491 1.669 9.18-.358 1.213-.841 2.285-1.434 3.186-.996 1.513-2.215 2.466-3.365 3.186-.587 2.51-1.16 5.011-1.713 7.493-.611 2.734-1.371 6.137-1.218 8.741.089 1.53-1.078 2.843-2.61 2.932-1.515.085-2.841-1.078-2.931-2.608-.151-2.586.29-5.345.924-8.356-.056.006-.113.012-.17.016-.675.046-1.316-.152-1.831-.529.759 4.065.879 8.542.895 12.756.005 1.533-1.233 2.78-2.766 2.785h-.01z" fill="#FFF" opacity=".3"/>
        <path d="M121.834 52.97c-.029-8.048-.502-16.312-4.438-20.702-.749-.835-1.963-1.345-2.921-.964-.269.107-.488.348-.623.54-.229.327-.447 1.18-.33 2.114.283 2.25.993 4.72 3.27 4.858 1.636.098 3.645-1.41 5.486-2.85l.827-5.136 2.25 7.136 1.626-9.624 1.411 3.916c2-1.575 4.343-2.062 5.92-4.455.499-.758.844-1.614 1.088-2.443.674-2.286 1.019-5.331-.164-5.874-.574-.264-1.381.846-1.838 1.696-.457.849-.684 1.75-.898 2.622-1.28 5.213-2.499 10.413-3.658 15.6-.733 3.28-1.448 6.63-1.279 9.507" stroke="#FFF" stroke-linecap="round" stroke-linejoin="round"/>
        <path d="M45.845 96.598l48.974 28.298" stroke="#34475B" stroke-linecap="round" stroke-linejoin="round" stroke-dasharray="2,2,0,0"/>
        <path d="M79.308 17.643c.998-.576 1.814-.105 1.814 1.047v53.834c0 1.152-.816 2.566-1.814 3.142l-67.231 38.816c-.998.576-1.814.105-1.814-1.047V59.6c0-1.152.816-2.566 1.814-3.143l67.23-38.815z" fill="#FFF"/>
        <path d="M79.308 17.643c.998-.576 1.814-.105 1.814 1.047v53.834c0 1.152-.816 2.566-1.814 3.142l-67.231 38.816c-.998.576-1.814.105-1.814-1.047V59.6c0-1.152.816-2.566 1.814-3.143l67.23-38.815z" stroke="#33475C" stroke-linecap="round" stroke-linejoin="round"/>
        <path d="M10.786 59.6c0-.971.71-2.202 1.553-2.687l67.23-38.817c.31-.18.588-.223.759-.125.172.1.27.362.27.719v29.97L10.787 88.965V59.6z" fill="#E5F5F8"/>
        <path d="M38.092 98.857V86.184c0-.63.446-1.403.992-1.719L75.848 63.24c.546-.316.993-.058.993.573v12.672L38.092 98.857z" fill="#E5F5F8" opacity=".75"/>
        <path d="M79.308 17.643c.998-.576 1.814-.105 1.814 1.047v53.834c0 1.152-.816 2.566-1.814 3.142l-67.231 38.816c-.998.576-1.814.105-1.814-1.047V59.6c0-1.152.816-2.566 1.814-3.143l67.23-38.815z" stroke="#33475C" stroke-linecap="round" stroke-linejoin="round"/>
        <path d="M10.263 103.252c5.223-6.114 12.7-17.513 13.102-32.996M50.496 80.216s-17.502 6.039-18.124-17.16M51.014 60.305s-12.221 7.056-16.363.12" stroke="#7CD1DF"/>
        <path d="M48.727 59.643l26.704-15.417c1.327-.767 2.413.055 2.413 1.823 0 1.77-1.086 3.844-2.413 4.61L48.727 66.077c-1.327.765-2.412-.055-2.412-1.824 0-1.77 1.085-3.843 2.412-4.61" fill="#FFF"/>
        <path d="M48.727 59.643l26.704-15.417c1.327-.767 2.413.055 2.413 1.823 0 1.77-1.086 3.844-2.413 4.61L48.727 66.077c-1.327.765-2.412-.055-2.412-1.824 0-1.77 1.085-3.843 2.412-4.61z" stroke="#7CD1DF"/>
        <path d="M38.888 85.175l26.704-15.418c1.327-.766 2.413.055 2.413 1.824 0 1.769-1.086 3.843-2.413 4.61L38.888 91.608c-1.327.766-2.412-.054-2.412-1.824s1.085-3.843 2.412-4.61" fill="#FFF"/>
        <path d="M38.888 85.175l26.704-15.418c1.327-.766 2.413.055 2.413 1.824 0 1.769-1.086 3.843-2.413 4.61L38.888 91.608c-1.327.766-2.412-.054-2.412-1.824s1.085-3.843 2.412-4.61z" stroke="#7CD1DF"/>
        <path d="M12.077 56.458l67.23-38.815c.999-.577 1.815-.106 1.815 1.046v3.55L10.262 63.15v-3.549c0-1.153.817-2.567 1.815-3.143" fill="#CBD6E3"/>
        <path d="M12.077 56.458l67.23-38.815c.999-.577 1.815-.106 1.815 1.046v3.55L10.262 63.15v-3.549c0-1.153.817-2.567 1.815-3.143z" stroke="#33475C" stroke-linecap="round" stroke-linejoin="round"/>
        <path d="M38.178 65.264L18.556 76.593c-2.293 1.324-4.17-.095-4.17-3.153 0-3.06 1.877-6.645 4.17-7.97l19.622-11.327c2.294-1.324 4.171.094 4.171 3.152 0 3.059-1.877 6.645-4.17 7.969" fill="#FFF"/>
        <path d="M38.178 65.264L18.556 76.593c-2.293 1.324-4.17-.095-4.17-3.153 0-3.06 1.877-6.645 4.17-7.97l19.622-11.327c2.294-1.324 4.171.094 4.171 3.152 0 3.059-1.877 6.645-4.17 7.969z" stroke="#60C8D9"/>
        <path d="M23.06 68.432l6.164-3.56" fill="#FFF"/>
        <path d="M23.06 68.432l6.164-3.56" stroke="#60C8D9" stroke-linecap="round" stroke-linejoin="round"/>
        <path d="M18.786 70.9l2.107-1.218" fill="#FFF"/>
        <path d="M18.786 70.9l2.107-1.218" stroke="#60C8D9" stroke-linecap="round" stroke-linejoin="round"/>
        <g>
            <path d="M31.53 63.542l2.57-1.483" fill="#FFF"/>
            <path d="M31.53 63.542l2.57-1.483" stroke="#60C8D9" stroke-linecap="round" stroke-linejoin="round"/>
        </g>
        <g>
            <path d="M36.115 60.895l1.701-.983" fill="#FFF"/>
            <path d="M36.115 60.895l1.701-.983" stroke="#60C8D9" stroke-linecap="round" stroke-linejoin="round"/>
        </g>
        <path d="M79.308 17.643c.998-.576 1.814-.105 1.814 1.047v53.834c0 1.152-.816 2.566-1.814 3.142l-67.231 38.816c-.998.576-1.814.105-1.814-1.047V59.6c0-1.152.816-2.566 1.814-3.143l67.23-38.815z" stroke="#33475C" stroke-linecap="round" stroke-linejoin="round"/>
        <path d="M45.845 95.903v-7.258" stroke="#34475B" stroke-linecap="round" stroke-linejoin="round" stroke-dasharray="2,2,0,0"/>
    </g>
</svg>
