
<svg viewBox="0 0 230 202" xmlns="http://www.w3.org/2000/svg">
    <title>
        Page 1
    </title>
    <g fill="none" fill-rule="evenodd">
        <path d="M122.273 72.596c-4-2.31-10.546-2.31-14.547 0L2.986 133.068c-4 2.31-3.98 6.053.046 8.318l104.65 58.898c4.024 2.266 10.61 2.266 14.637 0l104.647-58.898c4.026-2.265 4.046-6.01.046-8.318l-104.74-60.472z" fill="#FF8F52" opacity=".2"/>
        <path d="M122.025 103.355l24.957 14.41c1.262.727 3.487.635 4.944-.206l24.993-18.847c1.457-.842 1.616-2.126.354-2.855l-17.307-9.992c-1.262-.73-3.487-.637-4.945.205L122.38 100.5c-1.457.842-1.617 2.126-.355 2.855z" stroke="#33475C" stroke-width="6"/>
        <path d="M122.025 103.355l24.957 14.41c1.262.727 3.487.635 4.944-.206l24.993-18.847c1.457-.842 1.616-2.126.354-2.855l-17.307-9.992c-1.262-.73-3.487-.637-4.945.205L122.38 100.5c-1.457.842-1.617 2.126-.355 2.855z" stroke="#33475C" stroke-width="6"/>
        <path d="M122.025 103.355l24.957 14.41c1.262.727 3.487.635 4.944-.206l24.993-18.847c1.457-.842 1.616-2.126.354-2.855l-17.307-9.992c-1.262-.73-3.487-.637-4.945.205L122.38 100.5c-1.457.842-1.617 2.126-.355 2.855z" stroke="#33475C" stroke-width="6"/>
        <path d="M197.328 55.773c0-3.073-2.177-6.844-4.838-8.38l-16.52-9.538-21.36-12.332-21.357-12.33-16.52-9.54c-1.15-.663-2.21-.803-3.043-.502l-5.374 3.104c.832-.3 1.89-.16 3.042.503l16.52 9.538 21.358 12.332 21.36 12.33 16.52 9.54c2.66 1.535 4.837 5.306 4.837 8.38v62.814c0 1.322-.404 2.304-1.074 2.876l5.373-3.102c.67-.572 1.075-1.555 1.075-2.877V55.772z" stroke="#33475C" stroke-width="6"/>
        <path d="M106.52 53.29v19.075c0 3.073 2.177 6.844 4.838 8.38l16.52 9.538 21.36 12.33 21.357 12.333 16.52 9.538c2.66 1.536 4.84.28 4.84-2.794V58.876c0-3.073-2.18-6.844-4.84-8.38l-16.52-9.538-21.358-12.332-21.36-12.33-16.52-9.54c-2.66-1.536-4.837-.278-4.837 2.794v43.74" stroke="#33475C" stroke-width="6"/>
        <path d="M106.52 65.07v7.295c0 3.073 2.177 6.844 4.838 8.38l16.52 9.538 21.36 12.332 21.357 12.33 16.52 9.54c2.66 1.535 4.84.278 4.84-2.794v-7.294L106.52 65.07z" stroke="#33475C" stroke-width="6"/>
        <path d="M106.52 53.29v19.075c0 3.073 2.177 6.844 4.838 8.38l16.52 9.538 21.36 12.33 21.357 12.333 16.52 9.538c2.66 1.536 4.84.28 4.84-2.794V58.876c0-3.073-2.18-6.844-4.84-8.38l-16.52-9.538-21.358-12.332-21.36-12.33-16.52-9.54c-2.66-1.536-4.837-.278-4.837 2.794v43.74" stroke="#33475C" stroke-width="6"/>
        <path d="M106.52 65.07v7.295c0 3.073 2.177 6.844 4.838 8.38l16.52 9.538 21.36 12.332 21.357 12.33 16.52 9.54c2.66 1.535 4.84.278 4.84-2.794v-7.294L106.52 65.07z" stroke="#33475C" stroke-width="6"/>
        <path stroke="#33475C" stroke-width="6" d="M149.044 22.31l-16.118-9.307-8.28 1.365 19.742 81.826 14.84 9.106-19.65-81.432z"/>
        <path stroke="#33475C" stroke-width="6" d="M157.03 26.92l-4.577-2.643-9.41 1.55 19.192 79.536 3.258-.787-18.344-76.028z"/>
        <path stroke="#33475C" stroke-width="6" d="M145.23 20.106l-8.49-4.9-8.675 1.43 18.767 77.78 8.093 4.966L136.158 21.6z"/>
        <path d="M197.328 55.773c0-3.073-2.177-6.844-4.838-8.38l-16.52-9.538-21.36-12.332-21.357-12.33-16.52-9.54c-1.15-.663-2.21-.803-3.043-.502l-5.374 3.104c.832-.3 1.89-.16 3.042.503l16.52 9.538 21.358 12.332 21.36 12.33 16.52 9.54c2.66 1.535 4.837 5.306 4.837 8.38v62.814c0 1.322-.404 2.304-1.074 2.876l5.373-3.102c.67-.572 1.075-1.555 1.075-2.877V55.772z" stroke="#33475C" stroke-width="6"/>
        <path d="M197.328 118.587v-7.372l-5.375 3.102v7.373c0 1.32-.404 2.304-1.074 2.876l5.373-3.103c.67-.572 1.075-1.555 1.075-2.876z" stroke="#33475C" stroke-width="6"/>
        <path d="M122.025 103.355l24.957 14.41c1.262.727 3.487.635 4.944-.206l24.993-18.847c1.457-.842 1.616-2.126.354-2.855l-17.307-9.992c-1.262-.73-3.487-.637-4.945.205L122.38 100.5c-1.457.842-1.617 2.126-.355 2.855" fill="#EBF0F7"/>
        <path d="M122.025 103.355l24.957 14.41c1.262.727 3.487.635 4.944-.206l24.993-18.847c1.457-.842 1.616-2.126.354-2.855l-17.307-9.992c-1.262-.73-3.487-.637-4.945.205L122.38 100.5c-1.457.842-1.617 2.126-.355 2.855z" stroke="#33475C" stroke-linecap="round" stroke-linejoin="round"/>
        <path d="M122.025 103.355l24.957 14.41c1.262.727 3.487.635 4.944-.206l24.993-18.847c1.457-.842 1.616-2.126.354-2.855l-17.307-9.992c-1.262-.73-3.487-.637-4.945.205L122.38 100.5c-1.457.842-1.617 2.126-.355 2.855" fill="#EBF0F7"/>
        <path d="M122.025 103.355l24.957 14.41c1.262.727 3.487.635 4.944-.206l24.993-18.847c1.457-.842 1.616-2.126.354-2.855l-17.307-9.992c-1.262-.73-3.487-.637-4.945.205L122.38 100.5c-1.457.842-1.617 2.126-.355 2.855z" stroke="#33475C" stroke-linecap="round" stroke-linejoin="round"/>
        <path d="M197.328 55.773c0-3.073-2.177-6.844-4.838-8.38l-16.52-9.538-21.36-12.332-21.357-12.33-16.52-9.54c-1.15-.663-2.21-.803-3.043-.502l-5.374 3.104c.832-.3 1.89-.16 3.042.503l16.52 9.538 21.358 12.332 21.36 12.33 16.52 9.54c2.66 1.535 4.837 5.306 4.837 8.38v62.814c0 1.322-.404 2.304-1.074 2.876l5.373-3.102c.67-.572 1.075-1.555 1.075-2.877V55.772z" fill="#7C98B6"/>
        <path d="M197.328 55.773c0-3.073-2.177-6.844-4.838-8.38l-16.52-9.538-21.36-12.332-21.357-12.33-16.52-9.54c-1.15-.663-2.21-.803-3.043-.502l-5.374 3.104c.832-.3 1.89-.16 3.042.503l16.52 9.538 21.358 12.332 21.36 12.33 16.52 9.54c2.66 1.535 4.837 5.306 4.837 8.38v62.814c0 1.322-.404 2.304-1.074 2.876l5.373-3.102c.67-.572 1.075-1.555 1.075-2.877V55.772z" stroke="#33475C" stroke-linecap="round" stroke-linejoin="round"/>
        <path d="M106.52 53.29v19.075c0 3.073 2.177 6.844 4.838 8.38l16.52 9.538 21.36 12.33 21.357 12.333 16.52 9.538c2.66 1.536 4.84.28 4.84-2.794V58.876c0-3.073-2.18-6.844-4.84-8.38l-16.52-9.538-21.358-12.332-21.36-12.33-16.52-9.54c-2.66-1.536-4.837-.278-4.837 2.794v43.74" fill="#7C98B6"/>
        <path d="M106.52 53.29v19.075c0 3.073 2.177 6.844 4.838 8.38l16.52 9.538 21.36 12.33 21.357 12.333 16.52 9.538c2.66 1.536 4.84.28 4.84-2.794V58.876c0-3.073-2.18-6.844-4.84-8.38l-16.52-9.538-21.358-12.332-21.36-12.33-16.52-9.54c-2.66-1.536-4.837-.278-4.837 2.794v43.74" stroke="#33475C" stroke-linecap="round" stroke-linejoin="round"/>
        <path d="M106.52 65.07v7.295c0 3.073 2.177 6.844 4.838 8.38l16.52 9.538 21.36 12.332 21.357 12.33 16.52 9.54c2.66 1.535 4.84.278 4.84-2.794v-7.294L106.52 65.07z" fill="#EBF0F7"/>
        <path d="M106.52 65.07v7.295c0 3.073 2.177 6.844 4.838 8.38l16.52 9.538 21.36 12.332 21.357 12.33 16.52 9.54c2.66 1.535 4.84.278 4.84-2.794v-7.294L106.52 65.07z" stroke="#33475C" stroke-linecap="round" stroke-linejoin="round"/>
        <path d="M106.52 53.29v19.075c0 3.073 2.177 6.844 4.838 8.38l16.52 9.538 21.36 12.33 21.357 12.333 16.52 9.538c2.66 1.536 4.84.28 4.84-2.794V58.876c0-3.073-2.18-6.844-4.84-8.38l-16.52-9.538-21.358-12.332-21.36-12.33-16.52-9.54c-2.66-1.536-4.837-.278-4.837 2.794v43.74" stroke="#33475C" stroke-linecap="round" stroke-linejoin="round"/>
        <path d="M106.52 65.07v7.295c0 3.073 2.177 6.844 4.838 8.38l16.52 9.538 21.36 12.332 21.357 12.33 16.52 9.54c2.66 1.535 4.84.278 4.84-2.794v-7.294L106.52 65.07z" stroke="#33475C" stroke-linecap="round" stroke-linejoin="round"/>
        <path fill="#E6EFF7" opacity=".25" d="M149.044 22.31l-16.118-9.307-8.28 1.365 19.742 81.826 14.84 9.106-19.65-81.432"/>
        <path fill="#E6EFF7" opacity=".25" d="M157.03 26.92l-4.577-2.643-9.41 1.55 19.192 79.536 3.258-.787-18.344-76.028"/>
        <path fill="#E6EFF7" opacity=".25" d="M145.23 20.106l-8.49-4.9-8.675 1.43 18.767 77.78 8.093 4.966L136.158 21.6"/>
        <path d="M197.328 55.773c0-3.073-2.177-6.844-4.838-8.38l-16.52-9.538-21.36-12.332-21.357-12.33-16.52-9.54c-1.15-.663-2.21-.803-3.043-.502l-5.374 3.104c.832-.3 1.89-.16 3.042.503l16.52 9.538 21.358 12.332 21.36 12.33 16.52 9.54c2.66 1.535 4.837 5.306 4.837 8.38v62.814c0 1.322-.404 2.304-1.074 2.876l5.373-3.102c.67-.572 1.075-1.555 1.075-2.877V55.772z" stroke="#33475C" stroke-linecap="round" stroke-linejoin="round"/>
        <path d="M197.328 118.587v-7.372l-5.375 3.102v7.373c0 1.32-.404 2.304-1.074 2.876l5.373-3.103c.67-.572 1.075-1.555 1.075-2.876" fill="#EBF0F7"/>
        <path d="M197.328 118.587v-7.372l-5.375 3.102v7.373c0 1.32-.404 2.304-1.074 2.876l5.373-3.103c.67-.572 1.075-1.555 1.075-2.876z" stroke="#33475C" stroke-linecap="round" stroke-linejoin="round"/>
        <path d="M161.915 122.1h.01-.01z" fill="#33475C"/>
        <path d="M27.54 135.3c-.614-.6-1.254-1.63-1.254-3.333V86.065c0-2.174 1.54-4.842 3.424-5.93l11.69-6.748 15.11-8.727 15.112-8.724 11.69-6.75c.987-.57 1.877-.59 2.503-.174l.007-.002 2.366 1.573-1.453.834v48.146l-15.112 8.726-15.113 8.725-15.113 8.725-12.742 7.356v2.95l-.658-.438-.46-.306zm2.488 4.698c-.753-.435-1.37-1.502-1.37-2.372v-1.58l4.243-.977-.158 1.78 11.03-6.368 15.112-8.725 30.225-17.45 30.225 17.45 10.255 5.92v-.494h2.846v3.284h-.002c.006.722-.462 1.444-1.41 1.992l-11.69 6.748-15.112 8.725-15.113 8.725-11.69 6.75c-1.883 1.086-4.964 1.086-6.846 0l-11.69-6.75-15.113-8.725-13.742-7.935z" stroke="#33475C" stroke-width="5" stroke-linecap="round" stroke-linejoin="round"/>
        <path d="M43.77 144.77l15.114 8.725 11.69 6.75c1.882 1.087 4.963 1.087 6.846 0l11.69-6.75 15.112-8.725 15.112-8.725 11.69-6.748c1.882-1.088 1.882-2.867 0-3.954l-11.69-6.75-30.225-17.45-30.226 17.45-15.113 8.726-15.112 8.725 15.113 8.726" stroke="#33475C" stroke-width="5" stroke-linecap="round" stroke-linejoin="round"/>
        <path d="M73.996 109.87l-15.112 8.724-15.114 8.726-15.112 8.726v-48.4c0-2.174 1.54-4.84 3.423-5.928l11.69-6.75 15.113-8.726 15.113-8.724 11.69-6.75c1.882-1.085 3.422-.196 3.423 1.977v48.398l-15.114 8.727" stroke="#33475C" stroke-width="5" stroke-linecap="round" stroke-linejoin="round"/>
        <path d="M83.57 57.028c1.13-.652 2.053-.12 2.053 1.186V96.47c0 1.305-.925 2.906-2.055 3.558L34.2 128.532c-1.13.652-2.056.118-2.056-1.186V89.09c0-1.305.925-2.906 2.056-3.558l49.368-28.504zM77.444 143.3c-1.597-.92-1.597-2.43 0-3.35l18.047-10.42c1.597-.922 4.21-.922 5.807 0l9.306 5.373c1.597.922 1.597 2.43 0 3.352l-18.046 10.42c-1.597.92-4.21.92-5.806 0l-9.306-5.374z" stroke="#33475C" stroke-width="5" stroke-linecap="round" stroke-linejoin="round"/>
        <path d="M77.444 143.3c-1.597-.92-1.597-2.43 0-3.35l18.047-10.42c1.597-.922 4.21-.922 5.807 0l9.306 5.373c1.597.922 1.597 2.43 0 3.352l-18.046 10.42c-1.597.92-4.21.92-5.806 0l-9.306-5.374zm-31.898-6.86c-1.597-.92-1.597-2.43 0-3.35l39.9-23.037c1.596-.922 4.208-.922 5.805 0l13.647 7.878c1.596.923 1.596 2.432 0 3.354l-39.9 23.035c-1.596.92-4.21.92-5.805 0l-13.646-7.88z" stroke="#33475C" stroke-width="5" stroke-linecap="round" stroke-linejoin="round"/>
        <path d="M45.546 136.44c-1.597-.92-1.597-2.43 0-3.35l39.9-23.037c1.596-.922 4.208-.922 5.805 0l13.647 7.878c1.596.923 1.596 2.432 0 3.354l-39.9 23.035c-1.596.92-4.21.92-5.805 0l-13.646-7.88zm-8.804-5.06l7.03-4.06 15.111-8.725 23.563-13.605 2.66 1.537-45.704 26.388z" stroke="#33475C" stroke-width="5" stroke-linecap="round" stroke-linejoin="round"/>
        <path d="M27.54 135.3c-.614-.6-1.254-1.63-1.254-3.333V86.065c0-2.174 1.54-4.842 3.424-5.93l11.69-6.748 15.11-8.727 15.112-8.724 11.69-6.75c.987-.57 1.877-.59 2.503-.174l.007-.002 2.366 1.573-1.453.834v48.146l-15.112 8.726-15.113 8.725-15.113 8.725-12.742 7.356v2.95l-.658-.438-.46-.306z" fill="#CBD6E3"/>
        <path d="M27.54 135.3c-.614-.6-1.254-1.63-1.254-3.333V86.065c0-2.174 1.54-4.842 3.424-5.93l11.69-6.748 15.11-8.727 15.112-8.724 11.69-6.75c.987-.57 1.877-.59 2.503-.174l.007-.002 2.366 1.573-1.453.834v48.146l-15.112 8.726-15.113 8.725-15.113 8.725-12.742 7.356v2.95l-.658-.438-.46-.306z" stroke="#33475C" stroke-linecap="round" stroke-linejoin="round"/>
        <path d="M30.028 139.998c-.753-.435-1.37-1.502-1.37-2.372v-1.58l4.243-.977-.158 1.78 11.03-6.368 15.112-8.725 30.225-17.45 30.225 17.45 10.255 5.92v-.494h2.846v3.284h-.002c.006.722-.462 1.444-1.41 1.992l-11.69 6.748-15.112 8.725-15.113 8.725-11.69 6.75c-1.883 1.086-4.964 1.086-6.846 0l-11.69-6.75-15.113-8.725-13.742-7.935z" fill="#CBD6E3"/>
        <path d="M30.028 139.998c-.753-.435-1.37-1.502-1.37-2.372v-1.58l4.243-.977-.158 1.78 11.03-6.368 15.112-8.725 30.225-17.45 30.225 17.45 10.255 5.92v-.494h2.846v3.284h-.002c.006.722-.462 1.444-1.41 1.992l-11.69 6.748-15.112 8.725-15.113 8.725-11.69 6.75c-1.883 1.086-4.964 1.086-6.846 0l-11.69-6.75-15.113-8.725-13.742-7.935z" stroke="#33475C" stroke-linecap="round" stroke-linejoin="round"/>
        <path d="M43.77 144.77l15.114 8.725 11.69 6.75c1.882 1.086 4.963 1.086 6.846 0l11.69-6.75 15.112-8.725 15.112-8.725 11.69-6.748c1.882-1.087 1.882-2.866 0-3.953l-11.69-6.75-30.225-17.45-30.226 17.45-15.113 8.726-15.112 8.726 15.113 8.725" fill="#E4EBEF"/>
        <path d="M43.77 144.77l15.114 8.725 11.69 6.75c1.882 1.086 4.963 1.086 6.846 0l11.69-6.75 15.112-8.725 15.112-8.725 11.69-6.748c1.882-1.087 1.882-2.866 0-3.953l-11.69-6.75-30.225-17.45-30.226 17.45-15.113 8.726-15.112 8.726 15.113 8.725" stroke="#33475C" stroke-linecap="round" stroke-linejoin="round"/>
        <path d="M73.996 109.87l-15.112 8.724-15.114 8.726-15.112 8.726v-48.4c0-2.173 1.54-4.84 3.423-5.928l11.69-6.75 15.113-8.725 15.113-8.725 11.69-6.75c1.882-1.085 3.422-.196 3.423 1.977v48.4l-15.114 8.724" fill="#32475C"/>
        <path d="M73.996 109.87l-15.112 8.724-15.114 8.726-15.112 8.726v-48.4c0-2.173 1.54-4.84 3.423-5.928l11.69-6.75 15.113-8.725 15.113-8.725 11.69-6.75c1.882-1.085 3.422-.196 3.423 1.977v48.4l-15.114 8.724" stroke="#33475C" stroke-linecap="round" stroke-linejoin="round"/>
        <path d="M83.57 57.028c1.13-.652 2.053-.12 2.053 1.186V96.47c0 1.305-.925 2.906-2.055 3.558L34.2 128.532c-1.13.652-2.056.118-2.056-1.186V89.09c0-1.305.925-2.906 2.056-3.558l49.368-28.504z" fill="#415A77"/>
        <path d="M83.57 57.028c1.13-.652 2.053-.12 2.053 1.186V96.47c0 1.305-.925 2.906-2.055 3.558L34.2 128.532c-1.13.652-2.056.118-2.056-1.186V89.09c0-1.305.925-2.906 2.056-3.558l49.368-28.504z" stroke="#33475C" stroke-linecap="round" stroke-linejoin="round"/>
        <path d="M77.444 143.3c-1.597-.92-1.597-2.43 0-3.35l18.047-10.42c1.597-.922 4.21-.922 5.807 0l9.306 5.373c1.597.922 1.597 2.43 0 3.352l-18.046 10.42c-1.597.92-4.21.92-5.806 0l-9.306-5.374z" fill="#EBF0F7"/>
        <path d="M77.444 143.3c-1.597-.92-1.597-2.43 0-3.35l18.047-10.42c1.597-.922 4.21-.922 5.807 0l9.306 5.373c1.597.922 1.597 2.43 0 3.352l-18.046 10.42c-1.597.92-4.21.92-5.806 0l-9.306-5.374z" stroke="#33475C"/>
        <path d="M45.546 136.44c-1.597-.92-1.597-2.43 0-3.35l39.9-23.037c1.596-.922 4.208-.922 5.805 0l13.647 7.878c1.596.923 1.596 2.432 0 3.354l-39.9 23.035c-1.596.92-4.21.92-5.805 0l-13.646-7.88z" fill="#CBD6E3"/>
        <path d="M45.546 136.44c-1.597-.92-1.597-2.43 0-3.35l39.9-23.037c1.596-.922 4.208-.922 5.805 0l13.647 7.878c1.596.923 1.596 2.432 0 3.354l-39.9 23.035c-1.596.92-4.21.92-5.805 0l-13.646-7.88z" stroke="#33475C" stroke-linecap="round" stroke-linejoin="round"/>
        <path fill="#415A77" d="M36.742 131.38l7.03-4.06 15.111-8.725 23.563-13.605 2.66 1.537-45.704 26.388"/>
        <path stroke="#33475C" stroke-linecap="round" stroke-linejoin="round" d="M36.742 131.38l7.03-4.06 15.111-8.725 23.563-13.605 2.66 1.537-45.704 26.388z"/>
        <path d="M166.4 136.698c-2-1.156-5.276-1.156-7.278 0l-8.403 4.852-3.64 2.1-3.64 2.102-19.494 11.255c-2.002 1.156-2.002 3.046 0 4.202l19.495 11.254c2.002 1.156 5.277 1.156 7.28 0l19.493-11.255 7.278-4.203 8.405-4.852c2-1.155 2-3.046 0-4.202L166.4 136.698z" stroke="#33475C" stroke-width="5"/>
        <path d="M166.4 132.25c-2-1.156-5.276-1.156-7.278 0l-8.403 4.852-3.64 2.1-3.64 2.102-19.494 11.255c-2.002 1.155-2.002 3.045 0 4.2l19.495 11.256c2.002 1.156 5.277 1.156 7.28 0l19.493-11.255 7.278-4.2 8.405-4.853c2-1.155 2-3.046 0-4.202L166.4 132.25z" stroke="#33475C" stroke-width="5"/>
        <path d="M185.895 147.707l-8.404 4.852-7.277 4.2-19.494 11.256c-2.003 1.156-5.278 1.156-7.28 0l-19.494-11.255c-1-.577-1.5-1.34-1.5-2.1v4.448c0 .762.5 1.523 1.5 2.1l19.495 11.257c2.002 1.155 5.277 1.155 7.28 0l19.493-11.256 7.278-4.203 8.405-4.852c1-.577 1.5-1.34 1.5-2.1v-4.45c0 .763-.5 1.524-1.5 2.102z" stroke="#33475C" stroke-width="5"/>
        <path stroke="#33475C" stroke-width="5" d="M179.805 147.45l-20.124-11.618-30.068 17.36 20.123 11.62z"/>
        <path d="M166.4 136.698c-2-1.156-5.276-1.156-7.278 0l-8.403 4.852-3.64 2.1-3.64 2.102-19.494 11.255c-2.002 1.156-2.002 3.046 0 4.202l19.495 11.254c2.002 1.156 5.277 1.156 7.28 0l19.493-11.255 7.278-4.203 8.405-4.852c2-1.155 2-3.046 0-4.202L166.4 136.698z" fill="#FFF"/>
        <path d="M166.4 136.698c-2-1.156-5.276-1.156-7.278 0l-8.403 4.852-3.64 2.1-3.64 2.102-19.494 11.255c-2.002 1.156-2.002 3.046 0 4.202l19.495 11.254c2.002 1.156 5.277 1.156 7.28 0l19.493-11.255 7.278-4.203 8.405-4.852c2-1.155 2-3.046 0-4.202L166.4 136.698z" stroke="#231F1F" stroke-linecap="round" stroke-linejoin="round"/>
        <path d="M166.4 132.25c-2-1.156-5.276-1.156-7.278 0l-8.403 4.852-3.64 2.1-3.64 2.102-19.494 11.255c-2.002 1.155-2.002 3.045 0 4.2l19.495 11.256c2.002 1.156 5.277 1.156 7.28 0l19.493-11.255 7.278-4.2 8.405-4.853c2-1.155 2-3.046 0-4.202L166.4 132.25z" fill="#FFF"/>
        <path d="M166.4 132.25c-2-1.156-5.276-1.156-7.278 0l-8.403 4.852-3.64 2.1-3.64 2.102-19.494 11.255c-2.002 1.155-2.002 3.045 0 4.2l19.495 11.256c2.002 1.156 5.277 1.156 7.28 0l19.493-11.255 7.278-4.2 8.405-4.853c2-1.155 2-3.046 0-4.202L166.4 132.25z" stroke="#33475C" stroke-linecap="round" stroke-linejoin="round"/>
        <path d="M185.895 147.707l-8.404 4.852-7.277 4.2-19.494 11.256c-2.003 1.156-5.278 1.156-7.28 0l-19.494-11.255c-1-.577-1.5-1.34-1.5-2.1v4.448c0 .762.5 1.523 1.5 2.1l19.495 11.257c2.002 1.155 5.277 1.155 7.28 0l19.493-11.256 7.278-4.203 8.405-4.852c1-.577 1.5-1.34 1.5-2.1v-4.45c0 .763-.5 1.524-1.5 2.102" fill="#FBE1B2"/>
        <path d="M185.895 147.707l-8.404 4.852-7.277 4.2-19.494 11.256c-2.003 1.156-5.278 1.156-7.28 0l-19.494-11.255c-1-.577-1.5-1.34-1.5-2.1v4.448c0 .762.5 1.523 1.5 2.1l19.495 11.257c2.002 1.155 5.277 1.155 7.28 0l19.493-11.256 7.278-4.203 8.405-4.852c1-.577 1.5-1.34 1.5-2.1v-4.45c0 .763-.5 1.524-1.5 2.102z" stroke="#33475C" stroke-linecap="round" stroke-linejoin="round"/>
        <path fill="#FFF" d="M179.805 147.45l-20.124-11.618-30.068 17.36 20.123 11.62m-35.94-150.836c-1.064-.616-1.935-.113-1.935 1.116v57.42c0 1.23.872 2.737 1.936 3.353l71.708 41.4c1.065.614 1.936.112 1.936-1.118v-57.42c0-1.227-.87-2.736-1.936-3.35l-71.708-41.401z"/>
        <path d="M113.796 13.976c-1.064-.616-1.935-.113-1.935 1.116v57.42c0 1.23.872 2.737 1.936 3.353l71.708 41.4c1.065.614 1.936.112 1.936-1.118v-57.42c0-1.227-.87-2.736-1.936-3.35l-71.708-41.401z" stroke="#33475C" stroke-linecap="round" stroke-linejoin="round"/>
        <path d="M186.88 58.728c0-1.037-.757-2.35-1.655-2.867l-71.71-41.4c-.328-.192-.624-.238-.807-.134-.183.106-.29.386-.29.766v31.966l74.463 42.99V58.73z" fill="#E5F6F9"/>
        <path d="M185.504 55.376l-71.708-41.4c-1.065-.615-1.936-.113-1.936 1.116v3.787l75.58 43.634v-3.786c0-1.23-.872-2.737-1.936-3.352" fill="#CBD6E3"/>
        <path d="M185.504 55.376l-71.708-41.4c-1.065-.615-1.936-.113-1.936 1.116v3.787l75.58 43.634v-3.786c0-1.23-.872-2.737-1.936-3.352z" stroke="#33475C" stroke-linecap="round" stroke-linejoin="round"/>
        <path d="M148.242 59.345c3.5 2.02 6.364.367 6.364-3.674 0-4.04-2.864-9-6.364-11.02-3.5-2.022-6.364-.37-6.364 3.673 0 4.04 2.864 9 6.364 11.022" fill="#00A4BF" opacity=".5"/>
        <path d="M145.2 62.106c2.788 1.61 5.07.293 5.07-2.927s-2.282-7.173-5.07-8.783c-2.79-1.61-5.07-.293-5.07 2.927s2.28 7.172 5.07 8.782" fill="#FF8F52" opacity=".5"/>
        <path d="M116.427 54.48l26.152 14.97" fill="#33475C"/>
        <path d="M116.427 54.48l26.152 14.97" stroke="#EBF0F7" stroke-linecap="round" stroke-linejoin="round"/>
        <path d="M116.427 57.69l16.545 9.553" fill="#33475C"/>
        <path d="M116.427 57.69l16.545 9.553" stroke="#EBF0F7" stroke-linecap="round" stroke-linejoin="round"/>
        <path d="M173.877 87.758l9.857 5.643" fill="#33475C"/>
        <path d="M173.877 87.758l9.857 5.643" stroke="#EBF0F7" stroke-linecap="round" stroke-linejoin="round"/>
        <path d="M167.19 87.23l16.545 9.552" fill="#33475C"/>
        <path d="M167.19 87.23l16.545 9.552" stroke="#EBF0F7" stroke-linecap="round" stroke-linejoin="round"/>
        <path d="M173.877 97.815l9.857 5.642" fill="#33475C"/>
        <path d="M173.877 97.815l9.857 5.642" stroke="#EBF0F7" stroke-linecap="round" stroke-linejoin="round"/>
        <path d="M175.462 101.543l8.272 4.735" fill="#33475C"/>
        <path d="M175.462 101.543l8.272 4.735" stroke="#EBF0F7" stroke-linecap="round" stroke-linejoin="round"/>
        <path d="M173.877 103.457l9.857 5.642" fill="#33475C"/>
        <path d="M173.877 103.457l9.857 5.642" stroke="#EBF0F7" stroke-linecap="round" stroke-linejoin="round"/>
        <path d="M176.583 107.826l7.152 4.094" fill="#33475C"/>
        <path d="M176.583 107.826l7.152 4.094" stroke="#EBF0F7" stroke-linecap="round" stroke-linejoin="round"/>
        <path d="M157.756 100.6V87.083c0-.672-.476-1.497-1.058-1.833l-39.213-22.64c-.582-.335-1.058-.06-1.058.612v13.516l41.33 23.862z" fill="#E5F6F9"/>
        <path d="M162.132 77.995v22.898" fill="#33475C"/>
        <path d="M162.132 77.995v22.898" stroke="#E5F6F9" stroke-width=".5" stroke-linecap="round" stroke-linejoin="round"/>
        <path d="M106.52 65.07v7.295c0 3.073 2.177 6.844 4.838 8.38l16.52 9.538 21.36 12.332 21.357 12.33 16.52 9.54c2.66 1.535 4.84.278 4.84-2.794v-7.294L106.52 65.07z" fill="#EBF0F7"/>
        <path d="M106.52 65.07v7.295c0 3.073 2.177 6.844 4.838 8.38l16.52 9.538 21.36 12.332 21.357 12.33 16.52 9.54c2.66 1.535 4.84.278 4.84-2.794v-7.294L106.52 65.07z" stroke="#33475C" stroke-linecap="round" stroke-linejoin="round"/>
        <path d="M84.253 56.935c.753-.435 1.37-.08 1.37.79v40.63c0 .87-.617 1.937-1.37 2.37l-50.74 29.296c-.752.436-1.37.08-1.37-.79V88.6c0-.868.618-1.936 1.37-2.37l50.74-29.295z" fill="#FFF"/>
        <path d="M84.253 56.935c.753-.435 1.37-.08 1.37.79v40.63c0 .87-.617 1.937-1.37 2.37l-50.74 29.296c-.752.436-1.37.08-1.37-.79V88.6c0-.868.618-1.936 1.37-2.37l50.74-29.295z" stroke="#33475C" stroke-linecap="round" stroke-linejoin="round"/>
        <path d="M32.54 88.6c0-.732.537-1.662 1.172-2.028l50.74-29.295c.232-.135.442-.168.57-.094.13.075.206.273.206.542v22.618l-52.688 30.42V88.6z" fill="#E5F6F9"/>
        <path d="M33.514 86.23l50.74-29.295c.752-.435 1.37-.08 1.37.79v2.68L32.143 91.28V88.6c0-.87.617-1.936 1.37-2.37" fill="#CBD6E3"/>
        <path d="M33.514 86.23l50.74-29.295c.752-.435 1.37-.08 1.37.79v2.68L32.143 91.28V88.6c0-.87.617-1.936 1.37-2.37z" stroke="#33475C" stroke-linecap="round" stroke-linejoin="round"/>
        <path d="M59.88 89.038c-2.477 1.43-4.503.26-4.503-2.6 0-2.86 2.026-6.37 4.503-7.8 2.477-1.428 4.503-.26 4.503 2.6 0 2.86-2.026 6.37-4.503 7.8" fill="#00A4BF" opacity=".5"/>
        <path d="M62.033 90.99c-1.973 1.14-3.588.208-3.588-2.07 0-2.28 1.615-5.075 3.588-6.214 1.973-1.14 3.588-.207 3.588 2.07 0 2.28-1.614 5.076-3.587 6.215" fill="#FF8F52" opacity=".5"/>
        <path d="M82.392 85.595L63.888 96.187" fill="#33475C"/>
        <path d="M82.392 85.595L63.888 96.187" stroke="#EBF0F7" stroke-linecap="round" stroke-linejoin="round"/>
        <path d="M82.392 87.867l-11.707 6.76" fill="#33475C"/>
        <path d="M82.392 87.867l-11.707 6.76" stroke="#EBF0F7" stroke-linecap="round" stroke-linejoin="round"/>
        <path d="M41.74 109.142l-6.974 3.992" fill="#33475C"/>
        <path d="M41.74 109.142l-6.974 3.992" stroke="#EBF0F7" stroke-linecap="round" stroke-linejoin="round"/>
        <path d="M46.473 108.768l-11.707 6.76" fill="#33475C"/>
        <path d="M46.473 108.768l-11.707 6.76" stroke="#EBF0F7" stroke-linecap="round" stroke-linejoin="round"/>
        <path d="M41.74 116.258l-6.974 3.992" fill="#33475C"/>
        <path d="M41.74 116.258l-6.974 3.992" stroke="#EBF0F7" stroke-linecap="round" stroke-linejoin="round"/>
        <path d="M40.62 118.896l-5.854 3.35" fill="#33475C"/>
        <path d="M40.62 118.896l-5.854 3.35" stroke="#EBF0F7" stroke-linecap="round" stroke-linejoin="round"/>
        <path d="M41.74 120.25l-6.974 3.992" fill="#33475C"/>
        <path d="M41.74 120.25l-6.974 3.992" stroke="#EBF0F7" stroke-linecap="round" stroke-linejoin="round"/>
        <path d="M39.826 123.342l-5.06 2.897" fill="#33475C"/>
        <path d="M39.826 123.342l-5.06 2.897" stroke="#EBF0F7" stroke-linecap="round" stroke-linejoin="round"/>
        <path d="M53.148 118.23v-9.565c0-.476.337-1.06.75-1.297l27.745-16.02c.412-.237.75-.043.75.433v9.565L53.147 118.23z" fill="#E5F6F9"/>
        <path d="M50.05 102.234v16.202" fill="#33475C"/>
        <path d="M50.05 102.234v16.202" stroke="#E5F6F9" stroke-width=".5" stroke-linecap="round" stroke-linejoin="round"/>
        <path d="M84.253 56.935c.753-.435 1.37-.08 1.37.79v40.63c0 .87-.617 1.937-1.37 2.37l-50.74 29.296c-.752.436-1.37.08-1.37-.79V88.6c0-.868.618-1.936 1.37-2.37l50.74-29.295z" stroke="#33475C" stroke-linecap="round" stroke-linejoin="round"/>
        <path fill="#FFF" d="M137.803 148.463l-8.19 4.73 20.122 11.618 8.192-4.73"/>
        <path fill="#E5F6F9" d="M179.805 147.45l-20.124-11.618-21.877 12.63 20.124 11.62"/>
        <path d="M166.124 144.32c3.042 1.755 3.042 4.63 0 6.386-3.042 1.756-8.02 1.756-11.062 0-3.042-1.757-3.042-4.63 0-6.387 3.042-1.757 8.02-1.757 11.062 0" fill="#00A4BF" opacity=".5"/>
        <path d="M158.42 146.07c2.277 1.316 2.277 3.47 0 4.784-2.28 1.316-6.008 1.316-8.286 0-2.278-1.315-2.278-3.468 0-4.783 2.278-1.314 6.007-1.314 8.285 0" fill="#FF8F52" opacity=".5"/>
        <g>
            <path d="M135.422 150.573l17.36 9.936" fill="#33475C"/>
            <path d="M135.422 150.573l17.36 9.936" stroke="#EBF0F7" stroke-linecap="round" stroke-linejoin="round"/>
        </g>
        <g>
            <path d="M132.436 152.023l11.665 6.735" fill="#33475C"/>
            <path d="M132.436 152.023l11.665 6.735" stroke="#EBF0F7" stroke-linecap="round" stroke-linejoin="round"/>
        </g>
    </g>
</svg>
