
<svg width="377" height="391" viewBox="0 0 377 391" xmlns="http://www.w3.org/2000/svg">
    <g fill="none" fill-rule="evenodd">
        <path d="M357.65 205.71c-1.364-.027-2.697-.417-3.86-1.13l-68.21-39.38c-3.84-2.22-7-7.48-7.7-12.65l-3.53-2c-1.961-1.132-2.916-3.442-2.328-5.629.588-2.187 2.573-3.705 4.838-3.701l-2.34-1.35c-2.391-1.38-3.21-4.439-1.83-6.83.893-1.547 2.544-2.5 4.33-2.5h.42l-2.92-1.69c-2.391-1.38-3.21-4.439-1.83-6.83.893-1.547 2.544-2.5 4.33-2.5h.42l-2.92-1.69c-2.391-1.38-3.21-4.439-1.83-6.83.893-1.547 2.544-2.5 4.33-2.5h.42l-2.92-1.69c-2.391-1.38-3.21-4.439-1.83-6.83.893-1.547 2.544-2.5 4.33-2.5h.42l-2.92-1.69c-2.391-1.38-3.21-4.439-1.83-6.83.893-1.547 2.544-2.5 4.33-2.5h.42l-2.92-1.69c-2.391-1.38-3.21-4.439-1.83-6.83.893-1.547 2.544-2.5 4.33-2.5.23.002.461.018.69.05v-.24l-2.88-1.66c-1.928-1.108-2.892-3.356-2.367-5.517.526-2.16 2.416-3.714 4.637-3.813l-2.58-1.49c-2.391-1.38-3.21-4.439-1.83-6.83.893-1.547 2.544-2.5 4.33-2.5.23.002.461.018.69.05.07-5.58 3.29-8.08 6.48-8.08.18-.01.36-.01.54 0 1.118-1.293 2.75-2.026 4.46-2h.55c1.126-1.282 2.754-2.012 4.46-2 1.364.027 2.697.417 3.86 1.13L366.29 82c4.4 2.54 7.84 9 7.84 14.77v96.69c.076 2.01-.473 3.994-1.57 5.68-1.099 1.627-2.937 2.599-4.9 2.59h-.54c-1.12 1.29-2.752 2.022-4.46 2-.183.01-.367.01-.55 0-1.131 1.273-2.757 1.995-4.46 1.98z" fill="#DFE3EB" fill-rule="nonzero"/>
        <path d="M294.22 44c.924.033 1.823.305 2.61.79L365 84.13c3.64 2.11 6.6 7.75 6.6 12.61v96.69c0 3.61-1.64 5.77-4 5.77-.576-.008-1.146-.123-1.68-.34-.523 1.391-1.844 2.32-3.33 2.34-.573-.008-1.14-.123-1.67-.34-.524 1.391-1.843 2.323-3.33 2.35-.924-.032-1.824-.304-2.61-.79L286.83 163c-3.5-2-6.35-7.29-6.58-12l-4.65-2.68c-.987-.564-1.469-1.724-1.172-2.821.296-1.098 1.295-1.858 2.432-1.849.436 0 .864.118 1.24.34l2.13 1.23v-5l-4.44-2.56c-.969-.564-1.444-1.704-1.162-2.789.282-1.085 1.251-1.85 2.372-1.871.438.003.868.117 1.25.33l1.94 1.13v-5.23l-4.44-2.56c-.985-.564-1.467-1.72-1.174-2.816.294-1.097 1.289-1.858 2.424-1.854.438.003.868.117 1.25.33l1.94 1.13v-5.23l-4.44-2.56c-.985-.564-1.467-1.72-1.174-2.816.294-1.097 1.289-1.858 2.424-1.854.438.003.868.117 1.25.33l1.94 1.13v-5.23l-4.44-2.56c-.985-.564-1.467-1.72-1.174-2.816.294-1.097 1.289-1.858 2.424-1.854.438.003.868.117 1.25.33l1.94 1.13v-5.23l-4.44-2.56c-.985-.564-1.467-1.72-1.174-2.816.294-1.097 1.289-1.858 2.424-1.854.438.003.868.117 1.25.33l1.94 1.13v-5.23l-4.44-2.56c-.985-.564-1.467-1.72-1.174-2.816.294-1.097 1.289-1.858 2.424-1.854.438.003.868.117 1.25.33l1.94 1.13v-5.6l-4.13-2.38c-.976-.569-1.45-1.722-1.155-2.813.295-1.09 1.285-1.848 2.415-1.847.435-.003.864.11 1.24.33l1.63.94v-4.86l-4.44-2.56c-.985-.564-1.467-1.72-1.174-2.816.294-1.097 1.289-1.858 2.424-1.854.438.003.868.117 1.25.33l1.94 1.13v-3.72c0-3.61 1.64-5.77 4-5.77.576.008 1.146.124 1.68.34.517-1.391 1.836-2.321 3.32-2.34.576.008 1.146.123 1.68.34.52-1.395 1.842-2.328 3.33-2.35l.02.04zm-.02-5.04c-2.008-.018-3.956.692-5.48 2-1.842.093-3.602.797-5 2-2.604.148-4.994 1.487-6.48 3.63-.937 1.366-1.559 2.924-1.82 4.56-2.062.457-3.838 1.755-4.9 3.58-1.767 3.06-1.159 6.938 1.46 9.31-.443.452-.826.96-1.14 1.51-1.737 3.007-1.183 6.813 1.34 9.2-.664.566-1.226 1.243-1.66 2-1.753 3.031-1.172 6.873 1.4 9.25-1.534 1.418-2.406 3.411-2.406 5.5s.872 4.082 2.406 5.5c-1.534 1.418-2.406 3.411-2.406 5.5s.872 4.082 2.406 5.5c-1.534 1.418-2.406 3.411-2.406 5.5s.872 4.082 2.406 5.5c-1.534 1.418-2.406 3.411-2.406 5.5s.872 4.082 2.406 5.5c-1.488 1.375-2.356 3.294-2.405 5.32-.049 2.026.725 3.985 2.145 5.43-.516.496-.96 1.061-1.32 1.68-2.07 3.588-.843 8.173 2.74 10.25l2.51 1.45c1.1 5.52 4.5 10.8 8.72 13.24l68.21 39.38c1.545.929 3.308 1.432 5.11 1.46 2.006.019 3.95-.692 5.47-2 1.844-.087 3.605-.791 5-2 4.19-.23 8.52-3.62 8.52-10.75V96.74c0-6.66-3.92-13.94-9.1-16.94l-68.21-39.38c-1.546-.927-3.308-1.43-5.11-1.46z" fill="#2D3E50" fill-rule="nonzero"/>
        <path d="M31 157c-.542-.001-1.076-.128-1.56-.37l-14-7c-.38-.17-.76-.36-1.13-.57l-.16-.08c-6.6-3.7-10.24-11.32-10.24-21.45 0-19.52 13.32-42.51 30.33-52.33 4.387-2.716 9.413-4.227 14.57-4.38 1.792-.008 3.575.235 5.3.72.11.02.216.05.32.09 1.668.513 3.25 1.275 4.69 2.26L71.69 80c.865.418 1.52 1.174 1.809 2.09.29.916.188 1.91-.279 2.75l-5.15 9.25v.44c0 18.8-12.61 41.17-28.85 51.42l-5.15 9.25c-.618 1.116-1.795 1.806-3.07 1.8z" fill="#54BEA6" fill-rule="nonzero"/>
        <path d="M48.82 74.29c1.509-.008 3.01.2 4.46.62 1.436.439 2.788 1.115 4 2l12.81 6.23-5.61 10.09v1.3c0 17.88-12.47 39.6-28 48.92L31 153.47l-14.06-7c-.35-.15-.68-.32-1-.5h-.07c-5.22-2.93-8.46-9.3-8.46-18.4 0-18.11 12.8-40.18 28.58-49.29 3.856-2.408 8.277-3.76 12.82-3.92l.01-.07zm-.01-6.93c-5.25 0-10.74 1.63-16.32 4.85C14.49 82.6.41 106.91.41 127.57c0 11.22 4.33 20.11 11.9 24.43l.38.21c.41.22.82.43 1.24.62l14 7c3.35 1.67 7.42.41 9.24-2.86l4.72-8.48c16.66-11 29.51-33.94 29.72-53.43l4.7-8.44c.935-1.681 1.137-3.674.558-5.509-.578-1.835-1.887-3.35-3.618-4.191l-12.34-6c-1.692-1.13-3.542-2.002-5.49-2.59h-.12c-2.096-.604-4.268-.907-6.45-.9l-.04-.07z" fill="#2D3E50" fill-rule="nonzero"/>
        <path d="M186.78 385.7l146.28-84.45c12.56-7.26 11-19.93-3.52-28.3l-105.3-60.8c-14.51-8.37-36.45-9.28-49-2l-146.3 84.43c-12.56 7.25-11 19.92 3.52 28.3l105.3 60.79c14.51 8.38 36.45 9.33 49.02 2.03z" fill="#FAE0B5" fill-rule="nonzero" opacity=".5"/>
        <path d="M165.19 353.36c-5.937.045-11.788-1.425-17-4.27L37.86 285.37c-3.114-1.771-5.673-4.375-7.39-7.52-1.908-3.58-2.881-7.584-2.83-11.64-2.342-1.91-4.251-4.296-5.6-7-2.183-4.385-3.27-9.233-3.17-14.13v-123c0-10.45 6.23-22.24 14.18-26.83L187.63 6c2.922-1.662 6.228-2.53 9.59-2.52 2.489.02 4.96.431 7.32 1.22 2.465.813 4.817 1.936 7 3.34 3.83 2.08 6.07 6.79 6.07 12.95v135.7l117.51 67.84c4.87 2.81 7.8 6.68 8.14 10.72.053.19.087.384.1.58.154 3.497-.258 6.995-1.22 10.36-1.86 7.143-6.478 13.257-12.84 17l-150.76 87.04c-4.104 2.18-8.704 3.259-13.35 3.13z" fill="#2D3E50" fill-rule="nonzero"/>
        <path d="M197.22 6.5c2.173.024 4.328.385 6.39 1.07 2.249.724 4.396 1.732 6.39 3-.281-.14-.572-.26-.87-.36 3.33 1.13 5.51 5 5.51 10.76v137.45l119 68.7c4.43 2.56 6.68 5.84 6.67 8.95h.08c.127 3.147-.251 6.293-1.12 9.32-1.648 6.386-5.772 11.852-11.46 15.19l-150.76 87.05c-3.657 1.904-7.739 2.844-11.86 2.73-5.4.046-10.724-1.282-15.47-3.86L39.36 282.77c-2.64-1.494-4.808-3.697-6.26-6.36-1.894-3.603-2.72-7.673-2.38-11.73h-.06c-2.588-1.662-4.665-4.01-6-6.78-1.966-3.957-2.938-8.333-2.83-12.75v-123c0-9.33 5.68-20.19 12.68-24.23L189.09 8.68c2.464-1.403 5.254-2.134 8.09-2.12l.04-.06zm9.72 3.47c.163-.01.327-.01.49 0h.4c-.133-.01-.267-.01-.4 0-.157-.01-.313-.01-.47 0h-.02zm-.28 0H205.98 206.66zm2 .2l.29.08-.29-.08c-.2-.053-.4-.093-.6-.12.2 0 .4.04.6.12zm-3.3 0l-.39.08-.15.05.54-.13zm-2.99 1.11l.55-.28-.55.28zM197.18.59c-3.855-.006-7.646.99-11 2.89h-.05L31.55 92.66c-8.79 5.08-15.68 18-15.68 29.43v123c-.104 5.381 1.1 10.707 3.51 15.52 1.34 2.628 3.134 4.998 5.3 7 .16 4.086 1.245 8.083 3.17 11.69 1.983 3.614 4.929 6.608 8.51 8.65l110.36 63.72c5.652 3.121 12.014 4.73 18.47 4.67 5.157.133 10.26-1.076 14.81-3.51l150.78-87.06c7.063-4.113 12.2-10.866 14.28-18.77 1.056-3.703 1.506-7.553 1.33-11.4-.026-.303-.072-.604-.14-.9-.54-4.92-4-9.52-9.6-12.77l-116-67V21c0-7.29-2.79-12.94-7.58-15.56-2.375-1.512-4.932-2.718-7.61-3.59-2.655-.882-5.432-1.34-8.23-1.36l-.05.1z" fill="#2D3E50" fill-rule="nonzero"/>
        <path d="M340.4 236.06l-12.06 1.11-113.63-65.61-156.91 90.6-27.08 2.5c-.34 4.063.486 8.14 2.38 11.75 1.452 2.663 3.62 4.866 6.26 6.36l110.36 63.73c8.09 4.66 20.32 5.17 27.33 1.13l150.77-87.06c5.688-3.338 9.812-8.804 11.46-15.19.869-3.027 1.247-6.173 1.12-9.32zM210 10.61c-1.555-.76-3.336-.916-5-.44-.435.116-.863.26-1.28.43-.592.226-1.164.5-1.71.82l-25.1 14.48L43.35 103c-7 4-12.69 14.89-12.69 24.23v137.43c-2.592-1.662-4.67-4.013-6-6.79-1.966-3.957-2.938-8.333-2.83-12.75v-123c0-9.33 5.68-20.19 12.68-24.23L189.09 8.65c4.453-2.41 9.726-2.793 14.48-1.05 2.263.724 4.424 1.736 6.43 3.01z" stroke="#2D3E50" stroke-width="2" fill="#CBD6E2" fill-rule="nonzero" stroke-linecap="round" stroke-linejoin="round"/>
        <path d="M177 334.48l158.61-91.58c7-4 6.12-11.11-2-15.78l-119-68.7-184 106.23 119 68.7c8.13 4.65 20.39 5.18 27.39 1.13z" stroke="#2D3E50" stroke-width="2" fill="#DFE3EB" fill-rule="nonzero" stroke-linecap="round" stroke-linejoin="round"/>
        <path d="M202 11.42L43.34 103c-7 4.05-12.69 14.9-12.69 24.24v137.41l184-106.23V21c-.01-9.33-5.65-13.62-12.65-9.58z" stroke="#2D3E50" stroke-width="2" fill="#2D3E50" fill-rule="nonzero" stroke-linecap="round" stroke-linejoin="round"/>
        <path stroke="#2D3E50" stroke-width="2" fill="#516F90" fill-rule="nonzero" stroke-linecap="round" stroke-linejoin="round" d="M202.1 26.62L43.2 118.35v124.01l158.9-91.73z"/>
        <path d="M231.18 247.14l-46.85 27.05c-3 1.73-2.62 4.74.83 6.73L208 294.1c3.45 2 8.67 2.21 11.65.48l46.86-27.05c3-1.72 2.61-4.73-.84-6.72l-22.83-13.19c-3.46-1.99-8.68-2.2-11.66-.48z" stroke="#2D3E50" stroke-width="2" fill="#DFE3EB" fill-rule="nonzero" stroke-linecap="round" stroke-linejoin="round"/>
        <path d="M209.65 176.27L61.56 261.76c-3 1.72-2.61 4.74.84 6.73l48.11 27.78c3.45 2 8.67 2.2 11.66.48l148.08-85.5c3-1.72 2.61-4.73-.84-6.72l-48.11-27.78c-3.45-1.99-8.67-2.21-11.65-.48zM71.29 273.62l158.9-91.74M86.37 282.32l158.89-91.73M101.44 291.03l158.9-91.74M110.51 296.27L62.4 268.49M134.32 289.73l-60.29-35.17M150.21 280.56l-60.7-35.4M165.81 271.23l-60.01-35.01M181.98 262.22l-60.3-35.17M197.86 253.05l-60.29-35.17M213.75 243.87l-60.47-35.26M229.63 234.7l-60.29-35.16M245.26 225.38l-60.04-35.01M261.4 216.36l-60.29-35.17" stroke="#2D3E50" stroke-width="2" fill="#425B76" fill-rule="nonzero" stroke-linecap="round" stroke-linejoin="round"/>
        <path d="M202.1 139.79v10.83l-7.63 4.4-28.82 16.65h-.14c-16.78-3.1-20.43 16.67-37.21 13.57-16.78-3.1-13.11-22.89-29.89-26-16.78-3.11-20.41 16.64-37.21 13.53-12-2.22-12.93-9.86-18-17v-37.41l15.4-8.89c2.84 3.44 6.29 6.25 11.24 7.13 16.89 3 20.43-16.78 37.31-13.76 16.88 3.02 13.34 22.81 30.23 25.84 16.89 3.03 20.43-16.78 37.31-13.77 16.88 3.01 12.12 16.55 27.18 24.76l.23.12z" opacity=".5" fill="#7C98B6" fill-rule="nonzero"/>
        <path stroke="#2D3E50" stroke-width="2" stroke-linecap="round" stroke-linejoin="round" d="M202.1 26.62L43.2 118.35v124.01l158.9-91.73z"/>
        <path d="M215 128l-16.75 9.73-48.5 28-43.59 25.16c-2.71 1.57-4.91-.09-4.91-3.7v-74.38c0-3.61 2.2-7.8 4.91-9.37l43.59-25.17 48.5-28L215 40.6V128z" fill="#2D3E50" fill-rule="nonzero" opacity=".3"/>
        <path d="M365 198.42L296.83 159c-3.65-2.11-6.6-7.75-6.6-12.61V49.74c0-4.86 2.95-7.09 6.6-5L365 84.13c3.64 2.11 6.59 7.75 6.59 12.61v96.69c.04 4.86-2.91 7.09-6.59 4.99z" stroke="#2D3E50" stroke-width="2" fill="#DFE3EB" fill-rule="nonzero" stroke-linecap="round" stroke-linejoin="round"/>
        <path d="M360 200.42L291.83 161c-3.65-2.11-6.6-7.75-6.6-12.61V51.74c0-4.86 2.95-7.09 6.6-5L360 86.13c3.64 2.11 6.59 7.75 6.59 12.61v96.69c.04 4.86-2.91 7.09-6.59 4.99z" stroke="#2D3E50" stroke-width="2" fill="#DFE3EB" fill-rule="nonzero" stroke-linecap="round" stroke-linejoin="round"/>
        <path d="M355 202.42L286.83 163c-3.65-2.11-6.6-7.75-6.6-12.61V53.74c0-4.86 2.95-7.09 6.6-5L355 88.13c3.64 2.11 6.59 7.75 6.59 12.61v96.69c.04 4.86-2.91 7.09-6.59 4.99z" stroke="#2D3E50" stroke-width="2" fill="#F28D57" fill-rule="nonzero" stroke-linecap="round" stroke-linejoin="round"/>
        <path d="M328.72 101.76l-30.29-17.49c-1.62-1.154-2.59-3.012-2.61-5 0-1.92 1.16-2.8 2.61-2l30.29 17.49c1.614 1.157 2.58 3.014 2.6 5 0 1.95-1.16 2.83-2.6 2zM314 108.16l-15.56-9c-1.615-1.157-2.584-3.013-2.61-5 0-1.92 1.16-2.8 2.61-2l15.56 9c1.617 1.156 2.586 3.013 2.61 5-.01 1.95-1.18 2.84-2.61 2z" fill="#E68250" fill-rule="nonzero"/>
        <rect stroke="#2D3E50" stroke-width="2" fill="#DFE3EB" fill-rule="nonzero" stroke-linecap="round" stroke-linejoin="round" transform="rotate(30 280.502 60.502)" x="274.002" y="58.002" width="13" height="5" rx="2.5"/>
        <rect stroke="#2D3E50" stroke-width="2.007" fill="#DFE3EB" fill-rule="nonzero" stroke-linecap="round" stroke-linejoin="round" transform="rotate(29.887 282.483 72.098)" x="275.961" y="69.59" width="13.045" height="5.017" rx="2.5"/>
        <rect stroke="#2D3E50" stroke-width="2" fill="#DFE3EB" fill-rule="nonzero" stroke-linecap="round" stroke-linejoin="round" transform="rotate(30 280.502 82.504)" x="274.002" y="80.004" width="13" height="5" rx="2.5"/>
        <rect stroke="#2D3E50" stroke-width="2" fill="#DFE3EB" fill-rule="nonzero" stroke-linecap="round" stroke-linejoin="round" transform="rotate(30 280.502 93.5)" x="274.002" y="91.001" width="13" height="5" rx="2.5"/>
        <rect stroke="#2D3E50" stroke-width="2" fill="#DFE3EB" fill-rule="nonzero" stroke-linecap="round" stroke-linejoin="round" transform="rotate(30 280.502 104.497)" x="274.002" y="101.997" width="13" height="5" rx="2.5"/>
        <rect stroke="#2D3E50" stroke-width="2" fill="#DFE3EB" fill-rule="nonzero" stroke-linecap="round" stroke-linejoin="round" transform="rotate(30 280.502 115.503)" x="274.002" y="113.003" width="13" height="5" rx="2.5"/>
        <rect stroke="#2D3E50" stroke-width="2" fill="#DFE3EB" fill-rule="nonzero" stroke-linecap="round" stroke-linejoin="round" transform="rotate(30 280.502 126.5)" x="274.002" y="123.999" width="13" height="5" rx="2.5"/>
        <rect stroke="#2D3E50" stroke-width="2" fill="#DFE3EB" fill-rule="nonzero" stroke-linecap="round" stroke-linejoin="round" transform="rotate(30 280.502 137.496)" x="274.002" y="134.996" width="13" height="5" rx="2.5"/>
        <rect stroke="#2D3E50" stroke-width="2" fill="#DFE3EB" fill-rule="nonzero" stroke-linecap="round" stroke-linejoin="round" transform="rotate(30 280.326 148.185)" x="273.826" y="145.685" width="13" height="5" rx="2.5"/>
        <path d="M70.16 83.11l-12.81-6.23c-1.212-.885-2.564-1.561-4-2-4.8-1.42-10.78-.45-17.28 3.3-15.78 9.11-28.58 31.18-28.58 49.29 0 9.1 3.24 15.47 8.46 18.4h.07c.33.18.66.35 1 .5l14.06 7 5.59-10.05c15.5-9.32 28-31 28-48.92v-1.3l5.49-9.99z" stroke="#2D3E50" stroke-width="2" fill="#54BEA6" fill-rule="nonzero" stroke-linecap="round" stroke-linejoin="round"/>
        <ellipse stroke="#2D3E50" stroke-width="2" fill="#54BEA6" fill-rule="nonzero" stroke-linecap="round" stroke-linejoin="round" transform="rotate(-59.69 50 118)" cx="50" cy="118" rx="40.29" ry="23.26"/>
        <path d="M50 85.21c-15.79 9.11-28.58 31.17-28.58 49.29 0 8.31 2.69 14.32 7.11 17.55 5.24 3.8 12.91 3.68 21.47-1.26 8.56-4.94 16.23-13.68 21.47-23.53 4.42-8.34 7.11-17.45 7.11-25.76 0-18.12-12.79-25.41-28.58-16.29zm18.75 34.39C65 114.33 58 113.37 50 118c-8 4.63-15 13.67-18.75 23.25-1.84-2.6-2.9-6.23-2.9-10.75 0-13.72 9.69-30.44 21.65-37.34 11.96-6.9 21.65-1.38 21.65 12.34-.096 4.838-1.079 9.617-2.9 14.1z" stroke="#2D3E50" stroke-width="2" fill="#7FDED2" fill-rule="nonzero" stroke-linecap="round" stroke-linejoin="round"/>
        <ellipse stroke="#2D3E50" stroke-width="2" fill="#7FDED2" fill-rule="nonzero" stroke-linecap="round" stroke-linejoin="round" transform="rotate(-59.69 49.99 106.07)" cx="49.991" cy="106.07" rx="8.55" ry="4.93"/>
        <path d="M161.75 79.76l-48.5 28V96.81c0-3.61 2.2-7.8 4.91-9.37l43.59-25.17v17.49zM210.25 51.76l-48.5 28V62.28l48.5-28zM258.75 23.76l-48.5 28V34.27l43.59-25.16c2.71-1.57 4.91.09 4.91 3.7v10.95z" stroke="#2D3E50" stroke-width="2" fill="#DFE3EB" fill-rule="nonzero" stroke-linecap="round" stroke-linejoin="round"/>
        <path stroke="#2D3E50" stroke-width="2" fill="#FFF" fill-rule="nonzero" stroke-linecap="round" stroke-linejoin="round" d="M161.75 97.25l-48.5 28v-17.49l48.5-28zM210.25 69.25l-48.5 28V79.76l48.5-28zM258.75 41.25l-48.5 28V51.76l48.5-28z"/>
        <path stroke="#2D3E50" stroke-width="2" fill="#DFE3EB" fill-rule="nonzero" stroke-linecap="round" stroke-linejoin="round" d="M161.75 114.75l-48.5 28v-17.5l48.5-28zM210.25 86.75l-48.5 28v-17.5l48.5-28zM258.75 58.75l-48.5 28v-17.5l48.5-28z"/>
        <path stroke="#2D3E50" stroke-width="2" fill="#FFF" fill-rule="nonzero" stroke-linecap="round" stroke-linejoin="round" d="M161.75 132.24l-48.5 28v-17.49l48.5-28zM210.25 104.24l-48.5 28v-17.49l48.5-28zM258.75 76.24l-48.5 28V86.75l48.5-28z"/>
        <path d="M161.75 149.73l-43.59 25.16c-2.71 1.57-4.91-.09-4.91-3.7v-10.95l48.5-28v17.49zM210.25 121.72l-48.5 28.01v-17.49l48.5-28zM253.84 96.56l-43.59 25.17v-17.49l48.5-28v10.95c0 3.61-2.2 7.81-4.91 9.37z" stroke="#2D3E50" stroke-width="2" fill="#DFE3EB" fill-rule="nonzero" stroke-linecap="round" stroke-linejoin="round"/>
        <path d="M140.47 85.49l-18.06 10.43c-.75.43-1.36 0-1.36-1v-.34c.016-1.036.52-2.004 1.36-2.61l18.06-10.42c.75-.44 1.36 0 1.36 1v.34c-.016 1.033-.52 1.998-1.36 2.6zM140.47 120.27l-18.06 10.43c-.75.44-1.36 0-1.36-1v-.34c.016-1.033.52-1.998 1.36-2.6l18.06-10.43c.75-.44 1.36 0 1.36 1v.34c-.016 1.033-.52 1.998-1.36 2.6zM136.14 157.56l-13.73 7.92c-.75.44-1.36 0-1.36-1v-.34c.016-1.033.52-1.998 1.36-2.6l13.73-7.93c.75-.43 1.36 0 1.36 1v.39c-.031 1.018-.534 1.964-1.36 2.56zM185.5 112.16l-13.73 7.93c-.75.43-1.36 0-1.36-1v-.34c.016-1.036.52-2.004 1.36-2.61l13.73-7.92c.76-.44 1.37 0 1.37 1v.34c-.015 1.036-.524 2.002-1.37 2.6zM150.86 96.39l-28.45 16.42c-.75.44-1.36 0-1.36-1v-.34c.016-1.033.52-1.998 1.36-2.6l28.45-16.43c.76-.43 1.37 0 1.37 1v.34c-.015 1.039-.524 2.008-1.37 2.61zM144.8 135.66l-22.39 12.93c-.75.43-1.36 0-1.36-1v-.34c.016-1.036.52-2.004 1.36-2.61l22.39-12.92c.75-.44 1.36 0 1.36 1v.34c-.016 1.033-.52 1.998-1.36 2.6zM240.06 62.77L222 73.2c-.75.44-1.36 0-1.36-1v-.34c.016-1.033.52-1.998 1.36-2.6l18.06-10.43c.76-.44 1.37 0 1.37 1v.34c-.015 1.036-.524 2.002-1.37 2.6zM235.73 100.06L222 108c-.75.44-1.36 0-1.36-1v-.34c-.004-1.054.503-2.045 1.36-2.66l13.73-7.93c.76-.43 1.37 0 1.37 1v.34c-.002 1.053-.512 2.04-1.37 2.65zM244.39 78.16L222 91.09c-.75.43-1.36 0-1.36-1v-.34c.016-1.036.52-2.004 1.36-2.61l22.39-12.92c.76-.44 1.37 0 1.37 1v.34c-.015 1.036-.524 2.002-1.37 2.6zM194.16 89.27l-22.39 12.93c-.75.44-1.36 0-1.36-1v-.34c.016-1.033.52-1.998 1.36-2.6l22.39-12.93c.76-.44 1.37 0 1.37 1v.34c-.015 1.036-.524 2.002-1.37 2.6zM194.16 124.06L171.77 137c-.75.44-1.36 0-1.36-1v-.34c.016-1.033.52-1.998 1.36-2.6l22.39-12.93c.76-.43 1.37 0 1.37 1v.34c-.021 1.031-.53 1.992-1.37 2.59zM199.36 68.39l-28.45 16.42c-.75.44-1.36 0-1.36-1v-.34c.016-1.033.52-1.998 1.36-2.6l28.45-16.43c.75-.43 1.36 0 1.36 1v.34c-.016 1.036-.52 2.004-1.36 2.61zM244.39 42.39l-23.25 13.42c-.76.44-1.37 0-1.37-1v-.34c.015-1.036.524-2.002 1.37-2.6l23.25-13.43c.76-.43 1.37 0 1.37 1v.34c-.015 1.039-.524 2.008-1.37 2.61zM195 54l-24.12 13.93c-.75.43-1.36 0-1.36-1v-.34c.016-1.036.52-2.004 1.36-2.61L195 50c.75-.44 1.36 0 1.36 1v.34c.004 1.054-.503 2.045-1.36 2.66zM238.33 29l-18.06 10.43c-.75.43-1.36 0-1.36-1v-.34c.016-1.036.52-2.004 1.36-2.61L238.33 25c.75-.44 1.36 0 1.36 1v.34c.004 1.054-.503 2.045-1.36 2.66z" fill="#9AACC2" fill-rule="nonzero"/>
    </g>
</svg>
