<svg width="396" height="389" viewBox="0 0 396 389" xmlns="http://www.w3.org/2000/svg">
    <g fill="none" fill-rule="evenodd">
        <path d="M228.47 384.15l146.28-84.45c12.57-7.26 11-19.93-3.52-28.3l-105.3-60.8c-14.5-8.37-36.45-9.28-49-2L70.64 293c-12.57 7.25-11 19.92 3.52 28.29l105.3 60.8c14.54 8.4 36.45 9.31 49.01 2.06z" fill="#FAE0B5" fill-rule="nonzero" opacity=".5"/>
        <path d="M238.91 5c2.176.023 4.335.384 6.4 1.07 2.246.724 4.39 1.732 6.38 3-.278-.14-.565-.26-.86-.36 3.32 1.13 5.51 5 5.51 10.76v137.4l119 68.7c4.43 2.56 6.68 5.84 6.67 8.94h.09c.12 3.146-.257 6.292-1.12 9.32-1.653 6.378-5.776 11.836-11.46 15.17l-150.78 87.08c-3.657 1.903-7.74 2.84-11.86 2.72-5.397.046-10.718-1.282-15.46-3.86L81.06 281.22c-2.64-1.494-4.808-3.697-6.26-6.36-1.89-3.605-2.718-7.673-2.39-11.73-2.591-1.658-4.67-4.006-6-6.78-1.966-3.957-2.938-8.333-2.83-12.75V163l-18.45 10.66c-1.08.665-2.313 1.037-3.58 1.08-.929.009-1.838-.263-2.61-.78l-9.71-4.66c-2.11-1-3.47-3.64-3.47-7.49v-39.63c-1.75-.245-3.395-.976-4.75-2.11l-9.94-5.73c-.563-.252-1.1-.56-1.6-.92-3-2.17-4.86-6.26-4.86-11.89 0-12.25 8.66-27.18 19.34-33.35 2.608-1.627 5.598-2.54 8.67-2.65 1.427-.013 2.84.273 4.15.84.6.268 1.166.604 1.69 1l10.5 6.08c1.591.728 2.95 1.88 3.93 3.33L175.39 6c1.095-.644 2.34-.99 3.61-1 .747-.004 1.484.17 2.15.51l9.9 4.83c.205.078.403.175.59.29h.12c1.84 1.15 3 3.67 3 7.23v10l36.07-20.83c2.468-1.394 5.256-2.122 8.09-2.11l-.01.08zm9.78 3.33H249.58 248.69zm-.31 0h-.67.67zm2 .2l.29.08-.29-.08-.6-.13.6.13zm-3.3 0l-.39.08h-.14l.53-.12v.04zm-2.99 1.07l.54-.28-.54.28zm-5.2-8.69c-3.522-.013-6.986.894-10.05 2.63L198.75 21v-3.08c0-4.68-1.6-8.35-4.51-10.37-.224-.182-.47-.336-.73-.46-.262-.15-.532-.283-.81-.4l-9.78-4.77c-1.217-.61-2.56-.924-3.92-.92-1.973.039-3.902.598-5.59 1.62L53.65 71.71c-.86-.731-1.816-1.343-2.84-1.82L40.63 64c-.698-.49-1.441-.913-2.22-1.26h-.08c-1.809-.78-3.76-1.175-5.73-1.16-3.776.102-7.458 1.202-10.67 3.19C9.93 71.67.59 87.84.59 101.58c0 6.73 2.32 12.11 6.52 15.13.662.48 1.369.895 2.11 1.24l9.49 5.48c.919.729 1.927 1.337 3 1.81v36.6c0 5.19 2 9.16 5.47 11 .086.055.176.101.27.14l9.58 4.6c1.352.806 2.896 1.231 4.47 1.23 1.97-.04 3.895-.598 5.58-1.62L59.53 170v73.66c-.1 5.061 1.029 10.071 3.29 14.6 1.35 2.673 3.215 5.053 5.49 7 .04 4.076 1.069 8.08 3 11.67 1.803 3.298 4.49 6.027 7.76 7.88l110.36 63.73c5.354 2.918 11.362 4.429 17.46 4.39 4.825.136 9.602-.988 13.86-3.26l150.78-87.05c6.588-3.868 11.374-10.19 13.31-17.58.982-3.481 1.407-7.096 1.26-10.71-.02-.24-.06-.477-.12-.71-.42-4.33-3.51-8.43-8.63-11.38l-117-67.55V19.46c0-6.54-2.43-11.56-6.57-13.82-2.258-1.44-4.686-2.592-7.23-3.43-2.463-.813-5.037-1.238-7.63-1.26l-.03-.04z" fill="#2D3E50" fill-rule="nonzero"/>
        <path d="M296.81 73.77c3.245.12 6.402 1.085 9.16 2.8 11.28 6.52 20.42 22.29 20.42 35.23 0 6-1.94 10.27-5.12 12.56-.527.39-1.094.726-1.69 1l-10.05 5.79c-.84.7-1.794 1.252-2.82 1.63-1.227.448-2.524.671-3.83.66-3.247-.118-6.406-1.087-9.16-2.81-11.29-6.51-20.43-22.28-20.43-35.22 0-6.37 2.21-10.86 5.8-13l.25-.15 11.24-6.51c.56-.396 1.16-.73 1.79-1 1.388-.603 2.887-.907 4.4-.89l.04-.09zm-.04-3.91c-2.009-.015-3.999.38-5.85 1.16l-.3.13c-.777.355-1.52.78-2.22 1.27l-11.05 6.4-.31.19L277 79c-5 3-7.71 8.83-7.71 16.42 0 14.43 9.85 31.43 22.43 38.69 3.36 2.08 7.21 3.232 11.16 3.34 1.776.012 3.54-.293 5.21-.9 1.337-.496 2.59-1.198 3.71-2.08l9.61-5.54c.755-.352 1.474-.774 2.15-1.26h.05c4.38-3.15 6.79-8.77 6.79-15.81 0-14.44-9.85-31.43-22.42-38.69-3.36-2.079-7.21-3.23-11.16-3.34l-.05.03zM361.72 44.6c3.245.12 6.402 1.085 9.16 2.8 11.28 6.52 20.42 22.29 20.42 35.23 0 6-1.94 10.27-5.13 12.56-.527.391-1.094.726-1.69 1l-10 5.74c-1.887 1.569-4.277 2.403-6.73 2.35-3.245-.117-6.404-1.083-9.16-2.8-11.28-6.51-20.43-22.28-20.43-35.23 0-6.36 2.21-10.85 5.8-13l11.53-6.68c.56-.396 1.16-.731 1.79-1 1.388-.603 2.887-.907 4.4-.89l.04-.08zm-.04-3.92c-2.019-.011-4.02.387-5.88 1.17l-.26.12c-.784.352-1.53.78-2.23 1.28L342 49.75c-.163.097-.32.204-.47.32-4.72 3.07-7.31 8.78-7.31 16.16 0 14.44 9.85 31.44 22.43 38.7 3.362 2.073 7.212 3.221 11.16 3.33 3.254.056 6.43-1.003 9-3l9.5-5.48c.757-.354 1.48-.776 2.16-1.26 4.38-3.15 6.79-8.76 6.79-15.81 0-14.43-9.85-31.43-22.42-38.69-3.362-2.074-7.211-3.226-11.16-3.34zM361.82 128.92c3.245.117 6.404 1.083 9.16 2.8 11.28 6.51 20.43 22.29 20.43 35.23 0 5.95-1.94 10.27-5.13 12.56-.53.393-1.1.728-1.7 1l-12.87 7.42-.07-.13c-1.277.485-2.634.726-4 .71-3.247-.12-6.405-1.088-9.16-2.81-11.28-6.51-20.42-22.28-20.42-35.22 0-7.36 2.95-12.21 7.57-13.84l10-5.77c.555-.398 1.152-.733 1.78-1 1.384-.603 2.88-.906 4.39-.89l.02-.06zm-.02-3.94c-2.016-.016-4.014.382-5.87 1.17l-.27.11c-.778.364-1.523.792-2.23 1.28L344 133c-6.19 2.38-9.86 8.88-9.86 17.47 0 14.43 9.85 31.43 22.42 38.69 3.362 2.074 7.211 3.226 11.16 3.34 1.427.003 2.847-.192 4.22-.58.637-.03 1.258-.212 1.81-.53l12.71-7.33c.755-.352 1.474-.774 2.15-1.26h.05c4.37-3.15 6.79-8.77 6.79-15.81 0-14.44-9.85-31.43-22.43-38.69-3.36-2.08-7.21-3.232-11.16-3.34l-.06.02z" fill="#2D3E50" fill-rule="nonzero"/>
        <path d="M191.76 10.64l-10.61-5.17c-1.56-.81-3.56-.68-5.74.58L34.8 87.21c-5 2.89-9.06 10.63-9.06 17.3v57.28c0 3.85 1.36 6.49 3.47 7.49l9.71 4.66 15.64-16.72 120.83-69.76c5-2.89 9.06-10.64 9.06-17.31v-51.7l7.31-7.81zM382.1 234.51l-12.1 1.1L256.4 170 99.49 260.6l-27.07 2.49c-.34 4.066.486 8.146 2.38 11.76 1.452 2.663 3.62 4.866 6.26 6.36l110.36 63.72c8.08 4.67 20.31 5.18 27.32 1.14L369.52 259c5.691-3.33 9.822-8.788 11.48-15.17.856-3.03 1.227-6.175 1.1-9.32z" stroke="#2D3E50" stroke-width="2" fill="#CBD6E2" fill-rule="nonzero" stroke-linecap="round" stroke-linejoin="round"/>
        <path d="M251.69 9.06c-1.555-.76-3.336-.916-5-.44-.433.112-.858.255-1.27.43-.592.226-1.164.5-1.71.82L218.6 24.34 85 101.46c-7 4-12.68 14.88-12.68 24.23V263.1c-2.588-1.662-4.665-4.009-6-6.78-1.966-3.957-2.938-8.333-2.83-12.75v-123c0-9.33 5.68-20.19 12.69-24.23L230.75 7.09c5.11-2.88 10.35-2.38 14.49-1 2.269.709 4.436 1.707 6.45 2.97z" stroke="#2D3E50" stroke-width="2" fill="#CBD6E2" fill-rule="nonzero" stroke-linecap="round" stroke-linejoin="round"/>
        <path d="M218.68 332.93l158.62-91.58c7-4 6.13-11.11-2-15.78l-119-68.7-184 106.22 119 68.71c8.14 4.67 20.37 5.2 27.38 1.13z" stroke="#2D3E50" stroke-width="2" fill="#DFE3EB" fill-rule="nonzero" stroke-linecap="round" stroke-linejoin="round"/>
        <path d="M243.65 9.87L85 101.45c-7 4.05-12.68 14.9-12.68 24.24V263.1l184-106.23V19.46c.02-9.34-5.66-13.63-12.67-9.59z" stroke="#2D3E50" stroke-width="2" fill="#2D3E50" fill-rule="nonzero" stroke-linecap="round" stroke-linejoin="round"/>
        <path stroke="#2D3E50" stroke-width="2" fill="#516F90" fill-rule="nonzero" stroke-linecap="round" stroke-linejoin="round" d="M243.79 25.06L84.89 116.8v124.01l158.9-91.74z"/>
        <path d="M272.87 245.59L226 272.64c-3 1.72-2.61 4.74.84 6.73l22.83 13.18c3.45 2 8.66 2.21 11.65.48l46.85-27c3-1.72 2.61-4.73-.84-6.73l-22.83-13.18c-3.43-2.04-8.64-2.25-11.63-.53z" stroke="#2D3E50" stroke-width="2" fill="#DFE3EB" fill-rule="nonzero" stroke-linecap="round" stroke-linejoin="round"/>
        <path d="M251.34 174.71l-148.08 85.5c-3 1.72-2.61 4.73.84 6.73l48.11 27.77c3.45 2 8.66 2.21 11.65.49l148.08-85.5c3-1.72 2.61-4.73-.84-6.72L263 175.2c-3.46-1.99-8.67-2.2-11.66-.49zM112.99 272.07l158.89-91.74M128.06 280.77l158.9-91.74M143.13 289.47l158.9-91.73M152.21 294.71l-48.11-27.77M176.02 288.18l-60.3-35.17M191.9 279.01l-60.69-35.4M207.51 269.67l-60.02-35M223.67 260.66l-60.29-35.16M239.56 251.49l-60.3-35.16M255.44 242.32l-60.46-35.26M271.33 233.15l-60.3-35.17M286.96 223.83l-60.04-35.02M303.1 214.81l-60.3-35.17" stroke="#2D3E50" stroke-width="2" fill="#425B76" fill-rule="nonzero" stroke-linecap="round" stroke-linejoin="round"/>
        <path d="M243.79 138.24v10.83l-7.63 4.4-28.82 16.64h-.14c-16.77-3.11-20.43 16.67-37.2 13.57-16.77-3.1-13.12-22.89-29.89-26-16.77-3.11-20.43 16.68-37.21 13.57-12-2.22-12.94-9.87-18-17V116.8l15.39-8.88c2.84 3.44 6.3 6.24 11.24 7.13 16.89 3 20.43-16.78 37.31-13.77 16.88 3.01 13.35 22.82 30.23 25.84 16.88 3.02 20.43-16.77 37.31-13.76 16.88 3.01 12.12 16.55 27.18 24.76.07.05.15.08.23.12z" opacity=".5" fill="#7C98B6" fill-rule="nonzero"/>
        <path stroke="#2D3E50" stroke-width="2" stroke-linecap="round" stroke-linejoin="round" d="M243.79 25.06L84.89 116.8v124.01l158.9-91.74z"/>
        <path d="M201.92 50.69V91c0 6.67-4.05 14.42-9.05 17.31L86.08 170v-52.43l115.84-66.88z" fill="#2D3E50" fill-rule="nonzero" opacity=".3"/>
        <path d="M185.69 92.47L45.11 173.64c-5 2.88-9.06-.18-9.06-6.85v-57.28c0-6.67 4-14.42 9.06-17.31L185.69 11c5-2.89 9.06.17 9.06 6.84v57.28c0 6.71-4.05 14.46-9.06 17.35z" stroke="#2D3E50" stroke-width="2" fill="#DFE3EB" fill-rule="nonzero" stroke-linecap="round" stroke-linejoin="round"/>
        <ellipse stroke="#9AACC2" stroke-width="4" fill="#DFE3EB" fill-rule="nonzero" stroke-linecap="round" stroke-linejoin="round" transform="rotate(-59.69 73.475 116.545)" cx="73.475" cy="116.545" rx="29.1" ry="16.8"/>
        <ellipse fill="#9AACC2" fill-rule="nonzero" transform="rotate(-36.63 73.472 130.984)" cx="73.472" cy="130.984" rx="19.57" ry="7.74"/>
        <ellipse fill="#9AACC2" fill-rule="nonzero" transform="rotate(-59.826 71.787 108.33)" cx="71.787" cy="108.331" rx="10.405" ry="6.009"/>
        <path d="M164.83 51.57L112.12 82c-1.92 1.1-3.47-.07-3.47-2.62.038-2.636 1.326-5.096 3.47-6.63l52.71-30.43c1.92-1.11 3.47.06 3.47 2.62s-1.55 5.53-3.47 6.63zM155.8 91.58l-43.68 25.22c-1.92 1.11-3.47-.07-3.47-2.62.04-2.635 1.327-5.095 3.47-6.63l43.68-25.22c1.92-1.1 3.47.07 3.47 2.63 0 2.55-1.55 5.52-3.47 6.62zM143.73 71.91l28.85-16.65c1.91-1.1 3.46.07 3.46 2.62-.04 2.633-1.322 5.092-3.46 6.63l-28.85 16.65c-1.91 1.11-3.47-.07-3.47-2.62.045-2.634 1.331-5.092 3.47-6.63zM112.12 90.17l18.52-10.7c1.92-1.1 3.47.07 3.47 2.62-.038 2.636-1.326 5.096-3.47 6.63l-18.52 10.69c-1.92 1.11-3.47-.07-3.47-2.62 0-2.55 1.55-5.52 3.47-6.62z" fill="#9AACC2" fill-rule="nonzero"/>
        <path d="M4.59 101.53c0-12.25 8.66-27.18 19.34-33.35 4.92-2.84 9.41-3.32 12.82-1.81.6.268 1.166.604 1.69 1l10.92 6.32-7 12.85c-1.918 7.489-5.703 14.37-11 20l-8.11 14.8-12.19-7c-.563-.252-1.1-.56-1.6-.92-3.03-2.17-4.87-6.26-4.87-11.89z" stroke="#2D3E50" stroke-width="2" fill="#54BEA6" fill-rule="nonzero" stroke-linecap="round" stroke-linejoin="round"/>
        <ellipse stroke="#2D3E50" stroke-width="2" fill="#54BEA6" fill-rule="nonzero" stroke-linecap="round" stroke-linejoin="round" transform="rotate(-59.69 36.043 97.43)" cx="36.043" cy="97.43" rx="27.29" ry="15.75"/>
        <path d="M37.4 108.5l-2.71 1.56c-.83.48-1.51 0-1.51-1.14V89.26c.02-1.148.58-2.219 1.51-2.89l2.71-1.56c.84-.49 1.52 0 1.52 1.14v19.65c-.019 1.153-.583 2.229-1.52 2.9z" fill="#FFF" fill-rule="nonzero"/>
        <path d="M25.73 104.67v-2.55c.015-1.149.575-2.222 1.51-2.89l17.62-10.17c.83-.48 1.51 0 1.51 1.14v2.55c-.02 1.148-.58 2.219-1.51 2.89l-17.62 10.17c-.84.48-1.51-.03-1.51-1.14z" fill="#FFF" fill-rule="nonzero"/>
        <path d="M326.39 111.8c0-12.94-9.14-28.71-20.42-35.23-5.21-3-10-3.51-13.56-1.91-.63.27-1.23.604-1.79 1l-11.53 6.68L286.52 96c2.013 7.93 6.008 15.218 11.61 21.18l8.57 15.63 12.87-7.42c.596-.274 1.163-.61 1.69-1 3.19-2.32 5.13-6.63 5.13-12.59z" stroke="#2D3E50" stroke-width="2" fill="#E68250" fill-rule="nonzero" stroke-linecap="round" stroke-linejoin="round"/>
        <ellipse stroke="#2D3E50" stroke-width="1.99" fill="#F28D57" fill-rule="nonzero" stroke-linecap="round" stroke-linejoin="round" transform="rotate(-30.174 291.26 108.37)" cx="291.261" cy="108.37" rx="16.533" ry="28.64"/>
        <path d="M291.13 95.42l-1.49-2.58c-1.07-1.84-2.8-2.84-3.87-2.23l-1.28.73c-2.17 1.23-2.17 5.54-.37 10.87.931 2.714 2.134 5.327 3.59 7.8 1.43 2.493 3.106 4.838 5 7 3.74 4.22 7.49 6.39 9.66 5.15l1.28-.73c1.07-.61 1.07-2.59 0-4.43l-1.49-2.58c-1.07-1.84-2.8-2.84-3.87-2.24l-1.75 1c-1.08.62-2.79-.16-4.07-1.88-.69-.935-1.325-1.91-1.9-2.92-.586-1-1.116-2.032-1.59-3.09-.85-2-.67-3.82.42-4.44l1.74-1c1.06-.6 1.06-2.59-.01-4.43z" fill="#FFF" fill-rule="nonzero"/>
        <path d="M391.3 82.63c0-12.94-9.14-28.71-20.42-35.23-5.21-3-9.95-3.5-13.56-1.91-.63.269-1.23.604-1.79 1L344 53.21l7.44 13.57c1.992 7.939 5.97 15.24 11.56 21.22l8.57 15.64 12.87-7.43c.596-.274 1.163-.609 1.69-1 3.23-2.31 5.17-6.62 5.17-12.58z" stroke="#2D3E50" stroke-width="2" fill="#DBAE60" fill-rule="nonzero" stroke-linecap="round" stroke-linejoin="round"/>
        <ellipse stroke="#2D3E50" stroke-width="2" fill="#F5C26B" fill-rule="nonzero" stroke-linecap="round" stroke-linejoin="round" transform="rotate(-30.31 358.637 78.037)" cx="358.637" cy="78.037" rx="16.62" ry="28.79"/>
        <path d="M366.93 92.19l-16.61-9.58c-1.812-1.294-2.9-3.374-2.93-5.6v-9.77c0-2.15 1.32-3.15 2.93-2.21l16.61 9.59c1.809 1.292 2.896 3.367 2.93 5.59V90c0 2.14-1.31 3.13-2.93 2.19z" fill="#FFF" fill-rule="nonzero"/>
        <path d="M350.26 68.51l6.29 8.73c1.24 1.73 2.91 2.69 4.16 2.4l6.28-1.47" stroke="#F5C26B" stroke-linecap="round" stroke-linejoin="round"/>
        <path d="M391.41 167c0-12.94-9.15-28.72-20.43-35.23-5.2-3-10-3.51-13.55-1.91-.628.267-1.225.602-1.78 1l-11.54 6.68 7.44 13.57c2.021 7.926 6.015 15.213 11.61 21.18l8.57 15.63 12.87-7.42c.6-.272 1.17-.607 1.7-1 3.17-2.28 5.11-6.6 5.11-12.5z" stroke="#2D3E50" stroke-width="2" fill="#3891B0" fill-rule="nonzero" stroke-linecap="round" stroke-linejoin="round"/>
        <ellipse stroke="#2D3E50" stroke-width="2" fill="#42A5BD" fill-rule="nonzero" stroke-linecap="round" stroke-linejoin="round" transform="rotate(-30.31 358.526 162.26)" cx="358.526" cy="162.26" rx="16.62" ry="28.79"/>
        <path d="M358.52 151.18c-6.67-3.85-12.07-2.75-12.07 2.47 0 2.75 1.51 6.09 3.9 9.19l-1.32 4c-.19.57.5 1.52 1 1.38l4.3-1.21c1.296 1.133 2.7 2.138 4.19 3 6.67 3.85 12.08 2.74 12.08-2.47 0-5.21-5.41-12.54-12.08-16.36z" fill="#FFF" fill-rule="nonzero"/>
    </g>
</svg>
