
<svg xmlns="http://www.w3.org/2000/svg" viewBox="0 0 221.86 169.08"><defs><style>.cls-1{fill:#00a4bd;opacity:0.18;}.cls-2{fill:#cbd6e2;stroke-width:4.22px;}.cls-2,.cls-3,.cls-4,.cls-5{stroke:#516f90;}.cls-2,.cls-4,.cls-5{stroke-miterlimit:10;}.cls-3{fill:#f5f8fa;stroke-linecap:round;stroke-linejoin:round;stroke-width:3.2px;}.cls-4,.cls-5{fill:none;}.cls-4{stroke-width:2.94px;}.cls-5{stroke-width:2.94px;}.cls-6{fill:#fb0;}.cls-6,.cls-7,.cls-8{fill-rule:evenodd;}.cls-7{fill:#7fd1de;}.cls-8{fill:#f2547d;}</style></defs><title>email</title><g id="email"><rect class="cls-1" x="5.39" y="41.48" width="198.87" height="127.6" rx="10.22"/><rect class="cls-2" x="2.26" y="37.17" width="193.61" height="124.23" rx="9.95"/><path class="cls-3" d="M9.87,40.43l88.27,63a1.41,1.41,0,0,0,1.68,0l88.27-63c1.32-1,.73-3.26-.84-3.26H10.71C9.14,37.17,8.54,39.48,9.87,40.43Z"/><line class="cls-4" x1="5.39" y1="158.69" x2="77.47" y2="88.7"/><line class="cls-5" x1="120.49" y1="88.7" x2="192.73" y2="158.69"/><path id="Fill-172" class="cls-6" d="M171.37,21.18c-7.33-1.83-8.79-3.31-10.58-10.77-1.8,7.46-3.25,8.94-10.58,10.77,7.33,1.82,8.78,3.3,10.58,10.76,1.79-7.46,3.25-8.94,10.58-10.76"/><path id="Fill-172-2" data-name="Fill-172" class="cls-7" d="M185.93,7.12c-4.4-1.09-5.28-2-6.35-6.46-1.08,4.48-2,5.37-6.35,6.46,4.4,1.1,5.27,2,6.35,6.46,1.07-4.47,1.95-5.36,6.35-6.46"/><path id="Fill-172-3" data-name="Fill-172" class="cls-8" d="M221.86,27.28c-9.12-2.28-10.93-4.12-13.16-13.4-2.24,9.28-4,11.12-13.17,13.4,9.12,2.27,10.93,4.11,13.17,13.39,2.23-9.28,4-11.12,13.16-13.39"/></g></svg>