<svg xmlns="http://www.w3.org/2000/svg" viewBox="0 0 165.73 207.34" width="165.73" height="207.34">
    <defs>
        <style>
            .e,.i{fill-rule:evenodd}.d,.g{stroke:#33475c}.d{stroke-linecap:round}.d,.g{stroke-linejoin:round}.d,.e,.g,.o{fill:#fff}.d{stroke-width:5.87px}.g{stroke-width:2.35px}.i{fill:#e6eff6}.p{fill:#ced7dd}
        </style>
    </defs>
    <g style="isolation:isolate">
        <path d="M163.69 158.53c2.73 1.57 2.73 4.15 0 5.73l-72.57 41.89a11 11 0 0 1-9.93 0L8.63 164.26c-2.73-1.58-2.73-4.16 0-5.73l72.56-41.9a11 11 0 0 1 9.93 0z" style="isolation:isolate" fill-rule="evenodd" fill="#00bda5" opacity=".2"/>
        <path d="M75 99.64l-1 .54" stroke-width="1.17" stroke-linejoin="round" stroke-linecap="round" stroke="#33475c" fill="none"/>
        <path class="d" d="M10.26 129.4l78.05-45.06a8.51 8.51 0 0 1 4.85-.81l6.08 48.85c.24 2-2.35 3.47-5.77 3.33l-84.61-3.5a2.42 2.42 0 0 1 1.4-2.81z"/>
        <path class="d" d="M112.44 99.19l-12.07 46.9-61.9-.75c-1.26.73-27.81-13-29.61-13.13L3 83.31c-.25-2 2.35-3.48 5.77-3.33L93 83.54c.3 1 20.75 14.92 19.49 15.65z"/>
        <path class="d" d="M162.46 124.11l-10.73-4.34-.66.64-54.18-31.28c-1.14-.65 3.46 4.29 2 4.15l6 31.94-27.16-.81c-3.41-.14 1.83 5.82 2.08 7.8l-6.41 7-43.27-1.8-21.3-5.23v4.35a4.07 4.07 0 0 0 2 2.27l63.49 36.66a9.74 9.74 0 0 0 3.69 1.1 8.41 8.41 0 0 0 4.85-.81L161 130.72a2.57 2.57 0 0 0 1.49-2.19v-4.42z"/>
        <path class="d" d="M22.71 131.72l50.68 2.1-.87-7zm55.36 40.44a9.41 9.41 0 0 1-3.68-1l-63.5-36.65a4.13 4.13 0 0 1-2-2.27l64.57 2.67zm84.09-48.67h.21a4.19 4.19 0 0 0-2-2.12L96.89 84.71A9.9 9.9 0 0 0 93 83.53l4.64 37.29 64.57 2.67z"/>
        <path class="d" d="M82.92 171.35L161 126.29a2.56 2.56 0 0 0 1.49-2.18 2.27 2.27 0 0 0-.09-.62L77.76 120c-3.41-.14-6 1.36-5.76 3.34l6.07 48.84a8.41 8.41 0 0 0 4.85-.81z"/>
        <path class="e" d="M10.26 129.4l78.05-45.06a8.51 8.51 0 0 1 4.85-.81l6.08 48.85c.24 2-2.35 3.47-5.77 3.33l-84.61-3.5a2.42 2.42 0 0 1 1.4-2.81"/>
        <path d="M10.26 129.4l78.05-45.06a8.51 8.51 0 0 1 4.85-.81l6.08 48.85c.24 2-2.35 3.47-5.77 3.33l-84.61-3.5a2.42 2.42 0 0 1 1.4-2.81z" fill="#fff" stroke-width="1.17" stroke="#33475c"/>
        <path class="e" d="M112.44 99.19l-12.07 46.9-61.9-.75c-1.26.73-27.81-13-29.61-13.13L3 83.31c-.25-2 2.35-3.48 5.77-3.33L93 83.54c.3 1 20.75 14.92 19.49 15.65"/>
        <path class="g" d="M112.44 99.19l-12.07 46.9-61.9-.75c-1.26.73-27.81-13-29.61-13.13L3 83.31c-.25-2 2.35-3.48 5.77-3.33L93 83.54c.3 1 20.75 14.92 19.49 15.65z"/>
        <path class="e" d="M162.46 124.11l-10.73-4.34-.66.64-54.18-31.28c-1.14-.65 3.46 4.29 2 4.15l6 31.94-27.16-.81c-3.41-.14 1.83 5.82 2.08 7.8l-6.41 7-43.27-1.8-21.3-5.23v4.35a4.07 4.07 0 0 0 2 2.27l63.49 36.66a9.74 9.74 0 0 0 3.69 1.1 8.41 8.41 0 0 0 4.85-.81L161 130.72a2.57 2.57 0 0 0 1.49-2.19v-4.42z"/>
        <path class="g" d="M162.46 124.11l-10.73-4.34-.66.64-54.18-31.28c-1.14-.65 3.46 4.29 2 4.15l6 31.94-27.16-.81c-3.41-.14 1.83 5.82 2.08 7.8l-6.41 7-43.27-1.8-21.3-5.23v4.35a4.07 4.07 0 0 0 2 2.27l63.49 36.66a9.74 9.74 0 0 0 3.69 1.1 8.41 8.41 0 0 0 4.85-.81L161 130.72a2.57 2.57 0 0 0 1.49-2.19v-4.42z"/>
        <path class="e" d="M22.71 131.72l50.68 2.1-.87-7zM78.07 172.16a9.41 9.41 0 0 1-3.68-1l-63.5-36.65a4.13 4.13 0 0 1-2-2.27l64.57 2.67z"/>
        <path d="M56.4 147.32a49.3 49.3 0 0 1-33.9-15.23C7.67 116.92.51 92.76 1.23 59.33a5.93 5.93 0 0 1 .15-1.11l.24-.54A6.79 6.79 0 0 1 3.5 56l69.2-37.75c1.2-.2 1.59-.17 2.11 1.19l.11.27c-6.19 63 45.15 90.41 45.67 90.68a1.5 1.5 0 0 1 0 2.64c-18.2 10.19-60.84 33.97-62.83 34.23a10.86 10.86 0 0 1-1.36.06z" stroke-width="2.35" stroke-linejoin="round" stroke="#33475c" fill="none"/>
        <path class="g" d="M3.45 58.07a1 1 0 0 0-.53.88c-1.8 88.24 52.86 86.92 54.79 86.62 1.75-.26 51.26-27.85 60.79-33.17a1 1 0 0 0 0-1.76c-8.59-5.1-49.71-32.58-45.09-89.37a1 1 0 0 0-1.51-1z"/>
        <path class="g" d="M78.07 172.16a9.41 9.41 0 0 1-3.68-1l-63.5-36.65a4.13 4.13 0 0 1-2-2.27l64.57 2.67z"/>
        <path class="e" d="M162.16 123.49h.21a4.19 4.19 0 0 0-2-2.12L96.89 84.71A9.9 9.9 0 0 0 93 83.53l4.64 37.29 64.57 2.67z"/>
        <path class="g" d="M162.16 123.49h.21a4.19 4.19 0 0 0-2-2.12L96.89 84.71A9.9 9.9 0 0 0 93 83.53l4.64 37.29 64.57 2.67z"/>
        <path class="i" d="M159 122.3h.19a4 4 0 0 0-1.86-2L97.9 86a9.28 9.28 0 0 0-3.69-1.1l4.34 34.92L159 122.3z"/>
        <path class="e" d="M82.92 171.35L161 126.29a2.56 2.56 0 0 0 1.49-2.18 2.27 2.27 0 0 0-.09-.62L77.76 120c-3.41-.14-6 1.36-5.76 3.34l6.07 48.84a8.41 8.41 0 0 0 4.85-.81"/>
        <path class="g" d="M82.92 171.35L161 126.29a2.56 2.56 0 0 0 1.49-2.18 2.27 2.27 0 0 0-.09-.62L77.76 120c-3.41-.14-6 1.36-5.76 3.34l6.07 48.84a8.41 8.41 0 0 0 4.85-.81z"/>
        <path d="M78.46 22c6.76 1.66 8.11 3 9.76 9.77 1.66-6.77 3-8.15 9.78-9.77-6.76-1.66-8.1-3-9.76-9.77-1.65 6.77-3 8.11-9.76 9.77" fill="#f5c26b" fill-rule="evenodd"/>
        <path d="M65.93 7.19c3.46.85 4.15 1.54 5 5 .85-3.47 1.54-4.16 5-5-3.46-.85-4.15-1.53-5-5-.85 3.47-1.54 4.15-5 5" fill="#f2547d" fill-rule="evenodd"/>
        <path d="M93 7.19c4.9 1.22 5.88 2.21 7.07 7.2 1.2-5 2.18-6 7.07-7.2C102.2 6 101.22 5 100 0c-1.18 5-2.15 6-7 7.19" fill="#7fd1de" fill-opacity=".5" fill-rule="evenodd"/>
        <path d="M47.56 57.22l-.94-4a4.84 4.84 0 0 0 1-3.85v-.09c-.4-1.69-2-2.23-3.56-1.22l-.08.06A5 5 0 0 0 41.83 53v.09a2 2 0 0 0 2.28 1.71l.94 4a14.54 14.54 0 0 0-3.43 4.36l-12.09-1.9a3.83 3.83 0 0 0-.09-.95c-.45-1.92-2.25-2.53-4-1.38A5.7 5.7 0 0 0 23 64.5c.45 1.92 2.24 2.54 4 1.39a5.3 5.3 0 0 0 1.49-1.53l11.94 1.89a11.69 11.69 0 0 0-.2 5.75 6.4 6.4 0 0 0 2.67 4.09l-2.31 5.29a3.14 3.14 0 0 0-.69.34 4.64 4.64 0 0 0-2 4.56c.37 1.58 1.84 2.08 3.29 1.13a4.67 4.67 0 0 0 2-4.56 2.64 2.64 0 0 0-.33-.74l2.21-5.13a7.82 7.82 0 0 0 5.24-1.42c4.47-2.93 7.18-9.22 6.05-14.07-1-4.33-4.76-6-8.74-4.24zm1.83 14c-2.3 1.5-4.63.7-5.22-1.79a7.37 7.37 0 0 1 3.12-7.23c2.3-1.5 4.63-.7 5.21 1.79a7.35 7.35 0 0 1-3.11 7.2z" style="mix-blend-mode:multiply" fill="#e66e50"/>
        <path class="i" d="M76.69 170.41a9.17 9.17 0 0 1-3.47-1L13.61 135c-1.07-.62-1.95-.82-2.17-1.58l60.89 2z"/>
        <path d="M52.76 115.36l22.55-13.3a1.68 1.68 0 0 1 1.86.11l4.17 3.15a1.68 1.68 0 0 1-.17 2.79L58.78 121a1.66 1.66 0 0 1-1.72 0l-4.34-2.73a1.68 1.68 0 0 1 .04-2.91z" fill="#e66e50"/>
        <path class="o" d="M31.09 107.88l39.84-23"/>
        <path class="p" d="M31.09 109.38a1.5 1.5 0 0 1-.75-2.8l39.84-23a1.5 1.5 0 0 1 1.5 2.6l-39.84 23a1.43 1.43 0 0 1-.75.2z"/>
        <path class="o" d="M37.79 114.92l39.84-23"/>
        <path class="p" d="M37.8 116.42a1.5 1.5 0 0 1-.76-2.8l39.84-23a1.5 1.5 0 0 1 1.5 2.6l-39.84 23a1.42 1.42 0 0 1-.74.2z"/>
        <path d="M6.24 101.05l3.67 30 13 .58C14.58 126 8.78 111 6.24 101.05z" fill="#e6eff6"/>
        <path d="M26.36 131.78l45.69 1.91-.77-6z" fill="#e5e5e5" fill-rule="evenodd"/>
    </g>
</svg>
