
<svg width="86" height="93" viewBox="0 0 86 93" xmlns="http://www.w3.org/2000/svg" xmlns:xlink="http://www.w3.org/1999/xlink">
    <defs>
        <path id="a" d="M0 .326h85.381V49H0z"/>
        <path d="M.691 35.37c0 19.33 15.67 35 34.999 35 19.33 0 35-15.67 35-35s-15.67-35-35-35C16.361.37.691 16.04.691 35.37z" id="c"/>
        <path d="M.691 35.37c0 19.33 15.67 35 34.999 35 19.33 0 35-15.67 35-35s-15.67-35-35-35C16.361.37.691 16.04.691 35.37z" id="e"/>
        <path d="M.691 35.37c0 19.33 15.67 35 34.999 35 19.33 0 35-15.67 35-35s-15.67-35-35-35C16.361.37.691 16.04.691 35.37z" id="g"/>
        <path d="M.691 35.37c0 19.33 15.67 35 34.999 35 19.33 0 35-15.67 35-35s-15.67-35-35-35C16.361.37.691 16.04.691 35.37z" id="i"/>
        <path d="M.691 35.37c0 19.33 15.67 35 34.999 35 19.33 0 35-15.67 35-35s-15.67-35-35-35C16.361.37.691 16.04.691 35.37z" id="k"/>
        <path d="M.691 35.37c0 19.33 15.67 35 34.999 35 19.33 0 35-15.67 35-35s-15.67-35-35-35C16.361.37.691 16.04.691 35.37z" id="m"/>
        <path d="M.691 35.37c0 19.33 15.67 35 34.999 35 19.33 0 35-15.67 35-35s-15.67-35-35-35C16.361.37.691 16.04.691 35.37z" id="o"/>
        <path d="M.691 35.37c0 19.33 15.67 35 34.999 35 19.33 0 35-15.67 35-35s-15.67-35-35-35C16.361.37.691 16.04.691 35.37" id="q"/>
        <path d="M.691 35.37c0 19.33 15.67 35 34.999 35 19.33 0 35-15.67 35-35s-15.67-35-35-35C16.361.37.691 16.04.691 35.37z" id="s"/>
        <path d="M.691 35.37c0 19.33 15.67 35 34.999 35 19.33 0 35-15.67 35-35s-15.67-35-35-35C16.361.37.691 16.04.691 35.37z" id="u"/>
        <path d="M.691 35.37c0 19.33 15.67 35 34.999 35 19.33 0 35-15.67 35-35s-15.67-35-35-35C16.361.37.691 16.04.691 35.37z" id="w"/>
        <path d="M.691 35.37c0 19.33 15.67 35 34.999 35 19.33 0 35-15.67 35-35s-15.67-35-35-35C16.361.37.691 16.04.691 35.37z" id="y"/>
        <path d="M.691 35.37c0 19.33 15.67 35 34.999 35 19.33 0 35-15.67 35-35s-15.67-35-35-35C16.361.37.691 16.04.691 35.37z" id="A"/>
        <path d="M.691 35.37c0 19.33 15.67 35 34.999 35 19.33 0 35-15.67 35-35s-15.67-35-35-35C16.361.37.691 16.04.691 35.37z" id="C"/>
        <path d="M.691 35.37c0 19.33 15.67 35 34.999 35 19.33 0 35-15.67 35-35s-15.67-35-35-35C16.361.37.691 16.04.691 35.37z" id="E"/>
        <path d="M.691 35.37c0 19.33 15.67 35 34.999 35 19.33 0 35-15.67 35-35s-15.67-35-35-35C16.361.37.691 16.04.691 35.37" id="G"/>
        <path d="M.691 35.37c0 19.33 15.67 35 34.999 35 19.33 0 35-15.67 35-35s-15.67-35-35-35C16.361.37.691 16.04.691 35.37z" id="I"/>
        <path d="M.691 35.37c0 19.33 15.67 35 34.999 35 19.33 0 35-15.67 35-35s-15.67-35-35-35C16.361.37.691 16.04.691 35.37z" id="K"/>
        <path d="M.691 35.37c0 19.33 15.67 35 34.999 35 19.33 0 35-15.67 35-35s-15.67-35-35-35C16.361.37.691 16.04.691 35.37z" id="M"/>
        <path d="M.691 35.37c0 19.33 15.67 35 34.999 35 19.33 0 35-15.67 35-35s-15.67-35-35-35C16.361.37.691 16.04.691 35.37z" id="O"/>
        <path d="M.691 35.37c0 19.33 15.67 35 34.999 35 19.33 0 35-15.67 35-35s-15.67-35-35-35C16.361.37.691 16.04.691 35.37z" id="Q"/>
        <path d="M.691 35.37c0 19.33 15.67 35 34.999 35 19.33 0 35-15.67 35-35s-15.67-35-35-35C16.361.37.691 16.04.691 35.37z" id="S"/>
        <path d="M.691 35.37c0 19.33 15.67 35 34.999 35 19.33 0 35-15.67 35-35s-15.67-35-35-35C16.361.37.691 16.04.691 35.37z" id="U"/>
        <path d="M.691 35.37c0 19.33 15.67 35 34.999 35 19.33 0 35-15.67 35-35s-15.67-35-35-35C16.361.37.691 16.04.691 35.37" id="W"/>
        <path d="M.691 35.37c0 19.33 15.67 35 34.999 35 19.33 0 35-15.67 35-35s-15.67-35-35-35C16.361.37.691 16.04.691 35.37z" id="Y"/>
        <path d="M.691 35.37c0 19.33 15.67 35 34.999 35 19.33 0 35-15.67 35-35s-15.67-35-35-35C16.361.37.691 16.04.691 35.37z" id="aa"/>
        <path d="M.691 35.37c0 19.33 15.67 35 34.999 35 19.33 0 35-15.67 35-35s-15.67-35-35-35C16.361.37.691 16.04.691 35.37z" id="ac"/>
        <path d="M.691 35.37c0 19.33 15.67 35 34.999 35 19.33 0 35-15.67 35-35s-15.67-35-35-35C16.361.37.691 16.04.691 35.37z" id="ae"/>
        <path d="M.691 35.37c0 19.33 15.67 35 34.999 35 19.33 0 35-15.67 35-35s-15.67-35-35-35C16.361.37.691 16.04.691 35.37" id="ag"/>
        <path d="M.691 35.37c0 19.33 15.67 35 34.999 35 19.33 0 35-15.67 35-35s-15.67-35-35-35C16.361.37.691 16.04.691 35.37z" id="ai"/>
        <path d="M.691 35.37c0 19.33 15.67 35 34.999 35 19.33 0 35-15.67 35-35s-15.67-35-35-35C16.361.37.691 16.04.691 35.37z" id="ak"/>
        <path d="M.691 35.37c0 19.33 15.67 35 34.999 35 19.33 0 35-15.67 35-35s-15.67-35-35-35C16.361.37.691 16.04.691 35.37z" id="am"/>
        <path d="M.691 35.37c0 19.33 15.67 35 34.999 35 19.33 0 35-15.67 35-35s-15.67-35-35-35C16.361.37.691 16.04.691 35.37z" id="ao"/>
        <path d="M.691 35.37c0 19.33 15.67 35 34.999 35 19.33 0 35-15.67 35-35s-15.67-35-35-35C16.361.37.691 16.04.691 35.37z" id="aq"/>
        <path d="M.691 35.37c0 19.33 15.67 35 34.999 35 19.33 0 35-15.67 35-35s-15.67-35-35-35C16.361.37.691 16.04.691 35.37z" id="as"/>
        <path d="M.691 35.37c0 19.33 15.67 35 34.999 35 19.33 0 35-15.67 35-35s-15.67-35-35-35C16.361.37.691 16.04.691 35.37" id="au"/>
        <path d="M.691 35.37c0 19.33 15.67 35 34.999 35 19.33 0 35-15.67 35-35s-15.67-35-35-35C16.361.37.691 16.04.691 35.37z" id="aw"/>
        <path d="M.691 35.37c0 19.33 15.67 35 34.999 35 19.33 0 35-15.67 35-35s-15.67-35-35-35C16.361.37.691 16.04.691 35.37z" id="ay"/>
        <path d="M.691 35.37c0 19.33 15.67 35 34.999 35 19.33 0 35-15.67 35-35s-15.67-35-35-35C16.361.37.691 16.04.691 35.37z" id="aA"/>
        <path d="M.691 35.37c0 19.33 15.67 35 34.999 35 19.33 0 35-15.67 35-35s-15.67-35-35-35C16.361.37.691 16.04.691 35.37z" id="aC"/>
        <path d="M.691 35.37c0 19.33 15.67 35 34.999 35 19.33 0 35-15.67 35-35s-15.67-35-35-35C16.361.37.691 16.04.691 35.37z" id="aE"/>
        <path d="M.691 35.37c0 19.33 15.67 35 34.999 35 19.33 0 35-15.67 35-35s-15.67-35-35-35C16.361.37.691 16.04.691 35.37z" id="aG"/>
        <path d="M.691 35.37c0 19.33 15.67 35 34.999 35 19.33 0 35-15.67 35-35s-15.67-35-35-35C16.361.37.691 16.04.691 35.37" id="aI"/>
        <path d="M.691 35.37c0 19.33 15.67 35 34.999 35 19.33 0 35-15.67 35-35s-15.67-35-35-35C16.361.37.691 16.04.691 35.37z" id="aK"/>
        <path d="M.691 35.37c0 19.33 15.67 35 34.999 35 19.33 0 35-15.67 35-35s-15.67-35-35-35C16.361.37.691 16.04.691 35.37z" id="aM"/>
        <path d="M.691 35.37c0 19.33 15.67 35 34.999 35 19.33 0 35-15.67 35-35s-15.67-35-35-35C16.361.37.691 16.04.691 35.37z" id="aO"/>
        <path d="M.691 35.37c0 19.33 15.67 35 34.999 35 19.33 0 35-15.67 35-35s-15.67-35-35-35C16.361.37.691 16.04.691 35.37z" id="aQ"/>
        <path d="M.691 35.37c0 19.33 15.67 35 34.999 35 19.33 0 35-15.67 35-35s-15.67-35-35-35C16.361.37.691 16.04.691 35.37z" id="aS"/>
        <path d="M.691 35.37c0 19.33 15.67 35 34.999 35 19.33 0 35-15.67 35-35s-15.67-35-35-35C16.361.37.691 16.04.691 35.37z" id="aU"/>
        <path d="M.691 35.37c0 19.33 15.67 35 34.999 35 19.33 0 35-15.67 35-35s-15.67-35-35-35C16.361.37.691 16.04.691 35.37z" id="aW"/>
        <path d="M.691 35.37c0 19.33 15.67 35 34.999 35 19.33 0 35-15.67 35-35s-15.67-35-35-35C16.361.37.691 16.04.691 35.37" id="aY"/>
        <path d="M.691 35.37c0 19.33 15.67 35 34.999 35 19.33 0 35-15.67 35-35s-15.67-35-35-35C16.361.37.691 16.04.691 35.37z" id="ba"/>
        <path d="M.691 35.37c0 19.33 15.67 35 34.999 35 19.33 0 35-15.67 35-35s-15.67-35-35-35C16.361.37.691 16.04.691 35.37z" id="bc"/>
        <path d="M.691 35.37c0 19.33 15.67 35 34.999 35 19.33 0 35-15.67 35-35s-15.67-35-35-35C16.361.37.691 16.04.691 35.37z" id="be"/>
        <path d="M.691 35.37c0 19.33 15.67 35 34.999 35 19.33 0 35-15.67 35-35s-15.67-35-35-35C16.361.37.691 16.04.691 35.37z" id="bg"/>
        <path d="M.691 35.37c0 19.33 15.67 35 34.999 35 19.33 0 35-15.67 35-35s-15.67-35-35-35C16.361.37.691 16.04.691 35.37z" id="bi"/>
        <path d="M.691 35.37c0 19.33 15.67 35 34.999 35 19.33 0 35-15.67 35-35s-15.67-35-35-35C16.361.37.691 16.04.691 35.37z" id="bk"/>
        <path d="M.691 35.37c0 19.33 15.67 35 34.999 35 19.33 0 35-15.67 35-35s-15.67-35-35-35C16.361.37.691 16.04.691 35.37z" id="bm"/>
        <path d="M.691 35.37c0 19.33 15.67 35 34.999 35 19.33 0 35-15.67 35-35s-15.67-35-35-35C16.361.37.691 16.04.691 35.37" id="bo"/>
        <path d="M.691 35.37c0 19.33 15.67 35 34.999 35 19.33 0 35-15.67 35-35s-15.67-35-35-35C16.361.37.691 16.04.691 35.37z" id="bq"/>
        <path d="M.691 35.37c0 19.33 15.67 35 34.999 35 19.33 0 35-15.67 35-35s-15.67-35-35-35C16.361.37.691 16.04.691 35.37z" id="bs"/>
        <path d="M.691 35.37c0 19.33 15.67 35 34.999 35 19.33 0 35-15.67 35-35s-15.67-35-35-35C16.361.37.691 16.04.691 35.37z" id="bu"/>
        <path d="M.691 35.37c0 19.33 15.67 35 34.999 35 19.33 0 35-15.67 35-35s-15.67-35-35-35C16.361.37.691 16.04.691 35.37z" id="bw"/>
        <path d="M.691 35.37c0 19.33 15.67 35 34.999 35 19.33 0 35-15.67 35-35s-15.67-35-35-35C16.361.37.691 16.04.691 35.37z" id="by"/>
        <path d="M.691 35.37c0 19.33 15.67 35 34.999 35 19.33 0 35-15.67 35-35s-15.67-35-35-35C16.361.37.691 16.04.691 35.37z" id="bA"/>
        <path d="M.691 35.37c0 19.33 15.67 35 34.999 35 19.33 0 35-15.67 35-35s-15.67-35-35-35C16.361.37.691 16.04.691 35.37z" id="bC"/>
        <path d="M.691 35.37c0 19.33 15.67 35 34.999 35 19.33 0 35-15.67 35-35s-15.67-35-35-35C16.361.37.691 16.04.691 35.37" id="bE"/>
        <path d="M.691 35.37c0 19.33 15.67 35 34.999 35 19.33 0 35-15.67 35-35s-15.67-35-35-35C16.361.37.691 16.04.691 35.37z" id="bG"/>
        <path d="M.691 35.37c0 19.33 15.67 35 34.999 35 19.33 0 35-15.67 35-35s-15.67-35-35-35C16.361.37.691 16.04.691 35.37z" id="bI"/>
        <path d="M.691 35.37c0 19.33 15.67 35 34.999 35 19.33 0 35-15.67 35-35s-15.67-35-35-35C16.361.37.691 16.04.691 35.37z" id="bK"/>
        <path d="M.691 35.37c0 19.33 15.67 35 34.999 35 19.33 0 35-15.67 35-35s-15.67-35-35-35C16.361.37.691 16.04.691 35.37z" id="bM"/>
        <path d="M.691 35.37c0 19.33 15.67 35 34.999 35 19.33 0 35-15.67 35-35s-15.67-35-35-35C16.361.37.691 16.04.691 35.37z" id="bO"/>
        <path d="M.691 35.37c0 19.33 15.67 35 34.999 35 19.33 0 35-15.67 35-35s-15.67-35-35-35C16.361.37.691 16.04.691 35.37z" id="bQ"/>
        <path d="M.691 35.37c0 19.33 15.67 35 34.999 35 19.33 0 35-15.67 35-35s-15.67-35-35-35C16.361.37.691 16.04.691 35.37z" id="bS"/>
        <path d="M.691 35.37c0 19.33 15.67 35 34.999 35 19.33 0 35-15.67 35-35s-15.67-35-35-35C16.361.37.691 16.04.691 35.37z" id="bU"/>
        <path d="M.691 35.37c0 19.33 15.67 35 34.999 35 19.33 0 35-15.67 35-35s-15.67-35-35-35C16.361.37.691 16.04.691 35.37z" id="bW"/>
        <path d="M.691 35.37c0 19.33 15.67 35 34.999 35 19.33 0 35-15.67 35-35s-15.67-35-35-35C16.361.37.691 16.04.691 35.37" id="bY"/>
        <path d="M.691 35.37c0 19.33 15.67 35 34.999 35 19.33 0 35-15.67 35-35s-15.67-35-35-35C16.361.37.691 16.04.691 35.37z" id="ca"/>
        <path d="M.691 35.37c0 19.33 15.67 35 34.999 35 19.33 0 35-15.67 35-35s-15.67-35-35-35C16.361.37.691 16.04.691 35.37z" id="cc"/>
        <path d="M.691 35.37c0 19.33 15.67 35 34.999 35 19.33 0 35-15.67 35-35s-15.67-35-35-35C16.361.37.691 16.04.691 35.37" id="ce"/>
        <path d="M.691 35.37c0 19.33 15.67 35 34.999 35 19.33 0 35-15.67 35-35s-15.67-35-35-35C16.361.37.691 16.04.691 35.37z" id="cg"/>
        <path d="M.691 35.37c0 19.33 15.67 35 34.999 35 19.33 0 35-15.67 35-35s-15.67-35-35-35C16.361.37.691 16.04.691 35.37" id="ci"/>
        <path d="M.691 35.37c0 19.33 15.67 35 34.999 35 19.33 0 35-15.67 35-35s-15.67-35-35-35C16.361.37.691 16.04.691 35.37z" id="ck"/>
        <path d="M.691 35.37c0 19.33 15.67 35 34.999 35 19.33 0 35-15.67 35-35s-15.67-35-35-35C16.361.37.691 16.04.691 35.37" id="cm"/>
        <path d="M.691 35.37c0 19.33 15.67 35 34.999 35 19.33 0 35-15.67 35-35s-15.67-35-35-35C16.361.37.691 16.04.691 35.37z" id="co"/>
        <path d="M.691 35.37c0 19.33 15.67 35 34.999 35 19.33 0 35-15.67 35-35s-15.67-35-35-35C16.361.37.691 16.04.691 35.37" id="cq"/>
        <path d="M.691 35.37c0 19.33 15.67 35 34.999 35 19.33 0 35-15.67 35-35s-15.67-35-35-35C16.361.37.691 16.04.691 35.37" id="cs"/>
        <path d="M.691 35.37c0 19.33 15.67 35 34.999 35 19.33 0 35-15.67 35-35s-15.67-35-35-35C16.361.37.691 16.04.691 35.37" id="cu"/>
        <path d="M.691 35.37c0 19.33 15.67 35 34.999 35 19.33 0 35-15.67 35-35s-15.67-35-35-35C16.361.37.691 16.04.691 35.37z" id="cw"/>
        <path d="M.691 35.37c0 19.33 15.67 35 34.999 35 19.33 0 35-15.67 35-35s-15.67-35-35-35C16.361.37.691 16.04.691 35.37z" id="cy"/>
        <path d="M.691 35.37c0 19.33 15.67 35 34.999 35 19.33 0 35-15.67 35-35s-15.67-35-35-35C16.361.37.691 16.04.691 35.37z" id="cA"/>
        <path d="M.691 35.37c0 19.33 15.67 35 34.999 35 19.33 0 35-15.67 35-35s-15.67-35-35-35C16.361.37.691 16.04.691 35.37z" id="cC"/>
        <path d="M.691 35.37c0 19.33 15.67 35 34.999 35 19.33 0 35-15.67 35-35s-15.67-35-35-35C16.361.37.691 16.04.691 35.37" id="cE"/>
        <path d="M.691 35.37c0 19.33 15.67 35 34.999 35 19.33 0 35-15.67 35-35s-15.67-35-35-35C16.361.37.691 16.04.691 35.37z" id="cG"/>
        <path d="M.691 35.37c0 19.33 15.67 35 34.999 35 19.33 0 35-15.67 35-35s-15.67-35-35-35C16.361.37.691 16.04.691 35.37z" id="cI"/>
        <path d="M.691 35.37c0 19.33 15.67 35 34.999 35 19.33 0 35-15.67 35-35s-15.67-35-35-35C16.361.37.691 16.04.691 35.37z" id="cK"/>
        <path d="M.691 35.37c0 19.33 15.67 35 34.999 35 19.33 0 35-15.67 35-35s-15.67-35-35-35C16.361.37.691 16.04.691 35.37z" id="cM"/>
        <path d="M.691 35.37c0 19.33 15.67 35 34.999 35 19.33 0 35-15.67 35-35s-15.67-35-35-35C16.361.37.691 16.04.691 35.37" id="cO"/>
        <path d="M.691 35.37c0 19.33 15.67 35 34.999 35 19.33 0 35-15.67 35-35s-15.67-35-35-35C16.361.37.691 16.04.691 35.37z" id="cQ"/>
        <path d="M.691 35.37c0 19.33 15.67 35 34.999 35 19.33 0 35-15.67 35-35s-15.67-35-35-35C16.361.37.691 16.04.691 35.37" id="cS"/>
        <path d="M.691 35.37c0 19.33 15.67 35 34.999 35 19.33 0 35-15.67 35-35s-15.67-35-35-35C16.361.37.691 16.04.691 35.37z" id="cU"/>
        <path d="M.691 35.37c0 19.33 15.67 35 34.999 35 19.33 0 35-15.67 35-35s-15.67-35-35-35C16.361.37.691 16.04.691 35.37" id="cW"/>
        <path d="M.691 35.37c0 19.33 15.67 35 34.999 35 19.33 0 35-15.67 35-35s-15.67-35-35-35C16.361.37.691 16.04.691 35.37z" id="cY"/>
        <path d="M.691 35.37c0 19.33 15.67 35 34.999 35 19.33 0 35-15.67 35-35s-15.67-35-35-35C16.361.37.691 16.04.691 35.37" id="da"/>
        <path d="M.691 35.37c0 19.33 15.67 35 34.999 35 19.33 0 35-15.67 35-35s-15.67-35-35-35C16.361.37.691 16.04.691 35.37" id="dc"/>
        <path d="M.691 35.37c0 19.33 15.67 35 34.999 35 19.33 0 35-15.67 35-35s-15.67-35-35-35C16.361.37.691 16.04.691 35.37" id="de"/>
        <path d="M.691 35.37c0 19.33 15.67 35 34.999 35 19.33 0 35-15.67 35-35s-15.67-35-35-35C16.361.37.691 16.04.691 35.37z" id="dg"/>
        <path d="M.691 35.37c0 19.33 15.67 35 34.999 35 19.33 0 35-15.67 35-35s-15.67-35-35-35C16.361.37.691 16.04.691 35.37z" id="di"/>
        <path d="M.691 35.37c0 19.33 15.67 35 34.999 35 19.33 0 35-15.67 35-35s-15.67-35-35-35C16.361.37.691 16.04.691 35.37z" id="dk"/>
        <path d="M.691 35.37c0 19.33 15.67 35 34.999 35 19.33 0 35-15.67 35-35s-15.67-35-35-35C16.361.37.691 16.04.691 35.37z" id="dm"/>
        <path d="M.691 35.37c0 19.33 15.67 35 34.999 35 19.33 0 35-15.67 35-35s-15.67-35-35-35C16.361.37.691 16.04.691 35.37z" id="do"/>
        <path d="M.691 35.37c0 19.33 15.67 35 34.999 35 19.33 0 35-15.67 35-35s-15.67-35-35-35C16.361.37.691 16.04.691 35.37" id="dq"/>
        <path d="M.691 35.37c0 19.33 15.67 35 34.999 35 19.33 0 35-15.67 35-35s-15.67-35-35-35C16.361.37.691 16.04.691 35.37z" id="ds"/>
        <path d="M.691 35.37c0 19.33 15.67 35 34.999 35 19.33 0 35-15.67 35-35s-15.67-35-35-35C16.361.37.691 16.04.691 35.37z" id="du"/>
        <path d="M.691 35.37c0 19.33 15.67 35 34.999 35 19.33 0 35-15.67 35-35s-15.67-35-35-35C16.361.37.691 16.04.691 35.37z" id="dw"/>
        <path d="M.691 35.37c0 19.33 15.67 35 34.999 35 19.33 0 35-15.67 35-35s-15.67-35-35-35C16.361.37.691 16.04.691 35.37z" id="dy"/>
        <path d="M.691 35.37c0 19.33 15.67 35 34.999 35 19.33 0 35-15.67 35-35s-15.67-35-35-35C16.361.37.691 16.04.691 35.37" id="dA"/>
        <path d="M.691 35.37c0 19.33 15.67 35 34.999 35 19.33 0 35-15.67 35-35s-15.67-35-35-35C16.361.37.691 16.04.691 35.37z" id="dC"/>
        <path d="M.691 35.37c0 19.33 15.67 35 34.999 35 19.33 0 35-15.67 35-35s-15.67-35-35-35C16.361.37.691 16.04.691 35.37" id="dE"/>
        <path d="M.691 35.37c0 19.33 15.67 35 34.999 35 19.33 0 35-15.67 35-35s-15.67-35-35-35C16.361.37.691 16.04.691 35.37z" id="dG"/>
        <path d="M.691 35.37c0 19.33 15.67 35 34.999 35 19.33 0 35-15.67 35-35s-15.67-35-35-35C16.361.37.691 16.04.691 35.37" id="dI"/>
        <path d="M.691 35.37c0 19.33 15.67 35 34.999 35 19.33 0 35-15.67 35-35s-15.67-35-35-35C16.361.37.691 16.04.691 35.37z" id="dK"/>
        <path d="M.691 35.37c0 19.33 15.67 35 34.999 35 19.33 0 35-15.67 35-35s-15.67-35-35-35C16.361.37.691 16.04.691 35.37" id="dM"/>
        <path d="M.691 35.37c0 19.33 15.67 35 34.999 35 19.33 0 35-15.67 35-35s-15.67-35-35-35C16.361.37.691 16.04.691 35.37" id="dO"/>
        <path d="M.691 35.37c0 19.33 15.67 35 34.999 35 19.33 0 35-15.67 35-35s-15.67-35-35-35C16.361.37.691 16.04.691 35.37" id="dQ"/>
    </defs>
    <g fill="none" fill-rule="evenodd">
        <g transform="translate(0 43.13)">
            <mask id="b" fill="#fff">
                <use xlink:href="#a"/>
            </mask>
            <path d="M45.39.969c-1.484-.857-3.915-.857-5.399 0L1.11 23.416c-1.486.857-1.478 2.246.016 3.087l38.848 21.864c1.494.843 3.94.843 5.435 0l38.847-21.864c1.494-.84 1.502-2.23.017-3.088L45.39.968z" fill="#00A4BF" opacity=".2" mask="url(#b)"/>
        </g>
        <path d="M77.69 37.5c0 19.33-15.67 35-35 35-19.329 0-35-15.67-35-35s15.671-35 35-35c19.33 0 35 15.67 35 35z" stroke="#33475C" stroke-width="5" stroke-linecap="round" stroke-linejoin="round"/>
        <g transform="translate(7 2.13)">
            <mask id="d" fill="#fff">
                <use xlink:href="#c"/>
            </mask>
            <path d="M50.287 2.916c0-1.65-1.17-2.325-2.598-1.5L11.829 22.12c-1.43.825-2.6 2.85-2.6 4.5v11.166c0 1.65 1.17 2.325 2.6 1.5l35.86-20.704c1.429-.825 2.598-2.85 2.598-4.5V2.916z" stroke="#33475C" stroke-width="5" stroke-linecap="round" stroke-linejoin="round" mask="url(#d)"/>
        </g>
        <g transform="translate(7 2.13)">
            <mask id="f" fill="#fff">
                <use xlink:href="#e"/>
            </mask>
            <path d="M50.287 2.916c0-1.65-1.17-2.325-2.598-1.5L11.829 22.12c-1.43.825-2.6 2.85-2.6 4.5v11.166c0 1.65 1.17 2.325 2.6 1.5l35.86-20.704c1.429-.825 2.598-2.85 2.598-4.5V2.916z" stroke="#33475C" stroke-width="5" stroke-linecap="round" stroke-linejoin="round" mask="url(#f)"/>
        </g>
        <g transform="translate(7 2.13)">
            <mask id="h" fill="#fff">
                <use xlink:href="#g"/>
            </mask>
            <path d="M45.415 7.833c0-1.063-.91-1.408-2.021-.767L24.749 17.832c-1.111.642-2.021 2.036-2.021 3.099 0 1.062.91 1.407 2.02.765l18.646-10.764c1.112-.642 2.02-2.037 2.02-3.1z" stroke="#33475C" stroke-width="5" stroke-linecap="round" stroke-linejoin="round" mask="url(#h)"/>
        </g>
        <g transform="translate(7 2.13)">
            <mask id="j" fill="#fff">
                <use xlink:href="#i"/>
            </mask>
            <path d="M38.758 18.435c0-1.062-.909-1.407-2.02-.766l-11.99 6.922c-1.11.642-2.02 2.036-2.02 3.1 0 1.062.91 1.407 2.02.765l11.99-6.922c1.111-.642 2.02-2.037 2.02-3.099z" stroke="#33475C" stroke-width="5" stroke-linecap="round" stroke-linejoin="round" mask="url(#j)"/>
        </g>
        <g transform="translate(7 2.13)">
            <mask id="l" fill="#fff">
                <use xlink:href="#k"/>
            </mask>
            <path d="M20.721 25.88c0-2.77-1.963-3.903-4.362-2.518-2.4 1.386-4.364 4.787-4.364 7.557 0 2.77 1.964 3.904 4.364 2.519 2.4-1.385 4.362-4.786 4.362-7.557z" stroke="#33475C" stroke-width="5" stroke-linecap="round" stroke-linejoin="round" mask="url(#l)"/>
        </g>
        <g transform="translate(7 2.13)">
            <mask id="n" fill="#fff">
                <use xlink:href="#m"/>
            </mask>
            <path d="M15.066 28.703c0-.378-.268-.532-.595-.343-.327.189-.594.653-.594 1.03s.267.533.594.343c.327-.188.595-.652.595-1.03z" stroke="#33475C" stroke-width="5" stroke-linecap="round" stroke-linejoin="round" mask="url(#n)"/>
        </g>
        <g transform="translate(7 2.13)">
            <mask id="p" fill="#fff">
                <use xlink:href="#o"/>
            </mask>
            <path d="M18.601 26.674c0-.378-.268-.532-.595-.344-.327.189-.594.653-.594 1.03 0 .378.267.533.594.344.327-.19.595-.652.595-1.03z" stroke="#33475C" stroke-width="5" stroke-linecap="round" stroke-linejoin="round" mask="url(#p)"/>
        </g>
        <g transform="translate(7 2.13)">
            <mask id="r" fill="#fff">
                <use xlink:href="#q"/>
            </mask>
            <path d="M14.471 31.424c.364.31.915.333 1.536-.025.621-.36 1.171-1.018 1.536-1.748" stroke="#33475C" stroke-width="5" stroke-linecap="round" stroke-linejoin="round" mask="url(#r)"/>
        </g>
        <g transform="translate(7 2.13)">
            <mask id="t" fill="#fff">
                <use xlink:href="#s"/>
            </mask>
            <path d="M50.287 2.916c0-1.65-1.17-2.325-2.598-1.5L11.829 22.12c-1.43.825-2.6 2.85-2.6 4.5v11.166c0 1.65 1.17 2.325 2.6 1.5l35.86-20.704c1.429-.825 2.598-2.85 2.598-4.5V2.916z" stroke="#33475C" stroke-width="5" stroke-linecap="round" stroke-linejoin="round" mask="url(#t)"/>
        </g>
        <g transform="translate(7 2.13)">
            <mask id="v" fill="#fff">
                <use xlink:href="#u"/>
            </mask>
            <path d="M50.287 2.916c0-1.65-1.17-2.325-2.598-1.5L11.829 22.12c-1.43.825-2.6 2.85-2.6 4.5v11.166c0 1.65 1.17 2.325 2.6 1.5l35.86-20.704c1.429-.825 2.598-2.85 2.598-4.5V2.916z" stroke="#33475C" stroke-width="5" stroke-linecap="round" stroke-linejoin="round" mask="url(#v)"/>
        </g>
        <g transform="translate(7 2.13)">
            <mask id="x" fill="#fff">
                <use xlink:href="#w"/>
            </mask>
            <path d="M45.415 7.833c0-1.063-.91-1.408-2.021-.767L24.749 17.832c-1.111.642-2.021 2.036-2.021 3.099 0 1.062.91 1.407 2.02.765l18.646-10.764c1.112-.642 2.02-2.037 2.02-3.1z" stroke="#33475C" stroke-width="5" stroke-linecap="round" stroke-linejoin="round" mask="url(#x)"/>
        </g>
        <g transform="translate(7 2.13)">
            <mask id="z" fill="#fff">
                <use xlink:href="#y"/>
            </mask>
            <path d="M38.758 18.435c0-1.062-.909-1.407-2.02-.766l-11.99 6.922c-1.11.642-2.02 2.036-2.02 3.1 0 1.062.91 1.407 2.02.765l11.99-6.922c1.111-.642 2.02-2.037 2.02-3.099z" stroke="#33475C" stroke-width="5" stroke-linecap="round" stroke-linejoin="round" mask="url(#z)"/>
        </g>
        <g transform="translate(7 2.13)">
            <mask id="B" fill="#fff">
                <use xlink:href="#A"/>
            </mask>
            <path d="M20.721 25.88c0-2.77-1.963-3.903-4.362-2.518-2.4 1.386-4.364 4.787-4.364 7.557 0 2.77 1.964 3.904 4.364 2.519 2.4-1.385 4.362-4.786 4.362-7.557z" stroke="#33475C" stroke-width="5" stroke-linecap="round" stroke-linejoin="round" mask="url(#B)"/>
        </g>
        <g transform="translate(7 2.13)">
            <mask id="D" fill="#fff">
                <use xlink:href="#C"/>
            </mask>
            <path d="M15.066 28.703c0-.378-.268-.532-.595-.343-.327.189-.594.653-.594 1.03s.267.533.594.343c.327-.188.595-.652.595-1.03z" stroke="#33475C" stroke-width="5" stroke-linecap="round" stroke-linejoin="round" mask="url(#D)"/>
        </g>
        <g transform="translate(7 2.13)">
            <mask id="F" fill="#fff">
                <use xlink:href="#E"/>
            </mask>
            <path d="M18.601 26.674c0-.378-.268-.532-.595-.344-.327.189-.594.653-.594 1.03 0 .378.267.533.594.344.327-.19.595-.652.595-1.03z" stroke="#33475C" stroke-width="5" stroke-linecap="round" stroke-linejoin="round" mask="url(#F)"/>
        </g>
        <g transform="translate(7 2.13)">
            <mask id="H" fill="#fff">
                <use xlink:href="#G"/>
            </mask>
            <path d="M14.471 31.424c.364.31.915.333 1.536-.025.621-.36 1.171-1.018 1.536-1.748" stroke="#33475C" stroke-width="5" stroke-linecap="round" stroke-linejoin="round" mask="url(#H)"/>
        </g>
        <g transform="translate(7 2.13)">
            <mask id="J" fill="#fff">
                <use xlink:href="#I"/>
            </mask>
            <path d="M50.287 2.916c0-1.65-1.17-2.325-2.598-1.5L11.829 22.12c-1.43.825-2.6 2.85-2.6 4.5v11.166c0 1.65 1.17 2.325 2.6 1.5l35.86-20.704c1.429-.825 2.598-2.85 2.598-4.5V2.916z" stroke="#33475C" stroke-width="5" stroke-linecap="round" stroke-linejoin="round" mask="url(#J)"/>
        </g>
        <g transform="translate(7 2.13)">
            <mask id="L" fill="#fff">
                <use xlink:href="#K"/>
            </mask>
            <path d="M50.287 2.916c0-1.65-1.17-2.325-2.598-1.5L11.829 22.12c-1.43.825-2.6 2.85-2.6 4.5v11.166c0 1.65 1.17 2.325 2.6 1.5l35.86-20.704c1.429-.825 2.598-2.85 2.598-4.5V2.916z" stroke="#33475C" stroke-width="5" stroke-linecap="round" stroke-linejoin="round" mask="url(#L)"/>
        </g>
        <g transform="translate(7 2.13)">
            <mask id="N" fill="#fff">
                <use xlink:href="#M"/>
            </mask>
            <path d="M45.415 7.833c0-1.063-.91-1.408-2.021-.767L24.749 17.832c-1.111.642-2.021 2.036-2.021 3.099 0 1.062.91 1.407 2.02.765l18.646-10.764c1.112-.642 2.02-2.037 2.02-3.1z" stroke="#33475C" stroke-width="5" stroke-linecap="round" stroke-linejoin="round" mask="url(#N)"/>
        </g>
        <g transform="translate(7 2.13)">
            <mask id="P" fill="#fff">
                <use xlink:href="#O"/>
            </mask>
            <path d="M38.758 18.435c0-1.062-.909-1.407-2.02-.766l-11.99 6.922c-1.11.642-2.02 2.036-2.02 3.1 0 1.062.91 1.407 2.02.765l11.99-6.922c1.111-.642 2.02-2.037 2.02-3.099z" stroke="#33475C" stroke-width="5" stroke-linecap="round" stroke-linejoin="round" mask="url(#P)"/>
        </g>
        <g transform="translate(7 2.13)">
            <mask id="R" fill="#fff">
                <use xlink:href="#Q"/>
            </mask>
            <path d="M20.721 25.88c0-2.77-1.963-3.903-4.362-2.518-2.4 1.386-4.364 4.787-4.364 7.557 0 2.77 1.964 3.904 4.364 2.519 2.4-1.385 4.362-4.786 4.362-7.557z" stroke="#33475C" stroke-width="5" stroke-linecap="round" stroke-linejoin="round" mask="url(#R)"/>
        </g>
        <g transform="translate(7 2.13)">
            <mask id="T" fill="#fff">
                <use xlink:href="#S"/>
            </mask>
            <path d="M15.066 28.703c0-.378-.268-.532-.595-.343-.327.189-.594.653-.594 1.03s.267.533.594.343c.327-.188.595-.652.595-1.03z" stroke="#33475C" stroke-width="5" stroke-linecap="round" stroke-linejoin="round" mask="url(#T)"/>
        </g>
        <g transform="translate(7 2.13)">
            <mask id="V" fill="#fff">
                <use xlink:href="#U"/>
            </mask>
            <path d="M18.601 26.674c0-.378-.268-.532-.595-.344-.327.189-.594.653-.594 1.03 0 .378.267.533.594.344.327-.19.595-.652.595-1.03z" stroke="#33475C" stroke-width="5" stroke-linecap="round" stroke-linejoin="round" mask="url(#V)"/>
        </g>
        <g transform="translate(7 2.13)">
            <mask id="X" fill="#fff">
                <use xlink:href="#W"/>
            </mask>
            <path d="M14.471 31.424c.364.31.915.333 1.536-.025.621-.36 1.171-1.018 1.536-1.748" stroke="#33475C" stroke-width="5" stroke-linecap="round" stroke-linejoin="round" mask="url(#X)"/>
        </g>
        <g transform="translate(7 2.13)">
            <mask id="Z" fill="#fff">
                <use xlink:href="#Y"/>
            </mask>
            <path d="M55.936 32.954c1.557-.903.704-2.14.24-2.652-.063-.063-.12-.125-.183-.188l-.057-.053.006-.001c-3.288-3.362-4.69-6.73-5.283-8.91-.44-1.577-1.468-1.31-1.964-1.071l-.277.159-37.234 21.43s-1.7 1.196-1.262 2.939c.784 2.393 2.46 5.78 6.042 9.052.666.524 2.1 1.276 4.018.162l35.954-20.867z" stroke="#33475C" stroke-width="5" stroke-linecap="round" stroke-linejoin="round" mask="url(#Z)"/>
        </g>
        <g transform="translate(7 2.13)">
            <mask id="ab" fill="#fff">
                <use xlink:href="#aa"/>
            </mask>
            <path d="M22.906 43.32c1.313 2.072 1.537 4.544-.196 6.028-1.734 1.484-5.204 1.076-6.87-1.553-1.665-2.63-.55-5.942 1.532-6.875 2.082-.933 4.221.326 5.534 2.4z" stroke="#33475C" stroke-width="5" stroke-linecap="round" stroke-linejoin="round" mask="url(#ab)"/>
        </g>
        <g transform="translate(7 2.13)">
            <mask id="ad" fill="#fff">
                <use xlink:href="#ac"/>
            </mask>
            <path d="M25.221 40.218c-.538 0-1.06-.278-1.349-.777-.429-.744-.174-1.696.57-2.125L43.087 26.55c.743-.428 1.696-.175 2.124.57.43.744.175 1.695-.569 2.125L25.996 40.01c-.244.143-.51.209-.775.209z" stroke="#33475C" stroke-width="5" stroke-linecap="round" stroke-linejoin="round" mask="url(#ad)"/>
        </g>
        <g transform="translate(7 2.13)">
            <mask id="af" fill="#fff">
                <use xlink:href="#ae"/>
            </mask>
            <path d="M27.943 45.441c-.538 0-1.06-.278-1.349-.777-.429-.744-.174-1.696.57-2.125l11.99-6.922c.744-.429 1.695-.175 2.124.57.43.743.175 1.694-.569 2.124l-11.99 6.922c-.245.142-.512.208-.776.208z" stroke="#33475C" stroke-width="5" stroke-linecap="round" stroke-linejoin="round" mask="url(#af)"/>
        </g>
        <g transform="translate(7 2.13)">
            <mask id="ah" fill="#fff">
                <use xlink:href="#ag"/>
            </mask>
            <path d="M19.104 47.976c.764.272 1.597.176 2.118-.27.41-.35.596-.816.612-1.315" stroke="#33475C" stroke-width="5" stroke-linecap="round" stroke-linejoin="round" mask="url(#ah)"/>
        </g>
        <g transform="translate(7 2.13)">
            <mask id="aj" fill="#fff">
                <use xlink:href="#ai"/>
            </mask>
            <path d="M17.82 45.658c.155.244.182.535-.022.71-.205.174-.613.126-.809-.183-.195-.309-.065-.699.181-.809.245-.11.496.039.65.282z" stroke="#33475C" stroke-width="5" stroke-linecap="round" stroke-linejoin="round" mask="url(#aj)"/>
        </g>
        <g transform="translate(7 2.13)">
            <mask id="al" fill="#fff">
                <use xlink:href="#ak"/>
            </mask>
            <path d="M21.193 43.676c.154.244.181.535-.023.71-.204.174-.612.127-.808-.184-.196-.308-.065-.697.18-.807.245-.11.497.037.651.281z" stroke="#33475C" stroke-width="5" stroke-linecap="round" stroke-linejoin="round" mask="url(#al)"/>
        </g>
        <g transform="translate(7 2.13)">
            <mask id="an" fill="#fff">
                <use xlink:href="#am"/>
            </mask>
            <path d="M55.936 32.954c1.557-.903.704-2.14.24-2.652-.063-.063-.12-.125-.183-.188l-.057-.053.006-.001c-3.288-3.362-4.69-6.73-5.283-8.91-.44-1.577-1.468-1.31-1.964-1.071l-.277.159-37.234 21.43s-1.7 1.196-1.262 2.939c.784 2.393 2.46 5.78 6.042 9.052.666.524 2.1 1.276 4.018.162l35.954-20.867z" stroke="#33475C" stroke-width="5" stroke-linecap="round" stroke-linejoin="round" mask="url(#an)"/>
        </g>
        <g transform="translate(7 2.13)">
            <mask id="ap" fill="#fff">
                <use xlink:href="#ao"/>
            </mask>
            <path d="M22.906 43.32c1.313 2.072 1.537 4.544-.196 6.028-1.734 1.484-5.204 1.076-6.87-1.553-1.665-2.63-.55-5.942 1.532-6.875 2.082-.933 4.221.326 5.534 2.4z" stroke="#33475C" stroke-width="5" stroke-linecap="round" stroke-linejoin="round" mask="url(#ap)"/>
        </g>
        <g transform="translate(7 2.13)">
            <mask id="ar" fill="#fff">
                <use xlink:href="#aq"/>
            </mask>
            <path d="M25.221 40.218c-.538 0-1.06-.278-1.349-.777-.429-.744-.174-1.696.57-2.125L43.087 26.55c.743-.428 1.696-.175 2.124.57.43.744.175 1.695-.569 2.125L25.996 40.01c-.244.143-.51.209-.775.209z" stroke="#33475C" stroke-width="5" stroke-linecap="round" stroke-linejoin="round" mask="url(#ar)"/>
        </g>
        <g transform="translate(7 2.13)">
            <mask id="at" fill="#fff">
                <use xlink:href="#as"/>
            </mask>
            <path d="M27.943 45.441c-.538 0-1.06-.278-1.349-.777-.429-.744-.174-1.696.57-2.125l11.99-6.922c.744-.429 1.695-.175 2.124.57.43.743.175 1.694-.569 2.124l-11.99 6.922c-.245.142-.512.208-.776.208z" stroke="#33475C" stroke-width="5" stroke-linecap="round" stroke-linejoin="round" mask="url(#at)"/>
        </g>
        <g transform="translate(7 2.13)">
            <mask id="av" fill="#fff">
                <use xlink:href="#au"/>
            </mask>
            <path d="M19.104 47.976c.764.272 1.597.176 2.118-.27.41-.35.596-.816.612-1.315" stroke="#33475C" stroke-width="5" stroke-linecap="round" stroke-linejoin="round" mask="url(#av)"/>
        </g>
        <g transform="translate(7 2.13)">
            <mask id="ax" fill="#fff">
                <use xlink:href="#aw"/>
            </mask>
            <path d="M17.82 45.658c.155.244.182.535-.022.71-.205.174-.613.126-.809-.183-.195-.309-.065-.699.181-.809.245-.11.496.039.65.282z" stroke="#33475C" stroke-width="5" stroke-linecap="round" stroke-linejoin="round" mask="url(#ax)"/>
        </g>
        <g transform="translate(7 2.13)">
            <mask id="az" fill="#fff">
                <use xlink:href="#ay"/>
            </mask>
            <path d="M21.193 43.676c.154.244.181.535-.023.71-.204.174-.612.127-.808-.184-.196-.308-.065-.697.18-.807.245-.11.497.037.651.281z" stroke="#33475C" stroke-width="5" stroke-linecap="round" stroke-linejoin="round" mask="url(#az)"/>
        </g>
        <g transform="translate(7 2.13)">
            <mask id="aB" fill="#fff">
                <use xlink:href="#aA"/>
            </mask>
            <path d="M55.936 32.954c1.557-.903.704-2.14.24-2.652-.063-.063-.12-.125-.183-.188l-.057-.053.006-.001c-3.288-3.362-4.69-6.73-5.283-8.91-.44-1.577-1.468-1.31-1.964-1.071l-.277.159-37.234 21.43s-1.7 1.196-1.262 2.939c.784 2.393 2.46 5.78 6.042 9.052.666.524 2.1 1.276 4.018.162l35.954-20.867z" stroke="#33475C" stroke-width="5" stroke-linecap="round" stroke-linejoin="round" mask="url(#aB)"/>
        </g>
        <g transform="translate(7 2.13)">
            <mask id="aD" fill="#fff">
                <use xlink:href="#aC"/>
            </mask>
            <path d="M22.906 43.32c1.313 2.072 1.537 4.544-.196 6.028-1.734 1.484-5.204 1.076-6.87-1.553-1.665-2.63-.55-5.942 1.532-6.875 2.082-.933 4.221.326 5.534 2.4z" stroke="#33475C" stroke-width="5" stroke-linecap="round" stroke-linejoin="round" mask="url(#aD)"/>
        </g>
        <g transform="translate(7 2.13)">
            <mask id="aF" fill="#fff">
                <use xlink:href="#aE"/>
            </mask>
            <path d="M25.221 40.218c-.538 0-1.06-.278-1.349-.777-.429-.744-.174-1.696.57-2.125L43.087 26.55c.743-.428 1.696-.175 2.124.57.43.744.175 1.695-.569 2.125L25.996 40.01c-.244.143-.51.209-.775.209z" stroke="#33475C" stroke-width="5" stroke-linecap="round" stroke-linejoin="round" mask="url(#aF)"/>
        </g>
        <g transform="translate(7 2.13)">
            <mask id="aH" fill="#fff">
                <use xlink:href="#aG"/>
            </mask>
            <path d="M27.943 45.441c-.538 0-1.06-.278-1.349-.777-.429-.744-.174-1.696.57-2.125l11.99-6.922c.744-.429 1.695-.175 2.124.57.43.743.175 1.694-.569 2.124l-11.99 6.922c-.245.142-.512.208-.776.208z" stroke="#33475C" stroke-width="5" stroke-linecap="round" stroke-linejoin="round" mask="url(#aH)"/>
        </g>
        <g transform="translate(7 2.13)">
            <mask id="aJ" fill="#fff">
                <use xlink:href="#aI"/>
            </mask>
            <path d="M19.104 47.976c.764.272 1.597.176 2.118-.27.41-.35.596-.816.612-1.315" stroke="#33475C" stroke-width="5" stroke-linecap="round" stroke-linejoin="round" mask="url(#aJ)"/>
        </g>
        <g transform="translate(7 2.13)">
            <mask id="aL" fill="#fff">
                <use xlink:href="#aK"/>
            </mask>
            <path d="M17.82 45.658c.155.244.182.535-.022.71-.205.174-.613.126-.809-.183-.195-.309-.065-.699.181-.809.245-.11.496.039.65.282z" stroke="#33475C" stroke-width="5" stroke-linecap="round" stroke-linejoin="round" mask="url(#aL)"/>
        </g>
        <g transform="translate(7 2.13)">
            <mask id="aN" fill="#fff">
                <use xlink:href="#aM"/>
            </mask>
            <path d="M21.193 43.676c.154.244.181.535-.023.71-.204.174-.612.127-.808-.184-.196-.308-.065-.697.18-.807.245-.11.497.037.651.281z" stroke="#33475C" stroke-width="5" stroke-linecap="round" stroke-linejoin="round" mask="url(#aN)"/>
        </g>
        <g transform="translate(7 2.13)">
            <mask id="aP" fill="#fff">
                <use xlink:href="#aO"/>
            </mask>
            <path d="M61.525 34.709c-1.45-.785-3.807-.753-5.236.072L20.43 55.484c-1.429.826-1.41 2.144.04 2.929l10.067 5.45c1.451.786 3.807.754 5.236-.071l35.86-20.703c1.43-.825 1.412-2.144-.04-2.93l-10.067-5.45z" stroke="#33475C" stroke-width="5" stroke-linecap="round" stroke-linejoin="round" mask="url(#aP)"/>
        </g>
        <g transform="translate(7 2.13)">
            <mask id="aR" fill="#fff">
                <use xlink:href="#aQ"/>
            </mask>
            <path d="M61.525 34.709c-1.45-.785-3.807-.753-5.236.072L20.43 55.484c-1.429.826-1.41 2.144.04 2.929l10.067 5.45c1.451.786 3.807.754 5.236-.071l35.86-20.703c1.43-.825 1.412-2.144-.04-2.93l-10.067-5.45z" stroke="#33475C" stroke-width="5" stroke-linecap="round" stroke-linejoin="round" mask="url(#aR)"/>
        </g>
        <g transform="translate(7 2.13)">
            <mask id="aT" fill="#fff">
                <use xlink:href="#aS"/>
            </mask>
            <path d="M58.577 38.563c-.95-.514-2.637-.41-3.748.231L36.183 49.56c-1.111.642-1.243 1.587-.293 2.102.95.513 2.636.41 3.748-.232l18.645-10.765c1.11-.642 1.243-1.587.294-2.102z" stroke="#33475C" stroke-width="5" stroke-linecap="round" stroke-linejoin="round" mask="url(#aT)"/>
        </g>
        <g transform="translate(7 2.13)">
            <mask id="aV" fill="#fff">
                <use xlink:href="#aU"/>
            </mask>
            <path d="M57.963 45.678c-.95-.514-2.637-.41-3.748.23l-11.99 6.923c-1.111.642-1.242 1.587-.292 2.102.949.516 2.635.41 3.747-.231l11.99-6.921c1.11-.642 1.243-1.588.293-2.103z" stroke="#33475C" stroke-width="5" stroke-linecap="round" stroke-linejoin="round" mask="url(#aV)"/>
        </g>
        <g transform="translate(7 2.13)">
            <mask id="aX" fill="#fff">
                <use xlink:href="#aW"/>
            </mask>
            <path d="M37.273 54.655c-2.477-1.341-6.466-1.305-8.865.081-2.4 1.385-2.337 3.616.14 4.957 2.476 1.341 6.465 1.305 8.865-.081 2.4-1.386 2.337-3.616-.14-4.957z" stroke="#33475C" stroke-width="5" stroke-linecap="round" stroke-linejoin="round" mask="url(#aX)"/>
        </g>
        <g transform="translate(7 2.13)">
            <mask id="aZ" fill="#fff">
                <use xlink:href="#aY"/>
            </mask>
            <path d="M32.413 59.013c1.073.063 2.188-.13 2.992-.595.806-.465 1.116-1.093.967-1.69" stroke="#33475C" stroke-width="5" stroke-linecap="round" stroke-linejoin="round" mask="url(#aZ)"/>
        </g>
        <g transform="translate(7 2.13)">
            <mask id="bb" fill="#fff">
                <use xlink:href="#ba"/>
            </mask>
            <path d="M30.824 57.423c-.314-.171-.821-.166-1.126.01-.305.176-.296.459.019.63.314.17.82.165 1.125-.011.304-.176.296-.46-.018-.63z" stroke="#33475C" stroke-width="5" stroke-linecap="round" stroke-linejoin="round" mask="url(#bb)"/>
        </g>
        <g transform="translate(7 2.13)">
            <mask id="bd" fill="#fff">
                <use xlink:href="#bc"/>
            </mask>
            <path d="M34.482 55.305c-.314-.17-.82-.166-1.125.01-.305.176-.297.46.018.63.314.17.82.165 1.125-.01.304-.177.296-.46-.018-.63z" stroke="#33475C" stroke-width="5" stroke-linecap="round" stroke-linejoin="round" mask="url(#bd)"/>
        </g>
        <g transform="translate(7 2.13)">
            <mask id="bf" fill="#fff">
                <use xlink:href="#be"/>
            </mask>
            <path d="M61.525 34.709c-1.45-.785-3.807-.753-5.236.072L20.43 55.484c-1.429.826-1.41 2.144.04 2.929l10.067 5.45c1.451.786 3.807.754 5.236-.071l35.86-20.703c1.43-.825 1.412-2.144-.04-2.93l-10.067-5.45z" stroke="#33475C" stroke-width="5" stroke-linecap="round" stroke-linejoin="round" mask="url(#bf)"/>
        </g>
        <g transform="translate(7 2.13)">
            <mask id="bh" fill="#fff">
                <use xlink:href="#bg"/>
            </mask>
            <path d="M61.525 34.709c-1.45-.785-3.807-.753-5.236.072L20.43 55.484c-1.429.826-1.41 2.144.04 2.929l10.067 5.45c1.451.786 3.807.754 5.236-.071l35.86-20.703c1.43-.825 1.412-2.144-.04-2.93l-10.067-5.45z" stroke="#33475C" stroke-width="5" stroke-linecap="round" stroke-linejoin="round" mask="url(#bh)"/>
        </g>
        <g transform="translate(7 2.13)">
            <mask id="bj" fill="#fff">
                <use xlink:href="#bi"/>
            </mask>
            <path d="M58.577 38.563c-.95-.514-2.637-.41-3.748.231L36.183 49.56c-1.111.642-1.243 1.587-.293 2.102.95.513 2.636.41 3.748-.232l18.645-10.765c1.11-.642 1.243-1.587.294-2.102z" stroke="#33475C" stroke-width="5" stroke-linecap="round" stroke-linejoin="round" mask="url(#bj)"/>
        </g>
        <g transform="translate(7 2.13)">
            <mask id="bl" fill="#fff">
                <use xlink:href="#bk"/>
            </mask>
            <path d="M57.963 45.678c-.95-.514-2.637-.41-3.748.23l-11.99 6.923c-1.111.642-1.242 1.587-.292 2.102.949.516 2.635.41 3.747-.231l11.99-6.921c1.11-.642 1.243-1.588.293-2.103z" stroke="#33475C" stroke-width="5" stroke-linecap="round" stroke-linejoin="round" mask="url(#bl)"/>
        </g>
        <g transform="translate(7 2.13)">
            <mask id="bn" fill="#fff">
                <use xlink:href="#bm"/>
            </mask>
            <path d="M37.273 54.655c-2.477-1.341-6.466-1.305-8.865.081-2.4 1.385-2.337 3.616.14 4.957 2.476 1.341 6.465 1.305 8.865-.081 2.4-1.386 2.337-3.616-.14-4.957z" stroke="#33475C" stroke-width="5" stroke-linecap="round" stroke-linejoin="round" mask="url(#bn)"/>
        </g>
        <g transform="translate(7 2.13)">
            <mask id="bp" fill="#fff">
                <use xlink:href="#bo"/>
            </mask>
            <path d="M32.413 59.013c1.073.063 2.188-.13 2.992-.595.806-.465 1.116-1.093.967-1.69" stroke="#33475C" stroke-width="5" stroke-linecap="round" stroke-linejoin="round" mask="url(#bp)"/>
        </g>
        <g transform="translate(7 2.13)">
            <mask id="br" fill="#fff">
                <use xlink:href="#bq"/>
            </mask>
            <path d="M30.824 57.423c-.314-.171-.821-.166-1.126.01-.305.176-.296.459.019.63.314.17.82.165 1.125-.011.304-.176.296-.46-.018-.63z" stroke="#33475C" stroke-width="5" stroke-linecap="round" stroke-linejoin="round" mask="url(#br)"/>
        </g>
        <g transform="translate(7 2.13)">
            <mask id="bt" fill="#fff">
                <use xlink:href="#bs"/>
            </mask>
            <path d="M34.482 55.305c-.314-.17-.82-.166-1.125.01-.305.176-.297.46.018.63.314.17.82.165 1.125-.01.304-.177.296-.46-.018-.63z" stroke="#33475C" stroke-width="5" stroke-linecap="round" stroke-linejoin="round" mask="url(#bt)"/>
        </g>
        <g transform="translate(7 2.13)">
            <mask id="bv" fill="#fff">
                <use xlink:href="#bu"/>
            </mask>
            <path d="M61.525 34.709c-1.45-.785-3.807-.753-5.236.072L20.43 55.484c-1.429.826-1.41 2.144.04 2.929l10.067 5.45c1.451.786 3.807.754 5.236-.071l35.86-20.703c1.43-.825 1.412-2.144-.04-2.93l-10.067-5.45z" stroke="#33475C" stroke-width="5" stroke-linecap="round" stroke-linejoin="round" mask="url(#bv)"/>
        </g>
        <g transform="translate(7 2.13)">
            <mask id="bx" fill="#fff">
                <use xlink:href="#bw"/>
            </mask>
            <path d="M61.525 34.709c-1.45-.785-3.807-.753-5.236.072L20.43 55.484c-1.429.826-1.41 2.144.04 2.929l10.067 5.45c1.451.786 3.807.754 5.236-.071l35.86-20.703c1.43-.825 1.412-2.144-.04-2.93l-10.067-5.45z" stroke="#33475C" stroke-width="5" stroke-linecap="round" stroke-linejoin="round" mask="url(#bx)"/>
        </g>
        <g transform="translate(7 2.13)">
            <mask id="bz" fill="#fff">
                <use xlink:href="#by"/>
            </mask>
            <path d="M58.577 38.563c-.95-.514-2.637-.41-3.748.231L36.183 49.56c-1.111.642-1.243 1.587-.293 2.102.95.513 2.636.41 3.748-.232l18.645-10.765c1.11-.642 1.243-1.587.294-2.102z" stroke="#33475C" stroke-width="5" stroke-linecap="round" stroke-linejoin="round" mask="url(#bz)"/>
        </g>
        <g transform="translate(7 2.13)">
            <mask id="bB" fill="#fff">
                <use xlink:href="#bA"/>
            </mask>
            <path d="M57.963 45.678c-.95-.514-2.637-.41-3.748.23l-11.99 6.923c-1.111.642-1.242 1.587-.292 2.102.949.516 2.635.41 3.747-.231l11.99-6.921c1.11-.642 1.243-1.588.293-2.103z" stroke="#33475C" stroke-width="5" stroke-linecap="round" stroke-linejoin="round" mask="url(#bB)"/>
        </g>
        <g transform="translate(7 2.13)">
            <mask id="bD" fill="#fff">
                <use xlink:href="#bC"/>
            </mask>
            <path d="M37.273 54.655c-2.477-1.341-6.466-1.305-8.865.081-2.4 1.385-2.337 3.616.14 4.957 2.476 1.341 6.465 1.305 8.865-.081 2.4-1.386 2.337-3.616-.14-4.957z" stroke="#33475C" stroke-width="5" stroke-linecap="round" stroke-linejoin="round" mask="url(#bD)"/>
        </g>
        <g transform="translate(7 2.13)">
            <mask id="bF" fill="#fff">
                <use xlink:href="#bE"/>
            </mask>
            <path d="M32.413 59.013c1.073.063 2.188-.13 2.992-.595.806-.465 1.116-1.093.967-1.69" stroke="#33475C" stroke-width="5" stroke-linecap="round" stroke-linejoin="round" mask="url(#bF)"/>
        </g>
        <g transform="translate(7 2.13)">
            <mask id="bH" fill="#fff">
                <use xlink:href="#bG"/>
            </mask>
            <path d="M30.824 57.423c-.314-.171-.821-.166-1.126.01-.305.176-.296.459.019.63.314.17.82.165 1.125-.011.304-.176.296-.46-.018-.63z" stroke="#33475C" stroke-width="5" stroke-linecap="round" stroke-linejoin="round" mask="url(#bH)"/>
        </g>
        <g transform="translate(7 2.13)">
            <mask id="bJ" fill="#fff">
                <use xlink:href="#bI"/>
            </mask>
            <path d="M34.482 55.305c-.314-.17-.82-.166-1.125.01-.305.176-.297.46.018.63.314.17.82.165 1.125-.01.304-.177.296-.46-.018-.63z" stroke="#33475C" stroke-width="5" stroke-linecap="round" stroke-linejoin="round" mask="url(#bJ)"/>
        </g>
        <g>
            <path d="M77.69 37.5c0 19.33-15.67 35-35 35-19.329 0-35-15.67-35-35s15.671-35 35-35c19.33 0 35 15.67 35 35z" stroke="#33475C" stroke-width="5" stroke-linecap="round" stroke-linejoin="round"/>
            <path d="M77.69 37.5c0 19.33-15.67 35-35 35-19.329 0-35-15.67-35-35s15.671-35 35-35c19.33 0 35 15.67 35 35" fill="#FBE1B2"/>
            <path d="M77.69 37.5c0 19.33-15.67 35-35 35-19.329 0-35-15.67-35-35s15.671-35 35-35c19.33 0 35 15.67 35 35z" stroke="#33475C" stroke-linecap="round" stroke-linejoin="round"/>
        </g>
        <g>
            <g transform="translate(7 2.13)">
                <mask id="bL" fill="#fff">
                    <use xlink:href="#bK"/>
                </mask>
                <path d="M50.287 2.916c0-1.65-1.17-2.325-2.598-1.5L11.829 22.12c-1.43.825-2.6 2.85-2.6 4.5v11.166c0 1.65 1.17 2.325 2.6 1.5l35.86-20.704c1.429-.825 2.598-2.85 2.598-4.5V2.916z" stroke="#F6C364" stroke-width="5" stroke-linecap="round" stroke-linejoin="round" mask="url(#bL)"/>
            </g>
            <g transform="translate(7 2.13)">
                <mask id="bN" fill="#fff">
                    <use xlink:href="#bM"/>
                </mask>
                <path d="M50.287 2.916c0-1.65-1.17-2.325-2.598-1.5L11.829 22.12c-1.43.825-2.6 2.85-2.6 4.5v11.166c0 1.65 1.17 2.325 2.6 1.5l35.86-20.704c1.429-.825 2.598-2.85 2.598-4.5V2.916z" stroke="#F6C364" stroke-width="5" stroke-linecap="round" stroke-linejoin="round" mask="url(#bN)"/>
            </g>
            <g transform="translate(7 2.13)">
                <mask id="bP" fill="#fff">
                    <use xlink:href="#bO"/>
                </mask>
                <path d="M45.415 7.833c0-1.063-.91-1.408-2.021-.767L24.749 17.832c-1.111.642-2.021 2.036-2.021 3.099 0 1.062.91 1.407 2.02.765l18.646-10.764c1.112-.642 2.02-2.037 2.02-3.1z" stroke="#F6C364" stroke-width="5" stroke-linecap="round" stroke-linejoin="round" mask="url(#bP)"/>
            </g>
            <g transform="translate(7 2.13)">
                <mask id="bR" fill="#fff">
                    <use xlink:href="#bQ"/>
                </mask>
                <path d="M38.758 18.435c0-1.062-.909-1.407-2.02-.766l-11.99 6.922c-1.11.642-2.02 2.036-2.02 3.1 0 1.062.91 1.407 2.02.765l11.99-6.922c1.111-.642 2.02-2.037 2.02-3.099z" stroke="#F6C364" stroke-width="5" stroke-linecap="round" stroke-linejoin="round" mask="url(#bR)"/>
            </g>
            <g transform="translate(7 2.13)">
                <mask id="bT" fill="#fff">
                    <use xlink:href="#bS"/>
                </mask>
                <path d="M20.721 25.88c0-2.77-1.963-3.903-4.362-2.518-2.4 1.386-4.364 4.787-4.364 7.557 0 2.77 1.964 3.904 4.364 2.519 2.4-1.385 4.362-4.786 4.362-7.557z" stroke="#F6C364" stroke-width="5" stroke-linecap="round" stroke-linejoin="round" mask="url(#bT)"/>
            </g>
            <g transform="translate(7 2.13)">
                <mask id="bV" fill="#fff">
                    <use xlink:href="#bU"/>
                </mask>
                <path d="M15.066 28.703c0-.378-.268-.532-.595-.343-.327.189-.594.653-.594 1.03s.267.533.594.343c.327-.188.595-.652.595-1.03z" stroke="#F6C364" stroke-width="5" stroke-linecap="round" stroke-linejoin="round" mask="url(#bV)"/>
            </g>
            <g transform="translate(7 2.13)">
                <mask id="bX" fill="#fff">
                    <use xlink:href="#bW"/>
                </mask>
                <path d="M18.601 26.674c0-.378-.268-.532-.595-.344-.327.189-.594.653-.594 1.03 0 .378.267.533.594.344.327-.19.595-.652.595-1.03z" stroke="#F6C364" stroke-width="5" stroke-linecap="round" stroke-linejoin="round" mask="url(#bX)"/>
            </g>
            <g transform="translate(7 2.13)">
                <mask id="bZ" fill="#fff">
                    <use xlink:href="#bY"/>
                </mask>
                <path d="M14.471 31.424c.364.31.915.333 1.536-.025.621-.36 1.171-1.018 1.536-1.748" stroke="#F6C364" stroke-width="5" stroke-linecap="round" stroke-linejoin="round" mask="url(#bZ)"/>
            </g>
            <g transform="translate(7 2.13)">
                <mask id="cb" fill="#fff">
                    <use xlink:href="#ca"/>
                </mask>
                <path d="M50.287 2.916c0-1.65-1.17-2.325-2.598-1.5L11.829 22.12c-1.43.825-2.6 2.85-2.6 4.5v11.166c0 1.65 1.17 2.325 2.6 1.5l35.86-20.704c1.429-.825 2.598-2.85 2.598-4.5V2.916z" fill="#FEF8F0" mask="url(#cb)"/>
            </g>
            <g transform="translate(7 2.13)">
                <mask id="cd" fill="#fff">
                    <use xlink:href="#cc"/>
                </mask>
                <path d="M50.287 2.916c0-1.65-1.17-2.325-2.598-1.5L11.829 22.12c-1.43.825-2.6 2.85-2.6 4.5v11.166c0 1.65 1.17 2.325 2.6 1.5l35.86-20.704c1.429-.825 2.598-2.85 2.598-4.5V2.916z" stroke="#F6C364" stroke-linecap="round" stroke-linejoin="round" mask="url(#cd)"/>
            </g>
            <g transform="translate(7 2.13)">
                <mask id="cf" fill="#fff">
                    <use xlink:href="#ce"/>
                </mask>
                <path d="M45.415 7.833c0-1.063-.91-1.408-2.021-.767L24.749 17.832c-1.111.642-2.021 2.036-2.021 3.099 0 1.062.91 1.407 2.02.765l18.646-10.764c1.112-.642 2.02-2.037 2.02-3.1" fill="#FBE1B2" mask="url(#cf)"/>
            </g>
            <g transform="translate(7 2.13)">
                <mask id="ch" fill="#fff">
                    <use xlink:href="#cg"/>
                </mask>
                <path d="M45.415 7.833c0-1.063-.91-1.408-2.021-.767L24.749 17.832c-1.111.642-2.021 2.036-2.021 3.099 0 1.062.91 1.407 2.02.765l18.646-10.764c1.112-.642 2.02-2.037 2.02-3.1z" stroke="#F6C364" stroke-linecap="round" stroke-linejoin="round" mask="url(#ch)"/>
            </g>
            <g transform="translate(7 2.13)">
                <mask id="cj" fill="#fff">
                    <use xlink:href="#ci"/>
                </mask>
                <path d="M38.758 18.435c0-1.062-.909-1.407-2.02-.766l-11.99 6.922c-1.11.642-2.02 2.036-2.02 3.1 0 1.062.91 1.407 2.02.765l11.99-6.922c1.111-.642 2.02-2.037 2.02-3.099" fill="#FBE1B2" mask="url(#cj)"/>
            </g>
            <g transform="translate(7 2.13)">
                <mask id="cl" fill="#fff">
                    <use xlink:href="#ck"/>
                </mask>
                <path d="M38.758 18.435c0-1.062-.909-1.407-2.02-.766l-11.99 6.922c-1.11.642-2.02 2.036-2.02 3.1 0 1.062.91 1.407 2.02.765l11.99-6.922c1.111-.642 2.02-2.037 2.02-3.099z" stroke="#F6C364" stroke-linecap="round" stroke-linejoin="round" mask="url(#cl)"/>
            </g>
            <g transform="translate(7 2.13)">
                <mask id="cn" fill="#fff">
                    <use xlink:href="#cm"/>
                </mask>
                <path d="M20.721 25.88c0-2.77-1.963-3.903-4.362-2.518-2.4 1.386-4.364 4.787-4.364 7.557 0 2.77 1.964 3.904 4.364 2.519 2.4-1.385 4.362-4.786 4.362-7.557" fill="#FBE1B2" mask="url(#cn)"/>
            </g>
            <g transform="translate(7 2.13)">
                <mask id="cp" fill="#fff">
                    <use xlink:href="#co"/>
                </mask>
                <path d="M20.721 25.88c0-2.77-1.963-3.903-4.362-2.518-2.4 1.386-4.364 4.787-4.364 7.557 0 2.77 1.964 3.904 4.364 2.519 2.4-1.385 4.362-4.786 4.362-7.557z" stroke="#F6C364" stroke-linecap="round" stroke-linejoin="round" mask="url(#cp)"/>
            </g>
            <g transform="translate(7 2.13)">
                <mask id="cr" fill="#fff">
                    <use xlink:href="#cq"/>
                </mask>
                <path d="M15.066 28.703c0-.378-.268-.532-.595-.343-.327.189-.594.653-.594 1.03s.267.533.594.343c.327-.188.595-.652.595-1.03" fill="#DCAF59" mask="url(#cr)"/>
            </g>
            <g transform="translate(7 2.13)">
                <mask id="ct" fill="#fff">
                    <use xlink:href="#cs"/>
                </mask>
                <path d="M18.601 26.674c0-.378-.268-.532-.595-.344-.327.189-.594.653-.594 1.03 0 .378.267.533.594.344.327-.19.595-.652.595-1.03" fill="#DCAF59" mask="url(#ct)"/>
            </g>
            <g transform="translate(7 2.13)">
                <mask id="cv" fill="#fff">
                    <use xlink:href="#cu"/>
                </mask>
                <path d="M14.471 31.424c.364.31.915.333 1.536-.025.621-.36 1.171-1.018 1.536-1.748" stroke="#DCAF59" stroke-linecap="round" stroke-linejoin="round" mask="url(#cv)"/>
            </g>
            <g transform="translate(7 2.13)">
                <mask id="cx" fill="#fff">
                    <use xlink:href="#cw"/>
                </mask>
                <path d="M55.936 32.954c1.557-.903.704-2.14.24-2.652-.063-.063-.12-.125-.183-.188l-.057-.053.006-.001c-3.288-3.362-4.69-6.73-5.283-8.91-.44-1.577-1.468-1.31-1.964-1.071l-.277.159-37.234 21.43s-1.7 1.196-1.262 2.939c.784 2.393 2.46 5.78 6.042 9.052.666.524 2.1 1.276 4.018.162l35.954-20.867z" stroke="#FF8F52" stroke-width="5" stroke-linecap="round" stroke-linejoin="round" mask="url(#cx)"/>
            </g>
            <g transform="translate(7 2.13)">
                <mask id="cz" fill="#fff">
                    <use xlink:href="#cy"/>
                </mask>
                <path d="M22.906 43.32c1.313 2.072 1.537 4.544-.196 6.028-1.734 1.484-5.204 1.076-6.87-1.553-1.665-2.63-.55-5.942 1.532-6.875 2.082-.933 4.221.326 5.534 2.4z" stroke="#FF8F52" stroke-width="5" stroke-linecap="round" stroke-linejoin="round" mask="url(#cz)"/>
            </g>
            <g transform="translate(7 2.13)">
                <mask id="cB" fill="#fff">
                    <use xlink:href="#cA"/>
                </mask>
                <path d="M25.221 40.218c-.538 0-1.06-.278-1.349-.777-.429-.744-.174-1.696.57-2.125L43.087 26.55c.743-.428 1.696-.175 2.124.57.43.744.175 1.695-.569 2.125L25.996 40.01c-.244.143-.51.209-.775.209z" stroke="#FF8F52" stroke-width="5" stroke-linecap="round" stroke-linejoin="round" mask="url(#cB)"/>
            </g>
            <g transform="translate(7 2.13)">
                <mask id="cD" fill="#fff">
                    <use xlink:href="#cC"/>
                </mask>
                <path d="M27.943 45.441c-.538 0-1.06-.278-1.349-.777-.429-.744-.174-1.696.57-2.125l11.99-6.922c.744-.429 1.695-.175 2.124.57.43.743.175 1.694-.569 2.124l-11.99 6.922c-.245.142-.512.208-.776.208z" stroke="#FF8F52" stroke-width="5" stroke-linecap="round" stroke-linejoin="round" mask="url(#cD)"/>
            </g>
            <g transform="translate(7 2.13)">
                <mask id="cF" fill="#fff">
                    <use xlink:href="#cE"/>
                </mask>
                <path d="M19.104 47.976c.764.272 1.597.176 2.118-.27.41-.35.596-.816.612-1.315" stroke="#FF8F52" stroke-width="5" stroke-linecap="round" stroke-linejoin="round" mask="url(#cF)"/>
            </g>
            <g transform="translate(7 2.13)">
                <mask id="cH" fill="#fff">
                    <use xlink:href="#cG"/>
                </mask>
                <path d="M17.82 45.658c.155.244.182.535-.022.71-.205.174-.613.126-.809-.183-.195-.309-.065-.699.181-.809.245-.11.496.039.65.282z" stroke="#FF8F52" stroke-width="5" stroke-linecap="round" stroke-linejoin="round" mask="url(#cH)"/>
            </g>
            <g transform="translate(7 2.13)">
                <mask id="cJ" fill="#fff">
                    <use xlink:href="#cI"/>
                </mask>
                <path d="M21.193 43.676c.154.244.181.535-.023.71-.204.174-.612.127-.808-.184-.196-.308-.065-.697.18-.807.245-.11.497.037.651.281z" stroke="#FF8F52" stroke-width="5" stroke-linecap="round" stroke-linejoin="round" mask="url(#cJ)"/>
            </g>
            <g transform="translate(7 2.13)">
                <mask id="cL" fill="#fff">
                    <use xlink:href="#cK"/>
                </mask>
                <path d="M55.936 32.954c1.557-.903.704-2.14.24-2.652-.063-.063-.12-.125-.183-.188l-.057-.053.006-.001c-3.288-3.362-4.69-6.73-5.283-8.91-.44-1.577-1.468-1.31-1.964-1.071l-.277.159-37.234 21.43s-1.7 1.196-1.262 2.939c.784 2.393 2.46 5.78 6.042 9.052.666.524 2.1 1.276 4.018.162l35.954-20.867z" fill="#FFF3EE" mask="url(#cL)"/>
            </g>
            <g transform="translate(7 2.13)">
                <mask id="cN" fill="#fff">
                    <use xlink:href="#cM"/>
                </mask>
                <path d="M55.936 32.954c1.557-.903.704-2.14.24-2.652-.063-.063-.12-.125-.183-.188l-.057-.053.006-.001c-3.288-3.362-4.69-6.73-5.283-8.91-.44-1.577-1.468-1.31-1.964-1.071l-.277.159-37.234 21.43s-1.7 1.196-1.262 2.939c.784 2.393 2.46 5.78 6.042 9.052.666.524 2.1 1.276 4.018.162l35.954-20.867z" stroke="#FF8F52" stroke-linecap="round" stroke-linejoin="round" mask="url(#cN)"/>
            </g>
            <g transform="translate(7 2.13)">
                <mask id="cP" fill="#fff">
                    <use xlink:href="#cO"/>
                </mask>
                <path d="M22.906 43.32c1.313 2.072 1.537 4.544-.196 6.028-1.734 1.484-5.204 1.076-6.87-1.553-1.665-2.63-.55-5.942 1.532-6.875 2.082-.933 4.221.326 5.534 2.4" fill="#FFC7AA" mask="url(#cP)"/>
            </g>
            <g transform="translate(7 2.13)">
                <mask id="cR" fill="#fff">
                    <use xlink:href="#cQ"/>
                </mask>
                <path d="M22.906 43.32c1.313 2.072 1.537 4.544-.196 6.028-1.734 1.484-5.204 1.076-6.87-1.553-1.665-2.63-.55-5.942 1.532-6.875 2.082-.933 4.221.326 5.534 2.4z" stroke="#FF8F52" stroke-linecap="round" stroke-linejoin="round" mask="url(#cR)"/>
            </g>
            <g transform="translate(7 2.13)">
                <mask id="cT" fill="#fff">
                    <use xlink:href="#cS"/>
                </mask>
                <path d="M25.221 40.218c-.538 0-1.06-.278-1.349-.777-.429-.744-.174-1.696.57-2.125L43.087 26.55c.743-.428 1.696-.175 2.124.57.43.744.175 1.695-.569 2.125L25.996 40.01c-.244.143-.51.209-.775.209" fill="#FFC7AA" mask="url(#cT)"/>
            </g>
            <g transform="translate(7 2.13)">
                <mask id="cV" fill="#fff">
                    <use xlink:href="#cU"/>
                </mask>
                <path d="M25.221 40.218c-.538 0-1.06-.278-1.349-.777-.429-.744-.174-1.696.57-2.125L43.087 26.55c.743-.428 1.696-.175 2.124.57.43.744.175 1.695-.569 2.125L25.996 40.01c-.244.143-.51.209-.775.209z" stroke="#FF8F52" stroke-linecap="round" stroke-linejoin="round" mask="url(#cV)"/>
            </g>
            <g transform="translate(7 2.13)">
                <mask id="cX" fill="#fff">
                    <use xlink:href="#cW"/>
                </mask>
                <path d="M27.943 45.441c-.538 0-1.06-.278-1.349-.777-.429-.744-.174-1.696.57-2.125l11.99-6.922c.744-.429 1.695-.175 2.124.57.43.743.175 1.694-.569 2.124l-11.99 6.922c-.245.142-.512.208-.776.208" fill="#FFC7AA" mask="url(#cX)"/>
            </g>
            <g transform="translate(7 2.13)">
                <mask id="cZ" fill="#fff">
                    <use xlink:href="#cY"/>
                </mask>
                <path d="M27.943 45.441c-.538 0-1.06-.278-1.349-.777-.429-.744-.174-1.696.57-2.125l11.99-6.922c.744-.429 1.695-.175 2.124.57.43.743.175 1.694-.569 2.124l-11.99 6.922c-.245.142-.512.208-.776.208z" stroke="#FF8F52" stroke-linecap="round" stroke-linejoin="round" mask="url(#cZ)"/>
            </g>
            <g transform="translate(7 2.13)">
                <mask id="db" fill="#fff">
                    <use xlink:href="#da"/>
                </mask>
                <path d="M19.104 47.976c.764.272 1.597.176 2.118-.27.41-.35.596-.816.612-1.315" stroke="#E8824A" stroke-linecap="round" stroke-linejoin="round" mask="url(#db)"/>
            </g>
            <g transform="translate(7 2.13)">
                <mask id="dd" fill="#fff">
                    <use xlink:href="#dc"/>
                </mask>
                <path d="M17.82 45.658c.155.244.182.535-.022.71-.205.174-.613.126-.809-.183-.195-.309-.065-.699.181-.809.245-.11.496.039.65.282" fill="#E8824A" mask="url(#dd)"/>
            </g>
            <g transform="translate(7 2.13)">
                <mask id="df" fill="#fff">
                    <use xlink:href="#de"/>
                </mask>
                <path d="M21.193 43.676c.154.244.181.535-.023.71-.204.174-.612.127-.808-.184-.196-.308-.065-.697.18-.807.245-.11.497.037.651.281" fill="#E8824A" mask="url(#df)"/>
            </g>
            <g transform="translate(7 2.13)">
                <mask id="dh" fill="#fff">
                    <use xlink:href="#dg"/>
                </mask>
                <path d="M61.525 34.709c-1.45-.785-3.807-.753-5.236.072L20.43 55.484c-1.429.826-1.41 2.144.04 2.929l10.067 5.45c1.451.786 3.807.754 5.236-.071l35.86-20.703c1.43-.825 1.412-2.144-.04-2.93l-10.067-5.45z" stroke="#FF9B7E" stroke-width="5" stroke-linecap="round" stroke-linejoin="round" mask="url(#dh)"/>
            </g>
            <g transform="translate(7 2.13)">
                <mask id="dj" fill="#fff">
                    <use xlink:href="#di"/>
                </mask>
                <path d="M61.525 34.709c-1.45-.785-3.807-.753-5.236.072L20.43 55.484c-1.429.826-1.41 2.144.04 2.929l10.067 5.45c1.451.786 3.807.754 5.236-.071l35.86-20.703c1.43-.825 1.412-2.144-.04-2.93l-10.067-5.45z" stroke="#FF9B7E" stroke-width="5" stroke-linecap="round" stroke-linejoin="round" mask="url(#dj)"/>
            </g>
            <g transform="translate(7 2.13)">
                <mask id="dl" fill="#fff">
                    <use xlink:href="#dk"/>
                </mask>
                <path d="M58.577 38.563c-.95-.514-2.637-.41-3.748.231L36.183 49.56c-1.111.642-1.243 1.587-.293 2.102.95.513 2.636.41 3.748-.232l18.645-10.765c1.11-.642 1.243-1.587.294-2.102z" stroke="#FF9B7E" stroke-width="5" stroke-linecap="round" stroke-linejoin="round" mask="url(#dl)"/>
            </g>
            <g transform="translate(7 2.13)">
                <mask id="dn" fill="#fff">
                    <use xlink:href="#dm"/>
                </mask>
                <path d="M57.963 45.678c-.95-.514-2.637-.41-3.748.23l-11.99 6.923c-1.111.642-1.242 1.587-.292 2.102.949.516 2.635.41 3.747-.231l11.99-6.921c1.11-.642 1.243-1.588.293-2.103z" stroke="#FF9B7E" stroke-width="5" stroke-linecap="round" stroke-linejoin="round" mask="url(#dn)"/>
            </g>
            <g transform="translate(7 2.13)">
                <mask id="dp" fill="#fff">
                    <use xlink:href="#do"/>
                </mask>
                <path d="M37.273 54.655c-2.477-1.341-6.466-1.305-8.865.081-2.4 1.385-2.337 3.616.14 4.957 2.476 1.341 6.465 1.305 8.865-.081 2.4-1.386 2.337-3.616-.14-4.957z" stroke="#FF9B7E" stroke-width="5" stroke-linecap="round" stroke-linejoin="round" mask="url(#dp)"/>
            </g>
            <g transform="translate(7 2.13)">
                <mask id="dr" fill="#fff">
                    <use xlink:href="#dq"/>
                </mask>
                <path d="M32.413 59.013c1.073.063 2.188-.13 2.992-.595.806-.465 1.116-1.093.967-1.69" stroke="#FF9B7E" stroke-width="5" stroke-linecap="round" stroke-linejoin="round" mask="url(#dr)"/>
            </g>
            <g transform="translate(7 2.13)">
                <mask id="dt" fill="#fff">
                    <use xlink:href="#ds"/>
                </mask>
                <path d="M30.824 57.423c-.314-.171-.821-.166-1.126.01-.305.176-.296.459.019.63.314.17.82.165 1.125-.011.304-.176.296-.46-.018-.63z" stroke="#FF9B7E" stroke-width="5" stroke-linecap="round" stroke-linejoin="round" mask="url(#dt)"/>
            </g>
            <g transform="translate(7 2.13)">
                <mask id="dv" fill="#fff">
                    <use xlink:href="#du"/>
                </mask>
                <path d="M34.482 55.305c-.314-.17-.82-.166-1.125.01-.305.176-.297.46.018.63.314.17.82.165 1.125-.01.304-.177.296-.46-.018-.63z" stroke="#FF9B7E" stroke-width="5" stroke-linecap="round" stroke-linejoin="round" mask="url(#dv)"/>
            </g>
            <g transform="translate(7 2.13)">
                <mask id="dx" fill="#fff">
                    <use xlink:href="#dw"/>
                </mask>
                <path d="M61.525 34.709c-1.45-.785-3.807-.753-5.236.072L20.43 55.484c-1.429.826-1.41 2.144.04 2.929l10.067 5.45c1.451.786 3.807.754 5.236-.071l35.86-20.703c1.43-.825 1.412-2.144-.04-2.93l-10.067-5.45z" fill="#FFF1EE" mask="url(#dx)"/>
            </g>
            <g transform="translate(7 2.13)">
                <mask id="dz" fill="#fff">
                    <use xlink:href="#dy"/>
                </mask>
                <path d="M61.525 34.709c-1.45-.785-3.807-.753-5.236.072L20.43 55.484c-1.429.826-1.41 2.144.04 2.929l10.067 5.45c1.451.786 3.807.754 5.236-.071l35.86-20.703c1.43-.825 1.412-2.144-.04-2.93l-10.067-5.45z" stroke="#FF9B7E" stroke-linecap="round" stroke-linejoin="round" mask="url(#dz)"/>
            </g>
            <g transform="translate(7 2.13)">
                <mask id="dB" fill="#fff">
                    <use xlink:href="#dA"/>
                </mask>
                <path d="M58.577 38.563c-.95-.514-2.637-.41-3.748.231L36.183 49.56c-1.111.642-1.243 1.587-.293 2.102.95.513 2.636.41 3.748-.232l18.645-10.765c1.11-.642 1.243-1.587.294-2.102" fill="#FFBCAA" mask="url(#dB)"/>
            </g>
            <g transform="translate(7 2.13)">
                <mask id="dD" fill="#fff">
                    <use xlink:href="#dC"/>
                </mask>
                <path d="M58.577 38.563c-.95-.514-2.637-.41-3.748.231L36.183 49.56c-1.111.642-1.243 1.587-.293 2.102.95.513 2.636.41 3.748-.232l18.645-10.765c1.11-.642 1.243-1.587.294-2.102z" stroke="#FF9B7E" stroke-linecap="round" stroke-linejoin="round" mask="url(#dD)"/>
            </g>
            <g transform="translate(7 2.13)">
                <mask id="dF" fill="#fff">
                    <use xlink:href="#dE"/>
                </mask>
                <path d="M57.963 45.678c-.95-.514-2.637-.41-3.748.23l-11.99 6.923c-1.111.642-1.242 1.587-.292 2.102.949.516 2.635.41 3.747-.231l11.99-6.921c1.11-.642 1.243-1.588.293-2.103" fill="#FFBCAA" mask="url(#dF)"/>
            </g>
            <g transform="translate(7 2.13)">
                <mask id="dH" fill="#fff">
                    <use xlink:href="#dG"/>
                </mask>
                <path d="M57.963 45.678c-.95-.514-2.637-.41-3.748.23l-11.99 6.923c-1.111.642-1.242 1.587-.292 2.102.949.516 2.635.41 3.747-.231l11.99-6.921c1.11-.642 1.243-1.588.293-2.103z" stroke="#FF9B7E" stroke-linecap="round" stroke-linejoin="round" mask="url(#dH)"/>
            </g>
            <g transform="translate(7 2.13)">
                <mask id="dJ" fill="#fff">
                    <use xlink:href="#dI"/>
                </mask>
                <path d="M37.273 54.655c-2.477-1.341-6.466-1.305-8.865.081-2.4 1.385-2.337 3.616.14 4.957 2.476 1.341 6.465 1.305 8.865-.081 2.4-1.386 2.337-3.616-.14-4.957" fill="#FFBCAA" mask="url(#dJ)"/>
            </g>
            <g transform="translate(7 2.13)">
                <mask id="dL" fill="#fff">
                    <use xlink:href="#dK"/>
                </mask>
                <path d="M37.273 54.655c-2.477-1.341-6.466-1.305-8.865.081-2.4 1.385-2.337 3.616.14 4.957 2.476 1.341 6.465 1.305 8.865-.081 2.4-1.386 2.337-3.616-.14-4.957z" stroke="#FF9B7E" stroke-linecap="round" stroke-linejoin="round" mask="url(#dL)"/>
            </g>
            <g transform="translate(7 2.13)">
                <mask id="dN" fill="#fff">
                    <use xlink:href="#dM"/>
                </mask>
                <path d="M32.413 59.013c1.073.063 2.188-.13 2.992-.595.806-.465 1.116-1.093.967-1.69" fill="#FFBCAA" mask="url(#dN)"/>
                <path d="M32.413 59.013c1.073.063 2.188-.13 2.992-.595.806-.465 1.116-1.093.967-1.69" stroke="#FF7A53" stroke-linecap="round" stroke-linejoin="round" mask="url(#dN)"/>
            </g>
            <g transform="translate(7 2.13)">
                <mask id="dP" fill="#fff">
                    <use xlink:href="#dO"/>
                </mask>
                <path d="M30.824 57.423c-.314-.171-.821-.166-1.126.01-.305.176-.296.459.019.63.314.17.82.165 1.125-.011.304-.176.296-.46-.018-.63" fill="#FF7A53" mask="url(#dP)"/>
            </g>
            <g transform="translate(7 2.13)">
                <mask id="dR" fill="#fff">
                    <use xlink:href="#dQ"/>
                </mask>
                <path d="M34.482 55.305c-.314-.17-.82-.166-1.125.01-.305.176-.297.46.018.63.314.17.82.165 1.125-.01.304-.177.296-.46-.018-.63" fill="#FF7A53" mask="url(#dR)"/>
            </g>
        </g>
        <path d="M77.69 37.5c0 19.33-15.67 35-35 35-19.329 0-35-15.67-35-35s15.671-35 35-35c19.33 0 35 15.67 35 35z" stroke="#33475C" stroke-linecap="round" stroke-linejoin="round"/>
    </g>
</svg>
