<svg xmlns="http://www.w3.org/2000/svg" viewBox="0 0 153 143" width="153" height="143">
    <defs>
        <style>
            .d,.h,.n,.v{fill-rule:evenodd}.b,.c,.e,.k,.o,.u,.w,.y{fill:none}.b,.u,.w{stroke:#516f90}.b,.c,.e,.k,.o,.u,.w,.y{stroke-linecap:round;stroke-linejoin:round}.b,.c{stroke-width:3.25px}.c,.e,.y{stroke:#33475c}.d{fill:#cbd6e3}.e,.k,.o{stroke-width:.65px}.h{fill:#415a77}.k{stroke:#425b76}.n{fill:#33475c}.o{stroke:#eaf0f6}.t{fill:#ff7a59}.u{stroke-width:1.55px}.v{fill:#fef8f0}.w,.y{stroke-width:.31px}
        </style>
    </defs>
    <path d="M77.57 52.78L152 95.72a2.16 2.16 0 0 1 0 3.73l-74.42 42.94a2.17 2.17 0 0 1-2.15 0L1.05 99.45a2.16 2.16 0 0 1 0-3.73l74.37-42.94a2.17 2.17 0 0 1 2.15 0z" fill-rule="evenodd" fill="#60d8f4" opacity=".64"/>
    <path class="b" d="M20.19 91.83a2.89 2.89 0 0 1-.81-2.17V59.85A4.94 4.94 0 0 1 21.6 56l7.59-4.38L39 46l9.82-5.66 7.59-4.38a1.51 1.51 0 0 1 1.59-.17l1.54 1-.95.54v31.29l-9.81 5.67L39 80l-9.81 5.67-8.27 4.77v1.92l-.43-.36z"/>
    <path class="b" d="M21.81 94.88a2 2 0 0 1-.89-1.54v-1l2.75-.63-.1 1.15 7.16-4.13L40.54 83l19.63-11.3L79.8 83l6.66 3.85v-.32h1.85v2.13a1.55 1.55 0 0 1-.92 1.34l-7.59 4.36L70 100l-9.82 5.67-7.59 4.38a4.89 4.89 0 0 1-4.44 0l-7.6-4.38-9.82-5.67z"/>
    <path class="b" d="M30.73 98l-9.81-5.67 9.81-5.67L40.54 81l19.63-11.35L79.8 81l7.59 4.38a1.36 1.36 0 0 1 0 2.57l-7.59 4.36L70 98l-9.82 5.66-7.6 4.34a5 5 0 0 1-4.44 0l-7.6-4.39L30.73 98"/>
    <path class="b" d="M50.36 75.31L40.54 81l-9.81 5.66-9.81 5.67V60.88A4.94 4.94 0 0 1 23.14 57l7.59-4.38L40.54 47l9.82-5.66L58 36.93c1.22-.7 2.22-.13 2.22 1.29v31.43l-9.81 5.66"/>
    <path class="c" d="M56.57 41c.74-.43 1.34-.08 1.34.77v24.84a2.94 2.94 0 0 1-1.34 2.31L24.51 87.43c-.73.42-1.33.08-1.33-.77V61.82a3 3 0 0 1 1.33-2.31zM52.6 97a1.14 1.14 0 0 1 0-2.17l11.72-6.77a4.17 4.17 0 0 1 3.77 0l6 3.49a1.15 1.15 0 0 1 0 2.18l-11.72 6.76a4.17 4.17 0 0 1-3.77 0z"/>
    <path class="c" d="M52.6 97a1.14 1.14 0 0 1 0-2.17l11.72-6.77a4.17 4.17 0 0 1 3.77 0l6 3.49a1.15 1.15 0 0 1 0 2.18l-11.72 6.76a4.17 4.17 0 0 1-3.77 0zM31.88 92.57a1.16 1.16 0 0 1 0-2.18l25.91-15a4.17 4.17 0 0 1 3.77 0l8.87 5.12a1.15 1.15 0 0 1 0 2.17l-25.91 15a4.19 4.19 0 0 1-3.78 0z"/>
    <path class="c" d="M31.88 92.57a1.16 1.16 0 0 1 0-2.18l25.91-15a4.17 4.17 0 0 1 3.77 0l8.87 5.12a1.15 1.15 0 0 1 0 2.17l-25.91 15a4.19 4.19 0 0 1-3.78 0zM26.17 89.28l4.56-2.64 9.81-5.66h.01l15.3-8.84 1.72 1-29.68 17.14-1.72-1z"/>
    <path class="d" d="M20.19 91.83a2.89 2.89 0 0 1-.81-2.17V59.85A4.94 4.94 0 0 1 21.6 56l7.59-4.38L39 46l9.82-5.66 7.59-4.38a1.51 1.51 0 0 1 1.59-.17l1.54 1-.95.54v31.29l-9.81 5.67L39 80l-9.81 5.67-8.27 4.77v1.92l-.43-.36z"/>
    <path class="e" d="M20.19 91.83a2.89 2.89 0 0 1-.81-2.17V59.85A4.94 4.94 0 0 1 21.6 56l7.59-4.38L39 46l9.82-5.66 7.59-4.38a1.51 1.51 0 0 1 1.59-.17l1.54 1-.95.54v31.29l-9.81 5.67L39 80l-9.81 5.67-8.27 4.77v1.92l-.43-.36z"/>
    <path class="d" d="M21.81 94.88a2 2 0 0 1-.89-1.54v-1l2.75-.63-.1 1.15 7.16-4.13L40.54 83l19.63-11.3L79.8 83l6.66 3.85v-.32h1.85v2.13a1.55 1.55 0 0 1-.92 1.34l-7.59 4.36L70 100l-9.82 5.67-7.59 4.38a4.89 4.89 0 0 1-4.44 0l-7.6-4.38-9.82-5.67z"/>
    <path class="e" d="M21.81 94.88a2 2 0 0 1-.89-1.54v-1l2.75-.63-.1 1.15 7.16-4.13L40.54 83l19.63-11.3L79.8 83l6.66 3.85v-.32h1.85v2.13a1.55 1.55 0 0 1-.92 1.34l-7.59 4.36L70 100l-9.82 5.67-7.59 4.38a4.89 4.89 0 0 1-4.44 0l-7.6-4.38-9.82-5.67z"/>
    <path d="M30.73 98l-9.81-5.67 9.81-5.67L40.54 81l19.63-11.35L79.8 81l7.59 4.38a1.36 1.36 0 0 1 0 2.57l-7.59 4.36L70 98l-9.82 5.66-7.6 4.34a5 5 0 0 1-4.44 0l-7.6-4.39L30.73 98" fill="#e4eaef" fill-rule="evenodd"/>
    <path class="e" d="M30.73 98l-9.81-5.67 9.81-5.67L40.54 81l19.63-11.35L79.8 81l7.59 4.38a1.36 1.36 0 0 1 0 2.57l-7.59 4.36L70 98l-9.82 5.66-7.6 4.34a5 5 0 0 1-4.44 0l-7.6-4.39L30.73 98"/>
    <path d="M50.36 75.31L40.54 81l-9.81 5.66-9.81 5.67V60.88A4.94 4.94 0 0 1 23.14 57l7.59-4.38L40.54 47l9.82-5.66L58 36.93c1.22-.7 2.22-.13 2.22 1.29v31.43l-9.81 5.66" fill="#99acc2" fill-rule="evenodd"/>
    <path class="e" d="M50.36 75.31L40.54 81l-9.81 5.66-9.81 5.67V60.88A4.94 4.94 0 0 1 23.14 57l7.59-4.38L40.54 47l9.82-5.66L58 36.93c1.22-.7 2.22-.13 2.22 1.29v31.43l-9.81 5.66"/>
    <path class="h" d="M56.57 41c.74-.43 1.34-.08 1.34.77v24.84a2.94 2.94 0 0 1-1.34 2.31L24.51 87.43c-.73.42-1.33.08-1.33-.77V61.82a3 3 0 0 1 1.33-2.31z"/>
    <path class="e" d="M56.57 41c.74-.43 1.34-.08 1.34.77v24.84a2.94 2.94 0 0 1-1.34 2.31L24.51 87.43c-.73.42-1.33.08-1.33-.77V61.82a3 3 0 0 1 1.33-2.31z"/>
    <path d="M52.6 97a1.14 1.14 0 0 1 0-2.17l11.72-6.77a4.17 4.17 0 0 1 3.77 0l6 3.49a1.15 1.15 0 0 1 0 2.18l-11.72 6.76a4.17 4.17 0 0 1-3.77 0z" fill="#eaf0f6" fill-rule="evenodd"/>
    <path d="M52.6 97a1.14 1.14 0 0 1 0-2.17l11.72-6.77a4.17 4.17 0 0 1 3.77 0l6 3.49a1.15 1.15 0 0 1 0 2.18l-11.72 6.76a4.17 4.17 0 0 1-3.77 0z" stroke-width=".65" stroke="#33475c" fill="none"/>
    <path class="d" d="M31.88 92.57a1.16 1.16 0 0 1 0-2.18l25.91-15a4.17 4.17 0 0 1 3.77 0l8.87 5.12a1.15 1.15 0 0 1 0 2.17l-25.91 15a4.19 4.19 0 0 1-3.78 0z"/>
    <path class="e" d="M31.88 92.57a1.16 1.16 0 0 1 0-2.18l25.91-15a4.17 4.17 0 0 1 3.77 0l8.87 5.12a1.15 1.15 0 0 1 0 2.17l-25.91 15a4.19 4.19 0 0 1-3.78 0z"/>
    <path class="h" d="M26.17 89.28l4.56-2.64 9.81-5.66h.01l15.3-8.84 1.72 1-29.68 17.14-1.72-1z"/>
    <path class="k" d="M26.17 89.28l4.56-2.64 9.81-5.66h.01l15.3-8.84 1.72 1-29.68 17.14-1.72-1z"/>
    <path d="M57 40.94c.49-.29.89 0 .89.51v26.39a2 2 0 0 1-.89 1.54l-32.95 19c-.49.28-.89 0-.89-.52V61.5a2 2 0 0 1 .91-1.5z" fill="#fff" fill-rule="evenodd"/>
    <path class="k" d="M57 40.94c.49-.29.89 0 .89.51v26.39a2 2 0 0 1-.89 1.54l-32.95 19c-.49.28-.89 0-.89-.52V61.5a2 2 0 0 1 .91-1.5z"/>
    <path d="M23.44 61.5a1.72 1.72 0 0 1 .76-1.32l33-19a.38.38 0 0 1 .37-.06.41.41 0 0 1 .13.35v14.67L23.44 75.89z" fill="#f4a092" fill-rule="evenodd"/>
    <path class="d" d="M24.07 60l33-19c.49-.28.89 0 .89.51v1.74L23.18 63.24V61.5a2 2 0 0 1 .89-1.5"/>
    <path class="k" d="M24.07 60l33-19c.49-.28.89 0 .89.51v1.74L23.18 63.24V61.5a2 2 0 0 1 .89-1.5z"/>
    <path class="n" d="M55.81 59.55l-12 6.88"/>
    <path class="o" d="M55.81 59.55l-12 6.88"/>
    <path class="n" d="M55.81 61l-7.6 4.39"/>
    <path class="o" d="M55.81 61l-7.6 4.39"/>
    <path class="n" d="M29.41 74.84l-4.53 2.59"/>
    <path class="o" d="M29.41 74.84l-4.53 2.59"/>
    <path class="n" d="M32.49 74.6L24.88 79"/>
    <path class="o" d="M32.49 74.6L24.88 79"/>
    <path class="n" d="M29.41 79.46l-4.53 2.59"/>
    <path class="o" d="M29.41 79.46l-4.53 2.59"/>
    <path class="n" d="M28.68 81.17l-3.8 2.18"/>
    <path class="o" d="M28.68 81.17l-3.8 2.18"/>
    <path class="n" d="M29.41 82.05l-4.53 2.6"/>
    <path class="o" d="M29.41 82.05l-4.53 2.6"/>
    <path class="n" d="M28.17 84.06l-3.29 1.88"/>
    <path class="o" d="M28.17 84.06l-3.29 1.88"/>
    <path d="M36.82 80.74v-6.21a1.06 1.06 0 0 1 .49-.84l18-10.4c.27-.16.49 0 .49.28v6.21z" fill="#e5f5f8" fill-rule="evenodd"/>
    <path d="M34.81 70.35v10.53" stroke="#e5f5f8" stroke-width=".32" stroke-linecap="round" stroke-linejoin="round" fill="none"/>
    <path class="k" d="M57 40.94c.49-.29.89 0 .89.51v26.39a2 2 0 0 1-.89 1.54l-32.95 19c-.49.28-.89 0-.89-.52V61.5a2 2 0 0 1 .91-1.5z"/>
    <path d="M41.43 56.42l-4.34 9.12c-.25.5 0 .83.45.58l8.66-4.92c.46-.26.72-.94.42-1.12l-4.31-4.2c-.23-.14-.67.12-.88.54z" stroke-miterlimit="10" stroke="#99acc2" stroke-width=".36" fill="#e4eaef" fill-rule="evenodd"/>
    <path d="M41.51 60.57l-.11-1.5v-.64a1 1 0 0 1 .14-.5 1.19 1.19 0 0 1 .38-.36c.19-.11.32-.12.38 0a.91.91 0 0 1 .1.51 3.64 3.64 0 0 1 0 .45l-.14 1.68a1.56 1.56 0 0 1-.1.49.57.57 0 0 1-.25.3c-.12.07-.2.06-.24 0a.89.89 0 0 1-.16-.43zm.36 1.93a.47.47 0 0 1-.35.07c-.1 0-.15-.12-.15-.28a.84.84 0 0 1 .14-.42 1.06 1.06 0 0 1 .36-.34.39.39 0 0 1 .35-.06.24.24 0 0 1 .15.26.75.75 0 0 1-.15.44 1.21 1.21 0 0 1-.35.33z" fill="#99acc2"/>
    <path class="t" d="M31.83 39.5a.41.41 0 0 1-.14.12.44.44 0 0 1-.59-.16l-5-9a.43.43 0 0 1 .75-.42l5 9a.45.45 0 0 1-.02.46zM27.9 43.25a.44.44 0 0 1-.47.16l-4.52-1.25a.43.43 0 0 1-.3-.53.42.42 0 0 1 .53-.3l4.52 1.26a.42.42 0 0 1 .3.53.31.31 0 0 1-.06.13zM21.14 41.37a.43.43 0 0 1-.46.17l-.68-.19a.43.43 0 0 1 .23-.82l.66.18a.43.43 0 0 1 .3.53.54.54 0 0 1-.05.13zM37.08 38.15a.42.42 0 0 1-.46.16.43.43 0 0 1-.3-.53l.41-1.47a.43.43 0 1 1 .83.23L37.15 38a.37.37 0 0 1-.07.15zM38.11 34.46a.45.45 0 0 1-.46.17.43.43 0 0 1-.3-.53l.92-3.32a.42.42 0 0 1 .53-.3.43.43 0 0 1 .3.53l-.93 3.32a.31.31 0 0 1-.06.13z"/>
    <path class="u" d="M82.07 108.14a2.15 2.15 0 0 1 .39-1.88.72.72 0 0 1 .54-.26h.09l18.91 3.92a.5.5 0 0 1 .31.08l2.57 1.88-3.12.63h-.19l-19-3.88c-.21 0-.38-.2-.48-.5z"/>
    <path class="u" d="M101.12 112.05a2.08 2.08 0 0 1 .38-1.83c.27-.3.56-.35.79-.19a5.84 5.84 0 0 1 2.57 1.88 16.49 16.49 0 0 1-1.73.51 6.07 6.07 0 0 1-1.38.12c-.27 0-.51-.12-.63-.49zm-19.05-3.91a2.15 2.15 0 0 1 .39-1.88.72.72 0 0 1 .54-.26h.09l6 1.26a.81.81 0 0 0-.48.28 2.18 2.18 0 0 0-.4 1.91.74.74 0 0 0 .33.44l-6.06-1.23c-.21 0-.38-.2-.48-.5z"/>
    <path class="u" d="M104 111.31a.22.22 0 0 1 .23-.1 3.69 3.69 0 0 1 .68.68s-.46.16-.88.27a.21.21 0 0 1-.16-.17.76.76 0 0 1 .13-.68z"/>
    <path class="v" d="M92.29 108.46a.79.79 0 0 0-.08-1.52l-7.38-1.54a.79.79 0 0 0-.32 1.55l7.37 1.54a.7.7 0 0 0 .41 0"/>
    <path class="w" d="M92.29 108.46a.79.79 0 0 0-.08-1.52l-7.38-1.54a.79.79 0 0 0-.32 1.55l7.37 1.54a.7.7 0 0 0 .41-.03z"/>
    <path d="M82.07 108.14a2.15 2.15 0 0 1 .39-1.88.72.72 0 0 1 .54-.26h.09l18.91 3.92a.5.5 0 0 1 .31.08l2.57 1.88-3.12.63h-.19l-19-3.88c-.21 0-.38-.2-.48-.5" fill="#98acc3" fill-rule="evenodd"/>
    <path class="y" d="M82.07 108.14a2.15 2.15 0 0 1 .39-1.88.72.72 0 0 1 .54-.26h.09l18.91 3.92a.5.5 0 0 1 .31.08l2.57 1.88-3.12.63h-.19l-19-3.88c-.21 0-.38-.2-.48-.5z"/>
    <path class="v" d="M101.12 112.05a2.08 2.08 0 0 1 .38-1.83c.27-.3.56-.35.79-.19a5.84 5.84 0 0 1 2.57 1.88 16.49 16.49 0 0 1-1.73.51 6.07 6.07 0 0 1-1.38.12c-.27 0-.51-.12-.63-.49"/>
    <path class="w" d="M101.12 112.05a2.08 2.08 0 0 1 .38-1.83c.27-.3.56-.35.79-.19a5.84 5.84 0 0 1 2.57 1.88 16.49 16.49 0 0 1-1.73.51 6.07 6.07 0 0 1-1.38.12c-.27 0-.51-.12-.63-.49z"/>
    <path d="M82.07 108.14a2.15 2.15 0 0 1 .39-1.88.72.72 0 0 1 .54-.26h.09l6 1.26a.81.81 0 0 0-.48.28 2.18 2.18 0 0 0-.4 1.91.74.74 0 0 0 .33.44l-6.06-1.23c-.21 0-.38-.2-.48-.5" fill="#ea907f" fill-rule="evenodd"/>
    <path class="y" d="M82.07 108.14a2.15 2.15 0 0 1 .39-1.88.72.72 0 0 1 .54-.26h.09l6 1.26a.81.81 0 0 0-.48.28 2.18 2.18 0 0 0-.4 1.91.74.74 0 0 0 .33.44l-6.06-1.23c-.21 0-.38-.2-.48-.5z"/>
    <path class="v" d="M104 111.31a.22.22 0 0 1 .23-.1 3.69 3.69 0 0 1 .68.68s-.46.16-.88.27a.21.21 0 0 1-.16-.17.76.76 0 0 1 .13-.68"/>
    <path class="w" d="M104 111.31a.22.22 0 0 1 .23-.1 3.69 3.69 0 0 1 .68.68s-.46.16-.88.27a.21.21 0 0 1-.16-.17.76.76 0 0 1 .13-.68z"/>
    <path d="M119.79 111.73a1.28 1.28 0 0 1-.64-.17l-26-15.14a1.29 1.29 0 0 1-.64-1.11v-1a1.14 1.14 0 0 1-.09-.55 1 1 0 0 1 .49-.78l18.39-11.39a1.08 1.08 0 0 1 .55-.15 1.1 1.1 0 0 1 .47.1c.94.38 21.09 8.5 25.67 9.08a1.47 1.47 0 0 1 1.12.69 1.11 1.11 0 0 1 .1 1c-.17.43-.64 1.19-2.71 3l2.49 1.4a1.07 1.07 0 0 1 .34 1.53v.37a1.25 1.25 0 0 1-.6 1.08l-18.28 11.86a1.32 1.32 0 0 1-.66.18z" stroke-width=".5" fill="#516f90" stroke-miterlimit="10" stroke="#516f90" fill-rule="evenodd"/>
    <path d="M93.29 94v1.32a.54.54 0 0 0 .27.46l26 15.14a.52.52 0 0 0 .55 0L138.36 99a.53.53 0 0 0 .25-.45v-.91l-18.38 11.7a.54.54 0 0 1-.55 0z" fill="#f5c26b" stroke-width=".5" stroke-miterlimit="10" stroke="#516f90" fill-rule="evenodd"/>
    <path d="M93.34 94.17l26.46 15.3a.29.29 0 0 0 .31 0l18.55-11.6a.3.3 0 0 0 0-.52L112 82.26a.29.29 0 0 0-.31 0L93.33 93.64a.31.31 0 0 0 .01.53z" fill="#efd0a3" stroke-width=".5" stroke-miterlimit="10" stroke="#516f90" fill-rule="evenodd"/>
    <path d="M93.34 94.17l26 11.72a.3.3 0 0 0 .32 0c3.62-1.55 17.92-11.4 18.89-13.85.09-.21-.11-.59-.61-.65-4.83-.61-25.9-9.13-25.9-9.13a.29.29 0 0 0-.31 0l-18.4 11.38a.31.31 0 0 0 .01.53z" fill="#fcf1e3" stroke-width=".5" stroke-miterlimit="10" stroke="#516f90" fill-rule="evenodd"/>
    <path d="M93.44 93.88l18.43-11.42 2.23.94L95.77 95l-2.3-1-.03-.12z" opacity=".33" fill="#f5c26b" fill-rule="evenodd"/>
    <path d="M104.39 9.3L75.67 54a3.62 3.62 0 0 0 3 5.66h57.25a3.62 3.62 0 0 0 2.79-5.93L110.19 9a3.63 3.63 0 0 0-5.8.3z" fill="#f5fbfc" stroke-width="2.43" stroke-miterlimit="10" stroke="#33475c" fill-rule="evenodd"/>
    <path d="M104.89 37.44l-.7-10.44c-.13-2-.19-3.5-.19-4.38a4 4 0 0 1 1-2.83 3.23 3.23 0 0 1 2.49-1 2.52 2.52 0 0 1 2.51 1.27 8.85 8.85 0 0 1 .64 3.75 29 29 0 0 1-.16 2.92l-.94 10.76a8.45 8.45 0 0 1-.65 2.94 1.71 1.71 0 0 1-1.66 1 1.64 1.64 0 0 1-1.63-1 9.62 9.62 0 0 1-.71-2.99zm2.42 14.36a3.45 3.45 0 0 1-2.32-.86 3 3 0 0 1-1-2.41 3.23 3.23 0 0 1 3.27-3.25 3.21 3.21 0 0 1 2.34.94 3.11 3.11 0 0 1 1 2.31 3.06 3.06 0 0 1-1 2.4 3.32 3.32 0 0 1-2.29.87z" fill="#253342"/>
</svg>
