
<svg xmlns="http://www.w3.org/2000/svg" viewBox="0 0 239 205" width="239" height="205">
    <defs>
        <style>
            .c,.e,.f,.g,.h,.j,.k,.l,.n,.o,.q,.u{fill-rule:evenodd}.b,.d,.t{fill:none;stroke-linecap:round;stroke-linejoin:round}.b,.d{stroke:#33475c}.b{stroke-width:5px}.c{fill:#f55257}.e{fill:#f5f8fa}.f{fill:#ba7251}.g{fill:#2c3e51}.h{fill:#f7d7ad}.j{fill:#d19780}.k{fill:#00a4bf}.l{fill:#506e91}.n{fill:#fff}.o{fill:#f6c364}.q{fill:#ff7a53}.t{stroke:#506e91}.u{fill:#7b97b7}
        </style>
    </defs>
    <path d="M235.28 155.23c-4.18-5.52-10.9-8.43-17.46-10.61s-13.44-3.94-19.07-8c-4.14-3-7.57-7.1-11.75-9.85h-7.12l-1.43-.53a80.64 80.64 0 0 1-24.45-6.79c-2.69-1.24-5.39-2.65-8.34-3a19.85 19.85 0 0 0-6 .5c-17.44 3.51-34 14-51.62 11.81-3.77-.47-7.46-1.53-11.25-1.67-8.91-.32-17.2 4.44-24.29 9.84s-13.7 11.68-21.85 15.29c-6.65 2.95-14.11 4-20.32 7.82S-.47 172 3 178.4a15.11 15.11 0 0 0 5.47 5.24c10.8 6.68 24.44 6.17 37.06 4.77s25.76-3.41 37.72.83c9.17 3.25 16.8 9.93 25.93 13.31a39.74 39.74 0 0 0 31.93-2.1c3.31-1.75 6.41-4 10-5 6.79-1.94 17.26 2.13 24.05 4a37 37 0 0 0 9.21 1.52c7.52.38 15.56-.41 21.53-5s9.11-12.43 15.71-16.05c4.23-2.33 9.52-2.68 13.16-5.85 5.21-4.55 4.64-13.33.46-18.84" fill-rule="evenodd" fill="#f9d28c" fill-opacity=".5"/>
    <path class="b" d="M189.31 168.3a7.9 7.9 0 0 1 .41 10.48 16.34 16.34 0 0 0-4 9.65 8.6 8.6 0 0 0 6.24 2.06 15.15 15.15 0 0 0 6.39-2 10.77 10.77 0 0 0 2.7-2c3.37-3.59 2.23-9.81 5.46-13.52a12.26 12.26 0 0 0 1.54-1.86 2.48 2.48 0 0 0-.78-2.15 62.18 62.18 0 0 0-9.81-9.65l-8.15 9z"/>
    <path class="b" d="M207.27 169c-.17-.21-.36-.41-.54-.63l-.11.08a12.46 12.46 0 0 0-2.91 2.45c-2.38 2.94-2.19 7.24-4.15 10.48a10.57 10.57 0 0 1-9.53 4.69 13.54 13.54 0 0 1-3.77-.78 16.07 16.07 0 0 0-.54 3.16 8.56 8.56 0 0 0 6.25 2 15 15 0 0 0 6.38-2 10.57 10.57 0 0 0 2.7-2c3.37-3.58 2.23-9.8 5.46-13.51a12.26 12.26 0 0 0 1.54-1.86 2.48 2.48 0 0 0-.78-2.15zm-18.87-60.26q-12.19 5.42-23.93 11.83a56.88 56.88 0 0 0-10.19 6.62 63.11 63.11 0 0 0-7.3 7.94l-12.54 15.32a3.7 3.7 0 0 0-1.06 2.07 3.45 3.45 0 0 0 .64 1.88 20.38 20.38 0 0 0 7.4 7.26 3.77 3.77 0 0 0 3.17.16 5.73 5.73 0 0 0 2.07-1.63q7.38-8 14.2-16.44a40.07 40.07 0 0 1 6.56-6c7.08-3.15 14.27-5.29 20.81-9.44 3.87-2.47 14-7.91 15.82-12.13a19.34 19.34 0 0 0 1.87-5.9 108.61 108.61 0 0 0 .41-11.79c0-5.17-.28-23-.28-23l9.8-10.32a42 42 0 0 0-3.78-3.29c-4.45-3-10-3.79-15.38-4.66l-7.88-.46q-6.41-.28-12.83-.14a17.32 17.32 0 0 0-4.71.57 17.93 17.93 0 0 0-5.51 3.29q-6.76 5.28-13.52 10.58l13.66 6.47 7-4.75s-.3 15-1.75 21.91c-1.53 10.35-.91 15.67-4.71 25.93-1.18 3.17-2.37 6.43-2.29 9.81a21.86 21.86 0 0 0 2 7.85c4.72 11.26 12.9 20.66 20.94 29.85.88 1 3.17 3.55 3.9 3.67s2.57-1.1 3.81-2c2-1.42 2.81-2.08 4.53-3.51.58-.48 2.84-2.11 3-2.83.25-.93-.84-2.12-1.41-2.89-5.65-7.51-8.5-11.16-12.78-16.89a39.37 39.37 0 0 1-4.74-7.12c-1.18-2.61-1.72-4.42.14-5.67"/>
    <path class="b" d="M196.69 57.26c5.33.87 10.93 1.62 15.38 4.66a43.65 43.65 0 0 1 3.78 3.29c3.88 3.52 14.28 11.5 17 16a3.31 3.31 0 0 1 .36 1.35c.06 1.54-1.06 2.85-2.11 4-4.52 4.83-10.15 8.94-15.61 12.64a10 10 0 0 1-1.43 5.18 6.41 6.41 0 0 1 1.23.26c.14 0 .3.13.33.27a.43.43 0 0 1-.17.37 22.24 22.24 0 0 1-5.43 4.26 1 1 0 0 1-.59.18 1 1 0 0 1-.43-.18c-1.06-.66-5.41-3.66-6.47-4.32a1.68 1.68 0 0 1-.53-.46 1.59 1.59 0 0 1-.14-.87l.12-3.12a2.27 2.27 0 0 1 .55-1.3 162.83 162.83 0 0 1 14.72-15.34c-3.77-2.64-7.65-5.66-11.24-8.54"/>
    <path class="b" d="M215.85 65.21a43.65 43.65 0 0 0-3.78-3.29c-4.45-3-10.06-3.79-15.38-4.66l-7.88-.46q-6.41-.28-12.83-.14a17.32 17.32 0 0 0-4.71.57 17.93 17.93 0 0 0-5.51 3.29q-6.76 5.24-13.52 10.54l13.66 6.47 7-4.75s-.3 15-1.75 21.91c-.27 1.8-.47 3.44-.64 5a62.83 62.83 0 0 0 35.76 3.43v-4.61c0-5.17-.28-23-.28-23"/>
    <path class="b" d="M148.64 103.87c0 .18 0 .36.05.54a94.18 94.18 0 0 1 1.79-24.62 12.13 12.13 0 0 1 1-3.29 105.58 105.58 0 0 1 11 6.52 185.9 185.9 0 0 0-15.85 16.63 2.33 2.33 0 0 0-.55 1.31l-.12 3.11a1.64 1.64 0 0 0 .14.88 1.54 1.54 0 0 0 .53.45l4.79 3a1.09 1.09 0 0 0 .43.18 1 1 0 0 0 .59-.18 22.43 22.43 0 0 0 5.43-4.26c.09-.1.2-.23.17-.37s-.19-.22-.34-.27a6.15 6.15 0 0 0-1.22-.26 9.9 9.9 0 0 0 1.44-5.18 89.64 89.64 0 0 0 14.73-13.23c1.05-1.12 2.16-2.43 2.1-4S173.4 78 172.2 77c-3.64-3.13-7.14-6.33-11-9.12a24.86 24.86 0 0 0-4.98-2.88 27.06 27.06 0 0 0-6.06-2c-1.78-.31-4-.57-4.68-2.24a26.28 26.28 0 0 1 2.24-10.05L135 49.18c.35 3.13-.82 8.35-2 11.29a3 3 0 0 1-2.33 1.44 11.79 11.79 0 0 1-2.84-.16c-4.23-.5-8.51.17-12.72.84-2.37.38-4.75.76-7.1 1.24a89.71 89.71 0 0 0-11.3 3l19 8.11 5.73.09c-.43 6.65-.77 12-2.26 18.46-.36 1.59-.79 3.17-1.21 4.75l-.55 2"/>
    <path class="b" d="M172.2 77c-3.64-3.13-7.14-6.33-11-9.12a24.86 24.86 0 0 0-4.98-2.88 32.55 32.55 0 0 0-4.09-1.56 32 32 0 0 1-16.46 1.81 19.2 19.2 0 0 1-8.93-3.59 50.61 50.61 0 0 0-11.63.93c-2.37.38-4.75.76-7.1 1.24a89.71 89.71 0 0 0-11.3 3l19 8.11 5.73.09c-.43 6.65-.77 12-2.26 18.46-.36 1.59-.79 3.17-1.21 4.75l-.55 2 28.58 3.33.1-2.61a2.33 2.33 0 0 1 .55-1.31l1.92-2.18a93.72 93.72 0 0 1 1.93-17.68 12.49 12.49 0 0 1 1-3.29 107.25 107.25 0 0 1 11 6.51 167.43 167.43 0 0 0-13.93 14.46c0 2.32 0 4.63.14 6.94l-.05-.54-2.66-.3v.5a1.59 1.59 0 0 0 .14.87 1.56 1.56 0 0 0 .53.46c1.06.66 3.73 2.36 4.79 3a1 1 0 0 0 .43.19 1 1 0 0 0 .59-.18 22.43 22.43 0 0 0 5.43-4.26c.09-.1.2-.23.17-.37s-.19-.22-.34-.27a6.15 6.15 0 0 0-1.22-.26 9.79 9.79 0 0 0 1.43-5.18 89.3 89.3 0 0 0 14.74-13.23c1.05-1.12 2.16-2.43 2.1-4S173.4 78 172.2 77zm-43.13 31.4c-11.15 5.4-23.41 9.25-32.49 17.67-2.93 2.72-5.45 5.86-8.33 8.63-1.36 1.31-2.91 2.63-4.38 3.82a13.48 13.48 0 0 1-5 2.53c-1.7.38-3.41-.42-5-1.08s-3.54-1.17-5-.27-2 3.18-1.3 4.89a9.26 9.26 0 0 0 3.63 4c3 2.07 6.49 3.55 9.15 6.08a8 8 0 0 0 2.18 1.73c1.65.71 3.61-.14 4.87-1.43a30.44 30.44 0 0 0 3-4.48 48.78 48.78 0 0 1 6.35-7c3.13-2.67 6.32-5.28 9.66-7.7a37.4 37.4 0 0 1 6.33-3.9 58.41 58.41 0 0 1 7.52-2.56c5.7-1.74 12.67-4.16 17.87-7.06a20.41 20.41 0 0 0 7.4-7.53"/>
    <path class="b" d="M138.6 106.42l-17.17-3-3.74-5.19c-1.71 6-3.3 11.71-4.94 17.56-5.85 2.77-11.44 5.91-16.17 10.3-2.93 2.72-5.45 5.86-8.33 8.63-1.36 1.31-2.91 2.63-4.38 3.82a13.48 13.48 0 0 1-5 2.53c-1.7.38-3.41-.42-5-1.08s-3.54-1.17-5-.27-2 3.18-1.3 4.89a9.26 9.26 0 0 0 3.63 4c3 2.07 6.49 3.55 9.15 6.08a8 8 0 0 0 2.18 1.73c1.65.71 3.62-.14 4.87-1.43a29.67 29.67 0 0 0 3-4.48 48.78 48.78 0 0 1 6.35-7c3.13-2.67 6.32-5.28 9.65-7.7 1-.73 2-1.44 3.07-2.1.56 4.27 2.47 8.35 4.51 12.2a165.26 165.26 0 0 0 10 16.47c2.13 3.1 4.06 7.21 2.22 10.48-.56 1-1.32 1.85-1.83 2.87a3.48 3.48 0 0 0-.16 3.25c.75 1.3 2.5 1.55 4 1.53 2.68 0 5.58-.6 7.34-2.63s1.88-4.63 2.17-7.15.87-5.27 2.91-6.78a2.91 2.91 0 0 0 .77-1.67c.46-2.43-2.14-4.18-4.09-5.7-4.78-3.71-7.24-9.66-8.85-15.49-1.27-4.59-2.1-9.47-1.09-14.1a74.82 74.82 0 0 0 10.76-4.7 20.48 20.48 0 0 0 7.4-7.53c2-3.42 2.84-8.27 3.2-12.76l-10.1 4.41z"/>
    <path class="b" d="M138.1 122.3a20.48 20.48 0 0 0 7.4-7.53c2-3.42 2.84-8.27 3.2-12.76-16.59.88-26.21-1.76-31-3.8-1.71 6-3.3 11.71-4.94 17.56-5.85 2.77-11.44 5.91-16.17 10.3-2.93 2.72-5.45 5.85-8.33 8.63-.46.45-1 .9-1.46 1.34a14.34 14.34 0 0 1 8.72 8.66l1.21-1.18c3.13-2.67 6.32-5.28 9.65-7.7 1-.73 2-1.44 3.07-2.1.56 4.27 2.47 8.35 4.51 12.2a165.1 165.1 0 0 0 9.36 15.52 20.06 20.06 0 0 1 5-5.32 20.29 20.29 0 0 1 5.65-2.85 34.77 34.77 0 0 1-5.56-12.17c-1.27-4.59-2.1-9.47-1.09-14.09a76 76 0 0 0 10.76-4.71z"/>
    <path class="b" d="M129.07 108.4c-11.15 5.4-23.41 9.25-32.49 17.67-2.93 2.72-5.45 5.86-8.33 8.63-.46.45-1 .9-1.46 1.34a14.34 14.34 0 0 1 8.72 8.66l1.21-1.18c3.13-2.67 6.32-5.28 9.66-7.7a37.4 37.4 0 0 1 6.33-3.9 58.41 58.41 0 0 1 7.52-2.56c5.7-1.74 12.67-4.16 17.87-7.06a20.48 20.48 0 0 0 7.4-7.53M87.37 155a10.85 10.85 0 0 0 1.11-1.42c-.25-.19-.5-.36-.76-.53q-6.16-4.25-12.72-7.92a4 4 0 0 1-1.68-1.39 2.46 2.46 0 0 1 1.27-3.24 1.82 1.82 0 0 1 .3-.11l-1-.42c-1.61-.66-3.54-1.17-5-.27s-2 3.18-1.3 4.89a9.26 9.26 0 0 0 3.63 4c3 2.07 6.49 3.55 9.15 6.08a8 8 0 0 0 2.18 1.73c1.65.71 3.62-.14 4.87-1.43zm48.15 22.9c1.66-1.91 1.88-4.63 2.18-7.15s.87-5.27 2.9-6.78a2.91 2.91 0 0 0 .77-1.67c.38-2-1.32-3.55-3-4.88a16.34 16.34 0 0 0-4.31 6.2c-.75 2-.86 4.16-1.43 6.2s-1.8 4.12-3.83 4.77a1.78 1.78 0 0 1-2.5-1.91c0 .07-.06.14-.1.2-.56 1-1.32 1.85-1.83 2.87a3.48 3.48 0 0 0-.16 3.25c.75 1.3 2.5 1.55 4 1.53 2.68 0 5.58-.6 7.34-2.63zm-1.58-128a14.18 14.18 0 0 1 .15 6.76 20.46 20.46 0 0 1-.78 2.78 6.27 6.27 0 0 1-3.43-.12 8.49 8.49 0 0 1-1.88-1.11c-1.65-1.17-3.58-2.23-5.58-1.94-.19 0-.42.06-.53-.09a.51.51 0 0 1-.08-.32c0-3.1 2.51-5.53 4-8.22a14.62 14.62 0 0 0 1.83-8.24c-.12-1.67-.54-3.3-.54-5a11.94 11.94 0 0 1 6.43-10.09A17.64 17.64 0 0 1 145.78 23a11.58 11.58 0 0 1 3.83 1.51 41.39 41.39 0 0 1-2.77 9.31 3.06 3.06 0 0 1-2.28-.07 19 19 0 0 0-7.13-.91 8 8 0 0 0-6 3.5l2.55 13.55z"/>
    <path class="b" d="M132.67 33.58a16.85 16.85 0 0 0-1.87 10.27c.54 4.26 2.92 8.63 7 10a10.15 10.15 0 0 0 8.88-1.43 16.32 16.32 0 0 0 5.63-7.29c6.1-14.48-10.99-26.94-19.64-11.55z"/>
    <path class="b" d="M142.45 49.62a4.05 4.05 0 0 1-3.1.76 3.24 3.24 0 0 1-2.76-1.87m2.81-8.72a19.81 19.81 0 0 1-1 3.88 3.67 3.67 0 0 0-.35 1.71c.08.58.59 1.15 1.17 1m0-10.59a3.28 3.28 0 0 0-3.49-1.59 9 9 0 0 0-3.63 1.8m11.83 1.28a1.94 1.94 0 0 1 .81-.5 5.59 5.59 0 0 1 6.41 1.92m-17.09.78s.66 4.31 3.22.52m6.38.75s.45 4.33 3.19.68"/>
    <path class="b" d="M144.6 62.56c-.2-5.73 2.72-11.31 4.23-16.84a22.36 22.36 0 0 0 1-5.83 10.54 10.54 0 0 0-2.55-6.08 35.89 35.89 0 0 1 3.1-8.13.79.79 0 0 1 .29-.36.84.84 0 0 1 .71 0 12.6 12.6 0 0 1 6.47 6.56 20.64 20.64 0 0 1 1.15 8.36 33.08 33.08 0 0 0 0 5.63 47.78 47.78 0 0 0 1.35 5.49 9.82 9.82 0 0 1 .07 5.58c-2.4-.29-4.73.84-6.8 2.09a35.29 35.29 0 0 1-9 3.53zm-11-38.22A17.64 17.64 0 0 1 145.78 23a11.58 11.58 0 0 1 3.83 1.51 41.39 41.39 0 0 1-2.77 9.31 3.06 3.06 0 0 1-2.28-.07 18.83 18.83 0 0 0-7.13-.9 8 8 0 0 0-6 3.48M161 82l1.47 1a188.76 188.76 0 0 0-15.85 16.64 2.33 2.33 0 0 0-.55 1.31c0 1-.07 2.07-.12 3.11a1.59 1.59 0 0 0 .14.87 1.46 1.46 0 0 0 .53.46l4.79 3a1.09 1.09 0 0 0 .43.18 1 1 0 0 0 .59-.18 22.43 22.43 0 0 0 5.43-4.26c.09-.1.2-.23.17-.37s-.19-.22-.34-.27a6.15 6.15 0 0 0-1.22-.26 9.79 9.79 0 0 0 1.43-5.18 89.3 89.3 0 0 0 14.74-13.23c1.05-1.12 2.16-2.43 2.1-4S173.4 78 172.2 77l-1.21-1a17.12 17.12 0 0 0-7.26 2.91A10.22 10.22 0 0 0 161 82zm-91.26 19.83c-11.95 3.24-24.71 4.75-35.19 11.35-3.39 2.13-6.44 4.74-9.79 6.94-1.57 1-3.35 2-5 2.94a13.38 13.38 0 0 1-5.35 1.56c-1.74.07-3.28-1-4.74-2s-3.27-1.8-4.9-1.19-2.53 2.77-2.2 4.57a9.29 9.29 0 0 0 2.83 4.62c2.59 2.6 5.72 4.69 7.87 7.67a8 8 0 0 0 1.81 2.1c1.5 1 3.59.54 5-.5a29.36 29.36 0 0 0 3.84-3.89 48.31 48.31 0 0 1 7.53-5.69c3.58-2 7.19-4 10.91-5.78a38 38 0 0 1 7-2.66 60.88 60.88 0 0 1 7.87-1.13c5.87-.61 13.17-1.74 18.77-3.59a20.31 20.31 0 0 0 8.67-6c3.59-4.12 5.5-11.3 6.63-16.64.76-8.84 3.53-16.06 7.48-24 3.59 2.88 3.94 2.91 7.71 5.55a186 186 0 0 0-15.81 16.63 2.33 2.33 0 0 0-.55 1.31L90 97.11a1.59 1.59 0 0 0 .14.87 1.56 1.56 0 0 0 .53.46c1.06.66 3.73 2.36 4.78 3a1.09 1.09 0 0 0 .43.19 1 1 0 0 0 .6-.19 21.91 21.91 0 0 0 5.42-4.25.43.43 0 0 0 .17-.37c0-.15-.19-.22-.33-.27a6.33 6.33 0 0 0-1.22-.27 10 10 0 0 0 1.48-5.19 89.24 89.24 0 0 0 14.74-13.22c1-1.12 2.16-2.43 2.1-4s-1.34-2.83-2.55-3.86q-5.44-4.69-11.3-8.9a24.4 24.4 0 0 0-4.78-2.86c-2.7-1.11-5.56-.81-7.59-2.91a8.86 8.86 0 0 1-.42-5.71 26.53 26.53 0 0 1 2.1-5.43l-10.48.2A13.33 13.33 0 0 1 81 53.89a64.08 64.08 0 0 0-10.46.32c-1.41.17-2.67.18-4.25.24-1.81.07-2.72 0-4.28.17a143.15 143.15 0 0 1 5.48-18 9.64 9.64 0 0 0 .75-3 5.67 5.67 0 0 0-.24-1.68 15.58 15.58 0 0 0-1.1-3.74 14.11 14.11 0 0 0-2.19-3.67 14.64 14.64 0 0 0-1.15-1.45 8.23 8.23 0 0 0-2.47-1.83 5.43 5.43 0 0 0-2.33-.59 3.2 3.2 0 0 0-2.21.85 4 4 0 0 0-.94 1.78 12.6 12.6 0 0 0 .49 7.53 11.5 11.5 0 0 0 .68 1.47 7.41 7.41 0 0 0 1.57 1.9 6.55 6.55 0 0 0 2.81 1.31c-3.42 8.13-9.5 15.21-11.26 23.86a5.38 5.38 0 0 0-.11 2.22 4.13 4.13 0 0 0 2.45 2.74 11.43 11.43 0 0 0 3.72.77 129 129 0 0 0 13.48.52 59.93 59.93 0 0 1-1.16 6.06 36.48 36.48 0 0 1-5.22 13.65 34.21 34.21 0 0 0-2.57 4.24c-3.8 7.6-7.29 14.74-11.08 22.33a34.68 34.68 0 0 0-3.33 8.43c-1.06 5.17.28 10.51 1.85 15.55a166.72 166.72 0 0 0 6.78 18c1.52 3.44 2.66 7.83.24 10.71-.73.87-1.64 1.57-2.33 2.47a3.48 3.48 0 0 0-.76 3.17c.5 1.41 2.17 2 3.64 2.25 2.64.46 5.61.44 7.71-1.23s2.71-4.2 3.46-6.62 1.83-5 4.11-6.13a3 3 0 0 0 1.06-1.5c.91-2.3-1.32-4.5-3-6.36-4-4.53-5.33-10.83-5.83-16.86-.42-5.06-.33-10.35 1.9-14.91"/>
    <path class="b" d="M88.38 6.22a3.76 3.76 0 0 0-2.73-1.94 11.5 11.5 0 0 0-12.08 4.6c-.9 1.35-1.45 3.3-.36 4.5A4.2 4.2 0 0 0 68.33 15c-.89 1.63.25 4.13 2.1 4.12-1.76.25-2.73 2.18-3.22 3.9a11.23 11.23 0 0 0-.53 3.89 7.31 7.31 0 0 0 5.41 6.37 2.56 2.56 0 0 0 1.23 4.83 6.29 6.29 0 0 0 2.47 6.78 8.65 8.65 0 0 0 7.38 1 10.16 10.16 0 0 1 1.83-.46 9 9 0 0 1 1.47 0 19.5 19.5 0 0 0 5.7-.48 10.86 10.86 0 0 0 4 2.74 7.87 7.87 0 0 0 5.55.2 5.14 5.14 0 0 0 3.38-4.2 2 2 0 1 0 2.9-2.52c.64.54 1.62.14 2.34-.29a17 17 0 0 0 5.29-4.73 8.92 8.92 0 0 0 1.54-6.78 6.13 6.13 0 0 0-4.74-4.78c1.34.16 3-.74 2.78-2.06a1.9 1.9 0 0 0-1.49-1.35 5.56 5.56 0 0 0-2.11.06 6.78 6.78 0 0 0 2.68-4 8.75 8.75 0 0 0-2.91-9.17c-2.73-2-7-1.76-9.22.86a3.69 3.69 0 0 0 .23-3.78 5 5 0 0 0-3-2.43 5.81 5.81 0 0 0-6.72 2.92c.32-1.05.06-1.82-1.1-2C90 3.32 88.92 5 88.38 6.22z"/>
    <path class="b" d="M80.89 26.55a16.71 16.71 0 0 0-2.24 10.19C79 41 81.25 45.47 85.25 47a10.22 10.22 0 0 0 8.94-1.11 16.37 16.37 0 0 0 5.88-7.09c6.64-14.26-9.98-27.33-19.18-12.25z"/>
    <path class="b" d="M84.28 32.45a.34.34 0 0 0-.39 0 .8.8 0 0 0-.2.36 2.9 2.9 0 0 0-.14.65.81.81 0 0 0 .23.77.58.58 0 0 0 .62 0 1.05 1.05 0 0 0 .44-.49 3.51 3.51 0 0 0 .3-1.44.78.78 0 0 0-.17-.63.52.52 0 0 0-.55-.07 1 1 0 0 0-.43.39 3.49 3.49 0 0 0-.47 1.26 1.47 1.47 0 0 0 0 .55.53.53 0 0 0 .3.43c.26.11.56-.1.72-.34a3 3 0 0 0 .4-1.43c0-.2 0-.44-.17-.55a.37.37 0 0 0-.41.06.84.84 0 0 0-.25.36 3.72 3.72 0 0 0-.28 1.09.73.73 0 0 0 .12.58h.08c.08 0 .1-.06.13-.11a4.69 4.69 0 0 0 .48-1.36c0-.11 0-.26-.1-.28a2.21 2.21 0 0 0-.3 1.25c-.07 0 0-.18 0-.18m9.23.89a.31.31 0 0 0-.38.09.73.73 0 0 0-.17.38 3.68 3.68 0 0 0-.06.66.82.82 0 0 0 .3.74.62.62 0 0 0 .63 0 1.16 1.16 0 0 0 .38-.54 3.42 3.42 0 0 0 .14-1.46.76.76 0 0 0-.23-.61.54.54 0 0 0-.56 0 1.15 1.15 0 0 0-.39.43 3.77 3.77 0 0 0-.33 1.32 1.4 1.4 0 0 0 0 .54.54.54 0 0 0 .34.4c.28.08.55-.16.69-.42a3 3 0 0 0 .24-1.46c0-.2 0-.44-.22-.53a.4.4 0 0 0-.41.1.91.91 0 0 0-.2.39 3.52 3.52 0 0 0-.17 1.11.73.73 0 0 0 .18.56.08.08 0 0 0 .09 0c.06 0 .09-.06.11-.12a4.48 4.48 0 0 0 .34-1.41c0-.1 0-.25-.13-.26a2.17 2.17 0 0 0-.16 1.28.11.11 0 0 1 0-.19m-8.8 5.77a16.2 16.2 0 0 0 6.48.73s-.73 3.58-3.74 3.32-2.74-4-2.74-4zM87.38 33a19 19 0 0 1-1.09 3.85 3.75 3.75 0 0 0-.4 1.69A1.15 1.15 0 0 0 87 39.63M87.38 29A3.25 3.25 0 0 0 84 27.33 8.83 8.83 0 0 0 80.23 29M92 30.68a2.1 2.1 0 0 1 .82-.47 5.62 5.62 0 0 1 6.35 2.15"/>
    <path class="b" d="M101.19 35.54c3-12.86-11.82-22.89-20.3-9A15.5 15.5 0 0 0 79 31.21a11.8 11.8 0 0 1 22.17 4.33z"/>
    <path class="b" d="M89.93 19.88l-.18.09a1 1 0 0 0-.28.39 8.09 8.09 0 0 0-.84 2.94 1.56 1.56 0 0 0 .42 1.45 1.47 1.47 0 0 0 .49.19 11.29 11.29 0 0 1 2 .17 10.53 10.53 0 0 1 2.14.63 1.14 1.14 0 0 0 .23-.3A17.9 17.9 0 0 0 95.19 22a1.94 1.94 0 0 0 .07-1 9.13 9.13 0 0 0-5.33-1.09z"/>
    <path class="b" d="M88.63 23.3a8.15 8.15 0 0 1 .84-2.94 1 1 0 0 1 .28-.39l.18-.09h.13a40 40 0 0 0-3.83-4 .6.6 0 0 0-1 .11A18.86 18.86 0 0 0 81.82 22a12.62 12.62 0 0 0 7.25 2.72 1.56 1.56 0 0 1-.44-1.42zm12.28-3.23a.81.81 0 0 0-.31-.57.93.93 0 0 0-.7 0 33.36 33.36 0 0 0-4.67 1.5 2.19 2.19 0 0 1-.07 1 18.61 18.61 0 0 1-1.28 3.48 1.24 1.24 0 0 1-.14.18 6.18 6.18 0 0 0 1.48.24l2.12.15a2.55 2.55 0 0 0 2-.43 2.53 2.53 0 0 0 .46-.75c.69-1.51 1.39-3.14 1-4.76zm-35.15 7.46a18.59 18.59 0 0 0-3.12-1.8 6 6 0 0 0-1.19-.43.19.19 0 0 0-.18 0 .23.23 0 0 0-.08.11 4 4 0 0 0 1.05 4.34 9.27 9.27 0 0 1 1.59 1.33m5.91 70.74c-11.95 3.24-24.71 4.75-35.19 11.35-3.39 2.13-6.44 4.74-9.79 6.94-1.57 1-3.35 2-5 2.94a13.38 13.38 0 0 1-5.35 1.56c-1.74.07-3.28-1-4.74-2s-3.27-1.8-4.9-1.19-2.53 2.78-2.2 4.58a9.29 9.29 0 0 0 2.83 4.62c2.59 2.6 5.72 4.69 7.87 7.67a8 8 0 0 0 1.81 2.1c1.5 1 3.59.54 5-.5a29.36 29.36 0 0 0 3.84-3.89 48.31 48.31 0 0 1 7.53-5.69c3.58-2 7.19-4 10.91-5.78a38 38 0 0 1 7-2.66 60.88 60.88 0 0 1 7.87-1.13c5.87-.61 13.17-1.74 18.77-3.59a20.31 20.31 0 0 0 8.67-6"/>
    <path class="b" d="M76 117.15a20.31 20.31 0 0 0 8.67-6c2.61-3 4.33-7.6 5.51-11.95-16.43-2.2-25.39-6.6-29.74-9.49-2.78 5.57-5.4 10.9-8.1 16.34-6.26 1.64-12.33 3.69-17.79 7.13-3.39 2.13-6.44 4.74-9.79 6.94-.54.35-1.1.7-1.68 1a14.4 14.4 0 0 1 7 10.13l1.4-.94c3.58-2 7.19-4 10.91-5.78 1.12-.53 2.25-1 3.41-1.5-.24 4.31.88 8.67 2.17 12.83a168 168 0 0 0 6.33 17 19.84 19.84 0 0 1 12-6 34.66 34.66 0 0 1-3.22-13c-.39-4.75-.31-9.69 1.54-14A74.37 74.37 0 0 0 76 117.15zm16.27-17.71l3.19 2a1.09 1.09 0 0 0 .43.19 1 1 0 0 0 .6-.19 22.07 22.07 0 0 0 2.16-1.39c-2.24-.16-4.36-.37-6.38-.61z"/>
    <path class="b" d="M69.74 101.83c-11.95 3.24-24.71 4.75-35.19 11.35-3.39 2.13-6.44 4.74-9.79 6.94-.54.35-1.1.7-1.68 1a14.4 14.4 0 0 1 7 10.13l1.4-.94c3.58-2 7.19-4 10.91-5.78a38 38 0 0 1 7-2.66 61.13 61.13 0 0 1 7.87-1.13c5.84-.61 13.14-1.74 18.74-3.59a20.31 20.31 0 0 0 8.67-6m7-19.59c1.07-7.53 3.64-14 7.14-21 3.59 2.88 3.94 2.91 7.71 5.55-1 .9-1.94 1.79-2.86 2.67.38 0 .75.08 1.12.15a8.87 8.87 0 0 1 5 2.67 6.67 6.67 0 0 1 1.22 2.02c1.94-1.86 3.82-3.79 5.65-5.75 1-1.13 2.16-2.44 2.1-4s-1.34-2.83-2.55-3.87q-5.44-4.69-11.3-8.89a24.4 24.4 0 0 0-4.78-2.86c-2.57-1.06-5.27-.86-7.27-2.64a18.81 18.81 0 0 1-6.85.49 11.1 11.1 0 0 1-2.5-.51 7.27 7.27 0 0 1-2.65-1.72 64 64 0 0 0-10.36.32c-1.41.17-2.67.19-4.25.24-1.81.06-2.72 0-4.28.17.31-1.38.65-2.71 1-4a14 14 0 0 1-9.67-.37 35.8 35.8 0 0 0-3.41 9.15 5.38 5.38 0 0 0-.11 2.22 4.13 4.13 0 0 0 2.45 2.74 11.43 11.43 0 0 0 3.72.77 131.83 131.83 0 0 0 13.48.52 59.93 59.93 0 0 1-1.16 6.06 36.46 36.46 0 0 1-5.21 13.65 34.17 34.17 0 0 0-2.58 4.24l-.06.12c4.38 2.9 13.34 7.3 29.81 9.48.08-.3.16-.6.23-.9z"/>
    <path class="b" d="M57.27 89.32a15.33 15.33 0 0 1-9-9.73 4.16 4.16 0 0 1-.21-1.88 4.21 4.21 0 0 1 .75-1.55c3.82-5.57 10.22-8.73 15-13.44a61.56 61.56 0 0 0 7-8.68s5.82-1.5 9.89-.35a20.59 20.59 0 0 1-5.62 9c-2.51 2.55-5.34 4.76-7.82 7.33a42.68 42.68 0 0 0-9.99 19.3zm33.43 2.9a119.38 119.38 0 0 0 2.7-32.92 11.71 11.71 0 0 0-.69-3.86 13 13 0 0 1 8.79 2.44 2.25 2.25 0 0 1 .79.89 2.51 2.51 0 0 1 .12.82c.13 4-2.55 8.31-2.09 12.42.19 1.7 3 3.36 3.48 5 1.57 5.41 4.7 10.62 4.2 16.23a1.16 1.16 0 0 1-.14.53 1.14 1.14 0 0 1-.6.4 47.92 47.92 0 0 1-16.56 3.25 13.72 13.72 0 0 1-.19-4.24l.19-1z"/>
    <path class="b" d="M104.79 78.87c-.37-.07-.75-.11-1.12-.15-4.65 4.47-8.55 8.9-13 14a2.26 2.26 0 0 0-.54 1.28L90 97.11a1.5 1.5 0 0 0 .14.87 1.58 1.58 0 0 0 .53.46c1 .66 3.73 2.36 4.78 3a1.09 1.09 0 0 0 .43.19 1 1 0 0 0 .6-.19 22.33 22.33 0 0 0 5.43-4.25c.09-.11.2-.23.17-.37s-.19-.22-.34-.27a5.66 5.66 0 0 0-1.22-.27 10 10 0 0 0 1.48-5.19 70.49 70.49 0 0 0 9-7.47 6.67 6.67 0 0 0-1.25-2.08 8.87 8.87 0 0 0-5-2.67zm-36.5-7.17c.22-1.13.49-2.22.72-3.32-.56.53-1.12 1.07-1.66 1.62a41.8 41.8 0 0 0-8.92 15.28 7.54 7.54 0 0 1 4.58.17l.06-.1a36.31 36.31 0 0 0 5.22-13.65zm-48.15 68.19a10.18 10.18 0 0 0 1.35-1.19c-.21-.23-.42-.45-.64-.67q-5.28-5.31-11-10.12a4 4 0 0 1-1.39-1.67 2.46 2.46 0 0 1 1.84-3h.32l-.93-.6c-1.47-.95-3.27-1.81-4.9-1.19S2.24 124.2 2.57 126a9.33 9.33 0 0 0 2.83 4.62c2.59 2.6 5.72 4.69 7.87 7.67a7.82 7.82 0 0 0 1.82 2.1c1.49 1 3.58.54 5.05-.5zm43.08 31.42c2-1.58 2.71-4.21 3.46-6.62s1.83-5 4.11-6.13a3 3 0 0 0 1.06-1.5c.75-1.9-.64-3.73-2.07-5.35a16.4 16.4 0 0 0-5.39 5.29c-1.1 1.82-1.61 3.93-2.55 5.84s-2.53 3.72-4.64 4a2.09 2.09 0 0 1-1.41-.24 2.06 2.06 0 0 1-.7-2.11 2.14 2.14 0 0 1-.13.19c-.73.86-1.64 1.57-2.33 2.47a3.48 3.48 0 0 0-.76 3.17c.5 1.41 2.17 2 3.64 2.25 2.64.43 5.61.43 7.71-1.26z"/>
    <path class="b" d="M100.29 71.66a30.11 30.11 0 0 0-4.81 4.7 4.77 4.77 0 0 0-1.27 2.17c-.28 1.55.88 3 2 4.06A83.12 83.12 0 0 0 111 93.43c.22 2 .66 6 1.54 7.94a5.43 5.43 0 0 0 .57.92 2.06 2.06 0 0 0 1.74.58 12.41 12.41 0 0 0 6-2.08 5 5 0 0 0 1.29-1.34 4.13 4.13 0 0 0-.42-4.19A51.1 51.1 0 0 0 117 90c-1.12-1.12-1-.69-1.85-2.06a98.06 98.06 0 0 0-8.59-11.87zM205.76 28.6a14.09 14.09 0 0 0-2.39-6 10 10 0 0 0-5.21-3.44c-1.25-.33-1.85-.47-2.88-.65a9.2 9.2 0 0 0-3.84.4 11.06 11.06 0 0 0-2.47 1 11.14 11.14 0 0 0-4.57 4.8 22.51 22.51 0 0 0-1.47 3.1c-1.37 3.72-1.1 7.86-.22 11.73a16.36 16.36 0 0 0 1.7 4.69 24.41 24.41 0 0 1 1.15 7.44c0 .26-.42 3.45-.45 3.72a6.14 6.14 0 0 0 0 2 4.48 4.48 0 0 0 1 1.78 8.26 8.26 0 0 0 10.34 1.67 4.12 4.12 0 0 0 1.84-2.05 36.31 36.31 0 0 0 .58-5c.31-6.23 2.88-7.89 2.88-7.89a13.92 13.92 0 0 0 1.11-1.81 24.61 24.61 0 0 0 2.9-15.46z"/>
    <path class="b" d="M182.45 29.4c-.15-4-.68-9.59.23-10.43 1.57-1.43 9.67-1.3 12.66-.92l1.32.18c3 .38 10.85 2.33 12 4.12s-3 14.46-3 14.46c-.06.19-.24.8-.32 1.08a15.46 15.46 0 0 0-3.09 2.29c-.81-.89.77-2.22-3.33 1.14.24-1.28 1.94-8.14 2.18-9.43a48.91 48.91 0 0 1-18.64-2.49zm26.21-7s3.25 5.16-23.53-1.58m13.49 26.17c-2 3.54-7.07 4.08-11.09 3.38a5.5 5.5 0 0 1-2.89-1.37 6.72 6.72 0 0 1-1.55-2.77 30.71 30.71 0 0 1-.9-15.64"/>
    <path class="b" d="M199.78 44.58a2.22 2.22 0 0 0 1.4 1.42 2.75 2.75 0 0 0 1.07 0 4.87 4.87 0 0 0 2.52-1.68 7.27 7.27 0 0 0 2-4.42A2.12 2.12 0 0 0 206 38a2 2 0 0 0-1.31-.23 2.91 2.91 0 0 0-.59.1 5.79 5.79 0 0 0-2.75 1.62M185 35.16a.17.17 0 0 0-.18-.19.27.27 0 0 0-.24.17.66.66 0 0 0-.06.31v.68a2.53 2.53 0 0 0 .12.77.89.89 0 0 0 .54.53.22.22 0 0 0 .11 0c.09 0 .12-.12.14-.21a3.41 3.41 0 0 0 .12-2 .82.82 0 0 0-.2-.35.41.41 0 0 0-.38-.1.56.56 0 0 0-.31.39 2.46 2.46 0 0 0 .29 2.17c.07.11.19.21.3.15a.27.27 0 0 0 .09-.12 2.53 2.53 0 0 0 0-2c-.07-.18-.21-.38-.4-.36s-.29.24-.34.43a2.79 2.79 0 0 0 .25 1.84.68.68 0 0 0 .18.23.24.24 0 0 0 .26 0 .38.38 0 0 0 .13-.21 3.13 3.13 0 0 0-.24-2.38c-.19.05-.28.26-.32.45a2.74 2.74 0 0 0 .12 1.65.59.59 0 0 0 .18.28.24.24 0 0 0 .31 0 .33.33 0 0 0 .05-.15 2.59 2.59 0 0 0-.12-1.17.49.49 0 0 0-.3-.35 2.81 2.81 0 0 0 0 1.32.71.71 0 0 0 .12-.67l-.11.21m8.68 0a.18.18 0 0 0-.17-.21.29.29 0 0 0-.26.15.79.79 0 0 0-.08.3c0 .22-.06.45-.08.67a2 2 0 0 0 .05.78.85.85 0 0 0 .48.58.14.14 0 0 0 .11 0c.09 0 .13-.11.16-.19a3.5 3.5 0 0 0 .31-2 .91.91 0 0 0-.18-.37.38.38 0 0 0-.36-.13c-.17 0-.28.2-.35.35a2.48 2.48 0 0 0 .08 2.19c.06.11.18.23.29.18a.36.36 0 0 0 .1-.11 2.52 2.52 0 0 0 .24-2c-.05-.19-.17-.39-.36-.4s-.32.21-.38.4a2.83 2.83 0 0 0 .07 1.86.65.65 0 0 0 .15.24.27.27 0 0 0 .27.05.37.37 0 0 0 .14-.2 3.14 3.14 0 0 0 0-2.39c-.19 0-.3.23-.37.42a2.9 2.9 0 0 0 0 1.65.52.52 0 0 0 .16.29.22.22 0 0 0 .3 0 .35.35 0 0 0 .07-.15 2.44 2.44 0 0 0 0-1.17.49.49 0 0 0-.18-.27 2.54 2.54 0 0 0-.08 1.31.7.7 0 0 0 .17-.65l-.12.19M183 33.1a3.12 3.12 0 0 1 2.05-.71 3.35 3.35 0 0 1 2.27 1.06m4.64 1.09a3.11 3.11 0 0 1 4.06.15l.25.26m-8.3 2.76a23.23 23.23 0 0 0-1.22 3.7 1.64 1.64 0 0 0-.06.76.59.59 0 0 0 .53.48m4.74 2.78a12.86 12.86 0 0 1-2 .17h-1.31a11.47 11.47 0 0 1-1.93-.34 3.18 3.18 0 0 0 .6 2 2.25 2.25 0 0 0 .76.75 2.17 2.17 0 0 0 1.11.29 2.24 2.24 0 0 0 1.14-.19 2.49 2.49 0 0 0 .81-.68 3.16 3.16 0 0 0 .78-1.92zM173 61.15a32.87 32.87 0 0 0 6.35.07c.54 0 1.81-.24 1.8-1s-1.27-.59-1.8-.53a24.1 24.1 0 0 0-3 .56c-.84.17-2.35.64-3.35.9zm36 3a33.49 33.49 0 0 1-6.29-.84c-.53-.13-1.76-.5-1.63-1.28s1.33-.4 1.85-.26a24 24 0 0 1 2.93 1c.83.33 2.27 1.01 3.14 1.41zM176.43 68a32.71 32.71 0 0 0 5.73-2.73c.47-.28 1.52-1 1.16-1.72s-1.39 0-1.84.32a23.4 23.4 0 0 0-2.48 1.81c-.66.54-1.82 1.64-2.57 2.29zm5.57 4.69a33.38 33.38 0 0 0 4.34-4.63c.33-.44 1.05-1.5.45-2s-1.28.54-1.6 1a24.32 24.32 0 0 0-1.64 2.61c-.41.75-1.1 2.19-1.55 3.07zm21.4-1.23a32.3 32.3 0 0 1-4.58-4.4c-.36-.41-1.13-1.44-.56-2s1.31.46 1.65.88a23.27 23.27 0 0 1 1.77 2.52c.44.74 1.2 2.14 1.7 3zm-6.19 3.34a32.3 32.3 0 0 0-1.25-6.23c-.15-.52-.61-1.72-1.37-1.55s-.32 1.36-.15 1.87a24.36 24.36 0 0 0 1.17 2.85c.37.78 1.14 2.17 1.6 3.06zm-8.57.44a33.71 33.71 0 0 0 2.36-5.88c.15-.53.44-1.78-.3-2s-1 1-1.15 1.47a22.52 22.52 0 0 0-.59 3c-.12.85-.24 2.44-.35 3.43zm-18.1 24.44c.08-.68.16-1.38.25-2.1-1 8.1-.92 13.25-3.83 21.66-.83.44-1.67.87-2.49 1.33a56.88 56.88 0 0 0-10.19 6.62 63.11 63.11 0 0 0-7.3 7.94l-12.54 15.32a3.7 3.7 0 0 0-1.06 2.07 3.45 3.45 0 0 0 .64 1.88 20.3 20.3 0 0 0 7.4 7.26 3.77 3.77 0 0 0 3.17.16 5.73 5.73 0 0 0 2.07-1.63q7.38-8 14.2-16.43a40.89 40.89 0 0 1 5.45-5.17c4.74 11.12 12.84 20.44 20.81 29.54.87 1 3.16 3.56 3.9 3.67s2.56-1.09 3.8-2c2-1.42 2.81-2.08 4.53-3.51.58-.48 2.84-2.11 3-2.83.25-.93-.84-2.12-1.41-2.89-5.65-7.51-8.5-11.16-12.78-16.89a39 39 0 0 1-4.74-7.12c-1.18-2.61-1.72-4.42.14-5.67a50.26 50.26 0 0 0 4.63-2.58c3.87-2.46 14-7.91 15.82-12.13a19.25 19.25 0 0 0 1.87-5.9 64.84 64.84 0 0 0 .38-7.18 62.75 62.75 0 0 1-35.76-3.43z"/>
    <path class="b" d="M137.34 150.39a7.53 7.53 0 0 1-5.59 3.77c-3 .37-6.06-1.15-9.1-.83s-5.69 2.5-7.59 5a2 2 0 0 0-.56 1.34 1.93 1.93 0 0 0 .76 1.15 34.23 34.23 0 0 0 8.14 4.88l13.6 6.49a2.15 2.15 0 0 0 1 .3 2 2 0 0 0 1.07-.5 14.58 14.58 0 0 0 2.72-3.28l8.93-13.23z"/>
    <path class="b" d="M119.71 159.44a19.78 19.78 0 0 1-3.12-2.89 18 18 0 0 0-1.53 1.74 2 2 0 0 0-.56 1.34 1.93 1.93 0 0 0 .76 1.15 34.23 34.23 0 0 0 8.14 4.88l13.6 6.53a2.28 2.28 0 0 0 1 .3 2 2 0 0 0 1.07-.5 11.07 11.07 0 0 0 1.91-2.13c-8.12-3.29-18.46-8.49-21.31-10.42zm68.69-50.7q-12.19 5.42-23.93 11.83a56.88 56.88 0 0 0-10.19 6.62 63.11 63.11 0 0 0-7.3 7.94l-12.54 15.32a3.7 3.7 0 0 0-1.06 2.07 3.45 3.45 0 0 0 .64 1.88c1.8 3 5.24 5.8 8.52 7.76.93.55 2.3 1.37 3.31 1a7.06 7.06 0 0 0 2.28-2.24c4.68-6.16 8.18-11.53 12.73-17.17a40.07 40.07 0 0 1 6.56-6c7.08-3.15 14.27-5.29 20.81-9.44 3.87-2.47 14-7.91 15.82-12.13a19.34 19.34 0 0 0 1.87-5.9M151.1 75.94c-2.09.58-3.09 2-4 3.92a6.83 6.83 0 0 0-.74 3.61 5.81 5.81 0 0 0 2.6 3.91c3.74 2.75 15.19 9.45 21.05 11.24a31.12 31.12 0 0 0 3.61 7 3.27 3.27 0 0 0 1.36 1 3.13 3.13 0 0 0 1.84-.1 17.34 17.34 0 0 0 6.24-4.17 4.85 4.85 0 0 0 .92-1.62c.41-1.42-1.26-3.59-2.35-4.59a50.94 50.94 0 0 0-5.85-4c-1.37-.8-1.19-.4-2.3-1.54-3.78-3.84-11.62-10.34-15.8-12.67-1.67-.93-4.72-2.62-6.56-2.1zm61.78 4.92c1.47 1.11 3 2.2 4.41 3.22a161.63 161.63 0 0 0-14.72 15.34 2.19 2.19 0 0 0-.54 1.3l-.13 3.12a1.59 1.59 0 0 0 .14.87 1.68 1.68 0 0 0 .53.46c1.06.65 5.41 3.66 6.47 4.32a1 1 0 0 0 .43.18 1 1 0 0 0 .6-.18 22.38 22.38 0 0 0 5.42-4.26.43.43 0 0 0 .17-.37c0-.14-.19-.22-.33-.27a6.41 6.41 0 0 0-1.23-.26 10 10 0 0 0 1.43-5.18c5.46-3.71 11.09-7.81 15.61-12.64 1.05-1.13 2.17-2.44 2.11-4a3.31 3.31 0 0 0-.36-1.35c-1.62-2.62-5.9-6.47-9.94-9.91"/>
    <path class="b" d="M207.87 93.46c-1.66 1.81-3.35 3.73-5.3 6a2.27 2.27 0 0 0-.55 1.3l-.12 3.12a1.59 1.59 0 0 0 .14.87 1.68 1.68 0 0 0 .53.46c1.06.65 5.41 3.66 6.47 4.32a1 1 0 0 0 .43.18 1 1 0 0 0 .6-.18 22.38 22.38 0 0 0 5.42-4.26.43.43 0 0 0 .17-.37c0-.15-.19-.22-.33-.27a6.41 6.41 0 0 0-1.23-.26 9.9 9.9 0 0 0 1.44-5.18c-5-1-6.94-3.74-7.66-5.67zm-32.11-1.21c-1.37-.8-1.19-.4-2.3-1.54-3.79-3.84-11.62-10.34-15.8-12.67-1.67-.93-4.72-2.62-6.56-2.1-2.09.58-3.09 2-4 3.92a6.83 6.83 0 0 0-.74 3.61 5.81 5.81 0 0 0 2.6 3.91c3.74 2.75 15.19 9.45 21.05 11.24 1.27-5.75 5.77-6.36 5.77-6.36z"/>
    <path class="c" d="M189.31 168.3a7.9 7.9 0 0 1 .41 10.48 16.34 16.34 0 0 0-4 9.65 8.6 8.6 0 0 0 6.24 2.06 15.15 15.15 0 0 0 6.39-2 10.77 10.77 0 0 0 2.7-2c3.37-3.59 2.23-9.81 5.46-13.52a12.26 12.26 0 0 0 1.54-1.86 2.48 2.48 0 0 0-.78-2.15 62.18 62.18 0 0 0-9.81-9.65l-8.15 9z"/>
    <path class="d" d="M189.31 168.3a7.9 7.9 0 0 1 .41 10.48 16.34 16.34 0 0 0-4 9.65 8.6 8.6 0 0 0 6.24 2.06 15.15 15.15 0 0 0 6.39-2 10.77 10.77 0 0 0 2.7-2c3.37-3.59 2.23-9.81 5.46-13.52a12.26 12.26 0 0 0 1.54-1.86 2.48 2.48 0 0 0-.78-2.15 62.18 62.18 0 0 0-9.81-9.65l-8.15 9z"/>
    <path class="e" d="M207.27 169c-.17-.21-.36-.41-.54-.63l-.11.08a12.46 12.46 0 0 0-2.91 2.45c-2.38 2.94-2.19 7.24-4.15 10.48a10.57 10.57 0 0 1-9.53 4.69 13.54 13.54 0 0 1-3.77-.78 16.07 16.07 0 0 0-.54 3.16 8.56 8.56 0 0 0 6.25 2 15 15 0 0 0 6.38-2 10.57 10.57 0 0 0 2.7-2c3.37-3.58 2.23-9.8 5.46-13.51a12.26 12.26 0 0 0 1.54-1.86 2.48 2.48 0 0 0-.78-2.15"/>
    <path class="d" d="M207.27 169c-.17-.21-.36-.41-.54-.63l-.11.08a12.46 12.46 0 0 0-2.91 2.45c-2.38 2.94-2.19 7.24-4.15 10.48a10.57 10.57 0 0 1-9.53 4.69 13.54 13.54 0 0 1-3.77-.78 16.07 16.07 0 0 0-.54 3.16 8.56 8.56 0 0 0 6.25 2 15 15 0 0 0 6.38-2 10.57 10.57 0 0 0 2.7-2c3.37-3.58 2.23-9.8 5.46-13.51a12.26 12.26 0 0 0 1.54-1.86 2.48 2.48 0 0 0-.78-2.15z"/>
    <path class="f" d="M188.4 108.74q-12.19 5.42-23.93 11.83a56.88 56.88 0 0 0-10.19 6.62 63.11 63.11 0 0 0-7.3 7.94l-12.54 15.32a3.7 3.7 0 0 0-1.06 2.07 3.45 3.45 0 0 0 .64 1.88 20.38 20.38 0 0 0 7.4 7.26 3.77 3.77 0 0 0 3.17.16 5.73 5.73 0 0 0 2.07-1.63q7.38-8 14.2-16.44a40.07 40.07 0 0 1 6.56-6c7.08-3.15 14.27-5.29 20.81-9.44 3.87-2.47 14-7.91 15.82-12.13a19.34 19.34 0 0 0 1.87-5.9 108.61 108.61 0 0 0 .41-11.79c0-5.17-.28-23-.28-23l9.8-10.32a42 42 0 0 0-3.78-3.29c-4.45-3-10-3.79-15.38-4.66l-7.88-.46q-6.41-.28-12.83-.14a17.32 17.32 0 0 0-4.71.57 17.93 17.93 0 0 0-5.51 3.29q-6.76 5.28-13.52 10.58l13.66 6.47 7-4.75s-.3 15-1.75 21.91c-1.53 10.35-.91 15.67-4.71 25.93-1.18 3.17-2.37 6.43-2.29 9.81a21.86 21.86 0 0 0 2 7.85c4.72 11.26 12.9 20.66 20.94 29.85.88 1 3.17 3.55 3.9 3.67s2.57-1.1 3.81-2c2-1.42 2.81-2.08 4.53-3.51.58-.48 2.84-2.11 3-2.83.25-.93-.84-2.12-1.41-2.89-5.65-7.51-8.5-11.16-12.78-16.89a39.37 39.37 0 0 1-4.74-7.12c-1.18-2.61-1.72-4.42.14-5.67"/>
    <path class="d" d="M188.4 108.74q-12.19 5.42-23.93 11.83a56.88 56.88 0 0 0-10.19 6.62 63.11 63.11 0 0 0-7.3 7.94l-12.54 15.32a3.7 3.7 0 0 0-1.06 2.07 3.45 3.45 0 0 0 .64 1.88 20.38 20.38 0 0 0 7.4 7.26 3.77 3.77 0 0 0 3.17.16 5.73 5.73 0 0 0 2.07-1.63q7.38-8 14.2-16.44a40.07 40.07 0 0 1 6.56-6c7.08-3.15 14.27-5.29 20.81-9.44 3.87-2.47 14-7.91 15.82-12.13a19.34 19.34 0 0 0 1.87-5.9 108.61 108.61 0 0 0 .41-11.79c0-5.17-.28-23-.28-23l9.8-10.32a42 42 0 0 0-3.78-3.29c-4.45-3-10-3.79-15.38-4.66l-7.88-.46q-6.41-.28-12.83-.14a17.32 17.32 0 0 0-4.71.57 17.93 17.93 0 0 0-5.51 3.29q-6.76 5.28-13.52 10.58l13.66 6.47 7-4.75s-.3 15-1.75 21.91c-1.53 10.35-.91 15.67-4.71 25.93-1.18 3.17-2.37 6.43-2.29 9.81a21.86 21.86 0 0 0 2 7.85c4.72 11.26 12.9 20.66 20.94 29.85.88 1 3.17 3.55 3.9 3.67s2.57-1.1 3.81-2c2-1.42 2.81-2.08 4.53-3.51.58-.48 2.84-2.11 3-2.83.25-.93-.84-2.12-1.41-2.89-5.65-7.51-8.5-11.16-12.78-16.89a39.37 39.37 0 0 1-4.74-7.12c-1.18-2.61-1.72-4.42.14-5.67"/>
    <path class="g" d="M196.69 57.26c5.32.87 10.93 1.62 15.38 4.66a43.65 43.65 0 0 1 3.78 3.29c3.88 3.52 14.28 11.5 17 16a3.31 3.31 0 0 1 .36 1.35c.06 1.54-1.06 2.85-2.11 4-4.52 4.83-10.15 8.94-15.61 12.64a9.9 9.9 0 0 1-1.44 5.18 6.41 6.41 0 0 1 1.23.26c.14 0 .3.13.33.27a.43.43 0 0 1-.17.37 22.24 22.24 0 0 1-5.43 4.26 1 1 0 0 1-.59.18 1 1 0 0 1-.43-.18c-1.06-.66-5.41-3.66-6.47-4.32a1.68 1.68 0 0 1-.53-.46 1.59 1.59 0 0 1-.14-.87l.12-3.12a2.27 2.27 0 0 1 .55-1.3 162.83 162.83 0 0 1 14.72-15.34c-3.77-2.64-7.66-5.66-11.24-8.54"/>
    <path class="d" d="M196.69 57.26c5.32.87 10.93 1.62 15.38 4.66a43.65 43.65 0 0 1 3.78 3.29c3.88 3.52 14.28 11.5 17 16a3.31 3.31 0 0 1 .36 1.35c.06 1.54-1.06 2.85-2.11 4-4.52 4.83-10.15 8.94-15.61 12.64a9.9 9.9 0 0 1-1.44 5.18 6.41 6.41 0 0 1 1.23.26c.14 0 .3.13.33.27a.43.43 0 0 1-.17.37 22.24 22.24 0 0 1-5.43 4.26 1 1 0 0 1-.59.18 1 1 0 0 1-.43-.18c-1.06-.66-5.41-3.66-6.47-4.32a1.68 1.68 0 0 1-.53-.46 1.59 1.59 0 0 1-.14-.87l.12-3.12a2.27 2.27 0 0 1 .55-1.3 162.83 162.83 0 0 1 14.72-15.34c-3.77-2.64-7.66-5.66-11.24-8.54"/>
    <path class="g" d="M215.85 65.21a43.65 43.65 0 0 0-3.78-3.29c-4.45-3-10.06-3.79-15.38-4.66l-7.88-.46q-6.41-.28-12.83-.14a17.32 17.32 0 0 0-4.71.57 17.93 17.93 0 0 0-5.51 3.29q-6.76 5.24-13.52 10.54l13.66 6.47 7-4.75s-.3 15-1.75 21.91c-.27 1.8-.47 3.44-.64 5a62.75 62.75 0 0 0 35.76 3.43v-4.61c0-5.17-.28-23-.28-23"/>
    <path class="d" d="M215.85 65.21a43.65 43.65 0 0 0-3.78-3.29c-4.45-3-10.06-3.79-15.38-4.66l-7.88-.46q-6.41-.28-12.83-.14a17.32 17.32 0 0 0-4.71.57 17.93 17.93 0 0 0-5.51 3.29q-6.76 5.24-13.52 10.54l13.66 6.47 7-4.75s-.3 15-1.75 21.91c-.27 1.8-.47 3.44-.64 5a62.75 62.75 0 0 0 35.76 3.43v-4.61c0-5.17-.28-23-.28-23"/>
    <path class="h" d="M148.64 103.87c0 .18 0 .36.05.54a94.18 94.18 0 0 1 1.79-24.62 12.13 12.13 0 0 1 1-3.29 105.58 105.58 0 0 1 11 6.52 185.9 185.9 0 0 0-15.85 16.63 2.33 2.33 0 0 0-.55 1.31l-.12 3.11a1.64 1.64 0 0 0 .14.88 1.54 1.54 0 0 0 .53.45l4.79 3a1.09 1.09 0 0 0 .43.18 1 1 0 0 0 .59-.18 22.43 22.43 0 0 0 5.43-4.26c.09-.1.2-.23.17-.37s-.19-.22-.34-.27a6.15 6.15 0 0 0-1.22-.26 9.9 9.9 0 0 0 1.44-5.18 89.64 89.64 0 0 0 14.73-13.23c1.05-1.12 2.16-2.43 2.1-4S173.4 78 172.2 77c-3.64-3.13-7.14-6.33-11-9.12a24.86 24.86 0 0 0-4.98-2.88 27.06 27.06 0 0 0-6.06-2c-1.78-.31-4-.57-4.68-2.24a26.28 26.28 0 0 1 2.24-10.05L135 49.18c.35 3.13-.82 8.35-2 11.29a3 3 0 0 1-2.33 1.44 11.79 11.79 0 0 1-2.84-.16c-4.23-.5-8.51.17-12.72.84-2.37.38-4.75.76-7.1 1.24a89.71 89.71 0 0 0-11.3 3l19 8.11 5.73.09c-.43 6.65-.77 12-2.26 18.46-.36 1.59-.79 3.17-1.21 4.75l-.55 2"/>
    <path class="d" d="M148.64 103.87c0 .18 0 .36.05.54a94.18 94.18 0 0 1 1.79-24.62 12.13 12.13 0 0 1 1-3.29 105.58 105.58 0 0 1 11 6.52 185.9 185.9 0 0 0-15.85 16.63 2.33 2.33 0 0 0-.55 1.31l-.12 3.11a1.64 1.64 0 0 0 .14.88 1.54 1.54 0 0 0 .53.45l4.79 3a1.09 1.09 0 0 0 .43.18 1 1 0 0 0 .59-.18 22.43 22.43 0 0 0 5.43-4.26c.09-.1.2-.23.17-.37s-.19-.22-.34-.27a6.15 6.15 0 0 0-1.22-.26 9.9 9.9 0 0 0 1.44-5.18 89.64 89.64 0 0 0 14.73-13.23c1.05-1.12 2.16-2.43 2.1-4S173.4 78 172.2 77c-3.64-3.13-7.14-6.33-11-9.12a24.86 24.86 0 0 0-4.98-2.88 27.06 27.06 0 0 0-6.06-2c-1.78-.31-4-.57-4.68-2.24a26.28 26.28 0 0 1 2.24-10.05L135 49.18c.35 3.13-.82 8.35-2 11.29a3 3 0 0 1-2.33 1.44 11.79 11.79 0 0 1-2.84-.16c-4.23-.5-8.51.17-12.72.84-2.37.38-4.75.76-7.1 1.24a89.71 89.71 0 0 0-11.3 3l19 8.11 5.73.09c-.43 6.65-.77 12-2.26 18.46-.36 1.59-.79 3.17-1.21 4.75l-.55 2"/>
    <path d="M172.2 77c-3.64-3.13-7.14-6.33-11-9.12a24.86 24.86 0 0 0-4.98-2.88 32.55 32.55 0 0 0-4.09-1.56 32 32 0 0 1-16.46 1.81 19.2 19.2 0 0 1-8.93-3.59 50.61 50.61 0 0 0-11.63.93c-2.37.38-4.75.76-7.1 1.24a89.71 89.71 0 0 0-11.3 3l19 8.11 5.73.09c-.43 6.65-.77 12-2.26 18.46-.36 1.59-.79 3.17-1.21 4.75l-.55 2 28.58 3.33.1-2.61a2.33 2.33 0 0 1 .55-1.31l1.92-2.18a93.72 93.72 0 0 1 1.93-17.68 12.49 12.49 0 0 1 1-3.29 107.25 107.25 0 0 1 11 6.51 167.43 167.43 0 0 0-13.93 14.46c0 2.32 0 4.63.14 6.94l-.05-.54-2.66-.3v.5a1.59 1.59 0 0 0 .14.87 1.56 1.56 0 0 0 .53.46c1.06.66 3.73 2.36 4.79 3a1 1 0 0 0 .43.19 1 1 0 0 0 .59-.18 22.43 22.43 0 0 0 5.43-4.26c.09-.1.2-.23.17-.37s-.19-.22-.34-.27a6.15 6.15 0 0 0-1.22-.26 9.79 9.79 0 0 0 1.43-5.18 89.3 89.3 0 0 0 14.74-13.23c1.05-1.12 2.16-2.43 2.1-4S173.4 78 172.2 77" fill="#7bded2" fill-rule="evenodd"/>
    <path class="d" d="M172.2 77c-3.64-3.13-7.14-6.33-11-9.12a24.86 24.86 0 0 0-4.98-2.88 32.55 32.55 0 0 0-4.09-1.56 32 32 0 0 1-16.46 1.81 19.2 19.2 0 0 1-8.93-3.59 50.61 50.61 0 0 0-11.63.93c-2.37.38-4.75.76-7.1 1.24a89.71 89.71 0 0 0-11.3 3l19 8.11 5.73.09c-.43 6.65-.77 12-2.26 18.46-.36 1.59-.79 3.17-1.21 4.75l-.55 2 28.58 3.33.1-2.61a2.33 2.33 0 0 1 .55-1.31l1.92-2.18a93.72 93.72 0 0 1 1.93-17.68 12.49 12.49 0 0 1 1-3.29 107.25 107.25 0 0 1 11 6.51 167.43 167.43 0 0 0-13.93 14.46c0 2.32 0 4.63.14 6.94l-.05-.54-2.66-.3v.5a1.59 1.59 0 0 0 .14.87 1.56 1.56 0 0 0 .53.46c1.06.66 3.73 2.36 4.79 3a1 1 0 0 0 .43.19 1 1 0 0 0 .59-.18 22.43 22.43 0 0 0 5.43-4.26c.09-.1.2-.23.17-.37s-.19-.22-.34-.27a6.15 6.15 0 0 0-1.22-.26 9.79 9.79 0 0 0 1.43-5.18 89.3 89.3 0 0 0 14.74-13.23c1.05-1.12 2.16-2.43 2.1-4S173.4 78 172.2 77z"/>
    <path class="j" d="M129.07 108.4c-11.15 5.4-23.41 9.25-32.49 17.67-2.93 2.72-5.45 5.86-8.33 8.63-1.36 1.31-2.91 2.63-4.38 3.82a13.48 13.48 0 0 1-5 2.53c-1.7.38-3.41-.42-5-1.08s-3.54-1.17-5-.27-2 3.18-1.3 4.89a9.26 9.26 0 0 0 3.63 4c3 2.07 6.49 3.55 9.15 6.08a8 8 0 0 0 2.18 1.73c1.65.71 3.62-.14 4.87-1.43a29.67 29.67 0 0 0 3-4.48 48.78 48.78 0 0 1 6.35-7c3.13-2.67 6.32-5.28 9.66-7.7a37.4 37.4 0 0 1 6.33-3.9 58.41 58.41 0 0 1 7.52-2.56c5.7-1.74 12.67-4.16 17.87-7.06a20.41 20.41 0 0 0 7.4-7.53"/>
    <path class="d" d="M129.07 108.4c-11.15 5.4-23.41 9.25-32.49 17.67-2.93 2.72-5.45 5.86-8.33 8.63-1.36 1.31-2.91 2.63-4.38 3.82a13.48 13.48 0 0 1-5 2.53c-1.7.38-3.41-.42-5-1.08s-3.54-1.17-5-.27-2 3.18-1.3 4.89a9.26 9.26 0 0 0 3.63 4c3 2.07 6.49 3.55 9.15 6.08a8 8 0 0 0 2.18 1.73c1.65.71 3.62-.14 4.87-1.43a29.67 29.67 0 0 0 3-4.48 48.78 48.78 0 0 1 6.35-7c3.13-2.67 6.32-5.28 9.66-7.7a37.4 37.4 0 0 1 6.33-3.9 58.41 58.41 0 0 1 7.52-2.56c5.7-1.74 12.67-4.16 17.87-7.06a20.41 20.41 0 0 0 7.4-7.53"/>
    <path class="h" d="M138.6 106.42l-17.17-3-3.74-5.19c-1.71 6-3.3 11.71-4.94 17.56-5.85 2.77-11.44 5.91-16.17 10.3-2.93 2.72-5.45 5.86-8.33 8.63-1.36 1.31-2.91 2.63-4.38 3.82a13.48 13.48 0 0 1-5 2.53c-1.7.38-3.41-.42-5-1.08s-3.54-1.17-5-.27-2 3.18-1.3 4.89a9.26 9.26 0 0 0 3.63 4c3 2.07 6.49 3.55 9.15 6.08a8 8 0 0 0 2.18 1.73c1.65.71 3.62-.14 4.87-1.43a29.67 29.67 0 0 0 3-4.48 48.78 48.78 0 0 1 6.35-7c3.13-2.67 6.32-5.28 9.65-7.7 1-.73 2-1.44 3.07-2.1.56 4.27 2.47 8.35 4.51 12.2a165.26 165.26 0 0 0 10 16.47c2.13 3.1 4.06 7.21 2.22 10.48-.56 1-1.32 1.85-1.83 2.87a3.48 3.48 0 0 0-.16 3.25c.75 1.3 2.5 1.55 4 1.53 2.68 0 5.58-.6 7.34-2.63s1.88-4.63 2.17-7.15.87-5.27 2.91-6.78a2.91 2.91 0 0 0 .77-1.67c.46-2.43-2.14-4.18-4.09-5.7-4.78-3.71-7.24-9.66-8.85-15.49-1.27-4.59-2.1-9.47-1.09-14.1a74.82 74.82 0 0 0 10.76-4.7 20.48 20.48 0 0 0 7.4-7.53c2-3.42 2.84-8.27 3.2-12.76l-10.1 4.41z"/>
    <path class="d" d="M138.6 106.42l-17.17-3-3.74-5.19c-1.71 6-3.3 11.71-4.94 17.56-5.85 2.77-11.44 5.91-16.17 10.3-2.93 2.72-5.45 5.86-8.33 8.63-1.36 1.31-2.91 2.63-4.38 3.82a13.48 13.48 0 0 1-5 2.53c-1.7.38-3.41-.42-5-1.08s-3.54-1.17-5-.27-2 3.18-1.3 4.89a9.26 9.26 0 0 0 3.63 4c3 2.07 6.49 3.55 9.15 6.08a8 8 0 0 0 2.18 1.73c1.65.71 3.62-.14 4.87-1.43a29.67 29.67 0 0 0 3-4.48 48.78 48.78 0 0 1 6.35-7c3.13-2.67 6.32-5.28 9.65-7.7 1-.73 2-1.44 3.07-2.1.56 4.27 2.47 8.35 4.51 12.2a165.26 165.26 0 0 0 10 16.47c2.13 3.1 4.06 7.21 2.22 10.48-.56 1-1.32 1.85-1.83 2.87a3.48 3.48 0 0 0-.16 3.25c.75 1.3 2.5 1.55 4 1.53 2.68 0 5.58-.6 7.34-2.63s1.88-4.63 2.17-7.15.87-5.27 2.91-6.78a2.91 2.91 0 0 0 .77-1.67c.46-2.43-2.14-4.18-4.09-5.7-4.78-3.71-7.24-9.66-8.85-15.49-1.27-4.59-2.1-9.47-1.09-14.1a74.82 74.82 0 0 0 10.76-4.7 20.48 20.48 0 0 0 7.4-7.53c2-3.42 2.84-8.27 3.2-12.76l-10.1 4.41z"/>
    <path class="k" d="M138.1 122.3a20.48 20.48 0 0 0 7.4-7.53c2-3.42 2.84-8.27 3.2-12.76-16.59.88-26.21-1.76-31-3.8-1.71 6-3.3 11.71-4.94 17.56-5.85 2.77-11.44 5.91-16.17 10.3-2.93 2.72-5.45 5.85-8.33 8.63-.46.45-1 .9-1.46 1.34a14.34 14.34 0 0 1 8.72 8.66l1.21-1.18c3.13-2.67 6.32-5.28 9.65-7.7 1-.73 2-1.44 3.07-2.1.56 4.27 2.47 8.35 4.51 12.2a165.1 165.1 0 0 0 9.36 15.52 20.06 20.06 0 0 1 5-5.32 20.29 20.29 0 0 1 5.65-2.85 34.77 34.77 0 0 1-5.56-12.17c-1.27-4.59-2.1-9.47-1.09-14.09a76 76 0 0 0 10.76-4.71"/>
    <path class="d" d="M138.1 122.3a20.48 20.48 0 0 0 7.4-7.53c2-3.42 2.84-8.27 3.2-12.76-16.59.88-26.21-1.76-31-3.8-1.71 6-3.3 11.71-4.94 17.56-5.85 2.77-11.44 5.91-16.17 10.3-2.93 2.72-5.45 5.85-8.33 8.63-.46.45-1 .9-1.46 1.34a14.34 14.34 0 0 1 8.72 8.66l1.21-1.18c3.13-2.67 6.32-5.28 9.65-7.7 1-.73 2-1.44 3.07-2.1.56 4.27 2.47 8.35 4.51 12.2a165.1 165.1 0 0 0 9.36 15.52 20.06 20.06 0 0 1 5-5.32 20.29 20.29 0 0 1 5.65-2.85 34.77 34.77 0 0 1-5.56-12.17c-1.27-4.59-2.1-9.47-1.09-14.09a76 76 0 0 0 10.76-4.71z"/>
    <path class="k" d="M129.07 108.4c-11.15 5.4-23.41 9.25-32.49 17.67-2.93 2.72-5.45 5.86-8.33 8.63-.46.45-1 .9-1.46 1.34a14.34 14.34 0 0 1 8.72 8.66l1.21-1.18c3.14-2.67 6.33-5.28 9.66-7.7a37.4 37.4 0 0 1 6.33-3.9 58.41 58.41 0 0 1 7.52-2.56c5.7-1.74 12.67-4.16 17.87-7.06a20.48 20.48 0 0 0 7.4-7.53"/>
    <path class="d" d="M129.07 108.4c-11.15 5.4-23.41 9.25-32.49 17.67-2.93 2.72-5.45 5.86-8.33 8.63-.46.45-1 .9-1.46 1.34a14.34 14.34 0 0 1 8.72 8.66l1.21-1.18c3.14-2.67 6.33-5.28 9.66-7.7a37.4 37.4 0 0 1 6.33-3.9 58.41 58.41 0 0 1 7.52-2.56c5.7-1.74 12.67-4.16 17.87-7.06a20.48 20.48 0 0 0 7.4-7.53"/>
    <path class="l" d="M87.37 155a10.85 10.85 0 0 0 1.11-1.42c-.25-.19-.5-.36-.76-.53q-6.16-4.25-12.72-7.92a4 4 0 0 1-1.68-1.39 2.46 2.46 0 0 1 1.27-3.24 1.82 1.82 0 0 1 .3-.11l-1-.42c-1.61-.66-3.54-1.17-5-.27s-2 3.18-1.3 4.89a9.26 9.26 0 0 0 3.63 4c3 2.07 6.49 3.55 9.15 6.08a8 8 0 0 0 2.18 1.73c1.65.71 3.62-.14 4.87-1.43"/>
    <path class="d" d="M87.37 155a10.85 10.85 0 0 0 1.11-1.42c-.25-.19-.5-.36-.76-.53q-6.16-4.25-12.72-7.92a4 4 0 0 1-1.68-1.39 2.46 2.46 0 0 1 1.27-3.24 1.82 1.82 0 0 1 .3-.11l-1-.42c-1.61-.66-3.54-1.17-5-.27s-2 3.18-1.3 4.89a9.26 9.26 0 0 0 3.63 4c3 2.07 6.49 3.55 9.15 6.08a8 8 0 0 0 2.18 1.73c1.65.71 3.62-.14 4.87-1.43z"/>
    <path class="l" d="M135.52 177.89c1.66-1.91 1.88-4.63 2.18-7.15s.87-5.27 2.9-6.78a2.91 2.91 0 0 0 .77-1.67c.38-2-1.32-3.55-3-4.88a16.34 16.34 0 0 0-4.31 6.2c-.75 2-.86 4.16-1.43 6.2s-1.8 4.12-3.83 4.77a1.78 1.78 0 0 1-2.5-1.91c0 .07-.06.14-.1.2-.56 1-1.32 1.85-1.83 2.87a3.48 3.48 0 0 0-.16 3.25c.75 1.3 2.5 1.55 4 1.53 2.68 0 5.58-.6 7.34-2.63"/>
    <path class="d" d="M135.52 177.89c1.66-1.91 1.88-4.63 2.18-7.15s.87-5.27 2.9-6.78a2.91 2.91 0 0 0 .77-1.67c.38-2-1.32-3.55-3-4.88a16.34 16.34 0 0 0-4.31 6.2c-.75 2-.86 4.16-1.43 6.2s-1.8 4.12-3.83 4.77a1.78 1.78 0 0 1-2.5-1.91c0 .07-.06.14-.1.2-.56 1-1.32 1.85-1.83 2.87a3.48 3.48 0 0 0-.16 3.25c.75 1.3 2.5 1.55 4 1.53 2.68 0 5.58-.6 7.34-2.63z"/>
    <path class="g" d="M133.94 49.93a14.18 14.18 0 0 1 .15 6.76 20.46 20.46 0 0 1-.78 2.78 6.27 6.27 0 0 1-3.43-.12 8.49 8.49 0 0 1-1.88-1.14c-1.65-1.17-3.58-2.23-5.58-1.94-.19 0-.42.06-.53-.09a.51.51 0 0 1-.08-.32c0-3.1 2.51-5.53 4-8.22a14.62 14.62 0 0 0 1.83-8.24c-.12-1.67-.54-3.3-.54-5a11.94 11.94 0 0 1 6.43-10.09A17.64 17.64 0 0 1 145.78 23a11.58 11.58 0 0 1 3.83 1.51 41.39 41.39 0 0 1-2.77 9.31 3.06 3.06 0 0 1-2.28-.07 19 19 0 0 0-7.13-.91 8 8 0 0 0-6 3.5l2.55 13.55z"/>
    <path class="d" d="M133.94 49.93a14.18 14.18 0 0 1 .15 6.76 20.46 20.46 0 0 1-.78 2.78 6.27 6.27 0 0 1-3.43-.12 8.49 8.49 0 0 1-1.88-1.14c-1.65-1.17-3.58-2.23-5.58-1.94-.19 0-.42.06-.53-.09a.51.51 0 0 1-.08-.32c0-3.1 2.51-5.53 4-8.22a14.62 14.62 0 0 0 1.83-8.24c-.12-1.67-.54-3.3-.54-5a11.94 11.94 0 0 1 6.43-10.09A17.64 17.64 0 0 1 145.78 23a11.58 11.58 0 0 1 3.83 1.51 41.39 41.39 0 0 1-2.77 9.31 3.06 3.06 0 0 1-2.28-.07 19 19 0 0 0-7.13-.91 8 8 0 0 0-6 3.5l2.55 13.55z"/>
    <path class="h" d="M132.67 33.58a16.85 16.85 0 0 0-1.87 10.27c.54 4.26 2.92 8.63 7 10a10.15 10.15 0 0 0 8.88-1.43 16.32 16.32 0 0 0 5.63-7.29c6.12-14.53-11-27-19.62-11.6"/>
    <path class="d" d="M132.67 33.58a16.85 16.85 0 0 0-1.87 10.27c.54 4.26 2.92 8.63 7 10a10.15 10.15 0 0 0 8.88-1.43 16.32 16.32 0 0 0 5.63-7.29c6.1-14.48-10.99-26.94-19.64-11.55z"/>
    <path class="d" d="M142.45 49.62a4.05 4.05 0 0 1-3.1.76 3.24 3.24 0 0 1-2.76-1.87m2.81-8.72a19.81 19.81 0 0 1-1 3.88 3.67 3.67 0 0 0-.35 1.71c.08.58.59 1.15 1.17 1m0-10.59a3.28 3.28 0 0 0-3.49-1.59 9 9 0 0 0-3.63 1.8m11.83 1.28a1.94 1.94 0 0 1 .81-.5 5.59 5.59 0 0 1 6.41 1.92m-17.09.78s.66 4.31 3.22.52m6.38.75s.45 4.33 3.19.68"/>
    <path class="g" d="M144.6 62.56c-.2-5.73 2.72-11.31 4.23-16.84a22.36 22.36 0 0 0 1-5.83 10.54 10.54 0 0 0-2.55-6.08 35.89 35.89 0 0 1 3.1-8.13.79.79 0 0 1 .29-.36.84.84 0 0 1 .71 0 12.6 12.6 0 0 1 6.47 6.56 20.64 20.64 0 0 1 1.15 8.36 33.08 33.08 0 0 0 0 5.63 47.78 47.78 0 0 0 1.35 5.49 9.82 9.82 0 0 1 .07 5.58c-2.4-.29-4.73.84-6.8 2.09a35.29 35.29 0 0 1-9 3.53"/>
    <path class="d" d="M144.6 62.56c-.2-5.73 2.72-11.31 4.23-16.84a22.36 22.36 0 0 0 1-5.83 10.54 10.54 0 0 0-2.55-6.08 35.89 35.89 0 0 1 3.1-8.13.79.79 0 0 1 .29-.36.84.84 0 0 1 .71 0 12.6 12.6 0 0 1 6.47 6.56 20.64 20.64 0 0 1 1.15 8.36 33.08 33.08 0 0 0 0 5.63 47.78 47.78 0 0 0 1.35 5.49 9.82 9.82 0 0 1 .07 5.58c-2.4-.29-4.73.84-6.8 2.09a35.29 35.29 0 0 1-9 3.53z"/>
    <path class="g" d="M133.56 24.34A17.64 17.64 0 0 1 145.78 23a11.58 11.58 0 0 1 3.83 1.51 41.39 41.39 0 0 1-2.77 9.31 3.06 3.06 0 0 1-2.28-.07 18.83 18.83 0 0 0-7.13-.9 8 8 0 0 0-6 3.48"/>
    <path class="d" d="M133.56 24.34A17.64 17.64 0 0 1 145.78 23a11.58 11.58 0 0 1 3.83 1.51 41.39 41.39 0 0 1-2.77 9.31 3.06 3.06 0 0 1-2.28-.07 18.83 18.83 0 0 0-7.13-.9 8 8 0 0 0-6 3.48"/>
    <path class="h" d="M161 82l1.47 1a188.76 188.76 0 0 0-15.85 16.64 2.33 2.33 0 0 0-.55 1.31c0 1-.07 2.07-.12 3.11a1.59 1.59 0 0 0 .14.87 1.46 1.46 0 0 0 .53.46l4.79 3a1.09 1.09 0 0 0 .43.18 1 1 0 0 0 .59-.18 22.43 22.43 0 0 0 5.43-4.26c.09-.1.2-.23.17-.37s-.19-.22-.34-.27a6.15 6.15 0 0 0-1.22-.26 9.79 9.79 0 0 0 1.43-5.18 89.3 89.3 0 0 0 14.74-13.23c1.05-1.12 2.16-2.43 2.1-4S173.4 78 172.2 77l-1.21-1a17.12 17.12 0 0 0-7.26 2.91A10.22 10.22 0 0 0 161 82"/>
    <path class="d" d="M161 82l1.47 1a188.76 188.76 0 0 0-15.85 16.64 2.33 2.33 0 0 0-.55 1.31c0 1-.07 2.07-.12 3.11a1.59 1.59 0 0 0 .14.87 1.46 1.46 0 0 0 .53.46l4.79 3a1.09 1.09 0 0 0 .43.18 1 1 0 0 0 .59-.18 22.43 22.43 0 0 0 5.43-4.26c.09-.1.2-.23.17-.37s-.19-.22-.34-.27a6.15 6.15 0 0 0-1.22-.26 9.79 9.79 0 0 0 1.43-5.18 89.3 89.3 0 0 0 14.74-13.23c1.05-1.12 2.16-2.43 2.1-4S173.4 78 172.2 77l-1.21-1a17.12 17.12 0 0 0-7.26 2.91A10.22 10.22 0 0 0 161 82z"/>
    <path class="j" d="M69.74 101.83c-11.95 3.24-24.71 4.75-35.19 11.35-3.39 2.13-6.44 4.74-9.79 6.94-1.57 1-3.35 2-5 2.94a13.38 13.38 0 0 1-5.35 1.56c-1.74.07-3.28-1-4.74-2s-3.27-1.8-4.9-1.19-2.53 2.77-2.2 4.57a9.29 9.29 0 0 0 2.83 4.62c2.59 2.6 5.72 4.69 7.87 7.67a8 8 0 0 0 1.81 2.1c1.5 1 3.59.54 5-.5a29.36 29.36 0 0 0 3.84-3.89 48.31 48.31 0 0 1 7.53-5.69c3.58-2 7.19-4 10.91-5.78a38 38 0 0 1 7-2.66 60.88 60.88 0 0 1 7.87-1.13c5.87-.61 13.17-1.74 18.77-3.59a20.31 20.31 0 0 0 8.67-6c3.59-4.12 5.5-11.3 6.63-16.64.76-8.84 3.53-16.06 7.48-24 3.59 2.88 3.94 2.91 7.71 5.55a186 186 0 0 0-15.81 16.63 2.33 2.33 0 0 0-.55 1.31L90 97.11a1.59 1.59 0 0 0 .14.87 1.56 1.56 0 0 0 .53.46c1.06.66 3.73 2.36 4.78 3a1.09 1.09 0 0 0 .43.19 1 1 0 0 0 .6-.19 21.91 21.91 0 0 0 5.42-4.25.43.43 0 0 0 .17-.37c0-.15-.19-.22-.33-.27a6.33 6.33 0 0 0-1.22-.27 10 10 0 0 0 1.48-5.19 89.24 89.24 0 0 0 14.74-13.22c1-1.12 2.16-2.43 2.1-4s-1.34-2.83-2.55-3.86q-5.44-4.69-11.3-8.9a24.4 24.4 0 0 0-4.78-2.86c-2.7-1.11-5.56-.81-7.59-2.91a8.86 8.86 0 0 1-.42-5.71 26.53 26.53 0 0 1 2.1-5.43l-10.48.2A13.33 13.33 0 0 1 81 53.89a64.08 64.08 0 0 0-10.46.32c-1.41.17-2.67.18-4.25.24-1.81.07-2.72 0-4.28.17a143.15 143.15 0 0 1 5.48-18 9.64 9.64 0 0 0 .75-3 5.67 5.67 0 0 0-.24-1.68 15.58 15.58 0 0 0-1.1-3.74 14.11 14.11 0 0 0-2.19-3.67 14.64 14.64 0 0 0-1.15-1.45 8.23 8.23 0 0 0-2.47-1.83 5.43 5.43 0 0 0-2.33-.59 3.2 3.2 0 0 0-2.21.85 4 4 0 0 0-.94 1.78 12.6 12.6 0 0 0 .49 7.53 11.5 11.5 0 0 0 .68 1.47 7.41 7.41 0 0 0 1.57 1.9 6.55 6.55 0 0 0 2.81 1.31c-3.42 8.13-9.5 15.21-11.26 23.86a5.38 5.38 0 0 0-.11 2.22 4.13 4.13 0 0 0 2.45 2.74 11.43 11.43 0 0 0 3.72.77 129 129 0 0 0 13.48.52 59.93 59.93 0 0 1-1.16 6.06 36.48 36.48 0 0 1-5.22 13.65 34.21 34.21 0 0 0-2.57 4.24c-3.8 7.6-7.29 14.74-11.08 22.33a34.68 34.68 0 0 0-3.33 8.43c-1.06 5.17.28 10.51 1.85 15.55a166.72 166.72 0 0 0 6.78 18c1.52 3.44 2.66 7.83.24 10.71-.73.87-1.64 1.57-2.33 2.47a3.48 3.48 0 0 0-.76 3.17c.5 1.41 2.17 2 3.64 2.25 2.64.46 5.61.44 7.71-1.23s2.71-4.2 3.46-6.62 1.83-5 4.11-6.13a3 3 0 0 0 1.06-1.5c.91-2.3-1.32-4.5-3-6.36-4-4.53-5.33-10.83-5.83-16.86-.42-5.06-.33-10.35 1.9-14.91"/>
    <path class="d" d="M69.74 101.83c-11.95 3.24-24.71 4.75-35.19 11.35-3.39 2.13-6.44 4.74-9.79 6.94-1.57 1-3.35 2-5 2.94a13.38 13.38 0 0 1-5.35 1.56c-1.74.07-3.28-1-4.74-2s-3.27-1.8-4.9-1.19-2.53 2.77-2.2 4.57a9.29 9.29 0 0 0 2.83 4.62c2.59 2.6 5.72 4.69 7.87 7.67a8 8 0 0 0 1.81 2.1c1.5 1 3.59.54 5-.5a29.36 29.36 0 0 0 3.84-3.89 48.31 48.31 0 0 1 7.53-5.69c3.58-2 7.19-4 10.91-5.78a38 38 0 0 1 7-2.66 60.88 60.88 0 0 1 7.87-1.13c5.87-.61 13.17-1.74 18.77-3.59a20.31 20.31 0 0 0 8.67-6c3.59-4.12 5.5-11.3 6.63-16.64.76-8.84 3.53-16.06 7.48-24 3.59 2.88 3.94 2.91 7.71 5.55a186 186 0 0 0-15.81 16.63 2.33 2.33 0 0 0-.55 1.31L90 97.11a1.59 1.59 0 0 0 .14.87 1.56 1.56 0 0 0 .53.46c1.06.66 3.73 2.36 4.78 3a1.09 1.09 0 0 0 .43.19 1 1 0 0 0 .6-.19 21.91 21.91 0 0 0 5.42-4.25.43.43 0 0 0 .17-.37c0-.15-.19-.22-.33-.27a6.33 6.33 0 0 0-1.22-.27 10 10 0 0 0 1.48-5.19 89.24 89.24 0 0 0 14.74-13.22c1-1.12 2.16-2.43 2.1-4s-1.34-2.83-2.55-3.86q-5.44-4.69-11.3-8.9a24.4 24.4 0 0 0-4.78-2.86c-2.7-1.11-5.56-.81-7.59-2.91a8.86 8.86 0 0 1-.42-5.71 26.53 26.53 0 0 1 2.1-5.43l-10.48.2A13.33 13.33 0 0 1 81 53.89a64.08 64.08 0 0 0-10.46.32c-1.41.17-2.67.18-4.25.24-1.81.07-2.72 0-4.28.17a143.15 143.15 0 0 1 5.48-18 9.64 9.64 0 0 0 .75-3 5.67 5.67 0 0 0-.24-1.68 15.58 15.58 0 0 0-1.1-3.74 14.11 14.11 0 0 0-2.19-3.67 14.64 14.64 0 0 0-1.15-1.45 8.23 8.23 0 0 0-2.47-1.83 5.43 5.43 0 0 0-2.33-.59 3.2 3.2 0 0 0-2.21.85 4 4 0 0 0-.94 1.78 12.6 12.6 0 0 0 .49 7.53 11.5 11.5 0 0 0 .68 1.47 7.41 7.41 0 0 0 1.57 1.9 6.55 6.55 0 0 0 2.81 1.31c-3.42 8.13-9.5 15.21-11.26 23.86a5.38 5.38 0 0 0-.11 2.22 4.13 4.13 0 0 0 2.45 2.74 11.43 11.43 0 0 0 3.72.77 129 129 0 0 0 13.48.52 59.93 59.93 0 0 1-1.16 6.06 36.48 36.48 0 0 1-5.22 13.65 34.21 34.21 0 0 0-2.57 4.24c-3.8 7.6-7.29 14.74-11.08 22.33a34.68 34.68 0 0 0-3.33 8.43c-1.06 5.17.28 10.51 1.85 15.55a166.72 166.72 0 0 0 6.78 18c1.52 3.44 2.66 7.83.24 10.71-.73.87-1.64 1.57-2.33 2.47a3.48 3.48 0 0 0-.76 3.17c.5 1.41 2.17 2 3.64 2.25 2.64.46 5.61.44 7.71-1.23s2.71-4.2 3.46-6.62 1.83-5 4.11-6.13a3 3 0 0 0 1.06-1.5c.91-2.3-1.32-4.5-3-6.36-4-4.53-5.33-10.83-5.83-16.86-.42-5.06-.33-10.35 1.9-14.91"/>
    <path d="M88.38 6.22a3.76 3.76 0 0 0-2.73-1.94 11.5 11.5 0 0 0-12.08 4.6c-.9 1.35-1.45 3.3-.36 4.5A4.2 4.2 0 0 0 68.33 15c-.89 1.63.25 4.13 2.1 4.12-1.76.25-2.73 2.18-3.22 3.9a11.23 11.23 0 0 0-.53 3.89 7.31 7.31 0 0 0 5.41 6.37 2.56 2.56 0 0 0 1.23 4.83 6.29 6.29 0 0 0 2.47 6.78 8.65 8.65 0 0 0 7.38 1 10.16 10.16 0 0 1 1.83-.46 9 9 0 0 1 1.47 0 19.5 19.5 0 0 0 5.7-.48 10.86 10.86 0 0 0 4 2.74 7.87 7.87 0 0 0 5.55.2 5.14 5.14 0 0 0 3.38-4.2 2 2 0 1 0 2.9-2.52c.64.54 1.62.14 2.34-.29a17 17 0 0 0 5.29-4.73 8.92 8.92 0 0 0 1.54-6.78 6.13 6.13 0 0 0-4.74-4.78c1.34.16 3-.74 2.78-2.06a1.9 1.9 0 0 0-1.49-1.35 5.56 5.56 0 0 0-2.11.06 6.78 6.78 0 0 0 2.68-4 8.75 8.75 0 0 0-2.91-9.17c-2.73-2-7-1.76-9.22.86a3.69 3.69 0 0 0 .23-3.78 5 5 0 0 0-3-2.43 5.81 5.81 0 0 0-6.72 2.92c.32-1.05.06-1.82-1.1-2C90 3.32 88.92 5 88.38 6.22" fill="#7a4b13" fill-rule="evenodd"/>
    <path class="d" d="M88.38 6.22a3.76 3.76 0 0 0-2.73-1.94 11.5 11.5 0 0 0-12.08 4.6c-.9 1.35-1.45 3.3-.36 4.5A4.2 4.2 0 0 0 68.33 15c-.89 1.63.25 4.13 2.1 4.12-1.76.25-2.73 2.18-3.22 3.9a11.23 11.23 0 0 0-.53 3.89 7.31 7.31 0 0 0 5.41 6.37 2.56 2.56 0 0 0 1.23 4.83 6.29 6.29 0 0 0 2.47 6.78 8.65 8.65 0 0 0 7.38 1 10.16 10.16 0 0 1 1.83-.46 9 9 0 0 1 1.47 0 19.5 19.5 0 0 0 5.7-.48 10.86 10.86 0 0 0 4 2.74 7.87 7.87 0 0 0 5.55.2 5.14 5.14 0 0 0 3.38-4.2 2 2 0 1 0 2.9-2.52c.64.54 1.62.14 2.34-.29a17 17 0 0 0 5.29-4.73 8.92 8.92 0 0 0 1.54-6.78 6.13 6.13 0 0 0-4.74-4.78c1.34.16 3-.74 2.78-2.06a1.9 1.9 0 0 0-1.49-1.35 5.56 5.56 0 0 0-2.11.06 6.78 6.78 0 0 0 2.68-4 8.75 8.75 0 0 0-2.91-9.17c-2.73-2-7-1.76-9.22.86a3.69 3.69 0 0 0 .23-3.78 5 5 0 0 0-3-2.43 5.81 5.81 0 0 0-6.72 2.92c.32-1.05.06-1.82-1.1-2C90 3.32 88.92 5 88.38 6.22z"/>
    <path class="j" d="M80.89 26.55a16.71 16.71 0 0 0-2.24 10.19C79 41 81.25 45.47 85.25 47a10.22 10.22 0 0 0 8.94-1.11 16.37 16.37 0 0 0 5.88-7.09c6.64-14.3-10-27.37-19.18-12.29"/>
    <path class="d" d="M80.89 26.55a16.71 16.71 0 0 0-2.24 10.19C79 41 81.25 45.47 85.25 47a10.22 10.22 0 0 0 8.94-1.11 16.37 16.37 0 0 0 5.88-7.09c6.64-14.26-9.98-27.33-19.18-12.25z"/>
    <path class="d" d="M84.28 32.45a.34.34 0 0 0-.39 0 .8.8 0 0 0-.2.36 2.9 2.9 0 0 0-.14.65.81.81 0 0 0 .23.77.58.58 0 0 0 .62 0 1.05 1.05 0 0 0 .44-.49 3.51 3.51 0 0 0 .3-1.44.78.78 0 0 0-.17-.63.52.52 0 0 0-.55-.07 1 1 0 0 0-.43.39 3.49 3.49 0 0 0-.47 1.26 1.47 1.47 0 0 0 0 .55.53.53 0 0 0 .3.43c.26.11.56-.1.72-.34a3 3 0 0 0 .4-1.43c0-.2 0-.44-.17-.55a.37.37 0 0 0-.41.06.84.84 0 0 0-.25.36 3.72 3.72 0 0 0-.28 1.09.73.73 0 0 0 .12.58h.08c.08 0 .1-.06.13-.11a4.69 4.69 0 0 0 .48-1.36c0-.11 0-.26-.1-.28a2.21 2.21 0 0 0-.3 1.25c-.07 0 0-.18 0-.18m9.23.89a.31.31 0 0 0-.38.09.73.73 0 0 0-.17.38 3.68 3.68 0 0 0-.06.66.82.82 0 0 0 .3.74.62.62 0 0 0 .63 0 1.16 1.16 0 0 0 .38-.54 3.42 3.42 0 0 0 .14-1.46.76.76 0 0 0-.23-.61.54.54 0 0 0-.56 0 1.15 1.15 0 0 0-.39.43 3.77 3.77 0 0 0-.33 1.32 1.4 1.4 0 0 0 0 .54.54.54 0 0 0 .34.4c.28.08.55-.16.69-.42a3 3 0 0 0 .24-1.46c0-.2 0-.44-.22-.53a.4.4 0 0 0-.41.1.91.91 0 0 0-.2.39 3.52 3.52 0 0 0-.17 1.11.73.73 0 0 0 .18.56.08.08 0 0 0 .09 0c.06 0 .09-.06.11-.12a4.48 4.48 0 0 0 .34-1.41c0-.1 0-.25-.13-.26a2.17 2.17 0 0 0-.16 1.28.11.11 0 0 1 0-.19"/>
    <path class="n" d="M84.73 41.06a16.2 16.2 0 0 0 6.48.73s-.73 3.58-3.74 3.32-2.74-4-2.74-4"/>
    <path class="d" d="M84.73 41.06a16.2 16.2 0 0 0 6.48.73s-.73 3.58-3.74 3.32-2.74-4-2.74-4zM87.38 33a19 19 0 0 1-1.09 3.85 3.75 3.75 0 0 0-.4 1.69A1.15 1.15 0 0 0 87 39.63M87.38 29A3.25 3.25 0 0 0 84 27.33 8.83 8.83 0 0 0 80.23 29M92 30.68a2.1 2.1 0 0 1 .82-.47 5.62 5.62 0 0 1 6.35 2.15"/>
    <path class="o" d="M101.19 35.54c3-12.86-11.82-22.89-20.3-9A15.5 15.5 0 0 0 79 31.21a11.8 11.8 0 0 1 22.17 4.33"/>
    <path class="d" d="M101.19 35.54c3-12.86-11.82-22.89-20.3-9A15.5 15.5 0 0 0 79 31.21a11.8 11.8 0 0 1 22.17 4.33z"/>
    <path class="o" d="M89.93 19.88l-.18.09a1 1 0 0 0-.28.39 8.09 8.09 0 0 0-.84 2.94 1.56 1.56 0 0 0 .42 1.45 1.47 1.47 0 0 0 .49.19 11.29 11.29 0 0 1 2 .17 10.53 10.53 0 0 1 2.14.63 1.14 1.14 0 0 0 .23-.3A17.9 17.9 0 0 0 95.19 22a1.94 1.94 0 0 0 .07-1 9.13 9.13 0 0 0-5.33-1.09"/>
    <path class="d" d="M89.93 19.88l-.18.09a1 1 0 0 0-.28.39 8.09 8.09 0 0 0-.84 2.94 1.56 1.56 0 0 0 .42 1.45 1.47 1.47 0 0 0 .49.19 11.29 11.29 0 0 1 2 .17 10.53 10.53 0 0 1 2.14.63 1.14 1.14 0 0 0 .23-.3A17.9 17.9 0 0 0 95.19 22a1.94 1.94 0 0 0 .07-1 9.13 9.13 0 0 0-5.33-1.09z"/>
    <path class="o" d="M88.63 23.3a8.15 8.15 0 0 1 .84-2.94 1 1 0 0 1 .28-.39l.18-.09h.13a40 40 0 0 0-3.83-4 .6.6 0 0 0-1 .11A18.86 18.86 0 0 0 81.82 22a12.62 12.62 0 0 0 7.25 2.72 1.56 1.56 0 0 1-.42-1.45"/>
    <path class="d" d="M88.63 23.3a8.15 8.15 0 0 1 .84-2.94 1 1 0 0 1 .28-.39l.18-.09h.13a40 40 0 0 0-3.83-4 .6.6 0 0 0-1 .11A18.86 18.86 0 0 0 81.82 22a12.62 12.62 0 0 0 7.25 2.72 1.56 1.56 0 0 1-.44-1.42z"/>
    <path class="o" d="M100.91 20.07a.81.81 0 0 0-.31-.57.93.93 0 0 0-.7 0 33.36 33.36 0 0 0-4.67 1.5 2.19 2.19 0 0 1-.07 1 18.61 18.61 0 0 1-1.28 3.48 1.24 1.24 0 0 1-.14.18 6.18 6.18 0 0 0 1.48.24l2.12.15a2.55 2.55 0 0 0 2-.43 2.53 2.53 0 0 0 .46-.75c.69-1.51 1.39-3.14 1-4.76"/>
    <path class="d" d="M100.91 20.07a.81.81 0 0 0-.31-.57.93.93 0 0 0-.7 0 33.36 33.36 0 0 0-4.67 1.5 2.19 2.19 0 0 1-.07 1 18.61 18.61 0 0 1-1.28 3.48 1.24 1.24 0 0 1-.14.18 6.18 6.18 0 0 0 1.48.24l2.12.15a2.55 2.55 0 0 0 2-.43 2.53 2.53 0 0 0 .46-.75c.69-1.51 1.39-3.14 1-4.76zm-35.15 7.46a18.59 18.59 0 0 0-3.12-1.8 6 6 0 0 0-1.19-.43.19.19 0 0 0-.18 0 .23.23 0 0 0-.08.11 4 4 0 0 0 1.05 4.34 9.27 9.27 0 0 1 1.59 1.33"/>
    <path class="j" d="M69.74 101.83c-11.95 3.24-24.71 4.75-35.19 11.35-3.39 2.13-6.44 4.74-9.79 6.94-1.57 1-3.35 2-5 2.94a13.38 13.38 0 0 1-5.35 1.56c-1.74.07-3.28-1-4.74-2s-3.27-1.8-4.9-1.19-2.53 2.77-2.2 4.57a9.29 9.29 0 0 0 2.83 4.62c2.59 2.6 5.72 4.69 7.87 7.67a8 8 0 0 0 1.81 2.1c1.5 1 3.59.54 5-.5a29.36 29.36 0 0 0 3.84-3.89 48.31 48.31 0 0 1 7.53-5.69c3.58-2 7.19-4 10.91-5.78a38 38 0 0 1 7-2.66 60.88 60.88 0 0 1 7.87-1.13c5.87-.61 13.17-1.74 18.77-3.59a20.31 20.31 0 0 0 8.67-6"/>
    <path class="d" d="M69.74 101.83c-11.95 3.24-24.71 4.75-35.19 11.35-3.39 2.13-6.44 4.74-9.79 6.94-1.57 1-3.35 2-5 2.94a13.38 13.38 0 0 1-5.35 1.56c-1.74.07-3.28-1-4.74-2s-3.27-1.8-4.9-1.19-2.53 2.77-2.2 4.57a9.29 9.29 0 0 0 2.83 4.62c2.59 2.6 5.72 4.69 7.87 7.67a8 8 0 0 0 1.81 2.1c1.5 1 3.59.54 5-.5a29.36 29.36 0 0 0 3.84-3.89 48.31 48.31 0 0 1 7.53-5.69c3.58-2 7.19-4 10.91-5.78a38 38 0 0 1 7-2.66 60.88 60.88 0 0 1 7.87-1.13c5.87-.61 13.17-1.74 18.77-3.59a20.31 20.31 0 0 0 8.67-6"/>
    <path class="o" d="M76 117.15a20.31 20.31 0 0 0 8.67-6c2.61-3 4.33-7.6 5.51-11.95-16.43-2.2-25.39-6.6-29.74-9.49-2.78 5.57-5.4 10.9-8.1 16.34-6.26 1.64-12.33 3.69-17.79 7.13-3.39 2.13-6.44 4.74-9.79 6.94-.54.35-1.1.7-1.68 1a14.4 14.4 0 0 1 7 10.13l1.4-.94c3.58-2 7.19-4 10.91-5.78 1.12-.53 2.25-1 3.41-1.5-.24 4.31.88 8.67 2.17 12.83a168 168 0 0 0 6.33 17 19.84 19.84 0 0 1 12-6 34.66 34.66 0 0 1-3.22-13c-.39-4.75-.31-9.69 1.54-14A74.37 74.37 0 0 0 76 117.15"/>
    <path class="d" d="M76 117.15a20.31 20.31 0 0 0 8.67-6c2.61-3 4.33-7.6 5.51-11.95-16.43-2.2-25.39-6.6-29.74-9.49-2.78 5.57-5.4 10.9-8.1 16.34-6.26 1.64-12.33 3.69-17.79 7.13-3.39 2.13-6.44 4.74-9.79 6.94-.54.35-1.1.7-1.68 1a14.4 14.4 0 0 1 7 10.13l1.4-.94c3.58-2 7.19-4 10.91-5.78 1.12-.53 2.25-1 3.41-1.5-.24 4.31.88 8.67 2.17 12.83a168 168 0 0 0 6.33 17 19.84 19.84 0 0 1 12-6 34.66 34.66 0 0 1-3.22-13c-.39-4.75-.31-9.69 1.54-14A74.37 74.37 0 0 0 76 117.15z"/>
    <path class="l" d="M92.27 99.44l3.19 2a1.09 1.09 0 0 0 .43.19 1 1 0 0 0 .6-.19 22.07 22.07 0 0 0 2.16-1.39c-2.24-.17-4.36-.38-6.38-.62"/>
    <path class="d" d="M92.27 99.44l3.19 2a1.09 1.09 0 0 0 .43.19 1 1 0 0 0 .6-.19 22.07 22.07 0 0 0 2.16-1.39c-2.24-.16-4.36-.37-6.38-.61z"/>
    <path class="o" d="M69.74 101.83c-11.95 3.24-24.71 4.75-35.19 11.35-3.39 2.13-6.44 4.74-9.79 6.94-.54.35-1.1.7-1.68 1a14.4 14.4 0 0 1 7 10.13l1.4-.94c3.58-2 7.19-4 10.91-5.78a38 38 0 0 1 7-2.66 61.13 61.13 0 0 1 7.87-1.13c5.84-.61 13.14-1.74 18.74-3.59a20.31 20.31 0 0 0 8.67-6"/>
    <path class="d" d="M69.74 101.83c-11.95 3.24-24.71 4.75-35.19 11.35-3.39 2.13-6.44 4.74-9.79 6.94-.54.35-1.1.7-1.68 1a14.4 14.4 0 0 1 7 10.13l1.4-.94c3.58-2 7.19-4 10.91-5.78a38 38 0 0 1 7-2.66 61.13 61.13 0 0 1 7.87-1.13c5.84-.61 13.14-1.74 18.74-3.59a20.31 20.31 0 0 0 8.67-6"/>
    <path d="M91.68 91.54c1.07-7.53 3.64-14 7.14-21 3.59 2.88 3.94 2.91 7.71 5.55-1 .9-1.94 1.79-2.86 2.67.38 0 .75.08 1.12.15a8.87 8.87 0 0 1 5 2.67 6.67 6.67 0 0 1 1.21 2.04c1.94-1.86 3.82-3.79 5.65-5.75 1-1.13 2.16-2.44 2.1-4s-1.34-2.83-2.55-3.87q-5.44-4.69-11.3-8.89a24.4 24.4 0 0 0-4.78-2.86c-2.57-1.06-5.27-.86-7.27-2.64a18.81 18.81 0 0 1-6.85.49 11.1 11.1 0 0 1-2.5-.51 7.27 7.27 0 0 1-2.65-1.72 64 64 0 0 0-10.36.32c-1.41.17-2.67.19-4.25.24-1.81.06-2.72 0-4.28.17.31-1.38.65-2.71 1-4a14 14 0 0 1-9.67-.37 35.8 35.8 0 0 0-3.41 9.15 5.38 5.38 0 0 0-.11 2.22 4.13 4.13 0 0 0 2.45 2.74 11.43 11.43 0 0 0 3.72.77 131.83 131.83 0 0 0 13.48.52 59.93 59.93 0 0 1-1.16 6.06 36.46 36.46 0 0 1-5.21 13.65 34.17 34.17 0 0 0-2.58 4.24l-.06.12c4.38 2.9 13.34 7.3 29.81 9.48.08-.3.16-.6.23-.9z" fill="#eaf0f6" fill-rule="evenodd"/>
    <path class="d" d="M91.68 91.54c1.07-7.53 3.64-14 7.14-21 3.59 2.88 3.94 2.91 7.71 5.55-1 .9-1.94 1.79-2.86 2.67.38 0 .75.08 1.12.15a8.87 8.87 0 0 1 5 2.67 6.67 6.67 0 0 1 1.21 2.04c1.94-1.86 3.82-3.79 5.65-5.75 1-1.13 2.16-2.44 2.1-4s-1.34-2.83-2.55-3.87q-5.44-4.69-11.3-8.89a24.4 24.4 0 0 0-4.78-2.86c-2.57-1.06-5.27-.86-7.27-2.64a18.81 18.81 0 0 1-6.85.49 11.1 11.1 0 0 1-2.5-.51 7.27 7.27 0 0 1-2.65-1.72 64 64 0 0 0-10.36.32c-1.41.17-2.67.19-4.25.24-1.81.06-2.72 0-4.28.17.31-1.38.65-2.71 1-4a14 14 0 0 1-9.67-.37 35.8 35.8 0 0 0-3.41 9.15 5.38 5.38 0 0 0-.11 2.22 4.13 4.13 0 0 0 2.45 2.74 11.43 11.43 0 0 0 3.72.77 131.83 131.83 0 0 0 13.48.52 59.93 59.93 0 0 1-1.16 6.06 36.46 36.46 0 0 1-5.21 13.65 34.17 34.17 0 0 0-2.58 4.24l-.06.12c4.38 2.9 13.34 7.3 29.81 9.48.08-.3.16-.6.23-.9z"/>
    <path class="q" d="M57.27 89.32a15.33 15.33 0 0 1-9-9.73 4.16 4.16 0 0 1-.21-1.88 4.21 4.21 0 0 1 .75-1.55c3.82-5.57 10.22-8.73 15-13.44a61.56 61.56 0 0 0 7-8.68s5.82-1.5 9.89-.35a20.59 20.59 0 0 1-5.62 9c-2.51 2.55-5.34 4.76-7.82 7.33a42.68 42.68 0 0 0-9.99 19.3"/>
    <path class="d" d="M57.27 89.32a15.33 15.33 0 0 1-9-9.73 4.16 4.16 0 0 1-.21-1.88 4.21 4.21 0 0 1 .75-1.55c3.82-5.57 10.22-8.73 15-13.44a61.56 61.56 0 0 0 7-8.68s5.82-1.5 9.89-.35a20.59 20.59 0 0 1-5.62 9c-2.51 2.55-5.34 4.76-7.82 7.33a42.68 42.68 0 0 0-9.99 19.3z"/>
    <path class="q" d="M90.7 92.22a119.38 119.38 0 0 0 2.7-32.92 11.71 11.71 0 0 0-.69-3.86 13 13 0 0 1 8.79 2.44 2.25 2.25 0 0 1 .79.89 2.51 2.51 0 0 1 .12.82c.13 4-2.55 8.31-2.09 12.42.19 1.7 3 3.36 3.48 5 1.57 5.41 4.7 10.62 4.2 16.23a1.16 1.16 0 0 1-.14.53 1.14 1.14 0 0 1-.6.4 47.92 47.92 0 0 1-16.56 3.25 13.72 13.72 0 0 1-.19-4.24l.19-1z"/>
    <path class="d" d="M90.7 92.22a119.38 119.38 0 0 0 2.7-32.92 11.71 11.71 0 0 0-.69-3.86 13 13 0 0 1 8.79 2.44 2.25 2.25 0 0 1 .79.89 2.51 2.51 0 0 1 .12.82c.13 4-2.55 8.31-2.09 12.42.19 1.7 3 3.36 3.48 5 1.57 5.41 4.7 10.62 4.2 16.23a1.16 1.16 0 0 1-.14.53 1.14 1.14 0 0 1-.6.4 47.92 47.92 0 0 1-16.56 3.25 13.72 13.72 0 0 1-.19-4.24l.19-1z"/>
    <path class="j" d="M104.79 78.87c-.37-.07-.75-.11-1.12-.15-4.65 4.47-8.55 8.9-13 14a2.26 2.26 0 0 0-.54 1.28L90 97.11a1.5 1.5 0 0 0 .14.87 1.58 1.58 0 0 0 .53.46c1 .66 3.73 2.36 4.78 3a1.09 1.09 0 0 0 .43.19 1 1 0 0 0 .6-.19 22.33 22.33 0 0 0 5.43-4.25c.09-.11.2-.23.17-.37s-.19-.22-.34-.27a5.66 5.66 0 0 0-1.22-.27 10 10 0 0 0 1.48-5.19 70.49 70.49 0 0 0 9-7.47 6.67 6.67 0 0 0-1.25-2.08 8.87 8.87 0 0 0-5-2.67"/>
    <path class="d" d="M104.79 78.87c-.37-.07-.75-.11-1.12-.15-4.65 4.47-8.55 8.9-13 14a2.26 2.26 0 0 0-.54 1.28L90 97.11a1.5 1.5 0 0 0 .14.87 1.58 1.58 0 0 0 .53.46c1 .66 3.73 2.36 4.78 3a1.09 1.09 0 0 0 .43.19 1 1 0 0 0 .6-.19 22.33 22.33 0 0 0 5.43-4.25c.09-.11.2-.23.17-.37s-.19-.22-.34-.27a5.66 5.66 0 0 0-1.22-.27 10 10 0 0 0 1.48-5.19 70.49 70.49 0 0 0 9-7.47 6.67 6.67 0 0 0-1.25-2.08 8.87 8.87 0 0 0-5-2.67z"/>
    <path d="M68.29 71.7c.22-1.13.49-2.22.72-3.32-.56.53-1.12 1.07-1.66 1.62a41.8 41.8 0 0 0-8.92 15.28 7.54 7.54 0 0 1 4.58.17l.06-.1a36.31 36.31 0 0 0 5.22-13.65" fill="#e86e4b" fill-rule="evenodd"/>
    <path class="d" d="M68.29 71.7c.22-1.13.49-2.22.72-3.32-.56.53-1.12 1.07-1.66 1.62a41.8 41.8 0 0 0-8.92 15.28 7.54 7.54 0 0 1 4.58.17l.06-.1a36.31 36.31 0 0 0 5.22-13.65z"/>
    <path class="q" d="M20.14 139.89a10.18 10.18 0 0 0 1.35-1.19c-.21-.23-.42-.45-.64-.67q-5.28-5.31-11-10.12a4 4 0 0 1-1.39-1.67 2.46 2.46 0 0 1 1.84-3h.32l-.93-.6c-1.47-.95-3.27-1.81-4.9-1.19S2.24 124.2 2.57 126a9.33 9.33 0 0 0 2.83 4.62c2.59 2.6 5.72 4.69 7.87 7.67a7.82 7.82 0 0 0 1.82 2.1c1.49 1 3.58.54 5.05-.5"/>
    <path class="d" d="M20.14 139.89a10.18 10.18 0 0 0 1.35-1.19c-.21-.23-.42-.45-.64-.67q-5.28-5.31-11-10.12a4 4 0 0 1-1.39-1.67 2.46 2.46 0 0 1 1.84-3h.32l-.93-.6c-1.47-.95-3.27-1.81-4.9-1.19S2.24 124.2 2.57 126a9.33 9.33 0 0 0 2.83 4.62c2.59 2.6 5.72 4.69 7.87 7.67a7.82 7.82 0 0 0 1.82 2.1c1.49 1 3.58.54 5.05-.5z"/>
    <path class="q" d="M63.22 171.31c2-1.58 2.71-4.21 3.46-6.62s1.83-5 4.11-6.13a3 3 0 0 0 1.06-1.5c.75-1.9-.64-3.73-2.07-5.35a16.4 16.4 0 0 0-5.39 5.29c-1.1 1.82-1.61 3.93-2.55 5.84s-2.53 3.72-4.64 4a2.09 2.09 0 0 1-1.41-.24 2.06 2.06 0 0 1-.7-2.11 2.14 2.14 0 0 1-.13.19c-.73.86-1.64 1.57-2.33 2.47a3.48 3.48 0 0 0-.76 3.17c.5 1.41 2.17 2 3.64 2.25 2.64.46 5.61.44 7.71-1.23"/>
    <path class="d" d="M63.22 171.31c2-1.58 2.71-4.21 3.46-6.62s1.83-5 4.11-6.13a3 3 0 0 0 1.06-1.5c.75-1.9-.64-3.73-2.07-5.35a16.4 16.4 0 0 0-5.39 5.29c-1.1 1.82-1.61 3.93-2.55 5.84s-2.53 3.72-4.64 4a2.09 2.09 0 0 1-1.41-.24 2.06 2.06 0 0 1-.7-2.11 2.14 2.14 0 0 1-.13.19c-.73.86-1.64 1.57-2.33 2.47a3.48 3.48 0 0 0-.76 3.17c.5 1.41 2.17 2 3.64 2.25 2.64.43 5.61.43 7.71-1.26z"/>
    <path class="h" d="M100.29 71.66a30.11 30.11 0 0 0-4.81 4.7 4.77 4.77 0 0 0-1.27 2.17c-.28 1.55.88 3 2 4.06A83.12 83.12 0 0 0 111 93.43c.22 2 .66 6 1.54 7.94a5.43 5.43 0 0 0 .57.92 2.06 2.06 0 0 0 1.74.58 12.41 12.41 0 0 0 6-2.08 5 5 0 0 0 1.29-1.34 4.13 4.13 0 0 0-.42-4.19A51.1 51.1 0 0 0 117 90c-1.12-1.12-1-.69-1.85-2.06a98.06 98.06 0 0 0-8.59-11.87z"/>
    <path class="d" d="M100.29 71.66a30.11 30.11 0 0 0-4.81 4.7 4.77 4.77 0 0 0-1.27 2.17c-.28 1.55.88 3 2 4.06A83.12 83.12 0 0 0 111 93.43c.22 2 .66 6 1.54 7.94a5.43 5.43 0 0 0 .57.92 2.06 2.06 0 0 0 1.74.58 12.41 12.41 0 0 0 6-2.08 5 5 0 0 0 1.29-1.34 4.13 4.13 0 0 0-.42-4.19A51.1 51.1 0 0 0 117 90c-1.12-1.12-1-.69-1.85-2.06a98.06 98.06 0 0 0-8.59-11.87z"/>
    <path class="f" d="M205.76 28.6a14.09 14.09 0 0 0-2.39-6 10 10 0 0 0-5.21-3.44c-1.25-.33-1.85-.47-2.88-.65a9.2 9.2 0 0 0-3.84.4 11.06 11.06 0 0 0-2.47 1 11.14 11.14 0 0 0-4.57 4.8 22.51 22.51 0 0 0-1.47 3.1c-1.37 3.72-1.1 7.86-.22 11.73a16.36 16.36 0 0 0 1.7 4.69 24.41 24.41 0 0 1 1.15 7.44c0 .26-.42 3.45-.45 3.72a6.14 6.14 0 0 0 0 2 4.48 4.48 0 0 0 1 1.78 8.26 8.26 0 0 0 10.34 1.67 4.12 4.12 0 0 0 1.84-2.05 36.31 36.31 0 0 0 .58-5c.31-6.23 2.88-7.89 2.88-7.89a13.92 13.92 0 0 0 1.11-1.81 24.61 24.61 0 0 0 2.9-15.46"/>
    <path class="d" d="M205.76 28.6a14.09 14.09 0 0 0-2.39-6 10 10 0 0 0-5.21-3.44c-1.25-.33-1.85-.47-2.88-.65a9.2 9.2 0 0 0-3.84.4 11.06 11.06 0 0 0-2.47 1 11.14 11.14 0 0 0-4.57 4.8 22.51 22.51 0 0 0-1.47 3.1c-1.37 3.72-1.1 7.86-.22 11.73a16.36 16.36 0 0 0 1.7 4.69 24.41 24.41 0 0 1 1.15 7.44c0 .26-.42 3.45-.45 3.72a6.14 6.14 0 0 0 0 2 4.48 4.48 0 0 0 1 1.78 8.26 8.26 0 0 0 10.34 1.67 4.12 4.12 0 0 0 1.84-2.05 36.31 36.31 0 0 0 .58-5c.31-6.23 2.88-7.89 2.88-7.89a13.92 13.92 0 0 0 1.11-1.81 24.61 24.61 0 0 0 2.9-15.46z"/>
    <path d="M182.45 29.4c-.15-4-.68-9.59.23-10.43 1.57-1.43 9.67-1.3 12.66-.92l1.32.18c3 .38 10.85 2.33 12 4.12s-3 14.46-3 14.46c-.06.19-.24.8-.32 1.08a15.46 15.46 0 0 0-3.09 2.29c-.81-.89.77-2.22-3.33 1.14.24-1.28 1.94-8.14 2.18-9.43a48.91 48.91 0 0 1-18.64-2.49" fill="#486e94" fill-rule="evenodd"/>
    <path class="d" d="M182.45 29.4c-.15-4-.68-9.59.23-10.43 1.57-1.43 9.67-1.3 12.66-.92l1.32.18c3 .38 10.85 2.33 12 4.12s-3 14.46-3 14.46c-.06.19-.24.8-.32 1.08a15.46 15.46 0 0 0-3.09 2.29c-.81-.89.77-2.22-3.33 1.14.24-1.28 1.94-8.14 2.18-9.43a48.91 48.91 0 0 1-18.64-2.49zm26.21-7s3.25 5.16-23.53-1.58"/>
    <path class="f" d="M198.62 46.94c-2 3.54-7.07 4.08-11.09 3.38a5.5 5.5 0 0 1-2.89-1.32 6.72 6.72 0 0 1-1.55-2.77 30.71 30.71 0 0 1-.9-15.64"/>
    <path class="d" d="M198.62 46.94c-2 3.54-7.07 4.08-11.09 3.38a5.5 5.5 0 0 1-2.89-1.32 6.72 6.72 0 0 1-1.55-2.77 30.71 30.71 0 0 1-.9-15.64"/>
    <path class="f" d="M199.78 44.58a2.22 2.22 0 0 0 1.4 1.42 2.75 2.75 0 0 0 1.07 0 4.87 4.87 0 0 0 2.52-1.68 7.27 7.27 0 0 0 2-4.42A2.12 2.12 0 0 0 206 38a2 2 0 0 0-1.31-.23 2.91 2.91 0 0 0-.59.1 5.79 5.79 0 0 0-2.75 1.62"/>
    <path class="d" d="M199.78 44.58a2.22 2.22 0 0 0 1.4 1.42 2.75 2.75 0 0 0 1.07 0 4.87 4.87 0 0 0 2.52-1.68 7.27 7.27 0 0 0 2-4.42A2.12 2.12 0 0 0 206 38a2 2 0 0 0-1.31-.23 2.91 2.91 0 0 0-.59.1 5.79 5.79 0 0 0-2.75 1.62M185 35.16a.17.17 0 0 0-.18-.19.27.27 0 0 0-.24.17.66.66 0 0 0-.06.31v.68a2.53 2.53 0 0 0 .12.77.89.89 0 0 0 .54.53.22.22 0 0 0 .11 0c.09 0 .12-.12.14-.21a3.41 3.41 0 0 0 .12-2 .82.82 0 0 0-.2-.35.41.41 0 0 0-.38-.1.56.56 0 0 0-.31.39 2.46 2.46 0 0 0 .29 2.17c.07.11.19.21.3.15a.27.27 0 0 0 .09-.12 2.53 2.53 0 0 0 0-2c-.07-.18-.21-.38-.4-.36s-.29.24-.34.43a2.79 2.79 0 0 0 .25 1.84.68.68 0 0 0 .18.23.24.24 0 0 0 .26 0 .38.38 0 0 0 .13-.21 3.13 3.13 0 0 0-.24-2.38c-.19.05-.28.26-.32.45a2.74 2.74 0 0 0 .12 1.65.59.59 0 0 0 .18.28.24.24 0 0 0 .31 0 .33.33 0 0 0 .05-.15 2.59 2.59 0 0 0-.12-1.17.49.49 0 0 0-.3-.35 2.81 2.81 0 0 0 0 1.32.71.71 0 0 0 .12-.67l-.11.21m8.68 0a.18.18 0 0 0-.17-.21.29.29 0 0 0-.26.15.79.79 0 0 0-.08.3c0 .22-.06.45-.08.67a2 2 0 0 0 .05.78.85.85 0 0 0 .48.58.14.14 0 0 0 .11 0c.09 0 .13-.11.16-.19a3.5 3.5 0 0 0 .31-2 .91.91 0 0 0-.18-.37.38.38 0 0 0-.36-.13c-.17 0-.28.2-.35.35a2.48 2.48 0 0 0 .08 2.19c.06.11.18.23.29.18a.36.36 0 0 0 .1-.11 2.52 2.52 0 0 0 .24-2c-.05-.19-.17-.39-.36-.4s-.32.21-.38.4a2.83 2.83 0 0 0 .07 1.86.65.65 0 0 0 .15.24.27.27 0 0 0 .27.05.37.37 0 0 0 .14-.2 3.14 3.14 0 0 0 0-2.39c-.19 0-.3.23-.37.42a2.9 2.9 0 0 0 0 1.65.52.52 0 0 0 .16.29.22.22 0 0 0 .3 0 .35.35 0 0 0 .07-.15 2.44 2.44 0 0 0 0-1.17.49.49 0 0 0-.18-.27 2.54 2.54 0 0 0-.08 1.31.7.7 0 0 0 .17-.65l-.12.19M183 33.1a3.12 3.12 0 0 1 2.05-.71 3.35 3.35 0 0 1 2.27 1.06m4.64 1.09a3.11 3.11 0 0 1 4.06.15l.25.26m-8.3 2.76a23.23 23.23 0 0 0-1.22 3.7 1.64 1.64 0 0 0-.06.76.59.59 0 0 0 .53.48"/>
    <path class="n" d="M191.93 45.43a12.86 12.86 0 0 1-2 .17h-1.31a11.47 11.47 0 0 1-1.93-.34 3.18 3.18 0 0 0 .6 2 2.25 2.25 0 0 0 .76.75 2.17 2.17 0 0 0 1.11.29 2.24 2.24 0 0 0 1.14-.19 2.49 2.49 0 0 0 .81-.68 3.16 3.16 0 0 0 .78-1.92"/>
    <path class="d" d="M191.93 45.43a12.86 12.86 0 0 1-2 .17h-1.31a11.47 11.47 0 0 1-1.93-.34 3.18 3.18 0 0 0 .6 2 2.25 2.25 0 0 0 .76.75 2.17 2.17 0 0 0 1.11.29 2.24 2.24 0 0 0 1.14-.19 2.49 2.49 0 0 0 .81-.68 3.16 3.16 0 0 0 .78-1.92z"/>
    <path class="l" d="M173 61.15a32.87 32.87 0 0 0 6.35.07c.54 0 1.81-.24 1.8-1s-1.27-.59-1.8-.53a24.1 24.1 0 0 0-3 .56c-.84.2-2.36.67-3.32.93"/>
    <path class="t" d="M173 61.15a32.87 32.87 0 0 0 6.35.07c.54 0 1.81-.24 1.8-1s-1.27-.59-1.8-.53a24.1 24.1 0 0 0-3 .56c-.84.17-2.35.64-3.35.9z"/>
    <path class="l" d="M209 64.18a33.49 33.49 0 0 1-6.29-.84c-.53-.13-1.76-.5-1.63-1.28s1.33-.4 1.85-.26a24 24 0 0 1 2.93 1c.79.32 2.23 1 3.14 1.4"/>
    <path class="t" d="M209 64.18a33.49 33.49 0 0 1-6.29-.84c-.53-.13-1.76-.5-1.63-1.28s1.33-.4 1.85-.26a24 24 0 0 1 2.93 1c.83.3 2.27.98 3.14 1.38z"/>
    <path class="l" d="M176.43 68a32.71 32.71 0 0 0 5.73-2.73c.47-.28 1.52-1 1.16-1.72s-1.39 0-1.84.32a23.4 23.4 0 0 0-2.48 1.81c-.66.54-1.82 1.64-2.57 2.29"/>
    <path class="t" d="M176.43 68a32.71 32.71 0 0 0 5.73-2.73c.47-.28 1.52-1 1.16-1.72s-1.39 0-1.84.32a23.4 23.4 0 0 0-2.48 1.81c-.66.54-1.82 1.64-2.57 2.29z"/>
    <path class="l" d="M182 72.69a33.38 33.38 0 0 0 4.34-4.63c.33-.44 1.05-1.5.45-2s-1.28.54-1.6 1a24.32 24.32 0 0 0-1.64 2.61c-.41.75-1.1 2.19-1.55 3.07"/>
    <path class="t" d="M182 72.69a33.38 33.38 0 0 0 4.34-4.63c.33-.44 1.05-1.5.45-2s-1.28.54-1.6 1a24.32 24.32 0 0 0-1.64 2.61c-.41.75-1.1 2.19-1.55 3.07z"/>
    <path class="l" d="M203.38 71.46a32.3 32.3 0 0 1-4.58-4.4c-.36-.41-1.13-1.44-.56-2s1.31.46 1.65.88a23.27 23.27 0 0 1 1.77 2.52c.46.73 1.22 2.13 1.72 3"/>
    <path class="t" d="M203.38 71.46a32.3 32.3 0 0 1-4.58-4.4c-.36-.41-1.13-1.44-.56-2s1.31.46 1.65.88a23.27 23.27 0 0 1 1.77 2.52c.46.74 1.22 2.14 1.72 3z"/>
    <path class="l" d="M197.19 74.8a32.3 32.3 0 0 0-1.25-6.23c-.15-.52-.61-1.72-1.37-1.55s-.32 1.36-.15 1.87a24.36 24.36 0 0 0 1.17 2.85c.37.78 1.14 2.17 1.6 3.06"/>
    <path class="t" d="M197.19 74.8a32.3 32.3 0 0 0-1.25-6.23c-.15-.52-.61-1.72-1.37-1.55s-.32 1.36-.15 1.87a24.36 24.36 0 0 0 1.17 2.85c.37.78 1.14 2.17 1.6 3.06z"/>
    <path class="l" d="M188.62 75.24a33.71 33.71 0 0 0 2.38-5.88c.15-.53.44-1.78-.3-2s-1 1-1.15 1.47a22.52 22.52 0 0 0-.59 3c-.12.85-.24 2.44-.35 3.43"/>
    <path class="t" d="M188.62 75.24a33.71 33.71 0 0 0 2.38-5.88c.15-.53.44-1.78-.3-2s-1 1-1.15 1.47a22.52 22.52 0 0 0-.59 3c-.12.85-.24 2.44-.35 3.43z"/>
    <path class="u" d="M170.54 99.68c.08-.68.16-1.38.25-2.1-1 8.1-.92 13.25-3.83 21.66-.83.44-1.67.87-2.49 1.33a56.88 56.88 0 0 0-10.19 6.62 63.11 63.11 0 0 0-7.3 7.94l-12.54 15.32a3.7 3.7 0 0 0-1.06 2.07 3.45 3.45 0 0 0 .64 1.88 20.3 20.3 0 0 0 7.4 7.26 3.77 3.77 0 0 0 3.17.16 5.73 5.73 0 0 0 2.07-1.63q7.38-8 14.2-16.43a40.89 40.89 0 0 1 5.45-5.17c4.74 11.12 12.84 20.44 20.81 29.54.87 1 3.16 3.56 3.9 3.67s2.56-1.09 3.8-2c2-1.42 2.81-2.08 4.53-3.51.58-.48 2.84-2.11 3-2.83.25-.93-.84-2.12-1.41-2.89-5.65-7.51-8.5-11.16-12.78-16.89a39 39 0 0 1-4.74-7.12c-1.18-2.61-1.72-4.42.14-5.67a50.26 50.26 0 0 0 4.63-2.58c3.87-2.46 14-7.91 15.82-12.13a19.25 19.25 0 0 0 1.87-5.9 64.84 64.84 0 0 0 .38-7.18 62.75 62.75 0 0 1-35.76-3.43"/>
    <path class="d" d="M170.54 99.68c.08-.68.16-1.38.25-2.1-1 8.1-.92 13.25-3.83 21.66-.83.44-1.67.87-2.49 1.33a56.88 56.88 0 0 0-10.19 6.62 63.11 63.11 0 0 0-7.3 7.94l-12.54 15.32a3.7 3.7 0 0 0-1.06 2.07 3.45 3.45 0 0 0 .64 1.88 20.3 20.3 0 0 0 7.4 7.26 3.77 3.77 0 0 0 3.17.16 5.73 5.73 0 0 0 2.07-1.63q7.38-8 14.2-16.43a40.89 40.89 0 0 1 5.45-5.17c4.74 11.12 12.84 20.44 20.81 29.54.87 1 3.16 3.56 3.9 3.67s2.56-1.09 3.8-2c2-1.42 2.81-2.08 4.53-3.51.58-.48 2.84-2.11 3-2.83.25-.93-.84-2.12-1.41-2.89-5.65-7.51-8.5-11.16-12.78-16.89a39 39 0 0 1-4.74-7.12c-1.18-2.61-1.72-4.42.14-5.67a50.26 50.26 0 0 0 4.63-2.58c3.87-2.46 14-7.91 15.82-12.13a19.25 19.25 0 0 0 1.87-5.9 64.84 64.84 0 0 0 .38-7.18 62.75 62.75 0 0 1-35.76-3.43z"/>
    <path class="c" d="M137.34 150.39a7.53 7.53 0 0 1-5.59 3.77c-3 .37-6.06-1.15-9.1-.83s-5.69 2.5-7.59 5a2 2 0 0 0-.56 1.34 1.93 1.93 0 0 0 .76 1.15 34.23 34.23 0 0 0 8.14 4.88l13.6 6.49a2.15 2.15 0 0 0 1 .3 2 2 0 0 0 1.07-.5 14.58 14.58 0 0 0 2.72-3.28l8.93-13.23z"/>
    <path class="d" d="M137.34 150.39a7.53 7.53 0 0 1-5.59 3.77c-3 .37-6.06-1.15-9.1-.83s-5.69 2.5-7.59 5a2 2 0 0 0-.56 1.34 1.93 1.93 0 0 0 .76 1.15 34.23 34.23 0 0 0 8.14 4.88l13.6 6.49a2.15 2.15 0 0 0 1 .3 2 2 0 0 0 1.07-.5 14.58 14.58 0 0 0 2.72-3.28l8.93-13.23z"/>
    <path class="e" d="M119.71 159.44a19.78 19.78 0 0 1-3.12-2.89 18 18 0 0 0-1.53 1.74 2 2 0 0 0-.56 1.34 1.93 1.93 0 0 0 .76 1.15 34.23 34.23 0 0 0 8.14 4.88l13.6 6.53a2.28 2.28 0 0 0 1 .3 2 2 0 0 0 1.07-.5 11.07 11.07 0 0 0 1.91-2.13c-8.12-3.29-18.46-8.49-21.31-10.42"/>
    <path class="d" d="M119.71 159.44a19.78 19.78 0 0 1-3.12-2.89 18 18 0 0 0-1.53 1.74 2 2 0 0 0-.56 1.34 1.93 1.93 0 0 0 .76 1.15 34.23 34.23 0 0 0 8.14 4.88l13.6 6.53a2.28 2.28 0 0 0 1 .3 2 2 0 0 0 1.07-.5 11.07 11.07 0 0 0 1.91-2.13c-8.12-3.29-18.46-8.49-21.31-10.42z"/>
    <path class="u" d="M188.4 108.74q-12.19 5.42-23.93 11.83a56.88 56.88 0 0 0-10.19 6.62 63.11 63.11 0 0 0-7.3 7.94l-12.54 15.32a3.7 3.7 0 0 0-1.06 2.07 3.45 3.45 0 0 0 .64 1.88c1.8 3 5.24 5.8 8.52 7.76.93.55 2.3 1.37 3.31 1a7.06 7.06 0 0 0 2.28-2.24c4.68-6.16 8.18-11.53 12.73-17.17a40.07 40.07 0 0 1 6.56-6c7.08-3.15 14.27-5.29 20.81-9.44 3.87-2.47 14-7.91 15.82-12.13a19.34 19.34 0 0 0 1.87-5.9"/>
    <path class="d" d="M188.4 108.74q-12.19 5.42-23.93 11.83a56.88 56.88 0 0 0-10.19 6.62 63.11 63.11 0 0 0-7.3 7.94l-12.54 15.32a3.7 3.7 0 0 0-1.06 2.07 3.45 3.45 0 0 0 .64 1.88c1.8 3 5.24 5.8 8.52 7.76.93.55 2.3 1.37 3.31 1a7.06 7.06 0 0 0 2.28-2.24c4.68-6.16 8.18-11.53 12.73-17.17a40.07 40.07 0 0 1 6.56-6c7.08-3.15 14.27-5.29 20.81-9.44 3.87-2.47 14-7.91 15.82-12.13a19.34 19.34 0 0 0 1.87-5.9"/>
    <path class="f" d="M151.1 75.94c-2.09.58-3.09 2-4 3.92a6.83 6.83 0 0 0-.74 3.61 5.81 5.81 0 0 0 2.6 3.91c3.74 2.75 15.19 9.45 21.05 11.24a31.12 31.12 0 0 0 3.61 7 3.27 3.27 0 0 0 1.36 1 3.13 3.13 0 0 0 1.84-.1 17.34 17.34 0 0 0 6.24-4.17 4.85 4.85 0 0 0 .92-1.62c.41-1.42-1.26-3.59-2.35-4.59a50.94 50.94 0 0 0-5.85-4c-1.37-.8-1.19-.4-2.3-1.54-3.78-3.84-11.62-10.34-15.8-12.67-1.67-.93-4.72-2.62-6.56-2.1"/>
    <path class="d" d="M151.1 75.94c-2.09.58-3.09 2-4 3.92a6.83 6.83 0 0 0-.74 3.61 5.81 5.81 0 0 0 2.6 3.91c3.74 2.75 15.19 9.45 21.05 11.24a31.12 31.12 0 0 0 3.61 7 3.27 3.27 0 0 0 1.36 1 3.13 3.13 0 0 0 1.84-.1 17.34 17.34 0 0 0 6.24-4.17 4.85 4.85 0 0 0 .92-1.62c.41-1.42-1.26-3.59-2.35-4.59a50.94 50.94 0 0 0-5.85-4c-1.37-.8-1.19-.4-2.3-1.54-3.78-3.84-11.62-10.34-15.8-12.67-1.67-.93-4.72-2.62-6.56-2.1z"/>
    <path class="g" d="M212.88 80.86c1.47 1.11 3 2.2 4.41 3.22a161.63 161.63 0 0 0-14.72 15.34 2.19 2.19 0 0 0-.54 1.3l-.13 3.12a1.59 1.59 0 0 0 .14.87 1.68 1.68 0 0 0 .53.46c1.06.65 5.41 3.66 6.47 4.32a1 1 0 0 0 .43.18 1 1 0 0 0 .6-.18 22.38 22.38 0 0 0 5.42-4.26.43.43 0 0 0 .17-.37c0-.14-.19-.22-.33-.27a6.41 6.41 0 0 0-1.23-.26 10 10 0 0 0 1.43-5.18c5.46-3.71 11.09-7.81 15.61-12.64 1.05-1.13 2.17-2.44 2.11-4a3.31 3.31 0 0 0-.36-1.35c-1.62-2.62-5.9-6.47-9.94-9.91"/>
    <path class="d" d="M212.88 80.86c1.47 1.11 3 2.2 4.41 3.22a161.63 161.63 0 0 0-14.72 15.34 2.19 2.19 0 0 0-.54 1.3l-.13 3.12a1.59 1.59 0 0 0 .14.87 1.68 1.68 0 0 0 .53.46c1.06.65 5.41 3.66 6.47 4.32a1 1 0 0 0 .43.18 1 1 0 0 0 .6-.18 22.38 22.38 0 0 0 5.42-4.26.43.43 0 0 0 .17-.37c0-.14-.19-.22-.33-.27a6.41 6.41 0 0 0-1.23-.26 10 10 0 0 0 1.43-5.18c5.46-3.71 11.09-7.81 15.61-12.64 1.05-1.13 2.17-2.44 2.11-4a3.31 3.31 0 0 0-.36-1.35c-1.62-2.62-5.9-6.47-9.94-9.91"/>
    <path class="f" d="M207.87 93.46c-1.66 1.81-3.35 3.73-5.3 6a2.27 2.27 0 0 0-.55 1.3l-.12 3.12a1.59 1.59 0 0 0 .14.87 1.68 1.68 0 0 0 .53.46c1.06.65 5.41 3.66 6.47 4.32a1 1 0 0 0 .43.18 1 1 0 0 0 .6-.18 22.38 22.38 0 0 0 5.42-4.26.43.43 0 0 0 .17-.37c0-.15-.19-.22-.33-.27a6.41 6.41 0 0 0-1.23-.26 9.9 9.9 0 0 0 1.44-5.18c-5-1-6.94-3.74-7.66-5.67"/>
    <path class="d" d="M207.87 93.46c-1.66 1.81-3.35 3.73-5.3 6a2.27 2.27 0 0 0-.55 1.3l-.12 3.12a1.59 1.59 0 0 0 .14.87 1.68 1.68 0 0 0 .53.46c1.06.65 5.41 3.66 6.47 4.32a1 1 0 0 0 .43.18 1 1 0 0 0 .6-.18 22.38 22.38 0 0 0 5.42-4.26.43.43 0 0 0 .17-.37c0-.15-.19-.22-.33-.27a6.41 6.41 0 0 0-1.23-.26 9.9 9.9 0 0 0 1.44-5.18c-5-1-6.94-3.74-7.66-5.67z"/>
    <path class="g" d="M175.76 92.25c-1.37-.8-1.19-.4-2.3-1.54-3.79-3.84-11.62-10.34-15.8-12.67-1.67-.93-4.72-2.62-6.56-2.1-2.09.58-3.09 2-4 3.92a6.83 6.83 0 0 0-.74 3.61 5.81 5.81 0 0 0 2.6 3.91c3.74 2.75 15.19 9.45 21.05 11.24 1.27-5.75 5.77-6.36 5.77-6.36"/>
    <path class="d" d="M175.76 92.25c-1.37-.8-1.19-.4-2.3-1.54-3.79-3.84-11.62-10.34-15.8-12.67-1.67-.93-4.72-2.62-6.56-2.1-2.09.58-3.09 2-4 3.92a6.83 6.83 0 0 0-.74 3.61 5.81 5.81 0 0 0 2.6 3.91c3.74 2.75 15.19 9.45 21.05 11.24 1.27-5.75 5.77-6.36 5.77-6.36z"/>
</svg>
