<svg viewBox="0 0 374 305" xmlns="http://www.w3.org/2000/svg" xmlns:xlink="http://www.w3.org/1999/xlink">
    <title>
        Welcome
    </title>
    <defs>
        <path d="M.984 6.2c3.661.896 4.388 1.625 5.286 5.292.896-3.667 1.623-4.396 5.282-5.292C7.893 5.303 7.166 4.575 6.27.909 5.372 4.575 4.645 5.303.984 6.2z" id="a"/>
        <path d="M.004 11.099c7.149 1.754 8.569 3.174 10.319 10.331 1.752-7.157 3.169-8.577 10.318-10.331-7.149-1.752-8.566-3.173-10.318-10.33-1.75 7.157-3.17 8.578-10.319 10.33z" id="c"/>
        <path d="M.755 5.636c3.661.899 4.388 1.626 5.286 5.291.895-3.665 1.623-4.392 5.284-5.291C7.664 4.74 6.936 4.011 6.041.347 5.143 4.011 4.416 4.74.755 5.636z" id="e"/>
        <path d="M.35 7.028c4.524 1.11 5.42 2.008 6.529 6.538 1.108-4.53 2.005-5.428 6.529-6.538C8.884 5.919 7.987 5.02 6.879.491 5.77 5.02 4.874 5.919.35 7.028z" id="g"/>
        <path d="M.935 9.369c5.917 1.476 7.093 2.672 8.543 8.693 1.449-6.021 2.624-7.217 8.542-8.693-5.918-1.474-7.093-2.671-8.542-8.692C8.028 6.698 6.852 7.895.935 9.369z" id="i"/>
    </defs>
    <g fill="none" fill-rule="evenodd">
        <path d="M193.62 120.778c-3.993-2.304-10.527-2.304-14.52 0L74.563 181.133c-3.993 2.306-3.972 6.041.047 8.303l104.447 58.785c4.017 2.262 10.591 2.262 14.609 0l104.447-58.785c4.018-2.262 4.04-5.997.046-8.303L193.62 120.778z" fill-opacity=".2" fill="#6976D4"/>
        <path d="M180.346 79.56l-.01.005.01-.005zm-1.507.004c.003 0 .006.003.01.005l-.01-.005zm-2.904 2.543l-.003.002.003-.002zm-.005 126.479l.003.002-.003-.002zm.752.435l2.907 1.679 2.908-1.68v-89.618l17.412 10.05v7.6c0 1.64 1.294 3.882 2.714 4.7l42.029 24.275c.487.28.903.444 1.214.523v-28.085c0-1.64-1.294-3.88-2.714-4.7l-43.042-24.856c-1.591-.915-3.201-2.763-3.201-4.525 0-.986.436-1.803 1.195-2.244.602-.347 1.318-.411 2.048-.19-.118-.191-.254-.346-.376-.416l-17.279-9.974v-9.885l-2.908-1.678-2.907 1.678V209.02zm3.648 2.106l.009.005-.009-.005zm-1.488.004c-.003 0-.006.003-.01.005l.01-.005zm.747 3.8c-.441 0-.875-.116-1.257-.338l-4.4-2.541a2.503 2.503 0 0 1-1.25-2.165V80.809c0-.892.479-1.721 1.252-2.166l4.405-2.544a2.511 2.511 0 0 1 2.507.004l4.401 2.54a2.503 2.503 0 0 1 1.25 2.166v8.44l15.278 8.82c1.549.893 2.674 2.897 2.674 4.764 0 1.306-.584 2.405-1.608 3.032l1.983 1.153 40.328 23.282c2.687 1.553 4.714 5.063 4.714 8.165v28.723c0 1.236-.62 2.332-1.657 2.932-1.406.813-3.451.587-5.558-.63l-42.028-24.273c-2.687-1.552-4.714-5.061-4.714-8.165v-5.29l-9.412-5.432v83.557c0 .892-.479 1.72-1.252 2.166l-4.406 2.544a2.492 2.492 0 0 1-1.25.335z" fill="#33475C"/>
        <path fill="#F29E75" d="M198.276 98.793l1.828.991.98.867.468 1.106.069.958-.571.444-1.003-.297-.832-.125-.94.342z"/>
        <path fill="#D29B6A" d="M175.109 80.309l4.407-2.545 4.408 2.545-4.408 2.545z"/>
        <path d="M176.109 80.309l3.407 1.968 3.408-1.968-3.408-1.968-3.407 1.968zm3.407 3.045a.506.506 0 0 1-.25-.067l-4.407-2.545a.5.5 0 0 1 0-.866l4.407-2.545a.502.502 0 0 1 .5 0l4.408 2.545a.499.499 0 0 1 0 .866l-4.408 2.545a.506.506 0 0 1-.25.067z" fill="#33475C"/>
        <path fill="#C78244" d="M179.516 211.932V82.854l-4.407-2.545v129.078z"/>
        <path d="M175.609 209.098l3.407 1.968V83.143l-3.407-1.968v127.923zm3.907 3.334a.496.496 0 0 1-.25-.067l-4.407-2.545a.5.5 0 0 1-.25-.433V80.309a.5.5 0 0 1 .75-.433l4.407 2.545c.155.089.25.254.25.433v129.078a.499.499 0 0 1-.5.5z" fill="#33475C"/>
        <path fill="#B27039" d="M183.924 209.387V80.309l-4.408 2.545v129.078z"/>
        <path d="M183.924 209.387h.01-.01zm-3.908-126.244v127.923l3.408-1.968V81.175l-3.408 1.968zm-.5 129.289a.5.5 0 0 1-.5-.5V82.854a.5.5 0 0 1 .25-.433l4.408-2.545a.5.5 0 0 1 .75.433v129.078a.5.5 0 0 1-.25.433l-4.408 2.545a.506.506 0 0 1-.25.067z" fill="#33475C"/>
        <path d="M198.336 129.819l-19.764-11.41c-1.905-1.1-3.464-3.8-3.464-5.998V89.103c0-2.2 1.56-3.1 3.464-2l19.858 11.464" fill="#F29E75"/>
        <path d="M198.336 130.319a.494.494 0 0 1-.25-.067l-19.764-11.41c-2.048-1.181-3.714-4.066-3.714-6.431V89.103c0-1.251.451-2.2 1.268-2.671.817-.471 1.863-.387 2.946.239l19.858 11.463a.499.499 0 1 1-.5.866l-19.858-11.464c-.76-.44-1.453-.525-1.946-.238-.495.286-.768.927-.768 1.805v23.308c0 2.012 1.472 4.56 3.214 5.566l19.764 11.409a.5.5 0 0 1-.25.933" fill="#33475C"/>
        <path d="M198.336 105.96a.5.5 0 0 1-.5-.5v-1.632a.5.5 0 0 1 1 0v1.631a.5.5 0 0 1-.5.5M199.099 99.452a.494.494 0 0 1-.25-.067l-.823-.476a.5.5 0 1 1 .5-.865l.823.475a.5.5 0 0 1-.25.933" fill="#33475C"/>
        <path d="M201.264 107.392l42.564 24.573c1.906 1.1 3.465 3.8 3.465 6v28.723c0 1.176-1.56 1.237-3.464.138l-42.03-24.273c-1.904-1.1-3.463-3.801-3.463-6.001v-32.18" fill="#FFAB7D"/>
        <path d="M246.194 168.11c-.731 0-1.645-.291-2.614-.852l-42.03-24.272c-2.047-1.183-3.713-4.068-3.713-6.434v-32.178a.499.499 0 1 1 1 0v32.178c0 2.012 1.47 4.562 3.213 5.569l42.03 24.272c1.253.723 2.203.829 2.557.629.078-.045.157-.12.157-.334v-28.723c0-2.01-1.473-4.56-3.215-5.567l-42.565-24.573a.499.499 0 1 1 .5-.865l42.565 24.573c2.049 1.182 3.715 4.068 3.715 6.432v28.723c0 .529-.234.955-.657 1.199-.257.15-.578.223-.943.223" fill="#33475C"/>
        <path fill="#FFF" d="M201.83 121.11l1.523.88v7.185l3.641 2.102v1.379l-5.165-2.982zM213.987 130.136c-.314-.521-.62-.922-.914-1.204a4.61 4.61 0 0 0-.89-.683c-.442-.257-.843-.409-1.202-.459-.36-.05-.667-.01-.926.119a1.307 1.307 0 0 0-.598.628c-.141.289-.212.648-.212 1.075 0 .46.07.924.212 1.393.14.468.34.918.598 1.35.259.43.567.83.926 1.199.359.368.76.681 1.203.936.347.201.684.313 1.01.335.327.024.63-.065.914-.264l1.257 1.621c-.386.308-.858.424-1.414.345-.557-.08-1.15-.301-1.778-.664a9.277 9.277 0 0 1-1.821-1.373 9.56 9.56 0 0 1-1.427-1.731 8.592 8.592 0 0 1-.938-1.95 6.373 6.373 0 0 1-.34-2.022c0-.685.114-1.243.34-1.673.226-.43.538-.728.938-.892.398-.165.875-.194 1.427-.09.552.106 1.159.35 1.82.732a7.83 7.83 0 0 1 1.615 1.24c.496.492.958 1.107 1.386 1.845l-1.186.187zM217.53 134.396c0 .46.07.924.213 1.393.14.467.34.918.599 1.349.257.432.565.83.924 1.199.36.37.76.68 1.204.938.444.256.847.408 1.209.456.364.048.674.006.932-.128.259-.133.457-.353.599-.658.14-.306.212-.688.212-1.148 0-.427-.072-.867-.212-1.32a6.006 6.006 0 0 0-.6-1.32 6.351 6.351 0 0 0-.931-1.19 5.665 5.665 0 0 0-1.21-.934c-.443-.256-.843-.41-1.203-.46-.36-.05-.667-.01-.924.12a1.313 1.313 0 0 0-.6.628c-.141.29-.212.647-.212 1.075m-1.597-.825c0-.686.114-1.243.34-1.673.226-.43.537-.728.937-.893.399-.164.876-.194 1.427-.088.553.105 1.16.348 1.822.73a9.385 9.385 0 0 1 1.838 1.358 9.309 9.309 0 0 1 1.439 1.732c.403.628.718 1.285.943 1.972.226.687.339 1.374.339 2.059 0 .669-.113 1.212-.34 1.63-.224.419-.54.709-.942.87-.403.163-.883.195-1.44.096-.555-.1-1.168-.34-1.837-.717a9.615 9.615 0 0 1-3.249-3.104 8.628 8.628 0 0 1-.937-1.95 6.365 6.365 0 0 1-.34-2.022M226.506 135.357l2.322 1.34 2.286 7.32 2.311-4.666 2.298 1.327v8.564l-1.45-.838v-7.112l-.027-.015-2.6 5.61-1.064-.613-2.6-8.614-.025-.014v7.112l-1.45-.838zM237.67 141.802l5.673 3.275v1.379l-4.149-2.395v2.104l3.931 2.27v1.379l-3.93-2.27v2.323l4.366 2.521v1.379l-5.89-3.401z"/>
        <path d="M203.23 109.014a.497.497 0 0 1-.248-.066l-2.447-1.407c-1.513-.87-2.7-2.475-2.7-3.657 0-.63.25-1.12.7-1.38.496-.284 1.16-.23 1.82.153.41.235.703.236.837.156.16-.093.185-.34.185-.48 0-.793-.55-1.805-1.175-2.167l-1.424-.822a.5.5 0 1 1 .5-.865l1.424.822c.939.542 1.675 1.874 1.675 3.032 0 .613-.244 1.09-.685 1.346-.497.286-1.167.23-1.836-.156-.332-.194-.646-.252-.821-.153-.173.1-.2.365-.2.514 0 .723.904 2.046 2.198 2.79l2.447 1.406a.502.502 0 0 1-.25.934" fill="#33475C"/>
        <path fill="#F29E75" d="M179.418 87.591l-4.31-2.488v31.307l3.79 2.187"/>
        <path d="M178.897 119.097a.494.494 0 0 1-.25-.067l-3.788-2.187a.5.5 0 0 1-.25-.433V85.103a.5.5 0 0 1 .75-.433l4.309 2.489c.24.137.322.443.183.682a.497.497 0 0 1-.683.183l-3.56-2.055v30.152l3.539 2.043a.5.5 0 0 1-.25.933" fill="#33475C"/>
        <path fill="#FFF" d="M178.305 100.498l1.67.964 1.608 7.098.025.014 1.923-5.059 1.5.866 1.886 7.26.025.012 1.681-5.198 1.548.894-2.491 7.126-1.452-.838-1.984-7.665-.024-.015-1.984 5.375-1.403-.81zM191.127 107.9l5.673 3.276v1.38l-4.15-2.395v2.104l3.932 2.27v1.379l-3.932-2.27v2.322l4.368 2.522v1.379l-5.89-3.402zM204.06 201.16c-.186 4.34.132 8.698.706 13.003.045.334.087.693-.072.99-.186.343-.585.5-.952.632-.843.3-1.921.548-2.52-.118-.302-.336-.375-.814-.433-1.262a99.167 99.167 0 0 1-.656-7.22c-.2 2.786-.587 5.49-1.114 8.232-.04.21-.092.436-.258.571-.186.151-.453.136-.692.113-.52-.05-1.038-.1-1.558-.152-.364-.035-.76-.084-1.023-.338-.367-.35-.333-.936-.274-1.44.586-4.893 1.173-9.944 1.758-14.836-1.074-1.593-3.38-6.107-4.584-7.924-.112-.169-.364-.584-.422-.779-.072-.247.058-.506.196-.724a7.213 7.213 0 0 1 1.445-1.667c.235-.199.513-.394.82-.373.308.02.558.246.776.464 1.009 1.01 2.26 4.574 3.079 5.745 1.033-.173 3.799 0 4.834 0 .817-1.17 2.07-4.735 3.079-5.745.218-.218.468-.444.775-.464.308-.02.586.174.82.373a7.27 7.27 0 0 1 1.447 1.667c.136.218.266.477.194.724-.058.195-.31.61-.422.78-1.203 1.816-3.13 5.911-4.202 7.505-.431.638-.803 1.475-.747 2.243"/>
        <path d="M194.384 188.367c-.15 0-.379.191-.454.256a6.692 6.692 0 0 0-1.345 1.551c-.157.248-.139.314-.139.317.027.092.21.417.358.644.618.931 1.514 2.548 2.38 4.113.827 1.492 1.681 3.035 2.202 3.807.067.1.097.22.082.34-.283 2.368-.566 4.774-.85 7.18-.302 2.564-.605 5.131-.908 7.654-.05.421-.069.837.123 1.021.141.135.424.172.726.201l1.558.152c.183.017.294.017.33-.005.022-.023.05-.117.081-.275.56-2.91.921-5.584 1.106-8.174a.5.5 0 0 1 .5-.464h.004a.5.5 0 0 1 .494.473c.128 2.382.348 4.798.653 7.184.053.413.114.772.31.99.313.35.962.344 1.978-.018.303-.109.584-.22.68-.399.088-.162.05-.452.018-.686-.647-4.84-.879-9.113-.712-13.063-.063-1.032.494-2.027.834-2.529.514-.764 1.234-2.126 1.996-3.569.777-1.472 1.58-2.992 2.203-3.933.15-.227.332-.552.36-.645 0-.002.017-.068-.139-.316a6.7 6.7 0 0 0-1.346-1.55c-.078-.068-.304-.259-.464-.257-.145.01-.347.21-.455.318-.524.526-1.19 1.971-1.778 3.246-.45.981-.878 1.908-1.244 2.432a.502.502 0 0 1-.41.214c-.3 0-.748-.015-1.254-.03-1.185-.038-2.809-.092-3.499.023a.5.5 0 0 1-.492-.207c-.366-.524-.792-1.45-1.243-2.43-.588-1.276-1.254-2.722-1.779-3.248-.109-.108-.31-.309-.453-.318h-.012zm3.925 28.25c-.11 0-.209-.01-.287-.018l-1.56-.152c-.365-.036-.918-.089-1.32-.476-.578-.552-.479-1.403-.424-1.86.302-2.523.604-5.089.906-7.653.278-2.346.554-4.69.83-7-.544-.836-1.323-2.242-2.144-3.726-.858-1.547-1.743-3.146-2.339-4.045-.016-.023-.388-.586-.484-.914-.147-.502.143-.96.251-1.133a7.751 7.751 0 0 1 1.545-1.78c.291-.245.693-.517 1.177-.49.52.032.895.407 1.096.608.652.653 1.327 2.118 1.98 3.536.364.79.71 1.54.997 2.03.854-.078 2.23-.032 3.361.003.358.011.686.022.951.027.292-.487.645-1.255 1.017-2.06.653-1.418 1.328-2.883 1.98-3.536.2-.2.575-.576 1.097-.609.487-.029.885.246 1.175.491a7.713 7.713 0 0 1 1.545 1.781c.11.174.398.633.251 1.131-.096.33-.468.892-.485.915-.595.9-1.387 2.4-2.152 3.848-.775 1.467-1.506 2.852-2.05 3.661-.462.683-.704 1.385-.664 1.928l.001.057c-.167 3.9.062 8.124.702 12.915.048.357.113.845-.128 1.293-.286.53-.85.733-1.224.867-.532.188-2.146.764-3.059-.255-.42-.467-.503-1.108-.558-1.532-.088-.693-.17-1.387-.244-2.083a80.697 80.697 0 0 1-.539 3.126c-.04.211-.116.607-.434.865-.243.196-.53.24-.767.24z" fill="#231F1F"/>
        <path d="M194.384 188.367c-.15 0-.379.191-.454.256a6.692 6.692 0 0 0-1.345 1.551c-.157.248-.139.314-.139.317.027.092.21.417.358.644.618.931 1.514 2.548 2.38 4.113.827 1.492 1.681 3.035 2.202 3.807.067.1.097.22.082.34-.283 2.368-.566 4.774-.85 7.18-.302 2.564-.605 5.131-.908 7.654-.05.421-.069.837.123 1.021.141.135.424.172.726.201l1.558.152c.183.017.294.017.33-.005.022-.023.05-.117.081-.275.56-2.91.921-5.584 1.106-8.174a.5.5 0 0 1 .5-.464h.004a.5.5 0 0 1 .494.473c.128 2.382.348 4.798.653 7.184.053.413.114.772.31.99.313.35.962.344 1.978-.018.303-.109.584-.22.68-.399.088-.162.05-.452.018-.686-.647-4.84-.879-9.113-.712-13.063-.063-1.032.494-2.027.834-2.529.514-.764 1.234-2.126 1.996-3.569.777-1.472 1.58-2.992 2.203-3.933.15-.227.332-.552.36-.645 0-.002.017-.068-.139-.316a6.7 6.7 0 0 0-1.346-1.55c-.078-.068-.304-.259-.464-.257-.145.01-.347.21-.455.318-.524.526-1.19 1.971-1.778 3.246-.45.981-.878 1.908-1.244 2.432a.502.502 0 0 1-.41.214c-.3 0-.748-.015-1.254-.03-1.185-.038-2.809-.092-3.499.023a.5.5 0 0 1-.492-.207c-.366-.524-.792-1.45-1.243-2.43-.588-1.276-1.254-2.722-1.779-3.248-.109-.108-.31-.309-.453-.318h-.012zm3.925 28.25c-.11 0-.209-.01-.287-.018l-1.56-.152c-.365-.036-.918-.089-1.32-.476-.578-.552-.479-1.403-.424-1.86.302-2.523.604-5.089.906-7.653.278-2.346.554-4.69.83-7-.544-.836-1.323-2.242-2.144-3.726-.858-1.547-1.743-3.146-2.339-4.045-.016-.023-.388-.586-.484-.914-.147-.502.143-.96.251-1.133a7.751 7.751 0 0 1 1.545-1.78c.291-.245.693-.517 1.177-.49.52.032.895.407 1.096.608.652.653 1.327 2.118 1.98 3.536.364.79.71 1.54.997 2.03.854-.078 2.23-.032 3.361.003.358.011.686.022.951.027.292-.487.645-1.255 1.017-2.06.653-1.418 1.328-2.883 1.98-3.536.2-.2.575-.576 1.097-.609.487-.029.885.246 1.175.491a7.713 7.713 0 0 1 1.545 1.781c.11.174.398.633.251 1.131-.096.33-.468.892-.485.915-.595.9-1.387 2.4-2.152 3.848-.775 1.467-1.506 2.852-2.05 3.661-.462.683-.704 1.385-.664 1.928l.001.057c-.167 3.9.062 8.124.702 12.915.048.357.113.845-.128 1.293-.286.53-.85.733-1.224.867-.532.188-2.146.764-3.059-.255-.42-.467-.503-1.108-.558-1.532-.088-.693-.17-1.387-.244-2.083a80.697 80.697 0 0 1-.539 3.126c-.04.211-.116.607-.434.865-.243.196-.53.24-.767.24z" fill="#33475C"/>
        <path d="M197.461 191.13a3.05 3.05 0 1 0 6.098-.078 3.05 3.05 0 0 0-6.098.077" fill="#FFF"/>
        <path d="M197.961 191.123c.008.681.281 1.317.77 1.793.486.477 1.158.711 1.81.724a2.533 2.533 0 0 0 1.794-.769 2.532 2.532 0 0 0 .725-1.81 2.538 2.538 0 0 0-.77-1.795 2.526 2.526 0 0 0-1.777-.724h-.033a2.527 2.527 0 0 0-1.794.77 2.527 2.527 0 0 0-.725 1.811zm2.547 3.517a3.527 3.527 0 0 1-2.477-1.008 3.53 3.53 0 0 1-1.07-2.497 3.554 3.554 0 0 1 3.506-3.593h.046c.93 0 1.808.356 2.475 1.008a3.528 3.528 0 0 1 1.072 2.497 3.528 3.528 0 0 1-1.009 2.522 3.527 3.527 0 0 1-2.497 1.071h-.046z" fill="#231F1F"/>
        <path d="M197.961 191.123c.008.681.281 1.317.77 1.793.486.477 1.158.711 1.81.724a2.533 2.533 0 0 0 1.794-.769 2.532 2.532 0 0 0 .725-1.81 2.538 2.538 0 0 0-.77-1.795 2.526 2.526 0 0 0-1.777-.724h-.033a2.527 2.527 0 0 0-1.794.77 2.527 2.527 0 0 0-.725 1.811zm2.547 3.517a3.527 3.527 0 0 1-2.477-1.008 3.53 3.53 0 0 1-1.07-2.497 3.554 3.554 0 0 1 3.506-3.593h.046c.93 0 1.808.356 2.475 1.008a3.528 3.528 0 0 1 1.072 2.497 3.528 3.528 0 0 1-1.009 2.522 3.527 3.527 0 0 1-2.497 1.071h-.046z" fill="#33475C"/>
        <path d="M222.77 188.61c-.162 3.796.115 7.607.617 11.372.039.292.076.607-.063.865-.161.3-.511.439-.833.553-.737.263-1.68.48-2.202-.102-.264-.294-.33-.712-.38-1.104a86.145 86.145 0 0 1-.573-6.313c-.174 2.435-.513 4.799-.974 7.198-.035.183-.081.382-.226.5-.163.133-.396.119-.605.098-.454-.045-.908-.088-1.363-.132-.32-.032-.664-.074-.895-.296-.32-.308-.291-.82-.238-1.261.51-4.277 1.025-8.694 1.537-12.973-.94-1.393-2.956-5.341-4.01-6.93-.097-.147-.318-.51-.368-.681-.064-.216.05-.441.17-.633a6.305 6.305 0 0 1 1.264-1.457c.206-.175.449-.345.718-.327.269.018.487.216.678.406.883.883 1.978 4 2.693 5.024.904-.152 3.323 0 4.227 0 .715-1.024 1.81-4.141 2.693-5.024.19-.19.408-.388.678-.406.268-.018.512.152.718.327.492.417.92.91 1.263 1.457.12.192.235.417.17.633-.05.17-.27.534-.368.682-1.053 1.588-2.736 5.17-3.675 6.563-.377.558-.702 1.29-.653 1.962" fill="#FFF"/>
        <path d="M214.307 177.486c-.071 0-.191.07-.355.209a5.835 5.835 0 0 0-1.165 1.342c-.105.17-.111.228-.112.238.024.068.175.339.305.534.54.818 1.325 2.234 2.084 3.603.722 1.303 1.469 2.65 1.923 3.324.066.1.095.22.08.339-.254 2.13-.51 4.295-.764 6.46-.258 2.182-.516 4.365-.772 6.513-.04.334-.061.697.088.84.117.112.395.139.598.159l1.362.132a.803.803 0 0 0 .256.003c-.007-.005.013-.078.035-.197.489-2.54.805-4.876.967-7.141a.501.501 0 0 1 .499-.463h.005a.497.497 0 0 1 .494.473c.113 2.087.304 4.198.57 6.277.046.35.096.656.256.833.252.28.81.268 1.662-.035.18-.064.48-.171.56-.318.068-.124.034-.367.009-.563-.565-4.234-.77-7.973-.623-11.431-.055-.921.438-1.802.74-2.248.447-.664 1.105-1.908 1.739-3.112.682-1.29 1.386-2.622 1.933-3.448.126-.19.28-.466.306-.546-.002-.003-.011-.061-.115-.226a5.777 5.777 0 0 0-1.163-1.341c-.21-.178-.298-.196-.362-.21-.102.007-.28.185-.356.26-.452.452-1.032 1.712-1.543 2.822-.397.859-.771 1.672-1.094 2.135-.246.348-.79.21-1.51.186-1.034-.032-2.451-.08-3.044.02a.488.488 0 0 1-.493-.206c-.323-.463-.697-1.276-1.094-2.135-.511-1.11-1.092-2.37-1.543-2.821-.076-.076-.254-.254-.356-.261h-.007zm3.438 24.705c-.101 0-.192-.01-.263-.016l-1.362-.132c-.33-.033-.828-.081-1.194-.434-.528-.508-.433-1.3-.388-1.681.257-2.146.514-4.33.772-6.51.248-2.104.496-4.208.743-6.281-.475-.734-1.151-1.955-1.864-3.241-.75-1.352-1.524-2.751-2.043-3.534-.035-.054-.35-.531-.433-.818-.135-.46.129-.88.228-1.038a6.82 6.82 0 0 1 1.364-1.574c.263-.221.636-.481 1.073-.444.479.03.818.37.999.552.578.578 1.17 1.865 1.744 3.109.309.67.604 1.31.85 1.734.756-.064 1.933-.025 2.906.007.298.01.57.019.795.024.249-.424.55-1.078.867-1.765.574-1.244 1.166-2.531 1.745-3.11.18-.181.52-.52.999-.551.469-.027.81.223 1.073.445.533.45.99.98 1.363 1.573.1.158.364.579.227 1.042-.085.29-.417.792-.431.814-.52.784-1.212 2.095-1.882 3.363-.678 1.282-1.317 2.493-1.795 3.203-.395.585-.603 1.185-.57 1.647.002.018.002.038.002.057-.146 3.407.055 7.098.613 11.284.042.32.102.759-.12 1.169-.261.487-.79.674-1.105.787-.473.169-1.914.682-2.742-.24-.38-.423-.454-.996-.503-1.374a99.467 99.467 0 0 1-.162-1.35c-.117.739-.25 1.493-.398 2.265-.037.193-.106.552-.4.792-.227.186-.492.226-.708.226z" fill="#231F1F"/>
        <path d="M214.307 177.486c-.071 0-.191.07-.355.209a5.835 5.835 0 0 0-1.165 1.342c-.105.17-.111.228-.112.238.024.068.175.339.305.534.54.818 1.325 2.234 2.084 3.603.722 1.303 1.469 2.65 1.923 3.324.066.1.095.22.08.339-.254 2.13-.51 4.295-.764 6.46-.258 2.182-.516 4.365-.772 6.513-.04.334-.061.697.088.84.117.112.395.139.598.159l1.362.132a.803.803 0 0 0 .256.003c-.007-.005.013-.078.035-.197.489-2.54.805-4.876.967-7.141a.501.501 0 0 1 .499-.463h.005a.497.497 0 0 1 .494.473c.113 2.087.304 4.198.57 6.277.046.35.096.656.256.833.252.28.81.268 1.662-.035.18-.064.48-.171.56-.318.068-.124.034-.367.009-.563-.565-4.234-.77-7.973-.623-11.431-.055-.921.438-1.802.74-2.248.447-.664 1.105-1.908 1.739-3.112.682-1.29 1.386-2.622 1.933-3.448.126-.19.28-.466.306-.546-.002-.003-.011-.061-.115-.226a5.777 5.777 0 0 0-1.163-1.341c-.21-.178-.298-.196-.362-.21-.102.007-.28.185-.356.26-.452.452-1.032 1.712-1.543 2.822-.397.859-.771 1.672-1.094 2.135-.246.348-.79.21-1.51.186-1.034-.032-2.451-.08-3.044.02a.488.488 0 0 1-.493-.206c-.323-.463-.697-1.276-1.094-2.135-.511-1.11-1.092-2.37-1.543-2.821-.076-.076-.254-.254-.356-.261h-.007zm3.438 24.705c-.101 0-.192-.01-.263-.016l-1.362-.132c-.33-.033-.828-.081-1.194-.434-.528-.508-.433-1.3-.388-1.681.257-2.146.514-4.33.772-6.51.248-2.104.496-4.208.743-6.281-.475-.734-1.151-1.955-1.864-3.241-.75-1.352-1.524-2.751-2.043-3.534-.035-.054-.35-.531-.433-.818-.135-.46.129-.88.228-1.038a6.82 6.82 0 0 1 1.364-1.574c.263-.221.636-.481 1.073-.444.479.03.818.37.999.552.578.578 1.17 1.865 1.744 3.109.309.67.604 1.31.85 1.734.756-.064 1.933-.025 2.906.007.298.01.57.019.795.024.249-.424.55-1.078.867-1.765.574-1.244 1.166-2.531 1.745-3.11.18-.181.52-.52.999-.551.469-.027.81.223 1.073.445.533.45.99.98 1.363 1.573.1.158.364.579.227 1.042-.085.29-.417.792-.431.814-.52.784-1.212 2.095-1.882 3.363-.678 1.282-1.317 2.493-1.795 3.203-.395.585-.603 1.185-.57 1.647.002.018.002.038.002.057-.146 3.407.055 7.098.613 11.284.042.32.102.759-.12 1.169-.261.487-.79.674-1.105.787-.473.169-1.914.682-2.742-.24-.38-.423-.454-.996-.503-1.374a99.467 99.467 0 0 1-.162-1.35c-.117.739-.25 1.493-.398 2.265-.037.193-.106.552-.4.792-.227.186-.492.226-.708.226z" fill="#33475C"/>
        <path d="M217 179.838a2.668 2.668 0 1 0 5.334-.067 2.668 2.668 0 0 0-5.335.067" fill="#FFF"/>
        <path d="M219.667 177.639h-.028a2.157 2.157 0 0 0-1.525.653 2.149 2.149 0 0 0-.615 1.54c.007.578.24 1.12.653 1.524.414.405.963.635 1.54.616a2.17 2.17 0 0 0 2.14-2.193 2.168 2.168 0 0 0-2.165-2.14zm0 5.333a3.17 3.17 0 0 1-3.168-3.128 3.145 3.145 0 0 1 .9-2.25 3.15 3.15 0 0 1 2.228-.955c.832.026 1.644.31 2.25.899.605.59.944 1.382.955 2.229a3.172 3.172 0 0 1-3.128 3.205h-.038z" fill="#231F1F"/>
        <path d="M219.667 177.639h-.028a2.157 2.157 0 0 0-1.525.653 2.149 2.149 0 0 0-.615 1.54c.007.578.24 1.12.653 1.524.414.405.963.635 1.54.616a2.17 2.17 0 0 0 2.14-2.193 2.168 2.168 0 0 0-2.165-2.14zm0 5.333a3.17 3.17 0 0 1-3.168-3.128 3.145 3.145 0 0 1 .9-2.25 3.15 3.15 0 0 1 2.228-.955c.832.026 1.644.31 2.25.899.605.59.944 1.382.955 2.229a3.172 3.172 0 0 1-3.128 3.205h-.038z" fill="#33475C"/>
        <path d="M139.604 194.644c-.162 3.795.115 7.606.617 11.37.039.293.076.608-.062.866-.162.3-.512.439-.833.553-.738.263-1.68.48-2.203-.102-.264-.294-.33-.712-.378-1.104a85.6 85.6 0 0 1-.575-6.313c-.174 2.435-.513 4.799-.974 7.198-.035.182-.08.382-.226.5-.163.132-.396.119-.605.098l-1.362-.132c-.32-.032-.665-.074-.896-.296-.32-.308-.291-.82-.238-1.261.51-4.277 1.025-8.694 1.537-12.973-.94-1.393-2.956-5.341-4.01-6.93-.097-.147-.317-.51-.367-.681-.065-.216.05-.442.17-.633a6.305 6.305 0 0 1 1.263-1.457c.206-.175.45-.345.718-.327.27.018.487.216.678.406.883.883 1.978 4 2.693 5.024.904-.152 3.324 0 4.227 0 .716-1.024 1.81-4.141 2.693-5.024.19-.19.409-.388.678-.406.269-.018.512.152.718.327.492.417.92.91 1.263 1.457.12.19.235.417.17.633-.05.17-.27.534-.368.682-1.053 1.588-2.736 5.17-3.675 6.563-.376.558-.701 1.29-.653 1.962" fill="#FFF"/>
        <path d="M131.14 183.519c-.05 0-.152.038-.354.209a5.835 5.835 0 0 0-1.165 1.342c-.105.168-.111.226-.111.237.024.069.178.345.304.535.54.818 1.325 2.234 2.084 3.603.722 1.303 1.469 2.65 1.923 3.324.066.1.095.22.08.339-.254 2.13-.51 4.295-.764 6.46-.258 2.182-.516 4.365-.772 6.513-.04.334-.061.697.088.84.116.112.395.139.599.159l1.36.132c.137.015.225.015.257.002 0-.015.027-.152.035-.197.489-2.54.805-4.875.967-7.14a.501.501 0 0 1 .499-.463h.005a.497.497 0 0 1 .494.473c.113 2.09.305 4.203.572 6.277.043.337.094.655.254.833.252.28.813.268 1.663-.035.244-.087.487-.182.56-.32.067-.122.033-.365.008-.561-.565-4.234-.77-7.973-.623-11.431-.054-.921.439-1.802.739-2.247.448-.665 1.106-1.91 1.74-3.113.682-1.29 1.386-2.622 1.933-3.448.13-.195.28-.466.307-.546-.003 0-.01-.06-.115-.225a5.777 5.777 0 0 0-1.164-1.342c-.17-.144-.256-.228-.362-.21-.102.007-.28.185-.356.26-.452.452-1.031 1.71-1.541 2.819-.398.86-.772 1.674-1.096 2.138-.246.349-.79.21-1.508.186-1.036-.032-2.453-.08-3.046.02a.488.488 0 0 1-.493-.206c-.323-.463-.697-1.276-1.094-2.135-.511-1.11-1.092-2.37-1.543-2.821-.076-.076-.254-.254-.356-.261h-.007zm3.439 24.705c-.101 0-.192-.01-.263-.016l-1.361-.132c-.331-.033-.83-.081-1.195-.434-.528-.508-.433-1.3-.388-1.681.257-2.146.514-4.33.772-6.51.248-2.104.496-4.208.743-6.281-.475-.734-1.151-1.955-1.864-3.241-.75-1.352-1.524-2.751-2.043-3.534-.014-.022-.346-.524-.432-.818-.137-.461.128-.881.228-1.04a6.808 6.808 0 0 1 1.363-1.572c.263-.221.634-.48 1.073-.444.479.03.818.37.999.552.578.578 1.17 1.865 1.744 3.109.309.67.604 1.31.85 1.734.756-.064 1.934-.025 2.907.007.297.01.57.019.794.024.25-.424.552-1.08.869-1.768.573-1.243 1.165-2.53 1.743-3.106.18-.182.52-.521.999-.552.442-.035.81.223 1.073.445a6.78 6.78 0 0 1 1.364 1.573c.099.156.363.576.227 1.039-.083.286-.397.763-.432.817-.52.784-1.212 2.095-1.882 3.363-.678 1.282-1.317 2.493-1.795 3.203-.395.586-.602 1.186-.57 1.648.002.018.002.037.002.056-.146 3.407.055 7.098.613 11.284.042.32.1.758-.118 1.168-.263.487-.79.675-1.105.787-.476.17-1.915.68-2.744-.24-.38-.424-.454-.996-.502-1.374a84.457 84.457 0 0 1-.162-1.351c-.118.74-.251 1.494-.4 2.267-.036.194-.107.554-.4.793-.228.185-.492.225-.707.225z" fill="#231F1F"/>
        <path d="M131.14 183.519c-.05 0-.152.038-.354.209a5.835 5.835 0 0 0-1.165 1.342c-.105.168-.111.226-.111.237.024.069.178.345.304.535.54.818 1.325 2.234 2.084 3.603.722 1.303 1.469 2.65 1.923 3.324.066.1.095.22.08.339-.254 2.13-.51 4.295-.764 6.46-.258 2.182-.516 4.365-.772 6.513-.04.334-.061.697.088.84.116.112.395.139.599.159l1.36.132c.137.015.225.015.257.002 0-.015.027-.152.035-.197.489-2.54.805-4.875.967-7.14a.501.501 0 0 1 .499-.463h.005a.497.497 0 0 1 .494.473c.113 2.09.305 4.203.572 6.277.043.337.094.655.254.833.252.28.813.268 1.663-.035.244-.087.487-.182.56-.32.067-.122.033-.365.008-.561-.565-4.234-.77-7.973-.623-11.431-.054-.921.439-1.802.739-2.247.448-.665 1.106-1.91 1.74-3.113.682-1.29 1.386-2.622 1.933-3.448.13-.195.28-.466.307-.546-.003 0-.01-.06-.115-.225a5.777 5.777 0 0 0-1.164-1.342c-.17-.144-.256-.228-.362-.21-.102.007-.28.185-.356.26-.452.452-1.031 1.71-1.541 2.819-.398.86-.772 1.674-1.096 2.138-.246.349-.79.21-1.508.186-1.036-.032-2.453-.08-3.046.02a.488.488 0 0 1-.493-.206c-.323-.463-.697-1.276-1.094-2.135-.511-1.11-1.092-2.37-1.543-2.821-.076-.076-.254-.254-.356-.261h-.007zm3.439 24.705c-.101 0-.192-.01-.263-.016l-1.361-.132c-.331-.033-.83-.081-1.195-.434-.528-.508-.433-1.3-.388-1.681.257-2.146.514-4.33.772-6.51.248-2.104.496-4.208.743-6.281-.475-.734-1.151-1.955-1.864-3.241-.75-1.352-1.524-2.751-2.043-3.534-.014-.022-.346-.524-.432-.818-.137-.461.128-.881.228-1.04a6.808 6.808 0 0 1 1.363-1.572c.263-.221.634-.48 1.073-.444.479.03.818.37.999.552.578.578 1.17 1.865 1.744 3.109.309.67.604 1.31.85 1.734.756-.064 1.934-.025 2.907.007.297.01.57.019.794.024.25-.424.552-1.08.869-1.768.573-1.243 1.165-2.53 1.743-3.106.18-.182.52-.521.999-.552.442-.035.81.223 1.073.445a6.78 6.78 0 0 1 1.364 1.573c.099.156.363.576.227 1.039-.083.286-.397.763-.432.817-.52.784-1.212 2.095-1.882 3.363-.678 1.282-1.317 2.493-1.795 3.203-.395.586-.602 1.186-.57 1.648.002.018.002.037.002.056-.146 3.407.055 7.098.613 11.284.042.32.1.758-.118 1.168-.263.487-.79.675-1.105.787-.476.17-1.915.68-2.744-.24-.38-.424-.454-.996-.502-1.374a84.457 84.457 0 0 1-.162-1.351c-.118.74-.251 1.494-.4 2.267-.036.194-.107.554-.4.793-.228.185-.492.225-.707.225z" fill="#33475C"/>
        <path d="M133.833 185.871a2.667 2.667 0 1 0 5.332-.066 2.667 2.667 0 0 0-5.332.066" fill="#FFF"/>
        <path d="M134.333 185.865a2.17 2.17 0 0 0 2.167 2.14h.026a2.17 2.17 0 0 0 1.487-3.718c-.414-.403-.945-.602-1.54-.615a2.15 2.15 0 0 0-1.524.654 2.154 2.154 0 0 0-.616 1.54zm2.167 3.14a3.17 3.17 0 0 1-3.167-3.128 3.17 3.17 0 0 1 3.128-3.205c.828.02 1.644.309 2.25.9.605.59.945 1.382.955 2.228a3.172 3.172 0 0 1-3.128 3.206h-.038z" fill="#231F1F"/>
        <path d="M134.333 185.865a2.17 2.17 0 0 0 2.167 2.14h.026a2.17 2.17 0 0 0 1.487-3.718c-.414-.403-.945-.602-1.54-.615a2.15 2.15 0 0 0-1.524.654 2.154 2.154 0 0 0-.616 1.54zm2.167 3.14a3.17 3.17 0 0 1-3.167-3.128 3.17 3.17 0 0 1 3.128-3.205c.828.02 1.644.309 2.25.9.605.59.945 1.382.955 2.228a3.172 3.172 0 0 1-3.128 3.206h-.038z" fill="#33475C"/>
        <path d="M116.893 180.152c.055-.768-.317-1.605-.747-2.243-1.074-1.593-3-5.69-4.202-7.505-.113-.17-.365-.585-.422-.78-.073-.247.057-.505.194-.724a7.26 7.26 0 0 1 1.446-1.666c.235-.2.512-.394.82-.374.308.02.557.246.775.465 1.01 1.01 2.262 4.573 3.08 5.744 1.034 0 3.583.865 4.617 1.038 1.019.17 1.91.718 2.843 1.182 0 0-.898-.452-1.186-.605-.321-.17-.963-.402-.963-.402a3.993 3.993 0 0 0-.54-.86c-.3-.357-.68-.681-.796-1.133a1.118 1.118 0 0 1-.022-.16c.139-.612.286-1.244.658-1.748.373-.505 1.035-.852 1.633-.664.443.14.753.529 1.036.898l2.155 2.815c.38.499.776 1.03.847 1.655.082.739-.313 1.446-.768 2.034-.403.52-.88 1.007-1.48 1.278-.6.27-1.342.295-1.89-.07.585 4.892 1.172 9.943 1.757 14.835.06.505.093 1.09-.273 1.44-.264.255-.66.304-1.024.34l-1.558.15c-.24.025-.506.04-.692-.112-.165-.135-.217-.361-.257-.571-.527-2.742-.916-5.446-1.115-8.232a98.562 98.562 0 0 1-.656 7.22c-.057.448-.131.926-.433 1.263-.598.665-1.676.418-2.52.117-.367-.131-.766-.29-.951-.633-.16-.296-.117-.655-.072-.99.574-4.304.89-8.662.706-13.002" fill="#FFF"/>
        <path d="M120.819 185.677a.5.5 0 0 1 .499.464c.185 2.587.547 5.26 1.107 8.173.03.16.059.254.083.28.033.017.144.02.327.001l1.558-.151c.303-.03.587-.068.727-.202.192-.185.17-.621.122-1.021-.293-2.446-.586-4.933-.88-7.418-.292-2.485-.585-4.971-.877-7.416a.5.5 0 0 1 .772-.476c.363.24.915.252 1.408.03.437-.198.847-.556 1.29-1.129.502-.647.719-1.195.667-1.673-.057-.501-.423-.982-.747-1.405l-2.155-2.816c-.262-.343-.503-.634-.79-.724-.395-.12-.836.153-1.08.483-.297.403-.43.941-.551 1.47.075.266.265.476.466.699.077.085.155.17.227.257.19.227.369.497.515.775a8.922 8.922 0 0 1 .833.361c.222.109.44.222.658.334l.522.268.002.001a.5.5 0 0 1-.447.894l-.202-.102a87.242 87.242 0 0 1-.99-.505 11.384 11.384 0 0 0-.275-.129 14.402 14.402 0 0 0-.623-.246 4.178 4.178 0 0 0-.614-.154c-.42-.07-1.056-.243-1.73-.426-.994-.269-2.232-.605-2.803-.605a.502.502 0 0 1-.411-.214c-.366-.525-.794-1.451-1.245-2.433-.588-1.274-1.253-2.719-1.778-3.244-.108-.109-.31-.311-.452-.319-.173-.001-.39.189-.466.256a6.74 6.74 0 0 0-1.346 1.55c-.156.248-.14.314-.138.316.027.095.209.42.358.646.623.94 1.426 2.459 2.2 3.929.764 1.443 1.485 2.808 2 3.573.34.503.896 1.496.834 2.528.166 3.957-.066 8.23-.712 13.064-.031.233-.07.523.018.685.096.18.389.296.679.4 1.019.363 1.666.371 1.979.019.197-.219.259-.594.309-.991.304-2.374.524-4.791.653-7.184a.5.5 0 0 1 .494-.473h.005zm1.82 9.932c-.235 0-.522-.044-.764-.242-.316-.258-.392-.653-.432-.865a80.09 80.09 0 0 1-.54-3.126 94.1 94.1 0 0 1-.244 2.084c-.054.422-.135 1.062-.557 1.533-.914 1.019-2.53.445-3.058.254-.351-.124-.94-.333-1.225-.867-.241-.447-.176-.935-.127-1.292.638-4.786.867-9.011.7-12.915 0-.019 0-.038.002-.057.039-.543-.203-1.246-.663-1.928-.546-.81-1.278-2.197-2.054-3.665-.764-1.449-1.555-2.946-2.15-3.843-.016-.024-.39-.589-.485-.917-.13-.44.066-.835.252-1.13a7.689 7.689 0 0 1 1.545-1.78c.287-.245.69-.528 1.175-.492.523.033.897.409 1.098.611.65.65 1.325 2.115 1.978 3.532.376.816.734 1.593 1.029 2.078.718.067 1.766.351 2.785.627a42.7 42.7 0 0 0 1.105.291c-.265-.294-.562-.627-.681-1.087a1.006 1.006 0 0 1-.027-.387c.144-.636.306-1.347.745-1.943.542-.732 1.447-1.078 2.186-.843.61.193.999.701 1.282 1.071l2.155 2.815c.383.502.859 1.125.947 1.903.083.749-.201 1.533-.87 2.395-.547.707-1.077 1.161-1.67 1.429-.491.22-1.02.293-1.502.22.26 2.185.52 4.399.782 6.613.293 2.485.586 4.97.878 7.416.05.424.157 1.305-.422 1.861-.401.385-.955.44-1.322.477l-1.558.151c-.08.007-.18.018-.293.018z" fill="#231F1F"/>
        <path d="M120.819 185.677a.5.5 0 0 1 .499.464c.185 2.587.547 5.26 1.107 8.173.03.16.059.254.083.28.033.017.144.02.327.001l1.558-.151c.303-.03.587-.068.727-.202.192-.185.17-.621.122-1.021-.293-2.446-.586-4.933-.88-7.418-.292-2.485-.585-4.971-.877-7.416a.5.5 0 0 1 .772-.476c.363.24.915.252 1.408.03.437-.198.847-.556 1.29-1.129.502-.647.719-1.195.667-1.673-.057-.501-.423-.982-.747-1.405l-2.155-2.816c-.262-.343-.503-.634-.79-.724-.395-.12-.836.153-1.08.483-.297.403-.43.941-.551 1.47.075.266.265.476.466.699.077.085.155.17.227.257.19.227.369.497.515.775a8.922 8.922 0 0 1 .833.361c.222.109.44.222.658.334l.522.268.002.001a.5.5 0 0 1-.447.894l-.202-.102a87.242 87.242 0 0 1-.99-.505 11.384 11.384 0 0 0-.275-.129 14.402 14.402 0 0 0-.623-.246 4.178 4.178 0 0 0-.614-.154c-.42-.07-1.056-.243-1.73-.426-.994-.269-2.232-.605-2.803-.605a.502.502 0 0 1-.411-.214c-.366-.525-.794-1.451-1.245-2.433-.588-1.274-1.253-2.719-1.778-3.244-.108-.109-.31-.311-.452-.319-.173-.001-.39.189-.466.256a6.74 6.74 0 0 0-1.346 1.55c-.156.248-.14.314-.138.316.027.095.209.42.358.646.623.94 1.426 2.459 2.2 3.929.764 1.443 1.485 2.808 2 3.573.34.503.896 1.496.834 2.528.166 3.957-.066 8.23-.712 13.064-.031.233-.07.523.018.685.096.18.389.296.679.4 1.019.363 1.666.371 1.979.019.197-.219.259-.594.309-.991.304-2.374.524-4.791.653-7.184a.5.5 0 0 1 .494-.473h.005zm1.82 9.932c-.235 0-.522-.044-.764-.242-.316-.258-.392-.653-.432-.865a80.09 80.09 0 0 1-.54-3.126 94.1 94.1 0 0 1-.244 2.084c-.054.422-.135 1.062-.557 1.533-.914 1.019-2.53.445-3.058.254-.351-.124-.94-.333-1.225-.867-.241-.447-.176-.935-.127-1.292.638-4.786.867-9.011.7-12.915 0-.019 0-.038.002-.057.039-.543-.203-1.246-.663-1.928-.546-.81-1.278-2.197-2.054-3.665-.764-1.449-1.555-2.946-2.15-3.843-.016-.024-.39-.589-.485-.917-.13-.44.066-.835.252-1.13a7.689 7.689 0 0 1 1.545-1.78c.287-.245.69-.528 1.175-.492.523.033.897.409 1.098.611.65.65 1.325 2.115 1.978 3.532.376.816.734 1.593 1.029 2.078.718.067 1.766.351 2.785.627a42.7 42.7 0 0 0 1.105.291c-.265-.294-.562-.627-.681-1.087a1.006 1.006 0 0 1-.027-.387c.144-.636.306-1.347.745-1.943.542-.732 1.447-1.078 2.186-.843.61.193.999.701 1.282 1.071l2.155 2.815c.383.502.859 1.125.947 1.903.083.749-.201 1.533-.87 2.395-.547.707-1.077 1.161-1.67 1.429-.491.22-1.02.293-1.502.22.26 2.185.52 4.399.782 6.613.293 2.485.586 4.97.878 7.416.05.424.157 1.305-.422 1.861-.401.385-.955.44-1.322.477l-1.558.151c-.08.007-.18.018-.293.018z" fill="#33475C"/>
        <path d="M123.492 170.12a3.05 3.05 0 1 1-6.101-.076 3.05 3.05 0 0 1 6.1.076" fill="#FFF"/>
        <path d="M123.492 170.12h.01-.01zm-3.05-2.587c-.67 0-1.301.257-1.78.725a2.531 2.531 0 0 0-.77 1.793 2.554 2.554 0 0 0 2.52 2.581h.03a2.553 2.553 0 0 0 2.55-2.519 2.552 2.552 0 0 0-2.519-2.58h-.032zm0 6.1h-.044a3.557 3.557 0 0 1-3.506-3.594 3.527 3.527 0 0 1 1.071-2.497c.678-.66 1.55-1.038 2.522-1.009a3.555 3.555 0 0 1 3.506 3.593v.001a3.555 3.555 0 0 1-3.549 3.505z" fill="#231F1F"/>
        <path d="M123.492 170.12h.01-.01zm-3.05-2.587c-.67 0-1.301.257-1.78.725a2.531 2.531 0 0 0-.77 1.793 2.554 2.554 0 0 0 2.52 2.581h.03a2.553 2.553 0 0 0 2.55-2.519 2.552 2.552 0 0 0-2.519-2.58h-.032zm0 6.1h-.044a3.557 3.557 0 0 1-3.506-3.594 3.527 3.527 0 0 1 1.071-2.497c.678-.66 1.55-1.038 2.522-1.009a3.555 3.555 0 0 1 3.506 3.593v.001a3.555 3.555 0 0 1-3.549 3.505z" fill="#33475C"/>
        <g transform="translate(246 121.05)">
            <mask id="b" fill="#fff">
                <use xlink:href="#a"/>
            </mask>
            <path fill="#FF8F52" mask="url(#b)" d="M-8.911 21.386h30.36V-8.986h-30.36z"/>
        </g>
        <g transform="translate(251 129.05)">
            <mask id="d" fill="#fff">
                <use xlink:href="#c"/>
            </mask>
            <path fill="#FB0" mask="url(#d)" d="M-15.021 36.455h50.688v-50.711h-50.688z"/>
        </g>
        <g transform="translate(145 43.05)">
            <mask id="f" fill="#fff">
                <use xlink:href="#e"/>
            </mask>
            <path fill="#F65257" mask="url(#f)" d="M-9.14 20.823h30.36V-9.549H-9.14z"/>
        </g>
        <g transform="translate(136 31.05)">
            <mask id="h" fill="#fff">
                <use xlink:href="#g"/>
            </mask>
            <path fill="#FB0" mask="url(#h)" d="M-9.16 23.074h32.076V-9.019H-9.16z"/>
        </g>
        <g transform="translate(130 47.05)">
            <mask id="j" fill="#fff">
                <use xlink:href="#i"/>
            </mask>
            <path fill="#00A4BF" mask="url(#j)" d="M-2.078 21.075h23.11V-2.336h-23.11z"/>
        </g>
        <g>
            <path fill="#FDBBAB" d="M139.418 84.708v22.758l-16.967-13.325"/>
            <path d="M139.418 107.966a.503.503 0 0 1-.309-.106l-16.966-13.326a.5.5 0 1 1 .617-.787l16.158 12.691v-21.73a.5.5 0 0 1 1 0v22.758a.499.499 0 0 1-.5.5" fill="#34475B"/>
            <path fill="#FBE1B2" d="M156.385 72.35v25.904l-16.967-13.325"/>
            <path d="M156.385 98.754a.503.503 0 0 1-.309-.106L139.11 85.322a.5.5 0 1 1 .617-.787l16.158 12.691V72.351a.5.5 0 1 1 1 0v25.903a.499.499 0 0 1-.5.5" fill="#34475B"/>
            <path fill="#F9A9BD" d="M122.713 94.095v21.365l-17.68-13.886"/>
            <path d="M122.713 115.96a.503.503 0 0 1-.309-.106l-17.679-13.886a.5.5 0 1 1 .617-.787l16.871 13.251V94.095a.5.5 0 1 1 1 0v21.365a.499.499 0 0 1-.5.5" fill="#34475B"/>
            <path fill="#F9A9BD" d="M168.292 60.046l1.552 23.62-14.04-11.029"/>
            <path d="M169.844 84.165a.505.505 0 0 1-.309-.106L155.494 73.03a.502.502 0 0 1-.085-.702.502.502 0 0 1 .703-.085l13.16 10.337-1.479-22.5a.5.5 0 0 1 .466-.533.505.505 0 0 1 .532.466l1.552 23.62a.498.498 0 0 1-.499.532" fill="#34475B"/>
            <path fill="#FDBBAB" d="M175.722 50.87l1.091 16.564-8.886-6.978"/>
            <path d="M176.813 67.935a.505.505 0 0 1-.31-.106l-8.884-6.98a.5.5 0 1 1 .617-.786l8.005 6.287-1.018-15.446a.5.5 0 0 1 .466-.532c.295-.034.514.19.532.465l1.09 16.565a.498.498 0 0 1-.498.533" fill="#34475B"/>
            <path fill="#FBE1B2" d="M89.849 105.671l13.512 14.885 2.342-19.478"/>
            <path d="M103.36 121.056a.5.5 0 0 1-.37-.164L89.48 106.007a.5.5 0 1 1 .74-.672l12.777 14.075 2.21-18.391a.496.496 0 0 1 .556-.437.5.5 0 0 1 .437.556l-2.342 19.478a.5.5 0 0 1-.496.44" fill="#34475B"/>
            <path fill="#FDBBAB" d="M77.434 108.105l11.303 12.45 1.78-14.82"/>
            <path d="M88.737 121.056a.5.5 0 0 1-.37-.164L77.064 108.44a.5.5 0 1 1 .74-.672l10.567 11.64 1.65-13.733a.499.499 0 1 1 .993.119l-1.781 14.82a.5.5 0 0 1-.496.44" fill="#34475B"/>
            <path d="M73.89 108.892a.5.5 0 0 1-.038-.998c.644-.051 64.887-5.668 103.042-59.496a.5.5 0 1 1 .816.578c-38.433 54.22-103.132 59.864-103.78 59.914-.014.002-.026.002-.04.002" fill="#33475C"/>
            <path d="M75.647 108.404a1.756 1.756 0 1 1-3.512 0 1.756 1.756 0 0 1 3.512 0M179.058 48.7a1.756 1.756 0 1 1-3.512 0 1.756 1.756 0 0 1 3.512 0" fill="#33475C"/>
            <path fill="#FDBBAB" d="M235.302 84.708v22.758l16.967-13.325"/>
            <path d="M235.302 107.966a.502.502 0 0 1-.5-.5V84.708a.5.5 0 0 1 1 0v21.73l16.158-12.69a.5.5 0 1 1 .617.786l-16.966 13.326a.503.503 0 0 1-.309.106" fill="#34475B"/>
            <path fill="#FBE1B2" d="M218.335 72.35v25.904l16.967-13.325"/>
            <path d="M218.335 98.754a.502.502 0 0 1-.5-.5V72.351a.5.5 0 1 1 1 0v24.875l16.158-12.69a.501.501 0 0 1 .617.786l-16.966 13.326a.503.503 0 0 1-.309.106" fill="#34475B"/>
            <path fill="#F9A9BD" d="M252.007 94.095v21.365l17.68-13.886"/>
            <path d="M252.007 115.96a.502.502 0 0 1-.5-.5V94.095a.5.5 0 1 1 1 0v20.337l16.871-13.25a.5.5 0 1 1 .617.786l-17.679 13.886a.503.503 0 0 1-.309.106" fill="#34475B"/>
            <path fill="#F9A9BD" d="M206.428 60.046l-1.552 23.62 14.041-11.029"/>
            <path d="M204.876 84.165a.498.498 0 0 1-.499-.533l1.552-23.619a.5.5 0 0 1 .998.066l-1.479 22.501 13.16-10.337a.5.5 0 1 1 .618.787l-14.04 11.03c-.09.07-.2.105-.31.105" fill="#34475B"/>
            <path fill="#FDBBAB" d="M198.998 50.87l-1.09 16.564 8.885-6.978"/>
            <path d="M197.907 67.935a.498.498 0 0 1-.499-.533l1.091-16.565c.019-.274.225-.498.533-.465a.5.5 0 0 1 .465.532L198.48 66.35l8.005-6.287a.501.501 0 0 1 .617.787l-8.885 6.979c-.09.07-.2.106-.309.106" fill="#34475B"/>
            <path fill="#FBE1B2" d="M284.871 105.671l-13.512 14.885-2.342-19.478"/>
            <path d="M271.36 121.056a.5.5 0 0 1-.496-.44l-2.342-19.478a.5.5 0 1 1 .992-.12l2.21 18.392 12.778-14.075a.5.5 0 1 1 .74.672l-13.512 14.885a.5.5 0 0 1-.37.164" fill="#34475B"/>
            <path fill="#FDBBAB" d="M297.286 108.105l-11.303 12.45-1.78-14.82"/>
            <path d="M285.984 121.056a.5.5 0 0 1-.496-.44l-1.781-14.821a.497.497 0 0 1 .436-.555.497.497 0 0 1 .556.436l1.65 13.734 10.568-11.641a.5.5 0 0 1 .74.672l-11.303 12.45a.5.5 0 0 1-.37.165" fill="#34475B"/>
            <path d="M300.83 108.892c-.014 0-.026 0-.04-.002-.648-.05-65.347-5.693-103.78-59.914a.5.5 0 1 1 .816-.578c38.155 53.828 102.398 59.445 103.042 59.496a.499.499 0 0 1-.038.998" fill="#33475C"/>
            <path d="M299.073 108.404a1.756 1.756 0 1 0 3.512 0 1.756 1.756 0 0 0-3.512 0M195.662 48.7a1.756 1.756 0 1 0 3.512 0 1.756 1.756 0 0 0-3.512 0" fill="#33475C"/>
            <path d="M163.781 192.856v4.37c0 .123.081.247.243.34.325.187.857.187 1.181 0 .162-.093.243-.217.243-.34v-4.37h-1.667z" fill="#E8824A"/>
            <path d="M164.281 197.133c.197.096.507.092.667.004v-3.78h-.667v3.776zm.334 1.073c-.3 0-.6-.068-.84-.206-.313-.18-.493-.464-.493-.774v-4.37a.5.5 0 0 1 .5-.5h1.667a.5.5 0 0 1 .5.5v4.37c0 .31-.18.593-.493.773-.24.138-.54.207-.841.207z" fill="#33475C"/>
            <path d="M164.615 179.971l-5.418 9.438c-.614 1.175.681 2.093 1.267 2.431 2.25 1.299 6.052 1.299 8.302 0 .584-.337 1.87-1.248 1.255-2.449l-5.405-9.42zm0 14.852c-1.854 0-3.707-.417-5.15-1.25-2.196-1.267-2.989-3.279-2.02-5.126l6.303-10.983c.355-.621 1.38-.621 1.734 0l6.284 10.949a.602.602 0 0 1 .02.035c.966 1.846.174 3.858-2.02 5.125-1.444.833-3.297 1.25-5.15 1.25z" fill="#33475C"/>
            <path d="M168.385 190.918c-.074.172-.138.35-.201.527a9.085 9.085 0 0 1-.339.825c.33-.123.64-.267.922-.43.586-.338 1.88-1.256 1.247-2.465l-1.885-3.284c.45 2.056.653 3.901.256 4.827m-3.746 3.881c-.698 0-1.403-.059-2.094-.178a.999.999 0 0 1-.824-1.082.987.987 0 0 1 1.017-.903c2.881.077 3.143-.706 3.564-1.87.078-.215.156-.43.245-.637.485-1.128-1.112-7.016-2.871-11.823a1 1 0 0 1 1.807-.842l6.284 10.95c.985 1.88.193 3.892-2 5.158-1.381.797-3.231 1.227-5.128 1.227" fill="#33475C"/>
            <path d="M164.615 177.18l-4.296 7.483c-.428.823.539 1.502.976 1.754 1.8 1.039 4.842 1.039 6.64 0 .435-.251 1.394-.923.964-1.773l-4.284-7.463zm0 12.019c-1.555 0-3.108-.35-4.32-1.05-1.863-1.075-2.557-2.864-1.727-4.447l5.18-9.028c.356-.621 1.38-.621 1.735 0l5.162 8.993a.602.602 0 0 1 .018.035c.83 1.583.136 3.37-1.728 4.448-1.21.699-2.766 1.049-4.32 1.049z" fill="#33475C"/>
            <path d="M168.185 186.02l-.093.219a3.82 3.82 0 0 1-.047.113c.468-.292 1.26-.932.847-1.723l-.662-1.152c.174 1.083.19 1.99-.045 2.543m-3.552 3.16c-.584 0-1.172-.05-1.748-.148a1 1 0 0 1-.825-1.082c.05-.521.446-.913 1.018-.904 2.494.058 2.76-.592 3.168-1.575l.1-.24c.34-.918-1.101-5.751-2.66-9.69a1 1 0 0 1 1.797-.867l5.162 8.993c.849 1.619.154 3.406-1.71 4.483-1.158.669-2.711 1.03-4.302 1.03" fill="#33475C"/>
            <path d="M164.615 174.235l-3.028 5.275c-.212.408.312.796.645.989 1.27.732 3.497.732 4.766 0 .33-.191.847-.574.633-1.01l-3.016-5.254zm0 8.817c-1.218 0-2.434-.274-3.383-.821-1.763-1.018-1.972-2.584-1.397-3.683l3.914-6.82c.357-.621 1.377-.621 1.734 0l3.896 6.786c.006.01.01.023.017.033.576 1.099.368 2.665-1.397 3.684-.948.547-2.166.82-3.384.82z" fill="#33475C"/>
            <path d="M167.364 180.199h.01-.01zm-2.711 2.845c-.46 0-.925-.039-1.386-.119a1 1 0 0 1 .17-1.985h.024c1.62.056 2.618-.335 2.97-1.105.124-.822-1.292-4.348-2.708-7.159a1 1 0 0 1 1.76-.948l3.896 6.786c.593 1.133.384 2.697-1.38 3.717-.921.531-2.111.813-3.346.813z" fill="#33475C"/>
            <path d="M170.9 188.911l-6.284-10.949-6.285 10.95c-.681 1.3-.138 2.771 1.633 3.794 2.558 1.476 6.745 1.476 9.303 0 1.77-1.023 2.314-2.495 1.633-3.795" fill="#00BEA5"/>
            <path d="M167.466 190.524c-.613 1.428-.616 3.203-4.75 3.112 2.247.389 4.783.09 6.551-.93 1.77-1.022 2.313-2.494 1.633-3.794l-6.285-10.95s3.793 10.37 2.851 12.562" fill="#00A48D"/>
            <path d="M169.778 184.165l-5.162-8.993-5.163 8.993c-.56 1.068-.113 2.277 1.342 3.118 2.1 1.213 5.54 1.213 7.64 0 1.456-.84 1.903-2.05 1.343-3.118" fill="#00BEA5"/>
            <path d="M167.266 185.624c-.504 1.173-.815 2.497-4.211 2.422 1.847.32 3.93.075 5.38-.763 1.456-.84 1.902-2.05 1.343-3.118l-5.162-8.993s3.424 8.651 2.65 10.452" fill="#00A48D"/>
            <path d="M168.51 179.012h.001l-3.896-6.786-3.895 6.786c-.422.806-.086 1.719 1.012 2.353 1.586.915 4.18.915 5.766 0 1.098-.634 1.435-1.547 1.012-2.353" fill="#00BEA5"/>
            <path d="M167.364 180.199c-.381.885-1.363 1.797-3.926 1.74 1.394.242 2.965.058 4.06-.574 1.098-.635 1.435-1.547 1.012-2.353l-3.894-6.786s3.332 6.614 2.748 7.973" fill="#00A48D"/>
            <path d="M153.946 201.365v4.37c0 .124.08.246.243.34.324.188.856.188 1.18 0 .163-.093.244-.216.244-.34v-4.37h-1.667z" fill="#E8824A"/>
            <path d="M154.446 205.642c.197.096.507.09.667.005v-3.781h-.667v3.776zm.333 1.074c-.301 0-.601-.07-.84-.208-.313-.18-.493-.463-.493-.773v-4.37a.5.5 0 0 1 .5-.5h1.667a.5.5 0 0 1 .5.5v4.37c0 .31-.18.593-.493.773-.24.139-.54.208-.841.208z" fill="#33475C"/>
            <path d="M154.779 188.48l-5.417 9.439c-.614 1.174.68 2.092 1.266 2.43 2.25 1.302 6.053 1.3 8.302 0 .584-.337 1.87-1.248 1.255-2.45l-5.406-9.418zm0 14.853c-1.854 0-3.707-.417-5.151-1.251-2.194-1.267-2.986-3.28-2.02-5.125l6.304-10.983c.355-.621 1.377-.621 1.734 0l6.285 10.948c.007.01.012.023.018.034.969 1.847.176 3.859-2.02 5.126-1.443.834-3.296 1.25-5.15 1.25z" fill="#33475C"/>
            <path d="M157.63 199.034h.01-.01zm.663-4.432c.45 2.055.653 3.9.256 4.827a8.968 8.968 0 0 0-.202.528c-.102.28-.21.557-.338.822.33-.123.64-.266.921-.43.586-.337 1.881-1.255 1.247-2.463l-1.884-3.284zm-3.49 8.706c-.698 0-1.403-.058-2.094-.177a.999.999 0 0 1-.824-1.082c.051-.522.508-.885 1.016-.904 2.866.072 3.144-.707 3.565-1.869.078-.215.156-.43.245-.637.485-1.127-1.113-7.016-2.872-11.823a1 1 0 0 1 1.807-.843l6.285 10.95c.985 1.88.193 3.892-2 5.159-1.38.797-3.23 1.226-5.128 1.226z" fill="#33475C"/>
            <path d="M154.779 185.69l-4.295 7.483c-.43.823.538 1.5.975 1.753 1.8 1.04 4.84 1.042 6.64 0 .436-.251 1.395-.923.964-1.772l-4.284-7.464zm0 12.019c-1.555 0-3.108-.351-4.32-1.05-1.865-1.076-2.558-2.864-1.728-4.448l5.18-9.028c.356-.621 1.378-.621 1.735 0l5.163 8.994.018.034c.83 1.584.137 3.372-1.727 4.448-1.211.699-2.766 1.05-4.32 1.05z" fill="#33475C"/>
            <path d="M158.349 194.528l-.092.219-.048.114c.468-.292 1.26-.931.846-1.722l-.66-1.15c.172 1.08.19 1.988-.046 2.539m-3.553 3.162c-.584 0-1.172-.05-1.748-.148a1 1 0 0 1-.824-1.082c.05-.521.467-.872 1.017-.904 2.495.059 2.76-.594 3.169-1.576l.1-.24c.339-.92-1.101-5.752-2.661-9.691a.999.999 0 0 1 1.797-.866l5.163 8.994c.848 1.62.153 3.407-1.71 4.482-1.16.67-2.713 1.03-4.303 1.03" fill="#33475C"/>
            <path d="M154.779 182.743l-3.028 5.275c-.213.408.312.796.645.99 1.269.732 3.496.733 4.767 0 .33-.192.846-.575.633-1.01l-3.017-5.255zm0 8.817c-1.217 0-2.435-.273-3.383-.82-1.765-1.02-1.973-2.586-1.397-3.685l3.913-6.819c.355-.62 1.377-.62 1.734 0l3.896 6.786.018.034c.575 1.1.366 2.665-1.397 3.683-.948.548-2.166.821-3.383.821z" fill="#33475C"/>
            <path d="M156.608 188.312zm-1.791 3.242c-.46 0-.925-.04-1.386-.12a1 1 0 0 1 .17-1.984h.024c1.626.058 2.619-.336 2.969-1.107.124-.821-1.292-4.347-2.708-7.158a1 1 0 0 1 1.76-.948l3.896 6.786c.593 1.133.384 2.698-1.38 3.717-.92.53-2.11.814-3.345.814z" fill="#33475C"/>
            <path d="M161.063 197.42l-6.284-10.948-6.284 10.948c-.681 1.3-.138 2.772 1.632 3.795 2.559 1.477 6.746 1.477 9.303 0 1.772-1.023 2.315-2.495 1.633-3.795" fill="#00BEA5"/>
            <path d="M157.63 199.034c-.614 1.428-.616 3.202-4.75 3.11 2.247.39 4.783.091 6.55-.928 1.771-1.023 2.314-2.495 1.633-3.796h.001l-6.286-10.948s3.794 10.37 2.852 12.561" fill="#00A48D"/>
            <path d="M159.94 192.675h.002l-5.163-8.994-5.162 8.994c-.56 1.067-.114 2.277 1.342 3.117 2.1 1.214 5.54 1.214 7.64 0 1.456-.84 1.902-2.05 1.342-3.117" fill="#00BEA5"/>
            <path d="M157.43 194.133c-.504 1.174-.815 2.497-4.211 2.423 1.846.32 3.93.074 5.381-.764 1.455-.84 1.9-2.05 1.341-3.117h.001l-5.163-8.994s3.425 8.651 2.651 10.452" fill="#00A48D"/>
            <path d="M158.674 187.52l-3.896-6.785-3.895 6.786h.001c-.423.806-.086 1.719 1.012 2.353 1.586.916 4.18.916 5.766 0 1.098-.634 1.434-1.547 1.012-2.353" fill="#00BEA5"/>
            <path d="M157.527 188.707c-.38.886-1.362 1.8-3.925 1.742 1.393.241 2.965.057 4.06-.576 1.098-.634 1.434-1.547 1.012-2.353l-3.895-6.786s3.333 6.615 2.748 7.973" fill="#00A48D"/>
            <path d="M171.928 202.011l-5.417 9.438c-.614 1.175.68 2.093 1.266 2.431 2.251 1.299 6.053 1.299 8.302 0 .584-.337 1.87-1.248 1.255-2.449l-5.406-9.42zm0 14.852c-1.854 0-3.707-.416-5.151-1.25-2.194-1.267-2.986-3.279-2.019-5.125l6.303-10.984c.355-.621 1.377-.621 1.734 0l6.285 10.949c.007.011.012.023.018.034.969 1.847.176 3.859-2.019 5.126-1.444.834-3.297 1.25-5.151 1.25z" fill="#33475C"/>
            <path d="M174.78 212.564h.01-.01zm.663-4.43c.45 2.055.653 3.899.256 4.825a8.968 8.968 0 0 0-.202.528 8.77 8.77 0 0 1-.34.823c.33-.123.64-.267.923-.43.586-.337 1.88-1.255 1.247-2.463l-1.884-3.283zm-3.49 8.705c-.698 0-1.403-.058-2.094-.177a1 1 0 1 1 .171-1.986h.02c2.868.078 3.146-.705 3.566-1.87.078-.215.156-.43.245-.637.485-1.127-1.113-7.015-2.872-11.823a1 1 0 0 1 1.807-.842l6.285 10.95c.986 1.88.193 3.892-2.001 5.159-1.38.797-3.23 1.226-5.127 1.226z" fill="#33475C"/>
            <path d="M171.928 199.221l-4.295 7.482c-.43.824.538 1.502.975 1.754 1.799 1.039 4.841 1.039 6.641 0 .435-.25 1.393-.923.963-1.773l-4.284-7.463zm0 12.018c-1.554 0-3.108-.35-4.32-1.049-1.863-1.075-2.557-2.863-1.728-4.448l5.181-9.028c.355-.621 1.377-.621 1.734 0l5.163 8.993.018.035c.83 1.584.137 3.373-1.727 4.448-1.212.699-2.766 1.049-4.321 1.049z" fill="#33475C"/>
            <path d="M175.498 208.06l-.093.219a3.82 3.82 0 0 1-.047.113c.468-.292 1.26-.931.846-1.723l-.66-1.15c.173 1.082.19 1.99-.046 2.54m-3.552 3.16c-.583 0-1.172-.048-1.749-.147a1 1 0 0 1 .171-1.986h.023c2.508.052 2.76-.592 3.168-1.575l.1-.24c.34-.92-1.1-5.752-2.66-9.69a1 1 0 0 1 1.796-.867l5.163 8.993c.848 1.62.153 3.408-1.709 4.483-1.16.67-2.712 1.03-4.303 1.03" fill="#33475C"/>
            <path d="M171.928 196.275l-3.028 5.275c-.213.408.312.796.645.989 1.271.733 3.498.73 4.767 0 .33-.191.846-.574.633-1.01l-3.017-5.254zm0 8.817c-1.217 0-2.434-.274-3.383-.821-1.765-1.02-1.973-2.585-1.397-3.684l3.913-6.82c.355-.62 1.377-.62 1.734 0l3.896 6.787.018.034c.575 1.099.366 2.665-1.397 3.683-.948.547-2.166.82-3.384.82z" fill="#33475C"/>
            <path d="M173.757 201.843v.002-.002zm-1.793 3.241c-.459 0-.923-.039-1.383-.118a1 1 0 0 1 .17-1.985h.022c1.613.053 2.618-.336 2.97-1.107.125-.821-1.292-4.347-2.708-7.158a1 1 0 1 1 1.76-.948l3.896 6.786c.593 1.133.384 2.698-1.379 3.717-.922.531-2.113.813-3.348.813z" fill="#33475C"/>
            <path d="M178.212 210.951h.001l-6.285-10.949-6.284 10.95c-.68 1.3-.138 2.771 1.632 3.794 2.56 1.476 6.746 1.476 9.303 0 1.772-1.023 2.315-2.495 1.633-3.795" fill="#00BEA5"/>
            <path d="M174.78 212.564c-.614 1.428-.616 3.203-4.75 3.112 2.247.389 4.783.09 6.55-.93 1.77-1.022 2.314-2.494 1.633-3.794l-6.285-10.95s3.794 10.37 2.852 12.562" fill="#00A48D"/>
            <path d="M177.09 206.205h.001l-5.163-8.993-5.162 8.993c-.559 1.068-.114 2.278 1.342 3.118 2.101 1.213 5.54 1.213 7.641 0 1.455-.84 1.901-2.05 1.341-3.118" fill="#00BEA5"/>
            <path d="M174.58 207.664c-.505 1.173-.816 2.497-4.212 2.422 1.846.32 3.93.075 5.381-.763 1.455-.84 1.9-2.05 1.341-3.118h.001l-5.163-8.993s3.425 8.651 2.651 10.452" fill="#00A48D"/>
            <path d="M175.823 201.052l-3.896-6.786-3.894 6.786c-.422.806-.085 1.719 1.013 2.353 1.586.915 4.18.915 5.766 0 1.098-.634 1.434-1.547 1.012-2.353" fill="#00BEA5"/>
            <path d="M174.676 202.238c-.38.885-1.362 1.798-3.925 1.742 1.393.24 2.965.056 4.061-.576 1.097-.634 1.433-1.547 1.011-2.353l-3.895-6.786s3.333 6.614 2.748 7.974" fill="#00A48D"/>
        </g>
    </g>
</svg>
