<svg width="121" height="91" viewBox="0 0 121 91" xmlns="http://www.w3.org/2000/svg">
    <g fill="none" fill-rule="evenodd">
        <path d="M64.094 89.847L3.332 54.767c-1.234-.713-1.077-1.97.347-2.791l47.969-27.694c1.425-.824 3.599-.914 4.833-.202l60.762 35.08c1.234.714 1.078 1.969-.347 2.792L68.927 89.647c-1.424.822-3.599.913-4.833.2" fill="#F9D28C" opacity=".5"/>
        <path d="M118.075 48.438s-7.254-9.724-17.657-15.729c-14.398-8.314-18.68-5.25-30.666-12.17S52.562 5.08 52.562 5.08L2.5 33.98s5.205 8.541 17.19 15.461c11.986 6.92 16.268 3.856 30.666 12.17 10.404 6.006 17.657 15.73 17.657 15.73l50.062-28.904zM61.934 23.793L25.75 44.683M67.2 26.95L31.456 47.587M64.22 25.452L28.45 46.103M85.528 32.906l-35.731 20.63M89.629 34.76l-35.76 20.646M106.394 46.797L70.218 67.683" stroke="#33475C" stroke-width="5" stroke-linecap="round" stroke-linejoin="round"/>
        <path d="M56.153 20.919c-1.075.928-2.171 1.918-3.457 2.545-1.27.619-2.476.37-3.787.657-1.834.403-3.414 2.327-4.782 3.819-.021-.49-.01-.97.038-1.503.038-.446-.572-.785-.902-.44l-3.57 3.726c-.453.473-.902 1.113-1.508 1.428l-.003.009-.745.378-.01.005-.021.01v-.003c-.267.13-.392.048-.366-.262l-.003.003.135-1.766.006-.284c.014-.542-.633-.717-.953-.322-.758.934-1.517 1.867-2.277 2.8.132-1.37.375-2.712.75-4.064.153-.55-.633-1.024-.948-.47-1.683 2.966-9.166 16.937-13.356 11.708-2.412-3.01.252-6.91 2.442-9.142.906-.922 2.504-2.541 3.882-2.535 2.292.01 1.707 2.842 1.353 3.893-.293.87-.755 1.57-1.334 2.264-.4.479.403.999.8.536 1.63-1.898 3.566-8.652-1.044-7.758-3.883.753-7.926 5.782-8.152 9.642-.208 3.579 3.196 6.79 6.635 4.799 1.972-1.142 3.39-3.342 4.71-5.131 1.189-1.61 2.297-3.274 3.345-4.976-.131.927-.215 1.86-.241 2.813-.015.548.64.724.963.325l2.27-2.804c-.037 1.115.165 2.143 1.575 1.884 1.055-.194 1.828-1.18 2.528-1.895.974-1 1.94-2.01 2.908-3.016.013.497.054.992.124 1.499.056.405.613.57.899.297 1.169-1.115 2.284-2.392 3.554-3.391 1.302-1.024 2.55-.841 4.015-1.148 2.083-.44 3.748-1.892 5.25-3.312.513-.482-.19-1.28-.723-.818zM35.966 47.902c-1.026.593-.929 1.326.216 1.631 0 0 2.48.66 3.813 1.008 1.332.348 3.86 1.148 3.86 1.148 1.13.358 2.895.165 3.921-.427l32.66-18.855c1.025-.593.936-1.356-.199-1.695 0 0-1.526-.456-4.06-1.04-2.535-.585-3.6-.985-3.6-.985-1.11-.417-2.858-.272-3.884.32L35.966 47.902zM65.804 64.1c.962.692 2.589.774 3.615.182l32.632-18.84c1.026-.593 1.09-1.658.14-2.368 0 0-1.695-1.66-3.38-3.011-1.598-1.282-3.926-2.784-3.926-2.784-1.03-.587-2.713-.582-3.739.01L58.282 56.263c-1.026.593-1.033 1.573-.014 2.18 0 0 2.044 1.23 3.906 2.628 2.057 1.545 3.63 3.029 3.63 3.029zM75.002 32.097L45.16 49.326M71.005 30.884L40.993 48.21M92.767 39.964L62.93 57.19M95.748 42.055L65.832 59.327M98.291 44.077L68.317 61.383M49.796 53.536c1.263.521 2.612 1.132 4.073 1.87M28.45 46.103c1.058.567 2.054 1.057 3.005 1.484M67.2 26.95c-.942-.434-1.931-.928-2.98-1.498M89.629 34.76c-1.472-.733-2.83-1.34-4.101-1.854" stroke="#33475C" stroke-width="5" stroke-linecap="round" stroke-linejoin="round"/>
        <path d="M83.242 36.85c-.685.395-.685 1.041 0 1.438l6.395 3.692c.685.394 1.804.394 2.49 0l20.606-11.898c.684-.396.684-1.043 0-1.437l-6.396-3.692c-.684-.395-1.804-.395-2.488 0L83.242 36.85z" stroke="#33475C" stroke-width="5" stroke-linecap="round" stroke-linejoin="round"/>
        <path d="M83.242 36.85c-.685.395-.685 1.041 0 1.438l6.395 3.692c.685.394 1.804.394 2.49 0l20.606-11.898c.684-.396.684-1.043 0-1.437l-6.396-3.692c-.684-.395-1.804-.395-2.488 0L83.242 36.85z" stroke="#33475C" stroke-width="5" stroke-linecap="round" stroke-linejoin="round"/>
        <path d="M106.935 28.376s.182-.248-.102-.438c-.213-.144-.365-.071-.427-.026-.245.344-.493.686-.728 1.037-.534-.576-1.707.525-2.441 1.328-.03-.203-.07-.406-.128-.624-.065-.24-.426-.375-.6-.158-.593.737-1.184 1.476-1.776 2.214l-.167-1.062c-.047-.297-.415-.304-.6-.16-1.281 1.01-2.321 2.177-3.18 3.52-.014-.393-.01-.786.018-1.19.019-.305-.411-.482-.614-.254-.814.919-1.53 1.889-2.16 2.924l.038-1.654c.009-.36-.492-.485-.67-.182-.921 1.582-1.857 3.157-2.798 4.727-.25-.715-.15-1.545.307-2.166.274-.373-.35-.732-.62-.362-.81 1.097-.817 2.343-.022 3.457.154.215.472.246.62 0 .82-1.365 1.627-2.737 2.433-4.11l-.04 1.714c-.01.348.505.5.669.18.608-1.175 1.305-2.244 2.12-3.263.009.435.036.868.094 1.313.043.32.482.529.67.18.813-1.507 1.859-2.78 3.136-3.883l.192 1.22c.04.256.44.36.6.159l1.809-2.254c.018.206.019.414-.008.624-.014.297.412.49.613.253.08-.094 2.01-2.18 2.052-1.72.032.348.469.496.669.18.333-.52.68-1.028 1.04-1.524zM44.214 40.222c-.953-.427-1.952-.914-3.01-1.48M66.624 48.041c-1.466-.741-2.818-1.357-4.085-1.881M56.492 33.133c-.961-.421-1.968-.903-3.037-1.466M78.881 40.965c-1.447-.742-2.784-1.361-4.037-1.89M92.098 6.224l.274-.428-2.848-2.143c-1.707-1.282-4.065-1.556-6.668-.512-5.212 2.09-9.438 8.663-9.438 14.682 0 3.012 1.06 5.314 2.77 6.6l2.847 2.146.275-.43c1.336.302 2.867.163 4.493-.49 5.212-2.09 9.438-8.663 9.438-14.682 0-1.883-.414-3.489-1.143-4.743z" stroke="#33475C" stroke-width="5" stroke-linecap="round" stroke-linejoin="round"/>
        <path d="M92.373 5.797c1.71 1.287 2.769 3.589 2.769 6.6 0 6.019-4.225 12.592-9.437 14.683-2.604 1.044-4.961.772-6.67-.512-1.71-1.287-2.768-3.588-2.768-6.601 0-6.02 4.226-12.592 9.438-14.682 2.603-1.044 4.96-.772 6.668.512z" stroke="#33475C" stroke-width="5" stroke-linecap="round" stroke-linejoin="round"/>
        <path d="M91.448 15.123c0 .456-.323.958-.718 1.116L80.679 20.27c-.395.159-.718-.085-.718-.541v-2.487c0-.456.323-.958.718-1.117l10.051-4.03c.395-.159.718.085.718.541v2.487z" stroke="#33475C" stroke-width="5" stroke-linecap="round" stroke-linejoin="round"/>
        <path d="M92.373 5.797l-2.848-2.144c-1.708-1.283-4.065-1.555-6.67-.511-5.211 2.09-9.436 8.663-9.436 14.68 0 3.014 1.058 5.316 2.769 6.602l2.848 2.144c1.708 1.284 4.065 1.556 6.669.512 5.212-2.091 9.437-8.664 9.437-14.682 0-3.012-1.058-5.314-2.77-6.601z" stroke="#33475C" stroke-width="5" stroke-linecap="round" stroke-linejoin="round"/>
        <path d="M118.075 48.438s-7.254-9.724-17.657-15.729c-14.398-8.314-18.68-5.25-30.666-12.17S52.562 5.08 52.562 5.08L2.5 33.98s5.205 8.541 17.19 15.461c11.986 6.92 16.268 3.856 30.666 12.17 10.404 6.006 17.657 15.73 17.657 15.73l50.062-28.904z" fill="#FFF"/>
        <path d="M118.075 48.438s-7.254-9.724-17.657-15.729c-14.398-8.314-18.68-5.25-30.666-12.17S52.562 5.08 52.562 5.08L2.5 33.98s5.205 8.541 17.19 15.461c11.986 6.92 16.268 3.856 30.666 12.17 10.404 6.006 17.657 15.73 17.657 15.73l50.062-28.904z" stroke="#33475C" stroke-linecap="round" stroke-linejoin="round"/>
        <path d="M61.934 23.793L25.75 44.683" fill="#FFF"/>
        <path d="M61.934 23.793L25.75 44.683" stroke="#FAA8AC" stroke-width="2" stroke-linecap="round" stroke-linejoin="round"/>
        <path d="M67.2 26.95L31.456 47.587M64.22 25.452L28.45 46.103M85.528 32.906l-35.731 20.63" stroke="#FAA8AC" stroke-linecap="round" stroke-linejoin="round"/>
        <path d="M89.629 34.76l-35.76 20.646" fill="#FFF"/>
        <path d="M89.629 34.76l-35.76 20.646" stroke="#FAA8AC" stroke-width="2" stroke-linecap="round" stroke-linejoin="round"/>
        <path d="M106.394 46.797L70.218 67.683" stroke="#FAA8AC" stroke-linecap="round" stroke-linejoin="round"/>
        <path d="M56.153 20.919c-1.075.928-2.171 1.918-3.457 2.545-1.27.619-2.476.37-3.787.657-1.834.403-3.414 2.327-4.782 3.819-.021-.49-.01-.97.038-1.503.038-.446-.572-.785-.902-.44l-3.57 3.726c-.453.473-.902 1.113-1.508 1.428l-.003.009-.745.378-.01.005-.021.01v-.003c-.267.13-.392.048-.366-.262l-.003.003.135-1.766.006-.284c.014-.542-.633-.717-.953-.322-.758.934-1.517 1.867-2.277 2.8.132-1.37.375-2.712.75-4.064.153-.55-.633-1.024-.948-.47-1.683 2.966-9.166 16.937-13.356 11.708-2.412-3.01.252-6.91 2.442-9.142.906-.922 2.504-2.541 3.882-2.535 2.292.01 1.707 2.842 1.353 3.893-.293.87-.755 1.57-1.334 2.264-.4.479.403.999.8.536 1.63-1.898 3.566-8.652-1.044-7.758-3.883.753-7.926 5.782-8.152 9.642-.208 3.579 3.196 6.79 6.635 4.799 1.972-1.142 3.39-3.342 4.71-5.131 1.189-1.61 2.297-3.274 3.345-4.976-.131.927-.215 1.86-.241 2.813-.015.548.64.724.963.325l2.27-2.804c-.037 1.115.165 2.143 1.575 1.884 1.055-.194 1.828-1.18 2.528-1.895.974-1 1.94-2.01 2.908-3.016.013.497.054.992.124 1.499.056.405.613.57.899.297 1.169-1.115 2.284-2.392 3.554-3.391 1.302-1.024 2.55-.841 4.015-1.148 2.083-.44 3.748-1.892 5.25-3.312.513-.482-.19-1.28-.723-.818" fill="#33475C"/>
        <path d="M35.966 47.902c-1.026.593-.929 1.326.216 1.631 0 0 2.48.66 3.813 1.008 1.332.348 3.86 1.148 3.86 1.148 1.13.358 2.895.165 3.921-.427l32.66-18.855c1.025-.593.936-1.356-.199-1.695 0 0-1.526-.456-4.06-1.04-2.535-.585-3.6-.985-3.6-.985-1.11-.417-2.858-.272-3.884.32L35.966 47.902zM65.804 64.1c.962.692 2.589.774 3.615.182l32.632-18.84c1.026-.593 1.09-1.658.14-2.368 0 0-1.695-1.66-3.38-3.011-1.598-1.282-3.926-2.784-3.926-2.784-1.03-.587-2.713-.582-3.739.01L58.282 56.263c-1.026.593-1.033 1.573-.014 2.18 0 0 2.044 1.23 3.906 2.628 2.057 1.545 3.63 3.029 3.63 3.029" fill="#FCD2D5"/>
        <path d="M75.002 32.097L45.16 49.326" fill="#FFF"/>
        <path d="M75.002 32.097L45.16 49.326" stroke="#F77D81" stroke-linecap="round" stroke-linejoin="round"/>
        <path d="M71.005 30.884L40.993 48.21" fill="#FFF"/>
        <path d="M71.005 30.884L40.993 48.21" stroke="#F77D81" stroke-linecap="round" stroke-linejoin="round"/>
        <path d="M92.767 39.964L62.93 57.19" fill="#FFF"/>
        <path d="M92.767 39.964L62.93 57.19" stroke="#F77D81" stroke-linecap="round" stroke-linejoin="round"/>
        <path d="M95.748 42.055L65.832 59.327" fill="#FFF"/>
        <path d="M95.748 42.055L65.832 59.327" stroke="#F77D81" stroke-linecap="round" stroke-linejoin="round"/>
        <path d="M98.291 44.077L68.317 61.383" fill="#FFF"/>
        <path d="M98.291 44.077L68.317 61.383" stroke="#F77D81" stroke-linecap="round" stroke-linejoin="round"/>
        <path d="M49.796 53.536c1.263.521 2.612 1.132 4.073 1.87M28.45 46.103c1.058.567 2.054 1.057 3.005 1.484M67.2 26.95c-.942-.434-1.931-.928-2.98-1.498M89.629 34.76c-1.472-.733-2.83-1.34-4.101-1.854" stroke="#FAA8AC" stroke-linecap="round" stroke-linejoin="round"/>
        <path d="M83.242 36.85c-.685.395-.685 1.041 0 1.438l6.395 3.692c.685.394 1.804.394 2.49 0l20.606-11.898c.684-.396.684-1.043 0-1.437l-6.396-3.692c-.684-.395-1.804-.395-2.488 0L83.242 36.85z" fill="#FF8F52"/>
        <path d="M83.242 36.85c-.685.395-.685 1.041 0 1.438l6.395 3.692c.685.394 1.804.394 2.49 0l20.606-11.898c.684-.396.684-1.043 0-1.437l-6.396-3.692c-.684-.395-1.804-.395-2.488 0L83.242 36.85z" fill="#F77D81"/>
        <path d="M83.242 36.85c-.685.395-.685 1.041 0 1.438l6.395 3.692c.685.394 1.804.394 2.49 0l20.606-11.898c.684-.396.684-1.043 0-1.437l-6.396-3.692c-.684-.395-1.804-.395-2.488 0L83.242 36.85z" stroke="#33475C" stroke-linecap="round" stroke-linejoin="round"/>
        <path d="M106.935 28.376s.182-.248-.102-.438c-.213-.144-.365-.071-.427-.026-.245.344-.493.686-.728 1.037-.534-.576-1.707.525-2.441 1.328-.03-.203-.07-.406-.128-.624-.065-.24-.426-.375-.6-.158-.593.737-1.184 1.476-1.776 2.214l-.167-1.062c-.047-.297-.415-.304-.6-.16-1.281 1.01-2.321 2.177-3.18 3.52-.014-.393-.01-.786.018-1.19.019-.305-.411-.482-.614-.254-.814.919-1.53 1.889-2.16 2.924l.038-1.654c.009-.36-.492-.485-.67-.182-.921 1.582-1.857 3.157-2.798 4.727-.25-.715-.15-1.545.307-2.166.274-.373-.35-.732-.62-.362-.81 1.097-.817 2.343-.022 3.457.154.215.472.246.62 0 .82-1.365 1.627-2.737 2.433-4.11l-.04 1.714c-.01.348.505.5.669.18.608-1.175 1.305-2.244 2.12-3.263.009.435.036.868.094 1.313.043.32.482.529.67.18.813-1.507 1.859-2.78 3.136-3.883l.192 1.22c.04.256.44.36.6.159l1.809-2.254c.018.206.019.414-.008.624-.014.297.412.49.613.253.08-.094 2.01-2.18 2.052-1.72.032.348.469.496.669.18.333-.52.68-1.028 1.04-1.524" fill="#FFF"/>
        <path d="M44.214 40.222c-.953-.427-1.952-.914-3.01-1.48M66.624 48.041c-1.466-.741-2.818-1.357-4.085-1.881M56.492 33.133c-.961-.421-1.968-.903-3.037-1.466M78.881 40.965c-1.447-.742-2.784-1.361-4.037-1.89" stroke="#FAA8AC" stroke-linecap="round" stroke-linejoin="round"/>
        <path d="M92.098 6.224l.274-.428-2.848-2.143c-1.707-1.282-4.065-1.556-6.668-.512-5.212 2.09-9.438 8.663-9.438 14.682 0 3.012 1.06 5.314 2.77 6.6l2.847 2.146.275-.43c1.336.302 2.867.163 4.493-.49 5.212-2.09 9.438-8.663 9.438-14.682 0-1.883-.414-3.489-1.143-4.743" fill="#F77D81"/>
        <path d="M92.373 5.797c1.71 1.287 2.769 3.589 2.769 6.6 0 6.019-4.225 12.592-9.437 14.683-2.604 1.044-4.961.772-6.67-.512-1.71-1.287-2.768-3.588-2.768-6.601 0-6.02 4.226-12.592 9.438-14.682 2.603-1.044 4.96-.772 6.668.512" fill="#F55257"/>
        <path d="M91.448 15.123c0 .456-.323.958-.718 1.116L80.679 20.27c-.395.159-.718-.085-.718-.541v-2.487c0-.456.323-.958.718-1.117l10.051-4.03c.395-.159.718.085.718.541v2.487z" fill="#FFF"/>
        <path d="M92.373 5.797l-2.848-2.144c-1.708-1.283-4.065-1.555-6.67-.511-5.211 2.09-9.436 8.663-9.436 14.68 0 3.014 1.058 5.316 2.769 6.602l2.848 2.144c1.708 1.284 4.065 1.556 6.669.512 5.212-2.091 9.437-8.664 9.437-14.682 0-3.012-1.058-5.314-2.77-6.601z" stroke="#33475C" stroke-linecap="round" stroke-linejoin="round"/>
    </g>
</svg>
