<svg width="162" height="203" viewBox="0 0 162 203" xmlns="http://www.w3.org/2000/svg">
    <g fill="none" fill-rule="evenodd">
        <path d="M148.764 155.094L82.7 116.95c-3.793-2.19-10-2.19-13.792 0L2.845 155.094c-3.793 2.189-3.793 5.772 0 7.963l66.063 38.14c3.793 2.19 9.999 2.19 13.792 0l66.064-38.14c3.793-2.191 3.793-5.774 0-7.963" fill="#F9D28C" opacity=".5"/>
        <path stroke="#33475C" stroke-width="5" stroke-linecap="round" stroke-linejoin="round" d="M6.934 141.318l68.87-39.763 68.87 39.763-68.87 39.762z"/>
        <path stroke="#33475C" stroke-width="5" stroke-linecap="round" stroke-linejoin="round" d="M10.607 136.445l65.197-37.642 65.197 37.642-65.197 37.642zM17.643 145.675v13.305l-7.036-4.063v-13.304z"/>
        <path stroke="#33475C" stroke-width="5" stroke-linecap="round" stroke-linejoin="round" d="M24.678 141.613v13.305l-7.036 4.062v-13.305zM133.965 145.675v13.305l-7.036-4.063v-13.304zM141.001 141.613v13.305l-7.036 4.062v-13.305zM75.804 179.255v13.305l-7.036-4.062v-13.305zM82.84 175.192v13.306l-7.036 4.061v-13.305z"/>
        <path stroke="#33475C" stroke-width="5" stroke-linecap="round" stroke-linejoin="round" d="M10.607 136.445l-3.673 4.873 68.87 39.762v-6.993zM141.001 136.445l3.674 4.873-68.87 39.762v-6.993z"/>
        <path stroke="#33475C" stroke-width="5" stroke-linecap="round" stroke-linejoin="round" d="M141.001 60.056v76.39l-65.197 37.64V97.697zM10.607 60.056v76.39l65.197 37.64V97.697zM6.934 54.694l68.87-39.763 68.87 39.763-68.87 39.762z"/>
        <path stroke="#33475C" stroke-width="5" stroke-linecap="round" stroke-linejoin="round" d="M75.804 101.45v-6.994l68.871-39.762-3.674 9.114z"/>
        <path stroke="#33475C" stroke-width="5" stroke-linecap="round" stroke-linejoin="round" d="M6.934 54.694l3.673 9.114 65.198 37.642v-6.994zM14.829 54.694L75.804 19.49l60.976 35.205-60.976 35.204z"/>
        <path stroke="#33475C" stroke-width="5" stroke-linecap="round" stroke-linejoin="round" d="M73.575 23.242L40.987 42.107l41.86 24.704L115.9 47.678z"/>
        <g>
            <path d="M82.848 68.25s-6.414.949-6.078 7.347c.43 8.189 6.078 1.502 6.078 1.502l30.883-17.88v-8.848L82.848 68.25z" stroke="#33475C" stroke-width="5" stroke-linecap="round" stroke-linejoin="round"/>
            <path d="M78.329 81.021s-.33-.097-.762-.439l-39.853-22.98c-1.488-1.122-3.052-3.173-3.052-6.883 0-7.073 6.325-8.612 6.325-8.612l10.32 6.031 31.54 18.673s-6.61 1.318-7.431 6.475c-.718 4.51 1.39 6.856 2.15 7.296" stroke="#33475C" stroke-width="5" stroke-linecap="round" stroke-linejoin="round"/>
            <path stroke="#33475C" stroke-width="5" stroke-linecap="round" stroke-linejoin="round" d="M73.575 23.242L40.987 42.107l41.86 24.703L115.9 47.678z"/>
            <path d="M79.92 81.96c-.209 0-.418-.016-.625-.048-1.432-.224-3.504-1.507-4.189-2.988-1.361-2.944-.835-6.674 1.34-9.503.532-.692 3.229-3.98 6.465-4.024l31.017-18c.761-.44 1.734-.181 2.174.58.44.76.181 1.734-.58 2.174L84.107 68.38c-.291.17-.63.244-.964.206-1.237-.13-3.038 1.297-4.174 2.774-1.439 1.872-1.962 4.486-1.104 6.102.188.355.713.95 1.264 1.106.488.137 1.13.147 1.408.048.622-.221.933-.455 1.448-1.23.136-.203.316-.373.528-.495l31.218-18.078c.76-.44 1.734-.18 2.174.58.44.76.181 1.735-.58 2.175l-30.913 17.9c-.839 1.142-1.653 1.605-2.48 2.009-.655.319-1.34.482-2.012.482z" stroke="#33475C" stroke-width="5" stroke-linecap="round" stroke-linejoin="round"/>
            <path d="M76.446 69.42c-2.175 2.83-2.701 6.56-1.34 9.504.685 1.48 2.757 2.764 4.19 2.988.206.032.415.048.624.048.672 0 1.357-.163 2.012-.482.827-.404 1.64-.867 2.48-2.008.016-3.286-1.9-2.578-1.9-2.578-.211.122-.391.292-.526.495-.516.775-.827 1.009-1.45 1.23-.277.099-.92.089-1.406-.048-.552-.156-1.077-.751-1.265-1.106-.858-1.616-.335-4.23 1.104-6.102 1.136-1.477 2.937-2.903 4.174-2.774.334.038.673-.036.964-.205.73-2.13-1.196-2.985-1.196-2.985-3.236.045-5.933 3.332-6.465 4.024zM101.722 73.37l-9.873-5.7 7.161-4.134 9.873 5.699-7.026.078zM85.469 30.239c-1.33-2.009-2.636-3.99-3.497-6.213l-.015.06c-.287-1.163-1.083-2.185-2.293-2.884-1.073-.619-2.444-.961-3.86-.961-1.415 0-2.786.342-3.86.961-1.21.699-2.005 1.721-2.292 2.884l-.016-.06c-.86 2.223-2.168 4.204-3.497 6.213-1.641 2.482-3.13 5.322-2.807 8.281.17 1.563.846 3.039 1.752 4.324 2.405 3.412 6.555 5.502 10.72 5.475 4.165.027 8.315-2.063 10.72-5.475.906-1.285 1.58-2.761 1.752-4.324.323-2.959-1.165-5.799-2.807-8.281z" stroke="#33475C" stroke-width="5" stroke-linecap="round" stroke-linejoin="round"/>
            <path d="M73.352 25.533c-1.35-.778-1.35-2.053 0-2.831 1.349-.78 3.556-.78 4.905 0 1.349.778 1.349 2.053 0 2.83-1.35.78-3.556.78-4.905 0zM75.29 18.603c-.022-2.796 1.19-5.446 2.552-7.887 1.011-1.809 2.131-3.579 3.576-5.064C82.864 4.166 84.661 2.97 86.68 2.5c-.812 5.557-5.547 12.813-11.39 16.104z" stroke="#33475C" stroke-width="5" stroke-linecap="round" stroke-linejoin="round"/>
            <path d="M73.366 16.43c1.162 3.037 1.41 6.442 1.447 9.595.74.127 1.534.115 2.257-.047v.001c-.038-3.352-.311-6.998-1.597-10.356-.178-.467-.376-.926-.586-1.365-1.426-2.966-3.866-5.562-6.87-7.31-.538-.316-1.23-.134-1.543.406-.314.538-.132 1.228.407 1.542 2.618 1.525 4.739 3.777 5.97 6.341.185.382.358.784.515 1.193z" stroke="#33475C" stroke-width="5" stroke-linecap="round" stroke-linejoin="round"/>
            <path d="M60.39 4.797c3.007 6.238 8.772 10.907 15.526 12.12-.11-.423-.165-.847-.308-1.263C73.45 9.363 67.04 4.79 60.39 4.797zM141.001 63.808L75.804 101.45v72.635l65.197-37.64z" stroke="#33475C" stroke-width="5" stroke-linecap="round" stroke-linejoin="round"/>
            <path stroke="#33475C" stroke-width="5" stroke-linecap="round" stroke-linejoin="round" d="M134.073 75.808L111 89.128v25.32l23.072-13.322zM105.804 123.447l-23.072 13.321v25.319l23.072-13.322zM134.073 107.127L111 120.447v25.319l23.072-13.322z"/>
            <path stroke="#33475C" stroke-width="5" stroke-linecap="round" stroke-linejoin="round" d="M130.764 112.668l-16.455 9.5v7.408l16.455-9.5z"/>
            <path stroke="#33475C" stroke-width="5" stroke-linecap="round" stroke-linejoin="round" d="M129.032 115.668v3.408l-12.99 7.5v-3.408l12.99-7.5M124.594 130.778c0 1.312-.921 2.906-2.057 3.563-1.136.655-2.057.124-2.057-1.188 0-1.312.92-2.906 2.057-3.562 1.136-.657 2.057-.125 2.057 1.187zM105.805 92.129l-23.073 13.32v25.32l23.073-13.322z"/>
            <path stroke="#33475C" stroke-width="5" stroke-linecap="round" stroke-linejoin="round" d="M102.496 97.67l-16.455 9.5v7.409l16.455-9.5z"/>
            <path stroke="#33475C" stroke-width="5" stroke-linecap="round" stroke-linejoin="round" d="M100.763 100.67v3.409l-12.99 7.5v-3.408l12.99-7.5M96.325 115.781c0 1.312-.92 2.906-2.057 3.563-1.136.655-2.057.124-2.057-1.188 0-1.313.921-2.907 2.057-3.562 1.136-.657 2.057-.125 2.057 1.187zM102.525 146.085V125.34l-19.794 11.428v20.744zM71.429 28.847c-1.208 2.246-3 4.196-3.802 6.616"/>
            <path stroke="#33475C" stroke-width="5" stroke-linecap="round" stroke-linejoin="round" d="M107.18 126.622l-20.562 11.872v22.566l20.563-11.873z"/>
            <path d="M111.617 138.166c-1.24-2.888-2.568-5.72-4.435-8.236-.742-1-1.779-2.243-2.889-2.81-1.124-.574-2.839-.91-3.908-.544-4.264 1.463-6.656 6.606-8.147 10.859-1.492 4.252-.91 9.757-.966 14.264l4.655 2.77 16.313-14.843c-.206-.488-.415-.975-.623-1.46z" stroke="#33475C" stroke-width="5" stroke-linecap="round" stroke-linejoin="round"/>
            <path stroke="#33475C" stroke-width="5" stroke-linecap="round" stroke-linejoin="round" d="M116.49 132.827l-20.563 11.872v22.566l20.563-11.873z"/>
            <path stroke="#33475C" stroke-width="5" stroke-linecap="round" stroke-linejoin="round" d="M121.146 135.93L100.583 147.8v22.566l20.563-11.873zM139.415 83.282l-18.742 10.821v20.567l18.742-10.822z"/>
            <path stroke="#33475C" stroke-width="5" stroke-linecap="round" stroke-linejoin="round" d="M111 114.447l19.93-16.254V77.627L111 89.129z"/>
            <path stroke="#33475C" stroke-width="5" stroke-linecap="round" stroke-linejoin="round" d="M135.173 80.454l-18.743 10.82v20.568l18.743-10.821zM127.578 136.018l-23.072 13.321v25.318l23.072-13.32z"/>
            <path stroke="#33475C" stroke-width="5" stroke-linecap="round" stroke-linejoin="round" d="M124.269 141.56l-16.455 9.5v7.407l16.455-9.5z"/>
            <path stroke="#33475C" stroke-width="5" stroke-linecap="round" stroke-linejoin="round" d="M122.536 144.56v3.408l-12.99 7.5v-3.408l12.99-7.5M118.098 159.67c0 1.312-.92 2.907-2.057 3.563-1.136.656-2.057.124-2.057-1.188 0-1.312.921-2.906 2.057-3.562 1.136-.656 2.057-.125 2.057 1.187zM139.415 83.282l-18.742 10.821v20.567l18.742-10.822z"/>
            <path stroke="#33475C" stroke-width="5" stroke-linecap="round" stroke-linejoin="round" d="M143.658 86.11l-18.742 10.82v20.567l18.742-10.82z"/>
            <path stroke="#33475C" stroke-width="5" stroke-linecap="round" stroke-linejoin="round" d="M152.359 86.366l-23.072 13.32v25.319l23.072-13.322z"/>
            <path stroke="#33475C" stroke-width="5" stroke-linecap="round" stroke-linejoin="round" d="M149.05 91.907l-16.455 9.5v7.408l16.455-9.5z"/>
            <path stroke="#33475C" stroke-width="5" stroke-linecap="round" stroke-linejoin="round" d="M147.318 94.907v3.408l-12.991 7.5v-3.408l12.991-7.5M142.88 110.017c0 1.312-.922 2.906-2.058 3.563-1.136.655-2.056.124-2.056-1.188 0-1.312.92-2.907 2.056-3.562 1.136-.657 2.058-.125 2.058 1.187zM111 99.129l18.287 10.558v15.318L111 114.447zM82.732 146.768v15.318l21.773 12.571V159.34z"/>
            <path d="M112.588 125.716c1.492-4.252 4.544-8.184 8.809-9.645 1.069-.368 2.248-.572 3.325-.224 1.186.382 2.069 1.366 2.81 2.365 3.483 4.692 5.099 10.478 7.74 15.692 2.64 5.212 6.886 10.998 12.745 10.993 2.947-.003 4.864-1.912 6.675-4.236 1.814-2.321 2.813-5.184 3.404-8.07.738-3.597.888-7.314.44-10.958l-20.35 11.718c.447 3.644.298 7.36-.44 10.958-.593 2.886-1.591 5.748-3.404 8.07-1.813 2.323-3.73 4.233-6.676 4.234-5.858.005-10.105-5.78-12.745-10.993-2.64-5.214-4.257-10.998-7.739-15.69-.742-1-1.969-2.544-3.106-3.05-.981-.434-2.242-.801-3.313-.434-4.263 1.462-7.034 6.736-8.526 10.989-1.49 4.252-.908 9.757-.965 14.263" stroke="#33475C" stroke-width="5" stroke-linecap="round" stroke-linejoin="round"/>
            <path d="M158.536 121.633l-20.35 11.718c.23 1.871.296 3.763.212 5.648-.079 1.782-.293 3.56-.653 5.31-.592 2.886-1.59 5.748-3.403 8.07-.714.915-2.605 2.82-4.095 3.678l20.776-11.937c1.404-.77 2.557-2.034 3.67-3.459 1.811-2.321 2.811-5.184 3.403-8.07.738-3.597.887-7.314.44-10.958z" stroke="#33475C" stroke-width="5" stroke-linecap="round" stroke-linejoin="round"/>
            <path d="M135.271 133.903c-2.64-5.214-4.256-10.998-7.739-15.691-.74-.999-1.625-1.984-2.81-2.366-1.076-.346-2.53-.467-4.049-.178-2.33.444-5.006 2.085-5.006 2.085l-15.282 8.823c1.07-.366 3.113.027 4.12.541 1.205.613 1.935 1.812 2.677 2.812 1.867 2.517 3.195 5.349 4.435 8.237 1.072 2.497 2.08 5.036 3.303 7.454 2.641 5.214 6.887 10.998 12.747 10.994 2.945-.003 4.863-1.912 6.675-4.234 1.812-2.324 2.811-5.186 3.404-8.072.36-1.749.573-3.526.652-5.309-1.215-1.612-2.259-3.383-3.127-5.096zM3.368 106.466c4.99 6.846 13.015 10.677 20.702 14.236.587.272 1.209.55 1.853.486.515-.052.98-.32 1.422-.594 7.292-4.536 12.219-12.671 12.86-21.235.044-.566.205-1.924.205-1.924s-1.3-.733-1.882-1.073c-4.303-2.523-8.594-5.068-12.91-7.568-1.844-1.069-3.43-1.96-3.43-1.96s-1.2 4.184-2.318 6.752c-2.896 6.65-9.255 11.868-16.502 12.88z" stroke="#33475C" stroke-width="5" stroke-linecap="round" stroke-linejoin="round"/>
            <path d="M25.619 88.794c-1.844-1.068-3.431-1.96-3.431-1.96s-.343 1.196-.833 2.699l18.294 13.524c.269-1.218.464-2.452.557-3.7.043-.564.204-1.922.204-1.922s-1.3-.732-1.882-1.074c-4.303-2.522-8.594-5.067-12.91-7.567z" stroke="#33475C" stroke-width="5" stroke-linecap="round" stroke-linejoin="round"/>
            <path d="M3.368 106.466c4.99 6.846 13.015 10.677 20.702 14.236.587.272 1.209.55 1.853.486.515-.052.98-.32 1.422-.594 7.292-4.536 12.219-12.671 12.86-21.235.044-.566.205-1.924.205-1.924s-1.3-.733-1.882-1.073c-4.303-2.523-8.594-5.068-12.91-7.568-1.844-1.069-3.43-1.96-3.43-1.96s-1.2 4.184-2.318 6.752c-2.896 6.65-9.255 11.868-16.502 12.88z" stroke="#33475C" stroke-width="5" stroke-linecap="round" stroke-linejoin="round"/>
            <path d="M22.62 95.419c.583.446-.327 1.616.266 2.048.406-.17.813-.34 1.219-.508.122-.051.254-.103.384-.073.599.136-.081 1.287.424 1.637.403.279.86-.363 1.35-.374.524-.01.755.653.785 1.175.03.522.103 1.176.598 1.344.712.24 1.472-.846 2.11-.45.153.096.249.258.32.422.219.496.272 1.053.5 1.545.227.49.736.93 1.263.805.388-.092.87-.434 1.098-.108.086.122.072.286.06.435-.037.46-.007.953.242 1.343.25.39.774.634 1.194.44M20.36 99.811c.097.408-.089.823-.152 1.237-.064.414.087.947.501 1.014.166.026.332-.03.49-.088l1.348-.488c.243-.088.506-.177.754-.103.512.152.595.83.586 1.364-.007.533.101 1.214.62 1.337.656.155 1.182-.795 1.844-.667.576.113.675.891.615 1.476-.06.584-.04 1.346.514 1.544.462.166.92-.213 1.33-.482.41-.27 1.102-.364 1.275.096.066.174.022.367-.01.551-.116.657-.062 1.395.375 1.9.436.505 1.337.62 1.75.094M17.166 103.186c-.51.632-.787 1.45-.762 2.262.484.187.97-.224 1.385-.536.415-.313 1.114-.497 1.37-.045.164.292.011.65-.069.976-.08.326.003.781.336.822.12.015.237-.033.342-.09.461-.252.981-.725 1.42-.434.598.4-.01 1.631.637 1.947.322.158.687-.074.998-.254.311-.178.782-.274.967.034.161.27-.047.596-.143.895-.16.505.056 1.105.5 1.393.445.288 1.08.24 1.476-.115M12.756 106.92c-.72.137-1.464.62-1.55 1.349-.013.11-.006.236.07.32.057.065.146.095.231.113 1.006.224 2.035-.52 3.045-.317.05.01.1.022.136.055.07.062.068.17.048.26-.088.408-.417.713-.632 1.07-.215.358-.272.903.081 1.124.13.08.287.098.44.103 1.188.038 2.406-.577 3.528-.181.12.042.247.107.291.226.032.085.014.18-.014.268-.167.52-.644.905-.786 1.433-.029.106-.042.22.004.32.085.18.32.222.52.22 1.16-.006 2.26-.662 3.416-.573.235.019.496.088.61.293.158.287-.064.634-.3.859-.238.227-.524.473-.514.8.01.327.338.572.663.603.325.03.641-.101.938-.238.592-.275 1.198-.597 1.852-.58.121.004.255.026.336.117.058.066.08.157.084.245.022.33-.142.643-.229.964-.088.32-.073.724.202.91.338.23.785-.025 1.11-.273M44.35 118.386s1.104 15.51-4.8 22.49l20.685 12.28s7.62-8.24 5.272-24.108L44.35 118.386z" stroke="#33475C" stroke-width="5" stroke-linecap="round" stroke-linejoin="round"/>
            <path d="M65.506 129.049L44.35 118.387s.053.743.074 1.976l21.531 14.283c-.016-1.746-.154-3.612-.448-5.597z" stroke="#33475C" stroke-width="5" stroke-linecap="round" stroke-linejoin="round"/>
            <path d="M44.35 118.386s1.104 15.51-4.8 22.49l20.685 12.28s7.62-8.24 5.272-24.108L44.35 118.386z" stroke="#33475C" stroke-width="5" stroke-linecap="round" stroke-linejoin="round"/>
            <path d="M48.353 131.533c-.54 1.669-.267 3.58.719 5.03.986 1.45 2.662 2.409 4.412 2.522.92.059 1.889-.12 2.624-.677.736-.557 1.186-1.538.952-2.431-.234-.892-1.253-1.551-2.125-1.251-1.056.365-1.342 1.733-1.231 2.844.298 2.995 2.349 5.75 5.133 6.896M121.61 119.197l-12.312 7.108M124.976 121.78l-13.485 7.786M126.886 125.34l-13.485 7.786M132.544 137.424l-12.929 7.465M131.729 142.45l-10.12 5.843M136.452 144.244l-11.903 6.906M134.406 150.013l-5.428 3.135M122.536 131.965l-7.392 4.268" stroke="#33475C" stroke-width="5" stroke-linecap="round" stroke-linejoin="round"/>
            <path stroke="#33475C" stroke-linecap="round" stroke-linejoin="round" d="M6.934 141.318l68.87-39.763 68.87 39.763-68.87 39.762z"/>
            <path stroke="#33475C" stroke-linecap="round" stroke-linejoin="round" d="M10.607 136.445l65.197-37.642 65.197 37.642-65.197 37.642z"/>
            <path fill="#D29B6A" d="M17.643 145.675v13.305l-7.036-4.063v-13.303z"/>
            <path stroke="#33475C" stroke-linecap="round" stroke-linejoin="round" d="M17.643 145.675v13.305l-7.036-4.063v-13.303z"/>
            <path fill="#C78244" d="M24.678 141.613v13.305l-7.036 4.062v-13.305z"/>
            <path stroke="#33475C" stroke-linecap="round" stroke-linejoin="round" d="M24.678 141.613v13.305l-7.036 4.062v-13.305z"/>
            <path fill="#D29B6A" d="M133.965 145.675v13.305l-7.036-4.063v-13.303z"/>
            <path stroke="#33475C" stroke-linecap="round" stroke-linejoin="round" d="M133.965 145.675v13.305l-7.036-4.063v-13.303z"/>
            <path fill="#C78244" d="M141.001 141.613v13.305l-7.036 4.062v-13.305z"/>
            <path stroke="#33475C" stroke-linecap="round" stroke-linejoin="round" d="M141.001 141.613v13.305l-7.036 4.062v-13.305z"/>
            <path fill="#D29B6A" d="M75.804 179.255v13.305l-7.036-4.062v-13.305z"/>
            <path stroke="#33475C" stroke-linecap="round" stroke-linejoin="round" d="M75.804 179.255v13.305l-7.036-4.062v-13.305z"/>
            <path fill="#C78244" d="M82.84 175.192v13.306l-7.036 4.061v-13.305z"/>
            <path stroke="#33475C" stroke-linecap="round" stroke-linejoin="round" d="M82.84 175.192v13.306l-7.036 4.061v-13.305z"/>
            <path fill="#D29B6A" d="M10.607 136.445l-3.673 4.873 68.87 39.762v-6.993z"/>
            <path stroke="#33475C" stroke-linecap="round" stroke-linejoin="round" d="M10.607 136.445l-3.673 4.873 68.87 39.762v-6.993z"/>
            <path fill="#C78244" d="M141.001 136.445l3.674 4.873-68.87 39.762v-6.993z"/>
            <path stroke="#33475C" stroke-linecap="round" stroke-linejoin="round" d="M141.001 136.445l3.674 4.873-68.87 39.762v-6.993z"/>
            <path fill="#D29B6A" d="M141.001 60.056v76.39l-65.197 37.64V97.697z"/>
            <path stroke="#33475C" stroke-linecap="round" stroke-linejoin="round" d="M141.001 60.056v76.39l-65.197 37.64V97.697z"/>
            <path fill="#C78244" d="M10.607 60.056v76.39l65.197 37.64V97.697z"/>
            <path stroke="#33475C" stroke-linecap="round" stroke-linejoin="round" d="M10.607 60.056v76.39l65.197 37.64V97.697z"/>
            <path fill="#C78244" d="M6.934 54.694l68.87-39.763 68.87 39.763-68.87 39.762z"/>
            <path stroke="#33475C" stroke-linecap="round" stroke-linejoin="round" d="M6.934 54.694l68.87-39.763 68.87 39.763-68.87 39.762z"/>
            <path fill="#C78244" d="M75.804 101.45v-6.994l68.871-39.762-3.674 9.114z"/>
            <path stroke="#33475C" stroke-linecap="round" stroke-linejoin="round" d="M75.804 101.45v-6.994l68.871-39.762-3.674 9.114z"/>
            <path fill="#D29B6A" d="M6.934 54.694l3.673 9.114 65.198 37.642v-6.994z"/>
            <path stroke="#33475C" stroke-linecap="round" stroke-linejoin="round" d="M6.934 54.694l3.673 9.114 65.198 37.642v-6.994z"/>
            <path fill="#D29B6A" d="M14.829 54.694L75.804 19.49l60.976 35.205-60.976 35.204z"/>
            <path fill="#F9D28C" d="M73.575 23.242L40.987 42.107l41.86 24.704L115.9 47.678z"/>
            <path stroke="#33475C" stroke-linecap="round" stroke-linejoin="round" d="M73.575 23.242L40.987 42.107l41.86 24.704L115.9 47.678z"/>
            <path d="M82.848 68.25s-6.414.949-6.078 7.347c.43 8.189 6.078 1.502 6.078 1.502l30.883-17.88v-8.848L82.848 68.25z" fill="#EAF0F6"/>
            <path d="M82.848 68.25s-6.414.949-6.078 7.347c.43 8.189 6.078 1.502 6.078 1.502l30.883-17.88v-8.848L82.848 68.25z" stroke="#33475C" stroke-linecap="round" stroke-linejoin="round"/>
            <path d="M78.329 81.021s-.33-.097-.762-.439l-39.853-22.98c-1.488-1.122-3.052-3.173-3.052-6.883 0-7.073 6.325-8.612 6.325-8.612l10.32 6.031 31.54 18.673s-6.61 1.318-7.431 6.475c-.718 4.51 1.39 6.856 2.15 7.296" fill="#F6C364"/>
            <path d="M78.329 81.021s-.33-.097-.762-.439l-39.853-22.98c-1.488-1.122-3.052-3.173-3.052-6.883 0-7.073 6.325-8.612 6.325-8.612l10.32 6.031 31.54 18.673s-6.61 1.318-7.431 6.475c-.718 4.51 1.39 6.856 2.15 7.296" stroke="#33475C" stroke-linecap="round" stroke-linejoin="round"/>
            <path fill="#F9D28C" d="M73.575 23.242L40.987 42.107l41.86 24.703L115.9 47.678z"/>
            <path stroke="#33475C" stroke-linecap="round" stroke-linejoin="round" d="M73.575 23.242L40.987 42.107l41.86 24.703L115.9 47.678z"/>
            <path d="M79.92 81.96c-.209 0-.418-.016-.625-.048-1.432-.224-3.504-1.507-4.189-2.988-1.361-2.944-.835-6.674 1.34-9.503.532-.692 3.229-3.98 6.465-4.024l31.017-18c.761-.44 1.734-.181 2.174.58.44.76.181 1.734-.58 2.174L84.107 68.38c-.291.17-.63.244-.964.206-1.237-.13-3.038 1.297-4.174 2.774-1.439 1.872-1.962 4.486-1.104 6.102.188.355.713.95 1.264 1.106.488.137 1.13.147 1.408.048.622-.221.933-.455 1.448-1.23.136-.203.316-.373.528-.495l31.218-18.078c.76-.44 1.734-.18 2.174.58.44.76.181 1.735-.58 2.175l-30.913 17.9c-.839 1.142-1.653 1.605-2.48 2.009-.655.319-1.34.482-2.012.482" fill="#F6C364"/>
            <path d="M79.92 81.96c-.209 0-.418-.016-.625-.048-1.432-.224-3.504-1.507-4.189-2.988-1.361-2.944-.835-6.674 1.34-9.503.532-.692 3.229-3.98 6.465-4.024l31.017-18c.761-.44 1.734-.181 2.174.58.44.76.181 1.734-.58 2.174L84.107 68.38c-.291.17-.63.244-.964.206-1.237-.13-3.038 1.297-4.174 2.774-1.439 1.872-1.962 4.486-1.104 6.102.188.355.713.95 1.264 1.106.488.137 1.13.147 1.408.048.622-.221.933-.455 1.448-1.23.136-.203.316-.373.528-.495l31.218-18.078c.76-.44 1.734-.18 2.174.58.44.76.181 1.735-.58 2.175l-30.913 17.9c-.839 1.142-1.653 1.605-2.48 2.009-.655.319-1.34.482-2.012.482z" stroke="#33475C" stroke-linecap="round" stroke-linejoin="round"/>
            <path d="M76.446 69.42c-2.175 2.83-2.701 6.56-1.34 9.504.685 1.48 2.757 2.764 4.19 2.988.206.032.415.048.624.048.672 0 1.357-.163 2.012-.482.827-.404 1.64-.867 2.48-2.008.016-3.286-1.9-2.578-1.9-2.578-.211.122-.391.292-.526.495-.516.775-.827 1.009-1.45 1.23-.277.099-.92.089-1.406-.048-.552-.156-1.077-.751-1.265-1.106-.858-1.616-.335-4.23 1.104-6.102 1.136-1.477 2.937-2.903 4.174-2.774.334.038.673-.036.964-.205.73-2.13-1.196-2.985-1.196-2.985-3.236.045-5.933 3.332-6.465 4.024" fill="#F6C364"/>
            <path d="M76.446 69.42c-2.175 2.83-2.701 6.56-1.34 9.504.685 1.48 2.757 2.764 4.19 2.988.206.032.415.048.624.048.672 0 1.357-.163 2.012-.482.827-.404 1.64-.867 2.48-2.008.016-3.286-1.9-2.578-1.9-2.578-.211.122-.391.292-.526.495-.516.775-.827 1.009-1.45 1.23-.277.099-.92.089-1.406-.048-.552-.156-1.077-.751-1.265-1.106-.858-1.616-.335-4.23 1.104-6.102 1.136-1.477 2.937-2.903 4.174-2.774.334.038.673-.036.964-.205.73-2.13-1.196-2.985-1.196-2.985-3.236.045-5.933 3.332-6.465 4.024z" stroke="#33475C" stroke-linecap="round" stroke-linejoin="round"/>
            <path fill="#FF8F52" d="M101.722 73.37l-9.873-5.7 7.161-4.134 9.873 5.699-7.026.078z"/>
            <path stroke="#33475C" stroke-linecap="round" stroke-linejoin="round" d="M101.722 73.37l-9.873-5.7 7.161-4.134 9.873 5.699-7.026.078z"/>
            <path d="M85.469 30.239c-1.33-2.009-2.636-3.99-3.497-6.213l-.015.06c-.287-1.163-1.083-2.185-2.293-2.884-1.073-.619-2.444-.961-3.86-.961-1.415 0-2.786.342-3.86.961-1.21.699-2.005 1.721-2.292 2.884l-.016-.06c-.86 2.223-2.168 4.204-3.497 6.213-1.641 2.482-3.13 5.322-2.807 8.281.17 1.563.846 3.039 1.752 4.324 2.405 3.412 6.555 5.502 10.72 5.475 4.165.027 8.315-2.063 10.72-5.475.906-1.285 1.58-2.761 1.752-4.324.323-2.959-1.165-5.799-2.807-8.281" fill="#E5F5F8"/>
            <path d="M85.469 30.239c-1.33-2.009-2.636-3.99-3.497-6.213l-.015.06c-.287-1.163-1.083-2.185-2.293-2.884-1.073-.619-2.444-.961-3.86-.961-1.415 0-2.786.342-3.86.961-1.21.699-2.005 1.721-2.292 2.884l-.016-.06c-.86 2.223-2.168 4.204-3.497 6.213-1.641 2.482-3.13 5.322-2.807 8.281.17 1.563.846 3.039 1.752 4.324 2.405 3.412 6.555 5.502 10.72 5.475 4.165.027 8.315-2.063 10.72-5.475.906-1.285 1.58-2.761 1.752-4.324.323-2.959-1.165-5.799-2.807-8.281z" stroke="#33475C" stroke-linecap="round" stroke-linejoin="round"/>
            <path d="M73.352 25.533c-1.35-.778-1.35-2.053 0-2.831 1.349-.78 3.556-.78 4.905 0 1.349.778 1.349 2.053 0 2.83-1.35.78-3.556.78-4.905 0" fill="#33475C"/>
            <path d="M73.352 25.533c-1.35-.778-1.35-2.053 0-2.831 1.349-.78 3.556-.78 4.905 0 1.349.778 1.349 2.053 0 2.83-1.35.78-3.556.78-4.905 0z" stroke="#33475C" stroke-linecap="round" stroke-linejoin="round"/>
            <path d="M75.29 18.603c-.022-2.796 1.19-5.446 2.552-7.887 1.011-1.809 2.131-3.579 3.576-5.064C82.864 4.166 84.661 2.97 86.68 2.5c-.812 5.557-5.547 12.813-11.39 16.104" fill="#40CEBB"/>
            <path d="M75.29 18.603c-.022-2.796 1.19-5.446 2.552-7.887 1.011-1.809 2.131-3.579 3.576-5.064C82.864 4.166 84.661 2.97 86.68 2.5c-.812 5.557-5.547 12.813-11.39 16.104z" stroke="#33475C" stroke-linecap="round" stroke-linejoin="round"/>
            <path d="M73.366 16.43c1.162 3.037 1.41 6.442 1.447 9.595.74.127 1.534.115 2.257-.047v.001c-.038-3.352-.311-6.998-1.597-10.356-.178-.467-.376-.926-.586-1.365-1.426-2.966-3.866-5.562-6.87-7.31-.538-.316-1.23-.134-1.543.406-.314.538-.132 1.228.407 1.542 2.618 1.525 4.739 3.777 5.97 6.341.185.382.358.784.515 1.193" fill="#40CEBB"/>
            <path d="M73.366 16.43c1.162 3.037 1.41 6.442 1.447 9.595.74.127 1.534.115 2.257-.047v.001c-.038-3.352-.311-6.998-1.597-10.356-.178-.467-.376-.926-.586-1.365-1.426-2.966-3.866-5.562-6.87-7.31-.538-.316-1.23-.134-1.543.406-.314.538-.132 1.228.407 1.542 2.618 1.525 4.739 3.777 5.97 6.341.185.382.358.784.515 1.193z" stroke="#33475C" stroke-linecap="round" stroke-linejoin="round"/>
            <path d="M60.39 4.797c3.007 6.238 8.772 10.907 15.526 12.12-.11-.423-.165-.847-.308-1.263C73.45 9.363 67.04 4.79 60.39 4.797" fill="#40CEBB"/>
            <path d="M60.39 4.797c3.007 6.238 8.772 10.907 15.526 12.12-.11-.423-.165-.847-.308-1.263C73.45 9.363 67.04 4.79 60.39 4.797zM141.001 63.808L75.804 101.45v72.635l65.197-37.64z" stroke="#33475C" stroke-linecap="round" stroke-linejoin="round"/>
            <path fill="#C78244" d="M134.073 75.808L111 89.128v25.32l23.072-13.322z"/>
            <path stroke="#33475C" stroke-linecap="round" stroke-linejoin="round" d="M134.073 75.808L111 89.128v25.32l23.072-13.322z"/>
            <path fill="#C78244" d="M105.804 123.447l-23.072 13.321v25.319l23.072-13.322z"/>
            <path stroke="#33475C" stroke-linecap="round" stroke-linejoin="round" d="M105.804 123.447l-23.072 13.321v25.319l23.072-13.322z"/>
            <path fill="#C78244" d="M134.073 107.127L111 120.447v25.319l23.072-13.322z"/>
            <path stroke="#33475C" stroke-linecap="round" stroke-linejoin="round" d="M134.073 107.127L111 120.447v25.319l23.072-13.322z"/>
            <path fill="#F6C364" d="M130.764 112.668l-16.455 9.5v7.408l16.455-9.5z"/>
            <path stroke="#33475C" stroke-linecap="round" stroke-linejoin="round" d="M130.764 112.668l-16.455 9.5v7.408l16.455-9.5z"/>
            <path fill="#F8FAF8" d="M129.032 115.668v3.408l-12.99 7.5v-3.408z"/>
            <path d="M124.594 130.778c0 1.312-.921 2.906-2.057 3.563-1.136.655-2.057.124-2.057-1.188 0-1.312.92-2.906 2.057-3.562 1.136-.657 2.057-.125 2.057 1.187" fill="#F6C364"/>
            <path d="M124.594 130.778c0 1.312-.921 2.906-2.057 3.563-1.136.655-2.057.124-2.057-1.188 0-1.312.92-2.906 2.057-3.562 1.136-.657 2.057-.125 2.057 1.187z" stroke="#33475C" stroke-linecap="round" stroke-linejoin="round"/>
            <path fill="#C78244" d="M105.805 92.129l-23.073 13.32v25.32l23.073-13.322z"/>
            <path stroke="#33475C" stroke-linecap="round" stroke-linejoin="round" d="M105.805 92.129l-23.073 13.32v25.32l23.073-13.322z"/>
            <path fill="#F6C364" d="M102.496 97.67l-16.455 9.5v7.409l16.455-9.5z"/>
            <path stroke="#33475C" stroke-linecap="round" stroke-linejoin="round" d="M102.496 97.67l-16.455 9.5v7.409l16.455-9.5z"/>
            <path fill="#F8FAF8" d="M100.763 100.67v3.409l-12.99 7.5v-3.408z"/>
            <path d="M96.325 115.781c0 1.312-.92 2.906-2.057 3.563-1.136.655-2.057.124-2.057-1.188 0-1.313.921-2.907 2.057-3.562 1.136-.657 2.057-.125 2.057 1.187" fill="#F6C364"/>
            <path d="M96.325 115.781c0 1.312-.92 2.906-2.057 3.563-1.136.655-2.057.124-2.057-1.188 0-1.313.921-2.907 2.057-3.562 1.136-.657 2.057-.125 2.057 1.187z" stroke="#33475C" stroke-linecap="round" stroke-linejoin="round"/>
            <path fill="#EAF0F6" d="M102.525 146.085V125.34l-19.794 11.428v20.744z"/>
            <path stroke="#33475C" stroke-linecap="round" stroke-linejoin="round" d="M102.525 146.085V125.34l-19.794 11.428v20.744z"/>
            <path d="M71.429 28.847c-1.208 2.246-3 4.196-3.802 6.616" stroke="#F8FAF8" stroke-width="3" stroke-linecap="round" stroke-linejoin="round"/>
            <path fill="#FFF" d="M107.18 126.622l-20.562 11.872v22.566l20.563-11.873z"/>
            <path stroke="#33475C" stroke-linecap="round" stroke-linejoin="round" d="M107.18 126.622l-20.562 11.872v22.566l20.563-11.873z"/>
            <path d="M111.617 138.166c-1.24-2.888-2.568-5.72-4.435-8.236-.742-1-1.779-2.243-2.889-2.81-1.124-.574-2.839-.91-3.908-.544-4.264 1.463-6.656 6.606-8.147 10.859-1.492 4.252-.91 9.757-.966 14.264l4.655 2.77 16.313-14.843c-.206-.488-.415-.975-.623-1.46" fill="#EAF0F6"/>
            <path d="M111.617 138.166c-1.24-2.888-2.568-5.72-4.435-8.236-.742-1-1.779-2.243-2.889-2.81-1.124-.574-2.839-.91-3.908-.544-4.264 1.463-6.656 6.606-8.147 10.859-1.492 4.252-.91 9.757-.966 14.264l4.655 2.77 16.313-14.843c-.206-.488-.415-.975-.623-1.46z" stroke="#33475C" stroke-linecap="round" stroke-linejoin="round"/>
            <path fill="#FFF" d="M116.49 132.827l-20.563 11.872v22.566l20.563-11.873z"/>
            <path stroke="#33475C" stroke-linecap="round" stroke-linejoin="round" d="M116.49 132.827l-20.563 11.872v22.566l20.563-11.873z"/>
            <path fill="#EAF0F6" d="M121.146 135.93L100.583 147.8v22.566l20.563-11.873z"/>
            <path stroke="#33475C" stroke-linecap="round" stroke-linejoin="round" d="M121.146 135.93L100.583 147.8v22.566l20.563-11.873z"/>
            <path fill="#FFF" d="M139.415 83.282l-18.742 10.821v20.567l18.742-10.822z"/>
            <path stroke="#33475C" stroke-linecap="round" stroke-linejoin="round" d="M139.415 83.282l-18.742 10.821v20.567l18.742-10.822z"/>
            <path fill="#EAF0F6" d="M111 114.447l19.93-16.254V77.627L111 89.129z"/>
            <path stroke="#33475C" stroke-linecap="round" stroke-linejoin="round" d="M111 114.447l19.93-16.254V77.627L111 89.129z"/>
            <path fill="#FFF" d="M135.173 80.454l-18.743 10.82v20.568l18.743-10.821z"/>
            <path stroke="#33475C" stroke-linecap="round" stroke-linejoin="round" d="M135.173 80.454l-18.743 10.82v20.568l18.743-10.821z"/>
            <path fill="#C78244" d="M127.578 136.018l-23.072 13.321v25.318l23.072-13.32z"/>
            <path stroke="#33475C" stroke-linecap="round" stroke-linejoin="round" d="M127.578 136.018l-23.072 13.321v25.318l23.072-13.32z"/>
            <path fill="#F6C364" d="M124.269 141.56l-16.455 9.5v7.407l16.455-9.5z"/>
            <path stroke="#33475C" stroke-linecap="round" stroke-linejoin="round" d="M124.269 141.56l-16.455 9.5v7.407l16.455-9.5z"/>
            <path fill="#F8FAF8" d="M122.536 144.56v3.408l-12.99 7.5v-3.408z"/>
            <path d="M118.098 159.67c0 1.312-.92 2.907-2.057 3.563-1.136.656-2.057.124-2.057-1.188 0-1.312.921-2.906 2.057-3.562 1.136-.656 2.057-.125 2.057 1.187" fill="#F6C364"/>
            <path d="M118.098 159.67c0 1.312-.92 2.907-2.057 3.563-1.136.656-2.057.124-2.057-1.188 0-1.312.921-2.906 2.057-3.562 1.136-.656 2.057-.125 2.057 1.187z" stroke="#33475C" stroke-linecap="round" stroke-linejoin="round"/>
            <path fill="#EAF0F6" d="M139.415 83.282l-18.742 10.821v20.567l18.742-10.822z"/>
            <path stroke="#33475C" stroke-linecap="round" stroke-linejoin="round" d="M139.415 83.282l-18.742 10.821v20.567l18.742-10.822z"/>
            <path fill="#FFF" d="M143.658 86.11l-18.742 10.82v20.567l18.742-10.82z"/>
            <path stroke="#33475C" stroke-linecap="round" stroke-linejoin="round" d="M143.658 86.11l-18.742 10.82v20.567l18.742-10.82z"/>
            <path fill="#C78244" d="M152.359 86.366l-23.072 13.32v25.319l23.072-13.322z"/>
            <path stroke="#33475C" stroke-linecap="round" stroke-linejoin="round" d="M152.359 86.366l-23.072 13.32v25.319l23.072-13.322z"/>
            <path fill="#F6C364" d="M149.05 91.907l-16.455 9.5v7.408l16.455-9.5z"/>
            <path stroke="#33475C" stroke-linecap="round" stroke-linejoin="round" d="M149.05 91.907l-16.455 9.5v7.408l16.455-9.5z"/>
            <path fill="#F8FAF8" d="M147.318 94.907v3.408l-12.991 7.5v-3.408z"/>
            <path d="M142.88 110.017c0 1.312-.922 2.906-2.058 3.563-1.136.655-2.056.124-2.056-1.188 0-1.312.92-2.907 2.056-3.562 1.136-.657 2.058-.125 2.058 1.187" fill="#F6C364"/>
            <path d="M142.88 110.017c0 1.312-.922 2.906-2.058 3.563-1.136.655-2.056.124-2.056-1.188 0-1.312.92-2.907 2.056-3.562 1.136-.657 2.058-.125 2.058 1.187z" stroke="#33475C" stroke-linecap="round" stroke-linejoin="round"/>
            <path fill="#C78244" d="M111 99.129l18.287 10.558v15.318L111 114.447z"/>
            <path stroke="#33475C" stroke-linecap="round" stroke-linejoin="round" d="M111 99.129l18.287 10.558v15.318L111 114.447z"/>
            <path fill="#C78244" d="M82.732 146.768v15.318l21.773 12.571V159.34z"/>
            <path stroke="#33475C" stroke-linecap="round" stroke-linejoin="round" d="M82.732 146.768v15.318l21.773 12.571V159.34zM112.588 125.716c1.492-4.252 4.544-8.184 8.809-9.645 1.069-.368 2.248-.572 3.325-.224 1.186.382 2.069 1.366 2.81 2.365 3.483 4.692 5.099 10.478 7.74 15.692 2.64 5.212 6.886 10.998 12.745 10.993 2.947-.003 4.864-1.912 6.675-4.236 1.814-2.321 2.813-5.184 3.404-8.07.738-3.597.888-7.314.44-10.958l-20.35 11.718c.447 3.644.298 7.36-.44 10.958-.593 2.886-1.591 5.748-3.404 8.07-1.813 2.323-3.73 4.233-6.676 4.234-5.858.005-10.105-5.78-12.745-10.993-2.64-5.214-4.257-10.998-7.739-15.69-.742-1-1.969-2.544-3.106-3.05-.981-.434-2.242-.801-3.313-.434-4.263 1.462-7.034 6.736-8.526 10.989-1.49 4.252-.908 9.757-.965 14.263"/>
            <path d="M158.536 121.633l-20.35 11.718c.23 1.871.296 3.763.212 5.648-.079 1.782-.293 3.56-.653 5.31-.592 2.886-1.59 5.748-3.403 8.07-.714.915-2.605 2.82-4.095 3.678l20.776-11.937c1.404-.77 2.557-2.034 3.67-3.459 1.811-2.321 2.811-5.184 3.403-8.07.738-3.597.887-7.314.44-10.958" fill="#EAF0F6"/>
            <path d="M158.536 121.633l-20.35 11.718c.23 1.871.296 3.763.212 5.648-.079 1.782-.293 3.56-.653 5.31-.592 2.886-1.59 5.748-3.403 8.07-.714.915-2.605 2.82-4.095 3.678l20.776-11.937c1.404-.77 2.557-2.034 3.67-3.459 1.811-2.321 2.811-5.184 3.403-8.07.738-3.597.887-7.314.44-10.958z" stroke="#33475C" stroke-linecap="round" stroke-linejoin="round"/>
            <path d="M135.271 133.903c-2.64-5.214-4.256-10.998-7.739-15.691-.74-.999-1.625-1.984-2.81-2.366-1.076-.346-2.53-.467-4.049-.178-2.33.444-5.006 2.085-5.006 2.085l-15.282 8.823c1.07-.366 3.113.027 4.12.541 1.205.613 1.935 1.812 2.677 2.812 1.867 2.517 3.195 5.349 4.435 8.237 1.072 2.497 2.08 5.036 3.303 7.454 2.641 5.214 6.887 10.998 12.747 10.994 2.945-.003 4.863-1.912 6.675-4.234 1.812-2.324 2.811-5.186 3.404-8.072.36-1.749.573-3.526.652-5.309-1.215-1.612-2.259-3.383-3.127-5.096" fill="#FFF"/>
            <path d="M135.271 133.903c-2.64-5.214-4.256-10.998-7.739-15.691-.74-.999-1.625-1.984-2.81-2.366-1.076-.346-2.53-.467-4.049-.178-2.33.444-5.006 2.085-5.006 2.085l-15.282 8.823c1.07-.366 3.113.027 4.12.541 1.205.613 1.935 1.812 2.677 2.812 1.867 2.517 3.195 5.349 4.435 8.237 1.072 2.497 2.08 5.036 3.303 7.454 2.641 5.214 6.887 10.998 12.747 10.994 2.945-.003 4.863-1.912 6.675-4.234 1.812-2.324 2.811-5.186 3.404-8.072.36-1.749.573-3.526.652-5.309-1.215-1.612-2.259-3.383-3.127-5.096z" stroke="#33475C" stroke-linecap="round" stroke-linejoin="round"/>
            <path d="M3.368 106.466c4.99 6.846 13.015 10.677 20.702 14.236.587.272 1.209.55 1.853.486.515-.052.98-.32 1.422-.594 7.292-4.536 12.219-12.671 12.86-21.235.044-.566.205-1.924.205-1.924s-1.3-.733-1.882-1.073c-4.303-2.523-8.594-5.068-12.91-7.568-1.844-1.069-3.43-1.96-3.43-1.96s-1.2 4.184-2.318 6.752c-2.896 6.65-9.255 11.868-16.502 12.88" fill="#FDEDF2"/>
            <path d="M3.368 106.466c4.99 6.846 13.015 10.677 20.702 14.236.587.272 1.209.55 1.853.486.515-.052.98-.32 1.422-.594 7.292-4.536 12.219-12.671 12.86-21.235.044-.566.205-1.924.205-1.924s-1.3-.733-1.882-1.073c-4.303-2.523-8.594-5.068-12.91-7.568-1.844-1.069-3.43-1.96-3.43-1.96s-1.2 4.184-2.318 6.752c-2.896 6.65-9.255 11.868-16.502 12.88z" stroke="#33475C" stroke-linecap="round" stroke-linejoin="round"/>
            <path d="M25.619 88.794c-1.844-1.068-3.431-1.96-3.431-1.96s-.343 1.196-.833 2.699l18.294 13.524c.269-1.218.464-2.452.557-3.7.043-.564.204-1.922.204-1.922s-1.3-.732-1.882-1.074c-4.303-2.522-8.594-5.067-12.91-7.567" fill="#FBA9BE"/>
            <path d="M3.368 106.466c4.99 6.846 13.015 10.677 20.702 14.236.587.272 1.209.55 1.853.486.515-.052.98-.32 1.422-.594 7.292-4.536 12.219-12.671 12.86-21.235.044-.566.205-1.924.205-1.924s-1.3-.733-1.882-1.073c-4.303-2.523-8.594-5.068-12.91-7.568-1.844-1.069-3.43-1.96-3.43-1.96s-1.2 4.184-2.318 6.752c-2.896 6.65-9.255 11.868-16.502 12.88z" stroke="#33475C" stroke-linecap="round" stroke-linejoin="round"/>
            <path d="M22.62 95.419c.583.446-.327 1.616.266 2.048.406-.17.813-.34 1.219-.508.122-.051.254-.103.384-.073.599.136-.081 1.287.424 1.637.403.279.86-.363 1.35-.374.524-.01.755.653.785 1.175.03.522.103 1.176.598 1.344.712.24 1.472-.846 2.11-.45.153.096.249.258.32.422.219.496.272 1.053.5 1.545.227.49.736.93 1.263.805.388-.092.87-.434 1.098-.108.086.122.072.286.06.435-.037.46-.007.953.242 1.343.25.39.774.634 1.194.44M20.36 99.811c.097.408-.089.823-.152 1.237-.064.414.087.947.501 1.014.166.026.332-.03.49-.088l1.348-.488c.243-.088.506-.177.754-.103.512.152.595.83.586 1.364-.007.533.101 1.214.62 1.337.656.155 1.182-.795 1.844-.667.576.113.675.891.615 1.476-.06.584-.04 1.346.514 1.544.462.166.92-.213 1.33-.482.41-.27 1.102-.364 1.275.096.066.174.022.367-.01.551-.116.657-.062 1.395.375 1.9.436.505 1.337.62 1.75.094M17.166 103.186c-.51.632-.787 1.45-.762 2.262.484.187.97-.224 1.385-.536.415-.313 1.114-.497 1.37-.045.164.292.011.65-.069.976-.08.326.003.781.336.822.12.015.237-.033.342-.09.461-.252.981-.725 1.42-.434.598.4-.01 1.631.637 1.947.322.158.687-.074.998-.254.311-.178.782-.274.967.034.161.27-.047.596-.143.895-.16.505.056 1.105.5 1.393.445.288 1.08.24 1.476-.115M12.756 106.92c-.72.137-1.464.62-1.55 1.349-.013.11-.006.236.07.32.057.065.146.095.231.113 1.006.224 2.035-.52 3.045-.317.05.01.1.022.136.055.07.062.068.17.048.26-.088.408-.417.713-.632 1.07-.215.358-.272.903.081 1.124.13.08.287.098.44.103 1.188.038 2.406-.577 3.528-.181.12.042.247.107.291.226.032.085.014.18-.014.268-.167.52-.644.905-.786 1.433-.029.106-.042.22.004.32.085.18.32.222.52.22 1.16-.006 2.26-.662 3.416-.573.235.019.496.088.61.293.158.287-.064.634-.3.859-.238.227-.524.473-.514.8.01.327.338.572.663.603.325.03.641-.101.938-.238.592-.275 1.198-.597 1.852-.58.121.004.255.026.336.117.058.066.08.157.084.245.022.33-.142.643-.229.964-.088.32-.073.724.202.91.338.23.785-.025 1.11-.273" stroke="#FBA9BE" stroke-linecap="round" stroke-linejoin="round"/>
            <path d="M44.35 118.386s1.104 15.51-4.8 22.49l20.685 12.28s7.62-8.24 5.272-24.108L44.35 118.386z" fill="#F0F1FA"/>
            <path d="M44.35 118.386s1.104 15.51-4.8 22.49l20.685 12.28s7.62-8.24 5.272-24.108L44.35 118.386z" stroke="#33475C" stroke-linecap="round" stroke-linejoin="round"/>
            <path d="M65.506 129.049L44.35 118.387s.053.743.074 1.976l21.531 14.283c-.016-1.746-.154-3.612-.448-5.597" fill="#B4BAEA"/>
            <path d="M44.35 118.386s1.104 15.51-4.8 22.49l20.685 12.28s7.62-8.24 5.272-24.108L44.35 118.386z" stroke="#33475C" stroke-linecap="round" stroke-linejoin="round"/>
            <path d="M48.353 131.533c-.54 1.669-.267 3.58.719 5.03.986 1.45 2.662 2.409 4.412 2.522.92.059 1.889-.12 2.624-.677.736-.557 1.186-1.538.952-2.431-.234-.892-1.253-1.551-2.125-1.251-1.056.365-1.342 1.733-1.231 2.844.298 2.995 2.349 5.75 5.133 6.896" stroke="#B4BAEA" stroke-linecap="round" stroke-linejoin="round"/>
            <path d="M121.61 119.197l-12.312 7.108" fill="#FFF"/>
            <path d="M121.61 119.197l-12.312 7.108" stroke="#CBD6E3" stroke-linecap="round" stroke-linejoin="round"/>
            <path d="M124.976 121.78l-13.485 7.786" fill="#FFF"/>
            <path d="M124.976 121.78l-13.485 7.786" stroke="#CBD6E3" stroke-linecap="round" stroke-linejoin="round"/>
            <path d="M126.886 125.34l-13.485 7.786" fill="#FFF"/>
            <path d="M126.886 125.34l-13.485 7.786" stroke="#CBD6E3" stroke-linecap="round" stroke-linejoin="round"/>
            <path d="M132.544 137.424l-12.929 7.465" fill="#FFF"/>
            <path d="M132.544 137.424l-12.929 7.465" stroke="#CBD6E3" stroke-linecap="round" stroke-linejoin="round"/>
            <path d="M131.729 142.45l-10.12 5.843" fill="#FFF"/>
            <path d="M131.729 142.45l-10.12 5.843" stroke="#CBD6E3" stroke-linecap="round" stroke-linejoin="round"/>
            <path d="M136.452 144.244l-11.903 6.906" fill="#FFF"/>
            <path d="M136.452 144.244l-11.903 6.906" stroke="#CBD6E3" stroke-linecap="round" stroke-linejoin="round"/>
            <path d="M134.406 150.013l-5.428 3.135" fill="#FFF"/>
            <path d="M134.406 150.013l-5.428 3.135" stroke="#CBD6E3" stroke-linecap="round" stroke-linejoin="round"/>
            <path d="M122.536 131.965l-7.392 4.268" fill="#FFF"/>
            <path d="M122.536 131.965l-7.392 4.268" stroke="#CBD6E3" stroke-linecap="round" stroke-linejoin="round"/>
            <path d="M124.269 136.681V26.273" stroke="#FFF" stroke-width="5" stroke-linecap="round" stroke-linejoin="round"/>
            <path d="M145.61 13.358l-7.693 2.691M141.616 21.98l-3.345-1.638M143.746 23.021l-.482-.235M136.047 11.395l-.533 1.088M138.048 7.307l-1.2 2.453" stroke="#F6C364" stroke-linecap="round" stroke-linejoin="round"/>
            <path d="M128.826 29.183c-.594 0-1.161-.187-1.638-.54l-3.022-2.226-3.55 1.228c-.287.1-.591.151-.9.151-.14 0-.278-.01-.416-.032-.58-.088-1.106-.352-1.522-.764-.75-.74-1.011-1.825-.68-2.828l1.186-3.566-2.264-2.996c-.628-.83-.732-1.968-.264-2.898.47-.938 1.415-1.52 2.464-1.52l3.773.025 2.15-3.08c.516-.738 1.36-1.178 2.26-1.178.137 0 .275.01.413.031 1.047.16 1.894.884 2.215 1.891l1.136 3.58 3.593 1.092c1.012.31 1.746 1.15 1.918 2.191.17 1.043-.256 2.074-1.116 2.688l-3.052 2.187.07 3.754c.02 1.056-.55 2.014-1.486 2.5-.392.204-.83.31-1.268.31" fill="#F6C364"/>
            <path d="M126.403 7.46c-1.39 0-2.694.68-3.49 1.819l-1.698 2.433-2.967-.02c-1.648 0-3.106.899-3.833 2.346-.733 1.46-.576 3.176.409 4.478l1.788 2.366-.936 2.816c-.507 1.529-.094 3.244 1.052 4.373.637.632 1.45 1.04 2.349 1.178.213.03.427.048.639.048.477 0 .947-.08 1.397-.236l2.798-.968 2.389 1.76c.733.543 1.608.83 2.525.83.68 0 1.357-.165 1.96-.48 1.444-.745 2.326-2.223 2.296-3.855l-.056-2.968 2.41-1.73c1.328-.948 1.988-2.54 1.723-4.15-.265-1.61-1.401-2.905-2.962-3.38l-2.838-.864-.898-2.83c-.493-1.552-1.801-2.671-3.414-2.917-.214-.033-.43-.05-.643-.05m0 3c.063 0 .126.005.189.015.473.072.864.406 1.008.86l1.376 4.333 4.347 1.322c.458.14.797.527.874.998.078.473-.12.948-.508 1.226l-3.694 2.645.086 4.545c.009.479-.254.92-.68 1.139-.181.096-.38.142-.576.142-.264 0-.526-.083-.745-.245l-3.66-2.697-4.293 1.486c-.135.046-.274.069-.411.069-.064 0-.127-.005-.19-.015-.257-.04-.501-.158-.693-.347-.341-.336-.46-.836-.31-1.29l1.433-4.314-2.74-3.625c-.288-.381-.334-.893-.12-1.32.213-.426.649-.694 1.123-.694h.008l4.545.03 2.6-3.725c.238-.34.625-.537 1.03-.537" fill="#FFF"/>
            <path d="M124.269 136.681V26.273" stroke="#F6C364" stroke-linecap="round" stroke-linejoin="round" stroke-dasharray="2,2,0,0"/>
            <path d="M126.637 136.681c0 1.31-1.06 2.37-2.369 2.37-1.308 0-2.368-1.06-2.368-2.37 0-1.308 1.06-2.368 2.368-2.368 1.308 0 2.37 1.06 2.37 2.368" fill="#F6C364"/>
        </g>
    </g>
</svg>
