<svg width="80" height="174" viewBox="0 0 80 174" xmlns="http://www.w3.org/2000/svg">
    <g fill="none" fill-rule="evenodd">
        <path d="M44.327 128.76c-2.64-1.524-6.955-1.524-9.594 0L1.98 147.67c-2.64 1.524-2.64 4.016 0 5.54l32.753 18.91c2.64 1.524 6.955 1.524 9.594 0l32.754-18.91c2.64-1.524 2.64-4.016 0-5.54l-32.753-18.91z" fill="#FF8F52" opacity=".2"/>
        <path d="M9.846 88.922L6.94 87.246l2.906 1.676z" fill="#FFF"/>
        <path stroke="#33475C" stroke-linecap="round" stroke-linejoin="round" d="M9.846 88.922L6.94 87.246z"/>
        <path fill="#FFF" d="M70.62 89.982l-15.108 8.173 15.11.25"/>
        <path stroke="#33475C" stroke-linecap="round" stroke-linejoin="round" d="M70.62 89.982l-15.108 8.173 15.11.25z"/>
        <path stroke="#33475C" stroke-width="5" stroke-linecap="round" stroke-linejoin="round" d="M39.525 107.672v20.73L70.62 110.45V98.69l-15.108-.25z"/>
        <path d="M75.26 90.854c-.074-1.177-.41-2.19-.85-3.052l-.27-.498-34.605 19.98v41.858l35.907-20.73-.156-37.073c0-.17-.01-.33-.026-.486zm-4.072-6.556L43.592 68.365c-2.237-1.292-5.897-1.292-8.135 0L7.86 84.298s-1.83.837-3.042 2.947l2.905 1.678c.046.024.09.044.137.07l.87.503 12.358 7.135 14.37 8.297 4.067 2.348 7.306-4.218-3.238 1.87L69.98 89.692l.164-.095 3.982-2.3c-1.208-1.99-2.938-3-2.938-3zM3.774 91.34l-.157 37.07 35.908 20.732v-41.86L7.723 88.923l-2.905-1.676c-.26.452-.49.963-.67 1.537-.23.742-.374 1.59-.374 2.557" stroke="#33475C" stroke-width="5" stroke-linecap="round" stroke-linejoin="round"/>
        <path d="M8.326 100.147c0-2.583 1.83-3.64 4.067-2.348l17.79 10.27c2.236 1.29 4.067 4.46 4.067 7.044v20.542c0 2.582-1.83 3.64-4.068 2.348l-17.79-10.272c-2.235-1.29-4.066-4.46-4.066-7.044v-20.54zm40.071 17.181c-.14 0-.287-.028-.443-.088-.016-.006-.056-.016-.085-.024-.015-.01-.027-.016-.036-.02-.08-.043-.164-.103-.252-.185l-1.25-.906c-.032-.023-.066-.042-.104-.056-.598-.233-.94-.94-.94-1.943 0-1.984 1.36-4.446 2.974-5.377.394-.227.78-.348 1.118-.348.367 0 .674.144.914.428.027.032.058.06.093.083l1.036.71c.03.022.066.04.102.053.61.225.958.938.958 1.956 0 1.993-1.36 4.455-2.972 5.375-.397.228-.77.343-1.113.343z" stroke="#33475C" stroke-width="5" stroke-linecap="round" stroke-linejoin="round"/>
        <path d="M49.38 107.91c-.41 0-.87.132-1.353.41-1.765 1.02-3.21 3.623-3.21 5.785 0 1.253.49 2.087 1.24 2.38l1.205.87c.11.102.227.19.357.258l.03.022c.04.03.09.03.138.044.19.072.39.118.61.118.41 0 .866-.13 1.346-.404 1.765-1.008 3.21-3.612 3.21-5.785 0-1.274-.5-2.114-1.266-2.397l-1.035-.71c-.323-.38-.76-.593-1.273-.593zm0 .94c.228 0 .405.082.556.26.054.064.117.12.185.168l1.037.71c.064.044.132.08.206.107.407.15.65.717.65 1.514 0 1.845-1.252 4.12-2.735 4.968-.322.184-.626.28-.88.28-.086 0-.173-.018-.277-.057l-.047-.016-.026-.007c-.042-.023-.09-.06-.145-.11-.028-.027-.06-.05-.09-.074l-1.204-.87c-.064-.046-.135-.085-.21-.113-.4-.157-.642-.72-.642-1.505 0-1.837 1.255-4.113 2.74-4.97.323-.187.63-.285.884-.285z" stroke="#33475C" stroke-width="5" stroke-linecap="round" stroke-linejoin="round"/>
        <path d="M51.097 109.805c1.07 0 1.152 1.38 1.152 1.804 0 1.92-1.31 4.288-2.856 5.172-.357.204-.7.31-.997.31-1.075 0-1.158-1.375-1.158-1.797 0-1.91 1.307-4.28 2.856-5.174.36-.206.704-.315 1-.315m5.906 2.58c-.14 0-.285-.03-.44-.09l-.088-.023c-.014-.01-.026-.017-.034-.02-.082-.043-.165-.103-.253-.185l-1.248-.907c-.032-.024-.068-.042-.105-.057-.6-.232-.942-.94-.942-1.942 0-1.982 1.362-4.445 2.975-5.376.394-.227.78-.347 1.12-.347.365 0 .673.143.912.427.028.032.06.06.093.084l1.035.708c.032.022.067.04.104.053.607.224.957.938.957 1.956 0 1.994-1.36 4.455-2.973 5.376-.396.227-.77.343-1.114.343z" stroke="#33475C" stroke-width="5" stroke-linecap="round" stroke-linejoin="round"/>
        <path d="M57.984 102.966c-.412 0-.87.132-1.354.41-1.765 1.02-3.21 3.623-3.21 5.786 0 1.252.49 2.086 1.242 2.38l1.204.87c.11.1.227.19.357.257l.03.02c.04.03.092.03.14.045.188.073.39.12.607.12.41 0 .867-.13 1.347-.405 1.766-1.008 3.21-3.612 3.21-5.785 0-1.273-.5-2.113-1.266-2.396l-1.034-.71c-.323-.38-.76-.594-1.272-.594zm0 .94c.228 0 .405.082.556.26.053.065.116.12.185.168l1.036.71c.065.044.133.08.206.107.408.15.65.718.65 1.515 0 1.847-1.252 4.122-2.735 4.97-.32.183-.624.28-.88.28-.084 0-.172-.018-.275-.058-.016-.006-.033-.01-.05-.017l-.024-.007c-.04-.023-.09-.06-.145-.11-.028-.026-.058-.05-.09-.073l-1.203-.87c-.065-.047-.135-.086-.21-.114-.4-.157-.642-.72-.642-1.504 0-1.838 1.255-4.114 2.74-4.972.323-.186.628-.284.884-.284z" stroke="#33475C" stroke-width="5" stroke-linecap="round" stroke-linejoin="round"/>
        <path d="M59.7 104.86c1.07 0 1.152 1.383 1.152 1.805 0 1.92-1.307 4.29-2.854 5.173-.357.204-.702.31-.997.31-1.074 0-1.158-1.375-1.158-1.796 0-1.91 1.31-4.28 2.858-5.175.358-.207.704-.316 1-.316m5.903 2.579c-.14 0-.286-.027-.442-.088l-.086-.024-.034-.02c-.082-.043-.165-.103-.253-.185l-1.25-.907c-.032-.023-.068-.042-.104-.056-.6-.232-.942-.94-.942-1.943 0-1.984 1.362-4.447 2.975-5.378.393-.227.78-.347 1.118-.347.366 0 .673.143.913.426.03.03.06.06.094.083l1.035.71c.03.02.066.04.103.052.608.226.958.94.958 1.957 0 1.994-1.36 4.456-2.972 5.376-.392.224-.778.343-1.114.343z" stroke="#33475C" stroke-width="5" stroke-linecap="round" stroke-linejoin="round"/>
        <path d="M66.587 98.023c-.41 0-.87.13-1.353.41-1.765 1.02-3.21 3.623-3.21 5.785 0 1.253.49 2.087 1.24 2.38l1.205.87c.11.1.227.19.356.257l.03.022c.042.03.092.03.14.044.188.074.39.12.608.12.41 0 .867-.13 1.347-.404 1.767-1.008 3.21-3.61 3.21-5.785 0-1.27-.5-2.112-1.265-2.395l-1.035-.71c-.323-.38-.76-.592-1.273-.592zm0 .94c.23 0 .405.08.556.26.054.064.117.12.185.167l1.036.71c.064.044.133.08.206.107.408.15.65.717.65 1.514 0 1.848-1.252 4.124-2.735 4.97-.32.184-.625.28-.88.28-.085 0-.173-.017-.276-.057-.017-.005-.034-.01-.05-.017l-.025-.007c-.043-.024-.09-.06-.146-.11-.03-.027-.06-.052-.09-.074l-1.204-.87c-.065-.047-.136-.085-.21-.114-.402-.156-.642-.72-.642-1.504 0-1.837 1.255-4.114 2.74-4.972.323-.186.628-.284.883-.284z" stroke="#33475C" stroke-width="5" stroke-linecap="round" stroke-linejoin="round"/>
        <path d="M68.304 99.917c1.07 0 1.152 1.382 1.152 1.804 0 1.922-1.307 4.29-2.854 5.175-.357.203-.702.31-.998.31-1.074 0-1.158-1.376-1.158-1.797 0-1.91 1.308-4.28 2.857-5.174.36-.208.705-.317 1-.317M48.397 127.81c-.14 0-.287-.03-.443-.09-.016-.006-.055-.015-.085-.022-.014-.01-.027-.017-.036-.022-.08-.042-.164-.102-.252-.184l-1.25-.907c-.032-.023-.066-.042-.104-.056-.598-.234-.94-.942-.94-1.943 0-1.985 1.36-4.447 2.974-5.378.394-.228.78-.35 1.118-.35.367 0 .674.145.914.43.026.03.058.058.093.082l1.035.71c.032.022.067.04.103.053.61.225.958.937.958 1.955 0 1.995-1.36 4.457-2.972 5.377-.397.228-.77.342-1.113.342z" stroke="#33475C" stroke-width="5" stroke-linecap="round" stroke-linejoin="round"/>
        <path d="M49.38 118.392c-.41 0-.87.13-1.353.41-1.765 1.02-3.21 3.623-3.21 5.785 0 1.253.49 2.087 1.24 2.38l1.205.87c.11.1.227.19.357.257l.03.022c.04.03.09.03.138.045.19.073.39.12.61.12.41 0 .866-.13 1.346-.405 1.765-1.008 3.21-3.61 3.21-5.785 0-1.272-.5-2.113-1.266-2.396l-1.035-.71c-.323-.38-.76-.592-1.273-.592zm0 .94c.228 0 .405.082.556.26.054.064.117.12.185.167l1.037.71c.064.043.132.08.206.106.407.15.65.717.65 1.514 0 1.847-1.252 4.123-2.735 4.97-.322.183-.626.28-.88.28-.086 0-.173-.018-.277-.058l-.047-.017-.026-.007c-.042-.023-.09-.06-.145-.11-.028-.026-.06-.05-.09-.073l-1.204-.87c-.064-.047-.135-.085-.21-.114-.4-.155-.642-.718-.642-1.503 0-1.837 1.255-4.114 2.74-4.972.323-.185.63-.284.884-.284z" stroke="#33475C" stroke-width="5" stroke-linecap="round" stroke-linejoin="round"/>
        <path d="M51.097 120.286c1.07 0 1.152 1.382 1.152 1.804 0 1.92-1.31 4.29-2.856 5.174-.357.203-.7.31-.997.31-1.075 0-1.158-1.375-1.158-1.797 0-1.91 1.307-4.28 2.856-5.174.36-.208.704-.317 1-.317m5.906 2.58c-.14 0-.285-.03-.44-.09l-.088-.022c-.013-.01-.025-.017-.034-.022-.082-.042-.165-.102-.253-.184l-1.248-.906c-.032-.023-.068-.043-.104-.057-.6-.233-.943-.94-.943-1.943 0-1.984 1.362-4.446 2.975-5.377.394-.227.78-.348 1.12-.348.365 0 .673.144.912.428.028.032.06.06.093.083l1.035.71c.032.022.067.04.104.054.607.224.957.936.957 1.955 0 1.994-1.36 4.455-2.973 5.377-.397.227-.772.342-1.114.342z" stroke="#33475C" stroke-width="5" stroke-linecap="round" stroke-linejoin="round"/>
        <path d="M57.984 113.448c-.412 0-.87.13-1.354.41-1.765 1.02-3.21 3.623-3.21 5.785 0 1.253.49 2.087 1.242 2.38l1.204.87c.11.1.227.19.357.257l.03.023c.04.03.092.03.14.044.188.072.39.118.607.118.41 0 .867-.13 1.347-.404 1.766-1.007 3.21-3.61 3.21-5.784 0-1.272-.5-2.113-1.266-2.396l-1.034-.71c-.323-.38-.76-.592-1.272-.592zm0 .94c.228 0 .405.082.556.26.053.064.116.12.185.167l1.036.71c.065.044.133.08.206.107.408.15.65.717.65 1.514 0 1.847-1.252 4.123-2.735 4.97-.32.183-.624.28-.88.28-.084 0-.172-.018-.275-.057-.016-.007-.033-.013-.05-.018l-.024-.008c-.04-.022-.09-.06-.145-.11-.028-.026-.058-.05-.09-.073l-1.203-.87c-.065-.046-.135-.084-.21-.112-.4-.157-.642-.72-.642-1.505 0-1.837 1.255-4.114 2.74-4.97.323-.187.628-.286.884-.286z" stroke="#33475C" stroke-width="5" stroke-linecap="round" stroke-linejoin="round"/>
        <path d="M59.7 115.342c1.07 0 1.152 1.382 1.152 1.805 0 1.92-1.307 4.29-2.854 5.173-.357.204-.702.31-.997.31-1.074 0-1.158-1.375-1.158-1.797 0-1.91 1.31-4.28 2.858-5.174.358-.21.704-.318 1-.318m5.903 2.581c-.14 0-.286-.028-.442-.088-.016-.007-.056-.016-.086-.024-.013-.01-.026-.017-.034-.022-.082-.042-.165-.102-.253-.184l-1.25-.906c-.032-.024-.067-.042-.104-.056-.6-.233-.942-.94-.942-1.944 0-1.983 1.362-4.446 2.975-5.377.393-.226.78-.346 1.118-.346.366 0 .673.143.913.427.028.033.06.06.094.085l1.035.71c.03.02.066.04.103.052.608.225.958.938.958 1.956 0 1.994-1.36 4.456-2.972 5.377-.397.227-.772.342-1.114.342z" stroke="#33475C" stroke-width="5" stroke-linecap="round" stroke-linejoin="round"/>
        <path d="M66.587 108.504c-.41 0-.87.13-1.353.41-1.765 1.02-3.21 3.623-3.21 5.785 0 1.252.49 2.086 1.24 2.38l1.205.87c.11.1.227.19.356.256l.03.023c.042.028.092.03.14.043.188.072.39.118.608.118.41 0 .867-.128 1.347-.403 1.767-1.007 3.21-3.61 3.21-5.784 0-1.273-.5-2.114-1.265-2.396l-1.035-.71c-.323-.38-.76-.593-1.273-.593zm0 .94c.23 0 .405.082.556.26.054.064.117.12.185.167l1.036.712c.064.044.133.08.206.107.408.15.65.715.65 1.513 0 1.846-1.252 4.122-2.735 4.97-.32.182-.625.28-.88.28-.085 0-.173-.02-.276-.058l-.05-.017-.025-.008c-.043-.022-.09-.06-.146-.11-.03-.026-.06-.05-.09-.073l-1.204-.87c-.065-.047-.136-.085-.21-.113-.402-.157-.642-.72-.642-1.505 0-1.838 1.255-4.115 2.74-4.972.323-.186.628-.285.883-.285z" stroke="#33475C" stroke-width="5" stroke-linecap="round" stroke-linejoin="round"/>
        <path d="M68.304 110.398c1.07 0 1.152 1.382 1.152 1.805 0 1.92-1.307 4.29-2.854 5.173-.357.204-.702.31-.998.31-1.074 0-1.158-1.375-1.158-1.797 0-1.91 1.308-4.28 2.857-5.175.36-.208.705-.317 1-.317M48.397 138.29c-.14 0-.287-.027-.443-.087-.016-.006-.056-.016-.085-.024l-.036-.022c-.08-.042-.164-.102-.252-.184l-1.25-.907c-.032-.024-.067-.043-.104-.057-.598-.232-.94-.94-.94-1.942 0-1.985 1.36-4.447 2.974-5.378.393-.227.78-.347 1.118-.347.367 0 .674.144.914.427.027.032.058.06.093.083l1.035.71c.032.022.067.04.103.053.61.225.958.938.958 1.956 0 1.994-1.36 4.456-2.972 5.376-.392.225-.777.343-1.113.343z" stroke="#33475C" stroke-width="5" stroke-linecap="round" stroke-linejoin="round"/>
        <path d="M49.38 128.873c-.41 0-.87.13-1.353.41-1.765 1.02-3.21 3.623-3.21 5.785 0 1.253.49 2.087 1.24 2.38l1.205.87c.11.1.227.19.357.257l.03.023c.04.03.09.03.138.044.19.072.39.118.61.118.41 0 .866-.13 1.346-.404 1.765-1.007 3.21-3.61 3.21-5.784 0-1.273-.5-2.114-1.266-2.396l-1.035-.71c-.323-.38-.76-.593-1.273-.593zm0 .94c.228 0 .405.082.556.26.054.064.117.12.185.167l1.037.71c.064.045.132.08.206.108.407.15.65.716.65 1.514 0 1.846-1.252 4.122-2.735 4.97-.322.182-.626.28-.88.28-.086 0-.173-.02-.277-.058-.015-.006-.03-.012-.047-.017l-.026-.008c-.042-.023-.09-.06-.145-.11-.028-.027-.06-.05-.09-.074l-1.204-.87c-.064-.047-.135-.085-.21-.113-.4-.157-.642-.72-.642-1.505 0-1.837 1.255-4.114 2.74-4.97.323-.187.63-.286.884-.286z" stroke="#33475C" stroke-width="5" stroke-linecap="round" stroke-linejoin="round"/>
        <path d="M51.097 130.767c1.07 0 1.152 1.382 1.152 1.805 0 1.92-1.31 4.29-2.856 5.173-.357.204-.7.31-.997.31-1.075 0-1.158-1.375-1.158-1.797 0-1.91 1.307-4.28 2.856-5.174.36-.208.704-.317 1-.317m5.906 2.58c-.14 0-.285-.028-.44-.088l-.088-.025c-.014-.01-.026-.017-.034-.02-.082-.043-.165-.103-.253-.185l-1.248-.907c-.032-.024-.068-.043-.105-.057-.6-.233-.942-.94-.942-1.942 0-1.985 1.362-4.447 2.975-5.378.394-.226.78-.347 1.12-.347.365 0 .673.143.913.426.027.032.06.06.092.083l1.035.71c.032.02.067.04.104.052.607.225.957.938.957 1.957 0 1.992-1.36 4.454-2.973 5.375-.398.227-.773.342-1.114.342z" stroke="#33475C" stroke-width="5" stroke-linecap="round" stroke-linejoin="round"/>
        <path d="M57.984 123.93c-.412 0-.87.13-1.354.41-1.765 1.02-3.21 3.622-3.21 5.784 0 1.253.49 2.087 1.242 2.38l1.204.87c.11.1.227.19.357.257l.03.024c.04.03.092.03.14.044.188.072.39.118.607.118.41 0 .867-.13 1.347-.403 1.766-1.008 3.21-3.612 3.21-5.785 0-1.273-.5-2.113-1.266-2.396l-1.034-.71c-.323-.38-.76-.593-1.272-.593zm0 .938c.228 0 .405.083.556.262.053.063.116.12.185.167l1.036.71c.065.044.133.08.206.107.408.15.65.716.65 1.514 0 1.846-1.252 4.122-2.735 4.97-.32.182-.624.28-.88.28-.084 0-.172-.02-.275-.058-.016-.006-.033-.01-.05-.017l-.024-.008c-.04-.022-.09-.06-.145-.108-.028-.028-.058-.052-.09-.075l-1.203-.87c-.065-.046-.135-.085-.21-.113-.4-.158-.642-.72-.642-1.506 0-1.837 1.255-4.113 2.74-4.97.323-.187.628-.286.884-.286z" stroke="#33475C" stroke-width="5" stroke-linecap="round" stroke-linejoin="round"/>
        <path d="M59.7 125.824c1.07 0 1.152 1.38 1.152 1.804 0 1.92-1.307 4.29-2.854 5.173-.357.205-.702.312-.997.312-1.074 0-1.158-1.376-1.158-1.798 0-1.91 1.31-4.28 2.858-5.174.358-.207.704-.316 1-.316m5.903 2.579c-.14 0-.286-.03-.442-.09l-.087-.023-.033-.02c-.082-.042-.165-.102-.253-.184l-1.25-.907c-.032-.025-.068-.043-.104-.057-.6-.232-.942-.94-.942-1.943 0-1.984 1.362-4.447 2.975-5.378.393-.226.78-.346 1.118-.346.366 0 .673.143.913.426.03.032.06.06.094.084l1.035.71c.03.02.066.04.103.052.608.226.958.938.958 1.956 0 1.995-1.36 4.456-2.972 5.377-.392.225-.778.344-1.114.344z" stroke="#33475C" stroke-width="5" stroke-linecap="round" stroke-linejoin="round"/>
        <path d="M66.587 118.985c-.41 0-.87.132-1.353.41-1.765 1.02-3.21 3.623-3.21 5.786 0 1.253.49 2.087 1.24 2.38l1.205.87c.11.102.227.19.356.258l.03.022c.042.03.092.03.14.044.188.073.39.12.608.12.41 0 .867-.13 1.347-.405 1.767-1.01 3.21-3.613 3.21-5.786 0-1.273-.5-2.113-1.265-2.396l-1.035-.71c-.323-.38-.76-.593-1.273-.593zm0 .94c.23 0 .405.082.556.26.054.065.117.12.185.168l1.036.71c.064.044.133.08.206.107.408.15.65.717.65 1.514 0 1.847-1.252 4.122-2.735 4.97-.32.183-.625.28-.88.28-.085 0-.173-.018-.276-.058-.017-.006-.034-.01-.05-.017-.008-.004-.017-.006-.025-.008-.043-.023-.09-.06-.146-.11-.03-.027-.06-.05-.09-.073l-1.204-.87c-.065-.048-.136-.087-.21-.115-.402-.157-.642-.72-.642-1.504 0-1.837 1.255-4.113 2.74-4.97.323-.187.628-.285.883-.285z" stroke="#33475C" stroke-width="5" stroke-linecap="round" stroke-linejoin="round"/>
        <path d="M68.304 120.88c1.07 0 1.152 1.38 1.152 1.804 0 1.92-1.307 4.29-2.854 5.173-.357.204-.702.31-.998.31-1.074 0-1.158-1.375-1.158-1.796 0-1.91 1.308-4.28 2.857-5.174.36-.207.705-.316 1-.316" stroke="#33475C" stroke-width="5" stroke-linecap="round" stroke-linejoin="round"/>
        <path fill="#FFF" d="M39.525 107.672v20.73L70.62 110.45V98.69l-15.108-.25"/>
        <path stroke="#33475C" stroke-linecap="round" stroke-linejoin="round" d="M39.525 107.672v20.73L70.62 110.45V98.69l-15.108-.25z"/>
        <path d="M75.26 90.854c-.074-1.177-.41-2.19-.85-3.052l-.27-.498-34.605 19.98v41.858l35.907-20.73-.156-37.073c0-.17-.01-.33-.026-.486" fill="#9DB2C9"/>
        <path d="M75.26 90.854c-.074-1.177-.41-2.19-.85-3.052l-.27-.498-34.605 19.98v41.858l35.907-20.73-.156-37.073c0-.17-.01-.33-.026-.486z" stroke="#33475C" stroke-linecap="round" stroke-linejoin="round"/>
        <path d="M71.188 84.298L43.592 68.365c-2.237-1.292-5.897-1.292-8.135 0L7.86 84.298s-1.83.837-3.042 2.947l2.905 1.678c.046.024.09.044.137.07l.87.503 12.358 7.135 14.37 8.297 4.067 2.348 7.306-4.218-3.238 1.87L69.98 89.692l.164-.095 3.982-2.3c-1.208-1.99-2.938-3-2.938-3" fill="#E4EBEF"/>
        <path d="M71.188 84.298L43.592 68.365c-2.237-1.292-5.897-1.292-8.135 0L7.86 84.298s-1.83.837-3.042 2.947l2.905 1.678c.046.024.09.044.137.07l.87.503 12.358 7.135 14.37 8.297 4.067 2.348 7.306-4.218-3.238 1.87L69.98 89.692l.164-.095 3.982-2.3c-1.208-1.99-2.938-3-2.938-3z" stroke="#33475C" stroke-linecap="round" stroke-linejoin="round"/>
        <path d="M3.774 91.34l-.157 37.07 35.908 20.732v-41.86L7.723 88.923l-2.905-1.676c-.26.452-.49.963-.67 1.537-.23.742-.374 1.59-.374 2.557" fill="#CBD6E3"/>
        <path d="M3.774 91.34l-.157 37.07 35.908 20.732v-41.86L7.723 88.923l-2.905-1.676c-.26.452-.49.963-.67 1.537-.23.742-.374 1.59-.374 2.557" stroke="#33475C" stroke-linecap="round" stroke-linejoin="round"/>
        <path d="M8.326 100.147c0-2.583 1.83-3.64 4.067-2.348l17.79 10.27c2.236 1.29 4.067 4.46 4.067 7.044v20.542c0 2.582-1.83 3.64-4.068 2.348l-17.79-10.272c-2.235-1.29-4.066-4.46-4.066-7.044v-20.54z" fill="#BDEEE8"/>
        <path d="M8.326 100.147c0-2.583 1.83-3.64 4.067-2.348l17.79 10.27c2.236 1.29 4.067 4.46 4.067 7.044v20.542c0 2.582-1.83 3.64-4.068 2.348l-17.79-10.272c-2.235-1.29-4.066-4.46-4.066-7.044v-20.54z" stroke="#33475C" stroke-linecap="round" stroke-linejoin="round"/>
        <path d="M48.397 117.328c-.14 0-.287-.028-.443-.088-.016-.006-.056-.016-.085-.024-.015-.01-.027-.016-.036-.02-.08-.043-.164-.103-.252-.185l-1.25-.906c-.032-.023-.066-.042-.104-.056-.598-.233-.94-.94-.94-1.943 0-1.984 1.36-4.446 2.974-5.377.394-.227.78-.348 1.118-.348.367 0 .674.144.914.428.027.032.058.06.093.083l1.036.71c.03.022.066.04.102.053.61.225.958.938.958 1.956 0 1.993-1.36 4.455-2.972 5.375-.397.228-.77.343-1.113.343" fill="#6976D4"/>
        <path d="M49.38 107.91c-.41 0-.87.132-1.353.41-1.765 1.02-3.21 3.623-3.21 5.785 0 1.253.49 2.087 1.24 2.38l1.205.87c.11.102.227.19.357.258l.03.022c.04.03.09.03.138.044.19.072.39.118.61.118.41 0 .866-.13 1.346-.404 1.765-1.008 3.21-3.612 3.21-5.785 0-1.274-.5-2.114-1.266-2.397l-1.035-.71c-.323-.38-.76-.593-1.273-.593m0 .94c.228 0 .405.082.556.26.054.064.117.12.185.168l1.037.71c.064.044.132.08.206.107.407.15.65.717.65 1.514 0 1.845-1.252 4.12-2.735 4.968-.322.184-.626.28-.88.28-.086 0-.173-.018-.277-.057l-.047-.016-.026-.007c-.042-.023-.09-.06-.145-.11-.028-.027-.06-.05-.09-.074l-1.204-.87c-.064-.046-.135-.085-.21-.113-.4-.157-.642-.72-.642-1.505 0-1.837 1.255-4.113 2.74-4.97.323-.187.63-.285.884-.285" fill="#33475C"/>
        <path d="M51.097 109.805c1.07 0 1.152 1.38 1.152 1.804 0 1.92-1.31 4.288-2.856 5.172-.357.204-.7.31-.997.31-1.075 0-1.158-1.375-1.158-1.797 0-1.91 1.307-4.28 2.856-5.174.36-.206.704-.315 1-.315" fill="#6976D4"/>
        <path d="M51.097 109.805c1.07 0 1.152 1.38 1.152 1.804 0 1.92-1.31 4.288-2.856 5.172-.357.204-.7.31-.997.31-1.075 0-1.158-1.375-1.158-1.797 0-1.91 1.307-4.28 2.856-5.174.36-.206.704-.315 1-.315" stroke="#33475C" stroke-width=".75" stroke-linecap="round" stroke-linejoin="round"/>
        <path d="M57 112.385c-.14 0-.285-.03-.44-.09l-.088-.023c-.014-.01-.026-.017-.034-.02-.082-.043-.165-.103-.253-.185l-1.248-.907c-.032-.024-.068-.042-.105-.057-.6-.232-.942-.94-.942-1.942 0-1.982 1.362-4.445 2.975-5.376.394-.227.78-.347 1.12-.347.365 0 .673.143.912.427.028.032.06.06.093.084l1.035.708c.032.022.067.04.104.053.607.224.957.938.957 1.956 0 1.994-1.36 4.455-2.973 5.376-.396.227-.77.343-1.114.343" fill="#FF7A52"/>
        <path d="M57.984 102.966c-.412 0-.87.132-1.354.41-1.765 1.02-3.21 3.623-3.21 5.786 0 1.252.49 2.086 1.242 2.38l1.204.87c.11.1.227.19.357.257l.03.02c.04.03.092.03.14.045.188.073.39.12.607.12.41 0 .867-.13 1.347-.405 1.766-1.008 3.21-3.612 3.21-5.785 0-1.273-.5-2.113-1.266-2.396l-1.034-.71c-.323-.38-.76-.594-1.272-.594m0 .94c.228 0 .405.082.556.26.053.065.116.12.185.168l1.036.71c.065.044.133.08.206.107.408.15.65.718.65 1.515 0 1.847-1.252 4.122-2.735 4.97-.32.183-.624.28-.88.28-.084 0-.172-.018-.275-.058-.016-.006-.033-.01-.05-.017l-.024-.007c-.04-.023-.09-.06-.145-.11-.028-.026-.058-.05-.09-.073l-1.203-.87c-.065-.047-.135-.086-.21-.114-.4-.157-.642-.72-.642-1.504 0-1.838 1.255-4.114 2.74-4.972.323-.186.628-.284.884-.284" fill="#33475C"/>
        <path d="M59.7 104.86c1.07 0 1.152 1.383 1.152 1.805 0 1.92-1.307 4.29-2.854 5.173-.357.204-.702.31-.997.31-1.074 0-1.158-1.375-1.158-1.796 0-1.91 1.31-4.28 2.858-5.175.358-.207.704-.316 1-.316" fill="#FF7A52"/>
        <path d="M59.7 104.86c1.07 0 1.152 1.383 1.152 1.805 0 1.92-1.307 4.29-2.854 5.173-.357.204-.702.31-.997.31-1.074 0-1.158-1.375-1.158-1.796 0-1.91 1.31-4.28 2.858-5.175.358-.207.704-.316 1-.316" stroke="#33475C" stroke-width=".75" stroke-linecap="round" stroke-linejoin="round"/>
        <path d="M65.604 107.44c-.14 0-.286-.027-.442-.088l-.086-.024-.034-.02c-.082-.043-.165-.103-.253-.185l-1.25-.907c-.032-.023-.068-.042-.104-.056-.6-.232-.942-.94-.942-1.943 0-1.984 1.362-4.447 2.975-5.378.393-.227.78-.347 1.118-.347.366 0 .673.143.913.426.03.03.06.06.094.083l1.035.71c.03.02.066.04.103.052.608.226.958.94.958 1.957 0 1.994-1.36 4.456-2.972 5.376-.392.224-.778.343-1.114.343" fill="#BDEEE8"/>
        <path d="M66.587 98.023c-.41 0-.87.13-1.353.41-1.765 1.02-3.21 3.623-3.21 5.785 0 1.253.49 2.087 1.24 2.38l1.205.87c.11.1.227.19.356.257l.03.022c.042.03.092.03.14.044.188.074.39.12.608.12.41 0 .867-.13 1.347-.404 1.767-1.008 3.21-3.61 3.21-5.785 0-1.27-.5-2.112-1.265-2.395l-1.035-.71c-.323-.38-.76-.592-1.273-.592m0 .94c.23 0 .405.08.556.26.054.064.117.12.185.167l1.036.71c.064.044.133.08.206.107.408.15.65.717.65 1.514 0 1.848-1.252 4.124-2.735 4.97-.32.184-.625.28-.88.28-.085 0-.173-.017-.276-.057-.017-.005-.034-.01-.05-.017l-.025-.007c-.043-.024-.09-.06-.146-.11-.03-.027-.06-.052-.09-.074l-1.204-.87c-.065-.047-.136-.085-.21-.114-.402-.156-.642-.72-.642-1.504 0-1.837 1.255-4.114 2.74-4.972.323-.186.628-.284.883-.284" fill="#33475C"/>
        <path d="M68.304 99.917c1.07 0 1.152 1.382 1.152 1.804 0 1.922-1.307 4.29-2.854 5.175-.357.203-.702.31-.998.31-1.074 0-1.158-1.376-1.158-1.797 0-1.91 1.308-4.28 2.857-5.174.36-.208.705-.317 1-.317" fill="#BDEEE8"/>
        <path d="M68.304 99.917c1.07 0 1.152 1.382 1.152 1.804 0 1.922-1.307 4.29-2.854 5.175-.357.203-.702.31-.998.31-1.074 0-1.158-1.376-1.158-1.797 0-1.91 1.308-4.28 2.857-5.174.36-.208.705-.317 1-.317" stroke="#33475C" stroke-width=".75" stroke-linecap="round" stroke-linejoin="round"/>
        <path d="M48.397 127.81c-.14 0-.287-.03-.443-.09-.016-.006-.055-.015-.085-.022-.014-.01-.027-.017-.036-.022-.08-.042-.164-.102-.252-.184l-1.25-.907c-.032-.023-.066-.042-.104-.056-.598-.234-.94-.942-.94-1.943 0-1.985 1.36-4.447 2.974-5.378.394-.228.78-.35 1.118-.35.367 0 .674.145.914.43.026.03.058.058.093.082l1.035.71c.032.022.067.04.103.053.61.225.958.937.958 1.955 0 1.995-1.36 4.457-2.972 5.377-.397.228-.77.342-1.113.342" fill="#D9DCF4"/>
        <path d="M49.38 118.392c-.41 0-.87.13-1.353.41-1.765 1.02-3.21 3.623-3.21 5.785 0 1.253.49 2.087 1.24 2.38l1.205.87c.11.1.227.19.357.257l.03.022c.04.03.09.03.138.045.19.073.39.12.61.12.41 0 .866-.13 1.346-.405 1.765-1.008 3.21-3.61 3.21-5.785 0-1.272-.5-2.113-1.266-2.396l-1.035-.71c-.323-.38-.76-.592-1.273-.592m0 .94c.228 0 .405.082.556.26.054.064.117.12.185.167l1.037.71c.064.043.132.08.206.106.407.15.65.717.65 1.514 0 1.847-1.252 4.123-2.735 4.97-.322.183-.626.28-.88.28-.086 0-.173-.018-.277-.058l-.047-.017-.026-.007c-.042-.023-.09-.06-.145-.11-.028-.026-.06-.05-.09-.073l-1.204-.87c-.064-.047-.135-.085-.21-.114-.4-.155-.642-.718-.642-1.503 0-1.837 1.255-4.114 2.74-4.972.323-.185.63-.284.884-.284" fill="#33475C"/>
        <path d="M51.097 120.286c1.07 0 1.152 1.382 1.152 1.804 0 1.92-1.31 4.29-2.856 5.174-.357.203-.7.31-.997.31-1.075 0-1.158-1.375-1.158-1.797 0-1.91 1.307-4.28 2.856-5.174.36-.208.704-.317 1-.317" fill="#D9DCF4"/>
        <path d="M51.097 120.286c1.07 0 1.152 1.382 1.152 1.804 0 1.92-1.31 4.29-2.856 5.174-.357.203-.7.31-.997.31-1.075 0-1.158-1.375-1.158-1.797 0-1.91 1.307-4.28 2.856-5.174.36-.208.704-.317 1-.317" stroke="#33475C" stroke-width=".75" stroke-linecap="round" stroke-linejoin="round"/>
        <path d="M57 122.866c-.14 0-.285-.03-.44-.09l-.088-.022c-.013-.01-.025-.017-.034-.022-.082-.042-.165-.102-.253-.184l-1.248-.906c-.032-.023-.068-.043-.104-.057-.6-.233-.943-.94-.943-1.943 0-1.984 1.362-4.446 2.975-5.377.394-.227.78-.348 1.12-.348.365 0 .673.144.912.428.028.032.06.06.093.083l1.035.71c.032.022.067.04.104.054.607.224.957.936.957 1.955 0 1.994-1.36 4.455-2.973 5.377-.397.227-.772.342-1.114.342" fill="#01A4BF"/>
        <path d="M57.984 113.448c-.412 0-.87.13-1.354.41-1.765 1.02-3.21 3.623-3.21 5.785 0 1.253.49 2.087 1.242 2.38l1.204.87c.11.1.227.19.357.257l.03.023c.04.03.092.03.14.044.188.072.39.118.607.118.41 0 .867-.13 1.347-.404 1.766-1.007 3.21-3.61 3.21-5.784 0-1.272-.5-2.113-1.266-2.396l-1.034-.71c-.323-.38-.76-.592-1.272-.592m0 .94c.228 0 .405.082.556.26.053.064.116.12.185.167l1.036.71c.065.044.133.08.206.107.408.15.65.717.65 1.514 0 1.847-1.252 4.123-2.735 4.97-.32.183-.624.28-.88.28-.084 0-.172-.018-.275-.057-.016-.007-.033-.013-.05-.018l-.024-.008c-.04-.022-.09-.06-.145-.11-.028-.026-.058-.05-.09-.073l-1.203-.87c-.065-.046-.135-.084-.21-.112-.4-.157-.642-.72-.642-1.505 0-1.837 1.255-4.114 2.74-4.97.323-.187.628-.286.884-.286" fill="#33475C"/>
        <path d="M59.7 115.342c1.07 0 1.152 1.382 1.152 1.805 0 1.92-1.307 4.29-2.854 5.173-.357.204-.702.31-.997.31-1.074 0-1.158-1.375-1.158-1.797 0-1.91 1.31-4.28 2.858-5.174.358-.21.704-.318 1-.318" fill="#01A4BF"/>
        <path d="M59.7 115.342c1.07 0 1.152 1.382 1.152 1.805 0 1.92-1.307 4.29-2.854 5.173-.357.204-.702.31-.997.31-1.074 0-1.158-1.375-1.158-1.797 0-1.91 1.31-4.28 2.858-5.174.358-.21.704-.318 1-.318" stroke="#33475C" stroke-width=".75" stroke-linecap="round" stroke-linejoin="round"/>
        <path d="M65.604 117.922c-.14 0-.286-.028-.442-.088-.016-.007-.056-.016-.086-.024-.013-.01-.026-.017-.034-.022-.082-.042-.165-.102-.253-.184l-1.25-.906c-.032-.024-.067-.042-.104-.056-.6-.233-.942-.94-.942-1.944 0-1.983 1.362-4.446 2.975-5.377.393-.226.78-.346 1.118-.346.366 0 .673.143.913.427.028.033.06.06.094.085l1.035.71c.03.02.066.04.103.052.608.225.958.938.958 1.956 0 1.994-1.36 4.456-2.972 5.377-.397.227-.772.342-1.114.342" fill="#BDE8EF"/>
        <path d="M66.587 108.504c-.41 0-.87.13-1.353.41-1.765 1.02-3.21 3.623-3.21 5.785 0 1.252.49 2.086 1.24 2.38l1.205.87c.11.1.227.19.356.256l.03.023c.042.028.092.03.14.043.188.072.39.118.608.118.41 0 .867-.128 1.347-.403 1.767-1.007 3.21-3.61 3.21-5.784 0-1.273-.5-2.114-1.265-2.396l-1.035-.71c-.323-.38-.76-.593-1.273-.593m0 .94c.23 0 .405.082.556.26.054.064.117.12.185.167l1.036.712c.064.044.133.08.206.107.408.15.65.715.65 1.513 0 1.846-1.252 4.122-2.735 4.97-.32.182-.625.28-.88.28-.085 0-.173-.02-.276-.058l-.05-.017-.025-.008c-.043-.022-.09-.06-.146-.11-.03-.026-.06-.05-.09-.073l-1.204-.87c-.065-.047-.136-.085-.21-.113-.402-.157-.642-.72-.642-1.505 0-1.838 1.255-4.115 2.74-4.972.323-.186.628-.285.883-.285" fill="#33475C"/>
        <path d="M68.304 110.398c1.07 0 1.152 1.382 1.152 1.805 0 1.92-1.307 4.29-2.854 5.173-.357.204-.702.31-.998.31-1.074 0-1.158-1.375-1.158-1.797 0-1.91 1.308-4.28 2.857-5.175.36-.208.705-.317 1-.317" fill="#BDE8EF"/>
        <path d="M68.304 110.398c1.07 0 1.152 1.382 1.152 1.805 0 1.92-1.307 4.29-2.854 5.173-.357.204-.702.31-.998.31-1.074 0-1.158-1.375-1.158-1.797 0-1.91 1.308-4.28 2.857-5.175.36-.208.705-.317 1-.317" stroke="#33475C" stroke-width=".75" stroke-linecap="round" stroke-linejoin="round"/>
        <path d="M48.397 138.29c-.14 0-.287-.027-.443-.087-.016-.006-.056-.016-.085-.024l-.036-.022c-.08-.042-.164-.102-.252-.184l-1.25-.907c-.032-.024-.067-.043-.104-.057-.598-.232-.94-.94-.94-1.942 0-1.985 1.36-4.447 2.974-5.378.393-.227.78-.347 1.118-.347.367 0 .674.144.914.427.027.032.058.06.093.083l1.035.71c.032.022.067.04.103.053.61.225.958.938.958 1.956 0 1.994-1.36 4.456-2.972 5.376-.392.225-.777.343-1.113.343" fill="#BDEEE8"/>
        <path d="M49.38 128.873c-.41 0-.87.13-1.353.41-1.765 1.02-3.21 3.623-3.21 5.785 0 1.253.49 2.087 1.24 2.38l1.205.87c.11.1.227.19.357.257l.03.023c.04.03.09.03.138.044.19.072.39.118.61.118.41 0 .866-.13 1.346-.404 1.765-1.007 3.21-3.61 3.21-5.784 0-1.273-.5-2.114-1.266-2.396l-1.035-.71c-.323-.38-.76-.593-1.273-.593m0 .94c.228 0 .405.082.556.26.054.064.117.12.185.167l1.037.71c.064.045.132.08.206.108.407.15.65.716.65 1.514 0 1.846-1.252 4.122-2.735 4.97-.322.182-.626.28-.88.28-.086 0-.173-.02-.277-.058-.015-.006-.03-.012-.047-.017l-.026-.008c-.042-.023-.09-.06-.145-.11-.028-.027-.06-.05-.09-.074l-1.204-.87c-.064-.047-.135-.085-.21-.113-.4-.157-.642-.72-.642-1.505 0-1.837 1.255-4.114 2.74-4.97.323-.187.63-.286.884-.286" fill="#33475C"/>
        <path d="M51.097 130.767c1.07 0 1.152 1.382 1.152 1.805 0 1.92-1.31 4.29-2.856 5.173-.357.204-.7.31-.997.31-1.075 0-1.158-1.375-1.158-1.797 0-1.91 1.307-4.28 2.856-5.174.36-.208.704-.317 1-.317" fill="#BDEEE8"/>
        <path d="M51.097 130.767c1.07 0 1.152 1.382 1.152 1.805 0 1.92-1.31 4.29-2.856 5.173-.357.204-.7.31-.997.31-1.075 0-1.158-1.375-1.158-1.797 0-1.91 1.307-4.28 2.856-5.174.36-.208.704-.317 1-.317" stroke="#33475C" stroke-width=".75" stroke-linecap="round" stroke-linejoin="round"/>
        <path d="M57 133.347c-.14 0-.285-.028-.44-.088l-.088-.025c-.014-.01-.026-.017-.034-.02-.082-.043-.165-.103-.253-.185l-1.248-.907c-.032-.024-.068-.043-.105-.057-.6-.233-.942-.94-.942-1.942 0-1.985 1.362-4.447 2.975-5.378.394-.226.78-.347 1.12-.347.365 0 .673.143.913.426.027.032.06.06.092.083l1.035.71c.032.02.067.04.104.052.607.225.957.938.957 1.957 0 1.992-1.36 4.454-2.973 5.375-.398.227-.773.342-1.114.342" fill="#40CEBB"/>
        <path d="M57.984 123.93c-.412 0-.87.13-1.354.41-1.765 1.02-3.21 3.622-3.21 5.784 0 1.253.49 2.087 1.242 2.38l1.204.87c.11.1.227.19.357.257l.03.024c.04.03.092.03.14.044.188.072.39.118.607.118.41 0 .867-.13 1.347-.403 1.766-1.008 3.21-3.612 3.21-5.785 0-1.273-.5-2.113-1.266-2.396l-1.034-.71c-.323-.38-.76-.593-1.272-.593m0 .938c.228 0 .405.083.556.262.053.063.116.12.185.167l1.036.71c.065.044.133.08.206.107.408.15.65.716.65 1.514 0 1.846-1.252 4.122-2.735 4.97-.32.182-.624.28-.88.28-.084 0-.172-.02-.275-.058-.016-.006-.033-.01-.05-.017l-.024-.008c-.04-.022-.09-.06-.145-.108-.028-.028-.058-.052-.09-.075l-1.203-.87c-.065-.046-.135-.085-.21-.113-.4-.158-.642-.72-.642-1.506 0-1.837 1.255-4.113 2.74-4.97.323-.187.628-.286.884-.286" fill="#33475C"/>
        <path d="M59.7 125.824c1.07 0 1.152 1.38 1.152 1.804 0 1.92-1.307 4.29-2.854 5.173-.357.205-.702.312-.997.312-1.074 0-1.158-1.376-1.158-1.798 0-1.91 1.31-4.28 2.858-5.174.358-.207.704-.316 1-.316" fill="#40CEBB"/>
        <path d="M59.7 125.824c1.07 0 1.152 1.38 1.152 1.804 0 1.92-1.307 4.29-2.854 5.173-.357.205-.702.312-.997.312-1.074 0-1.158-1.376-1.158-1.798 0-1.91 1.31-4.28 2.858-5.174.358-.207.704-.316 1-.316" stroke="#33475C" stroke-width=".75" stroke-linecap="round" stroke-linejoin="round"/>
        <path d="M65.604 128.404c-.14 0-.286-.03-.442-.09l-.087-.023-.033-.02c-.082-.042-.165-.102-.253-.184l-1.25-.907c-.032-.025-.068-.043-.104-.057-.6-.232-.942-.94-.942-1.943 0-1.984 1.362-4.447 2.975-5.378.393-.226.78-.346 1.118-.346.366 0 .673.143.913.426.03.032.06.06.094.084l1.035.71c.03.02.066.04.103.052.608.226.958.938.958 1.956 0 1.995-1.36 4.456-2.972 5.377-.392.225-.778.344-1.114.344" fill="#F87D81"/>
        <path d="M66.587 118.985c-.41 0-.87.132-1.353.41-1.765 1.02-3.21 3.623-3.21 5.786 0 1.253.49 2.087 1.24 2.38l1.205.87c.11.102.227.19.356.258l.03.022c.042.03.092.03.14.044.188.073.39.12.608.12.41 0 .867-.13 1.347-.405 1.767-1.01 3.21-3.613 3.21-5.786 0-1.273-.5-2.113-1.265-2.396l-1.035-.71c-.323-.38-.76-.593-1.273-.593m0 .94c.23 0 .405.082.556.26.054.065.117.12.185.168l1.036.71c.064.044.133.08.206.107.408.15.65.717.65 1.514 0 1.847-1.252 4.122-2.735 4.97-.32.183-.625.28-.88.28-.085 0-.173-.018-.276-.058-.017-.006-.034-.01-.05-.017-.008-.004-.017-.006-.025-.008-.043-.023-.09-.06-.146-.11-.03-.027-.06-.05-.09-.073l-1.204-.87c-.065-.048-.136-.087-.21-.115-.402-.157-.642-.72-.642-1.504 0-1.837 1.255-4.113 2.74-4.97.323-.187.628-.285.883-.285" fill="#33475C"/>
        <path d="M68.304 120.88c1.07 0 1.152 1.38 1.152 1.804 0 1.92-1.307 4.29-2.854 5.173-.357.204-.702.31-.998.31-1.074 0-1.158-1.375-1.158-1.796 0-1.91 1.308-4.28 2.857-5.174.36-.207.705-.316 1-.316" fill="#F87D81"/>
        <path d="M68.304 120.88c1.07 0 1.152 1.38 1.152 1.804 0 1.92-1.307 4.29-2.854 5.173-.357.204-.702.31-.998.31-1.074 0-1.158-1.375-1.158-1.796 0-1.91 1.308-4.28 2.857-5.174.36-.207.705-.316 1-.316" stroke="#33475C" stroke-width=".75" stroke-linecap="round" stroke-linejoin="round"/>
        <path d="M21.57 61.085c9.875 5.7 26.034 5.7 35.908 0 9.874-5.7 9.874-15.03 0-20.73-9.874-5.702-26.033-5.702-35.907 0-9.873 5.7-9.873 15.03 0 20.73z" stroke="#33475C" stroke-width="5"/>
        <path d="M21.57 61.085c9.875 5.7 26.034 5.7 35.908 0 9.874-5.7 9.874-15.03 0-20.73-9.874-5.702-26.033-5.702-35.907 0-9.873 5.7-9.873 15.03 0 20.73z" stroke="#33475C" stroke-width="5"/>
        <path d="M23.793 59.012c8.652 4.56 22.81 4.56 31.464 0 8.653-4.56 8.653-12.024 0-16.585-8.653-4.56-22.812-4.56-31.464 0-8.653 4.56-8.653 12.024 0 16.585z" stroke="#33475C" stroke-width="5"/>
        <path d="M23.793 59.012c8.652 4.56 22.81 4.56 31.464 0 8.653-4.56 8.653-12.024 0-16.585-8.653-4.56-22.812-4.56-31.464 0-8.653 4.56-8.653 12.024 0 16.585z" stroke="#33475C" stroke-width="5"/>
        <path d="M21.57 61.085c-.655-.38-1.265-.775-1.833-1.184l-.12.057 14.856 16.17h.113c.223.49.644.957 1.306 1.338 1.998 1.153 5.267 1.153 7.266 0 .66-.382 1.082-.847 1.306-1.337h.112l14.856-16.17-.12-.057c-.568.41-1.178.806-1.834 1.185-9.874 5.7-26.033 5.7-35.907 0z" stroke="#33475C" stroke-width="5"/>
        <path d="M44.576 76.128h-.113c-.222.49-.644.955-1.305 1.337-2 1.154-5.268 1.154-7.266 0-.66-.382-1.083-.847-1.307-1.337h-.11l-.08-.086v9.78c0 .76.498 1.52 1.497 2.096 1.998 1.154 5.267 1.154 7.266 0 .998-.577 1.498-1.336 1.498-2.097v-9.778l-.08.086z" stroke="#33475C" stroke-width="5"/>
        <path d="M21.57 61.085c9.875 5.7 26.034 5.7 35.908 0 9.874-5.7 9.874-15.03 0-20.73-9.874-5.702-26.033-5.702-35.907 0-9.873 5.7-9.873 15.03 0 20.73" fill="#FFF"/>
        <path d="M21.57 61.085c9.875 5.7 26.034 5.7 35.908 0 9.874-5.7 9.874-15.03 0-20.73-9.874-5.702-26.033-5.702-35.907 0-9.873 5.7-9.873 15.03 0 20.73" fill="#E4EBEF"/>
        <path d="M21.57 61.085c9.875 5.7 26.034 5.7 35.908 0 9.874-5.7 9.874-15.03 0-20.73-9.874-5.702-26.033-5.702-35.907 0-9.873 5.7-9.873 15.03 0 20.73z" stroke="#33475C" stroke-linecap="round" stroke-linejoin="round"/>
        <path d="M23.793 59.012c8.652 4.56 22.81 4.56 31.464 0 8.653-4.56 8.653-12.024 0-16.585-8.653-4.56-22.812-4.56-31.464 0-8.653 4.56-8.653 12.024 0 16.585" fill="#CBD6E3"/>
        <path d="M23.793 59.012c8.652 4.56 22.81 4.56 31.464 0 8.653-4.56 8.653-12.024 0-16.585-8.653-4.56-22.812-4.56-31.464 0-8.653 4.56-8.653 12.024 0 16.585z" stroke="#33475C" stroke-linecap="round" stroke-linejoin="round"/>
        <path d="M23.793 59.012c8.652 4.56 22.81 4.56 31.464 0 8.653-4.56 8.653-12.024 0-16.585-8.653-4.56-22.812-4.56-31.464 0-8.653 4.56-8.653 12.024 0 16.585z" stroke="#33475C" stroke-linecap="round" stroke-linejoin="round"/>
        <path d="M21.57 61.085c-.655-.38-1.265-.775-1.833-1.184l-.12.057 14.856 16.17h.113c.223.49.644.957 1.306 1.338 1.998 1.153 5.267 1.153 7.266 0 .66-.382 1.082-.847 1.306-1.337h.112l14.856-16.17-.12-.057c-.568.41-1.178.806-1.834 1.185-9.874 5.7-26.033 5.7-35.907 0" fill="#9DB2C9"/>
        <path d="M21.57 61.085c-.655-.38-1.265-.775-1.833-1.184l-.12.057 14.856 16.17h.113c.223.49.644.957 1.306 1.338 1.998 1.153 5.267 1.153 7.266 0 .66-.382 1.082-.847 1.306-1.337h.112l14.856-16.17-.12-.057c-.568.41-1.178.806-1.834 1.185-9.874 5.7-26.033 5.7-35.907 0z" stroke="#33475C" stroke-linecap="round" stroke-linejoin="round"/>
        <path d="M44.576 76.128h-.113c-.222.49-.644.955-1.305 1.337-2 1.154-5.268 1.154-7.266 0-.66-.382-1.083-.847-1.307-1.337h-.11l-.08-.086v9.78c0 .76.498 1.52 1.497 2.096 1.998 1.154 5.267 1.154 7.266 0 .998-.577 1.498-1.336 1.498-2.097v-9.778l-.08.086z" fill="#CBD6E3"/>
        <path d="M44.576 76.128h-.113c-.222.49-.644.955-1.305 1.337-2 1.154-5.268 1.154-7.266 0-.66-.382-1.083-.847-1.307-1.337h-.11l-.08-.086v9.78c0 .76.498 1.52 1.497 2.096 1.998 1.154 5.267 1.154 7.266 0 .998-.577 1.498-1.336 1.498-2.097v-9.778l-.08.086z" stroke="#33475C" stroke-linecap="round" stroke-linejoin="round"/>
        <path d="M44.887 13.71c0 5.364-4.347 9.712-9.71 9.712s-9.71-4.348-9.71-9.71c0-5.364 4.347-9.712 9.71-9.712s9.71 4.348 9.71 9.71zm-20.94 10.566c0 4.454-3.61 8.065-8.064 8.065-4.454 0-8.063-3.61-8.063-8.064 0-4.453 3.61-8.064 8.063-8.064 4.454 0 8.064 3.61 8.064 8.064zm34.189-6.322c0 2.853-2.314 5.166-5.166 5.166-2.854 0-5.167-2.313-5.167-5.166s2.313-5.166 5.167-5.166c2.852 0 5.166 2.313 5.166 5.166zm4.924 14.39c0 3.363-2.727 6.09-6.09 6.09s-6.09-2.727-6.09-6.09c0-3.364 2.727-6.09 6.09-6.09s6.09 2.726 6.09 6.09zm-15.257.794c0 3.74-3.03 6.77-6.77 6.77-3.738 0-6.77-3.03-6.77-6.77 0-3.74 3.032-6.77 6.77-6.77 3.74 0 6.77 3.03 6.77 6.77zM31.5 35.95c0 2.713-2.198 4.913-4.912 4.913-2.712 0-4.91-2.2-4.91-4.912 0-2.712 2.198-4.91 4.91-4.91 2.714 0 4.912 2.198 4.912 4.91zm11.723 13.142c0 3.854-3.124 6.977-6.977 6.977s-6.977-3.124-6.977-6.978c0-3.853 3.123-6.976 6.976-6.976 3.853 0 6.977 3.123 6.977 6.976zm10.737-4.814c0 2.255-1.828 4.083-4.084 4.083-2.255 0-4.083-1.827-4.083-4.082s1.828-4.084 4.083-4.084c2.256 0 4.084 1.83 4.084 4.084z" stroke="#FFF" stroke-width="8"/>
        <path d="M44.887 13.71c0 5.364-4.347 9.712-9.71 9.712s-9.71-4.348-9.71-9.71c0-5.364 4.347-9.712 9.71-9.712s9.71 4.348 9.71 9.71" fill="#506E91"/>
        <path d="M23.947 24.276c0 4.454-3.61 8.065-8.064 8.065-4.454 0-8.063-3.61-8.063-8.064 0-4.453 3.61-8.064 8.063-8.064 4.454 0 8.064 3.61 8.064 8.064" fill="#6976D4"/>
        <path d="M58.136 17.954c0 2.853-2.314 5.166-5.166 5.166-2.854 0-5.167-2.313-5.167-5.166s2.313-5.166 5.167-5.166c2.852 0 5.166 2.313 5.166 5.166" fill="#BDEEE8"/>
        <path d="M63.06 32.344c0 3.363-2.727 6.09-6.09 6.09s-6.09-2.727-6.09-6.09c0-3.364 2.727-6.09 6.09-6.09s6.09 2.726 6.09 6.09" fill="#01A4BF"/>
        <path d="M47.803 33.138c0 3.74-3.03 6.77-6.77 6.77-3.738 0-6.77-3.03-6.77-6.77 0-3.74 3.032-6.77 6.77-6.77 3.74 0 6.77 3.03 6.77 6.77" fill="#FF7A52"/>
        <path d="M31.5 35.95c0 2.713-2.198 4.913-4.912 4.913-2.712 0-4.91-2.2-4.91-4.912 0-2.712 2.198-4.91 4.91-4.91 2.714 0 4.912 2.198 4.912 4.91" fill="#D9DCF4"/>
        <path d="M43.223 49.092c0 3.854-3.124 6.977-6.977 6.977s-6.977-3.124-6.977-6.978c0-3.853 3.123-6.976 6.976-6.976 3.853 0 6.977 3.123 6.977 6.976" fill="#40CEBB"/>
        <path d="M53.96 44.278c0 2.255-1.828 4.083-4.084 4.083-2.255 0-4.083-1.827-4.083-4.082s1.828-4.084 4.083-4.084c2.256 0 4.084 1.83 4.084 4.084" fill="#BDE8EF"/>
    </g>
</svg>
