<svg width="230" height="215" viewBox="0 0 230 215" xmlns="http://www.w3.org/2000/svg" xmlns:xlink="http://www.w3.org/1999/xlink">
    <defs>
        <path id="a" d="M67.674.358H.605v160.708h67.069z"/>
        <path d="M13.89.829c.083.514.11 1.039.075 1.569-.342 5.28-6.569 9.179-13.926 8.735V.83H13.89z" id="c"/>
        <path d="M.542 11.097c.138.011.276.022.415.031 7.393.478 13.665-3.43 14.008-8.73.045-.702-.016-1.392-.172-2.064H.542v10.763z" id="e"/>
        <path id="g" d="M.12.422h8.9v6.855H.12z"/>
        <path id="i" d="M.618.926h9.903v7.852H.618z"/>
    </defs>
    <g fill="none" fill-rule="evenodd">
        <g transform="translate(41 -.358)">
            <mask id="b" fill="#fff">
                <use xlink:href="#a"/>
            </mask>
            <path d="M12.463 156.757c.074.03.146.065.218.104.67.376 1.726.213 2.901-.452l42.215-23.88c3.218-1.822 5.91-6.484 5.876-10.18l-.989-111.037c-.012-1.397-.424-2.409-1.13-2.775-.12-.062-.23-.134-.33-.215l-6.338-3.576c-.059-.033-.116-.07-.172-.109-.672-.476-1.776-.334-3.029.39L10.533 28.785c-3.214 1.856-5.928 6.558-5.928 10.268V150.09c0 1.246.332 2.215.911 2.66l.021.017.06.037c.045.03.093.058.142.083.037.018.075.038.111.058l6.613 3.813zm1.053 4.31c-.884 0-1.725-.188-2.497-.563-.11-.039-.218-.088-.322-.147L3.9 156.438c-.157-.08-.309-.168-.458-.264l-.144-.084c-.18-.102-.338-.23-.473-.376-1.434-1.245-2.22-3.228-2.22-5.625V39.053c0-5.133 3.482-11.165 7.928-13.732L49.685 1.563c2.623-1.515 5.257-1.604 7.247-.255l6.537 3.69c.098.054.19.117.276.186 1.85 1.141 2.914 3.335 2.94 6.093l.988 111.035c.046 5.147-3.428 11.163-7.906 13.697L17.552 159.89c-1.38.782-2.753 1.176-4.036 1.176z" fill="#33475C" fill-rule="nonzero" mask="url(#b)"/>
        </g>
        <path d="M122.273 85.254c-4-2.31-10.546-2.31-14.547 0L2.986 145.725c-4 2.31-3.98 6.054.047 8.32l104.648 58.898c4.026 2.265 10.613 2.265 14.638 0l104.648-58.899c4.026-2.266 4.046-6.009.046-8.319l-104.74-60.47z" fill-opacity=".2" fill="#6976D4" fill-rule="nonzero"/>
        <path d="M193.084 83.16c-.276 0-.5-.225-.5-.5V53.145c0-5.355-3.772-11.889-8.41-14.567L144.15 15.471c-2.142-1.236-4.134-1.448-5.616-.594-1.479.854-2.294 2.687-2.294 5.161v25.18c0 .275-.223.5-.5.5-.276 0-.5-.225-.5-.5v-25.18c0-2.846.992-4.987 2.794-6.027s4.152-.83 6.616.594l40.024 23.108c4.913 2.837 8.91 9.76 8.91 15.433V82.66c0 .276-.224.5-.5.5" fill="#33475C" fill-rule="nonzero"/>
        <path d="M188.273 109.337c-1.271 0-2.665-.417-4.1-1.245L94.928 56.566c-.24-.138-.321-.444-.182-.683.137-.239.445-.32.682-.183l89.247 51.528c2.14 1.235 4.137 1.447 5.617.592 1.479-.854 2.294-2.686 2.294-5.16V77.48c0-.276.223-.5.5-.5.276 0 .5.224.5.5v25.18c0 2.846-.993 4.986-2.794 6.026-.754.435-1.605.651-2.518.651" fill="#33475C" fill-rule="nonzero"/>
        <path d="M174.059 60.13c0-1.1.779-1.55 1.731-1l35.413 20.445c.952.55 1.731 1.9 1.731 3v18c0 1.1-.779 1.55-1.731 1L175.79 81.129c-.952-.55-1.731-1.9-1.731-3v-18z" fill="#B2BCCB" fill-rule="nonzero"/>
        <path d="M171.059 62.388c0-1.1.779-1.55 1.731-1l35.413 20.445c.952.55 1.731 1.9 1.731 3v18c0 1.1-.779 1.55-1.731 1L172.79 83.388c-.952-.55-1.731-1.9-1.731-3v-18z" fill="#FEF9F0" fill-rule="nonzero"/>
        <path d="M172.023 61.654c-.08 0-.147.016-.205.048-.164.096-.26.346-.26.687v18c0 .927.68 2.103 1.483 2.567l35.412 20.444c.296.171.559.212.722.118.164-.095.259-.345.259-.684v-18c0-.929-.68-2.105-1.481-2.568L172.54 61.821c-.193-.11-.372-.168-.518-.168m36.952 42.913c-.326 0-.677-.1-1.022-.3L172.54 83.821c-1.112-.642-1.982-2.148-1.982-3.433v-18c0-.708.277-1.274.759-1.552.482-.279 1.11-.233 1.723.12L208.453 81.4c1.11.641 1.98 2.15 1.98 3.433v18c0 .709-.275 1.273-.758 1.552-.21.121-.448.181-.7.181" fill="#34475B" fill-rule="nonzero"/>
        <path d="M197.189 91.316c.613 0 1.21-.319 1.539-.888.49-.849.199-1.934-.65-2.424l-9.627-5.56c-.851-.492-1.935-.199-2.426.65-.49.85-.2 1.936.65 2.425l9.628 5.558c.28.162.585.24.886.24" fill="#FBE1B2" fill-rule="nonzero"/>
        <path d="M187.564 82.705c-.11 0-.222.015-.331.044-.33.088-.605.3-.775.596-.351.61-.142 1.39.467 1.741l9.628 5.558c.595.344 1.405.12 1.742-.466.17-.295.215-.639.127-.968-.087-.329-.3-.603-.594-.774l-9.627-5.558c-.198-.114-.416-.173-.637-.173m9.625 9.111c-.397 0-.79-.106-1.136-.306l-9.628-5.557c-1.086-.627-1.46-2.02-.834-3.108.306-.528.796-.904 1.382-1.06.588-.158 1.2-.079 1.729.227l9.626 5.558c.526.304.903.794 1.06 1.382.157.586.077 1.2-.227 1.726-.406.702-1.161 1.138-1.972 1.138" fill="#34475B" fill-rule="nonzero"/>
        <path d="M205.98 89.392c.613 0 1.21-.318 1.539-.888.49-.849.2-1.935-.65-2.425l-18.418-10.635c-.848-.492-1.935-.199-2.426.65-.49.85-.2 1.935.65 2.425l18.419 10.635c.28.161.585.238.886.238" fill="#FBE1B2" fill-rule="nonzero"/>
        <path d="M187.566 75.705c-.11 0-.221.015-.33.043-.33.088-.607.3-.778.597-.351.608-.141 1.39.467 1.741l18.419 10.635c.589.341 1.404.12 1.743-.467.169-.295.215-.639.126-.968-.087-.329-.298-.603-.593-.774L188.2 75.877c-.196-.114-.413-.172-.634-.172m18.414 14.187c-.397 0-.791-.105-1.136-.306l-18.42-10.634c-1.085-.626-1.46-2.02-.833-3.107.307-.529.799-.906 1.388-1.063.587-.156 1.196-.075 1.723.23l18.418 10.634c.526.304.903.794 1.06 1.382.157.586.076 1.2-.228 1.726-.406.702-1.161 1.138-1.972 1.138" fill="#34475B" fill-rule="nonzero"/>
        <path d="M183.4 77.902c0 3.439-2.091 5.02-4.671 3.531-2.58-1.489-4.67-5.485-4.67-8.924 0-3.439 2.09-5.02 4.67-3.531 2.58 1.489 4.67 5.485 4.67 8.924" fill="#FBE1B2" fill-rule="nonzero"/>
        <path d="M176.873 68.92c-.347 0-.667.081-.95.245-.867.5-1.364 1.72-1.364 3.344 0 3.274 1.982 7.083 4.42 8.491.963.556 1.871.642 2.556.246.867-.5 1.364-1.72 1.364-3.344 0-3.275-1.983-7.084-4.42-8.49-.565-.327-1.112-.492-1.606-.492m3.713 13.573c-.668 0-1.384-.21-2.108-.627-2.712-1.567-4.919-5.764-4.919-9.357 0-1.992.68-3.527 1.864-4.21 1.011-.583 2.272-.496 3.555.246 2.713 1.566 4.921 5.764 4.921 9.357 0 1.992-.679 3.526-1.864 4.21-.44.255-.93.381-1.449.381" fill="#34475B" fill-rule="nonzero"/>
        <path d="M179.954 79.038c-.47 0-.972-.145-1.476-.436-.912-.526-1.758-1.482-2.386-2.692-.127-.245-.032-.547.214-.674.245-.125.545-.032.674.214.534 1.027 1.262 1.86 1.999 2.286.372.216 1.08.513 1.635.08.215-.171.53-.131.701.088.17.218.131.532-.088.7-.37.29-.804.434-1.273.434M178.091 73.024c0 .436-.265.636-.592.447-.326-.188-.592-.695-.592-1.13 0-.436.266-.636.592-.447.327.188.592.694.592 1.13M180.55 74.444c0 .435-.265.635-.592.447-.326-.19-.592-.696-.592-1.132 0-.434.266-.635.592-.447.327.19.592.695.592 1.132" fill="#34475B" fill-rule="nonzero"/>
        <path d="M120.19 159.355c-.085 0-.171-.021-.25-.067l-14.785-8.536c-1.313-.758-2.036-1.8-2.036-2.933 0-1.133.723-2.175 2.036-2.933l26.006-15.014c2.212-1.278 4.08-4.514 4.08-7.067v-68.16c0-.275.223-.5.5-.5.276 0 .5.225.5.5v68.16c0 2.916-2.055 6.474-4.58 7.933l-26.006 15.014c-.99.572-1.536 1.306-1.536 2.067 0 .76.546 1.495 1.536 2.067l14.785 8.536c.239.138.32.444.183.683-.092.16-.261.25-.433.25" fill="#33475C" fill-rule="nonzero"/>
        <path d="M119 28.475c0-1.1.78-1.55 1.731-1l35.413 20.445c.952.55 1.731 1.9 1.731 3v18c0 1.1-.779 1.55-1.73 1L120.73 49.475c-.952-.55-1.73-1.9-1.73-3v-18z" fill="#B2BCCB" fill-rule="nonzero"/>
        <path d="M116 30.734c0-1.1.78-1.55 1.731-1l35.413 20.445c.952.55 1.731 1.9 1.731 3v18c0 1.1-.779 1.55-1.73 1L117.73 51.734c-.952-.55-1.73-1.9-1.73-3v-18z" fill="#FCECF1" fill-rule="nonzero"/>
        <path d="M116.964 29.999c-.078 0-.147.016-.205.049-.164.095-.259.345-.259.686v18c0 .928.68 2.103 1.482 2.567l35.412 20.445c.294.17.554.213.722.119.164-.095.26-.345.26-.686v-18c0-.928-.68-2.103-1.482-2.567l-35.412-20.445c-.193-.111-.372-.168-.518-.168m36.952 42.914c-.326 0-.677-.101-1.022-.301l-35.412-20.445c-1.112-.642-1.982-2.15-1.982-3.433v-18c0-.708.277-1.274.76-1.552.481-.278 1.11-.234 1.722.119l35.412 20.445c1.111.642 1.981 2.149 1.981 3.433v18c0 .708-.276 1.274-.759 1.552-.21.12-.448.182-.7.182" fill="#34475B" fill-rule="nonzero"/>
        <path d="M142.13 59.662c.613 0 1.21-.318 1.54-.888.49-.85.198-1.935-.65-2.425l-9.628-5.56c-.85-.491-1.935-.198-2.426.65-.49.85-.199 1.936.65 2.426l9.627 5.559c.281.16.586.238.887.238" fill="#F9A9BD" fill-rule="nonzero"/>
        <path d="M132.505 51.05c-.11 0-.222.016-.33.045-.33.088-.606.3-.776.596-.17.294-.215.638-.127.966.087.33.3.604.594.775l9.627 5.558c.593.342 1.405.12 1.743-.466.17-.295.215-.64.127-.968-.087-.33-.299-.604-.594-.774l-9.627-5.56c-.198-.113-.415-.171-.637-.171m9.625 9.11c-.397 0-.79-.105-1.137-.304l-9.627-5.56c-.526-.303-.903-.793-1.06-1.38-.157-.587-.077-1.2.227-1.727.305-.527.795-.903 1.381-1.061.588-.16 1.2-.077 1.73.229l9.625 5.558c.526.303.903.794 1.06 1.38.157.588.077 1.2-.227 1.728-.406.702-1.16 1.138-1.972 1.138" fill="#34475B" fill-rule="nonzero"/>
        <path d="M150.921 57.738c.613 0 1.21-.318 1.54-.888.49-.85.198-1.935-.65-2.425L133.392 43.79c-.849-.492-1.935-.2-2.426.649-.49.849-.199 1.935.65 2.425l18.42 10.635c.28.16.584.238.885.238" fill="#F9A9BD" fill-rule="nonzero"/>
        <path d="M132.506 44.05c-.11 0-.222.016-.332.045-.329.088-.605.3-.775.595-.17.295-.215.638-.127.967.088.33.3.604.594.775l18.42 10.634c.586.342 1.402.119 1.741-.466.352-.61.142-1.391-.466-1.742l-18.419-10.635c-.197-.114-.415-.172-.636-.172m18.415 14.187c-.397 0-.79-.106-1.136-.306l-18.419-10.634c-.526-.304-.903-.794-1.06-1.382-.157-.587-.077-1.2.227-1.726.305-.527.795-.903 1.382-1.061.587-.16 1.202-.077 1.728.229l18.418 10.633c1.086.628 1.46 2.022.832 3.109-.406.7-1.16 1.138-1.972 1.138" fill="#34475B" fill-rule="nonzero"/>
        <path d="M128.341 46.248c0 3.439-2.092 5.02-4.67 3.53-2.58-1.488-4.67-5.484-4.67-8.923 0-3.44 2.09-5.02 4.67-3.531 2.578 1.489 4.67 5.485 4.67 8.924" fill="#F7A7BB" fill-rule="nonzero"/>
        <path d="M121.815 37.266c-.347 0-.667.08-.95.245-.867.5-1.364 1.719-1.364 3.344 0 3.274 1.982 7.083 4.419 8.49.962.555 1.869.642 2.556.247.868-.501 1.365-1.72 1.365-3.344 0-3.274-1.983-7.083-4.421-8.491-.565-.326-1.111-.491-1.605-.491m3.713 13.573c-.668 0-1.385-.21-2.108-.627-2.712-1.567-4.92-5.764-4.92-9.357 0-1.992.68-3.527 1.865-4.211 1.013-.582 2.273-.494 3.555.247 2.714 1.567 4.92 5.764 4.92 9.357 0 1.99-.678 3.526-1.864 4.21-.44.255-.93.38-1.448.38" fill="#34475B" fill-rule="nonzero"/>
        <path d="M124.896 47.383c-.47 0-.973-.145-1.476-.436-.911-.525-1.758-1.481-2.386-2.692-.127-.245-.032-.547.214-.674.247-.125.544-.032.674.214.533 1.027 1.26 1.861 1.998 2.286.374.216 1.08.511 1.636.08.215-.169.53-.131.7.089.17.217.13.532-.087.701-.371.288-.805.432-1.273.432M123.033 41.369c0 .436-.265.636-.592.448-.327-.19-.592-.695-.592-1.131 0-.436.265-.636.592-.447.327.188.592.694.592 1.13M125.492 42.789c0 .436-.265.636-.592.447-.326-.188-.592-.695-.592-1.13 0-.436.266-.636.592-.447.327.188.592.694.592 1.13" fill="#34475B" fill-rule="nonzero"/>
        <path d="M138.153 79.56c0 1.334-1.08 2.414-2.412 2.414-1.333 0-2.413-1.08-2.413-2.413 0-1.333 1.08-2.413 2.413-2.413 1.332 0 2.412 1.08 2.412 2.413M138.153 104.56c0 1.334-1.08 2.414-2.412 2.414-1.333 0-2.413-1.08-2.413-2.413 0-1.333 1.08-2.413 2.413-2.413 1.332 0 2.412 1.08 2.412 2.413M35.973 78.254c0 1.333-1.08 2.413-2.412 2.413-1.333 0-2.413-1.08-2.413-2.413 0-1.333 1.08-2.413 2.413-2.413 1.332 0 2.412 1.08 2.412 2.413M35.973 116.254c0 1.333-1.08 2.413-2.412 2.413-1.333 0-2.413-1.08-2.413-2.413 0-1.333 1.08-2.413 2.413-2.413 1.332 0 2.412 1.08 2.412 2.413M136.438 127.185c0 1.333-1.08 2.413-2.413 2.413-1.332 0-2.412-1.08-2.412-2.413 0-1.333 1.08-2.413 2.412-2.413 1.333 0 2.413 1.08 2.413 2.413M118.153 68.175c0 1.333-1.08 2.413-2.412 2.413-1.333 0-2.413-1.08-2.413-2.413 0-1.333 1.08-2.413 2.413-2.413 1.332 0 2.412 1.08 2.412 2.413M158.153 91.168c0 1.333-1.08 2.413-2.412 2.413-1.333 0-2.413-1.08-2.413-2.413 0-1.333 1.08-2.413 2.413-2.413 1.332 0 2.412 1.08 2.412 2.413M178.153 102.642c0 1.333-1.08 2.413-2.412 2.413-1.333 0-2.413-1.08-2.413-2.413 0-1.333 1.08-2.413 2.413-2.413 1.332 0 2.412 1.08 2.412 2.413" fill="#33475C" fill-rule="nonzero"/>
        <path d="M33.107 139.259l-3.46 1.998c-.762.439-1.183 1-1.186 1.58-.002.58.413 1.145 1.169 1.593l.789.467c.752.445 1.439.539 1.929.259.489-.28.759-.916.759-1.793v-4.104zm-1.39 7.056c-.565 0-1.18-.187-1.807-.558l-.79-.467c-1.074-.635-1.663-1.51-1.66-2.458.006-.95.605-1.817 1.687-2.442l3.96-2.286V57.21c0-2.366 1.668-5.25 3.718-6.43l10.782-6.206c.236-.14.545-.056.683.184.137.239.055.544-.185.682l-10.782 6.207c-1.743 1.004-3.216 3.55-3.216 5.563v80.316l48.92-28.245c.24-.138.545-.057.684.184.138.239.056.544-.183.683L34.107 138.68v4.682c0 1.252-.448 2.197-1.264 2.662-.34.194-.72.29-1.126.29z" fill="#33475C" fill-rule="nonzero"/>
        <path d="M99.443 13.804l4.043-7.65-6.616-3.733c-1.286-.911-3.138-.892-5.185.289L50.534 26.469c-3.811 2.2-6.93 7.6-6.93 12v111.035c0 1.985.643 3.44 1.694 4.247l-.002.022.194.112c.116.077.236.146.36.208l6.847 3.946 3.047-7.14-.264-.112 37.302-21.103c3.829-2.166 6.93-7.538 6.89-11.938l-.931-104.678.702.736z" fill="#CBD6E3" fill-rule="nonzero"/>
        <path d="M45.66 153.406l.08.046c.124.08.227.14.334.193l6.385 3.679 2.647-6.205c-.073-.083-.12-.19-.125-.304-.01-.19.087-.37.253-.463l37.302-21.103c3.697-2.092 6.676-7.25 6.638-11.5L98.24 13.073c-.002-.205.122-.391.313-.468.188-.077.407-.03.549.118l.223.234 3.49-6.605-6.192-3.495c-1.213-.857-2.907-.742-4.69.287l-41.15 23.759c-3.683 2.127-6.68 7.315-6.68 11.567v111.035c0 1.74.534 3.109 1.499 3.85.02.016.039.033.057.052m7.037 5.133c-.087 0-.173-.022-.25-.067l-6.846-3.946c-.115-.056-.253-.136-.386-.224l-.17-.096c-.062-.036-.114-.085-.155-.141-1.152-.948-1.785-2.561-1.785-4.561V38.469c0-4.57 3.22-10.147 7.179-12.433l41.15-23.76c2.136-1.232 4.222-1.328 5.725-.264l6.573 3.707c.236.133.323.43.197.669l-4.043 7.649c-.076.143-.215.24-.374.262-.09.013-.18 0-.26-.033l.922 103.475c.04 4.574-3.165 10.126-7.146 12.378l-36.785 20.81c-.004.058-.017.113-.04.166l-3.046 7.14c-.057.132-.166.233-.302.278-.051.018-.104.026-.158.026" fill="#33475C" fill-rule="nonzero"/>
        <path d="M105.684 10.71c-.039-4.4-3.188-6.2-6.999-4L57.534 30.47c-3.811 2.2-6.929 7.6-6.929 12v111.034c0 4.4 3.134 6.227 6.963 4.061l42.214-23.88c3.829-2.167 6.93-7.539 6.891-11.939l-.989-111.036z" fill="#E4EBEF" fill-rule="nonzero"/>
        <path d="M101.769 6.27c-.862 0-1.828.292-2.834.874L57.784 30.902c-3.683 2.126-6.679 7.315-6.679 11.567v111.035c0 1.943.639 3.385 1.798 4.061 1.16.676 2.729.521 4.419-.435l42.214-23.88c3.697-2.093 6.675-7.252 6.637-11.5l-.989-111.036c-.018-1.943-.668-3.379-1.833-4.045-.469-.267-1.002-.4-1.582-.4M54.511 158.981c-.766 0-1.48-.184-2.112-.552-1.48-.863-2.294-2.612-2.294-4.925V42.47c0-4.57 3.221-10.148 7.179-12.433L98.435 6.277c2.002-1.156 3.924-1.327 5.412-.476 1.486.85 2.317 2.591 2.337 4.905l.989 111.035c.041 4.573-3.165 10.126-7.145 12.378L57.814 158c-1.152.652-2.275.981-3.303.981" fill="#33475C" fill-rule="nonzero"/>
        <path d="M83.324 25.024l-9.298 5.369" fill="#E4EBEF" fill-rule="nonzero"/>
        <path d="M74.027 31.392c-.346 0-.682-.179-.867-.5-.277-.478-.112-1.09.366-1.366l9.298-5.369c.475-.277 1.09-.113 1.366.366.276.478.112 1.09-.366 1.367l-9.298 5.368c-.157.091-.33.134-.5.134" fill="#33475C" fill-rule="nonzero"/>
        <path d="M47.366 56.005v4.82" fill="#E4EBEF" fill-rule="nonzero"/>
        <path d="M47.366 61.325c-.276 0-.5-.224-.5-.5v-4.82c0-.277.224-.5.5-.5s.5.223.5.5v4.82c0 .276-.224.5-.5.5" fill="#33475C" fill-rule="nonzero"/>
        <path d="M47.366 64.637v4.821" fill="#E4EBEF" fill-rule="nonzero"/>
        <path d="M47.366 69.958c-.276 0-.5-.224-.5-.5v-4.82c0-.277.224-.5.5-.5s.5.223.5.5v4.82c0 .276-.224.5-.5.5" fill="#33475C" fill-rule="nonzero"/>
        <path fill="#FFF" fill-rule="nonzero" d="M50.605 142.799l55.834-31.586-.826-89.797-55.008 31.758z"/>
        <path d="M51.105 53.463v88.479l54.83-31.02-.814-88.645-54.016 31.186zm-.5 89.836c-.087 0-.174-.023-.252-.067-.153-.09-.248-.255-.248-.433V53.174c0-.178.096-.343.25-.433l55.008-31.758c.154-.09.344-.09.498-.001.154.088.25.252.252.43l.826 89.797c.002.182-.096.35-.254.44L50.85 143.234c-.076.044-.161.065-.246.065z" fill="#33475C" fill-rule="nonzero"/>
        <path d="M96.316 38.851c0-1.1-.78-1.55-1.732-1L59.172 58.296c-.953.55-1.732 1.9-1.732 3v18c0 1.1.779 1.55 1.732 1l35.412-20.445c.953-.55 1.732-1.9 1.732-3v-18z" fill="#B2BCCB" fill-rule="nonzero"/>
        <path d="M99.604 40.997c0-1.1-.78-1.55-1.732-1L62.46 60.442c-.953.55-1.732 1.9-1.732 3v18c0 1.1.779 1.55 1.732 1l35.412-20.445c.953-.55 1.732-1.9 1.732-3v-18z" fill="#FFF0ED" fill-rule="nonzero"/>
        <path d="M98.64 40.262c-.146 0-.326.057-.519.168L62.71 60.875c-.803.464-1.482 1.639-1.482 2.567v18c0 .34.095.59.259.686.165.094.428.05.723-.12l35.411-20.444c.804-.464 1.483-1.64 1.483-2.567v-18c0-.34-.095-.59-.259-.686-.058-.032-.127-.05-.205-.05M61.688 83.177c-.253 0-.491-.061-.701-.183-.483-.278-.759-.843-.759-1.551v-18c0-1.284.871-2.792 1.982-3.433l35.411-20.445c.612-.354 1.241-.398 1.724-.118.482.278.759.843.759 1.55v18c0 1.285-.871 2.792-1.983 3.434L62.71 82.875c-.345.2-.696.3-1.022.3" fill="#34475B" fill-rule="nonzero"/>
        <path d="M77.375 69.232c-.614 0-1.21-.32-1.54-.888-.489-.85-.199-1.935.65-2.425l9.628-5.56c.851-.491 1.934-.198 2.426.65.49.85.2 1.936-.65 2.426l-9.628 5.559c-.28.16-.585.238-.886.238" fill="#FDBBAB" fill-rule="nonzero"/>
        <path d="M86.998 60.622c-.216 0-.435.055-.634.17l-9.629 5.56c-.608.351-.818 1.132-.466 1.742.337.584 1.15.81 1.742.466l9.628-5.559c.61-.35.818-1.132.466-1.742-.236-.408-.667-.637-1.107-.637m-9.623 9.11c-.81 0-1.565-.437-1.973-1.138-.627-1.088-.253-2.482.833-3.109l9.628-5.558c1.081-.629 2.478-.255 3.11.832.626 1.088.252 2.482-.834 3.11l-9.628 5.557c-.347.2-.74.305-1.136.305" fill="#34475B" fill-rule="nonzero"/>
        <path d="M77.375 62.018c-.614 0-1.21-.319-1.54-.888-.489-.849-.199-1.935.65-2.425l18.42-10.635c.847-.492 1.934-.199 2.425.65.49.85.2 1.935-.65 2.425L78.261 61.78c-.28.161-.585.238-.886.238" fill="#FDBBAB" fill-rule="nonzero"/>
        <path d="M95.79 48.331c-.222 0-.439.058-.635.172l-18.42 10.635c-.608.351-.817 1.133-.466 1.742.338.586 1.152.807 1.742.467l18.42-10.635c.608-.35.818-1.133.466-1.742-.17-.296-.448-.508-.779-.596-.108-.029-.218-.043-.328-.043M77.375 62.518c-.81 0-1.564-.436-1.972-1.137-.628-1.089-.254-2.483.832-3.109l18.42-10.635c.523-.304 1.133-.384 1.721-.229.59.157 1.081.534 1.387 1.062.627 1.088.253 2.482-.833 3.108L78.511 62.213c-.344.2-.739.305-1.135.305" fill="#34475B" fill-rule="nonzero"/>
        <path d="M64.013 70.382c0 3.439 2.091 5.02 4.67 3.531 2.58-1.489 4.671-5.485 4.671-8.924 0-3.439-2.09-5.02-4.67-3.531-2.58 1.489-4.67 5.485-4.67 8.924" fill="#FDBBAB" fill-rule="nonzero"/>
        <path d="M70.538 61.4c-.493 0-1.04.165-1.605.491-2.438 1.407-4.42 5.217-4.42 8.491 0 1.624.497 2.844 1.364 3.344.687.397 1.595.31 2.556-.246 2.438-1.408 4.42-5.216 4.42-8.49 0-1.626-.496-2.844-1.363-3.345-.283-.163-.605-.245-.951-.245m-3.713 13.573c-.517 0-1.007-.126-1.448-.38-1.186-.685-1.864-2.219-1.864-4.21 0-3.594 2.206-7.792 4.92-9.358 1.282-.74 2.546-.829 3.556-.246 1.184.684 1.864 2.22 1.864 4.21 0 3.593-2.209 7.79-4.92 9.357-.724.417-1.44.627-2.108.627" fill="#34475B" fill-rule="nonzero"/>
        <path d="M67.458 71.517c-.468 0-.903-.144-1.274-.432-.218-.169-.258-.483-.088-.7.167-.22.484-.259.701-.09.555.431 1.263.136 1.637-.079.738-.427 1.465-1.26 1.997-2.286.127-.246.43-.34.673-.214.246.127.342.428.215.674-.626 1.208-1.473 2.165-2.385 2.692-.503.29-1.006.435-1.476.435M69.322 65.504c0 .436.265.636.59.447.328-.188.593-.695.593-1.13 0-.436-.265-.636-.592-.448-.326.189-.591.695-.591 1.13M66.862 66.923c0 .436.266.636.592.447.327-.189.592-.695.592-1.13 0-.436-.265-.635-.592-.448-.326.19-.592.695-.592 1.131" fill="#34475B" fill-rule="nonzero"/>
        <path d="M96.316 78.851c0-1.1-.78-1.55-1.732-1L59.172 98.296c-.953.55-1.732 1.9-1.732 3v18c0 1.1.779 1.55 1.732 1l35.412-20.445c.953-.55 1.732-1.9 1.732-3v-18z" fill="#B2BCCB" fill-rule="nonzero"/>
        <path d="M99.604 80.997c0-1.1-.78-1.55-1.732-1L62.46 100.442c-.953.55-1.732 1.9-1.732 3v18c0 1.1.779 1.55 1.732 1l35.412-20.445c.953-.55 1.732-1.9 1.732-3v-18z" fill="#FFF0ED" fill-rule="nonzero"/>
        <path d="M98.64 80.262c-.146 0-.326.057-.519.168L62.71 100.875c-.803.464-1.482 1.639-1.482 2.567v18c0 .34.095.59.259.686.165.095.428.05.723-.12l35.411-20.444c.804-.464 1.483-1.64 1.483-2.567v-18c0-.34-.095-.59-.259-.686-.058-.032-.127-.05-.205-.05m-36.952 42.915c-.253 0-.491-.061-.701-.183-.483-.278-.759-.843-.759-1.551v-18c0-1.284.871-2.792 1.982-3.433l35.411-20.445c.612-.354 1.241-.4 1.724-.118.482.278.759.843.759 1.55v18c0 1.285-.871 2.792-1.983 3.434L62.71 122.875c-.345.199-.696.3-1.022.3" fill="#34475B" fill-rule="nonzero"/>
        <path d="M77.375 109.232c-.614 0-1.21-.32-1.54-.888-.489-.85-.199-1.935.65-2.425l9.628-5.56c.851-.491 1.934-.198 2.426.65.49.85.2 1.936-.65 2.426l-9.628 5.559c-.28.16-.585.238-.886.238" fill="#FDBBAB" fill-rule="nonzero"/>
        <path d="M86.998 100.622c-.216 0-.435.055-.634.17l-9.629 5.56c-.608.351-.818 1.132-.466 1.742.337.584 1.15.81 1.742.466l9.628-5.559c.61-.35.818-1.132.466-1.742-.236-.408-.667-.637-1.107-.637m-9.623 9.11c-.81 0-1.565-.437-1.973-1.138-.627-1.088-.253-2.482.833-3.109l9.628-5.558c1.081-.628 2.478-.255 3.11.832.626 1.088.252 2.482-.834 3.11l-9.628 5.557c-.347.2-.74.305-1.136.305" fill="#34475B" fill-rule="nonzero"/>
        <path d="M77.375 102.018c-.614 0-1.21-.319-1.54-.888-.489-.849-.199-1.935.65-2.425l18.42-10.635c.847-.492 1.934-.199 2.425.65.49.85.2 1.935-.65 2.425L78.261 101.78c-.28.161-.585.238-.886.238" fill="#FDBBAB" fill-rule="nonzero"/>
        <path d="M95.79 88.331c-.222 0-.439.058-.635.172l-18.42 10.635c-.608.351-.817 1.133-.466 1.742.338.585 1.152.808 1.742.467l18.42-10.635c.608-.35.818-1.133.466-1.742-.17-.296-.448-.508-.779-.596-.108-.029-.218-.043-.328-.043m-18.415 14.187c-.81 0-1.564-.436-1.972-1.137-.628-1.089-.254-2.483.832-3.109l18.42-10.635c.523-.304 1.133-.385 1.721-.229.59.157 1.081.534 1.387 1.062.627 1.088.253 2.482-.833 3.108l-18.419 10.635c-.344.2-.739.305-1.135.305" fill="#34475B" fill-rule="nonzero"/>
        <path d="M64.013 110.382c0 3.439 2.091 5.02 4.67 3.531 2.58-1.489 4.671-5.485 4.671-8.924 0-3.439-2.09-5.02-4.67-3.531-2.58 1.489-4.67 5.485-4.67 8.924" fill="#FDBBAB" fill-rule="nonzero"/>
        <path d="M70.538 101.4c-.493 0-1.04.165-1.605.491-2.438 1.407-4.42 5.217-4.42 8.491 0 1.624.497 2.844 1.364 3.344.687.397 1.595.308 2.556-.246 2.438-1.408 4.42-5.216 4.42-8.491 0-1.625-.496-2.843-1.363-3.344-.283-.163-.605-.245-.951-.245m-3.713 13.573c-.517 0-1.007-.126-1.448-.381-1.186-.684-1.864-2.218-1.864-4.21 0-3.593 2.206-7.791 4.92-9.357 1.282-.741 2.546-.829 3.556-.246 1.184.684 1.864 2.219 1.864 4.21 0 3.593-2.209 7.79-4.92 9.357-.724.417-1.44.627-2.108.627" fill="#34475B" fill-rule="nonzero"/>
        <path d="M67.458 111.517c-.468 0-.903-.144-1.274-.432-.218-.169-.258-.483-.088-.7.167-.22.484-.259.701-.09.555.431 1.263.136 1.637-.079.738-.427 1.465-1.26 1.997-2.286.127-.246.43-.34.673-.214.246.127.342.428.215.674-.626 1.208-1.473 2.165-2.385 2.692-.503.29-1.006.435-1.476.435M69.322 105.504c0 .436.265.636.59.447.328-.188.593-.695.593-1.13 0-.436-.265-.636-.592-.448-.326.189-.591.695-.591 1.13M66.862 106.923c0 .436.266.636.592.447.327-.189.592-.695.592-1.13 0-.436-.265-.635-.592-.448-.326.19-.592.695-.592 1.131" fill="#34475B" fill-rule="nonzero"/>
        <path d="M165.273 170.678l-.01.006.01-.006zm-74.493-2.905l39.316 22.688c.086.05.169.106.247.168.024.009.046.019.069.029.177-.036.576-.154 1.247-.542l32.349-18.707c-.565-.367-.91-.998-.91-1.677v-3.122c0-.715.38-1.374.999-1.732l.037-.021-38.996-21.688-6.252 3.418c-.145.159-.317.297-.511.404l-25.71 14.189c-.134.074-.277.133-.424.174-.434.122-2.594.869-2.594 3.617 0 1.27.37 2.188 1.133 2.802zm39.519 26.9c-.72 0-1.256-.194-1.622-.401-.194-.09-.433-.222-.69-.41L88.663 171.17c-.07-.04-.136-.084-.201-.132-1.284-.963-2.815-2.798-2.815-6.067 0-4.49 3.2-6.716 5.267-7.393l24.899-13.742c.148-.164.325-.305.525-.415l7.849-4.291c.603-.33 1.332-.326 1.93.007l41.353 22.999c.635.353 1.029 1.02 1.029 1.748v1.916c0 .714-.381 1.374-1 1.732l-.401.23v.815l.13.076c.042.023.082.046.12.07.137.089.3.227.427.359.127.127.245.276.33.423.21.36.318.76.318 1.165v1.48c0 .82-.442 1.586-1.154 1.994l-33.607 19.434c-1.274.737-2.373 1.096-3.363 1.096z" fill="#33475C" fill-rule="nonzero"/>
        <path d="M91.624 159.234s-3.866.94-3.866 5.263c0 2.267.956 3.521 1.865 4.206l39.47 22.781c.264.209.466.269.466.269s.627.594 2.762-.64l33.614-19.438v-1.479l-40.98-22.191-27.023 14.915-6.308-3.686" fill="#E8824A" fill-rule="nonzero"/>
        <path d="M129.765 191.534c.004 0 .588.371 2.406-.68l33.464-19.352v-1.128l-40.679-22.027-26.879 14.834c-.093.053-.206.05-.296-.003l-6.198-3.62c-.626.19-3.524 1.268-3.524 4.94 0 1.758.587 3.093 1.745 3.966l39.44 22.76c.244.19.401.241.401.241.045.014.088.038.12.07m.346.664c-.376 0-.593-.106-.699-.18-.094-.037-.283-.124-.505-.3l-39.433-22.756c-.937-.702-2.016-2.028-2.016-4.466 0-4.506 4.055-5.545 4.096-5.555.075-.019.154-.006.222.032l6.16 3.6 26.874-14.832c.09-.05.198-.049.288 0l40.98 22.19c.096.052.157.154.157.264v1.48c0 .107-.057.206-.15.26l-33.613 19.436c-1.124.65-1.876.827-2.361.827" fill="#33475C" fill-rule="nonzero"/>
        <path fill="#E8824A" fill-rule="nonzero" d="M132.322 184.547l33.613-19.438v-1.479l-40.98-22.791-33.33 18.395-.155.871"/>
        <path d="M91.325 159.646v-.412c0-.11.06-.21.155-.262l33.33-18.395c.09-.051.202-.05.29 0l40.98 22.79c.097.054.155.154.155.263v1.479c0 .108-.056.207-.15.26l-33.613 19.438c-.047.027-.1.04-.15.04-.103 0-.204-.054-.26-.15-.083-.143-.034-.327.11-.41l33.464-19.35v-1.13l-40.681-22.625-33.03 18.23" fill="#33475C" fill-rule="nonzero"/>
        <path d="M132.322 184.547s-3.114.315-3.114 3.89c0 3.643 3.114.918 3.114.918l32.287-19.872v-3.607l-32.287 18.671z" fill="#EBF0F7" fill-rule="nonzero"/>
        <path d="M132.322 184.547h.006-.006zm31.987-18.15l-31.837 18.41c-.036.02-.078.034-.12.037-.115.013-2.844.343-2.844 3.594 0 .596.089 1.347.518 1.54.604.276 1.746-.543 2.099-.85l32.184-19.813v-2.918zm-34.003 24.237c-.182 0-.361-.032-.528-.108-.578-.264-.871-.966-.871-2.089 0-3.494 2.829-4.1 3.314-4.179l32.238-18.642c.093-.054.208-.054.3 0 .093.053.15.152.15.26v3.607c0 .105-.053.201-.142.255l-32.288 19.871c-.108.1-1.196 1.024-2.173 1.024z" fill="#33475C" fill-rule="nonzero"/>
        <path d="M164.609 169.43v.053l-32.287 18.671s-2.055 2.464-3.014.958l.266.662c.465 1.64 2.748-.14 2.748-.14l33.613-19.438-1.326-.766z" fill="#FFAB7D" fill-rule="nonzero"/>
        <path d="M129.939 189.886c.092.172.198.226.279.253.494.16 1.44-.37 1.919-.742l33.198-19.201-.68-.393-32.138 18.585c-.25.289-1.41 1.585-2.478 1.509-.032-.002-.065-.006-.1-.011m.486.882c-.135 0-.268-.018-.393-.06-.254-.082-.59-.297-.747-.852l-.255-.633c-.058-.143.004-.308.14-.38.14-.07.308-.022.392.107.142.224.306.334.515.348.697.063 1.69-.95 2.014-1.336.023-.027.05-.05.08-.068l32.21-18.625c.022-.03.048-.055.079-.071.092-.055.208-.081.299-.027l1.326.765c.093.054.15.153.15.26 0 .107-.057.207-.15.26l-33.613 19.437c-.102.083-1.146.875-2.047.875" fill="#33475C" fill-rule="nonzero"/>
        <path fill="#FFAB7D" fill-rule="nonzero" d="M159.576 168.787l-41.701-24.076 7.08-3.872 40.98 22.79v1.48z"/>
        <path d="M118.64 144.72l40.936 23.633 5.984-3.46v-1.043l-40.607-22.583-6.313 3.452zm40.936 24.5L117.109 144.7l7.848-4.29 41.353 22.997v1.917l-6.734 3.894z" fill="#33475C" fill-rule="nonzero"/>
        <path fill="#33475C" fill-rule="nonzero" d="M125.434 149.255l-.375-.649 7.048-4.07.375.65zM134.094 154.255l-.375-.649 7.21-4.163.375.649zM142.754 159.255l-.375-.649 7.372-4.257.375.65zM151.414 164.255l-.375-.649 7.534-4.351.375.65z"/>
        <path d="M137.992 165.174c0 5.311-6.005 9.617-13.413 9.617s-13.414-4.305-13.414-9.617c0-5.31 6.006-9.615 13.414-9.615 7.408 0 13.413 4.304 13.413 9.615" fill="#FFAB7D" fill-rule="nonzero"/>
        <g>
            <g transform="translate(124 163.642)">
                <mask id="d" fill="#fff">
                    <use xlink:href="#c"/>
                </mask>
                <path d="M18.458 11.097c-1.216 3.593-6.266 5.132-11.278 3.436C2.167 12.836-.912 8.548.304 4.953 1.521 1.362 6.57-.176 11.584 1.52c5.012 1.696 8.09 5.984 6.874 9.578" fill="#FFF" fill-rule="nonzero" mask="url(#d)"/>
            </g>
            <g transform="translate(123 163.642)">
                <mask id="f" fill="#fff">
                    <use xlink:href="#e"/>
                </mask>
                <path d="M19.458 11.097h.01-.01zM8.496 1.327c-3.214 0-5.909 1.397-6.719 3.788-1.125 3.326 1.82 7.338 6.563 8.944 2.327.788 4.727.88 6.757.26 1.971-.6 3.352-1.801 3.887-3.382 1.125-3.327-1.818-7.34-6.56-8.944-1.335-.452-2.67-.665-3.928-.665zm3.764 14.397c-1.387 0-2.828-.24-4.24-.718C2.753 13.224-.472 8.643.83 4.794 2.133.946 7.477-.736 12.743 1.044c5.266 1.783 8.49 6.364 7.19 10.213-.643 1.895-2.256 3.322-4.544 4.02-.982.299-2.038.447-3.129.447z" fill="#33475C" fill-rule="nonzero" mask="url(#f)"/>
            </g>
            <g transform="translate(119 160.642)">
                <mask id="h" fill="#fff">
                    <use xlink:href="#g"/>
                </mask>
                <path d="M8.893 5.312c-.579 1.711-2.984 2.444-5.371 1.636-2.388-.807-3.855-2.85-3.275-4.56C.826.674 3.231-.058 5.619.75c2.387.808 3.853 2.851 3.274 4.562" fill="#FFF" fill-rule="nonzero" mask="url(#h)"/>
            </g>
            <g transform="translate(118 159.642)">
                <mask id="j" fill="#fff">
                    <use xlink:href="#i"/>
                </mask>
                <path d="M4.662 1.92c-1.417 0-2.594.597-2.942 1.627-.226.671-.065 1.441.459 2.168.557.777 1.447 1.402 2.504 1.76 1.056.357 2.14.4 3.056.122.858-.26 1.454-.774 1.68-1.445.226-.67.064-1.44-.457-2.168-.559-.777-1.446-1.402-2.503-1.76-.612-.207-1.225-.305-1.797-.305m1.803 6.86c-.69 0-1.404-.12-2.103-.357-1.254-.424-2.317-1.178-2.997-2.124C.65 5.302.44 4.211.772 3.228c.668-1.97 3.364-2.845 6.006-1.95C8.031 1.7 9.098 2.454 9.776 3.4c.714.996.925 2.087.591 3.071-.332.985-1.162 1.724-2.335 2.081-.492.15-1.02.225-1.566.225" fill="#33475C" fill-rule="nonzero" mask="url(#j)"/>
            </g>
        </g>
        <path d="M124.579 156.06c-7.121 0-12.914 4.088-12.914 9.114 0 5.027 5.792 9.116 12.913 9.116 7.12 0 12.913-4.089 12.913-9.116 0-5.026-5.793-9.115-12.913-9.115m0 19.231c-7.672 0-13.913-4.538-13.913-10.116 0-5.577 6.241-10.115 13.913-10.115 7.672 0 13.913 4.538 13.913 10.115 0 5.578-6.24 10.116-13.913 10.116" fill="#33475C" fill-rule="nonzero"/>
    </g>
</svg>
