<svg width="153" height="168" viewBox="0 0 153 168" xmlns="http://www.w3.org/2000/svg">
    <g fill="none" fill-rule="evenodd">
        <path d="M81.25 81.151c-2.658-1.535-7.008-1.535-9.666 0l-69.6 40.183c-2.657 1.535-2.644 4.022.03 5.528L71.554 166c2.675 1.506 7.052 1.506 9.727 0l69.539-39.137c2.675-1.506 2.688-3.993.03-5.528l-69.6-40.183z" fill-opacity=".2" fill="#FF8F52"/>
        <path d="M111.815 109.968c-.259 5.025-3.68 10.005-10.287 13.819-13.75 7.939-36.25 7.939-50 0-6.874-3.97-10.312-9.2-10.313-14.432v9.999c.001 5.232 3.438 10.464 10.313 14.433 13.75 7.939 36.25 7.939 50 0 6.875-3.97 10.312-9.201 10.312-14.433v-9.386h-.025z" stroke="#33475C" stroke-width="5" stroke-linecap="round" stroke-linejoin="round"/>
        <path d="M101.528 96.92c13.75 7.938 13.75 20.928 0 28.867-13.75 7.938-36.25 7.938-50 0-13.75-7.939-13.75-20.929 0-28.868s36.25-7.939 50 0z" stroke="#33475C" stroke-width="5" stroke-linecap="round" stroke-linejoin="round"/>
        <path d="M101.232 111.534c.007-.344-.02-.687-.055-1.03-.365-5.79-2.626-27.236-16.266-33.58 15.817-7.355 16.336-35.042 16.336-35.042h-5.49c7.854-5.598 7.28-13.897-1.729-19.098-9.625-5.557-25.375-5.557-35 0-9.009 5.2-9.583 13.5-1.728 19.098h-5.49s.518 27.656 16.31 35.03c-15.159 6.978-16.244 32.364-16.306 34.39 0 .025-.003.049-.003.073 0 .042-.002.07-.002.07h.008c.04 3.632 2.44 7.257 7.211 10.012 9.625 5.557 25.375 5.557 35 0 4.543-2.623 6.914-6.034 7.168-9.49h.051s-.004-.16-.015-.433z" stroke="#33475C" stroke-width="5" stroke-linecap="round" stroke-linejoin="round"/>
        <path d="M101.232 111.534c.007-.344-.02-.687-.055-1.03-.365-5.79-2.626-27.236-16.266-33.58 15.817-7.355 16.336-35.042 16.336-35.042h-5.49c7.854-5.598 7.28-13.897-1.729-19.098-9.625-5.557-25.375-5.557-35 0-9.009 5.2-9.583 13.5-1.728 19.098h-5.49s.518 27.656 16.31 35.03c-15.159 6.978-16.244 32.364-16.306 34.39 0 .025-.003.049-.003.073 0 .042-.002.07-.002.07h.008c.04 3.632 2.44 7.257 7.211 10.012 9.625 5.557 25.375 5.557 35 0 4.543-2.623 6.914-6.034 7.168-9.49h.051s-.004-.16-.015-.433z" stroke="#33475C" stroke-width="5" stroke-linecap="round" stroke-linejoin="round"/>
        <path d="M111.84 20.888c0 5.232-3.437 10.464-10.312 14.433-13.75 7.939-36.25 7.939-50 0-6.874-3.97-10.311-9.2-10.312-14.432v10.308h.013c.133 5.129 3.56 10.233 10.299 14.124 13.75 7.939 36.25 7.939 50 0 6.74-3.891 10.167-8.995 10.3-14.124h.013v-10.31z" stroke="#33475C" stroke-width="5" stroke-linecap="round" stroke-linejoin="round"/>
        <path d="M101.528 8.454c13.75 7.939 13.75 20.929 0 28.868-13.75 7.938-36.25 7.938-50 0-6.875-3.97-10.312-9.202-10.313-14.434 0-5.232 3.438-10.465 10.313-14.434 13.75-7.94 36.25-7.94 50 0zM82.479 104.735l-.368-.559 2.226-.773-3.897-8.976c-2.395 3.038-5.117 1.222-11.37-1.168-3.678-1.406-6.28-.307-7.806.835-.948.574-1.373 1.072-1.615 1.621-1.31 2.981.67 6.032 4.799 8.416 1.602.925 4.445 1.197 7.545 1.19l.509 1.731 4.934-.74c.189.22.375.441.57.656l2.647-1.14 2.316-.349-.334-.506.663-.286c-.256.013-.535.03-.82.048z" stroke="#33475C" stroke-width="5" stroke-linecap="round" stroke-linejoin="round"/>
        <path d="M92.109 91.924c-.475-1.326-1.013-2.673-1.981-3.696-.97-1.022-2.471-1.657-3.813-1.23-.814.26-1.47.866-2.037 1.504-3.611 4.049-4.408 9.135-9.001 12.022-1.87 1.175-4.09 1.682-6.291 1.855-2.144.169-4.41.007-6.247-1.109-1.838-1.117-3.708-3.495-3.09-5.555-1.975 5.74-2.693 11.492-2.833 15.608v.067c.022 1.929 1.739 4.02 4.712 5.736 3.85 2.223 9.318 3.498 15 3.498 5.683 0 11.15-1.275 15-3.498 2.838-1.638 4.544-3.652 4.682-5.526.006-.077.013-.155.022-.231-.002-.06-.01-.168-.03-.359l-.015-.192c-.104-1.655-.483-6.101-1.701-11.108v-.001c-.605-2.653-1.46-5.222-2.377-7.785z" stroke="#33475C" stroke-width="5" stroke-linecap="round" stroke-linejoin="round"/>
        <path d="M111.815 109.968c-.259 5.025-3.68 10.005-10.287 13.819-13.75 7.939-36.25 7.939-50 0-6.874-3.97-10.312-9.2-10.313-14.432v9.999c.001 5.232 3.438 10.464 10.313 14.433 13.75 7.939 36.25 7.939 50 0 6.875-3.97 10.312-9.201 10.312-14.433v-9.386h-.025z" fill="#D29B6A"/>
        <path d="M111.815 109.968c-.259 5.025-3.68 10.005-10.287 13.819-13.75 7.939-36.25 7.939-50 0-6.874-3.97-10.312-9.2-10.313-14.432v9.999c.001 5.232 3.438 10.464 10.313 14.433 13.75 7.939 36.25 7.939 50 0 6.875-3.97 10.312-9.201 10.312-14.433v-9.386h-.025z" stroke="#33475C" stroke-linecap="round" stroke-linejoin="round"/>
        <path d="M101.528 96.92c13.75 7.938 13.75 20.928 0 28.867-13.75 7.938-36.25 7.938-50 0-13.75-7.939-13.75-20.929 0-28.868s36.25-7.939 50 0" fill="#C78244"/>
        <path d="M101.528 96.92c13.75 7.938 13.75 20.928 0 28.867-13.75 7.938-36.25 7.938-50 0-13.75-7.939-13.75-20.929 0-28.868s36.25-7.939 50 0z" stroke="#33475C" stroke-linecap="round" stroke-linejoin="round"/>
        <path d="M101.232 111.534c.007-.344-.02-.687-.055-1.03-.365-5.79-2.626-27.236-16.266-33.58 15.817-7.355 16.336-35.042 16.336-35.042h-5.49c7.854-5.598 7.28-13.897-1.729-19.098-9.625-5.557-25.375-5.557-35 0-9.009 5.2-9.583 13.5-1.728 19.098h-5.49s.518 27.656 16.31 35.03c-15.159 6.978-16.244 32.364-16.306 34.39 0 .025-.003.049-.003.073 0 .042-.002.07-.002.07h.008c.04 3.632 2.44 7.257 7.211 10.012 9.625 5.557 25.375 5.557 35 0 4.543-2.623 6.914-6.034 7.168-9.49h.051s-.004-.16-.015-.433" fill="#FFF"/>
        <path d="M101.232 111.534c.007-.344-.02-.687-.055-1.03-.365-5.79-2.626-27.236-16.266-33.58 15.817-7.355 16.336-35.042 16.336-35.042h-5.49c7.854-5.598 7.28-13.897-1.729-19.098-9.625-5.557-25.375-5.557-35 0-9.009 5.2-9.583 13.5-1.728 19.098h-5.49s.518 27.656 16.31 35.03c-15.159 6.978-16.244 32.364-16.306 34.39 0 .025-.003.049-.003.073 0 .042-.002.07-.002.07h.008c.04 3.632 2.44 7.257 7.211 10.012 9.625 5.557 25.375 5.557 35 0 4.543-2.623 6.914-6.034 7.168-9.49h.051s-.004-.16-.015-.433z" stroke="#33475C" stroke-linecap="round" stroke-linejoin="round"/>
        <path d="M101.232 111.534c.007-.344-.02-.687-.055-1.03-.365-5.79-2.626-27.236-16.266-33.58 15.817-7.355 16.336-35.042 16.336-35.042h-5.49c7.854-5.598 7.28-13.897-1.729-19.098-9.625-5.557-25.375-5.557-35 0-9.009 5.2-9.583 13.5-1.728 19.098h-5.49s.518 27.656 16.31 35.03c-15.159 6.978-16.244 32.364-16.306 34.39 0 .025-.003.049-.003.073 0 .042-.002.07-.002.07h.008c.04 3.632 2.44 7.257 7.211 10.012 9.625 5.557 25.375 5.557 35 0 4.543-2.623 6.914-6.034 7.168-9.49h.051s-.004-.16-.015-.433z" stroke="#33475C" stroke-linecap="round" stroke-linejoin="round"/>
        <path d="M111.84 20.888c0 5.232-3.437 10.464-10.312 14.433-13.75 7.939-36.25 7.939-50 0-6.874-3.97-10.311-9.2-10.312-14.432v10.308h.013c.133 5.129 3.56 10.233 10.299 14.124 13.75 7.939 36.25 7.939 50 0 6.74-3.891 10.167-8.995 10.3-14.124h.013v-10.31z" fill="#C78244"/>
        <path d="M111.84 20.888c0 5.232-3.437 10.464-10.312 14.433-13.75 7.939-36.25 7.939-50 0-6.874-3.97-10.311-9.2-10.312-14.432v10.308h.013c.133 5.129 3.56 10.233 10.299 14.124 13.75 7.939 36.25 7.939 50 0 6.74-3.891 10.167-8.995 10.3-14.124h.013v-10.31z" stroke="#33475C" stroke-linecap="round" stroke-linejoin="round"/>
        <path d="M101.528 8.454c13.75 7.939 13.75 20.929 0 28.868-13.75 7.938-36.25 7.938-50 0-6.875-3.97-10.312-9.202-10.313-14.434 0-5.232 3.438-10.465 10.313-14.434 13.75-7.94 36.25-7.94 50 0" fill="#D29B6A"/>
        <path d="M101.528 8.454c13.75 7.939 13.75 20.929 0 28.868-13.75 7.938-36.25 7.938-50 0-6.875-3.97-10.312-9.202-10.313-14.434 0-5.232 3.438-10.465 10.313-14.434 13.75-7.94 36.25-7.94 50 0z" stroke="#33475C" stroke-linecap="round" stroke-linejoin="round"/>
        <path d="M82.479 104.735l-.368-.559 2.226-.773-3.897-8.976c-2.395 3.038-5.117 1.222-11.37-1.168-3.678-1.406-6.28-.307-7.806.835-.948.574-1.373 1.072-1.615 1.621-1.31 2.981.67 6.032 4.799 8.416 1.602.925 4.445 1.197 7.545 1.19l.509 1.731 4.934-.74c.189.22.375.441.57.656l2.647-1.14 2.316-.349-.334-.506.663-.286c-.256.013-.535.03-.82.048" fill="#FBE1B2"/>
        <path d="M82.479 104.735l-.368-.559 2.226-.773-3.897-8.976c-2.395 3.038-5.117 1.222-11.37-1.168-3.678-1.406-6.28-.307-7.806.835-.948.574-1.373 1.072-1.615 1.621-1.31 2.981.67 6.032 4.799 8.416 1.602.925 4.445 1.197 7.545 1.19l.509 1.731 4.934-.74c.189.22.375.441.57.656l2.647-1.14 2.316-.349-.334-.506.663-.286c-.256.013-.535.03-.82.048z" stroke="#33475C" stroke-linecap="round" stroke-linejoin="round"/>
        <path d="M92.109 91.924c-.475-1.326-1.013-2.673-1.981-3.696-.97-1.022-2.471-1.657-3.813-1.23-.814.26-1.47.866-2.037 1.504-3.611 4.049-4.408 9.135-9.001 12.022-1.87 1.175-4.09 1.682-6.291 1.855-2.144.169-4.41.007-6.247-1.109-1.838-1.117-3.708-3.495-3.09-5.555-1.975 5.74-2.693 11.492-2.833 15.608v.067c.022 1.929 1.739 4.02 4.712 5.736 3.85 2.223 9.318 3.498 15 3.498 5.683 0 11.15-1.275 15-3.498 2.838-1.638 4.544-3.652 4.682-5.526.006-.077.013-.155.022-.231-.002-.06-.01-.168-.03-.359l-.015-.192c-.104-1.655-.483-6.101-1.701-11.108v-.001c-.605-2.653-1.46-5.222-2.377-7.785" fill="#F7C364"/>
        <path d="M92.109 91.924c-.475-1.326-1.013-2.673-1.981-3.696-.97-1.022-2.471-1.657-3.813-1.23-.814.26-1.47.866-2.037 1.504-3.611 4.049-4.408 9.135-9.001 12.022-1.87 1.175-4.09 1.682-6.291 1.855-2.144.169-4.41.007-6.247-1.109-1.838-1.117-3.708-3.495-3.09-5.555-1.975 5.74-2.693 11.492-2.833 15.608v.067c.022 1.929 1.739 4.02 4.712 5.736 3.85 2.223 9.318 3.498 15 3.498 5.683 0 11.15-1.275 15-3.498 2.838-1.638 4.544-3.652 4.682-5.526.006-.077.013-.155.022-.231-.002-.06-.01-.168-.03-.359l-.015-.192c-.104-1.655-.483-6.101-1.701-11.108v-.001c-.605-2.653-1.46-5.222-2.377-7.785z" stroke="#33475C" stroke-linecap="round" stroke-linejoin="round"/>
    </g>
</svg>
