<svg width="213" height="182" viewBox="0 0 213 182" xmlns="http://www.w3.org/2000/svg" xmlns:xlink="http://www.w3.org/1999/xlink">
    <defs>
        <path id="a" d="M0 .789h212.619V122H0z"/>
    </defs>
    <g fill="none" fill-rule="evenodd">
        <g transform="translate(0 59.12)">
            <mask id="b" fill="#fff">
                <use xlink:href="#a"/>
            </mask>
            <path d="M113.033 2.39c-3.698-2.135-9.75-2.135-13.447 0L2.762 58.292c-3.7 2.135-3.68 5.595.04 7.69l96.742 54.447c3.72 2.095 9.81 2.095 13.53 0l96.742-54.447c3.72-2.095 3.74-5.555.042-7.69L113.033 2.39z" fill="#F9D28C" opacity=".5" mask="url(#b)"/>
        </g>
        <path stroke="#33475C" stroke-width="5" stroke-linecap="round" stroke-linejoin="round" d="M66.351 82l9.558 5.518V53.301zM75.909 53.3v34.218l9.558 5.517z"/>
        <path stroke="#33475C" stroke-width="5" stroke-linecap="round" stroke-linejoin="round" d="M40.236 119.15l45.23-26.115L66.352 82l-45.23 26.114"/>
        <path stroke="#33475C" stroke-width="5" stroke-linecap="round" stroke-linejoin="round" d="M40.236 119.15L30.68 79.413v.001l-9.557 28.698 9.776-.356z"/>
        <path stroke="#33475C" stroke-width="5" stroke-linecap="round" stroke-linejoin="round" d="M85.466 93.035l-45.23 26.114-9.557-39.735 45.23-26.113z"/>
        <path d="M40.236 119.15l49.13-34.678s-5.386 2.388-6.675-2.977l-42.455 37.654z" stroke="#33475C" stroke-width="5" stroke-linecap="round" stroke-linejoin="round"/>
        <path stroke="#33475C" stroke-width="5" stroke-linecap="round" stroke-linejoin="round" d="M40.236 119.15l45.23-26.115-1.637-6.81L66.351 82l-45.23 26.114 9.776-.356z"/>
        <path stroke="#33475C" stroke-width="5" stroke-linecap="round" stroke-linejoin="round" d="M71.13 84.53l-40.232 23.228 9.338 11.391 14.131-14.512z"/>
        <path stroke="#33475C" stroke-width="5" stroke-linecap="round" stroke-linejoin="round" d="M40.236 119.15L30.9 107.758l-9.778.356 9.777-.356zM82.69 81.494L75.91 53.3 30.68 79.414l9.556 39.735 49.13-34.677s-5.385 2.387-6.676-2.978zM82.69 81.493v.001z"/>
        <path stroke="#33475C" stroke-width="5" stroke-linecap="round" stroke-linejoin="round" d="M82.69 81.493l-6.78-28.192-45.23 26.113"/>
        <path stroke="#33475C" stroke-width="5" stroke-linecap="round" stroke-linejoin="round" d="M31.253 79.66l3.079 12.801 44.327-25.593-3.08-12.8z"/>
        <path d="M35.932 82.751c-.17 0-.342-.043-.5-.134-.478-.276-.642-.887-.365-1.366.71-1.23.71-3.39 0-4.62-.235-.406-.525-.659-.756-.659-.233 0-.523.253-.757.66-.254.44-.426 1.013-.497 1.657-.061.55-.55.946-1.104.885-.548-.06-.945-.555-.884-1.105.1-.916.36-1.759.753-2.437.609-1.055 1.516-1.66 2.489-1.66.972 0 1.879.605 2.488 1.66 1.07 1.855 1.07 4.763 0 6.618-.185.321-.521.501-.867.501z" stroke="#33475C" stroke-width="5" stroke-linecap="round" stroke-linejoin="round"/>
        <path d="M41.349 79.675c-.17 0-.342-.043-.5-.135-.478-.275-.642-.887-.365-1.365.71-1.23.71-3.39 0-4.62-.235-.406-.524-.66-.756-.66-.232 0-.522.254-.756.66-.255.44-.427 1.015-.498 1.659-.06.549-.546.947-1.104.884-.548-.061-.945-.555-.884-1.104.1-.918.362-1.76.754-2.44.609-1.053 1.516-1.658 2.488-1.658.974 0 1.88.605 2.488 1.66 1.07 1.855 1.07 4.763 0 6.619-.185.32-.521.5-.867.5z" stroke="#33475C" stroke-width="5" stroke-linecap="round" stroke-linejoin="round"/>
        <path d="M46.767 76.599c-.17 0-.342-.043-.5-.134-.478-.276-.642-.887-.365-1.366.71-1.23.71-3.39 0-4.62-.235-.406-.525-.658-.756-.658-.233 0-.522.252-.756.658-.255.44-.427 1.015-.498 1.659-.061.549-.544.949-1.104.885-.548-.061-.945-.555-.884-1.105.1-.917.362-1.76.754-2.44.608-1.053 1.514-1.657 2.487-1.657.973 0 1.88.604 2.489 1.659 1.07 1.855 1.07 4.764 0 6.619-.185.32-.521.5-.867.5z" stroke="#33475C" stroke-width="5" stroke-linecap="round" stroke-linejoin="round"/>
        <path d="M52.185 73.523c-.17 0-.342-.042-.5-.133-.478-.276-.642-.888-.365-1.367.71-1.23.71-3.39 0-4.62-.235-.406-.525-.659-.756-.659-.233 0-.523.254-.757.66-.255.442-.427 1.016-.497 1.657-.06.547-.558.942-1.103.885-.548-.06-.945-.553-.885-1.102.099-.915.36-1.757.753-2.44.609-1.054 1.516-1.66 2.489-1.66.972 0 1.879.606 2.488 1.66 1.07 1.856 1.07 4.764 0 6.619-.185.32-.521.5-.867.5z" stroke="#33475C" stroke-width="5" stroke-linecap="round" stroke-linejoin="round"/>
        <path d="M57.602 70.447c-.17 0-.342-.043-.5-.135-.478-.275-.642-.887-.365-1.365.71-1.23.71-3.389 0-4.619-.235-.407-.524-.659-.756-.659-.232 0-.522.252-.756.66-.255.44-.427 1.013-.498 1.657-.061.55-.54.945-1.104.884-.548-.06-.945-.555-.884-1.104.1-.918.362-1.76.754-2.439.609-1.054 1.516-1.658 2.488-1.658.974 0 1.88.604 2.488 1.66 1.072 1.854 1.072 4.762 0 6.618-.185.32-.521.5-.867.5z" stroke="#33475C" stroke-width="5" stroke-linecap="round" stroke-linejoin="round"/>
        <path d="M63.02 67.371c-.17 0-.342-.043-.5-.134-.478-.276-.642-.887-.365-1.366.71-1.229.71-3.389 0-4.62-.235-.406-.525-.658-.756-.658-.233 0-.522.252-.756.658-.255.441-.427 1.015-.498 1.66-.061.548-.552.946-1.104.884-.548-.06-.945-.555-.884-1.105.1-.917.362-1.76.754-2.439.608-1.054 1.514-1.658 2.487-1.658.973 0 1.88.604 2.489 1.66 1.07 1.855 1.07 4.764 0 6.618-.185.321-.521.5-.867.5zM46.767 76.599c-.17 0-.342-.043-.5-.134-.478-.276-.642-.887-.365-1.366.71-1.23.71-3.39 0-4.62-.235-.406-.525-.658-.756-.658-.233 0-.522.252-.756.658-.255.44-.427 1.015-.498 1.659-.061.549-.544.949-1.104.885-.548-.061-.945-.555-.884-1.105.1-.917.362-1.76.754-2.44.608-1.053 1.514-1.657 2.487-1.657.973 0 1.88.604 2.489 1.659 1.07 1.855 1.07 4.764 0 6.619-.185.32-.521.5-.867.5z" stroke="#33475C" stroke-width="5" stroke-linecap="round" stroke-linejoin="round"/>
        <path d="M68.437 64.296c-.17 0-.342-.043-.5-.135-.478-.275-.642-.887-.365-1.365.71-1.23.71-3.39 0-4.62-.234-.406-.524-.659-.755-.659-.233 0-.523.253-.757.659-.255.442-.427 1.016-.497 1.657-.061.549-.551.94-1.103.886-.548-.06-.945-.554-.885-1.103.099-.914.36-1.757.753-2.439.609-1.055 1.516-1.66 2.489-1.66.972 0 1.879.605 2.488 1.659 1.07 1.856 1.07 4.765-.001 6.62-.185.32-.521.5-.867.5zM52.185 73.523c-.17 0-.342-.042-.5-.133-.478-.276-.642-.888-.365-1.367.71-1.23.71-3.39 0-4.62-.235-.406-.525-.659-.756-.659-.233 0-.523.254-.757.66-.255.442-.427 1.016-.497 1.657-.06.547-.558.942-1.103.885-.548-.06-.945-.553-.885-1.102.099-.915.36-1.757.753-2.44.609-1.054 1.516-1.66 2.489-1.66.972 0 1.879.606 2.488 1.66 1.07 1.856 1.07 4.764 0 6.619-.185.32-.521.5-.867.5z" stroke="#33475C" stroke-width="5" stroke-linecap="round" stroke-linejoin="round"/>
        <path d="M73.855 61.22c-.17 0-.342-.043-.5-.134-.478-.276-.642-.887-.365-1.366.71-1.23.71-3.39 0-4.62-.235-.406-.525-.658-.756-.658-.233 0-.522.252-.756.658-.255.44-.427 1.015-.498 1.659-.061.549-.548.943-1.104.884-.548-.061-.945-.555-.884-1.104.1-.917.362-1.76.754-2.44.608-1.053 1.514-1.657 2.487-1.657.973 0 1.88.604 2.489 1.659 1.07 1.855 1.07 4.764 0 6.619-.185.32-.521.5-.867.5zM84.646 85.04c-1.019-.505-1.76-1.395-2.212-2.65l-35.129 31.158 39.742-28.053c-.764.032-1.612-.067-2.4-.456zM39.75 98.667l35.64-20.576M41.362 104.84l21.961-12.68M42.679 91.414l4.088 16.996M48.645 87.518l3.698 15.373M54.816 84.43l3.256 13.539" stroke="#33475C" stroke-width="5" stroke-linecap="round" stroke-linejoin="round"/>
        <path fill="#FFF" d="M66.351 82l9.558 5.518V53.301z"/>
        <path stroke="#33475C" stroke-linecap="round" stroke-linejoin="round" d="M66.351 82l9.558 5.518V53.301z"/>
        <path fill="#FFF" d="M75.909 53.3v34.218l9.558 5.517z"/>
        <path stroke="#33475C" stroke-linecap="round" stroke-linejoin="round" d="M75.909 53.3v34.218l9.558 5.517z"/>
        <path stroke="#33475C" stroke-linecap="round" stroke-linejoin="round" d="M40.236 119.15l45.23-26.115L66.352 82l-45.23 26.114"/>
        <path fill="#E6EFF6" d="M40.236 119.15L30.68 79.413v.002-.001l-9.557 28.698 9.776-.355z"/>
        <path stroke="#33475C" d="M40.236 119.15L30.68 79.413v.002-.001l-9.557 28.698 9.776-.355z"/>
        <path fill="#FFF" d="M85.466 93.035l-45.23 26.114-9.557-39.735 45.23-26.113z"/>
        <path stroke="#33475C" stroke-linecap="round" stroke-linejoin="round" d="M85.466 93.035l-45.23 26.114-9.557-39.735 45.23-26.113z"/>
        <path d="M40.236 119.15l49.13-34.678s-5.386 2.388-6.675-2.977l-42.455 37.654z" fill="#FFF"/>
        <path d="M40.236 119.15l49.13-34.678s-5.386 2.388-6.675-2.977l-42.455 37.654z" stroke="#33475C" stroke-linecap="round" stroke-linejoin="round"/>
        <path fill="#D4E7F7" d="M40.236 119.15l45.23-26.115-1.637-6.81L66.351 82l-45.23 26.114 9.776-.356z"/>
        <path stroke="#33475C" d="M40.236 119.15l45.23-26.115-1.637-6.81L66.351 82l-45.23 26.114 9.776-.356z"/>
        <path fill="#E6EFF6" d="M71.13 84.53l-40.232 23.228 9.338 11.391 14.131-14.512z"/>
        <path stroke="#33475C" d="M71.13 84.53l-40.232 23.228 9.338 11.391 14.131-14.512z"/>
        <path fill="#FFF" d="M40.236 119.15L30.9 107.757l-9.778.357 9.777-.357z"/>
        <path stroke="#33475C" stroke-linecap="round" stroke-linejoin="round" d="M40.236 119.15L30.9 107.757l-9.778.357 9.777-.357z"/>
        <path d="M82.69 81.494L75.91 53.3 30.68 79.414l9.556 39.735 49.13-34.677s-5.385 2.387-6.676-2.978" fill="#FFF"/>
        <path d="M82.69 81.494L75.91 53.3 30.68 79.414l9.556 39.735 49.13-34.677s-5.385 2.387-6.676-2.978z" stroke="#33475C" stroke-linecap="round" stroke-linejoin="round"/>
        <path fill="#FFF" d="M82.69 81.493v.001z"/>
        <path stroke="#33475C" stroke-linecap="round" stroke-linejoin="round" d="M82.69 81.493v.001z"/>
        <path fill="#FFF" d="M82.69 81.493l-6.78-28.192-45.23 26.113"/>
        <path stroke="#33475C" stroke-linecap="round" stroke-linejoin="round" d="M82.69 81.493l-6.78-28.192-45.23 26.113"/>
        <path fill="#A67577" d="M31.253 79.66l3.079 12.801 44.327-25.593-3.08-12.8z"/>
        <path d="M35.932 82.751c-.17 0-.342-.043-.5-.134-.478-.276-.642-.887-.365-1.366.71-1.23.71-3.39 0-4.62-.235-.406-.525-.659-.756-.659-.233 0-.523.253-.757.66-.254.44-.426 1.013-.497 1.657-.061.55-.55.946-1.104.885-.548-.06-.945-.555-.884-1.105.1-.916.36-1.759.753-2.437.609-1.055 1.516-1.66 2.489-1.66.972 0 1.879.605 2.488 1.66 1.07 1.855 1.07 4.763 0 6.618-.185.321-.521.501-.867.501" fill="#F6C364"/>
        <path d="M41.349 79.675c-.17 0-.342-.043-.5-.135-.478-.275-.642-.887-.365-1.365.71-1.23.71-3.39 0-4.62-.235-.406-.524-.66-.756-.66-.232 0-.522.254-.756.66-.255.44-.427 1.015-.498 1.659-.06.549-.546.947-1.104.884-.548-.061-.945-.555-.884-1.104.1-.918.362-1.76.754-2.44.609-1.053 1.516-1.658 2.488-1.658.974 0 1.88.605 2.488 1.66 1.07 1.855 1.07 4.763 0 6.619-.185.32-.521.5-.867.5" fill="#F6C364"/>
        <path d="M46.767 76.599c-.17 0-.342-.043-.5-.134-.478-.276-.642-.887-.365-1.366.71-1.23.71-3.39 0-4.62-.235-.406-.525-.658-.756-.658-.233 0-.522.252-.756.658-.255.44-.427 1.015-.498 1.659-.061.549-.544.949-1.104.885-.548-.061-.945-.555-.884-1.105.1-.917.362-1.76.754-2.44.608-1.053 1.514-1.657 2.487-1.657.973 0 1.88.604 2.489 1.659 1.07 1.855 1.07 4.764 0 6.619-.185.32-.521.5-.867.5" fill="#F6C364"/>
        <path d="M52.185 73.523c-.17 0-.342-.042-.5-.133-.478-.276-.642-.888-.365-1.367.71-1.23.71-3.39 0-4.62-.235-.406-.525-.659-.756-.659-.233 0-.523.254-.757.66-.255.442-.427 1.016-.497 1.657-.06.547-.558.942-1.103.885-.548-.06-.945-.553-.885-1.102.099-.915.36-1.757.753-2.44.609-1.054 1.516-1.66 2.489-1.66.972 0 1.879.606 2.488 1.66 1.07 1.856 1.07 4.764 0 6.619-.185.32-.521.5-.867.5" fill="#F6C364"/>
        <path d="M57.602 70.447c-.17 0-.342-.043-.5-.135-.478-.275-.642-.887-.365-1.365.71-1.23.71-3.389 0-4.619-.235-.407-.524-.659-.756-.659-.232 0-.522.252-.756.66-.255.44-.427 1.013-.498 1.657-.061.55-.54.945-1.104.884-.548-.06-.945-.555-.884-1.104.1-.918.362-1.76.754-2.439.609-1.054 1.516-1.658 2.488-1.658.974 0 1.88.604 2.488 1.66 1.072 1.854 1.072 4.762 0 6.618-.185.32-.521.5-.867.5" fill="#F6C364"/>
        <path d="M63.02 67.371c-.17 0-.342-.043-.5-.134-.478-.276-.642-.887-.365-1.366.71-1.229.71-3.389 0-4.62-.235-.406-.525-.658-.756-.658-.233 0-.522.252-.756.658-.255.441-.427 1.015-.498 1.66-.061.548-.552.946-1.104.884-.548-.06-.945-.555-.884-1.105.1-.917.362-1.76.754-2.439.608-1.054 1.514-1.658 2.487-1.658.973 0 1.88.604 2.489 1.66 1.07 1.855 1.07 4.764 0 6.618-.185.321-.521.5-.867.5M46.767 76.599c-.17 0-.342-.043-.5-.134-.478-.276-.642-.887-.365-1.366.71-1.23.71-3.39 0-4.62-.235-.406-.525-.658-.756-.658-.233 0-.522.252-.756.658-.255.44-.427 1.015-.498 1.659-.061.549-.544.949-1.104.885-.548-.061-.945-.555-.884-1.105.1-.917.362-1.76.754-2.44.608-1.053 1.514-1.657 2.487-1.657.973 0 1.88.604 2.489 1.659 1.07 1.855 1.07 4.764 0 6.619-.185.32-.521.5-.867.5" fill="#F6C364"/>
        <path d="M68.437 64.296c-.17 0-.342-.043-.5-.135-.478-.275-.642-.887-.365-1.365.71-1.23.71-3.39 0-4.62-.234-.406-.524-.659-.755-.659-.233 0-.523.253-.757.659-.255.442-.427 1.016-.497 1.657-.061.549-.551.94-1.103.886-.548-.06-.945-.554-.885-1.103.099-.914.36-1.757.753-2.439.609-1.055 1.516-1.66 2.489-1.66.972 0 1.879.605 2.488 1.659 1.07 1.856 1.07 4.765-.001 6.62-.185.32-.521.5-.867.5M52.185 73.523c-.17 0-.342-.042-.5-.133-.478-.276-.642-.888-.365-1.367.71-1.23.71-3.39 0-4.62-.235-.406-.525-.659-.756-.659-.233 0-.523.254-.757.66-.255.442-.427 1.016-.497 1.657-.06.547-.558.942-1.103.885-.548-.06-.945-.553-.885-1.102.099-.915.36-1.757.753-2.44.609-1.054 1.516-1.66 2.489-1.66.972 0 1.879.606 2.488 1.66 1.07 1.856 1.07 4.764 0 6.619-.185.32-.521.5-.867.5" fill="#F6C364"/>
        <path d="M73.855 61.22c-.17 0-.342-.043-.5-.134-.478-.276-.642-.887-.365-1.366.71-1.23.71-3.39 0-4.62-.235-.406-.525-.658-.756-.658-.233 0-.522.252-.756.658-.255.44-.427 1.015-.498 1.659-.061.549-.548.943-1.104.884-.548-.061-.945-.555-.884-1.104.1-.917.362-1.76.754-2.44.608-1.053 1.514-1.657 2.487-1.657.973 0 1.88.604 2.489 1.659 1.07 1.855 1.07 4.764 0 6.619-.185.32-.521.5-.867.5" fill="#F6C364"/>
        <path d="M84.646 85.04c-1.019-.505-1.76-1.395-2.212-2.65l-35.129 31.158 39.742-28.053c-.764.032-1.612-.067-2.4-.456" fill="#E6EFF6"/>
        <path d="M39.75 98.667l35.64-20.576" fill="#33475C"/>
        <path d="M39.75 98.667l35.64-20.576" stroke="#D4E7F7" stroke-linecap="round" stroke-linejoin="round"/>
        <path d="M41.362 104.84l21.961-12.68" fill="#33475C"/>
        <path d="M41.362 104.84l21.961-12.68" stroke="#D4E7F7" stroke-linecap="round" stroke-linejoin="round"/>
        <path d="M42.679 91.414l4.088 16.996" fill="#33475C"/>
        <path d="M42.679 91.414l4.088 16.996" stroke="#D4E7F7" stroke-linecap="round" stroke-linejoin="round"/>
        <path d="M48.645 87.518l3.698 15.373" fill="#33475C"/>
        <path d="M48.645 87.518l3.698 15.373" stroke="#D4E7F7" stroke-linecap="round" stroke-linejoin="round"/>
        <path d="M54.816 84.43l3.256 13.539" fill="#33475C"/>
        <path d="M54.816 84.43l3.256 13.539" stroke="#D4E7F7" stroke-linecap="round" stroke-linejoin="round"/>
        <path stroke="#33475C" stroke-width="5" stroke-linecap="round" stroke-linejoin="round" d="M104.344 98.706L57.5 121.751v4l34.674 20.018 46.844-27.044v-4z"/>
        <path stroke="#33475C" stroke-width="5" stroke-linecap="round" stroke-linejoin="round" d="M104.344 94.706L57.5 121.751l34.674 20.018 46.844-27.044z"/>
        <path stroke="#33475C" stroke-width="5" stroke-linecap="round" stroke-linejoin="round" d="M129.257 109.089l-24.913-14.383-46.843 27.045 34.673 20.019 37.083-21.41z"/>
        <path stroke="#33475C" stroke-width="5" stroke-linecap="round" stroke-linejoin="round" d="M129.257 109.11l-9.76 5.636 9.76 5.635zM104.209 98.62l-6.165 3.56 18.495 10.676 6.164-3.558zM100.52 109.259l-7.046-4.067M96.996 107.226l-7.045 4.067M103.77 111.203l16.86 9.734M99.547 113.642l16.86 9.734M95.323 116.08l16.86 9.734M108.316 127.939L81.4 112.398l-16.178 9.34 26.917 15.542zM80.874 116.062l20.66 11.928M76.606 118.475l20.704 11.953M72.382 120.913l16.63 9.601"/>
        <path fill="#FFF" d="M104.344 98.706L57.5 121.751v4l34.674 20.018 46.844-27.044v-4z"/>
        <path stroke="#33475C" stroke-linecap="round" stroke-linejoin="round" d="M104.344 98.706L57.5 121.751v4l34.674 20.018 46.844-27.044v-4z"/>
        <path fill="#FFF" d="M104.344 94.706L57.5 121.751l34.674 20.018 46.844-27.044z"/>
        <path stroke="#33475C" stroke-linecap="round" stroke-linejoin="round" d="M104.344 94.706L57.5 121.751l34.674 20.018 46.844-27.044z"/>
        <path fill="#FFF" d="M129.257 109.089l-24.913-14.383-46.843 27.045 34.673 20.019 37.083-21.41z"/>
        <path stroke="#33475C" stroke-linecap="round" stroke-linejoin="round" d="M129.257 109.089l-24.913-14.383-46.843 27.045 34.673 20.019 37.083-21.41z"/>
        <path fill="#E6EFF6" d="M129.257 109.11l-9.76 5.636 9.76 5.635z"/>
        <path stroke="#33475C" stroke-linecap="round" stroke-linejoin="round" d="M129.257 109.11l-9.76 5.636 9.76 5.635z"/>
        <path fill="#6A78D1" d="M104.209 98.62l-6.165 3.56 18.495 10.676 6.164-3.558z"/>
        <path stroke="#6A78D1" stroke-linecap="round" stroke-linejoin="round" d="M104.209 98.62l-6.165 3.56 18.495 10.676 6.164-3.558z"/>
        <path d="M100.52 109.259l-7.046-4.067M96.996 107.226l-7.045 4.067" stroke="#33475C" stroke-width="2" stroke-linecap="round" stroke-linejoin="round"/>
        <path d="M103.77 111.203l16.86 9.734M99.547 113.642l16.86 9.734M95.323 116.08l16.86 9.734" stroke="#33475C" stroke-width="1.5" stroke-linecap="round" stroke-linejoin="round"/>
        <path fill="#D5DAF1" d="M108.316 127.939L81.4 112.398l-16.178 9.34 26.917 15.542z"/>
        <path stroke="#D5DAF1" stroke-linecap="round" stroke-linejoin="round" d="M108.316 127.939L81.4 112.398l-16.178 9.34 26.917 15.542z"/>
        <path d="M80.874 116.062l20.66 11.928M76.606 118.475l20.704 11.953M72.382 120.913l16.63 9.601" stroke="#33475C" stroke-width="1.5" stroke-linecap="round" stroke-linejoin="round"/>
        <path d="M117.398 141.418v1.837l-31.11-17.962c-.129-.074-.273-.135-.425-.187-.03-.01-.066-.017-.098-.026-.129-.04-.262-.072-.402-.097l-.072-.008c-.158-.025-.32-.039-.487-.044h-.023c-.183-.005-.367.002-.553.02-.596.056-1.19.218-1.672.497l-24.469 14.127v-1.367h-3.399v4.012l.002.055c.004.09.022.176.054.261l.031.08c.037.077.088.151.15.223.021.025.037.053.062.077.092.092.2.18.332.256h.001l33.15 19.14.003.001c.133.077.282.138.44.191.044.014.09.023.135.036.124.035.252.065.385.086.047.008.092.013.14.02.147.016.297.027.45.03l.1.001c.187-.002.377-.013.567-.037h.001c.541-.07 1.072-.23 1.511-.483l26.968-15.57c.633-.365.931-.84.896-1.285v-3.884h-2.668z" stroke="#33475C" stroke-width="5" stroke-linecap="round" stroke-linejoin="round"/>
        <path d="M88.47 158.312l-33.15-19.14c-.953-.55-.832-1.52.268-2.154l26.967-15.57c1.101-.635 2.78-.704 3.732-.155l33.15 19.14c.953.55.832 1.52-.267 2.154l-26.968 15.57c-1.1.635-2.779.705-3.732.155z" stroke="#33475C" stroke-width="5" stroke-linecap="round" stroke-linejoin="round"/>
        <path d="M119.438 140.433l-33.15-19.14c-.535-.308-1.3-.415-2.06-.342l-2.581 20.747c-.104.838.999 1.474 2.45 1.414l35.935-1.49c.126-.44-.06-.88-.594-1.19z" stroke="#33475C" stroke-width="5" stroke-linecap="round" stroke-linejoin="round"/>
        <path d="M92.667 142.757l-8.57.354c-1.451.06-2.554-.576-2.45-1.414l.616-4.948-27.51 1.14c-.183.47-.005.953.567 1.283l33.15 19.14c.573.33 1.408.432 2.222.328l1.975-15.883z" stroke="#33475C" stroke-width="5" stroke-linecap="round" stroke-linejoin="round"/>
        <path d="M117.398 141.418v1.837l-31.11-17.962c-.129-.074-.273-.135-.425-.187-.03-.01-.066-.017-.098-.026-.129-.04-.262-.072-.402-.097l-.072-.008c-.158-.025-.32-.039-.487-.044h-.023c-.183-.005-.367.002-.553.02-.596.056-1.19.218-1.672.497l-24.469 14.127v-1.367h-3.399v4.012l.002.055c.004.09.022.176.054.261l.031.08c.037.077.088.151.15.223.021.025.037.053.062.077.092.092.2.18.332.256h.001l33.15 19.14.003.001c.133.077.282.138.44.191.044.014.09.023.135.036.124.035.252.065.385.086.047.008.092.013.14.02.147.016.297.027.45.03l.1.001c.187-.002.377-.013.567-.037h.001c.541-.07 1.072-.23 1.511-.483l26.968-15.57c.633-.365.931-.84.896-1.285v-3.884h-2.668z" fill="#FFF"/>
        <path d="M117.398 141.418v1.837l-31.11-17.962c-.129-.074-.273-.135-.425-.187-.03-.01-.066-.017-.098-.026-.129-.04-.262-.072-.402-.097l-.072-.008c-.158-.025-.32-.039-.487-.044h-.023c-.183-.005-.367.002-.553.02-.596.056-1.19.218-1.672.497l-24.469 14.127v-1.367h-3.399v4.012l.002.055c.004.09.022.176.054.261l.031.08c.037.077.088.151.15.223.021.025.037.053.062.077.092.092.2.18.332.256h.001l33.15 19.14.003.001c.133.077.282.138.44.191.044.014.09.023.135.036.124.035.252.065.385.086.047.008.092.013.14.02.147.016.297.027.45.03l.1.001c.187-.002.377-.013.567-.037h.001c.541-.07 1.072-.23 1.511-.483l26.968-15.57c.633-.365.931-.84.896-1.285v-3.884h-2.668z" stroke="#33475C" stroke-linecap="round" stroke-linejoin="round"/>
        <path d="M88.47 158.312l-33.15-19.14c-.953-.55-.832-1.52.268-2.154l26.967-15.57c1.101-.635 2.78-.704 3.732-.155l33.15 19.14c.953.55.832 1.52-.267 2.154l-26.968 15.57c-1.1.635-2.779.705-3.732.155" fill="#E6EFF6"/>
        <path d="M88.47 158.312l-33.15-19.14c-.953-.55-.832-1.52.268-2.154l26.967-15.57c1.101-.635 2.78-.704 3.732-.155l33.15 19.14c.953.55.832 1.52-.267 2.154l-26.968 15.57c-1.1.635-2.779.705-3.732.155z" stroke="#33475C"/>
        <path d="M119.438 140.433l-33.15-19.14c-.535-.308-1.3-.415-2.06-.342l-2.581 20.747c-.104.838.999 1.474 2.45 1.414l35.935-1.49c.126-.44-.06-.88-.594-1.19" fill="#FFF"/>
        <path d="M119.438 140.433l-33.15-19.14c-.535-.308-1.3-.415-2.06-.342l-2.581 20.747c-.104.838.999 1.474 2.45 1.414l35.935-1.49c.126-.44-.06-.88-.594-1.19z" stroke="#33475C"/>
        <path d="M92.667 142.757l-8.57.354c-1.451.06-2.554-.576-2.45-1.414l.616-4.948-27.51 1.14c-.183.47-.005.953.567 1.283l33.15 19.14c.573.33 1.408.432 2.222.328l1.975-15.883z" fill="#D4E7F7"/>
        <path d="M92.667 142.757l-8.57.354c-1.451.06-2.554-.576-2.45-1.414l.616-4.948-27.51 1.14c-.183.47-.005.953.567 1.283l33.15 19.14c.573.33 1.408.432 2.222.328l1.975-15.883z" stroke="#33475C"/>
        <path d="M135.787 154.68l-1.259 2.915c-2.319-1.46-3.034 1.016-3.034 1.016l-8.022.378 3.503-6.213c2.237.308 2.651-2.403 2.651-2.403h3.413l4.533-.17-1.785 4.478zM123.472 158.988l7.83-4.644" stroke="#33475C" stroke-width="5" stroke-linecap="round" stroke-linejoin="round"/>
        <path d="M132.843 154.191c0 .697-.564 1.262-1.261 1.262s-1.261-.565-1.261-1.262c0-.696.564-1.261 1.261-1.261s1.261.565 1.261 1.261zM171.154 134.21c0 1.442-1.013 2.027-2.264 1.306-1.25-.722-2.263-2.477-2.263-3.92 0-1.445 1.012-2.03 2.262-1.308 1.251.722 2.264 2.478 2.264 3.921z" stroke="#33475C" stroke-width="5" stroke-linecap="round" stroke-linejoin="round"/>
        <path d="M167.5 130.04c-22.466 5.682-34.46 20.333-34.46 20.333s2.663 1.134 2.747 4.308c0 0 16.956-2.833 34.85-19.108M139.11 153.871c-.536-3.42-2.46-5.139-3.791-5.929M168.802 137.195c-.873-3.366-2.797-5.28-4.338-6.309" stroke="#33475C" stroke-width="5" stroke-linecap="round" stroke-linejoin="round"/>
        <path d="M167.5 130.04c-22.466 5.682-34.46 20.333-34.46 20.333s2.663 1.134 2.747 4.308c0 0 16.956-2.833 34.85-19.108" stroke="#33475C" stroke-width="5" stroke-linecap="round" stroke-linejoin="round"/>
        <path d="M135.787 154.68l-1.259 2.915c-2.319-1.46-3.034 1.016-3.034 1.016l-8.022.378 3.503-6.213c2.237.308 2.651-2.403 2.651-2.403h3.413l4.533-.17-1.785 4.478z" fill="#F6C364"/>
        <path d="M135.787 154.68l-1.259 2.915c-2.319-1.46-3.034 1.016-3.034 1.016l-8.022.378 3.503-6.213c2.237.308 2.651-2.403 2.651-2.403h3.413l4.533-.17-1.785 4.478z" stroke="#33475C" stroke-linecap="round" stroke-linejoin="round"/>
        <path d="M123.472 158.988l7.83-4.644" fill="#FFF"/>
        <path d="M123.472 158.988l7.83-4.644" stroke="#33475C" stroke-linecap="round" stroke-linejoin="round"/>
        <path d="M132.843 154.191c0 .697-.564 1.262-1.261 1.262s-1.261-.565-1.261-1.262c0-.696.564-1.261 1.261-1.261s1.261.565 1.261 1.261" fill="#33475C"/>
        <path d="M171.154 134.21c0 1.442-1.013 2.027-2.264 1.306-1.25-.722-2.263-2.477-2.263-3.92 0-1.445 1.012-2.03 2.262-1.308 1.251.722 2.264 2.478 2.264 3.921" fill="#713336"/>
        <path d="M167.5 130.04c-22.466 5.682-34.46 20.333-34.46 20.333s2.663 1.134 2.747 4.308c0 0 16.956-2.833 34.85-19.108" fill="#7D3D40"/>
        <path d="M167.5 130.04c-22.466 5.682-34.46 20.333-34.46 20.333s2.663 1.134 2.747 4.308c0 0 16.956-2.833 34.85-19.108" stroke="#33475C" stroke-linecap="round" stroke-linejoin="round"/>
        <path d="M139.11 153.871c-.536-3.42-2.46-5.139-3.791-5.929M168.802 137.195c-.873-3.366-2.797-5.28-4.338-6.309" stroke="#F6C364" stroke-linecap="round" stroke-linejoin="round"/>
        <path d="M167.5 130.04c-22.466 5.682-34.46 20.333-34.46 20.333s2.663 1.134 2.747 4.308c0 0 16.956-2.833 34.85-19.108" stroke="#33475C" stroke-linecap="round" stroke-linejoin="round"/>
        <path d="M177.96 124.855c.607.352 1.4.32 2.262-.178l12.855-7.422c1.905-1.1 3.465-4.078 3.465-6.62V52.135c0-1.39-.467-2.372-1.202-2.797l-.02-.01c-.606-.34-1.389-.304-2.243.189l-12.855 7.422c-1.906 1.1-3.465 4.078-3.465 6.619v58.502c0 1.39.467 2.372 1.202 2.796zM97.285 78.252c.608.352 1.4.32 2.263-.178l12.855-7.423c1.905-1.099 3.465-4.078 3.465-6.618V5.531c0-1.39-.467-2.372-1.202-2.797-.608-.35-1.4-.32-2.263.178l-12.855 7.422c-1.906 1.101-3.465 4.08-3.465 6.62v58.501c0 1.391.467 2.372 1.202 2.797z" stroke="#33475C" stroke-width="5" stroke-linecap="round" stroke-linejoin="round"/>
        <path d="M114.667 2.735c-.608-.352-1.4-.32-2.263.178l-12.856 7.421c-.891.514-1.7 1.448-2.314 2.547l18.634 10.765 62.04 35.84c.615-1.1 1.423-2.033 2.314-2.548l12.856-7.423c.853-.492 1.637-.529 2.242-.189l.02.011-80.673-46.603z" stroke="#33475C" stroke-width="5" stroke-linecap="round" stroke-linejoin="round"/>
        <path d="M176.757 122.059V63.557c0-1.352.45-2.822 1.15-4.073v.002l-62.04-35.84-18.633-10.764c-.7 1.25-1.15 2.72-1.15 4.072v58.5c0 1.392.466 2.374 1.2 2.798h.001l80.674 46.603c-.734-.424-1.202-1.406-1.202-2.796zM105.187 7.08l80.674 46.602M159.144 41.992c1.151.665 3.035.665 4.187 0l1.042-.602 1.042-.6c1.151-.666 1.151-1.753 0-2.418-1.858-1.073-4.473-2.412-4.473-2.412l-5.975 3.45 4.177 2.582z" stroke="#33475C" stroke-width="5" stroke-linecap="round" stroke-linejoin="round"/>
        <path d="M161.238 37.84c-2.044 0-2.044 1.766-2.044 1.766 0 .302.199.605.597.835.796.46 2.097.46 2.894 0 .398-.23.596-.533.596-.835 0 0 0-1.766-2.043-1.766zM131.154 18.514c-1.152-.665-3.036-.665-4.187-.001l-1.042.602-1.041.6c-1.152.666-1.152 1.754 0 2.419 1.857 1.072 4.472 2.41 4.472 2.41l5.975-3.448-4.177-2.582z" stroke="#33475C" stroke-width="5" stroke-linecap="round" stroke-linejoin="round"/>
        <path d="M129.217 19.439c2.044 0 2.044 1.765 2.044 1.765 0 .302-.199.606-.597.836-.796.459-2.098.459-2.894 0-.398-.23-.597-.534-.597-.836 0 0 0-1.765 2.044-1.765zM156.955 31.363l-1.988 1.147v6.9l1.988-1.149zM158.954 30.21v6.898l1.988-1.148v-6.898z" stroke="#33475C" stroke-width="5" stroke-linecap="round" stroke-linejoin="round"/>
        <path stroke="#33475C" stroke-width="5" stroke-linecap="round" stroke-linejoin="round" d="M131.506 16.404l-2.15 1.241v6.9l2.15-1.242zM133.505 15.25v6.9l1.825-1.054v-6.9z"/>
        <path d="M162.36 27.005c.044-.415-.038-.847-.278-1.232 0 0-7.059-11.307-15.069-14.687-5.089-2.146-8.573-1.192-8.573-1.192-1.06.29-2.708.977-3.66 1.528l-4.103 2.368c-.953.55-1.732 1.562-1.732 2.247v2c0 .514.501.905 1.212 1.024.14.011.277.033.422.034.116.001.234-.002.355-.015 0 0 .112-.011.301-.02l-.035.008c.014-.002.027-.001.04-.003 0 0 .29-.026.76-.026 1.028 0 3.041.122 4.97.937 7.137 3.01 13.63 11.704 13.694 11.792.974 1.32 2.561 2.11 4.245 2.11.915 0 1.81-.237 2.587-.686l3.923-2.265c.575-.337.916-.917.96-1.529v-2.373l-.02-.02z" stroke="#33475C" stroke-width="5" stroke-linecap="round" stroke-linejoin="round"/>
        <path d="M155.746 31.161l5.413-3.125c.343-.198.583-.515.677-.894.095-.377.03-.77-.178-1.104-.07-.112-7.07-11.213-14.84-14.49-4.87-2.057-8.211-1.18-8.246-1.172-1.012.276-2.634.954-3.543 1.478l-4.101 2.37c-.85.49-1.483 1.361-1.483 1.813 0 .033 0 .133.135.255.258.232.77.347 1.304.291.05-.005.468-.046 1.136-.046 1.389 0 3.853.177 6.31 1.214 8.045 3.393 14.863 12.55 15.149 12.936.499.677 1.536.895 2.267.474zM117.177 16.636l-8.39-4.843c-.476-.275-.416-.76.134-1.078l2.614-1.51c.55-.316 1.39-.351 1.868-.076l8.387 4.843c.476.275.416.76-.134 1.077l-2.614 1.51c-.55.317-1.39.352-1.865.077z" stroke="#33475C" stroke-width="5" stroke-linecap="round" stroke-linejoin="round"/>
        <path stroke="#33475C" stroke-width="5" stroke-linecap="round" stroke-linejoin="round" d="M112.248 12.139l-1.383-.798 1.754-1.013 1.383.798zM115.104 13.788l-1.383-.799 1.754-1.013 1.383.8zM117.96 15.437l-1.383-.798 1.754-1.014 1.383.799zM176.687 51.03l-8.389-4.844c-.476-.274-.416-.76.134-1.077l2.614-1.509c.55-.317 1.39-.352 1.867-.077l8.388 4.843c.476.275.416.76-.134 1.077l-2.614 1.51c-.55.317-1.39.351-1.866.077z"/>
        <path stroke="#33475C" stroke-width="5" stroke-linecap="round" stroke-linejoin="round" d="M171.758 46.533l-1.383-.798 1.755-1.014 1.382.8zM174.614 48.183l-1.383-.8 1.754-1.012 1.383.799zM177.47 49.831l-1.383-.799 1.754-1.013 1.383.8zM161.655 115.437c-.701-.442-1.147-1.398-1.147-2.751V54.184c0-1.355.452-2.828 1.156-4.082l-6.991-4.04c-1.034 1.819-1.665 3.94-1.665 5.963v58.417l8.647 4.995zM120.968 91.933c-.692-.446-1.134-1.396-1.134-2.74V30.692c0-1.358.455-2.83 1.161-4.082l-5.127-2.962-1.865-1.077c-1.036 1.819-1.669 3.943-1.669 5.967v58.409l8.634 4.987zM122.046 92.547l-.266-.145.258.149.008-.004zM168.809 54.23c-.061 2.192.09 5.962 1.566 8.753 1.328 2.509 4.256 5.332 6.383 7.189v-6.615c0-1.352.449-2.822 1.15-4.073v.002l-9.1-5.256zM105.114 17.435l-7.88-4.553c-.7 1.25-1.15 2.72-1.15 4.072v7.57c5.45-.532 7.925-4.232 9.03-7.09zM186.861 53.105v67.739M177.96 124.855c-.736-.424-1.203-1.406-1.203-2.796v-10.631c-2.63.487-7.01 2.05-10.01 6.95l11.212 6.477zM96.084 66.9v8.555c0 1.39.467 2.373 1.2 2.797h.002l7.856 4.539c-.12-9.62-6.026-14.182-9.058-15.89z"/>
        <path d="M98.497 20.175c.071.136.158.265.271.367.248.222.608.294.933.228.325-.067.615-.26.842-.501.465-.5.67-1.242.478-1.898-.28-.966-1.343-1.593-2.152-.825-.684.65-.803 1.815-.372 2.629zM100.662 76.38c-.07.135-.158.265-.27.367-.249.222-.609.293-.934.227-.325-.066-.615-.258-.842-.501-.465-.499-.669-1.242-.478-1.897.281-.966 1.343-1.593 2.152-.826.684.651.803 1.816.372 2.63zM174.525 62.458c-.071.135-.158.265-.271.367-.248.222-.608.293-.933.227-.325-.066-.616-.258-.842-.5-.465-.5-.67-1.243-.478-1.898.28-.966 1.343-1.593 2.152-.826.684.651.803 1.816.372 2.63zM174.087 118.68c-.072.137-.158.267-.272.368-.247.222-.607.294-.933.228-.325-.067-.615-.26-.841-.501-.465-.5-.67-1.242-.48-1.898.282-.966 1.345-1.593 2.153-.825.685.65.803 1.815.373 2.629zM114.48 51.567c-.63-.348-1.26-.696-1.9-1.023-.08-.041-.164-.08-.246-.121v16.946c.414 1.94 1.331 3.774 2.658 5.251.254.282.554.567.932.604.375.037.724-.18 1.025-.407 1.185-.892 2.133-2.043 2.885-3.323V54.526l-5.354-2.959zM155.154 75.502c-.63-.349-1.26-.696-1.9-1.024-.081-.04-.164-.08-.246-.122v16.947c.414 1.941 1.331 3.775 2.658 5.251.254.282.554.568.932.605.375.037.724-.18 1.025-.408 1.185-.892 2.133-2.043 2.885-3.323V78.46l-5.354-2.958z" stroke="#33475C" stroke-width="5" stroke-linecap="round" stroke-linejoin="round"/>
        <path d="M118.782 53.066l-5.828-3.364v-6.73l5.828 3.365v6.73zm1.39-8.927l-8.608-4.969c-.664-.384-1.208-.07-1.208.698v9.938c0 .769.544 1.71 1.208 2.093l8.608 4.97c.664.384 1.208.07 1.208-.698v-9.939c0-.768-.544-1.709-1.208-2.093z" stroke="#33475C" stroke-width="5" stroke-linecap="round" stroke-linejoin="round"/>
        <path d="M115.868 49.6c-.83 0-1.5-.672-1.5-1.5v-2.762c0-.828.67-1.5 1.5-1.5.829 0 1.5.672 1.5 1.5V48.1c0 .828-.671 1.5-1.5 1.5zM159.765 76.783l-5.828-3.364v-6.73l5.828 3.365v6.73zm1.39-8.927l-8.608-4.969c-.664-.384-1.208-.07-1.208.698v9.938c0 .768.544 1.71 1.208 2.093l8.608 4.97c.664.384 1.208.07 1.208-.698V69.95c0-.768-.544-1.709-1.208-2.093z" stroke="#33475C" stroke-width="5" stroke-linecap="round" stroke-linejoin="round"/>
        <path d="M156.851 73.317c-.829 0-1.5-.672-1.5-1.5v-2.762c0-.829.671-1.5 1.5-1.5.83 0 1.5.671 1.5 1.5v2.761c0 .829-.67 1.5-1.5 1.5zM116.55 58.526c0 .435-.306.61-.682.394-.377-.218-.682-.748-.682-1.182 0-.436.305-.61.682-.394.376.217.682.746.682 1.181zM116.55 62.403c0 .436-.306.611-.682.395-.377-.218-.682-.748-.682-1.182 0-.435.305-.61.682-.394.376.217.682.746.682 1.181zM116.55 66.282c0 .435-.306.611-.682.394-.377-.218-.682-.748-.682-1.182 0-.435.305-.61.682-.394.376.218.682.746.682 1.182zM116.55 34.526c0 .435-.306.61-.682.394-.377-.218-.682-.748-.682-1.182 0-.435.305-.61.682-.393.376.216.682.745.682 1.18zM116.55 38.403c0 .436-.306.611-.682.395-.377-.218-.682-.748-.682-1.182 0-.435.305-.61.682-.394.376.217.682.746.682 1.181zM157.44 81.833c0 .435-.305.611-.682.394-.377-.218-.682-.748-.682-1.182 0-.435.305-.61.682-.394.377.217.682.746.682 1.182zM157.44 85.711c0 .435-.305.611-.682.394-.377-.218-.682-.747-.682-1.182 0-.435.305-.611.682-.394.377.218.682.746.682 1.182zM157.44 89.589c0 .435-.305.611-.682.394-.377-.218-.682-.747-.682-1.182 0-.435.305-.611.682-.394.377.218.682.746.682 1.182zM157.44 57.833c0 .435-.305.611-.682.394-.377-.218-.682-.748-.682-1.182 0-.435.305-.61.682-.394.377.217.682.746.682 1.182zM157.44 61.711c0 .435-.305.611-.682.394-.377-.218-.682-.747-.682-1.182 0-.435.305-.611.682-.394.377.218.682.746.682 1.182zM105.33 14.523c-.118-1.74-.73-3.424-1.597-4.937-.24-.417-.513-.82-.814-1.198l-3.371 1.946c-.891.514-1.7 1.448-2.314 2.547l7.789 4.5c.263-.924.372-1.898.307-2.858zM114.667 2.735c-.608-.352-1.4-.32-2.263.178l-4.24 2.448c2.109.947 4.523 1.344 6.855 1.388 1.71.033 3.496-.125 4.988-.93l-5.34-3.085zM173.808 53.613c-1.681-.003-3.45.12-5.06.581l9.16 5.291c.615-1.1 1.422-2.033 2.314-2.548l2.525-1.458c-2.607-1.546-5.861-1.86-8.94-1.866z" stroke="#33475C" stroke-width="5" stroke-linecap="round" stroke-linejoin="round"/>
        <path d="M176.757 63.557v6.002c3.425-2.982 5.62-7.351 5.893-11.888.04-.665-.005-1.386-.347-1.934l-2.082 1.2c-1.905 1.1-3.464 4.079-3.464 6.62zM187.794 47.211c.108 1.603.605 3.152 1.298 4.605l3.985-2.3c.854-.493 1.637-.53 2.242-.19l.021.011-7.445-4.301c-.106.72-.15 1.449-.1 2.175z" stroke="#33475C" stroke-width="5" stroke-linecap="round" stroke-linejoin="round"/>
        <path d="M195.34 49.337l-.021-.011c-.604-.34-1.388-.303-2.242.19l-4.157 2.4c.514 1.583 1.338 3.067 2.517 4.238 1.363 1.354 3.193 2.259 5.105 2.399v-6.419c0-1.39-.467-2.372-1.202-2.797zM183.493 122.788c-.215-3.677-1.428-7.359-4.048-9.909-.748-.729-1.691-1.36-2.687-1.576v10.756c0 1.39.466 2.372 1.2 2.795.609.352 1.4.322 2.264-.177l3.27-1.889zM196.542 104.303c-2.76 2.207-4.348 5.649-5.302 9.086-.483 1.742-.834 3.559-.738 5.353l2.576-1.487c1.905-1.1 3.464-4.078 3.464-6.62v-6.332zM180.222 56.938l12.855-7.422M112.403 2.912l-12.855 7.422" stroke="#33475C" stroke-width="5" stroke-linecap="round" stroke-linejoin="round"/>
        <path d="M177.96 124.855c.607.352 1.4.32 2.262-.178l12.855-7.422c1.905-1.1 3.465-4.078 3.465-6.62V52.135c0-1.39-.467-2.372-1.202-2.797l-.02-.01c-.606-.34-1.389-.304-2.243.189l-12.855 7.422c-1.906 1.1-3.465 4.078-3.465 6.619v58.502c0 1.39.467 2.372 1.202 2.796" fill="#7D3D40"/>
        <path d="M177.96 124.855c.607.352 1.4.32 2.262-.178l12.855-7.422c1.905-1.1 3.465-4.078 3.465-6.62V52.135c0-1.39-.467-2.372-1.202-2.797l-.02-.01c-.606-.34-1.389-.304-2.243.189l-12.855 7.422c-1.906 1.1-3.465 4.078-3.465 6.619v58.502c0 1.39.467 2.372 1.202 2.796zM97.285 78.252c.608.352 1.4.32 2.263-.178l12.855-7.423c1.905-1.099 3.465-4.078 3.465-6.618V5.531c0-1.39-.467-2.372-1.202-2.797-.608-.35-1.4-.32-2.263.178l-12.855 7.422c-1.906 1.101-3.465 4.08-3.465 6.62v58.501c0 1.391.467 2.372 1.202 2.797z" stroke="#33475C" stroke-linecap="round" stroke-linejoin="round"/>
        <path d="M114.667 2.735c-.608-.352-1.4-.32-2.263.178l-12.856 7.421c-.891.514-1.7 1.448-2.314 2.547l18.634 10.765 62.04 35.84c.615-1.1 1.423-2.033 2.314-2.548l12.856-7.423c.853-.492 1.637-.529 2.242-.189l.02.011-80.673-46.603z" fill="#89474A"/>
        <path d="M114.667 2.735c-.608-.352-1.4-.32-2.263.178l-12.856 7.421c-.891.514-1.7 1.448-2.314 2.547l18.634 10.765 62.04 35.84c.615-1.1 1.423-2.033 2.314-2.548l12.856-7.423c.853-.492 1.637-.529 2.242-.189l.02.011-80.673-46.603z" stroke="#33475C" stroke-linecap="round" stroke-linejoin="round"/>
        <path d="M176.757 122.059V63.557c0-1.352.45-2.822 1.15-4.073v.002l-62.04-35.84-18.633-10.764c-.7 1.25-1.15 2.72-1.15 4.072v58.5c0 1.392.466 2.374 1.2 2.798h.001l80.674 46.603c-.734-.424-1.202-1.406-1.202-2.796" fill="#713336"/>
        <path d="M176.757 122.059V63.557c0-1.352.45-2.822 1.15-4.073v.002l-62.04-35.84-18.633-10.764c-.7 1.25-1.15 2.72-1.15 4.072v58.5c0 1.392.466 2.374 1.2 2.798h.001l80.674 46.603c-.734-.424-1.202-1.406-1.202-2.796z" stroke="#33475C" stroke-linecap="round" stroke-linejoin="round"/>
        <path d="M105.187 7.08l80.674 46.602" stroke="#F6C364" stroke-linecap="round" stroke-linejoin="round"/>
        <path d="M159.144 41.992c1.151.665 3.035.665 4.187 0l1.042-.602 1.042-.6c1.151-.666 1.151-1.753 0-2.418-1.858-1.073-4.473-2.412-4.473-2.412l-5.975 3.45 4.177 2.582z" fill="#89474A"/>
        <path d="M159.144 41.992c1.151.665 3.035.665 4.187 0l1.042-.602 1.042-.6c1.151-.666 1.151-1.753 0-2.418-1.858-1.073-4.473-2.412-4.473-2.412l-5.975 3.45 4.177 2.582z" stroke="#33475C" stroke-linecap="round" stroke-linejoin="round"/>
        <path d="M161.238 37.84c-2.044 0-2.044 1.766-2.044 1.766 0 .302.199.605.597.835.796.46 2.097.46 2.894 0 .398-.23.596-.533.596-.835 0 0 0-1.766-2.043-1.766" fill="#F6C364"/>
        <path d="M131.154 18.514c-1.152-.665-3.036-.665-4.187-.001l-1.042.602-1.041.6c-1.152.666-1.152 1.754 0 2.419 1.857 1.072 4.472 2.41 4.472 2.41l5.975-3.448-4.177-2.582z" fill="#89474A"/>
        <path d="M131.154 18.514c-1.152-.665-3.036-.665-4.187-.001l-1.042.602-1.041.6c-1.152.666-1.152 1.754 0 2.419 1.857 1.072 4.472 2.41 4.472 2.41l5.975-3.448-4.177-2.582z" stroke="#33475C" stroke-linecap="round" stroke-linejoin="round"/>
        <path d="M129.217 19.439c2.044 0 2.044 1.765 2.044 1.765 0 .302-.199.606-.597.836-.796.459-2.098.459-2.894 0-.398-.23-.597-.534-.597-.836 0 0 0-1.765 2.044-1.765M156.955 31.363l-1.988 1.147v6.9l1.988-1.149z" fill="#F6C364"/>
        <path stroke="#33475C" stroke-linecap="round" stroke-linejoin="round" d="M156.955 31.363l-1.988 1.147v6.9l1.988-1.149z"/>
        <path fill="#F6C364" d="M158.954 30.21v6.898l1.988-1.148v-6.898z"/>
        <path stroke="#33475C" stroke-linecap="round" stroke-linejoin="round" d="M158.954 30.21v6.898l1.988-1.148v-6.898z"/>
        <path fill="#F6C364" d="M131.506 16.404l-2.15 1.241v6.9l2.15-1.242z"/>
        <path stroke="#33475C" stroke-linecap="round" stroke-linejoin="round" d="M131.506 16.404l-2.15 1.241v6.9l2.15-1.242z"/>
        <path fill="#F6C364" d="M133.505 15.25v6.9l1.825-1.054v-6.9z"/>
        <path stroke="#33475C" stroke-linecap="round" stroke-linejoin="round" d="M133.505 15.25v6.9l1.825-1.054v-6.9z"/>
        <path d="M162.36 27.005c.044-.415-.038-.847-.278-1.232 0 0-7.059-11.307-15.069-14.687-5.089-2.146-8.573-1.192-8.573-1.192-1.06.29-2.708.977-3.66 1.528l-4.103 2.368c-.953.55-1.732 1.562-1.732 2.247v2c0 .514.501.905 1.212 1.024.14.011.277.033.422.034.116.001.234-.002.355-.015 0 0 .112-.011.301-.02l-.035.008c.014-.002.027-.001.04-.003 0 0 .29-.026.76-.026 1.028 0 3.041.122 4.97.937 7.137 3.01 13.63 11.704 13.694 11.792.974 1.32 2.561 2.11 4.245 2.11.915 0 1.81-.237 2.587-.686l3.923-2.265c.575-.337.916-.917.96-1.529v-2.373l-.02-.02z" fill="#713336"/>
        <path d="M162.36 27.005c.044-.415-.038-.847-.278-1.232 0 0-7.059-11.307-15.069-14.687-5.089-2.146-8.573-1.192-8.573-1.192-1.06.29-2.708.977-3.66 1.528l-4.103 2.368c-.953.55-1.732 1.562-1.732 2.247v2c0 .514.501.905 1.212 1.024.14.011.277.033.422.034.116.001.234-.002.355-.015 0 0 .112-.011.301-.02l-.035.008c.014-.002.027-.001.04-.003 0 0 .29-.026.76-.026 1.028 0 3.041.122 4.97.937 7.137 3.01 13.63 11.704 13.694 11.792.974 1.32 2.561 2.11 4.245 2.11.915 0 1.81-.237 2.587-.686l3.923-2.265c.575-.337.916-.917.96-1.529v-2.373l-.02-.02z" stroke="#33475C" stroke-linecap="round" stroke-linejoin="round"/>
        <path d="M155.746 31.161l5.413-3.125c.343-.198.583-.515.677-.894.095-.377.03-.77-.178-1.104-.07-.112-7.07-11.213-14.84-14.49-4.87-2.057-8.211-1.18-8.246-1.172-1.012.276-2.634.954-3.543 1.478l-4.101 2.37c-.85.49-1.483 1.361-1.483 1.813 0 .033 0 .133.135.255.258.232.77.347 1.304.291.05-.005.468-.046 1.136-.046 1.389 0 3.853.177 6.31 1.214 8.045 3.393 14.863 12.55 15.149 12.936.499.677 1.536.895 2.267.474" fill="#89474A"/>
        <path d="M117.177 16.636l-8.39-4.843c-.476-.275-.416-.76.134-1.078l2.614-1.51c.55-.316 1.39-.351 1.868-.076l8.387 4.843c.476.275.416.76-.134 1.077l-2.614 1.51c-.55.317-1.39.352-1.865.077" fill="#F6C364"/>
        <path d="M117.177 16.636l-8.39-4.843c-.476-.275-.416-.76.134-1.078l2.614-1.51c.55-.316 1.39-.351 1.868-.076l8.387 4.843c.476.275.416.76-.134 1.077l-2.614 1.51c-.55.317-1.39.352-1.865.077z" stroke="#33475C" stroke-linecap="round" stroke-linejoin="round"/>
        <path fill="#F6C364" d="M112.248 12.139l-1.383-.798 1.754-1.013 1.383.798z"/>
        <path stroke="#DCAF59" stroke-linecap="round" stroke-linejoin="round" d="M112.248 12.139l-1.383-.798 1.754-1.013 1.383.798z"/>
        <path fill="#F6C364" d="M115.104 13.788l-1.383-.799 1.754-1.013 1.383.8z"/>
        <path stroke="#DCAF59" stroke-linecap="round" stroke-linejoin="round" d="M115.104 13.788l-1.383-.799 1.754-1.013 1.383.8z"/>
        <path fill="#F6C364" d="M117.96 15.437l-1.383-.798 1.754-1.014 1.383.799z"/>
        <path stroke="#DCAF59" stroke-linecap="round" stroke-linejoin="round" d="M117.96 15.437l-1.383-.798 1.754-1.014 1.383.799z"/>
        <path d="M176.687 51.03l-8.389-4.844c-.476-.274-.416-.76.134-1.077l2.614-1.509c.55-.317 1.39-.352 1.867-.077l8.388 4.843c.476.275.416.76-.134 1.077l-2.614 1.51c-.55.317-1.39.351-1.866.077" fill="#F6C364"/>
        <path d="M176.687 51.03l-8.389-4.844c-.476-.274-.416-.76.134-1.077l2.614-1.509c.55-.317 1.39-.352 1.867-.077l8.388 4.843c.476.275.416.76-.134 1.077l-2.614 1.51c-.55.317-1.39.351-1.866.077z" stroke="#33475C" stroke-linecap="round" stroke-linejoin="round"/>
        <path fill="#F6C364" d="M171.758 46.533l-1.383-.798 1.755-1.014 1.382.8z"/>
        <path stroke="#DCAF59" stroke-linecap="round" stroke-linejoin="round" d="M171.758 46.533l-1.383-.798 1.755-1.014 1.382.8z"/>
        <path fill="#F6C364" d="M174.614 48.183l-1.383-.8 1.754-1.012 1.383.799z"/>
        <path stroke="#DCAF59" stroke-linecap="round" stroke-linejoin="round" d="M174.614 48.183l-1.383-.8 1.754-1.012 1.383.799z"/>
        <path fill="#F6C364" d="M177.47 49.831l-1.383-.799 1.754-1.013 1.383.8z"/>
        <path stroke="#DCAF59" stroke-linecap="round" stroke-linejoin="round" d="M177.47 49.831l-1.383-.799 1.754-1.013 1.383.8z"/>
        <path d="M161.655 115.437c-.701-.442-1.147-1.398-1.147-2.751V54.184c0-1.355.452-2.828 1.156-4.082l-6.991-4.04c-1.034 1.819-1.665 3.94-1.665 5.963v58.417l8.647 4.995z" fill="#7D3D40"/>
        <path d="M161.655 115.437c-.701-.442-1.147-1.398-1.147-2.751V54.184c0-1.355.452-2.828 1.156-4.082l-6.991-4.04c-1.034 1.819-1.665 3.94-1.665 5.963v58.417l8.647 4.995z" stroke="#33475C" stroke-linecap="round" stroke-linejoin="round"/>
        <path d="M120.968 91.933c-.692-.446-1.134-1.396-1.134-2.74V30.692c0-1.358.455-2.83 1.161-4.082l-5.127-2.962-1.865-1.077c-1.036 1.819-1.669 3.943-1.669 5.967v58.409l8.634 4.987z" fill="#89474A"/>
        <path d="M120.968 91.933c-.692-.446-1.134-1.396-1.134-2.74V30.692c0-1.358.455-2.83 1.161-4.082l-5.127-2.962-1.865-1.077c-1.036 1.819-1.669 3.943-1.669 5.967v58.409l8.634 4.987z" stroke="#33475C" stroke-linecap="round" stroke-linejoin="round"/>
        <path d="M122.046 92.547l-.266-.145.258.149.008-.004z" fill="#89474A"/>
        <path d="M122.046 92.547l-.266-.145.258.149.008-.004z" stroke="#33475C" stroke-linecap="round" stroke-linejoin="round"/>
        <path d="M168.809 54.23c-.061 2.192.09 5.962 1.566 8.753 1.328 2.509 4.256 5.332 6.383 7.189v-6.615c0-1.352.449-2.822 1.15-4.073v.002l-9.1-5.256z" fill="#F6C364"/>
        <path d="M168.809 54.23c-.061 2.192.09 5.962 1.566 8.753 1.328 2.509 4.256 5.332 6.383 7.189v-6.615c0-1.352.449-2.822 1.15-4.073v.002l-9.1-5.256z" stroke="#33475C" stroke-linecap="round" stroke-linejoin="round"/>
        <path d="M105.114 17.435l-7.88-4.553c-.7 1.25-1.15 2.72-1.15 4.072v7.57c5.45-.532 7.925-4.232 9.03-7.09" fill="#F6C364"/>
        <path d="M105.114 17.435l-7.88-4.553c-.7 1.25-1.15 2.72-1.15 4.072v7.57c5.45-.532 7.925-4.232 9.03-7.09z" stroke="#33475C" stroke-linecap="round" stroke-linejoin="round"/>
        <path d="M186.861 53.105v67.739" stroke="#F6C364" stroke-linecap="round" stroke-linejoin="round"/>
        <path d="M177.96 124.855c-.736-.424-1.203-1.406-1.203-2.796v-10.631c-2.63.487-7.01 2.05-10.01 6.95l11.212 6.477z" fill="#F6C364"/>
        <path d="M177.96 124.855c-.736-.424-1.203-1.406-1.203-2.796v-10.631c-2.63.487-7.01 2.05-10.01 6.95l11.212 6.477z" stroke="#33475C" stroke-linecap="round" stroke-linejoin="round"/>
        <path d="M96.084 66.9v8.555c0 1.39.467 2.373 1.2 2.797h.002l7.856 4.539c-.12-9.62-6.026-14.182-9.058-15.89" fill="#F6C364"/>
        <path d="M96.084 66.9v8.555c0 1.39.467 2.373 1.2 2.797h.002l7.856 4.539c-.12-9.62-6.026-14.182-9.058-15.89zM98.497 20.175c.071.136.158.265.271.367.248.222.608.294.933.228.325-.067.615-.26.842-.501.465-.5.67-1.242.478-1.898-.28-.966-1.343-1.593-2.152-.825-.684.65-.803 1.815-.372 2.629z" stroke="#33475C" stroke-linecap="round" stroke-linejoin="round"/>
        <path d="M100.662 76.38c-.07.135-.158.265-.27.367-.249.222-.609.293-.934.227-.325-.066-.615-.258-.842-.501-.465-.499-.669-1.242-.478-1.897.281-.966 1.343-1.593 2.152-.826.684.651.803 1.816.372 2.63zM174.525 62.458c-.071.135-.158.265-.271.367-.248.222-.608.293-.933.227-.325-.066-.616-.258-.842-.5-.465-.5-.67-1.243-.478-1.898.28-.966 1.343-1.593 2.152-.826.684.651.803 1.816.372 2.63zM174.087 118.68c-.072.137-.158.267-.272.368-.247.222-.607.294-.933.228-.325-.067-.615-.26-.841-.501-.465-.5-.67-1.242-.48-1.898.282-.966 1.345-1.593 2.153-.825.685.65.803 1.815.373 2.629zM114.48 51.567c-.63-.348-1.26-.696-1.9-1.023-.08-.041-.164-.08-.246-.121v16.946c.414 1.94 1.331 3.774 2.658 5.251.254.282.554.567.932.604.375.037.724-.18 1.025-.407 1.185-.892 2.133-2.043 2.885-3.323V54.526l-5.354-2.959zM155.154 75.502c-.63-.349-1.26-.696-1.9-1.024-.081-.04-.164-.08-.246-.122v16.947c.414 1.941 1.331 3.775 2.658 5.251.254.282.554.568.932.605.375.037.724-.18 1.025-.408 1.185-.892 2.133-2.043 2.885-3.323V78.46l-5.354-2.958z" stroke="#33475C" stroke-linecap="round" stroke-linejoin="round"/>
        <path d="M118.782 53.066l-5.828-3.364v-6.73l5.828 3.365v6.73zm1.39-8.927l-8.608-4.969c-.664-.384-1.208-.07-1.208.698v9.938c0 .769.544 1.71 1.208 2.093l8.608 4.97c.664.384 1.208.07 1.208-.698v-9.939c0-.768-.544-1.709-1.208-2.093z" fill="#F6C364"/>
        <path d="M118.782 53.066l-5.828-3.364v-6.73l5.828 3.365v6.73zm1.39-8.927l-8.608-4.969c-.664-.384-1.208-.07-1.208.698v9.938c0 .769.544 1.71 1.208 2.093l8.608 4.97c.664.384 1.208.07 1.208-.698v-9.939c0-.768-.544-1.709-1.208-2.093z" stroke="#33475C" stroke-linecap="round" stroke-linejoin="round"/>
        <path d="M115.868 49.6c-.83 0-1.5-.672-1.5-1.5v-2.762c0-.828.67-1.5 1.5-1.5.829 0 1.5.672 1.5 1.5V48.1c0 .828-.671 1.5-1.5 1.5" fill="#F6C364"/>
        <path d="M115.868 49.6c-.83 0-1.5-.672-1.5-1.5v-2.762c0-.828.67-1.5 1.5-1.5.829 0 1.5.672 1.5 1.5V48.1c0 .828-.671 1.5-1.5 1.5z" stroke="#33475C" stroke-linecap="round" stroke-linejoin="round"/>
        <path d="M159.765 76.783l-5.828-3.364v-6.73l5.828 3.365v6.73zm1.39-8.927l-8.608-4.969c-.664-.384-1.208-.07-1.208.698v9.938c0 .768.544 1.71 1.208 2.093l8.608 4.97c.664.384 1.208.07 1.208-.698V69.95c0-.768-.544-1.709-1.208-2.093z" fill="#F6C364"/>
        <path d="M159.765 76.783l-5.828-3.364v-6.73l5.828 3.365v6.73zm1.39-8.927l-8.608-4.969c-.664-.384-1.208-.07-1.208.698v9.938c0 .768.544 1.71 1.208 2.093l8.608 4.97c.664.384 1.208.07 1.208-.698V69.95c0-.768-.544-1.709-1.208-2.093z" stroke="#33475C" stroke-linecap="round" stroke-linejoin="round"/>
        <path d="M156.851 73.317c-.829 0-1.5-.672-1.5-1.5v-2.762c0-.829.671-1.5 1.5-1.5.83 0 1.5.671 1.5 1.5v2.761c0 .829-.67 1.5-1.5 1.5" fill="#F6C364"/>
        <path d="M156.851 73.317c-.829 0-1.5-.672-1.5-1.5v-2.762c0-.829.671-1.5 1.5-1.5.83 0 1.5.671 1.5 1.5v2.761c0 .829-.67 1.5-1.5 1.5z" stroke="#33475C" stroke-linecap="round" stroke-linejoin="round"/>
        <path d="M116.55 58.526c0 .435-.306.61-.682.394-.377-.218-.682-.748-.682-1.182 0-.436.305-.61.682-.394.376.217.682.746.682 1.181M116.55 62.403c0 .436-.306.611-.682.395-.377-.218-.682-.748-.682-1.182 0-.435.305-.61.682-.394.376.217.682.746.682 1.181M116.55 66.282c0 .435-.306.611-.682.394-.377-.218-.682-.748-.682-1.182 0-.435.305-.61.682-.394.376.218.682.746.682 1.182M116.55 34.526c0 .435-.306.61-.682.394-.377-.218-.682-.748-.682-1.182 0-.435.305-.61.682-.393.376.216.682.745.682 1.18M116.55 38.403c0 .436-.306.611-.682.395-.377-.218-.682-.748-.682-1.182 0-.435.305-.61.682-.394.376.217.682.746.682 1.181M157.44 81.833c0 .435-.305.611-.682.394-.377-.218-.682-.748-.682-1.182 0-.435.305-.61.682-.394.377.217.682.746.682 1.182M157.44 85.711c0 .435-.305.611-.682.394-.377-.218-.682-.747-.682-1.182 0-.435.305-.611.682-.394.377.218.682.746.682 1.182M157.44 89.589c0 .435-.305.611-.682.394-.377-.218-.682-.747-.682-1.182 0-.435.305-.611.682-.394.377.218.682.746.682 1.182M157.44 57.833c0 .435-.305.611-.682.394-.377-.218-.682-.748-.682-1.182 0-.435.305-.61.682-.394.377.217.682.746.682 1.182M157.44 61.711c0 .435-.305.611-.682.394-.377-.218-.682-.747-.682-1.182 0-.435.305-.611.682-.394.377.218.682.746.682 1.182" fill="#33475C"/>
        <path d="M105.33 14.523c-.118-1.74-.73-3.424-1.597-4.937-.24-.417-.513-.82-.814-1.198l-3.371 1.946c-.891.514-1.7 1.448-2.314 2.547l7.789 4.5c.263-.924.372-1.898.307-2.858" fill="#F6C364"/>
        <path d="M105.33 14.523c-.118-1.74-.73-3.424-1.597-4.937-.24-.417-.513-.82-.814-1.198l-3.371 1.946c-.891.514-1.7 1.448-2.314 2.547l7.789 4.5c.263-.924.372-1.898.307-2.858z" stroke="#33475C" stroke-linecap="round" stroke-linejoin="round"/>
        <path d="M114.667 2.735c-.608-.352-1.4-.32-2.263.178l-4.24 2.448c2.109.947 4.523 1.344 6.855 1.388 1.71.033 3.496-.125 4.988-.93l-5.34-3.085z" fill="#F6C364"/>
        <path d="M114.667 2.735c-.608-.352-1.4-.32-2.263.178l-4.24 2.448c2.109.947 4.523 1.344 6.855 1.388 1.71.033 3.496-.125 4.988-.93l-5.34-3.085z" stroke="#33475C" stroke-linecap="round" stroke-linejoin="round"/>
        <path d="M173.808 53.613c-1.681-.003-3.45.12-5.06.581l9.16 5.291c.615-1.1 1.422-2.033 2.314-2.548l2.525-1.458c-2.607-1.546-5.861-1.86-8.94-1.866" fill="#F6C364"/>
        <path d="M173.808 53.613c-1.681-.003-3.45.12-5.06.581l9.16 5.291c.615-1.1 1.422-2.033 2.314-2.548l2.525-1.458c-2.607-1.546-5.861-1.86-8.94-1.866z" stroke="#33475C" stroke-linecap="round" stroke-linejoin="round"/>
        <path d="M176.757 63.557v6.002c3.425-2.982 5.62-7.351 5.893-11.888.04-.665-.005-1.386-.347-1.934l-2.082 1.2c-1.905 1.1-3.464 4.079-3.464 6.62" fill="#F6C364"/>
        <path d="M176.757 63.557v6.002c3.425-2.982 5.62-7.351 5.893-11.888.04-.665-.005-1.386-.347-1.934l-2.082 1.2c-1.905 1.1-3.464 4.079-3.464 6.62z" stroke="#33475C" stroke-linecap="round" stroke-linejoin="round"/>
        <path d="M187.794 47.211c.108 1.603.605 3.152 1.298 4.605l3.985-2.3c.854-.493 1.637-.53 2.242-.19l.021.011-7.445-4.301c-.106.72-.15 1.449-.1 2.175" fill="#F6C364"/>
        <path d="M187.794 47.211c.108 1.603.605 3.152 1.298 4.605l3.985-2.3c.854-.493 1.637-.53 2.242-.19l.021.011-7.445-4.301c-.106.72-.15 1.449-.1 2.175z" stroke="#33475C" stroke-linecap="round" stroke-linejoin="round"/>
        <path d="M195.34 49.337l-.021-.011c-.604-.34-1.388-.303-2.242.19l-4.157 2.4c.514 1.583 1.338 3.067 2.517 4.238 1.363 1.354 3.193 2.259 5.105 2.399v-6.419c0-1.39-.467-2.372-1.202-2.797" fill="#F6C364"/>
        <path d="M195.34 49.337l-.021-.011c-.604-.34-1.388-.303-2.242.19l-4.157 2.4c.514 1.583 1.338 3.067 2.517 4.238 1.363 1.354 3.193 2.259 5.105 2.399v-6.419c0-1.39-.467-2.372-1.202-2.797z" stroke="#33475C" stroke-linecap="round" stroke-linejoin="round"/>
        <path d="M183.493 122.788c-.215-3.677-1.428-7.359-4.048-9.909-.748-.729-1.691-1.36-2.687-1.576v10.756c0 1.39.466 2.372 1.2 2.795.609.352 1.4.322 2.264-.177l3.27-1.889z" fill="#F6C364"/>
        <path d="M183.493 122.788c-.215-3.677-1.428-7.359-4.048-9.909-.748-.729-1.691-1.36-2.687-1.576v10.756c0 1.39.466 2.372 1.2 2.795.609.352 1.4.322 2.264-.177l3.27-1.889z" stroke="#33475C" stroke-linecap="round" stroke-linejoin="round"/>
        <path d="M196.542 104.303c-2.76 2.207-4.348 5.649-5.302 9.086-.483 1.742-.834 3.559-.738 5.353l2.576-1.487c1.905-1.1 3.464-4.078 3.464-6.62v-6.332z" fill="#F6C364"/>
        <path d="M196.542 104.303c-2.76 2.207-4.348 5.649-5.302 9.086-.483 1.742-.834 3.559-.738 5.353l2.576-1.487c1.905-1.1 3.464-4.078 3.464-6.62v-6.332z" stroke="#33475C" stroke-linecap="round" stroke-linejoin="round"/>
        <g>
            <path d="M180.222 56.938l12.855-7.422" fill="#89474A"/>
            <path d="M180.222 56.938l12.855-7.422" stroke="#33475C" stroke-linecap="round" stroke-linejoin="round"/>
        </g>
        <g>
            <path d="M112.403 2.912l-12.855 7.422" fill="#89474A"/>
            <path d="M112.403 2.912l-12.855 7.422" stroke="#33475C" stroke-linecap="round" stroke-linejoin="round"/>
        </g>
    </g>
</svg>
