<svg width="153" height="207" viewBox="0 0 153 207" xmlns="http://www.w3.org/2000/svg">
    <g fill="none" fill-rule="evenodd">
        <path d="M151.106 163.29c1.213.7 1.82 1.623 1.82 2.547 0 .923-.607 1.846-1.82 2.547l-64.719 37.365c-2.426 1.4-6.396 1.4-8.822 0L1.82 162.018C.606 161.316 0 160.393 0 159.47c0-.922.606-1.846 1.82-2.547l64.72-37.365c2.424-1.402 6.395-1.402 8.82 0l75.746 43.731z" fill-opacity=".2" fill="#FF8F52"/>
        <path d="M148.37 138.796c1.166.673 1.748 1.56 1.748 2.447s-.582 1.774-1.748 2.447l-62.18 35.9c-2.332 1.346-6.147 1.346-8.477 0L4.937 137.573c-1.165-.673-1.748-1.559-1.748-2.447 0-.887.583-1.773 1.748-2.446l62.182-35.9c2.331-1.346 6.145-1.346 8.476 0l72.775 42.016z" stroke="#33475C" stroke-width="5" stroke-linecap="round" stroke-linejoin="round"/>
        <path d="M149.681 142.547c-.292.416-.729.807-1.31 1.143l-31.092 17.95-31.09 17.95c-.774.447-1.72.732-2.713.882-.501.075-1.01.128-1.525.128-1.536 0-3.072-.337-4.237-1.01l-57.397-33.138-15.38-8.879c-.583-.337-1.02-.726-1.31-1.143-.291-.416-.438-.86-.438-1.304v4.894c0 .887.583 1.774 1.748 2.447l72.776 42.017c2.332 1.345 6.146 1.345 8.477 0l62.18-35.9c1.166-.674 1.749-1.56 1.749-2.447v-4.894c0 .444-.145.887-.438 1.304z" stroke="#33475C" stroke-width="5" stroke-linecap="round" stroke-linejoin="round"/>
        <path stroke="#33475C" stroke-width="5" stroke-linecap="round" stroke-linejoin="round" d="M136.333 141.244L81.951 172.64l-64.976-37.514 54.381-31.398z"/>
        <path d="M71.357 103.729s43.21 19.04 69.87 17.939l-54.382 31.398c-26.215 10.686-69.87-17.94-69.87-17.94l54.382-31.397z" stroke="#33475C" stroke-width="5" stroke-linecap="round" stroke-linejoin="round"/>
        <path d="M120.356 115.32c-19.102 2.36-49.16-11.591-49.16-11.591l-54.22 31.398s30.808 20.655 49.16 11.59l2.831-1.64 51.39-29.756M21.18 127.623l36.754-21.22-2.65-5.893-36.754 21.22z" stroke="#33475C" stroke-width="5" stroke-linecap="round" stroke-linejoin="round"/>
        <path d="M61.746 104.12c-.992-.573-1.896-.623-2.555-.242l-36.754 21.22c.66-.38 1.562-.331 2.554.243.02.01.037.026.055.038 1.981 1.178 3.592 4.016 3.592 6.349l36.755-21.22c0-2.356-1.64-5.23-3.647-6.388z" stroke="#33475C" stroke-width="5" stroke-linecap="round" stroke-linejoin="round"/>
        <path d="M24.991 125.34c-.991-.573-1.895-.623-2.553-.242-.674.388-1.093 1.227-1.093 2.418l3.646-2.107v-.069zM81.624 120.576c-.607 7.338-3.197 18.233-12.656 24.502l51.388-29.757c11.805-5.831 14.83-18.115 15.49-26.143l-54.222 31.398zM119.155 124.335c.75.13 1.374.47 1.641.894-2.016.62-4.546 1.41-6.56 2.031l1.182.728c-2.709.715-5.35 1.518-7.907 2.405.764.088 1.458.346 1.91.71-3.302.61-6.397 1.613-9.03 2.93.575.224 1.148.45 1.722.675-2.742.552-5.264 1.486-7.286 2.7.654.141 1.247.37 1.72.664l-3.94.931c-.963.228-1.997.49-2.519 1.011-.522.52-.122 1.354.905 1.393-2.838.782-5.555 1.715-8.103 2.785l2.09.638c.19.454-.742.788-1.508.957l-6.768 1.488c.75.13 1.374.47 1.641.893L72.3 150.03" stroke="#33475C" stroke-width="5" stroke-linecap="round" stroke-linejoin="round"/>
        <path d="M79.1 132.034c-.961.228-2.551.552-3.201.9-1.152.619-1.525.81-.702 1.703-2.84.78-3.364.679-5.912 1.75l2.09.637c.19.454-.777.67-1.507.957-1.967.77-3.486 1.084-6.016 2.044.75.129 1.374.469 1.642.893-2.016.62-4.032 1.24-6.047 1.862M125.448 140.127c-2.015.621-2.53.79-4.544 1.411.394.243.788.485 1.183.73-2.71.713-5.35 1.516-7.907 2.403.763.088 1.457.347 1.908.71-3.3.61-6.395 1.613-9.028 2.93l1.721.675c-2.742.552-5.264 1.487-7.285 2.702.654.14 1.247.368 1.719.663l-3.94.93c-.964.228-1.997.491-2.519 1.011-.522.521-.121 1.355.906 1.394-2.839.781-5.556 1.714-8.104 2.785l2.09.637c.19.455-.742.79-1.507.957l-6.769 1.49c.75.13 1.374.468 1.641.892l-6.046 1.862M44.017 131.477c.863-.633.058-2.189-1.011-2.239-1.07-.05-1.954.824-2.524 1.73-.936 1.488-1.427 3.25-1.397 5.008.008.431.05.876.259 1.254.332.601 1.027.917 1.707 1.012 2.619.367 4.827-1.896 6.29-4.1 2.12-3.196 3.74-6.726 4.78-10.418-3.538 1.513-5.686 5.724-4.833 9.476.175.769.639 1.649 1.428 1.66.673.01 1.153-.623 1.515-1.19l4.319-6.743c-.394.331-.804.684-.985 1.165-.182.483-.04 1.127.435 1.327 1.443-1.383 2.683-2.979 3.668-4.718-.458.581-.686 1.339-.626 2.076l2.706-2.701c-.188.351.225.78.624.767.399-.012.732-.293 1.03-.559l7.007-6.263M47.072 141.595c2.181-.232 4.34-.665 6.441-1.292-.709-.358-1.25-1.033-1.445-1.804 2.86-.793 5.65-1.842 8.321-3.133.155-.075.32-.16.401-.31.455-.834-1.943-1.044-1.605-1.932l8.02-1.939c.435-.105.922-.249 1.128-.647.49-.944-1.103-1.987-.698-2.97 2.123-.466 4.227-1.014 6.307-1.643.31-.094.653-.218.792-.51.348-.736-.92-1.63-.419-2.27 1.151-.225 2.285-.532 3.391-.922" stroke="#33475C" stroke-width="5" stroke-linecap="round" stroke-linejoin="round"/>
        <path d="M148.37 138.796c1.166.673 1.748 1.56 1.748 2.447s-.582 1.774-1.748 2.447l-62.18 35.9c-2.332 1.346-6.147 1.346-8.477 0L4.937 137.573c-1.165-.673-1.748-1.559-1.748-2.447 0-.887.583-1.773 1.748-2.446l62.182-35.9c2.331-1.346 6.145-1.346 8.476 0l72.775 42.016z" fill="#D29B6A"/>
        <path d="M148.37 138.796c1.166.673 1.748 1.56 1.748 2.447s-.582 1.774-1.748 2.447l-62.18 35.9c-2.332 1.346-6.147 1.346-8.477 0L4.937 137.573c-1.165-.673-1.748-1.559-1.748-2.447 0-.887.583-1.773 1.748-2.446l62.182-35.9c2.331-1.346 6.145-1.346 8.476 0l72.775 42.016z" stroke="#33475C" stroke-linecap="round" stroke-linejoin="round"/>
        <path d="M149.681 142.547c-.292.416-.729.807-1.31 1.143l-31.092 17.95-31.09 17.95c-.774.447-1.72.732-2.713.882-.501.075-1.01.128-1.525.128-1.536 0-3.072-.337-4.237-1.01l-57.397-33.138-15.38-8.879c-.583-.337-1.02-.726-1.31-1.143-.291-.416-.438-.86-.438-1.304v4.894c0 .887.583 1.774 1.748 2.447l72.776 42.017c2.332 1.345 6.146 1.345 8.477 0l62.18-35.9c1.166-.674 1.749-1.56 1.749-2.447v-4.894c0 .444-.145.887-.438 1.304" fill="#C78244"/>
        <path d="M149.681 142.547c-.292.416-.729.807-1.31 1.143l-31.092 17.95-31.09 17.95c-.774.447-1.72.732-2.713.882-.501.075-1.01.128-1.525.128-1.536 0-3.072-.337-4.237-1.01l-57.397-33.138-15.38-8.879c-.583-.337-1.02-.726-1.31-1.143-.291-.416-.438-.86-.438-1.304v4.894c0 .887.583 1.774 1.748 2.447l72.776 42.017c2.332 1.345 6.146 1.345 8.477 0l62.18-35.9c1.166-.674 1.749-1.56 1.749-2.447v-4.894c0 .444-.145.887-.438 1.304z" stroke="#33475C" stroke-linecap="round" stroke-linejoin="round"/>
        <path fill="#EAF0F6" d="M136.333 141.244L81.951 172.64l-64.976-37.514 54.381-31.398z"/>
        <path stroke="#33475C" stroke-linecap="round" stroke-linejoin="round" d="M136.333 141.244L81.951 172.64l-64.976-37.514 54.381-31.398z"/>
        <path d="M71.357 103.729s43.21 19.04 69.87 17.939l-54.382 31.398c-26.215 10.686-69.87-17.94-69.87-17.94l54.382-31.397z" fill="#FFF"/>
        <path d="M71.357 103.729s43.21 19.04 69.87 17.939l-54.382 31.398c-26.215 10.686-69.87-17.94-69.87-17.94l54.382-31.397z" stroke="#33475C" stroke-linecap="round" stroke-linejoin="round"/>
        <path d="M120.356 115.32c-19.102 2.36-49.16-11.591-49.16-11.591l-54.22 31.398s30.808 20.655 49.16 11.59l2.831-1.64 51.39-29.756" fill="#FFF"/>
        <path d="M120.356 115.32c-19.102 2.36-49.16-11.591-49.16-11.591l-54.22 31.398s30.808 20.655 49.16 11.59l2.831-1.64 51.39-29.756" stroke="#33475C" stroke-linecap="round" stroke-linejoin="round"/>
        <path fill="#9DB2C9" d="M21.18 127.623l36.754-21.22-2.65-5.893-36.754 21.22z"/>
        <path stroke="#33475C" stroke-linecap="round" stroke-linejoin="round" d="M21.18 127.623l36.754-21.22-2.65-5.893-36.754 21.22z"/>
        <path d="M61.746 104.12c-.992-.573-1.896-.623-2.555-.242l-36.754 21.22c.66-.38 1.562-.331 2.554.243.02.01.037.026.055.038 1.981 1.178 3.592 4.016 3.592 6.349l36.755-21.22c0-2.356-1.64-5.23-3.647-6.388" fill="#CBD6E3"/>
        <path d="M61.746 104.12c-.992-.573-1.896-.623-2.555-.242l-36.754 21.22c.66-.38 1.562-.331 2.554.243.02.01.037.026.055.038 1.981 1.178 3.592 4.016 3.592 6.349l36.755-21.22c0-2.356-1.64-5.23-3.647-6.388z" stroke="#33475C" stroke-linecap="round" stroke-linejoin="round"/>
        <path d="M24.991 125.34c-.991-.573-1.895-.623-2.553-.242-.674.388-1.093 1.227-1.093 2.418l3.646-2.107v-.069z" stroke="#33475C" stroke-linecap="round" stroke-linejoin="round"/>
        <path d="M81.624 120.576c-.607 7.338-3.197 18.233-12.656 24.502l51.388-29.757c11.805-5.831 14.83-18.115 15.49-26.143l-54.222 31.398z" fill="#EFF4F8"/>
        <path d="M81.624 120.576c-.607 7.338-3.197 18.233-12.656 24.502l51.388-29.757c11.805-5.831 14.83-18.115 15.49-26.143l-54.222 31.398zM119.155 124.335c.75.13 1.374.47 1.641.894-2.016.62-4.546 1.41-6.56 2.031l1.182.728c-2.709.715-5.35 1.518-7.907 2.405.764.088 1.458.346 1.91.71-3.302.61-6.397 1.613-9.03 2.93.575.224 1.148.45 1.722.675-2.742.552-5.264 1.486-7.286 2.7.654.141 1.247.37 1.72.664l-3.94.931c-.963.228-1.997.49-2.519 1.011-.522.52-.122 1.354.905 1.393-2.838.782-5.555 1.715-8.103 2.785l2.09.638c.19.454-.742.788-1.508.957l-6.768 1.488c.75.13 1.374.47 1.641.893L72.3 150.03" stroke="#33475C" stroke-linecap="round" stroke-linejoin="round"/>
        <path d="M79.1 132.034c-.961.228-2.551.552-3.201.9-1.152.619-1.525.81-.702 1.703-2.84.78-3.364.679-5.912 1.75l2.09.637c.19.454-.777.67-1.507.957-1.967.77-3.486 1.084-6.016 2.044.75.129 1.374.469 1.642.893-2.016.62-4.032 1.24-6.047 1.862M125.448 140.127c-2.015.621-2.53.79-4.544 1.411.394.243.788.485 1.183.73-2.71.713-5.35 1.516-7.907 2.403.763.088 1.457.347 1.908.71-3.3.61-6.395 1.613-9.028 2.93l1.721.675c-2.742.552-5.264 1.487-7.285 2.702.654.14 1.247.368 1.719.663l-3.94.93c-.964.228-1.997.491-2.519 1.011-.522.521-.121 1.355.906 1.394-2.839.781-5.556 1.714-8.104 2.785l2.09.637c.19.455-.742.79-1.507.957l-6.769 1.49c.75.13 1.374.468 1.641.892l-6.046 1.862M44.017 131.477c.863-.633.058-2.189-1.011-2.239-1.07-.05-1.954.824-2.524 1.73-.936 1.488-1.427 3.25-1.397 5.008.008.431.05.876.259 1.254.332.601 1.027.917 1.707 1.012 2.619.367 4.827-1.896 6.29-4.1 2.12-3.196 3.74-6.726 4.78-10.418-3.538 1.513-5.686 5.724-4.833 9.476.175.769.639 1.649 1.428 1.66.673.01 1.153-.623 1.515-1.19l4.319-6.743c-.394.331-.804.684-.985 1.165-.182.483-.04 1.127.435 1.327 1.443-1.383 2.683-2.979 3.668-4.718-.458.581-.686 1.339-.626 2.076l2.706-2.701c-.188.351.225.78.624.767.399-.012.732-.293 1.03-.559l7.007-6.263M47.072 141.595c2.181-.232 4.34-.665 6.441-1.292-.709-.358-1.25-1.033-1.445-1.804 2.86-.793 5.65-1.842 8.321-3.133.155-.075.32-.16.401-.31.455-.834-1.943-1.044-1.605-1.932l8.02-1.939c.435-.105.922-.249 1.128-.647.49-.944-1.103-1.987-.698-2.97 2.123-.466 4.227-1.014 6.307-1.643.31-.094.653-.218.792-.51.348-.736-.92-1.63-.419-2.27 1.151-.225 2.285-.532 3.391-.922" stroke="#33475C" stroke-linecap="round" stroke-linejoin="round"/>
        <path d="M111.46 9.726C103.13 4.913 92.146 2.503 81.164 2.5v23.816l38.001 12.276c8.32-9.304 5.76-21.083-7.707-28.866z" stroke="#33475C" stroke-width="5" stroke-linecap="round" stroke-linejoin="round"/>
        <path d="M123.924 27.198c0 3.919-1.577 7.838-4.758 11.395v12.65c3.182-3.558 4.78-7.475 4.778-11.395v-12.65h-.02zM119.166 38.592l-38-12.276v12.648l38 12.278z" stroke="#33475C" stroke-width="5" stroke-linecap="round" stroke-linejoin="round"/>
        <path d="M111.46 9.726C103.13 4.913 92.146 2.503 81.164 2.5v23.816l38.001 12.276c8.32-9.304 5.76-21.083-7.707-28.866" fill="#FAE0B5"/>
        <path d="M111.46 9.726C103.13 4.913 92.146 2.503 81.164 2.5v23.816l38.001 12.276c8.32-9.304 5.76-21.083-7.707-28.866z" stroke="#33475C" stroke-linecap="round" stroke-linejoin="round"/>
        <path d="M123.924 27.198c0 3.919-1.577 7.838-4.758 11.395v12.65c3.182-3.558 4.78-7.475 4.778-11.395v-12.65h-.02z" fill="#F9D28C"/>
        <path d="M123.924 27.198c0 3.919-1.577 7.838-4.758 11.395v12.65c3.182-3.558 4.78-7.475 4.778-11.395v-12.65h-.02z" stroke="#33475C" stroke-linecap="round" stroke-linejoin="round"/>
        <path fill="#F9D28C" d="M119.166 38.592l-38-12.276v12.648l38 12.278z"/>
        <path stroke="#33475C" stroke-linecap="round" stroke-linejoin="round" d="M119.166 38.592l-38-12.276v12.648l38 12.278z"/>
        <path d="M71.996 42.22V18.405c-10.975-.004-21.95 2.395-30.278 7.198-13.391 7.723-16 19.4-7.872 28.685l38.15-12.068z" stroke="#33475C" stroke-width="5" stroke-linecap="round" stroke-linejoin="round"/>
        <path d="M29.238 43.102h-.021v12.65c.005 3.843 1.563 7.682 4.629 11.185V54.289c-3.066-3.502-4.6-7.344-4.608-11.187zM33.846 66.937l38.15-12.068V42.22l-38.15 12.069z" stroke="#33475C" stroke-width="5" stroke-linecap="round" stroke-linejoin="round"/>
        <path d="M71.996 42.22V18.405c-10.975-.004-21.95 2.395-30.278 7.198-13.391 7.723-16 19.4-7.872 28.685l38.15-12.068z" fill="#FFC7AA"/>
        <path d="M71.996 42.22V18.405c-10.975-.004-21.95 2.395-30.278 7.198-13.391 7.723-16 19.4-7.872 28.685l38.15-12.068z" stroke="#33475C" stroke-linecap="round" stroke-linejoin="round"/>
        <path d="M29.238 43.102h-.021v12.65c.005 3.843 1.563 7.682 4.629 11.185V54.289c-3.066-3.502-4.6-7.344-4.608-11.187" fill="#FFAB7D"/>
        <path d="M29.238 43.102h-.021v12.65c.005 3.843 1.563 7.682 4.629 11.185V54.289c-3.066-3.502-4.6-7.344-4.608-11.187z" stroke="#33475C" stroke-linecap="round" stroke-linejoin="round"/>
        <path fill="#FFAB7D" d="M33.846 66.937l38.15-12.068V42.22l-38.15 12.069z"/>
        <path stroke="#33475C" stroke-linecap="round" stroke-linejoin="round" d="M33.846 66.937l38.15-12.068V42.22l-38.15 12.069z"/>
        <path d="M117.64 60.706L79.639 48.43 41.489 60.5c1.985 2.267 4.588 4.395 7.857 6.285 16.652 9.624 43.91 9.637 60.571.026 3.188-1.837 5.755-3.903 7.723-6.104z" stroke="#33475C" stroke-width="5" stroke-linecap="round" stroke-linejoin="round"/>
        <path d="M109.917 66.811c-16.662 9.61-43.919 9.598-60.572-.026-3.268-1.89-5.87-4.019-7.857-6.286v12.648c1.986 2.268 4.588 4.397 7.857 6.287 16.653 9.624 43.91 9.637 60.572.027 3.188-1.838 5.754-3.903 7.723-6.104v-12.65c-1.969 2.201-4.535 4.266-7.723 6.104z" stroke="#33475C" stroke-width="5" stroke-linecap="round" stroke-linejoin="round"/>
        <path d="M117.64 60.706L79.639 48.43 41.489 60.5c1.985 2.267 4.588 4.395 7.857 6.285 16.652 9.624 43.91 9.637 60.571.026 3.188-1.837 5.755-3.903 7.723-6.104" fill="#7BDED2"/>
        <path d="M117.64 60.706L79.639 48.43 41.489 60.5c1.985 2.267 4.588 4.395 7.857 6.285 16.652 9.624 43.91 9.637 60.571.026 3.188-1.837 5.755-3.903 7.723-6.104z" stroke="#33475C" stroke-linecap="round" stroke-linejoin="round"/>
        <path d="M109.917 66.811c-16.662 9.61-43.919 9.598-60.572-.026-3.268-1.89-5.87-4.019-7.857-6.286v12.648c1.986 2.268 4.588 4.397 7.857 6.287 16.653 9.624 43.91 9.637 60.572.027 3.188-1.838 5.754-3.903 7.723-6.104v-12.65c-1.969 2.201-4.535 4.266-7.723 6.104" fill="#40CEBB"/>
        <path d="M109.917 66.811c-16.662 9.61-43.919 9.598-60.572-.026-3.268-1.89-5.87-4.019-7.857-6.286v12.648c1.986 2.268 4.588 4.397 7.857 6.287 16.653 9.624 43.91 9.637 60.572.027 3.188-1.838 5.754-3.903 7.723-6.104v-12.65c-1.969 2.201-4.535 4.266-7.723 6.104z" stroke="#33475C" stroke-linecap="round" stroke-linejoin="round"/>
        <path d="M117.64 74.37l-38.076 41.106L41.489 74.37" stroke="#33475C" stroke-linecap="round" stroke-linejoin="round" stroke-dasharray="2,2,0,0"/>
    </g>
</svg>
