<svg width="160" height="183" viewBox="0 0 160 183" xmlns="http://www.w3.org/2000/svg" xmlns:xlink="http://www.w3.org/1999/xlink">
    <defs>
        <path id="a" d="M0 .786h160V92H0z"/>
    </defs>
    <g fill="none" fill-rule="evenodd">
        <g transform="translate(0 90.462)">
            <mask id="b" fill="#fff">
                <use xlink:href="#a"/>
            </mask>
            <path d="M85.06 1.99c-2.784-1.605-7.337-1.605-10.12 0L2.078 44.059c-2.783 1.607-2.769 4.21.031 5.788l72.8 40.972c2.8 1.576 7.381 1.576 10.182 0l72.8-40.972c2.8-1.577 2.814-4.181.031-5.788L85.06 1.99z" fill="#F9D28C" opacity=".5" mask="url(#b)"/>
        </g>
        <path stroke="#33475C" stroke-width="5" stroke-linecap="round" stroke-linejoin="round" d="M144.546 119.235l-5.272 3.044 5.272 3.044 5.272-3.044z"/>
        <path stroke="#33475C" stroke-width="5" stroke-linecap="round" stroke-linejoin="round" d="M149.818 71.84l-5.272 3.045v50.438l5.272-3.044zM144.546 135.323l-5.272-3.044V91.321l5.272-3.044z"/>
        <path stroke="#33475C" stroke-width="5" stroke-linecap="round" stroke-linejoin="round" d="M80 37.619l-69.818 40.31L80 118.238l69.818-40.309zM80 156.5l-5.272 3.045L80 162.589l5.272-3.044zM15.454 119.235l-5.272 3.044 5.272 3.044 5.272-3.044z"/>
        <path stroke="#33475C" stroke-width="5" stroke-linecap="round" stroke-linejoin="round" d="M10.182 71.84l5.272 3.045v50.438l-5.272-3.044zM85.272 109.107v50.438L80 162.588V112.15zM74.728 109.107L80 112.15v50.438l-5.272-3.043z"/>
        <path stroke="#33475C" stroke-width="5" stroke-linecap="round" stroke-linejoin="round" d="M10.182 77.928L80 118.239v54.35l-5.272-3.043V132.5L15.454 98.278v37.045l-5.272-3.043z"/>
        <path stroke="#33475C" stroke-width="5" stroke-linecap="round" stroke-linejoin="round" d="M20.726 132.28l-5.272 3.043V78.277l5.272 3.044zM80 172.589v-54.351l69.818-40.31v54.35l-5.272 3.045V88.277L85.272 122.5v47.045z"/>
        <path stroke="#33475C" stroke-width="5" stroke-linecap="round" stroke-linejoin="round" d="M10.182 71.84L80 112.15v6.088l-69.818-40.31zM149.818 71.84v6.089L80 118.238v-6.087z"/>
        <path stroke="#33475C" stroke-width="5" stroke-linecap="round" stroke-linejoin="round" d="M80 31.531L10.182 71.842 80 112.15l69.818-40.308z"/>
        <path d="M152.332 77.04c-.076-1.637-.218-3.435-1.37-4.601-.749-.756-2.684-1.487-3.917-2.2L80 31.532 10.835 71.464c-2.22.895-3.04 4.124-3.249 6.665l-2.962 36.145c6.412 1.372 12.04 5.087 17.462 8.773 17.952 12.197 35.644 21.938 55.008 31.742 1.18.597 2.42 1.195 3.741 1.18 1.288-.014 2.49-.611 3.63-1.208 24.337-12.741 44.971-28.813 69.562-41.058l-1.695-36.663zM75.677 149l3.054-35.278M82.636 110.629l64.546-37.266M12.818 73.363l64.546 37.266M10.182 77.928l5.272 34.957M149.818 77.928l-3.214 34.68M81.43 116.898l4.321 32.103" stroke="#33475C" stroke-width="5" stroke-linecap="round" stroke-linejoin="round"/>
        <path d="M149.818 71.84l-62.63-36.16L80 31.53 10.836 71.465c-.003 0-.004.003-.007.003l-.647.374L80 112.15l69.818-40.31zM39.258 124.35v-1.479c.002-1.276 1.036-1.712 2.312-.978l2.668 1.541c.634.363 1.24.975 1.673 1.687l.243.14c2.141 1.217 3.97.74 4.363-1.138-.277-.477-.486-.968-.614-1.444-.132-.487-.2-.955-.206-1.39v-3.199c.004-.415.07-.79.196-1.115.198-.564.634-.897 1.228-.937-.012-.229-.037-.464-.073-.705-.766-4.98-5.023-10.53-9.576-12.483-1.763-.794-3.407-.957-4.689-.465-.299.126-.785-.155-1.085-.628-.299-.472-.299-.959.001-1.085l.013-.005c1.508-.588 3.446-.402 5.526.53 5.381 2.304 10.413 8.864 11.314 14.75.065.466.104.922.117 1.363v.046c.016.345-.188.534-.504.468-.407-.079-.714.087-.825.444-.075.21-.11.45-.108.715v3.16c0 .281.044.587.13.905.082.32.241.653.457.961.197.277.3.586.276.826-.322 2.861-2.878 3.704-5.94 1.961l-.615-.354c-.26-.152-.504-.425-.645-.726-.14-.302-.383-.577-.645-.73l-2.668-1.54c-.428-.256-.782-.117-.789.307v1.484c0 .428.348.977.777 1.224l2.668 1.541c.262.148.504.153.645.013.141-.139.384-.13.645.02l.614.354c3.981 2.288 7.277 1.104 7.546-2.714.021-.248.173-.39.403-.382.094.004.186 0 .272-.014.411-.026.666-.326.682-.804.016-1.054.02-2.175 0-3.34-.003-.433-.2-.955-.537-1.419-.182-.256-.284-.54-.276-.773.092-2.942-.99-6.479-3.016-9.856-1.59-2.743-3.747-5.226-6.125-7.054-4.497-3.454-8.289-4.347-11.279-2.663-.325.184-.624.403-.897.656-.236.217-.713.036-1.065-.404-.353-.439-.448-.97-.212-1.187.31-.287.65-.536 1.016-.746 3.375-1.914 7.654-.893 12.72 3 2.71 2.076 5.168 4.9 6.985 8.023 2.216 3.688 3.44 7.552 3.423 10.816.515.84.804 1.722.81 2.472v3.377c-.025.953-.512 1.568-1.31 1.654l-.086.011c-.52 4.304-4.409 5.541-9.042 2.88l-.243-.14c-.432.206-1.033.116-1.66-.247l-2.669-1.54c-1.277-.733-2.317-2.364-2.324-3.645zm-6.957-11.462c-.814-.47-1.474-1.51-1.474-2.324v-6.973c0-.813.66-1.093 1.474-.623l12.588 7.268c.814.47 1.473 1.51 1.473 2.325v6.987c0 .814-.659 1.093-1.473.623l-6.205-3.583c-.204-.117-.399-.149-.543-.089l-2.06.86c-.03.016-.079-.002-.12-.046-.04-.04-.068-.096-.068-.14v-1.443c0-.424-.343-.966-.767-1.21l-2.825-1.632zm3.07 5.503c.615.61 1.323.88 1.793.68l1.843-.78 5.867 3.388c1.66.957 3.007.39 3.01-1.27v-6.97c-.003-1.663-1.35-3.786-3.01-4.747l-12.588-7.268c-1.66-.957-3.007-.387-3.009 1.272v6.988c.002 1.662 1.348 3.785 3.01 4.746l2.06 1.19v.671c.005.667.41 1.496 1.024 2.1z" stroke="#33475C" stroke-width="5" stroke-linecap="round" stroke-linejoin="round"/>
        <path d="M37.038 111.888c.424.243.768.1.768-.325 0-.424-.344-.966-.768-1.21-.424-.245-.768-.1-.768.324 0 .423.344.965.768 1.21zM39.357 112.458c0 .418.334.952.752 1.202.424.244.768.1.768-.324 0-.424-.344-.966-.768-1.211-.424-.245-.768-.1-.768.324l.016.009zM42.445 114.241c0 .418.334.952.752 1.202.424.245.768.1.768-.324 0-.424-.344-.966-.768-1.211-.424-.245-.767-.1-.767.324l.015.009zM34.718 109.78v-.016c-.01-.428-.36-.967-.783-1.204-.424-.245-.768-.099-.768.324 0 .424.344.966.768 1.211.424.245.767.1.767-.325l.016.01zM116.613 101.824c-4.624 3.885-7.53 11.883-6.478 17.829 1.053 5.946 5.67 7.624 10.294 3.739 4.623-3.883 7.529-11.882 6.477-17.828-1.052-5.946-5.67-7.624-10.293-3.74zm4.165 23.538c-5.47 4.594-10.93 2.61-12.174-4.422-1.244-7.032 2.192-16.491 7.66-21.085 5.468-4.593 10.929-2.609 12.174 4.423 1.244 7.032-2.193 16.49-7.66 21.084z" stroke="#33475C" stroke-width="5" stroke-linecap="round" stroke-linejoin="round"/>
        <path d="M119.91 118.629c-2.668 2.24-5.12 1.38-5.156 1.367-.181-.068-.236-.381-.12-.698.115-.317.358-.52.543-.452.176.065 4.378 1.513 7.43-5.34.136-.307.383-.472.552-.367.168.104.194.438.056.746-1.032 2.319-2.188 3.805-3.306 4.744zM116.242 112.642c-.2.17-.406.11-.464-.14-.092-.39-.23-.877-.48-1.167-.225-.258-.525-.32-.8-.165-.255.143-.489.465-.64.71-.5.802-.793 1.843-.764 2.714.01.3-.156.643-.374.772-.218.125-.4-.015-.41-.314-.04-1.219.37-2.673 1.067-3.794.35-.562.73-.968 1.096-1.178.514-.29 1.047-.203 1.425.234.346.397.52 1.001.633 1.483.061.261-.058.63-.266.824l-.023.021zM123.72 107.172c-.2.168-.405.109-.463-.141-.092-.39-.23-.876-.481-1.165-.225-.258-.524-.322-.8-.165-.256.142-.488.465-.64.709-.499.804-.792 1.844-.764 2.715.009.3-.159.637-.374.77-.217.127-.401-.013-.411-.312-.039-1.22.37-2.673 1.069-3.795.349-.56.729-.97 1.094-1.177.516-.291 1.049-.204 1.427.233.345.397.519 1 .633 1.483.061.26-.058.629-.266.824l-.024.02zM82.636 110.629l64.546-37.266M12.818 73.363l64.546 37.266" stroke="#33475C" stroke-width="5" stroke-linecap="round" stroke-linejoin="round"/>
        <path d="M152.332 77.04c-.076-1.637-.218-3.435-1.37-4.601-.749-.756-2.684-1.487-3.917-2.2L80 31.532 10.835 71.464c-2.22.895-3.04 4.124-3.249 6.665l-2.962 36.145c6.412 1.372 12.04 5.087 17.462 8.773 17.952 12.197 35.644 21.938 55.008 31.742 1.18.597 2.42 1.195 3.741 1.18 1.288-.014 2.49-.611 3.63-1.208 24.337-12.741 44.971-28.813 69.562-41.058l-1.695-36.663z" stroke="#33475C" stroke-width="5" stroke-linecap="round" stroke-linejoin="round"/>
        <path d="M129.828 28.844L85 2.963c-.94-.543-1.795-.592-2.414-.234l-3.254 1.879c-.62.357-1.004 1.122-1.004 2.208V40.07c0 2.17 1.538 4.835 3.418 5.92l3.516 2.03 3.795 8.453 3.796-4.07 33.721 19.468c.94.543 1.795.593 2.414.235l3.254-1.878c.62-.36 1.004-1.123 1.004-2.208V34.765c0-2.171-1.538-4.835-3.418-5.921z" stroke="#33475C" stroke-width="5" stroke-linecap="round" stroke-linejoin="round"/>
        <path d="M133.247 34.765c0-2.171-1.54-4.835-3.418-5.921L85 2.963c-.94-.543-1.795-.592-2.415-.234l-3.254 1.879c.62-.36 1.475-.31 2.415.234l44.827 25.88c1.88 1.087 3.419 3.75 3.419 5.922v33.255c0 1.085-.385 1.849-1.004 2.207l3.254-1.878c.619-.36 1.004-1.123 1.004-2.208V34.765z" stroke="#33475C" stroke-width="5" stroke-linecap="round" stroke-linejoin="round"/>
        <path d="M129.828 28.844L85 2.963c-.94-.543-1.795-.592-2.414-.234l-3.254 1.879c-.62.357-1.004 1.122-1.004 2.208V40.07c0 2.17 1.538 4.835 3.418 5.92l3.516 2.03 3.795 8.453 3.796-4.07 33.721 19.468c.94.543 1.795.593 2.414.235l3.254-1.878c.62-.36 1.004-1.123 1.004-2.208V34.765c0-2.171-1.538-4.835-3.418-5.921zM122.444 37.392L85.779 16.223M109.434 37.401L85.779 23.744M121.747 44.654l-7.037-4.062M95.698 44.51l-9.919-5.726M99.716 39.31L85.78 31.263M63.5 18.537c-1.072-.618-2.294-.972-3.622-1.07 1.367 2.007 2.156 4.776 2.156 8.216 0 1.989-.26 4.058-.744 6.142l6.358 3.67c.484-2.083.745-4.152.745-6.141 0-5.328-1.87-9.071-4.894-10.817zM31.763 53.05c0-5.9 4.18-8.312 9.29-5.362 5.108 2.949 9.289 10.189 9.289 16.089 0 5.9-4.181 8.313-9.289 5.363-5.11-2.95-9.29-10.19-9.29-16.09z" stroke="#33475C" stroke-width="5" stroke-linecap="round" stroke-linejoin="round"/>
        <path d="M37.399 48.816c-2.8-1.616-5.342-1.75-7.175-.665l-3.32 1.967 1.19.476c-.507 1.095-.788 2.454-.788 4.05 0 6.41 4.542 14.276 10.093 17.481 1.473.85 2.874 1.287 4.139 1.354l-.285 1.277 3.32-1.966c1.803-1.068 2.919-3.315 2.919-6.493 0-6.41-4.542-14.276-10.093-17.48z" stroke="#33475C" stroke-width="5" stroke-linecap="round" stroke-linejoin="round"/>
        <path d="M23.985 56.61c0-3.178 1.117-5.425 2.918-6.492 1.833-1.085 4.376-.95 7.175.665 5.551 3.205 10.093 11.071 10.093 17.481 0 3.178-1.116 5.425-2.918 6.492-1.833 1.086-4.375.952-7.175-.665-5.55-3.205-10.093-11.07-10.093-17.48z" stroke="#33475C" stroke-width="5" stroke-linecap="round" stroke-linejoin="round"/>
        <path d="M27.463 58.827c0-1.926.625-3.33 1.654-4.084 1.214-.891 2.99-.873 4.962.265 3.638 2.1 6.615 7.257 6.615 11.458 0 1.926-.625 3.33-1.653 4.084-1.215.89-2.992.874-4.962-.264-3.64-2.102-6.616-7.258-6.616-11.459zM60.006 80.816c-.394 0-.778-.199-.997-.56-.334-.55-.158-1.266.392-1.6 4.82-2.923 8.15-6.092 10.18-9.688 2.434-4.307 2.784-9.329.915-13.105-.285-.576-.05-1.275.527-1.56.577-.286 1.275-.049 1.56.527 2.207 4.458 1.835 10.313-.973 15.284-2.232 3.952-5.831 7.398-11.001 10.534-.19.114-.397.168-.603.168z" stroke="#33475C" stroke-width="5" stroke-linecap="round" stroke-linejoin="round"/>
        <path d="M61.203 75.498c-1.167.028-2.177.777-3.1 1.494L55.646 78.9c-.706.548-1.434 1.124-1.828 1.926-.518 1.053-.334 2.4.415 3.305.75.903 2.011 1.335 3.165 1.122 1.092-.201 2.012-.906 2.886-1.59l2.662-2.081c.807-.63 1.677-1.37 1.793-2.388.195-1.71-1.873-3.737-3.536-3.696zM67.646 37.826c-.395 0-.796-.101-1.163-.312l-6.358-3.671c-1.114-.644-1.496-2.069-.853-3.183.644-1.113 2.068-1.496 3.182-.853l6.36 3.672c1.113.643 1.494 2.068.851 3.182-.43.747-1.214 1.165-2.019 1.165z" stroke="#33475C" stroke-width="5" stroke-linecap="round" stroke-linejoin="round"/>
        <path d="M54.052 39.627c0-3.24 1.138-5.532 2.976-6.62 1.869-1.108 4.462-.971 7.317.678 5.661 3.268 10.293 11.29 10.293 17.828 0 3.24-1.138 5.532-2.976 6.62-1.87 1.107-4.463.97-7.317-.678-5.661-3.268-10.293-11.291-10.293-17.828z" stroke="#33475C" stroke-width="5" stroke-linecap="round" stroke-linejoin="round"/>
        <path d="M60.699 36.032c-2.799-1.616-5.342-1.75-7.175-.665-.421.25-.805.563-1.146.94l-2.456 2.704.78 1.351c-.06.475-.096.971-.096 1.497 0 6.41 4.542 14.277 10.093 17.482.454.261.9.477 1.339.663l.78 1.351 3.572-.772c.533-.115 1.03-.309 1.484-.577 1.802-1.068 2.918-3.315 2.918-6.493 0-6.41-4.542-14.276-10.093-17.48z" stroke="#33475C" stroke-width="5" stroke-linecap="round" stroke-linejoin="round"/>
        <path d="M48.29 44.122c0-2.241.604-3.98 1.632-5.11 1.679-1.85 4.49-2.082 7.658-.253 5.109 2.95 9.29 10.19 9.29 16.09 0 3.66-1.61 5.978-4.052 6.506-1.493.323-3.298-.024-5.237-1.143-5.11-2.95-9.29-10.191-9.29-16.09z" stroke="#33475C" stroke-width="5" stroke-linecap="round" stroke-linejoin="round"/>
        <path d="M52.949 46.959c0-2.953 2.092-4.161 4.649-2.685 2.558 1.477 4.65 5.1 4.65 8.053 0 2.953-2.092 4.16-4.65 2.685-2.557-1.477-4.649-5.101-4.649-8.053zM57.14 14.866c-3.024-1.746-7.2-1.494-11.815 1.17-9.228 5.328-16.709 18.286-16.709 28.941 0 1.989.261 3.756.745 5.282l6.36 3.671c-.485-1.526-.747-3.293-.747-5.282 0-10.655 7.481-23.613 16.71-28.94 2.98-1.721 5.771-2.422 8.194-2.241 1.268.093 2.435.427 3.47.995l-6.208-3.596z" stroke="#33475C" stroke-width="5" stroke-linecap="round" stroke-linejoin="round"/>
        <path d="M34.553 55.483c-.395 0-.795-.1-1.162-.312l-6.359-3.67c-1.114-.645-1.496-2.069-.853-3.183.644-1.114 2.068-1.497 3.182-.853l6.359 3.671c1.114.644 1.496 2.068.853 3.182-.432.747-1.215 1.165-2.02 1.165zM51.684 19.708c2.98-1.721 5.77-2.422 8.194-2.241 1.268.094 2.435.428 3.47.995l-6.207-3.596c-3.024-1.746-7.201-1.494-11.815 1.17-6.32 3.649-11.816 10.875-14.656 18.488l6.326 3.754c2.83-7.644 8.346-14.91 14.688-18.57zM121.449 51.556l-17.338-10.01M121.99 59.69l-21.917-12.653M100.323 82.65L81.899 72.012c-.53-.305-.463-.843.149-1.197l14.988-8.653c.61-.353 1.544-.392 2.074-.086l18.424 10.636c.529.306.462.845-.15 1.2l-14.987 8.652c-.611.353-1.545.392-2.074.086z" stroke="#33475C" stroke-width="5" stroke-linecap="round" stroke-linejoin="round"/>
        <path d="M117.534 72.713L99.109 62.076c-.296-.172-.721-.23-1.144-.19l-1.434 11.53c-.059.466.554.82 1.36.786l19.974-.827c.069-.245-.034-.49-.331-.662z" stroke="#33475C" stroke-width="5" stroke-linecap="round" stroke-linejoin="round"/>
        <path d="M102.655 74.005l-4.763.197c-.807.034-1.42-.32-1.362-.786l.342-2.75-15.289.634c-.1.262-.003.529.316.713l18.423 10.638c.32.183.783.24 1.235.18l1.098-8.826zM81.602 102.226l-14.05-8.11c-.831-.48-.831-1.266 0-1.745l18.37-10.607c.83-.478 2.189-.478 3.02 0l14.05 8.112c.83.48.83 1.265 0 1.745l-18.37 10.605c-.831.48-2.19.48-3.02 0zM85.706 84.914l11.832 6.83M82.531 86.747l10.161 5.866M79.356 88.58l11.832 6.83M73.006 92.247l11.832 6.83M76.181 90.414l10.161 5.866" stroke="#33475C" stroke-width="5" stroke-linecap="round" stroke-linejoin="round"/>
        <path stroke="#33475C" stroke-linecap="round" stroke-linejoin="round" d="M144.546 119.235l-5.272 3.044 5.272 3.044 5.272-3.044z"/>
        <path stroke="#33475C" stroke-linecap="round" stroke-linejoin="round" d="M149.818 71.84l-5.272 3.045v50.438l5.272-3.044z"/>
        <path fill="#DDB48F" d="M144.546 135.323l-5.272-3.044V91.321l5.272-3.044z"/>
        <path stroke="#33475C" stroke-linecap="round" stroke-linejoin="round" d="M144.546 135.323l-5.272-3.044V91.321l5.272-3.044z"/>
        <path fill="#C78244" d="M80 37.619l-69.818 40.31L80 118.238l69.818-40.309z"/>
        <path stroke="#33475C" stroke-linecap="round" stroke-linejoin="round" d="M80 37.619l-69.818 40.31L80 118.238l69.818-40.309zM80 156.5l-5.272 3.045L80 162.589l5.272-3.044zM15.454 119.235l-5.272 3.044 5.272 3.044 5.272-3.044z"/>
        <path stroke="#33475C" stroke-linecap="round" stroke-linejoin="round" d="M10.182 71.84l5.272 3.045v50.438l-5.272-3.044zM85.272 109.107v50.438L80 162.588V112.15zM74.728 109.107L80 112.15v50.438l-5.272-3.043z"/>
        <path fill="#DDB48F" d="M10.182 77.928L80 118.239v54.35l-5.272-3.043V132.5L15.454 98.278v37.046l-5.272-3.044z"/>
        <path stroke="#33475C" stroke-linecap="round" stroke-linejoin="round" d="M10.182 77.928L80 118.239v54.35l-5.272-3.043V132.5L15.454 98.278v37.046l-5.272-3.044z"/>
        <path fill="#D29B6A" d="M20.726 132.28l-5.272 3.043V78.277l5.272 3.044z"/>
        <path stroke="#33475C" stroke-linecap="round" stroke-linejoin="round" d="M20.726 132.28l-5.272 3.043V78.277l5.272 3.044z"/>
        <path fill="#D29B6A" d="M80 172.589v-54.351l69.818-40.31v54.35l-5.272 3.045V88.277L85.272 122.5v47.045z"/>
        <path stroke="#33475C" stroke-linecap="round" stroke-linejoin="round" d="M80 172.589v-54.351l69.818-40.31v54.35l-5.272 3.045V88.277L85.272 122.5v47.045z"/>
        <path fill="#C78244" d="M10.182 71.84L80 112.15v6.088l-69.818-40.31z"/>
        <path stroke="#33475C" stroke-linecap="round" stroke-linejoin="round" d="M10.182 71.84L80 112.15v6.088l-69.818-40.31z"/>
        <path fill="#C78244" d="M149.818 71.84v6.089L80 118.238v-6.087z"/>
        <path stroke="#33475C" stroke-linecap="round" stroke-linejoin="round" d="M149.818 71.84v6.089L80 118.238v-6.087z"/>
        <path fill="#D29B6A" d="M80 31.531L10.182 71.842 80 112.15l69.818-40.308z"/>
        <path stroke="#33475C" stroke-linecap="round" stroke-linejoin="round" d="M80 31.531L10.182 71.842 80 112.15l69.818-40.308z"/>
        <path d="M152.332 77.04c-.076-1.637-.218-3.435-1.37-4.601-.749-.756-2.684-1.487-3.917-2.2L80 31.532 10.835 71.464c-2.22.895-3.04 4.124-3.249 6.665l-2.962 36.145c6.412 1.372 12.04 5.087 17.462 8.773 17.952 12.197 35.644 21.938 55.008 31.742 1.18.597 2.42 1.195 3.741 1.18 1.288-.014 2.49-.611 3.63-1.208 24.337-12.741 44.971-28.813 69.562-41.058l-1.695-36.663" fill="#BFEDE8"/>
        <path d="M75.677 149l3.054-35.278" fill="#CBD6E3"/>
        <path d="M75.677 149l3.054-35.278" stroke="#7BDED2" stroke-linecap="round" stroke-linejoin="round"/>
        <path d="M82.636 110.629l64.546-37.266" fill="#D29B6A"/>
        <path d="M82.636 110.629l64.546-37.266" stroke="#7BDED2" stroke-linecap="round" stroke-linejoin="round"/>
        <path d="M12.818 73.363l64.546 37.266" fill="#D29B6A"/>
        <path d="M12.818 73.363l64.546 37.266" stroke="#7BDED2" stroke-linecap="round" stroke-linejoin="round"/>
        <path d="M10.182 77.928l5.272 34.956" fill="#D29B6A"/>
        <path d="M10.182 77.928l5.272 34.956" stroke="#7BDED2" stroke-linecap="round" stroke-linejoin="round"/>
        <path d="M149.818 77.928l-3.214 34.68" fill="#D29B6A"/>
        <path d="M149.818 77.928l-3.214 34.68" stroke="#7BDED2" stroke-linecap="round" stroke-linejoin="round"/>
        <path d="M81.43 116.898l4.321 32.103" fill="#CBD6E3"/>
        <path d="M81.43 116.898l4.321 32.103" stroke="#7BDED2" stroke-linecap="round" stroke-linejoin="round"/>
        <path d="M149.818 71.84l-62.63-36.16L80 31.53 10.836 71.465c-.003 0-.004.003-.007.003l-.647.374L80 112.15l69.818-40.31z" fill="#E4F8F6"/>
        <path d="M39.258 124.35v-1.479c.002-1.276 1.036-1.712 2.312-.978l2.668 1.541c.634.363 1.24.975 1.673 1.687l.243.14c2.141 1.217 3.97.74 4.363-1.138-.277-.477-.486-.968-.614-1.444-.132-.487-.2-.955-.206-1.39v-3.199c.004-.415.07-.79.196-1.115.198-.564.634-.897 1.228-.937-.012-.229-.037-.464-.073-.705-.766-4.98-5.023-10.53-9.576-12.483-1.763-.794-3.407-.957-4.689-.465-.299.126-.785-.155-1.085-.628-.299-.472-.299-.959.001-1.085l.013-.005c1.508-.588 3.446-.402 5.526.53 5.381 2.304 10.413 8.864 11.314 14.75.065.466.104.922.117 1.363v.046c.016.345-.188.534-.504.468-.407-.079-.714.087-.825.444-.075.21-.11.45-.108.715v3.16c0 .281.044.587.13.905.082.32.241.653.457.961.197.277.3.586.276.826-.322 2.861-2.878 3.704-5.94 1.961l-.615-.354c-.26-.152-.504-.425-.645-.726-.14-.302-.383-.577-.645-.73l-2.668-1.54c-.428-.256-.782-.117-.789.307v1.484c0 .428.348.977.777 1.224l2.668 1.541c.262.148.504.153.645.013.141-.139.384-.13.645.02l.614.354c3.981 2.288 7.277 1.104 7.546-2.714.021-.248.173-.39.403-.382.094.004.186 0 .272-.014.411-.026.666-.326.682-.804.016-1.054.02-2.175 0-3.34-.003-.433-.2-.955-.537-1.419-.182-.256-.284-.54-.276-.773.092-2.942-.99-6.479-3.016-9.856-1.59-2.743-3.747-5.226-6.125-7.054-4.497-3.454-8.289-4.347-11.279-2.663-.325.184-.624.403-.897.656-.236.217-.713.036-1.065-.404-.353-.439-.448-.97-.212-1.187.31-.287.65-.536 1.016-.746 3.375-1.914 7.654-.893 12.72 3 2.71 2.076 5.168 4.9 6.985 8.023 2.216 3.688 3.44 7.552 3.423 10.816.515.84.804 1.722.81 2.472v3.377c-.025.953-.512 1.568-1.31 1.654l-.086.011c-.52 4.304-4.409 5.541-9.042 2.88l-.243-.14c-.432.206-1.033.116-1.66-.247l-2.669-1.54c-1.277-.733-2.317-2.364-2.324-3.645zm-6.957-11.462c-.814-.47-1.474-1.51-1.474-2.324v-6.973c0-.813.66-1.093 1.474-.623l12.588 7.268c.814.47 1.473 1.51 1.473 2.325v6.987c0 .814-.659 1.093-1.473.623l-6.205-3.583c-.204-.117-.399-.149-.543-.089l-2.06.86c-.03.016-.079-.002-.12-.046-.04-.04-.068-.096-.068-.14v-1.443c0-.424-.343-.966-.767-1.21l-2.825-1.632zm3.07 5.503c.615.61 1.323.88 1.793.68l1.843-.78 5.867 3.388c1.66.957 3.007.39 3.01-1.27v-6.97c-.003-1.663-1.35-3.786-3.01-4.747l-12.588-7.268c-1.66-.957-3.007-.387-3.009 1.272v6.988c.002 1.662 1.348 3.785 3.01 4.746l2.06 1.19v.671c.005.667.41 1.496 1.024 2.1z" fill="#7BDED2"/>
        <path d="M37.038 111.888c.424.243.768.1.768-.325 0-.424-.344-.966-.768-1.21-.424-.245-.768-.1-.768.324 0 .423.344.965.768 1.21M39.357 112.458c0 .418.334.952.752 1.202.424.244.768.1.768-.324 0-.424-.344-.966-.768-1.211-.424-.245-.768-.1-.768.324l.016.009zM42.445 114.241c0 .418.334.952.752 1.202.424.245.768.1.768-.324 0-.424-.344-.966-.768-1.211-.424-.245-.767-.1-.767.324l.015.009zM34.718 109.78v-.016c-.01-.428-.36-.967-.783-1.204-.424-.245-.768-.099-.768.324 0 .424.344.966.768 1.211.424.245.767.1.767-.325l.016.01zM116.613 101.824c-4.624 3.885-7.53 11.883-6.478 17.829 1.053 5.946 5.67 7.624 10.294 3.739 4.623-3.883 7.529-11.882 6.477-17.828-1.052-5.946-5.67-7.624-10.293-3.74m4.165 23.538c-5.47 4.594-10.93 2.61-12.174-4.422-1.244-7.032 2.192-16.491 7.66-21.085 5.468-4.593 10.929-2.609 12.174 4.423 1.244 7.032-2.193 16.49-7.66 21.084" fill="#7BDED2"/>
        <path d="M119.91 118.629c-2.668 2.24-5.12 1.38-5.156 1.367-.181-.068-.236-.381-.12-.698.115-.317.358-.52.543-.452.176.065 4.378 1.513 7.43-5.34.136-.307.383-.472.552-.367.168.104.194.438.056.746-1.032 2.319-2.188 3.805-3.306 4.744M116.242 112.642c-.2.17-.406.11-.464-.14-.092-.39-.23-.877-.48-1.167-.225-.258-.525-.32-.8-.165-.255.143-.489.465-.64.71-.5.802-.793 1.843-.764 2.714.01.3-.156.643-.374.772-.218.125-.4-.015-.41-.314-.04-1.219.37-2.673 1.067-3.794.35-.562.73-.968 1.096-1.178.514-.29 1.047-.203 1.425.234.346.397.52 1.001.633 1.483.061.261-.058.63-.266.824l-.023.021M123.72 107.172c-.2.168-.405.109-.463-.141-.092-.39-.23-.876-.481-1.165-.225-.258-.524-.322-.8-.165-.256.142-.488.465-.64.709-.499.804-.792 1.844-.764 2.715.009.3-.159.637-.374.77-.217.127-.401-.013-.411-.312-.039-1.22.37-2.673 1.069-3.795.349-.56.729-.97 1.094-1.177.516-.291 1.049-.204 1.427.233.345.397.519 1 .633 1.483.061.26-.058.629-.266.824l-.024.02" fill="#7BDED2"/>
        <path d="M82.636 110.629l64.546-37.266" fill="#D29B6A"/>
        <path d="M82.636 110.629l64.546-37.266" stroke="#7BDED2" stroke-linecap="round" stroke-linejoin="round"/>
        <path d="M12.818 73.363l64.546 37.266" fill="#D29B6A"/>
        <path d="M12.818 73.363l64.546 37.266" stroke="#7BDED2" stroke-linecap="round" stroke-linejoin="round"/>
        <path d="M152.332 77.04c-.076-1.637-.218-3.435-1.37-4.601-.749-.756-2.684-1.487-3.917-2.2L80 31.532 10.835 71.464c-2.22.895-3.04 4.124-3.249 6.665l-2.962 36.145c6.412 1.372 12.04 5.087 17.462 8.773 17.952 12.197 35.644 21.938 55.008 31.742 1.18.597 2.42 1.195 3.741 1.18 1.288-.014 2.49-.611 3.63-1.208 24.337-12.741 44.971-28.813 69.562-41.058l-1.695-36.663z" stroke="#33475C" stroke-linecap="round" stroke-linejoin="round"/>
        <path d="M129.828 28.844L85 2.963c-.94-.543-1.795-.592-2.414-.234l-3.254 1.879c-.62.357-1.004 1.122-1.004 2.208V40.07c0 2.17 1.538 4.835 3.418 5.92l3.516 2.03 3.795 8.453 3.796-4.07 33.721 19.468c.94.543 1.795.593 2.414.235l3.254-1.878c.62-.36 1.004-1.123 1.004-2.208V34.765c0-2.171-1.538-4.835-3.418-5.921" fill="#FDEDF2"/>
        <path d="M129.828 28.844L85 2.963c-.94-.543-1.795-.592-2.414-.234l-3.254 1.879c-.62.357-1.004 1.122-1.004 2.208V40.07c0 2.17 1.538 4.835 3.418 5.92l3.516 2.03 3.795 8.453 3.796-4.07 33.721 19.468c.94.543 1.795.593 2.414.235l3.254-1.878c.62-.36 1.004-1.123 1.004-2.208V34.765c0-2.171-1.538-4.835-3.418-5.921z" stroke="#33475C" stroke-linecap="round" stroke-linejoin="round"/>
        <path d="M133.247 34.765c0-2.171-1.54-4.835-3.418-5.921L85 2.963c-.94-.543-1.795-.592-2.415-.234l-3.254 1.879c.62-.36 1.475-.31 2.415.234l44.827 25.88c1.88 1.087 3.419 3.75 3.419 5.922v33.255c0 1.085-.385 1.849-1.004 2.207l3.254-1.878c.619-.36 1.004-1.123 1.004-2.208V34.765z" fill="#FBA9BE"/>
        <path d="M129.828 28.844L85 2.963c-.94-.543-1.795-.592-2.414-.234l-3.254 1.879c-.62.357-1.004 1.122-1.004 2.208V40.07c0 2.17 1.538 4.835 3.418 5.92l3.516 2.03 3.795 8.453 3.796-4.07 33.721 19.468c.94.543 1.795.593 2.414.235l3.254-1.878c.62-.36 1.004-1.123 1.004-2.208V34.765c0-2.171-1.538-4.835-3.418-5.921z" stroke="#33475C" stroke-linecap="round" stroke-linejoin="round"/>
        <path d="M122.444 37.392L85.779 16.223M109.434 37.401L85.779 23.744M121.747 44.654l-7.037-4.062M95.698 44.51l-9.919-5.726M99.716 39.31L85.78 31.263" stroke="#FBA9BE" stroke-width="2" stroke-linecap="round"/>
        <path d="M63.5 18.537c-1.072-.618-2.294-.972-3.622-1.07 1.367 2.007 2.156 4.776 2.156 8.216 0 1.989-.26 4.058-.744 6.142l6.358 3.67c.484-2.083.745-4.152.745-6.141 0-5.328-1.87-9.071-4.894-10.817" fill="#98ACC3"/>
        <path d="M63.5 18.537c-1.072-.618-2.294-.972-3.622-1.07 1.367 2.007 2.156 4.776 2.156 8.216 0 1.989-.26 4.058-.744 6.142l6.358 3.67c.484-2.083.745-4.152.745-6.141 0-5.328-1.87-9.071-4.894-10.817z" stroke="#33475C" stroke-linecap="round" stroke-linejoin="round"/>
        <path d="M31.763 53.05c0-5.9 4.18-8.312 9.29-5.362 5.108 2.949 9.289 10.189 9.289 16.089 0 5.9-4.181 8.313-9.289 5.363-5.11-2.95-9.29-10.19-9.29-16.09" fill="#98ACC3"/>
        <path d="M31.763 53.05c0-5.9 4.18-8.312 9.29-5.362 5.108 2.949 9.289 10.189 9.289 16.089 0 5.9-4.181 8.313-9.289 5.363-5.11-2.95-9.29-10.19-9.29-16.09z" stroke="#33475C" stroke-linecap="round" stroke-linejoin="round"/>
        <path d="M37.399 48.816c-2.8-1.616-5.342-1.75-7.175-.665l-3.32 1.967 1.19.476c-.507 1.095-.788 2.454-.788 4.05 0 6.41 4.542 14.276 10.093 17.481 1.473.85 2.874 1.287 4.139 1.354l-.285 1.277 3.32-1.966c1.803-1.068 2.919-3.315 2.919-6.493 0-6.41-4.542-14.276-10.093-17.48" fill="#7B97B7"/>
        <path d="M37.399 48.816c-2.8-1.616-5.342-1.75-7.175-.665l-3.32 1.967 1.19.476c-.507 1.095-.788 2.454-.788 4.05 0 6.41 4.542 14.276 10.093 17.481 1.473.85 2.874 1.287 4.139 1.354l-.285 1.277 3.32-1.966c1.803-1.068 2.919-3.315 2.919-6.493 0-6.41-4.542-14.276-10.093-17.48z" stroke="#33475C" stroke-linecap="round" stroke-linejoin="round"/>
        <path d="M23.985 56.61c0-3.178 1.117-5.425 2.918-6.492 1.833-1.085 4.376-.95 7.175.665 5.551 3.205 10.093 11.071 10.093 17.481 0 3.178-1.116 5.425-2.918 6.492-1.833 1.086-4.375.952-7.175-.665-5.55-3.205-10.093-11.07-10.093-17.48" fill="#98ACC3"/>
        <path d="M23.985 56.61c0-3.178 1.117-5.425 2.918-6.492 1.833-1.085 4.376-.95 7.175.665 5.551 3.205 10.093 11.071 10.093 17.481 0 3.178-1.116 5.425-2.918 6.492-1.833 1.086-4.375.952-7.175-.665-5.55-3.205-10.093-11.07-10.093-17.48z" stroke="#33475C" stroke-linecap="round" stroke-linejoin="round"/>
        <path d="M27.463 58.827c0-1.926.625-3.33 1.654-4.084 1.214-.891 2.99-.873 4.962.265 3.638 2.1 6.615 7.257 6.615 11.458 0 1.926-.625 3.33-1.653 4.084-1.215.89-2.992.874-4.962-.264-3.64-2.102-6.616-7.258-6.616-11.459" fill="#7B97B7"/>
        <path d="M27.463 58.827c0-1.926.625-3.33 1.654-4.084 1.214-.891 2.99-.873 4.962.265 3.638 2.1 6.615 7.257 6.615 11.458 0 1.926-.625 3.33-1.653 4.084-1.215.89-2.992.874-4.962-.264-3.64-2.102-6.616-7.258-6.616-11.459z" stroke="#33475C" stroke-linecap="round" stroke-linejoin="round"/>
        <path d="M60.006 80.816c-.394 0-.778-.199-.997-.56-.334-.55-.158-1.266.392-1.6 4.82-2.923 8.15-6.092 10.18-9.688 2.434-4.307 2.784-9.329.915-13.105-.285-.576-.05-1.275.527-1.56.577-.286 1.275-.049 1.56.527 2.207 4.458 1.835 10.313-.973 15.284-2.232 3.952-5.831 7.398-11.001 10.534-.19.114-.397.168-.603.168" fill="#98ACC3"/>
        <path d="M60.006 80.816c-.394 0-.778-.199-.997-.56-.334-.55-.158-1.266.392-1.6 4.82-2.923 8.15-6.092 10.18-9.688 2.434-4.307 2.784-9.329.915-13.105-.285-.576-.05-1.275.527-1.56.577-.286 1.275-.049 1.56.527 2.207 4.458 1.835 10.313-.973 15.284-2.232 3.952-5.831 7.398-11.001 10.534-.19.114-.397.168-.603.168z" stroke="#33475C" stroke-linecap="round" stroke-linejoin="round"/>
        <path d="M61.203 75.498c-1.167.028-2.177.777-3.1 1.494L55.646 78.9c-.706.548-1.434 1.124-1.828 1.926-.518 1.053-.334 2.4.415 3.305.75.903 2.011 1.335 3.165 1.122 1.092-.201 2.012-.906 2.886-1.59l2.662-2.081c.807-.63 1.677-1.37 1.793-2.388.195-1.71-1.873-3.737-3.536-3.696" fill="#98ACC3"/>
        <path d="M61.203 75.498c-1.167.028-2.177.777-3.1 1.494L55.646 78.9c-.706.548-1.434 1.124-1.828 1.926-.518 1.053-.334 2.4.415 3.305.75.903 2.011 1.335 3.165 1.122 1.092-.201 2.012-.906 2.886-1.59l2.662-2.081c.807-.63 1.677-1.37 1.793-2.388.195-1.71-1.873-3.737-3.536-3.696z" stroke="#33475C" stroke-linecap="round" stroke-linejoin="round"/>
        <path d="M67.646 37.826c-.395 0-.796-.101-1.163-.312l-6.358-3.671c-1.114-.644-1.496-2.069-.853-3.183.644-1.113 2.068-1.496 3.182-.853l6.36 3.672c1.113.643 1.494 2.068.851 3.182-.43.747-1.214 1.165-2.019 1.165" fill="#7B97B7"/>
        <path d="M67.646 37.826c-.395 0-.796-.101-1.163-.312l-6.358-3.671c-1.114-.644-1.496-2.069-.853-3.183.644-1.113 2.068-1.496 3.182-.853l6.36 3.672c1.113.643 1.494 2.068.851 3.182-.43.747-1.214 1.165-2.019 1.165z" stroke="#33475C" stroke-linecap="round" stroke-linejoin="round"/>
        <path d="M54.052 39.627c0-3.24 1.138-5.532 2.976-6.62 1.869-1.108 4.462-.971 7.317.678 5.661 3.268 10.293 11.29 10.293 17.828 0 3.24-1.138 5.532-2.976 6.62-1.87 1.107-4.463.97-7.317-.678-5.661-3.268-10.293-11.291-10.293-17.828" fill="#98ACC3"/>
        <path d="M54.052 39.627c0-3.24 1.138-5.532 2.976-6.62 1.869-1.108 4.462-.971 7.317.678 5.661 3.268 10.293 11.29 10.293 17.828 0 3.24-1.138 5.532-2.976 6.62-1.87 1.107-4.463.97-7.317-.678-5.661-3.268-10.293-11.291-10.293-17.828z" stroke="#33475C" stroke-linecap="round" stroke-linejoin="round"/>
        <path d="M60.699 36.032c-2.799-1.616-5.342-1.75-7.175-.665-.421.25-.805.563-1.146.94l-2.456 2.704.78 1.351c-.06.475-.096.971-.096 1.497 0 6.41 4.542 14.277 10.093 17.482.454.261.9.477 1.339.663l.78 1.351 3.572-.772c.533-.115 1.03-.309 1.484-.577 1.802-1.068 2.918-3.315 2.918-6.493 0-6.41-4.542-14.276-10.093-17.48" fill="#98ACC3"/>
        <path d="M60.699 36.032c-2.799-1.616-5.342-1.75-7.175-.665-.421.25-.805.563-1.146.94l-2.456 2.704.78 1.351c-.06.475-.096.971-.096 1.497 0 6.41 4.542 14.277 10.093 17.482.454.261.9.477 1.339.663l.78 1.351 3.572-.772c.533-.115 1.03-.309 1.484-.577 1.802-1.068 2.918-3.315 2.918-6.493 0-6.41-4.542-14.276-10.093-17.48z" stroke="#33475C" stroke-linecap="round" stroke-linejoin="round"/>
        <path d="M48.29 44.122c0-2.241.604-3.98 1.632-5.11 1.679-1.85 4.49-2.082 7.658-.253 5.109 2.95 9.29 10.19 9.29 16.09 0 3.66-1.61 5.978-4.052 6.506-1.493.323-3.298-.024-5.237-1.143-5.11-2.95-9.29-10.191-9.29-16.09" fill="#7B97B7"/>
        <path d="M48.29 44.122c0-2.241.604-3.98 1.632-5.11 1.679-1.85 4.49-2.082 7.658-.253 5.109 2.95 9.29 10.19 9.29 16.09 0 3.66-1.61 5.978-4.052 6.506-1.493.323-3.298-.024-5.237-1.143-5.11-2.95-9.29-10.191-9.29-16.09z" stroke="#33475C" stroke-linecap="round" stroke-linejoin="round"/>
        <path d="M52.949 46.959c0-2.953 2.092-4.161 4.649-2.685 2.558 1.477 4.65 5.1 4.65 8.053 0 2.953-2.092 4.16-4.65 2.685-2.557-1.477-4.649-5.101-4.649-8.053" fill="#98ACC3"/>
        <path d="M52.949 46.959c0-2.953 2.092-4.161 4.649-2.685 2.558 1.477 4.65 5.1 4.65 8.053 0 2.953-2.092 4.16-4.65 2.685-2.557-1.477-4.649-5.101-4.649-8.053z" stroke="#33475C" stroke-linecap="round" stroke-linejoin="round"/>
        <path d="M57.14 14.866c-3.024-1.746-7.2-1.494-11.815 1.17-9.228 5.328-16.709 18.286-16.709 28.941 0 1.989.261 3.756.745 5.282l6.36 3.671c-.485-1.526-.747-3.293-.747-5.282 0-10.655 7.481-23.613 16.71-28.94 2.98-1.721 5.771-2.422 8.194-2.241 1.268.093 2.435.427 3.47.995l-6.208-3.596z" fill="#98ACC3"/>
        <path d="M57.14 14.866c-3.024-1.746-7.2-1.494-11.815 1.17-9.228 5.328-16.709 18.286-16.709 28.941 0 1.989.261 3.756.745 5.282l6.36 3.671c-.485-1.526-.747-3.293-.747-5.282 0-10.655 7.481-23.613 16.71-28.94 2.98-1.721 5.771-2.422 8.194-2.241 1.268.093 2.435.427 3.47.995l-6.208-3.596z" stroke="#33475C" stroke-linecap="round" stroke-linejoin="round"/>
        <path d="M34.553 55.483c-.395 0-.795-.1-1.162-.312l-6.359-3.67c-1.114-.645-1.496-2.069-.853-3.183.644-1.114 2.068-1.497 3.182-.853l6.359 3.671c1.114.644 1.496 2.068.853 3.182-.432.747-1.215 1.165-2.02 1.165" fill="#7B97B7"/>
        <path d="M34.553 55.483c-.395 0-.795-.1-1.162-.312l-6.359-3.67c-1.114-.645-1.496-2.069-.853-3.183.644-1.114 2.068-1.497 3.182-.853l6.359 3.671c1.114.644 1.496 2.068.853 3.182-.432.747-1.215 1.165-2.02 1.165z" stroke="#33475C" stroke-linecap="round" stroke-linejoin="round"/>
        <path d="M51.684 19.708c2.98-1.721 5.77-2.422 8.194-2.241 1.268.094 2.435.428 3.47.995l-6.207-3.596c-3.024-1.746-7.201-1.494-11.815 1.17-6.32 3.649-11.816 10.875-14.656 18.488l6.326 3.754c2.83-7.644 8.346-14.91 14.688-18.57" fill="#7B97B7"/>
        <path d="M51.684 19.708c2.98-1.721 5.77-2.422 8.194-2.241 1.268.094 2.435.428 3.47.995l-6.207-3.596c-3.024-1.746-7.201-1.494-11.815 1.17-6.32 3.649-11.816 10.875-14.656 18.488l6.326 3.754c2.83-7.644 8.346-14.91 14.688-18.57z" stroke="#33475C" stroke-linecap="round" stroke-linejoin="round"/>
        <path d="M121.449 51.556l-17.338-10.01M121.99 59.69l-21.917-12.653" stroke="#FBA9BE" stroke-width="2" stroke-linecap="round"/>
        <path d="M100.323 82.65L81.899 72.012c-.53-.305-.463-.843.149-1.197l14.988-8.653c.61-.353 1.544-.392 2.074-.086l18.424 10.636c.529.306.462.845-.15 1.2l-14.987 8.652c-.611.353-1.545.392-2.074.086" fill="#E6EFF6"/>
        <path d="M100.323 82.65L81.899 72.012c-.53-.305-.463-.843.149-1.197l14.988-8.653c.61-.353 1.544-.392 2.074-.086l18.424 10.636c.529.306.462.845-.15 1.2l-14.987 8.652c-.611.353-1.545.392-2.074.086z" stroke="#33475C"/>
        <path d="M117.534 72.713L99.109 62.076c-.296-.172-.721-.23-1.144-.19l-1.434 11.53c-.059.466.554.82 1.36.786l19.974-.827c.069-.245-.034-.49-.331-.662" fill="#FFF"/>
        <path d="M117.534 72.713L99.109 62.076c-.296-.172-.721-.23-1.144-.19l-1.434 11.53c-.059.466.554.82 1.36.786l19.974-.827c.069-.245-.034-.49-.331-.662z" stroke="#33475C"/>
        <path d="M102.655 74.005l-4.763.197c-.807.034-1.42-.32-1.362-.786l.342-2.75-15.289.634c-.1.262-.003.529.316.713l18.423 10.638c.32.183.783.24 1.235.18l1.098-8.826z" fill="#D4E7F7"/>
        <path d="M102.655 74.005l-4.763.197c-.807.034-1.42-.32-1.362-.786l.342-2.75-15.289.634c-.1.262-.003.529.316.713l18.423 10.638c.32.183.783.24 1.235.18l1.098-8.826z" stroke="#33475C"/>
        <path d="M81.602 102.226l-14.05-8.11c-.831-.48-.831-1.266 0-1.745l18.37-10.607c.83-.478 2.189-.478 3.02 0l14.05 8.112c.83.48.83 1.265 0 1.745l-18.37 10.605c-.831.48-2.19.48-3.02 0" fill="#FFF"/>
        <path d="M81.602 102.226l-14.05-8.11c-.831-.48-.831-1.266 0-1.745l18.37-10.607c.83-.478 2.189-.478 3.02 0l14.05 8.112c.83.48.83 1.265 0 1.745l-18.37 10.605c-.831.48-2.19.48-3.02 0z" stroke="#33475C" stroke-linecap="round" stroke-linejoin="round"/>
        <path d="M85.706 84.914l11.832 6.83M82.531 86.747l10.161 5.866M79.356 88.58l11.832 6.83M73.006 92.247l11.832 6.83M76.181 90.414l10.161 5.866" stroke="#FBC8AB" stroke-linecap="round" stroke-linejoin="round"/>
    </g>
</svg>
