<svg width="109" height="155" viewBox="0 0 109 155" xmlns="http://www.w3.org/2000/svg">
    <g fill="none" fill-rule="evenodd">
        <path d="M108.649 125.926l-.001-.022c-.014-.161-.057-.315-.124-.466-.011-.024-.017-.047-.028-.07-.069-.134-.163-.261-.276-.384-.028-.033-.046-.066-.077-.095-.148-.146-.322-.281-.535-.405l-.002-.002-55.03-31.772c-.214-.123-.452-.224-.705-.31-.052-.017-.109-.03-.162-.044-.215-.065-.436-.12-.668-.16l-.12-.015c-.262-.04-.531-.065-.807-.072l-.04-.001c-.303-.008-.61.004-.918.033h-.001c-.988.094-1.974.364-2.775.826L1.614 118.814c-.986.568-1.481 1.299-1.494 1.994-.001.032.003.06.003.093.007.148.036.293.089.434.016.045.031.088.052.13.062.13.147.253.248.372.036.043.064.087.104.128.152.152.33.296.551.424l.002.002 55.03 31.77c.222.129.472.232.736.32.071.024.148.039.221.06.207.059.42.108.643.143.075.013.151.02.228.03.246.03.496.048.752.05.054.002.106.004.16.004 1.205-.008 2.469-.294 3.455-.863l44.767-25.846c1.051-.608 1.545-1.397 1.488-2.133" fill="#C2F3ED"/>
        <path d="M98.45 49.576l-14.8-3.828M83.231 58.85l-3.507-6.04M85.463 62.696l-.505-.87M85.588 36.541l-1.965 1.141M92.971 32.255l-4.429 2.571" stroke="#33475C" stroke-linecap="round" stroke-linejoin="round"/>
        <path d="M56.093 130.23L4.26 100.304c-1.49-.86-1.301-2.376.419-3.37l42.165-24.343c1.72-.993 4.346-1.101 5.835-.242l51.832 29.926c1.49.859 1.3 2.376-.42 3.369l-42.164 24.344c-1.72.993-4.345 1.1-5.835.242z" stroke="#33475C" stroke-width="5" stroke-linecap="round" stroke-linejoin="round"/>
        <path d="M104.512 102.275L52.68 72.349c-.836-.482-2.03-.65-3.222-.536l-4.034 32.44c-.163 1.31 1.561 2.305 3.83 2.21l56.187-2.33c.196-.686-.093-1.376-.929-1.858z" stroke="#33475C" stroke-width="5" stroke-linecap="round" stroke-linejoin="round"/>
        <path d="M62.654 105.908l-13.4.555c-2.269.094-3.993-.9-3.83-2.21l.962-7.738L3.373 98.3c-.285.734-.008 1.488.887 2.005l51.833 29.925c.895.517 2.2.677 3.473.512l3.088-24.833z" stroke="#33475C" stroke-width="5" stroke-linecap="round" stroke-linejoin="round"/>
        <path d="M56.093 130.23L4.26 100.304c-1.49-.86-1.301-2.376.419-3.37l42.165-24.343c1.72-.993 4.346-1.101 5.835-.242l51.832 29.926c1.49.859 1.3 2.376-.42 3.369l-42.164 24.344c-1.72.993-4.345 1.1-5.835.242" fill="#E6EFF6"/>
        <path d="M56.093 130.23L4.26 100.304c-1.49-.86-1.301-2.376.419-3.37l42.165-24.343c1.72-.993 4.346-1.101 5.835-.242l51.832 29.926c1.49.859 1.3 2.376-.42 3.369l-42.164 24.344c-1.72.993-4.345 1.1-5.835.242z" stroke="#33475C"/>
        <path d="M104.512 102.275L52.68 72.349c-.836-.482-2.03-.65-3.222-.536l-4.034 32.44c-.163 1.31 1.561 2.305 3.83 2.21l56.187-2.33c.196-.686-.093-1.376-.929-1.858" fill="#FFF"/>
        <path d="M104.512 102.275L52.68 72.349c-.836-.482-2.03-.65-3.222-.536l-4.034 32.44c-.163 1.31 1.561 2.305 3.83 2.21l56.187-2.33c.196-.686-.093-1.376-.929-1.858z" stroke="#33475C"/>
        <path d="M62.654 105.908l-13.4.555c-2.269.094-3.993-.9-3.83-2.21l.962-7.738L3.373 98.3c-.285.734-.008 1.488.887 2.005l51.833 29.925c.895.517 2.2.677 3.473.512l3.088-24.833z" fill="#D4E7F7"/>
        <path d="M62.654 105.908l-13.4.555c-2.269.094-3.993-.9-3.83-2.21l.962-7.738L3.373 98.3c-.285.734-.008 1.488.887 2.005l51.833 29.925c.895.517 2.2.677 3.473.512l3.088-24.833z" stroke="#33475C"/>
        <path d="M54.429 95.96V58.951" fill="#FFF"/>
        <path d="M54.429 95.96V58.951" stroke="#33475C" stroke-linecap="round" stroke-linejoin="round" stroke-dasharray="2,3,0,0"/>
        <path d="M54.417 57.843c-.672 0-1.332-.177-1.914-.512l-2.808-1.621h-3.24c-1.364 0-2.634-.734-3.317-1.913l-1.62-2.81-2.808-1.62c-1.18-.677-1.914-1.951-1.914-3.316v-3.24l-1.62-2.808c-.683-1.184-.68-2.65-.002-3.827l1.622-2.81v-3.241c0-1.366.734-2.637 1.918-3.317l2.804-1.62 1.62-2.807c.683-1.182 1.953-1.915 3.316-1.915h3.241l2.807-1.62c.582-.335 1.243-.513 1.915-.513.672 0 1.333.178 1.916.515l2.806 1.618h3.241c1.365 0 2.637.735 3.317 1.919l1.618 2.804 2.81 1.62c1.178.679 1.913 1.95 1.913 3.316v3.24l1.622 2.81c.682 1.178.682 2.647 0 3.83l-1.62 2.804v3.24c0 1.366-.737 2.64-1.918 3.318l-2.805 1.62-1.62 2.807c-.684 1.182-1.954 1.916-3.317 1.916h-3.24l-2.808 1.62c-.577.335-1.24.513-1.915.513" fill="#00BEA5"/>
        <path d="M54.417 57.843c-.672 0-1.332-.177-1.914-.512l-2.808-1.621h-3.24c-1.364 0-2.634-.734-3.317-1.913l-1.62-2.81-2.808-1.62c-1.18-.677-1.914-1.951-1.914-3.316v-3.24l-1.62-2.808c-.683-1.184-.68-2.65-.002-3.827l1.622-2.81v-3.241c0-1.366.734-2.637 1.918-3.317l2.804-1.62 1.62-2.807c.683-1.182 1.953-1.915 3.316-1.915h3.241l2.807-1.62c.582-.335 1.243-.513 1.915-.513.672 0 1.333.178 1.916.515l2.806 1.618h3.241c1.365 0 2.637.735 3.317 1.919l1.618 2.804 2.81 1.62c1.178.679 1.913 1.95 1.913 3.316v3.24l1.622 2.81c.682 1.178.682 2.647 0 3.83l-1.62 2.804v3.24c0 1.366-.737 2.64-1.918 3.318l-2.805 1.62-1.62 2.807c-.684 1.182-1.954 1.916-3.317 1.916h-3.24l-2.808 1.62c-.577.335-1.24.513-1.915.513" stroke="#33475C" stroke-linecap="round" stroke-linejoin="round"/>
        <path d="M54.417 57.843c-.672 0-1.332-.177-1.914-.512l-2.808-1.621h-3.24c-1.364 0-2.634-.734-3.317-1.913l-1.62-2.81-2.808-1.62c-1.18-.677-1.914-1.951-1.914-3.316v-3.24l-1.62-2.808c-.683-1.184-.68-2.65-.002-3.827l1.622-2.81v-3.241c0-1.366.734-2.637 1.918-3.317l2.804-1.62 1.62-2.807c.683-1.182 1.953-1.915 3.316-1.915h3.241l2.807-1.62c.582-.335 1.243-.513 1.915-.513.672 0 1.333.178 1.916.515l2.806 1.618h3.241c1.365 0 2.637.735 3.317 1.919l1.618 2.804 2.81 1.62c1.178.679 1.913 1.95 1.913 3.316v3.24l1.622 2.81c.682 1.178.682 2.647 0 3.83l-1.62 2.804v3.24c0 1.366-.737 2.64-1.918 3.318l-2.805 1.62-1.62 2.807c-.684 1.182-1.954 1.916-3.317 1.916h-3.24l-2.808 1.62c-.577.335-1.24.513-1.915.513" fill="#00BEA5"/>
        <path d="M54.417 57.843c-.672 0-1.332-.177-1.914-.512l-2.808-1.621h-3.24c-1.364 0-2.634-.734-3.317-1.913l-1.62-2.81-2.808-1.62c-1.18-.677-1.914-1.951-1.914-3.316v-3.24l-1.62-2.808c-.683-1.184-.68-2.65-.002-3.827l1.622-2.81v-3.241c0-1.366.734-2.637 1.918-3.317l2.804-1.62 1.62-2.807c.683-1.182 1.953-1.915 3.316-1.915h3.241l2.807-1.62c.582-.335 1.243-.513 1.915-.513.672 0 1.333.178 1.916.515l2.806 1.618h3.241c1.365 0 2.637.735 3.317 1.919l1.618 2.804 2.81 1.62c1.178.679 1.913 1.95 1.913 3.316v3.24l1.622 2.81c.682 1.178.682 2.647 0 3.83l-1.62 2.804v3.24c0 1.366-.737 2.64-1.918 3.318l-2.805 1.62-1.62 2.807c-.684 1.182-1.954 1.916-3.317 1.916h-3.24l-2.808 1.62c-.577.335-1.24.513-1.915.513" stroke="#33475C" stroke-width="3" stroke-linecap="round" stroke-linejoin="round"/>
        <path d="M65.904 12.6c5.407 1.349 6.48 2.44 7.804 7.943 1.325-5.502 2.398-6.594 7.805-7.942-5.407-1.348-6.48-2.44-7.805-7.942-1.324 5.502-2.397 6.594-7.804 7.942" fill="#97D1DE"/>
        <path d="M18.755 18.679c6.223 1.55 7.458 2.809 8.981 9.14 1.525-6.331 2.76-7.59 8.983-9.14-6.223-1.551-7.458-2.81-8.983-9.14-1.523 6.33-2.758 7.589-8.98 9.14" fill="#FB0"/>
        <path d="M29.57 5.491c3.217.802 3.856 1.452 4.643 4.725.788-3.273 1.427-3.923 4.643-4.725-3.216-.8-3.855-1.45-4.643-4.724-.787 3.273-1.426 3.923-4.642 4.724" fill="#FF8F52"/>
        <path d="M51.86 46.066c-.47 0-.91-.182-1.243-.516l-4.585-4.585c-.331-.331-.515-.771-.515-1.242 0-.47.183-.913.515-1.245.685-.684 1.8-.684 2.487 0l3.342 3.342 8.455-8.453c.684-.687 1.8-.688 2.487-.002.686.685.686 1.8 0 2.487l-9.7 9.698c-.326.328-.778.516-1.242.516" fill="#FFF"/>
    </g>
</svg>
