<svg width="86" height="97" viewBox="0 0 86 97" xmlns="http://www.w3.org/2000/svg" xmlns:xlink="http://www.w3.org/1999/xlink">
    <defs>
        <path id="a" d="M0 .325h85.381V49H0z"/>
    </defs>
    <g fill="none" fill-rule="evenodd">
        <g transform="translate(0 47.142)">
            <mask id="b" fill="#fff">
                <use xlink:href="#a"/>
            </mask>
            <path d="M45.39.968c-1.484-.857-3.915-.857-5.4 0L1.108 23.416c-1.485.858-1.477 2.247.017 3.09l38.849 21.863c1.495.841 3.939.841 5.434 0l38.847-21.864c1.495-.842 1.502-2.23.017-3.089L45.39.968z" fill="#00A4BF" opacity=".2" mask="url(#b)"/>
        </g>
        <path d="M14.451 13.783c2.718 3.625 3.098 8.784 1.175 12.888-1.923 4.102-5.983 7.063-10.435 7.91 3.73 1.197 6.61 4.181 8.005 7.843 1.396 3.662 1.036 7.949-.953 11.325-.52.886-1.58 2.264-2.49 2.737 4.224-1.64 9.296-.616 12.729 2.34 3.434 2.957 5.192 7.664 4.81 12.18 2.156-3.272 5.805-5.24 9.707-5.598 3.902-.357 8.234.935 10.951 3.758.712.739 2.002 2.127 2.214 3.132.053-4.532 2.893-8.855 6.917-10.94 4.025-2.082 9.048-1.958 13.096.08-2.232-3.22-2.697-7.341-1.575-11.094 1.123-3.754 4.144-6.672 7.608-8.501 1.242-.656 2.97-1.443 3.98-1.266-4.35-1.27-8.041-4.463-8.965-8.9-.922-4.436.55-9.24 3.603-12.588-3.704 1.28-7.797.619-11.11-1.473-3.313-2.092-5.597-5.737-6.033-9.632-.114-1.02-.138-2.54.305-3.466-2.62 3.698-7.973 6.072-12.467 5.495-4.495-.575-8.556-3.534-10.725-7.512.002 3.918-1.959 7.57-5.017 10.02-3.058 2.449-7.37 3.342-11.131 2.688-1.012-.176-3.467-.705-4.198-1.426" stroke="#33475C" stroke-width="5" stroke-linecap="round" stroke-linejoin="round"/>
        <path d="M47.336 59.145C35.486 61.784 23.7 54.29 21.06 42.442c-2.64-11.85 4.854-23.636 16.704-26.275 11.85-2.638 23.637 4.856 26.275 16.705 2.639 11.848-4.855 23.634-16.704 26.273z" stroke="#33475C" stroke-width="5" stroke-linecap="round" stroke-linejoin="round"/>
        <path d="M14.451 13.783c2.718 3.625 3.098 8.784 1.175 12.888-1.923 4.103-5.983 7.063-10.435 7.91 3.73 1.197 6.61 4.181 8.005 7.843 1.396 3.662 1.036 7.949-.952 11.325-.521.886-1.58 2.264-2.49 2.737 4.224-1.64 9.295-.616 12.728 2.34 3.434 2.958 5.192 7.665 4.81 12.18 2.157-3.272 5.806-5.24 9.708-5.598 3.902-.358 8.234.934 10.95 3.758.713.739 2.002 2.127 2.215 3.132.052-4.532 2.893-8.855 6.917-10.94 4.025-2.082 9.048-1.958 13.095.08-2.232-3.22-2.697-7.341-1.575-11.094 1.122-3.754 4.143-6.672 7.608-8.501 1.242-.656 2.97-1.443 3.98-1.266-4.35-1.27-8.041-4.463-8.965-8.9-.922-4.436.55-9.24 3.603-12.588-3.704 1.28-7.797.619-11.11-1.473-3.313-2.092-5.597-5.737-6.033-9.632-.114-1.02-.138-2.54.305-3.466-2.62 3.698-7.973 6.072-12.467 5.495-4.495-.575-8.556-3.534-10.725-7.512.003 3.918-1.958 7.57-5.016 10.02-3.06 2.449-7.37 3.342-11.132 2.688-1.012-.176-3.467-.705-4.198-1.426" fill="#FEF8F0"/>
        <path d="M14.451 13.783c2.718 3.625 3.098 8.784 1.175 12.888-1.923 4.103-5.983 7.063-10.435 7.91 3.73 1.197 6.61 4.181 8.005 7.843 1.396 3.662 1.036 7.949-.952 11.325-.521.886-1.58 2.264-2.49 2.737 4.224-1.64 9.295-.616 12.728 2.34 3.434 2.958 5.192 7.665 4.81 12.18 2.157-3.272 5.806-5.24 9.708-5.598 3.902-.358 8.234.934 10.95 3.758.713.739 2.002 2.127 2.215 3.132.052-4.532 2.893-8.855 6.917-10.94 4.025-2.082 9.048-1.958 13.095.08-2.232-3.22-2.697-7.341-1.575-11.094 1.122-3.754 4.143-6.672 7.608-8.501 1.242-.656 2.97-1.443 3.98-1.266-4.35-1.27-8.041-4.463-8.965-8.9-.922-4.436.55-9.24 3.603-12.588-3.704 1.28-7.797.619-11.11-1.473-3.313-2.092-5.597-5.737-6.033-9.632-.114-1.02-.138-2.54.305-3.466-2.62 3.698-7.973 6.072-12.467 5.495-4.495-.575-8.556-3.534-10.725-7.512.003 3.918-1.958 7.57-5.016 10.02-3.06 2.449-7.37 3.342-11.132 2.688-1.012-.176-3.467-.705-4.198-1.426" stroke="#33475C" stroke-linecap="round" stroke-linejoin="round"/>
        <path d="M47.336 59.145C35.486 61.784 23.7 54.29 21.06 42.442c-2.64-11.85 4.854-23.636 16.704-26.275 11.85-2.638 23.637 4.856 26.275 16.705 2.639 11.848-4.855 23.634-16.704 26.273" fill="#F9D28C"/>
        <path d="M40.13 37.128c.24.626.736 1.266 1.407 1.255.61-.01 1.088-.588 1.198-1.187.11-.599-.058-1.21-.23-1.795-.256-.872-.985-2.635-2.147-1.834-.909.628-.544 2.74-.229 3.561" fill="#33475C"/>
        <path d="M40.13 37.128c.24.626.736 1.266 1.407 1.255.61-.01 1.088-.588 1.198-1.187.11-.599-.058-1.21-.23-1.795-.256-.872-.985-2.635-2.147-1.834-.909.628-.544 2.74-.229 3.561z" stroke="#33475C" stroke-linecap="round" stroke-linejoin="round"/>
        <path d="M53.98 33.723c.24.627.737 1.267 1.408 1.255.609-.01 1.088-.587 1.198-1.187.11-.598-.058-1.21-.23-1.795-.255-.871-.985-2.634-2.147-1.833-.91.627-.543 2.74-.23 3.56" fill="#33475C"/>
        <path d="M53.98 33.723c.24.627.737 1.267 1.408 1.255.609-.01 1.088-.587 1.198-1.187.11-.598-.058-1.21-.23-1.795-.255-.871-.985-2.634-2.147-1.833-.91.627-.543 2.74-.23 3.56z" stroke="#33475C" stroke-linecap="round" stroke-linejoin="round"/>
        <path d="M55.39 40.96c.208 2.026.269 4.026-.5 5.913-.77 1.888-2.588 3.484-4.624 3.397-1.616-.07-3.045-1.17-3.93-2.526-.472-.725-1.457-4.187-1.457-4.187s1.31-.342 2.52-.614c.724-.162 7.583-1.907 7.992-1.984" fill="#FEF8F0"/>
        <path d="M55.39 40.96c.208 2.026.269 4.026-.5 5.913-.77 1.888-2.588 3.484-4.624 3.397-1.616-.07-3.045-1.17-3.93-2.526-.472-.725-1.457-4.187-1.457-4.187s1.31-.342 2.52-.614c.724-.162 7.583-1.907 7.992-1.984z" stroke="#33475C" stroke-linecap="round" stroke-linejoin="round"/>
        <g fill="#FFF">
            <path d="M36.475 9.918l1.327 6.778M54.487 11.488l-2.501 6.917M68.236 22.822l-6.583 4.75M72.57 40.155l-8.668-.333M58.57 51.738l5.916 4.667M47.32 58.488l1.357 7.07M29.945 64.492l2.708-8.088M16.32 52.672l7.25-4.268M12.736 35.077l8.583.578M20.344 18.905l5.392 5.083"/>
        </g>
    </g>
</svg>
