<svg width="126" height="124" viewBox="0 0 126 124" xmlns="http://www.w3.org/2000/svg">
    <g fill="none" fill-rule="evenodd">
        <path d="M123.562 87.884c.992.572 1.487 1.326 1.487 2.081 0 .755-.495 1.51-1.487 2.082L70.661 122.59c-1.983 1.145-5.228 1.145-7.211 0L1.537 86.843c-.992-.572-1.488-1.327-1.488-2.08 0-.756.496-1.51 1.488-2.083l52.9-30.542c1.983-1.146 5.229-1.146 7.211 0l61.914 35.746z" fill-opacity=".5" fill="#F9D28C"/>
        <path d="M121.17 61.864c.952.55 1.428 1.274 1.428 2 0 .725-.476 1.45-1.429 2L70.343 95.209c-1.905 1.099-5.023 1.099-6.928 0L3.93 60.864c-.953-.55-1.429-1.274-1.429-2 0-.725.476-1.45 1.43-2l50.825-29.345c1.905-1.1 5.023-1.1 6.928 0l59.486 34.345z" stroke="#33475C" stroke-width="5" stroke-linecap="round" stroke-linejoin="round"/>
        <path d="M122.241 64.93c-.238.34-.595.658-1.072.934L95.756 80.535 70.343 95.208c-.633.366-1.405.598-2.218.721-.409.062-.825.104-1.246.104-1.256 0-2.512-.275-3.464-.825L16.5 68.121 3.93 60.864c-.478-.275-.835-.594-1.073-.935-.238-.34-.357-.703-.357-1.065v4c0 .725.476 1.45 1.43 2l59.485 34.344c1.905 1.1 5.023 1.1 6.928 0l50.826-29.344c.953-.55 1.43-1.276 1.43-2v-4c0 .362-.12.724-.358 1.065z" stroke="#33475C" stroke-width="5" stroke-linecap="round" stroke-linejoin="round"/>
        <path stroke="#33475C" stroke-width="5" stroke-linecap="round" stroke-linejoin="round" d="M111.33 63.864L66.88 89.528 13.767 58.864 58.22 33.2z"/>
        <path d="M58.22 33.2s35.32 15.563 57.11 14.664L70.88 73.528C49.45 82.263 13.768 58.864 13.768 58.864L58.22 33.2z" stroke="#33475C" stroke-width="5" stroke-linecap="round" stroke-linejoin="round"/>
        <path d="M98.271 42.674C82.657 44.604 58.088 33.2 58.088 33.2l-44.32 25.664s25.183 16.884 40.183 9.475l2.316-1.34 42.004-24.324M17.205 52.73l30.043-17.345-2.166-4.816L15.04 47.914z" stroke="#33475C" stroke-width="5" stroke-linecap="round" stroke-linejoin="round"/>
        <path d="M50.364 33.519c-.811-.469-1.55-.509-2.088-.198L18.234 50.666c.538-.311 1.276-.27 2.087.199.016.008.03.021.045.031 1.619.964 2.936 3.282 2.936 5.189L53.345 38.74c0-1.925-1.341-4.275-2.981-5.221z" stroke="#33475C" stroke-width="5" stroke-linecap="round" stroke-linejoin="round"/>
        <path d="M20.32 50.865v-.001c-.81-.468-1.548-.51-2.086-.197-.551.317-.894 1.004-.894 1.976l2.98-1.721v-.057zM66.612 46.97c-.497 5.998-2.613 14.903-10.345 20.027L98.27 42.674c9.649-4.766 12.122-14.807 12.662-21.369L66.612 46.97zM97.289 50.043c.613.105 1.123.383 1.341.73-1.647.507-3.715 1.153-5.363 1.661l.967.595c-2.214.584-4.372 1.241-6.463 1.965.624.072 1.192.283 1.561.58-2.698.498-5.228 1.32-7.38 2.395l1.407.553c-2.241.451-4.302 1.214-5.955 2.207.534.115 1.019.301 1.405.543-1.074.252-2.147.506-3.221.76-.786.186-1.631.401-2.058.826-.427.426-.1 1.107.74 1.14-2.064.567-3.145.97-4.826 1.667" stroke="#33475C" stroke-width="5" stroke-linecap="round" stroke-linejoin="round"/>
        <path d="M64.55 56.335c-.788.187-2.087.451-2.618.736-.942.505-1.247.662-.574 1.391-2.32.64-2.75.556-4.832 1.431l1.71.521M102.434 62.952c-1.647.508-2.068.646-3.716 1.153l.967.596c-2.213.584-4.372 1.24-6.462 1.965.624.072 1.19.283 1.56.58-2.7.498-5.228 1.319-7.38 2.394l1.407.553c-2.241.45-4.302 1.216-5.955 2.208.534.114 1.019.3 1.405.542l-3.221.76c-.786.187-1.631.4-2.058.827-.426.426-.1 1.108.74 1.139-2.32.638-3.654 1.039-5.736 1.914M49.182 58.177c.239-.303.639-.614.97-.415.15.091.233.267.382.36.18.113.414.078.623.033 1.705-.378 3.277-1.332 4.4-2.668M35.872 55.88c.706-.518.047-1.789-.827-1.83-.874-.04-1.597.674-2.063 1.414-.764 1.217-1.167 2.657-1.141 4.094.006.352.04.717.211 1.024.271.491.84.75 1.395.827 2.142.301 3.946-1.549 5.142-3.35 1.734-2.613 3.057-5.497 3.907-8.516-2.892 1.236-4.647 4.68-3.95 7.745.143.63.522 1.35 1.167 1.358.55.007.942-.51 1.239-.973l3.529-5.512c-.321.271-.656.56-.805.953-.148.394-.032.921.356 1.084 1.179-1.13 2.193-2.435 2.999-3.857-.375.476-.561 1.095-.512 1.697.737-.735 1.475-1.47 2.212-2.208-.154.288.183.638.51.628.326-.01.598-.24.841-.457l5.728-5.12" stroke="#33475C" stroke-width="5" stroke-linecap="round" stroke-linejoin="round"/>
        <path d="M59.568 51.772c-1.824.296-4.272-.634-5.44-2.065-.338-.414-.53-.826-.594-1.21l-.002.003 1.39 7.592 5.763-4.733c-.288.195-.662.339-1.117.413" stroke="#33475C" stroke-width="5" stroke-linecap="round" stroke-linejoin="round"/>
        <path d="M78.522 6.635c-.222.56-.808.98-1.709 1.126-1.825.296-4.273-.633-5.44-2.064-.568-.695-.73-1.384-.542-1.944l-.004-.002-17.244 44.01.003.002c-.187.56-.025 1.25.541 1.943 1.17 1.432 3.617 2.362 5.441 2.066.94-.154 1.535-.603 1.734-1.199l.004.001L78.522 6.635z" stroke="#33475C" stroke-width="5" stroke-linecap="round" stroke-linejoin="round"/>
        <path d="M78.005 4.62c1.168 1.433.63 2.845-1.192 3.141-1.825.296-4.272-.633-5.441-2.066-1.168-1.43-.631-2.845 1.193-3.14 1.824-.296 4.272.633 5.44 2.065" stroke="#33475C" stroke-width="5" stroke-linecap="round" stroke-linejoin="round"/>
        <path d="M78.005 4.62c1.168 1.433.63 2.845-1.192 3.141-1.825.296-4.272-.633-5.441-2.066-1.168-1.43-.631-2.845 1.193-3.14 1.824-.296 4.272.633 5.44 2.065zM57.75 53.764c-.142.098-.327.17-.553.206-.896.146-2.1-.31-2.674-1.015-.134-.166-.22-.329-.264-.487l.663 3.625 2.83-2.326-.001-.003z" stroke="#33475C" stroke-width="5" stroke-linecap="round" stroke-linejoin="round"/>
        <path d="M76.813 7.761c-1.332.217-2.995-.223-4.25-1.03L55.317 50.74c1.257.807 2.919 1.247 4.25 1.031.94-.154 1.535-.603 1.735-1.198h.003L78.522 6.635c-.222.56-.808.98-1.71 1.126" stroke="#33475C" stroke-width="5" stroke-linecap="round" stroke-linejoin="round"/>
        <path d="M59.568 51.772c.94-.152 1.535-.603 1.734-1.198h.003l17.217-43.94c-.222.56-.808.982-1.71 1.127-.462.075-.964.07-1.475 0l-1.307 3.343-16.022 40.653c.54.083 1.073.093 1.56.015" stroke="#33475C" stroke-width="5" stroke-linecap="round" stroke-linejoin="round"/>
        <path d="M78.522 6.635c-.18.454-.604.813-1.237 1.013-.148.046-.303.086-.472.113-1.825.296-4.273-.633-5.44-2.064-.1-.12-.18-.24-.255-.36-.354-.569-.443-1.12-.287-1.584l-.004-.002-.429 1.178-.52 1.428c.001-.005.006-.01.008-.016-.233.573-.082 1.295.512 2.023 1.168 1.432 3.617 2.362 5.44 2.066.94-.152 1.535-.6 1.734-1.194-.005.014-.008.03-.014.045l.964-2.646z" stroke="#33475C" stroke-width="5" stroke-linecap="round" stroke-linejoin="round"/>
        <path d="M78.522 6.635c-.18.454-.604.813-1.237 1.013-.148.046-.303.086-.472.113-1.825.296-4.273-.633-5.44-2.064-.1-.12-.18-.24-.255-.36-.354-.569-.443-1.12-.287-1.584l-.004-.002-.429 1.178-.52 1.428c.001-.005.006-.01.008-.016-.233.573-.082 1.295.512 2.023 1.168 1.432 3.617 2.362 5.44 2.066.94-.152 1.535-.6 1.734-1.194-.005.014-.008.03-.014.045l.964-2.646z" stroke="#33475C" stroke-width="5" stroke-linecap="round" stroke-linejoin="round"/>
        <path d="M77.061 9.935v-.001.001h-.001c-.299.236-.707.411-1.221.495-1.824.296-4.272-.634-5.44-2.065-.319-.392-.507-.781-.58-1.146-.062-.314-.04-.612.068-.878-.002.006-.007.011-.009.016l.041-.111-.041.111-.536 1.471c.01-.023.023-.044.033-.067-.283.586-.149 1.342.473 2.105 1.169 1.431 3.617 2.361 5.441 2.065.992-.161 1.6-.653 1.762-1.299-.015.063-.034.125-.058.185h.001l.005.002.56-1.538.013-.045c-.09.267-.264.504-.511.699" stroke="#33475C" stroke-width="5" stroke-linecap="round" stroke-linejoin="round"/>
        <path d="M77.061 9.935v-.001.001h-.001c-.299.236-.707.411-1.221.495-1.824.296-4.272-.634-5.44-2.065-.319-.392-.507-.781-.58-1.146-.062-.314-.04-.612.068-.878-.002.006-.007.011-.009.016l.041-.111-.041.111-.536 1.471c.01-.023.023-.044.033-.067-.283.586-.149 1.342.473 2.105 1.169 1.431 3.617 2.361 5.441 2.065.992-.161 1.6-.653 1.762-1.299-.015.063-.034.125-.058.185h.001l.005.002.56-1.538.013-.045c-.09.267-.264.504-.511.699z" stroke="#33475C" stroke-width="5" stroke-linecap="round" stroke-linejoin="round"/>
        <path d="M78.522 6.635c-.222.56-.808.98-1.709 1.126-1.825.296-4.273-.633-5.44-2.064-.568-.695-.73-1.384-.542-1.944l-.004-.002-17.244 44.01.003.002c-.187.56-.025 1.25.541 1.943 1.17 1.432 3.617 2.362 5.441 2.066.94-.154 1.535-.603 1.734-1.199l.004.001L78.522 6.635z" stroke="#33475C" stroke-width="5" stroke-linecap="round" stroke-linejoin="round"/>
        <path d="M59.568 51.772c-.487.078-1.02.068-1.56-.015l-3.086 4.335 5.763-4.733c-.288.195-.662.339-1.117.413" stroke="#33475C" stroke-width="5" stroke-linecap="round" stroke-linejoin="round"/>
        <path d="M57.75 53.764c-.142.098-.327.17-.553.206-.237.04-.496.032-.76-.007l-1.515 2.13 2.83-2.326-.001-.003z" stroke="#33475C" stroke-width="5" stroke-linecap="round" stroke-linejoin="round"/>
        <path d="M59.568 51.772c-1.824.296-4.272-.634-5.44-2.065-.338-.414-.53-.826-.594-1.21l-.002.003 1.39 7.592 5.763-4.733c-.288.195-.662.339-1.117.413z" stroke="#33475C" stroke-width="5" stroke-linecap="round" stroke-linejoin="round"/>
        <path d="M57.75 53.764c-.142.098-.327.17-.553.206-.896.146-2.1-.31-2.674-1.015-.134-.166-.22-.329-.264-.487l.663 3.625 2.83-2.326-.001-.003zM50.09 61.307c-2.087-1.205-5.533-1.187-7.657.038-2.124 1.227-2.124 3.233 0 4.46 2.124 1.227 5.57 1.21 7.657-.039 2.087-1.247 2.087-3.254 0-4.459z" stroke="#33475C" stroke-width="5" stroke-linecap="round" stroke-linejoin="round"/>
        <path stroke="#33475C" stroke-width="5" stroke-linecap="round" stroke-linejoin="round" d="M44.93 64.791l2.436.491-.738-3.72M71.578 78.89c-2.087-1.205-5.533-1.187-7.657.04-2.123 1.226-2.123 3.231 0 4.458 2.125 1.227 5.57 1.21 7.657-.039 2.087-1.247 2.087-3.254 0-4.459z"/>
        <path stroke="#33475C" stroke-width="5" stroke-linecap="round" stroke-linejoin="round" d="M66.417 82.374l2.437.492-.738-3.72M63.361 72.357c-.679 0-1.334-.071-1.947-.213-1.429-.328-2.433-.992-2.686-1.775-.15-.464-.017-.938.396-1.408.917-1.045 2.951-1.748 5.061-1.748.665 0 1.305.07 1.902.207 1.397.322 2.387.98 2.65 1.764.157.47.033.95-.367 1.426-.879 1.045-2.89 1.747-5.009 1.747z"/>
        <path d="M64.187 66.713c-2.195 0-4.393.728-5.439 1.918-1.371 1.562-.222 3.361 2.554 4 .665.153 1.363.226 2.058.226 2.207 0 4.387-.729 5.393-1.925 1.323-1.573.174-3.372-2.554-4-.646-.149-1.329-.219-2.012-.219zm0 1c.627 0 1.229.065 1.789.193 1.444.333 2.134.982 2.287 1.436.036.11.148.443-.276.947-.776.923-2.678 1.568-4.627 1.568-.64 0-1.257-.068-1.834-.2-1.48-.34-2.175-.99-2.322-1.443-.034-.106-.138-.429.296-.923.815-.93 2.743-1.578 4.687-1.578z" stroke="#33475C" stroke-width="5" stroke-linecap="round" stroke-linejoin="round"/>
        <path d="M121.17 61.864c.952.55 1.428 1.274 1.428 2 0 .725-.476 1.45-1.429 2L70.343 95.209c-1.905 1.099-5.023 1.099-6.928 0L3.93 60.864c-.953-.55-1.429-1.274-1.429-2 0-.725.476-1.45 1.43-2l50.825-29.345c1.905-1.1 5.023-1.1 6.928 0l59.486 34.345z" fill="#D29B6A"/>
        <path d="M121.17 61.864c.952.55 1.428 1.274 1.428 2 0 .725-.476 1.45-1.429 2L70.343 95.209c-1.905 1.099-5.023 1.099-6.928 0L3.93 60.864c-.953-.55-1.429-1.274-1.429-2 0-.725.476-1.45 1.43-2l50.825-29.345c1.905-1.1 5.023-1.1 6.928 0l59.486 34.345z" stroke="#33475C" stroke-linecap="round" stroke-linejoin="round"/>
        <path d="M122.241 64.93c-.238.34-.595.658-1.072.934L95.756 80.535 70.343 95.208c-.633.366-1.405.598-2.218.721-.409.062-.825.104-1.246.104-1.256 0-2.512-.275-3.464-.825L16.5 68.121 3.93 60.864c-.478-.275-.835-.594-1.073-.935-.238-.34-.357-.703-.357-1.065v4c0 .725.476 1.45 1.43 2l59.485 34.344c1.905 1.1 5.023 1.1 6.928 0l50.826-29.344c.953-.55 1.43-1.276 1.43-2v-4c0 .362-.12.724-.358 1.065" fill="#C78244"/>
        <path d="M122.241 64.93c-.238.34-.595.658-1.072.934L95.756 80.535 70.343 95.208c-.633.366-1.405.598-2.218.721-.409.062-.825.104-1.246.104-1.256 0-2.512-.275-3.464-.825L16.5 68.121 3.93 60.864c-.478-.275-.835-.594-1.073-.935-.238-.34-.357-.703-.357-1.065v4c0 .725.476 1.45 1.43 2l59.485 34.344c1.905 1.1 5.023 1.1 6.928 0l50.826-29.344c.953-.55 1.43-1.276 1.43-2v-4c0 .362-.12.724-.358 1.065z" stroke="#33475C" stroke-linecap="round" stroke-linejoin="round"/>
        <path fill="#EAF0F6" d="M111.33 63.864L66.88 89.528 13.767 58.864 58.22 33.2z"/>
        <path stroke="#33475C" stroke-linecap="round" stroke-linejoin="round" d="M111.33 63.864L66.88 89.528 13.767 58.864 58.22 33.2z"/>
        <path d="M58.22 33.2s35.32 15.563 57.11 14.664L70.88 73.528C49.45 82.263 13.768 58.864 13.768 58.864L58.22 33.2z" fill="#FFF"/>
        <path d="M58.22 33.2s35.32 15.563 57.11 14.664L70.88 73.528C49.45 82.263 13.768 58.864 13.768 58.864L58.22 33.2z" stroke="#33475C" stroke-linecap="round" stroke-linejoin="round"/>
        <path d="M98.271 42.674C82.657 44.604 58.088 33.2 58.088 33.2l-44.32 25.664s25.183 16.884 40.183 9.475l2.316-1.34 42.004-24.324" fill="#FFF"/>
        <path d="M98.271 42.674C82.657 44.604 58.088 33.2 58.088 33.2l-44.32 25.664s25.183 16.884 40.183 9.475l2.316-1.34 42.004-24.324" stroke="#33475C" stroke-linecap="round" stroke-linejoin="round"/>
        <path fill="#9DB2C9" d="M17.205 52.73l30.043-17.345-2.166-4.816L15.04 47.914z"/>
        <path stroke="#33475C" stroke-linecap="round" stroke-linejoin="round" d="M17.205 52.73l30.043-17.345-2.166-4.816L15.04 47.914z"/>
        <path d="M50.364 33.519c-.811-.469-1.55-.509-2.088-.198L18.234 50.666c.538-.311 1.276-.27 2.087.199.016.008.03.021.045.031 1.619.964 2.936 3.282 2.936 5.189L53.345 38.74c0-1.925-1.341-4.275-2.981-5.221" fill="#CBD6E3"/>
        <path d="M50.364 33.519c-.811-.469-1.55-.509-2.088-.198L18.234 50.666c.538-.311 1.276-.27 2.087.199.016.008.03.021.045.031 1.619.964 2.936 3.282 2.936 5.189L53.345 38.74c0-1.925-1.341-4.275-2.981-5.221z" stroke="#33475C" stroke-linecap="round" stroke-linejoin="round"/>
        <path d="M20.32 50.865v-.001c-.81-.468-1.548-.51-2.086-.197-.551.317-.894 1.004-.894 1.976l2.98-1.721v-.057z" stroke="#33475C" stroke-linecap="round" stroke-linejoin="round"/>
        <path d="M66.612 46.97c-.497 5.998-2.613 14.903-10.345 20.027L98.27 42.674c9.649-4.766 12.122-14.807 12.662-21.369L66.612 46.97z" fill="#EFF4F8"/>
        <path d="M66.612 46.97c-.497 5.998-2.613 14.903-10.345 20.027L98.27 42.674c9.649-4.766 12.122-14.807 12.662-21.369L66.612 46.97zM97.289 50.043c.613.105 1.123.383 1.341.73-1.647.507-3.715 1.153-5.363 1.661l.967.595c-2.214.584-4.372 1.241-6.463 1.965.624.072 1.192.283 1.561.58-2.698.498-5.228 1.32-7.38 2.395l1.407.553c-2.241.451-4.302 1.214-5.955 2.207.534.115 1.019.301 1.405.543-1.074.252-2.147.506-3.221.76-.786.186-1.631.401-2.058.826-.427.426-.1 1.107.74 1.14-2.064.567-3.145.97-4.826 1.667" stroke="#33475C" stroke-linecap="round" stroke-linejoin="round"/>
        <path d="M64.55 56.335c-.788.187-2.087.451-2.618.736-.942.505-1.247.662-.574 1.391-2.32.64-2.75.556-4.832 1.431l1.71.521M102.434 62.952c-1.647.508-2.068.646-3.716 1.153l.967.596c-2.213.584-4.372 1.24-6.462 1.965.624.072 1.19.283 1.56.58-2.7.498-5.228 1.319-7.38 2.394l1.407.553c-2.241.45-4.302 1.216-5.955 2.208.534.114 1.019.3 1.405.542l-3.221.76c-.786.187-1.631.4-2.058.827-.426.426-.1 1.108.74 1.139-2.32.638-3.654 1.039-5.736 1.914M49.182 58.177c.239-.303.639-.614.97-.415.15.091.233.267.382.36.18.113.414.078.623.033 1.705-.378 3.277-1.332 4.4-2.668M35.872 55.88c.706-.518.047-1.789-.827-1.83-.874-.04-1.597.674-2.063 1.414-.764 1.217-1.167 2.657-1.141 4.094.006.352.04.717.211 1.024.271.491.84.75 1.395.827 2.142.301 3.946-1.549 5.142-3.35 1.734-2.613 3.057-5.497 3.907-8.516-2.892 1.236-4.647 4.68-3.95 7.745.143.63.522 1.35 1.167 1.358.55.007.942-.51 1.239-.973l3.529-5.512c-.321.271-.656.56-.805.953-.148.394-.032.921.356 1.084 1.179-1.13 2.193-2.435 2.999-3.857-.375.476-.561 1.095-.512 1.697.737-.735 1.475-1.47 2.212-2.208-.154.288.183.638.51.628.326-.01.598-.24.841-.457l5.728-5.12" stroke="#33475C" stroke-linecap="round" stroke-linejoin="round"/>
        <path d="M59.568 51.772c-1.824.296-4.272-.634-5.44-2.065-.338-.414-.53-.826-.594-1.21l-.002.003 1.39 7.592 5.763-4.733c-.288.195-.662.339-1.117.413" fill="#FEF9F0"/>
        <path d="M78.522 6.635c-.222.56-.808.98-1.709 1.126-1.825.296-4.273-.633-5.44-2.064-.568-.695-.73-1.384-.542-1.944l-.004-.002-17.244 44.01.003.002c-.187.56-.025 1.25.541 1.943 1.17 1.432 3.617 2.362 5.441 2.066.94-.154 1.535-.603 1.734-1.199l.004.001L78.522 6.635z" fill="#F9D28C"/>
        <path d="M78.005 4.62c1.168 1.433.63 2.845-1.192 3.141-1.825.296-4.272-.633-5.441-2.066-1.168-1.43-.631-2.845 1.193-3.14 1.824-.296 4.272.633 5.44 2.065" fill="#FBA9BE"/>
        <path d="M78.005 4.62c1.168 1.433.63 2.845-1.192 3.141-1.825.296-4.272-.633-5.441-2.066-1.168-1.43-.631-2.845 1.193-3.14 1.824-.296 4.272.633 5.44 2.065z" stroke="#33475C" stroke-linecap="round" stroke-linejoin="round"/>
        <path d="M57.75 53.764c-.142.098-.327.17-.553.206-.896.146-2.1-.31-2.674-1.015-.134-.166-.22-.329-.264-.487l.663 3.625 2.83-2.326-.001-.003z" fill="#415A77"/>
        <path d="M76.813 7.761c-1.332.217-2.995-.223-4.25-1.03L55.317 50.74c1.257.807 2.919 1.247 4.25 1.031.94-.154 1.535-.603 1.735-1.198h.003L78.522 6.635c-.222.56-.808.98-1.71 1.126" fill="#F7C364"/>
        <path d="M59.568 51.772c.94-.152 1.535-.603 1.734-1.198h.003l17.217-43.94c-.222.56-.808.982-1.71 1.127-.462.075-.964.07-1.475 0l-1.307 3.343-16.022 40.653c.54.083 1.073.093 1.56.015" fill="#DCAF59"/>
        <path d="M78.522 6.635c-.18.454-.604.813-1.237 1.013-.148.046-.303.086-.472.113-1.825.296-4.273-.633-5.44-2.064-.1-.12-.18-.24-.255-.36-.354-.569-.443-1.12-.287-1.584l-.004-.002-.429 1.178-.52 1.428c.001-.005.006-.01.008-.016-.233.573-.082 1.295.512 2.023 1.168 1.432 3.617 2.362 5.44 2.066.94-.152 1.535-.6 1.734-1.194-.005.014-.008.03-.014.045l.964-2.646z" fill="#F87B9D"/>
        <path d="M78.522 6.635c-.18.454-.604.813-1.237 1.013-.148.046-.303.086-.472.113-1.825.296-4.273-.633-5.44-2.064-.1-.12-.18-.24-.255-.36-.354-.569-.443-1.12-.287-1.584l-.004-.002-.429 1.178-.52 1.428c.001-.005.006-.01.008-.016-.233.573-.082 1.295.512 2.023 1.168 1.432 3.617 2.362 5.44 2.066.94-.152 1.535-.6 1.734-1.194-.005.014-.008.03-.014.045l.964-2.646z" stroke="#33475C" stroke-linecap="round" stroke-linejoin="round"/>
        <path d="M77.061 9.935v-.001.001h-.001c-.299.236-.707.411-1.221.495-1.824.296-4.272-.634-5.44-2.065-.319-.392-.507-.781-.58-1.146-.062-.314-.04-.612.068-.878-.002.006-.007.011-.009.016l.041-.111-.041.111-.536 1.471c.01-.023.023-.044.033-.067-.283.586-.149 1.342.473 2.105 1.169 1.431 3.617 2.361 5.441 2.065.992-.161 1.6-.653 1.762-1.299-.015.063-.034.125-.058.185h.001l.005.002.56-1.538.013-.045c-.09.267-.264.504-.511.699" fill="#CBD6E3"/>
        <path d="M77.061 9.935v-.001.001h-.001c-.299.236-.707.411-1.221.495-1.824.296-4.272-.634-5.44-2.065-.319-.392-.507-.781-.58-1.146-.062-.314-.04-.612.068-.878-.002.006-.007.011-.009.016l.041-.111-.041.111-.536 1.471c.01-.023.023-.044.033-.067-.283.586-.149 1.342.473 2.105 1.169 1.431 3.617 2.361 5.441 2.065.992-.161 1.6-.653 1.762-1.299-.015.063-.034.125-.058.185h.001l.005.002.56-1.538.013-.045c-.09.267-.264.504-.511.699z" stroke="#33475C" stroke-linecap="round" stroke-linejoin="round"/>
        <path d="M78.522 6.635c-.222.56-.808.98-1.709 1.126-1.825.296-4.273-.633-5.44-2.064-.568-.695-.73-1.384-.542-1.944l-.004-.002-17.244 44.01.003.002c-.187.56-.025 1.25.541 1.943 1.17 1.432 3.617 2.362 5.441 2.066.94-.154 1.535-.603 1.734-1.199l.004.001L78.522 6.635z" stroke="#33475C" stroke-linecap="round" stroke-linejoin="round"/>
        <path d="M59.568 51.772c-.487.078-1.02.068-1.56-.015l-3.086 4.335 5.763-4.733c-.288.195-.662.339-1.117.413" fill="#FBE1B2"/>
        <path d="M57.75 53.764c-.142.098-.327.17-.553.206-.237.04-.496.032-.76-.007l-1.515 2.13 2.83-2.326-.001-.003z" stroke="#33475C" stroke-linecap="round" stroke-linejoin="round"/>
        <path d="M59.568 51.772c-1.824.296-4.272-.634-5.44-2.065-.338-.414-.53-.826-.594-1.21l-.002.003 1.39 7.592 5.763-4.733c-.288.195-.662.339-1.117.413z" stroke="#33475C" stroke-linecap="round" stroke-linejoin="round"/>
        <path d="M57.75 53.764c-.142.098-.327.17-.553.206-.896.146-2.1-.31-2.674-1.015-.134-.166-.22-.329-.264-.487l.663 3.625 2.83-2.326-.001-.003z" stroke="#33475C" stroke-linecap="round" stroke-linejoin="round"/>
        <path d="M50.09 61.307c-2.087-1.205-5.533-1.187-7.657.038-2.124 1.227-2.124 3.233 0 4.46 2.124 1.227 5.57 1.21 7.657-.039 2.087-1.247 2.087-3.254 0-4.459" fill="#40CEBB"/>
        <path stroke="#FFF" stroke-linecap="round" stroke-linejoin="round" d="M44.93 64.791l2.436.491-.738-3.72"/>
        <path d="M71.578 78.89c-2.087-1.205-5.533-1.187-7.657.04-2.123 1.226-2.123 3.231 0 4.458 2.125 1.227 5.57 1.21 7.657-.039 2.087-1.247 2.087-3.254 0-4.459" fill="#40CEBB"/>
        <path stroke="#FFF" stroke-linecap="round" stroke-linejoin="round" d="M66.417 82.374l2.437.492-.738-3.72"/>
        <path d="M64.187 66.713c-2.195 0-4.393.728-5.439 1.918-1.371 1.562-.222 3.361 2.554 4 .665.153 1.363.226 2.058.226 2.207 0 4.387-.729 5.393-1.925 1.323-1.573.174-3.372-2.554-4-.646-.149-1.329-.219-2.012-.219m0 1c.627 0 1.229.065 1.789.193 1.444.333 2.134.982 2.287 1.436.036.11.148.443-.276.947-.776.923-2.678 1.568-4.627 1.568-.64 0-1.257-.068-1.834-.2-1.48-.34-2.175-.99-2.322-1.443-.034-.106-.138-.429.296-.923.815-.93 2.743-1.578 4.687-1.578" fill="#40CEBB"/>
    </g>
</svg>
