<svg width="276" height="203" viewBox="0 0 276 203" xmlns="http://www.w3.org/2000/svg">
    <g fill="none" fill-rule="evenodd">
        <path d="M146.287 47.706c-4.786-2.763-12.618-2.763-17.404 0L3.573 120.054c-4.786 2.763-4.76 7.242.055 9.953l125.2 70.465c4.817 2.71 12.698 2.71 17.514 0l125.2-70.465c4.817-2.71 4.842-7.19.056-9.953l-125.31-72.348z" fill-opacity=".2" fill="#00A4BF"/>
        <path d="M152.165 93.74l-19.6 11.315" fill="#FFF"/>
        <path d="M150.896 94.833c-.124 0-.25-.066-.314-.183-.052-.08-.066-.183-.037-.277.022-.096.088-.17.168-.22l1.272-.73c.168-.103.395-.038.497.13.044.09.06.183.037.278-.03.096-.09.177-.17.228l-1.27.73c-.053.03-.118.045-.184.045m-2.53 1.462c-.13 0-.255-.066-.32-.183-.096-.175-.038-.394.138-.497l1.265-.73c.167-.096.4-.038.495.13.037.06.052.125.052.19 0 .132-.073.25-.183.315l-1.265.73c-.06.03-.118.045-.183.045m-2.53 1.462c-.13 0-.255-.073-.322-.183-.05-.08-.058-.182-.036-.277.028-.096.087-.17.175-.22l1.264-.73c.167-.096.4-.038.496.13.03.06.052.125.052.19-.008.132-.074.25-.183.315l-1.265.724c-.058.036-.124.05-.183.05M143.3 99.22c-.13 0-.248-.067-.314-.184-.102-.175-.044-.394.132-.497l1.265-.732c.168-.095.4-.037.504.132.03.058.044.124.044.19 0 .13-.072.248-.182.307l-1.265.73c-.058.037-.117.052-.182.052m-2.53 1.46c-.13 0-.255-.065-.32-.182-.095-.175-.037-.394.14-.497l1.263-.73c.168-.102.402-.037.497.132.03.05.052.11.052.175 0 .132-.066.256-.183.322l-1.266.73c-.058.036-.124.05-.183.05m-2.535 1.463c-.125 0-.25-.066-.315-.183-.102-.168-.043-.394.132-.497l1.264-.73c.17-.096.41-.038.505.13.03.052.045.11.045.176.007.13-.066.255-.183.32l-1.265.732c-.05.036-.116.05-.182.05m-2.53 1.463c-.13 0-.256-.066-.314-.183-.1-.175-.043-.394.133-.497l1.264-.73c.168-.103.402-.038.497.13.037.052.05.11.05.176.01.133-.064.257-.18.323l-1.266.738c-.06.03-.117.045-.183.045m-2.53 1.462c-.13 0-.255-.066-.32-.183-.103-.175-.045-.394.13-.497l1.273-.73c.168-.096.402-.038.497.13.03.052.044.11.05.176 0 .132-.072.256-.182.33l-1.27.73c-.053.03-.118.044-.177.044" fill="#33475C"/>
        <path stroke="#33475C" stroke-width="5" stroke-linecap="round" stroke-linejoin="round" d="M147.545 134.436l-41.92 24.203 45.012 25.987 41.92-24.203z"/>
        <path d="M106.356 158.64l44.28 25.565 41.19-23.78-44.28-25.567-41.19 23.78zm44.28 26.353c-.062 0-.125-.017-.182-.05l-45.012-25.988c-.113-.065-.183-.185-.183-.316 0-.132.07-.252.182-.317l41.92-24.203c.113-.066.253-.066.366 0l45.012 25.988c.113.065.183.186.183.316s-.07.252-.183.317l-41.92 24.203c-.057.033-.12.05-.183.05zm52.804-82.823l-41.92 24.204 45.01 25.988 41.92-24.203z" stroke="#33475C" stroke-width="5" stroke-linecap="round" stroke-linejoin="round"/>
        <path d="M162.25 126.374l44.28 25.566 41.19-23.78-44.28-25.567-41.19 23.78zm44.28 26.353c-.063 0-.125-.016-.183-.05l-45.012-25.987c-.113-.065-.183-.185-.183-.316 0-.13.07-.25.184-.316l41.92-24.203c.113-.066.252-.066.365 0l45.013 25.987c.113.065.183.186.183.317 0 .13-.07.25-.183.315l-41.92 24.203c-.056.033-.12.05-.183.05z" stroke="#33475C" stroke-width="5" stroke-linecap="round" stroke-linejoin="round"/>
        <path stroke="#33475C" stroke-width="5" stroke-linecap="round" stroke-linejoin="round" d="M206.53 152.362l-45.012-25.988v2.193l45.012 25.988 41.92-24.203v-2.193z"/>
        <path d="M161.884 128.356l44.647 25.777 41.555-23.992v-1.348l-41.372 23.886c-.112.066-.252.066-.365 0l-44.464-25.67v1.348zm44.647 26.564c-.063 0-.126-.016-.182-.05l-45.012-25.986c-.113-.065-.183-.186-.183-.317v-2.193c0-.13.07-.25.183-.316.113-.066.252-.066.365 0l44.83 25.882 41.738-24.097c.113-.066.253-.066.366 0 .113.065.182.185.182.316v2.192c0 .13-.07.25-.182.316l-41.92 24.203c-.057.034-.12.05-.183.05zm-55.894 29.707l-45.012-25.988v2.192l45.012 25.988 41.92-24.203v-2.193z" stroke="#33475C" stroke-width="5" stroke-linecap="round" stroke-linejoin="round"/>
        <path d="M105.99 160.62l44.647 25.78 41.554-23.994v-1.348l-41.37 23.886c-.113.065-.253.065-.366 0l-44.464-25.672v1.35zm44.647 26.566c-.064 0-.127-.016-.183-.05l-45.012-25.987c-.113-.066-.183-.187-.183-.318v-2.193c0-.13.07-.252.182-.317.113-.066.252-.066.365 0l44.83 25.883 41.737-24.098c.113-.065.253-.065.366 0 .113.065.182.186.182.317v2.193c0 .13-.07.25-.182.316l-41.92 24.203c-.057.033-.12.05-.183.05z" stroke="#33475C" stroke-width="5" stroke-linecap="round" stroke-linejoin="round"/>
        <path stroke="#33475C" stroke-width="5" stroke-linecap="round" stroke-linejoin="round" d="M149.444 135.533l-40.02 23.106 41.212 23.794 40.022-23.106z"/>
        <path d="M110.154 158.64l40.483 23.372 39.29-22.684-40.483-23.373-39.29 22.684zm40.483 24.16c-.064 0-.127-.017-.183-.05l-41.214-23.795c-.113-.065-.183-.185-.183-.316 0-.132.07-.252.183-.317l40.02-23.107c.114-.065.254-.065.367 0l41.213 23.796c.113.065.183.185.183.316 0 .13-.07.25-.183.316l-40.02 23.106c-.057.033-.12.05-.183.05zm52.821-78.507l-.02.072-40.02 23.106 41.285 23.837 40.093-23.148z" stroke="#33475C" stroke-width="5" stroke-linecap="round" stroke-linejoin="round"/>
        <path d="M164.15 127.47l40.553 23.415 39.362-22.726-40.555-23.415-39.36 22.726zm40.553 24.202c-.063 0-.126-.016-.182-.05l-41.285-23.835c-.113-.065-.183-.185-.183-.316 0-.13.07-.25.183-.315l39.903-23.04c.04-.07.104-.127.18-.16.106-.043.225-.035.323.022l41.34 23.866c.112.065.182.186.182.316s-.07.25-.183.315l-40.094 23.148c-.056.033-.12.05-.183.05zm-95.28 6.968v-7.82l41.213 23.894v7.72z" stroke="#33475C" stroke-width="5" stroke-linecap="round" stroke-linejoin="round"/>
        <path d="M109.79 158.428l40.48 23.372v-6.875l-40.483-23.47v6.973zm40.847 24.372c-.063 0-.126-.016-.183-.05l-41.213-23.794c-.112-.065-.182-.186-.182-.317v-7.818c0-.13.07-.252.183-.317.114-.065.253-.066.367 0l41.214 23.893c.113.066.183.186.183.317v7.72c0 .13-.07.25-.183.316-.057.034-.12.05-.183.05zm91.175-60.184l-35.73-21.687s-39.443.913-47.12 28.51l40.086 28.143s.974-22.052 42.764-34.967z" stroke="#33475C" stroke-width="5" stroke-linecap="round" stroke-linejoin="round"/>
        <path d="M159.386 129.29l39.372 27.643c.57-3.707 5.275-22.78 42.173-34.424l-34.946-21.212c-2.256.085-39.115 1.905-46.598 27.99zm39.662 28.66c-.074 0-.147-.024-.21-.068l-40.084-28.144c-.127-.09-.184-.248-.143-.397 7.66-27.538 47.066-28.767 47.463-28.776.067-.004.138.017.198.053l35.732 21.687c.123.075.19.215.173.357-.017.144-.117.263-.255.305-41.07 12.692-42.497 34.416-42.507 34.634-.006.132-.084.252-.204.31-.052.026-.107.04-.162.04z" stroke="#33475C" stroke-width="5" stroke-linecap="round" stroke-linejoin="round"/>
        <path d="M199.048 157.583s-11.743-20.35 42.764-34.967l2.984 5.543-40.127 23.087-.954 1.682-4.668 4.653z" stroke="#33475C" stroke-width="5" stroke-linecap="round" stroke-linejoin="round"/>
        <path d="M241.628 123.045c-29.775 8.028-39.38 17.746-42.19 24.495-1.93 4.637-.793 8.212-.282 9.42l4.266-4.254.93-1.638c.03-.057.078-.104.134-.137l39.82-22.91-2.678-4.975zm-42.58 34.904c-.016 0-.032-.002-.048-.004-.113-.015-.212-.08-.27-.18-.1-.178-2.484-4.427.023-10.48 5.2-12.553 26.235-20.537 42.965-25.023.164-.04.336.03.417.18l2.983 5.543c.093.174.032.392-.14.49l-40.04 23.04-.905 1.593c-.016.03-.036.055-.06.08l-4.667 4.653c-.07.068-.162.106-.258.106zm-4.395-6.049l-34.588-22.936s-12.772-9.2-50.642 21.858l41.214 23.893s33.703-28.837 44.016-22.814z" stroke="#33475C" stroke-width="5" stroke-linecap="round" stroke-linejoin="round"/>
        <path d="M110.063 150.77l40.534 23.5c1.33-1.125 9.172-7.673 17.978-13.526 10.866-7.22 18.815-10.564 23.714-9.972l-32.427-21.503c-.136-.1-13-8.543-49.8 21.5zm40.574 24.31c-.064 0-.127-.017-.184-.05l-41.213-23.89c-.104-.06-.172-.167-.18-.287-.01-.12.04-.235.13-.31 37.655-30.883 50.56-22.255 51.09-21.873l34.575 22.93c.165.108.213.33.108.497-.104.168-.323.222-.494.122-9.978-5.822-43.26 22.49-43.596 22.776-.068.058-.152.088-.237.088z" stroke="#33475C" stroke-width="5" stroke-linecap="round" stroke-linejoin="round"/>
        <path d="M162.017 130.258l-20.64 6.874s-7.184 2.78-13.936 8.35l36.112 20.934c10.62-7.674 25.16-17.984 31.1-14.515l-32.635-21.642z" stroke="#33475C" stroke-width="5" stroke-linecap="round" stroke-linejoin="round"/>
        <path d="M178.286 141.294l17.697 11.766c-3.426-5.98-7.11-9.783-11.225-11.076-2.157-.678-4.338-.857-6.472-.69z" stroke="#33475C" stroke-width="5" stroke-linecap="round" stroke-linejoin="round"/>
        <path d="M179.413 141.605l15.437 10.264c-3.246-5.278-6.593-8.404-10.202-9.538-1.65-.517-3.412-.758-5.235-.727zm16.57 11.82c-.07 0-.142-.02-.204-.06L178.082 141.6c-.13-.088-.19-.246-.15-.398.038-.15.17-.26.324-.272 2.318-.185 4.542.055 6.61.706 4.095 1.286 7.835 4.963 11.432 11.243.083.146.055.332-.068.448-.07.065-.16.098-.25.098z" stroke="#33475C" stroke-width="5" stroke-linecap="round" stroke-linejoin="round"/>
        <path d="M184.757 141.984l-36.76-21.898c-13.52-8.48-30.458 6.87-30.458 6.87l41.423 23.865s9.11-8.727 19.322-9.526c2.134-.167 4.315.012 6.472.69z" stroke="#33475C" stroke-width="5" stroke-linecap="round" stroke-linejoin="round"/>
        <path d="M118.168 126.898l40.745 23.472c1.41-1.28 9.96-8.705 19.344-9.44 1.47-.116 2.904-.06 4.283.16l-34.73-20.69c-12.032-7.546-27.065 4.326-29.642 6.498zm40.796 24.29c-.063 0-.126-.017-.183-.05l-41.423-23.863c-.1-.06-.168-.162-.18-.278-.013-.116.03-.23.117-.31.172-.156 17.3-15.44 30.9-6.91l36.75 21.893c.16.095.223.295.147.464-.075.17-.266.255-.442.2-1.978-.623-4.11-.85-6.334-.675-9.966.78-19.007 9.34-19.098 9.426-.07.066-.16.1-.252.1zm31.694 8.14l8.39-1.745s-6.59-17.545-28.266-1.096c-17.94 13.615-20.145 18.228-20.145 18.228v7.72l40.02-23.107z" stroke="#33475C" stroke-width="5" stroke-linecap="round" stroke-linejoin="round"/>
        <path d="M151.002 174.808v6.993l39.473-22.788c.033-.02.07-.034.108-.042l7.95-1.653c-.618-1.326-2.96-5.612-7.886-7.03-5.336-1.537-11.945.648-19.644 6.49-16.453 12.487-19.644 17.42-20 18.03zm-.366 7.992c-.063 0-.126-.017-.182-.05-.113-.064-.183-.185-.183-.316v-7.72c0-.054.013-.108.037-.157.09-.192 2.448-4.848 20.254-18.36 7.9-5.996 14.726-8.22 20.298-6.61 6.183 1.785 8.44 7.62 8.532 7.868.038.1.03.21-.022.305-.05.093-.14.16-.246.18l-8.332 1.734-39.97 23.077c-.057.033-.12.05-.184.05z" stroke="#33475C" stroke-width="5" stroke-linecap="round" stroke-linejoin="round"/>
        <path d="M204.67 151.247s-2.878 6.992-14.012 8.08l1.9 1.097s7.718 3.255 13.973-8.063l-1.86-1.113z" stroke="#33475C" stroke-width="5" stroke-linecap="round" stroke-linejoin="round"/>
        <path d="M191.795 159.562l.945.546c.26.105 7.325 2.897 13.298-7.615l-1.212-.726c-.757 1.456-4.015 6.55-13.03 7.795zm3.363 1.64c-1.65 0-2.714-.43-2.743-.44l-1.94-1.118c-.137-.08-.208-.238-.174-.393.034-.155.165-.27.322-.286 10.79-1.055 13.68-7.788 13.71-7.856.04-.098.12-.174.222-.208.102-.032.212-.02.303.034l1.862 1.114c.168.1.226.318.13.49-4.048 7.327-8.78 8.663-11.692 8.663z" stroke="#33475C" stroke-width="5" stroke-linecap="round" stroke-linejoin="round"/>
        <path d="M192.557 162.665s9.963-.27 13.973-8.062v-2.24c-6.386 8.692-13.973 8.06-13.973 8.06v2.242z" stroke="#33475C" stroke-width="5" stroke-linecap="round" stroke-linejoin="round"/>
        <path d="M192.923 160.803v1.473c1.823-.15 9.793-1.172 13.243-7.762v-1.073c-5.478 6.86-11.545 7.363-13.208 7.363h-.035zm-.366 2.228c-.094 0-.186-.036-.254-.102-.07-.07-.11-.164-.11-.262v-2.24c0-.103.042-.2.117-.27.075-.07.18-.102.277-.095.077.008 7.473.495 13.65-7.914.093-.127.257-.18.408-.132.15.05.252.19.252.348v2.24c0 .06-.014.117-.04.168-4.063 7.894-14.188 8.258-14.29 8.26h-.01zm-.961-98.231c0-1.65-1.17-2.324-2.598-1.5l-33.394 19.28c-1.43.825-2.598 2.85-2.598 4.5v10.135c0 1.65 1.17 2.325 2.598 1.5l33.394-19.28c1.43-.825 2.598-2.85 2.598-4.5V64.8z" stroke="#33475C" stroke-width="5" stroke-linecap="round" stroke-linejoin="round"/>
        <path d="M191.596 64.8c0-1.65-1.17-2.324-2.598-1.5l-33.394 19.28c-1.43.825-2.598 2.85-2.598 4.5v10.135c0 1.65 1.17 2.325 2.598 1.5l33.394-19.28c1.43-.825 2.598-2.85 2.598-4.5V64.8z" stroke="#33475C" stroke-width="5" stroke-linecap="round" stroke-linejoin="round"/>
        <path d="M190.54 63.006c-.195 0-.423.07-.66.208L155.086 83.3c-.93.538-1.716 1.9-1.716 2.974v11.75c0 .44.138.77.376.91.24.138.595.09.976-.13l34.792-20.088c.93-.537 1.716-1.898 1.716-2.973v-11.75c0-.44-.136-.77-.375-.91-.09-.05-.196-.077-.314-.077zm-36.48 36.738c-.244 0-.474-.06-.68-.178-.477-.275-.74-.824-.74-1.543v-11.75c0-1.325.934-2.943 2.082-3.605l34.792-20.087c.623-.36 1.23-.405 1.707-.13.478.276.74.824.74 1.544v11.75c0 1.325-.933 2.942-2.08 3.605l-34.793 20.085c-.354.205-.703.31-1.027.31z" stroke="#33475C" stroke-width="5" stroke-linecap="round" stroke-linejoin="round"/>
        <path d="M187.017 69.242c0-1-.855-1.324-1.9-.72L167.593 78.64c-1.045.603-1.9 1.914-1.9 2.913 0 .998.855 1.323 1.9.72l17.526-10.118c1.044-.604 1.9-1.915 1.9-2.913z" stroke="#33475C" stroke-width="5" stroke-linecap="round" stroke-linejoin="round"/>
        <path d="M186.094 68.583c-.225 0-.502.087-.793.255l-17.525 10.118c-.93.537-1.717 1.727-1.717 2.597 0 .2.044.465.254.587.245.14.654.072 1.097-.184l17.525-10.118c.93-.538 1.717-1.727 1.717-2.597 0-.2-.044-.464-.254-.586-.084-.047-.187-.07-.304-.07zm-19.48 14.358c-.246 0-.472-.054-.667-.167-.4-.23-.62-.664-.62-1.22 0-1.137.915-2.556 2.082-3.23l17.525-10.118c.68-.394 1.348-.46 1.828-.184.4.232.62.665.62 1.22 0 1.138-.915 2.556-2.082 3.23l-17.525 10.12c-.405.233-.803.35-1.16.35zm14.146-3.734c0-.998-.855-1.323-1.898-.72l-11.27 6.508c-1.044.602-1.9 1.913-1.9 2.912 0 .998.856 1.323 1.9.72l11.27-6.507c1.043-.603 1.9-1.914 1.9-2.913z" stroke="#33475C" stroke-width="5" stroke-linecap="round" stroke-linejoin="round"/>
        <path d="M179.837 78.55c-.225 0-.502.086-.793.254l-11.27 6.506c-.93.538-1.716 1.726-1.716 2.597 0 .2.044.466.254.586.244.143.654.073 1.097-.182l11.268-6.506c.93-.537 1.717-1.727 1.717-2.597 0-.2-.044-.465-.254-.587-.082-.047-.186-.07-.303-.07zm-13.224 10.745c-.246 0-.472-.056-.667-.168-.4-.23-.62-.664-.62-1.22 0-1.137.915-2.555 2.083-3.23l11.268-6.506c.682-.394 1.348-.46 1.83-.183.398.23.618.664.618 1.22 0 1.137-.915 2.556-2.082 3.23l-11.27 6.506c-.404.234-.803.352-1.16.352zm-2.806-3.089c0-2.604-1.845-3.67-4.1-2.368-2.256 1.303-4.102 4.5-4.102 7.103 0 2.605 1.846 3.67 4.1 2.37 2.257-1.303 4.102-4.5 4.102-7.104z" stroke="#33475C" stroke-width="5" stroke-linecap="round" stroke-linejoin="round"/>
        <path d="M161.526 83.647c-.495 0-1.053.17-1.637.508-2.162 1.247-3.92 4.29-3.92 6.786 0 1.125.364 1.953 1.022 2.334.66.38 1.56.28 2.53-.282 2.162-1.247 3.92-4.29 3.92-6.786 0-1.123-.364-1.95-1.023-2.332-.264-.152-.565-.227-.894-.227zm-3.643 10.585c-.455 0-.88-.108-1.256-.326-.895-.516-1.387-1.57-1.387-2.965 0-2.726 1.92-6.054 4.283-7.418 1.208-.698 2.367-.798 3.262-.28.894.516 1.387 1.57 1.387 2.964 0 2.727-1.92 6.055-4.283 7.42-.7.403-1.383.606-2.007.606z" stroke="#33475C" stroke-width="5" stroke-linecap="round" stroke-linejoin="round"/>
        <path d="M158.49 88.86c0-.356-.25-.5-.558-.324-.308.178-.56.614-.56.97 0 .354.252.5.56.32.307-.176.56-.612.56-.967zm3.324-1.91c0-.354-.252-.5-.56-.322-.307.178-.558.614-.558.97 0 .354.25.5.56.32.306-.176.558-.612.558-.967zm-3.254 5.053c-.325 0-.623-.103-.865-.308-.154-.13-.172-.362-.042-.516.13-.154.362-.173.515-.042.236.2.61.178 1.025-.062.496-.287.97-.83 1.3-1.49.09-.18.308-.254.49-.164.18.09.253.31.163.49-.39.786-.97 1.44-1.588 1.796-.34.197-.682.295-1 .295zm38.346 5.1c1.463-.85.662-2.01.225-2.493-.058-.06-.112-.118-.17-.176l-.054-.05h.005c-3.09-3.16-4.407-6.327-4.964-8.375-.413-1.484-1.38-1.233-1.846-1.01l-.26.15-34.998 20.145s-1.6 1.123-1.186 2.76c.736 2.25 2.31 5.434 5.68 8.51.626.492 1.972 1.2 3.776.152l33.794-19.614z" stroke="#33475C" stroke-width="5" stroke-linecap="round" stroke-linejoin="round"/>
        <path d="M196.906 97.103h.007-.007zm-6.133-11.908c-.186 0-.372.067-.514.135l-.238.138-34.997 20.144c-.03.022-1.36.986-1.015 2.355.688 2.096 2.22 5.266 5.572 8.328.548.428 1.74 1.038 3.346.106l33.795-19.613c.387-.225.606-.48.65-.76.072-.467-.335-.975-.513-1.17l-.16-.166c-.018-.015-.034-.033-.05-.052-3.134-3.204-4.48-6.41-5.056-8.533-.088-.313-.256-.72-.558-.855-.084-.04-.174-.055-.263-.055zM161.27 117.63c-.974 0-1.717-.43-2.16-.777-3.49-3.187-5.08-6.48-5.802-8.683-.476-1.886 1.25-3.123 1.325-3.174l35.285-20.312c.376-.182.905-.334 1.42-.1.448.203.77.65.96 1.327.556 2.045 1.852 5.126 4.875 8.218l.022.025.017.017.176.18c.323.355.823 1.04.707 1.788-.08.51-.418.94-1.006 1.28l-33.795 19.615c-.75.436-1.43.596-2.025.596z" stroke="#33475C" stroke-width="5" stroke-linecap="round" stroke-linejoin="round"/>
        <path d="M165.86 106.846c1.234 1.95 1.444 4.272-.185 5.667-1.63 1.394-4.89 1.012-6.457-1.46-1.566-2.472-.517-5.585 1.44-6.462 1.957-.876 3.968.307 5.202 2.256z" stroke="#33475C" stroke-width="5" stroke-linecap="round" stroke-linejoin="round"/>
        <path d="M162.005 104.66c-.39 0-.79.082-1.197.264-.81.364-1.48 1.196-1.79 2.228-.377 1.248-.19 2.6.51 3.705.7 1.106 1.84 1.85 3.13 2.045 1.066.156 2.105-.09 2.78-.667 1.628-1.394 1.08-3.67.114-5.194-.765-1.206-2.067-2.38-3.547-2.38zm1.3 9.022c-.247 0-.5-.02-.755-.057-1.5-.225-2.827-1.092-3.64-2.377-.814-1.285-1.03-2.855-.593-4.307.377-1.25 1.175-2.228 2.192-2.682 1.96-.88 4.182.06 5.66 2.392 1.476 2.333 1.376 4.743-.257 6.14-.68.58-1.602.892-2.607.892zm4.731-9.752c-.505 0-.997-.26-1.268-.73-.403-.7-.164-1.593.536-1.997l17.525-10.12c.698-.402 1.593-.163 1.996.536.404.7.164 1.593-.535 1.997l-17.524 10.118c-.23.133-.482.196-.73.196z" stroke="#33475C" stroke-width="5" stroke-linecap="round" stroke-linejoin="round"/>
        <path d="M185.558 91.255c-.186 0-.374.047-.547.146l-17.524 10.12c-.523.302-.703.974-.4 1.498.29.504.99.695 1.497.4l17.525-10.117c.523-.302.704-.974.4-1.497-.2-.352-.57-.548-.95-.548zm-17.522 13.042c-.652 0-1.26-.35-1.584-.914-.504-.872-.204-1.992.67-2.496l17.524-10.12c.875-.504 1.994-.202 2.496.67.504.872.204 1.992-.668 2.496l-17.526 10.12c-.277.16-.593.244-.912.244zm2.559 4.543c-.506 0-.998-.26-1.268-.73-.404-.7-.165-1.593.536-1.997l11.268-6.507c.702-.402 1.596-.164 2 .536.403.7.163 1.593-.536 1.997l-11.27 6.505c-.23.133-.482.196-.73.196z" stroke="#33475C" stroke-width="5" stroke-linecap="round" stroke-linejoin="round"/>
        <path d="M181.86 99.776c-.185 0-.373.047-.546.147l-11.27 6.505c-.522.303-.703.975-.4 1.498.29.504.99.697 1.497.402l11.27-6.506c.524-.303.705-.975.402-1.498-.202-.352-.572-.547-.95-.547zm-11.266 9.43c-.65 0-1.258-.35-1.584-.914-.503-.872-.203-1.993.67-2.497l11.27-6.506c.874-.506 1.993-.204 2.495.668.504.873.204 1.992-.668 2.496l-11.27 6.508c-.278.16-.593.244-.913.244zm-7.5 2.524c-.307 0-.624-.053-.93-.163-.19-.068-.29-.277-.222-.467.068-.19.275-.293.467-.22.604.214 1.244.142 1.63-.188.283-.243.434-.57.448-.972.007-.2.18-.34.378-.352.202.007.36.176.353.378-.023.606-.266 1.125-.705 1.5-.37.318-.88.484-1.42.484zm-2.014-2.686c.145.23.17.504-.022.668-.19.163-.575.118-.76-.173-.184-.292-.06-.658.17-.76.23-.104.467.035.612.264zm3.17-1.862c.145.23.17.503-.022.667-.19.163-.575.118-.76-.173-.183-.29-.06-.657.17-.76.23-.103.467.036.612.265zm55.4 7.385c-1.062-.574-2.784-.55-3.83.052l-30.264 17.473c-1.045.603-1.032 1.567.03 2.14l8.872 4.805c1.06.575 2.783.55 3.828-.052l30.265-17.474c1.046-.603 1.033-1.566-.028-2.14l-8.873-4.805zm-17.94-9.271c-1.06-.574-2.783-.55-3.828.052l-30.265 17.474c-1.045.603-1.032 1.566.03 2.14l8.872 4.805c1.06.575 2.782.55 3.827-.052l30.265-17.474c1.045-.602 1.032-1.565-.03-2.14l-8.872-4.804z" stroke="#33475C" stroke-width="5" stroke-linecap="round" stroke-linejoin="round"/>
        <path d="M204.99 99.176c-1.452-.786-3.808-.753-5.237.072l-33.394 19.28c-1.43.825-1.412 2.143.04 2.928l9.144 4.952c1.45.786 3.807.753 5.236-.072l33.395-19.28c1.43-.825 1.41-2.142-.04-2.928l-9.146-4.952z" stroke="#33475C" stroke-width="5" stroke-linecap="round" stroke-linejoin="round"/>
        <path d="M204.99 99.176c-1.452-.786-3.808-.753-5.237.072l-33.394 19.28c-1.43.825-1.412 2.143.04 2.928l9.144 4.952c1.45.786 3.807.753 5.236-.072l33.395-19.28c1.43-.825 1.41-2.142-.04-2.928l-9.146-4.952z" stroke="#33475C" stroke-width="5" stroke-linecap="round" stroke-linejoin="round"/>
        <path d="M202.427 98.742c-.654 0-1.31.14-1.793.418l-34.79 20.088c-.38.22-.597.496-.593.76.004.263.227.534.613.743l10.565 5.72c.948.513 2.537.492 3.47-.046l34.793-20.088c.38-.22.597-.496.593-.76-.004-.263-.227-.533-.613-.742l-10.565-5.72c-.458-.25-1.067-.372-1.678-.372zm-24.322 28.827c-.733 0-1.462-.15-2.025-.456l-10.565-5.72c-.634-.344-.988-.833-.995-1.377-.008-.543.332-1.04.957-1.402l34.792-20.087c1.144-.662 3.022-.687 4.184-.057l10.564 5.72c.635.344.988.833.996 1.377.007.544-.333 1.042-.958 1.403l-34.792 20.086c-.59.34-1.376.513-2.16.513z" stroke="#33475C" stroke-width="5" stroke-linecap="round" stroke-linejoin="round"/>
        <path d="M202.06 102.713c-.894-.483-2.48-.386-3.524.218l-17.525 10.12c-1.044.602-1.168 1.49-.275 1.975.893.483 2.478.385 3.522-.218l17.526-10.118c1.045-.605 1.17-1.494.276-1.977z" stroke="#33475C" stroke-width="5" stroke-linecap="round" stroke-linejoin="round"/>
        <path d="M200.634 102.77c-.658 0-1.373.164-1.915.477l-17.526 10.118c-.436.252-.693.563-.69.832.003.24.222.407.405.507.782.423 2.23.325 3.165-.213l17.526-10.118c.436-.252.694-.562.69-.83-.003-.24-.222-.408-.405-.508-.328-.177-.775-.263-1.25-.263zM182.17 115.7c-.6 0-1.17-.116-1.61-.354-.5-.27-.78-.676-.787-1.14-.007-.545.377-1.082 1.055-1.473l17.526-10.118c1.164-.674 2.868-.77 3.88-.223.5.27.78.676.787 1.14.008.544-.376 1.082-1.054 1.473l-17.526 10.118c-.658.38-1.49.577-2.27.577zm19.312-6.3c-.893-.483-2.478-.386-3.523.218l-11.27 6.506c-1.045.603-1.17 1.492-.276 1.976.893.483 2.478.385 3.523-.218l11.27-6.506c1.044-.604 1.168-1.493.275-1.976z" stroke="#33475C" stroke-width="5" stroke-linecap="round" stroke-linejoin="round"/>
        <path d="M200.057 109.458c-.658 0-1.373.163-1.914.476l-11.27 6.506c-.435.252-.693.563-.69.832.004.24.223.407.406.506.78.424 2.23.327 3.165-.212l11.27-6.507c.434-.252.692-.563.69-.832-.005-.24-.223-.407-.406-.507-.33-.176-.776-.262-1.253-.262zm-12.206 9.317c-.6 0-1.17-.116-1.61-.354-.5-.27-.78-.675-.787-1.137-.008-.546.377-1.084 1.055-1.475l11.27-6.506c1.164-.673 2.868-.77 3.878-.223.502.27.782.675.788 1.138.008.546-.377 1.083-1.055 1.474l-11.27 6.507c-.658.38-1.49.575-2.27.575zm-5.816-.937c-2.328-1.26-6.078-1.225-8.333.076-2.256 1.302-2.196 3.4.13 4.66 2.33 1.26 6.08 1.225 8.335-.076 2.255-1.303 2.196-3.4-.132-4.66z" stroke="#33475C" stroke-width="5" stroke-linecap="round" stroke-linejoin="round"/>
        <path d="M177.937 117.272c-1.475 0-2.947.32-4.052.958-.958.554-1.48 1.263-1.47 1.997.01.754.576 1.474 1.593 2.025 2.235 1.21 5.814 1.177 7.976-.07.96-.555 1.48-1.263 1.47-1.998-.01-.755-.575-1.474-1.593-2.025-1.092-.593-2.508-.888-3.923-.888zm-.007 6.588c-1.54 0-3.08-.32-4.27-.965-1.26-.683-1.962-1.627-1.977-2.658-.013-1.01.64-1.948 1.837-2.64 2.36-1.362 6.256-1.4 8.69-.08 1.26.682 1.962 1.626 1.976 2.657.014 1.01-.638 1.948-1.836 2.64-1.205.696-2.812 1.045-4.42 1.046z" stroke="#33475C" stroke-width="5" stroke-linecap="round" stroke-linejoin="round"/>
        <path d="M177.844 122.312c-.132 0-.265-.004-.4-.012-.2-.012-.354-.185-.342-.386.012-.202.19-.366.386-.344.994.06 1.945-.127 2.61-.51.573-.33.84-.763.736-1.185-.05-.197.07-.394.266-.444.195-.046.394.07.443.268.187.75-.217 1.496-1.08 1.994-.693.4-1.63.62-2.62.62zm-1.87-1.872c-.296-.16-.772-.157-1.058.01-.286.164-.28.43.017.59.295.16.77.156 1.058-.01.287-.165.28-.43-.016-.59zm3.438-1.99c-.296-.16-.772-.157-1.058.01-.287.165-.28.43.017.59.296.16.772.156 1.06-.008.285-.166.278-.433-.018-.593zm43.853-10.268c-1.45-.786-3.807-.753-5.236.072l-33.395 19.28c-1.43.825-1.41 2.143.04 2.928l9.145 4.952c1.45.786 3.807.753 5.236-.072l33.395-19.28c1.43-.825 1.412-2.142-.04-2.928l-9.145-4.952z" stroke="#33475C" stroke-width="5" stroke-linecap="round" stroke-linejoin="round"/>
        <path d="M223.265 108.182c-1.45-.786-3.807-.753-5.236.072l-33.395 19.28c-1.43.825-1.41 2.143.04 2.928l9.145 4.952c1.45.786 3.807.753 5.236-.072l33.395-19.28c1.43-.825 1.412-2.142-.04-2.928l-9.145-4.952z" stroke="#33475C" stroke-width="5" stroke-linecap="round" stroke-linejoin="round"/>
        <path d="M220.703 107.748c-.654 0-1.31.14-1.793.418l-34.79 20.088c-.38.22-.597.496-.593.76.003.263.226.533.612.742l10.564 5.72c.948.515 2.537.493 3.47-.046l34.793-20.088c.38-.22.596-.497.592-.76-.005-.263-.228-.533-.614-.742l-10.565-5.72c-.457-.25-1.066-.372-1.677-.372zm-24.32 28.827c-.734 0-1.464-.15-2.027-.456l-10.565-5.72c-.633-.345-.987-.833-.994-1.376-.008-.544.332-1.042.957-1.403l34.792-20.086c1.145-.66 3.023-.687 4.185-.057l10.564 5.72c.635.343.988.832.996 1.375.007.544-.333 1.042-.958 1.403l-34.792 20.087c-.59.34-1.376.513-2.158.513z" stroke="#33475C" stroke-width="5" stroke-linecap="round" stroke-linejoin="round"/>
        <path d="M220.335 111.72c-.893-.484-2.478-.387-3.523.217l-17.525 10.118c-1.045.603-1.17 1.492-.276 1.976.894.484 2.48.386 3.523-.217l17.526-10.118c1.044-.604 1.168-1.493.275-1.976z" stroke="#33475C" stroke-width="5" stroke-linecap="round" stroke-linejoin="round"/>
        <path d="M218.91 111.776c-.66 0-1.373.163-1.915.476l-17.526 10.12c-.436.25-.694.56-.69.83.003.24.222.407.405.507.783.422 2.232.326 3.165-.213l17.526-10.12c.436-.25.693-.562.69-.83-.004-.24-.222-.408-.405-.507-.328-.178-.774-.264-1.25-.264zm-18.463 12.93c-.6 0-1.17-.117-1.61-.355-.502-.27-.782-.674-.788-1.137-.01-.546.376-1.084 1.054-1.475l17.526-10.118c1.164-.674 2.87-.77 3.88-.222.5.27.78.676.787 1.138.007.546-.377 1.083-1.055 1.474l-17.526 10.12c-.658.38-1.488.576-2.27.576zm19.311-6.3c-.893-.483-2.478-.386-3.523.218l-11.27 6.506c-1.044.603-1.168 1.492-.275 1.976.893.483 2.478.385 3.523-.218l11.27-6.506c1.044-.604 1.168-1.493.275-1.976z" stroke="#33475C" stroke-width="5" stroke-linecap="round" stroke-linejoin="round"/>
        <path d="M218.332 118.464c-.658 0-1.373.163-1.914.475l-11.27 6.506c-.435.252-.692.563-.69.832.004.24.223.407.406.506.783.424 2.232.326 3.166-.212l11.27-6.507c.435-.252.692-.562.69-.83-.005-.24-.223-.408-.406-.508-.33-.177-.775-.263-1.252-.263zm-12.206 9.317c-.6 0-1.17-.115-1.61-.353-.502-.27-.78-.676-.788-1.138-.007-.547.377-1.085 1.055-1.476l11.27-6.507c1.164-.672 2.868-.77 3.88-.222.5.27.78.676.787 1.14.007.544-.377 1.082-1.055 1.473l-11.27 6.506c-.658.38-1.49.577-2.27.577zm-5.816-.937c-2.327-1.26-6.077-1.226-8.332.076-2.256 1.302-2.196 3.4.13 4.66 2.33 1.26 6.08 1.225 8.335-.077 2.255-1.302 2.196-3.4-.132-4.66z" stroke="#33475C" stroke-width="5" stroke-linecap="round" stroke-linejoin="round"/>
        <path d="M196.212 126.278c-1.475 0-2.947.32-4.052.958-.958.554-1.48 1.263-1.47 1.997.01.754.576 1.474 1.593 2.025 2.235 1.21 5.812 1.177 7.976-.07.958-.555 1.48-1.264 1.47-1.998-.01-.755-.576-1.474-1.593-2.025-1.094-.592-2.51-.887-3.925-.887zm-.008 6.587c-1.54 0-3.08-.32-4.27-.964-1.26-.682-1.96-1.626-1.976-2.657-.013-1.01.64-1.948 1.837-2.64 2.36-1.362 6.256-1.4 8.69-.08 1.26.682 1.962 1.625 1.976 2.657.015 1.01-.637 1.948-1.835 2.64-1.206.695-2.812 1.045-4.42 1.045z" stroke="#33475C" stroke-width="5" stroke-linecap="round" stroke-linejoin="round"/>
        <path d="M196.12 131.317c-.133 0-.266-.004-.4-.012-.2-.012-.355-.185-.343-.386.012-.203.184-.365.387-.345.993.06 1.944-.128 2.608-.51.574-.33.842-.763.737-1.185-.05-.197.07-.394.265-.444.196-.047.394.07.443.267.187.75-.217 1.496-1.08 1.994-.693.4-1.63.62-2.62.62zm-1.87-1.872c-.297-.16-.773-.156-1.06.01-.285.165-.278.43.018.59.295.16.77.157 1.058-.008.286-.166.28-.432-.017-.592zm3.438-1.99c-.296-.16-.772-.156-1.058.01-.286.165-.28.43.017.59.295.16.77.157 1.058-.008.286-.166.28-.432-.017-.592zM144.69 99.77c0-1.1-.778-2.45-1.73-3l-10.51-6.068c-.953-.55-1.732-.1-1.732 1v27.487c0 1.1.78 2.45 1.732 3l10.51 6.066c.952.55 1.73.1 1.73-1V99.77z" stroke="#33475C" stroke-width="5" stroke-linecap="round" stroke-linejoin="round"/>
        <path d="M144.69 99.77c0-1.1-.778-2.45-1.73-3l-10.51-6.068c-.953-.55-1.732-.1-1.732 1v27.487c0 1.1.78 2.45 1.732 3l10.51 6.066c.952.55 1.73.1 1.73-1V99.77z" stroke="#33475C" stroke-width="5" stroke-linecap="round" stroke-linejoin="round"/>
        <path d="M131.422 90.627c-.057 0-.108.012-.15.036-.12.07-.19.252-.19.502v28.562c0 .678.497 1.538 1.084 1.877l11.44 6.605c.217.123.41.155.53.086.12-.07.19-.252.19-.5V99.23c0-.678-.497-1.538-1.084-1.877l-11.44-6.605c-.142-.08-.273-.123-.38-.123zm12.567 38.435c-.24 0-.496-.074-.748-.22l-11.44-6.606c-.814-.468-1.45-1.57-1.45-2.51v-28.56c0-.52.202-.932.555-1.136.352-.203.81-.173 1.26.087l11.44 6.606c.813.47 1.45 1.57 1.45 2.51v28.562c0 .516-.203.93-.555 1.134-.154.088-.328.132-.513.132z" stroke="#33475C" stroke-width="5" stroke-linecap="round" stroke-linejoin="round"/>
        <path d="M130.717 102.567c0-1.1-.78-2.45-1.732-3l-10.51-6.068c-.952-.55-1.73-.1-1.73 1v16.52c0 1.1.778 2.45 1.73 3l10.51 6.068c.953.55 1.732.1 1.732-1v-16.52z" stroke="#33475C" stroke-width="5" stroke-linecap="round" stroke-linejoin="round"/>
        <path d="M130.717 102.567c0-1.1-.78-2.45-1.732-3l-10.51-6.068c-.952-.55-1.73-.1-1.73 1v16.52c0 1.1.778 2.45 1.73 3l10.51 6.068c.953.55 1.732.1 1.732-1v-16.52z" stroke="#33475C" stroke-width="5" stroke-linecap="round" stroke-linejoin="round"/>
        <path d="M117.448 93.424c-.057 0-.108.012-.15.036-.12.07-.19.252-.19.502v17.597c0 .677.497 1.537 1.084 1.876l11.442 6.605c.215.125.408.156.528.088.12-.07.19-.252.19-.502V102.03c0-.68-.497-1.54-1.084-1.878l-11.44-6.605c-.142-.08-.273-.123-.38-.123zm12.568 27.47c-.24 0-.495-.074-.748-.22l-11.44-6.606c-.814-.468-1.45-1.57-1.45-2.51V93.963c0-.518.202-.93.555-1.135.35-.203.81-.173 1.26.087l11.44 6.606c.813.468 1.45 1.57 1.45 2.51v17.596c0 .518-.203.93-.555 1.135-.154.09-.328.134-.512.134zm6.889-23.924l-3.917-2.262v4.524l3.917 2.26z" stroke="#33475C" stroke-width="5" stroke-linecap="round" stroke-linejoin="round"/>
        <path d="M133.353 99.02l3.186 1.84v-3.678l-3.187-1.84v3.678zm3.552 2.838c-.063 0-.126-.016-.183-.05l-3.917-2.26c-.113-.065-.183-.186-.183-.317V94.71c0-.13.07-.25.183-.316.113-.066.252-.066.365 0l3.918 2.26c.113.066.182.188.182.32v4.522c0 .13-.07.25-.182.316-.057.032-.12.048-.183.048zm5.515-1.913l-3.917-2.262v4.524l3.917 2.26z" stroke="#33475C" stroke-width="5" stroke-linecap="round" stroke-linejoin="round"/>
        <path d="M138.868 101.995l3.186 1.84v-3.68l-3.186-1.84v3.68zm3.552 2.838c-.064 0-.127-.016-.183-.05l-3.917-2.26c-.113-.065-.183-.186-.183-.317v-4.524c0-.13.07-.25.183-.316.113-.066.252-.066.365 0l3.917 2.262c.113.065.183.185.183.316v4.524c0 .13-.07.25-.183.316-.056.033-.12.05-.182.05zm-5.515-1.437l-3.917-2.262v4.524l3.917 2.26z" stroke="#33475C" stroke-width="5" stroke-linecap="round" stroke-linejoin="round"/>
        <path d="M133.353 105.447l3.186 1.84v-3.68l-3.187-1.84v3.68zm3.552 2.838c-.063 0-.126-.016-.183-.05l-3.917-2.26c-.113-.065-.183-.186-.183-.317v-4.523c0-.13.07-.25.183-.316.113-.067.252-.067.365 0l3.918 2.26c.113.065.182.186.182.317v4.523c0 .13-.07.25-.182.316-.057.033-.12.05-.183.05zm5.515-1.915l-3.917-2.26v4.523l3.917 2.26z" stroke="#33475C" stroke-width="5" stroke-linecap="round" stroke-linejoin="round"/>
        <path d="M138.868 108.42l3.186 1.84v-3.678l-3.186-1.84v3.68zm3.552 2.84c-.064 0-.127-.017-.183-.05l-3.917-2.26c-.113-.066-.183-.187-.183-.318v-4.523c0-.13.07-.252.183-.317.113-.066.252-.066.365 0l3.917 2.26c.113.066.183.187.183.318v4.524c0 .13-.07.25-.183.316-.056.033-.12.05-.182.05zm-5.515-1.437l-3.917-2.262v4.525l3.917 2.26z" stroke="#33475C" stroke-width="5" stroke-linecap="round" stroke-linejoin="round"/>
        <path d="M133.353 111.873l3.186 1.84v-3.68l-3.187-1.84v3.68zm3.552 2.838c-.063 0-.126-.015-.183-.048l-3.917-2.26c-.113-.066-.183-.187-.183-.318v-4.523c0-.13.07-.25.183-.315.113-.066.252-.066.365 0l3.918 2.26c.113.066.182.187.182.318v4.523c0 .13-.07.25-.182.316-.057.033-.12.05-.183.05zm5.515-1.914l-3.917-2.262v4.524l3.917 2.26z" stroke="#33475C" stroke-width="5" stroke-linecap="round" stroke-linejoin="round"/>
        <path d="M138.868 114.847l3.186 1.84v-3.68l-3.186-1.84v3.68zm3.552 2.838c-.064 0-.127-.016-.183-.05l-3.917-2.26c-.113-.065-.183-.186-.183-.317v-4.523c0-.13.07-.25.183-.316.113-.067.252-.067.365 0l3.917 2.26c.113.065.183.186.183.317v4.523c0 .13-.07.25-.183.316-.056.033-.12.05-.182.05zm-19.488-18.011l-3.917-2.262v4.524l3.917 2.26z" stroke="#33475C" stroke-width="5" stroke-linecap="round" stroke-linejoin="round"/>
        <path d="M119.38 101.725l3.186 1.84v-3.68l-3.186-1.84v3.68zm3.552 2.838c-.063 0-.126-.016-.183-.05l-3.918-2.26c-.113-.065-.183-.186-.183-.317v-4.523c0-.13.07-.25.182-.316.113-.066.252-.066.365 0l3.918 2.26c.113.066.182.187.182.318v4.523c0 .13-.07.25-.182.316-.057.033-.12.05-.183.05zm5.515-1.913l-3.917-2.263v4.524l3.917 2.262z" stroke="#33475C" stroke-width="5" stroke-linecap="round" stroke-linejoin="round"/>
        <path d="M124.895 104.7l3.186 1.84v-3.68l-3.185-1.84v3.68zm3.552 2.837c-.063 0-.126-.016-.183-.05l-3.917-2.26c-.113-.065-.183-.186-.183-.317v-4.523c0-.13.07-.25.183-.316.113-.065.252-.065.365 0l3.918 2.262c.113.065.182.186.182.317v4.522c0 .13-.07.25-.182.316-.057.033-.12.05-.183.05zm6.163 15.899l5.514 3.184v-8.108l-5.514-3.184z" stroke="#33475C" stroke-width="5" stroke-linecap="round" stroke-linejoin="round"/>
        <path d="M134.975 123.225l4.784 2.762v-7.264l-4.785-2.762v7.265zm5.15 3.76c-.064 0-.127-.016-.183-.05l-5.515-3.182c-.113-.065-.183-.186-.183-.317v-8.108c0-.13.07-.25.183-.316.113-.066.252-.066.365 0l5.515 3.184c.113.065.183.185.183.316v8.108c0 .13-.07.252-.183.316-.056.033-.12.05-.182.05zm-19.517-11.735l5.515 3.185v-9.378l-5.515-3.184z" stroke="#33475C" stroke-width="5" stroke-linecap="round" stroke-linejoin="round"/>
        <path d="M120.973 115.04l4.784 2.762v-8.533l-4.784-2.763v8.533zm5.15 3.76c-.064 0-.127-.016-.184-.05l-5.515-3.182c-.113-.065-.183-.186-.183-.317v-9.376c0-.13.07-.252.183-.317.113-.065.252-.065.365 0l5.515 3.184c.113.066.183.187.183.318v9.377c0 .13-.07.252-.183.316-.056.034-.12.05-.183.05z" stroke="#33475C" stroke-width="5" stroke-linecap="round" stroke-linejoin="round"/>
        <path fill="#8E98DF" d="M147.545 134.436l-41.92 24.203 45.012 25.987 41.92-24.203"/>
        <path d="M106.356 158.64l44.28 25.565 41.19-23.78-44.28-25.567-41.19 23.78zm44.28 26.353c-.062 0-.125-.017-.182-.05l-45.012-25.988c-.113-.065-.183-.185-.183-.316 0-.132.07-.252.182-.317l41.92-24.203c.113-.066.253-.066.366 0l45.012 25.988c.113.065.183.186.183.316s-.07.252-.183.317l-41.92 24.203c-.057.033-.12.05-.183.05z" fill="#33475C"/>
        <path fill="#8E98DF" d="M203.44 102.17l-41.92 24.204 45.01 25.988 41.92-24.203"/>
        <path d="M162.25 126.374l44.28 25.566 41.19-23.78-44.28-25.567-41.19 23.78zm44.28 26.353c-.063 0-.125-.016-.183-.05l-45.012-25.987c-.113-.065-.183-.185-.183-.316 0-.13.07-.25.184-.316l41.92-24.203c.113-.066.252-.066.365 0l45.013 25.987c.113.065.183.186.183.317 0 .13-.07.25-.183.315l-41.92 24.203c-.056.033-.12.05-.183.05z" fill="#33475C"/>
        <path fill="#6976D4" d="M206.53 152.362l-45.012-25.988v2.193l45.012 25.988 41.92-24.203v-2.193"/>
        <path d="M161.884 128.356l44.647 25.777 41.555-23.992v-1.348l-41.372 23.886c-.112.066-.252.066-.365 0l-44.464-25.67v1.348zm44.647 26.564c-.063 0-.126-.016-.182-.05l-45.012-25.986c-.113-.065-.183-.186-.183-.317v-2.193c0-.13.07-.25.183-.316.113-.066.252-.066.365 0l44.83 25.882 41.738-24.097c.113-.066.253-.066.366 0 .113.065.182.185.182.316v2.192c0 .13-.07.25-.182.316l-41.92 24.203c-.057.034-.12.05-.183.05z" fill="#33475C"/>
        <path fill="#6976D4" d="M150.637 184.627l-45.012-25.988v2.192l45.012 25.988 41.92-24.203v-2.193"/>
        <path d="M105.99 160.62l44.647 25.78 41.554-23.994v-1.348l-41.37 23.886c-.113.065-.253.065-.366 0l-44.464-25.672v1.35zm44.647 26.566c-.064 0-.127-.016-.183-.05l-45.012-25.987c-.113-.066-.183-.187-.183-.318v-2.193c0-.13.07-.252.182-.317.113-.066.252-.066.365 0l44.83 25.883 41.737-24.098c.113-.065.253-.065.366 0 .113.065.182.186.182.317v2.193c0 .13-.07.25-.182.316l-41.92 24.203c-.057.033-.12.05-.183.05z" fill="#33475C"/>
        <path fill="#FFF" d="M149.444 135.533l-40.02 23.106 41.212 23.794 40.022-23.106"/>
        <path d="M110.154 158.64l40.483 23.372 39.29-22.684-40.483-23.373-39.29 22.684zm40.483 24.16c-.064 0-.127-.017-.183-.05l-41.214-23.795c-.113-.065-.183-.185-.183-.316 0-.132.07-.252.183-.317l40.02-23.107c.114-.065.254-.065.367 0l41.213 23.796c.113.065.183.185.183.316 0 .13-.07.25-.183.316l-40.02 23.106c-.057.033-.12.05-.183.05z" fill="#33475C"/>
        <path fill="#FFF" d="M203.458 104.293l-.02.072-40.02 23.106 41.285 23.837 40.093-23.148"/>
        <path d="M164.15 127.47l40.553 23.415 39.362-22.726-40.555-23.415-39.36 22.726zm40.553 24.202c-.063 0-.126-.016-.182-.05l-41.285-23.835c-.113-.065-.183-.185-.183-.316 0-.13.07-.25.183-.315l39.903-23.04c.04-.07.104-.127.18-.16.106-.043.225-.035.323.022l41.34 23.866c.112.065.182.186.182.316s-.07.25-.183.315l-40.094 23.148c-.056.033-.12.05-.183.05z" fill="#33475C"/>
        <path fill="#EBF0F7" d="M109.423 158.64v-7.82l41.213 23.894v7.72"/>
        <path d="M109.79 158.428l40.48 23.372v-6.875l-40.483-23.47v6.973zm40.847 24.372c-.063 0-.126-.016-.183-.05l-41.213-23.794c-.112-.065-.182-.186-.182-.317v-7.818c0-.13.07-.252.183-.317.114-.065.253-.066.367 0l41.214 23.893c.113.066.183.186.183.317v7.72c0 .13-.07.25-.183.316-.057.034-.12.05-.183.05z" fill="#33475C"/>
        <path d="M241.812 122.616l-35.73-21.687s-39.443.913-47.12 28.51l40.086 28.143s.974-22.052 42.764-34.967" fill="#EBF0F7"/>
        <path d="M159.386 129.29l39.372 27.643c.57-3.707 5.275-22.78 42.173-34.424l-34.946-21.212c-2.256.085-39.115 1.905-46.598 27.99m39.662 28.66c-.074 0-.147-.022-.21-.066l-40.084-28.144c-.127-.09-.184-.248-.143-.397 7.66-27.538 47.066-28.767 47.463-28.776.067-.004.138.017.198.053l35.732 21.687c.123.075.19.215.173.357-.017.144-.117.263-.255.305-41.07 12.692-42.497 34.416-42.507 34.634-.006.132-.084.252-.204.31-.052.026-.107.04-.162.04" fill="#33475C"/>
        <path d="M199.048 157.583s-11.743-20.35 42.764-34.967l2.984 5.543-40.127 23.087-.954 1.682-4.668 4.653z" fill="#CBD6E3"/>
        <path d="M241.628 123.045c-29.775 8.028-39.38 17.746-42.19 24.495-1.93 4.637-.793 8.212-.282 9.42l4.266-4.254.93-1.638c.03-.057.078-.104.134-.137l39.82-22.91-2.678-4.975zm-42.58 34.904c-.016 0-.032-.002-.048-.004-.113-.015-.212-.08-.27-.18-.1-.178-2.484-4.427.023-10.48 5.2-12.553 26.235-20.537 42.965-25.023.164-.04.336.03.417.18l2.983 5.543c.093.174.032.392-.14.49l-40.04 23.04-.905 1.593c-.016.03-.036.055-.06.08l-4.667 4.653c-.07.068-.162.106-.258.106z" fill="#33475C"/>
        <path d="M194.653 151.9l-34.588-22.936s-12.772-9.2-50.642 21.858l41.214 23.893s33.703-28.837 44.016-22.814" fill="#EBF0F7"/>
        <path d="M110.063 150.77l40.534 23.5c1.33-1.125 9.172-7.673 17.978-13.526 10.866-7.22 18.815-10.564 23.714-9.972l-32.427-21.503c-.136-.1-13-8.543-49.8 21.5m40.574 24.31c-.064 0-.127-.017-.184-.05L109.24 151.14c-.104-.06-.172-.167-.18-.287-.01-.12.04-.235.13-.31 37.655-30.883 50.56-22.255 51.09-21.873l34.575 22.93c.165.108.213.33.108.497-.104.168-.323.222-.494.122-9.978-5.822-43.26 22.49-43.596 22.776-.068.058-.152.088-.237.088" fill="#33475C"/>
        <path d="M162.017 130.258l-20.64 6.874s-7.184 2.78-13.936 8.35l36.112 20.934c10.62-7.674 25.16-17.984 31.1-14.515l-32.635-21.642z" fill="#98ACC3"/>
        <path d="M178.286 141.294l17.697 11.766c-3.426-5.98-7.11-9.783-11.225-11.076-2.157-.678-4.338-.857-6.472-.69" fill="#98ACC3"/>
        <path d="M179.413 141.605l15.437 10.264c-3.246-5.278-6.593-8.404-10.202-9.538-1.65-.517-3.412-.758-5.235-.727m16.57 11.82c-.07 0-.142-.02-.204-.06L178.082 141.6c-.13-.088-.19-.246-.15-.398.038-.15.17-.26.324-.272 2.318-.185 4.542.055 6.61.706 4.095 1.286 7.835 4.963 11.432 11.243.083.146.055.332-.068.448-.07.065-.16.098-.25.098" fill="#33475C"/>
        <path d="M184.757 141.984l-36.76-21.898c-13.52-8.48-30.458 6.87-30.458 6.87l41.423 23.865s9.11-8.727 19.322-9.526c2.134-.167 4.315.012 6.472.69" fill="#EBF0F7"/>
        <path d="M118.168 126.898l40.745 23.472c1.41-1.28 9.96-8.705 19.344-9.44 1.47-.116 2.904-.06 4.283.16l-34.73-20.69c-12.032-7.546-27.065 4.326-29.642 6.498m40.796 24.29c-.063 0-.126-.017-.183-.05l-41.423-23.863c-.1-.06-.168-.162-.18-.278-.013-.116.03-.23.117-.31.172-.156 17.3-15.44 30.9-6.91l36.75 21.893c.16.095.223.295.147.464-.075.17-.266.255-.442.2-1.978-.623-4.11-.85-6.334-.675-9.966.78-19.007 9.34-19.098 9.426-.07.066-.16.1-.252.1" fill="#33475C"/>
        <path d="M190.658 159.328l8.39-1.745s-6.59-17.545-28.266-1.096c-17.94 13.615-20.145 18.228-20.145 18.228v7.72l40.02-23.107z" fill="#CBD6E3"/>
        <path d="M151.002 174.808v6.993l39.473-22.788c.033-.02.07-.034.108-.042l7.95-1.653c-.618-1.326-2.96-5.612-7.886-7.03-5.336-1.537-11.945.648-19.644 6.49-16.453 12.487-19.644 17.42-20 18.03m-.367 7.993c-.063 0-.126-.017-.182-.05-.113-.064-.183-.185-.183-.316v-7.72c0-.054.013-.108.037-.157.09-.192 2.448-4.848 20.254-18.36 7.9-5.996 14.726-8.22 20.298-6.61 6.183 1.785 8.44 7.62 8.532 7.868.038.1.03.21-.022.305-.05.093-.14.16-.246.18l-8.332 1.734-39.97 23.077c-.057.033-.12.05-.184.05" fill="#33475C"/>
        <path d="M204.67 151.247s-2.878 6.992-14.012 8.08l1.9 1.097s7.718 3.255 13.973-8.063l-1.86-1.113z" fill="#6976D4"/>
        <path d="M191.795 159.562l.945.546c.26.105 7.325 2.897 13.298-7.615l-1.212-.726c-.757 1.456-4.015 6.55-13.03 7.795m3.362 1.64c-1.65 0-2.714-.43-2.743-.44l-1.94-1.118c-.137-.08-.208-.238-.174-.393.034-.155.165-.27.322-.286 10.79-1.055 13.68-7.788 13.71-7.856.04-.098.12-.174.222-.208.102-.032.212-.02.303.034l1.862 1.114c.168.1.226.318.13.49-4.048 7.327-8.78 8.663-11.692 8.663" fill="#33475C"/>
        <path d="M192.557 162.665s9.963-.27 13.973-8.062v-2.24c-6.386 8.692-13.973 8.06-13.973 8.06v2.242z" fill="#6976D4"/>
        <path d="M192.923 160.803v1.473c1.823-.15 9.793-1.172 13.243-7.762v-1.073c-5.478 6.86-11.545 7.363-13.208 7.363h-.035zm-.366 2.228c-.094 0-.186-.036-.254-.102-.07-.07-.11-.164-.11-.262v-2.24c0-.103.042-.2.117-.27.075-.07.18-.102.277-.095.077.008 7.473.495 13.65-7.914.093-.127.257-.18.408-.132.15.05.252.19.252.348v2.24c0 .06-.014.117-.04.168-4.063 7.894-14.188 8.258-14.29 8.26h-.01z" fill="#33475C"/>
        <path d="M191.596 64.8c0-1.65-1.17-2.324-2.598-1.5l-33.394 19.28c-1.43.825-2.598 2.85-2.598 4.5v10.135c0 1.65 1.17 2.325 2.598 1.5l33.394-19.28c1.43-.825 2.598-2.85 2.598-4.5V64.8z" fill="#FEF9F0"/>
        <path d="M190.54 63.006c-.195 0-.423.07-.66.208L155.086 83.3c-.93.538-1.716 1.9-1.716 2.974v11.75c0 .44.138.77.376.91.24.138.595.09.976-.13l34.792-20.088c.93-.537 1.716-1.898 1.716-2.973v-11.75c0-.44-.136-.77-.375-.91-.09-.05-.196-.077-.314-.077m-36.48 36.738c-.244 0-.474-.06-.68-.178-.477-.275-.74-.824-.74-1.543v-11.75c0-1.325.934-2.943 2.082-3.605l34.792-20.087c.623-.36 1.23-.405 1.707-.13.478.276.74.824.74 1.544v11.75c0 1.325-.933 2.942-2.08 3.605l-34.793 20.085c-.354.205-.703.31-1.027.31" fill="#33475C"/>
        <path d="M187.017 69.242c0-1-.855-1.324-1.9-.72L167.593 78.64c-1.045.603-1.9 1.914-1.9 2.913 0 .998.855 1.323 1.9.72l17.526-10.118c1.044-.604 1.9-1.915 1.9-2.913" fill="#FBE1B2"/>
        <path d="M186.094 68.583c-.225 0-.502.087-.793.255l-17.525 10.118c-.93.537-1.717 1.727-1.717 2.597 0 .2.044.465.254.587.245.14.654.072 1.097-.184l17.525-10.118c.93-.538 1.717-1.727 1.717-2.597 0-.2-.044-.464-.254-.586-.084-.047-.187-.07-.304-.07m-19.48 14.357c-.246 0-.472-.054-.667-.167-.4-.23-.62-.664-.62-1.22 0-1.137.915-2.556 2.082-3.23l17.525-10.118c.68-.394 1.348-.46 1.828-.184.4.232.62.665.62 1.22 0 1.138-.915 2.556-2.082 3.23l-17.525 10.12c-.405.233-.803.35-1.16.35" fill="#33475C"/>
        <path d="M180.76 79.207c0-.998-.855-1.323-1.898-.72l-11.27 6.508c-1.044.602-1.9 1.913-1.9 2.912 0 .998.856 1.323 1.9.72l11.27-6.507c1.043-.603 1.9-1.914 1.9-2.913" fill="#FBE1B2"/>
        <path d="M179.837 78.55c-.225 0-.502.086-.793.254l-11.27 6.506c-.93.538-1.716 1.726-1.716 2.597 0 .2.044.466.254.586.244.143.654.073 1.097-.182l11.268-6.506c.93-.537 1.717-1.727 1.717-2.597 0-.2-.044-.465-.254-.587-.082-.047-.186-.07-.303-.07m-13.224 10.745c-.246 0-.472-.056-.667-.168-.4-.23-.62-.664-.62-1.22 0-1.137.915-2.555 2.083-3.23l11.268-6.506c.682-.394 1.348-.46 1.83-.183.398.23.618.664.618 1.22 0 1.137-.915 2.556-2.082 3.23l-11.27 6.506c-.404.234-.803.352-1.16.352" fill="#33475C"/>
        <path d="M163.807 86.206c0-2.604-1.845-3.67-4.1-2.368-2.256 1.303-4.102 4.5-4.102 7.103 0 2.605 1.846 3.67 4.1 2.37 2.257-1.303 4.102-4.5 4.102-7.104" fill="#FBE1B2"/>
        <path d="M161.526 83.647c-.495 0-1.053.17-1.637.508-2.162 1.247-3.92 4.29-3.92 6.786 0 1.125.364 1.953 1.022 2.334.66.38 1.56.28 2.53-.282 2.162-1.247 3.92-4.29 3.92-6.786 0-1.123-.364-1.95-1.023-2.332-.264-.152-.565-.227-.894-.227m-3.643 10.585c-.455 0-.88-.108-1.256-.326-.895-.516-1.387-1.57-1.387-2.965 0-2.726 1.92-6.054 4.283-7.418 1.208-.698 2.367-.798 3.262-.28.894.516 1.387 1.57 1.387 2.964 0 2.727-1.92 6.055-4.283 7.42-.7.403-1.383.606-2.007.606" fill="#33475C"/>
        <path d="M158.49 88.86c0-.356-.25-.5-.558-.324-.308.178-.56.614-.56.97 0 .354.252.5.56.32.307-.176.56-.612.56-.967m3.322-1.909c0-.354-.252-.5-.56-.322-.307.178-.558.614-.558.97 0 .354.25.5.56.32.306-.176.558-.612.558-.967m-3.254 5.052c-.325 0-.623-.103-.865-.308-.154-.13-.172-.362-.042-.516.13-.154.362-.173.515-.042.236.2.61.178 1.025-.062.496-.287.97-.83 1.3-1.49.09-.18.308-.254.49-.164.18.09.253.31.163.49-.39.786-.97 1.44-1.588 1.796-.34.197-.682.295-1 .295" fill="#33475C"/>
        <path d="M196.906 97.103c1.463-.85.662-2.01.225-2.493-.058-.06-.112-.118-.17-.176l-.054-.05h.005c-3.09-3.16-4.407-6.327-4.964-8.375-.413-1.484-1.38-1.233-1.846-1.01l-.26.15-34.998 20.145s-1.6 1.123-1.186 2.76c.736 2.25 2.31 5.434 5.68 8.51.626.492 1.972 1.2 3.776.152l33.794-19.614z" fill="#FFF3EE"/>
        <path d="M196.906 97.103h.007-.007zm-6.133-11.908c-.186 0-.372.067-.514.135l-.238.138-34.997 20.144c-.03.022-1.36.986-1.015 2.355.688 2.096 2.22 5.266 5.572 8.328.548.428 1.74 1.038 3.346.106l33.795-19.613c.387-.225.606-.48.65-.76.072-.467-.335-.975-.513-1.17l-.16-.166c-.018-.015-.034-.033-.05-.052-3.134-3.204-4.48-6.41-5.056-8.533-.088-.313-.256-.72-.558-.855-.084-.04-.174-.055-.263-.055zM161.27 117.63c-.974 0-1.717-.43-2.16-.777-3.49-3.187-5.08-6.48-5.802-8.683-.476-1.886 1.25-3.123 1.325-3.174l35.285-20.312c.376-.182.905-.334 1.42-.1.448.203.77.65.96 1.327.556 2.045 1.852 5.126 4.875 8.218l.022.025.017.017.176.18c.323.355.823 1.04.707 1.788-.08.51-.418.94-1.006 1.28l-33.795 19.615c-.75.436-1.43.596-2.025.596z" fill="#33475C"/>
        <path d="M165.86 106.846c1.234 1.95 1.444 4.272-.185 5.667-1.63 1.394-4.89 1.012-6.457-1.46-1.566-2.472-.517-5.585 1.44-6.462 1.957-.876 3.968.307 5.202 2.256" fill="#FFC7AA"/>
        <path d="M162.005 104.66c-.39 0-.79.082-1.197.264-.81.364-1.48 1.196-1.79 2.228-.377 1.248-.19 2.6.51 3.705.7 1.106 1.84 1.85 3.13 2.045 1.066.156 2.105-.09 2.78-.667 1.628-1.394 1.08-3.67.114-5.194-.765-1.206-2.067-2.38-3.547-2.38m1.3 9.022c-.247 0-.5-.02-.755-.057-1.5-.225-2.827-1.092-3.64-2.377-.814-1.285-1.03-2.855-.593-4.307.377-1.25 1.175-2.228 2.192-2.682 1.96-.88 4.182.06 5.66 2.392 1.476 2.333 1.376 4.743-.257 6.14-.68.58-1.602.892-2.607.892" fill="#33475C"/>
        <path d="M168.036 103.93c-.505 0-.997-.26-1.268-.73-.403-.7-.164-1.593.536-1.997l17.525-10.12c.698-.402 1.593-.163 1.996.536.404.7.164 1.593-.535 1.997l-17.524 10.118c-.23.133-.482.196-.73.196" fill="#FFC7AA"/>
        <path d="M185.558 91.255c-.186 0-.374.047-.547.146l-17.524 10.12c-.523.302-.703.974-.4 1.498.29.504.99.695 1.497.4l17.525-10.117c.523-.302.704-.974.4-1.497-.2-.352-.57-.548-.95-.548m-17.522 13.042c-.652 0-1.26-.35-1.584-.914-.504-.872-.204-1.992.67-2.496l17.524-10.12c.875-.504 1.994-.202 2.496.67.504.872.204 1.992-.668 2.496l-17.526 10.12c-.277.16-.593.244-.912.244" fill="#33475C"/>
        <path d="M170.595 108.84c-.506 0-.998-.26-1.268-.73-.404-.7-.165-1.593.536-1.997l11.268-6.507c.702-.402 1.596-.164 2 .536.403.7.163 1.593-.536 1.997l-11.27 6.505c-.23.133-.482.196-.73.196" fill="#FFC7AA"/>
        <path d="M181.86 99.776c-.185 0-.373.047-.546.147l-11.27 6.505c-.522.303-.703.975-.4 1.498.29.504.99.697 1.497.402l11.27-6.506c.524-.303.705-.975.402-1.498-.202-.352-.572-.547-.95-.547m-11.268 9.43c-.65 0-1.258-.352-1.584-.915-.503-.872-.203-1.993.67-2.497l11.27-6.506c.874-.506 1.993-.204 2.495.668.504.873.204 1.992-.668 2.496l-11.27 6.508c-.278.16-.593.244-.913.244m-7.501 2.525c-.307 0-.624-.053-.93-.163-.19-.068-.29-.277-.222-.467.068-.19.275-.293.467-.22.604.214 1.244.142 1.63-.188.283-.243.434-.57.448-.972.007-.2.18-.34.378-.352.202.007.36.176.353.378-.023.606-.266 1.125-.705 1.5-.37.318-.88.484-1.42.484m-2.013-2.686c.145.23.17.504-.022.668-.19.163-.575.118-.76-.173-.184-.292-.06-.658.17-.76.23-.104.467.035.612.264m3.17-1.861c.145.23.17.503-.022.667-.19.163-.575.118-.76-.173-.183-.29-.06-.657.17-.76.23-.103.467.036.612.265" fill="#33475C"/>
        <path d="M219.65 114.567c-1.062-.574-2.784-.55-3.83.052l-30.264 17.473c-1.045.603-1.032 1.567.03 2.14l8.872 4.805c1.06.575 2.783.55 3.828-.052l30.265-17.474c1.046-.603 1.033-1.566-.028-2.14l-8.873-4.805zm-17.94-9.271c-1.06-.574-2.783-.55-3.828.052l-30.265 17.474c-1.045.603-1.032 1.566.03 2.14l8.872 4.805c1.06.575 2.782.55 3.827-.052l30.265-17.474c1.045-.602 1.032-1.565-.03-2.14l-8.872-4.804z" fill="#98ACC3"/>
        <path d="M204.99 99.176c-1.452-.786-3.808-.753-5.237.072l-33.394 19.28c-1.43.825-1.412 2.143.04 2.928l9.144 4.952c1.45.786 3.807.753 5.236-.072l33.395-19.28c1.43-.825 1.41-2.142-.04-2.928l-9.146-4.952z" fill="#FFF1EE"/>
        <path d="M202.427 98.742c-.654 0-1.31.14-1.793.418l-34.79 20.088c-.38.22-.597.496-.593.76.004.263.227.534.613.743l10.565 5.72c.948.513 2.537.492 3.47-.046l34.793-20.088c.38-.22.597-.496.593-.76-.004-.263-.227-.533-.613-.742l-10.565-5.72c-.458-.25-1.067-.372-1.678-.372m-24.322 28.827c-.733 0-1.462-.15-2.025-.456l-10.565-5.72c-.634-.344-.988-.833-.995-1.377-.008-.543.332-1.04.957-1.402l34.792-20.087c1.144-.662 3.022-.687 4.184-.057l10.564 5.72c.635.344.988.833.996 1.377.007.544-.333 1.042-.958 1.403l-34.792 20.086c-.59.34-1.376.513-2.16.513" fill="#33475C"/>
        <path d="M202.06 102.713c-.894-.483-2.48-.386-3.524.218l-17.525 10.12c-1.044.602-1.168 1.49-.275 1.975.893.483 2.478.385 3.522-.218l17.526-10.118c1.045-.605 1.17-1.494.276-1.977" fill="#FFBCAA"/>
        <path d="M200.634 102.77c-.658 0-1.373.164-1.915.477l-17.526 10.118c-.436.252-.693.563-.69.832.003.24.222.407.405.507.782.423 2.23.325 3.165-.213l17.526-10.118c.436-.252.694-.562.69-.83-.003-.24-.222-.408-.405-.508-.328-.177-.775-.263-1.25-.263M182.17 115.7c-.6 0-1.17-.116-1.61-.354-.5-.27-.78-.676-.787-1.14-.007-.545.377-1.082 1.055-1.473l17.526-10.118c1.164-.674 2.868-.77 3.88-.223.5.27.78.676.787 1.14.008.544-.376 1.082-1.054 1.473l-17.526 10.118c-.658.38-1.49.577-2.27.577" fill="#33475C"/>
        <path d="M201.482 109.4c-.893-.483-2.478-.386-3.523.218l-11.27 6.506c-1.045.603-1.17 1.492-.276 1.976.893.483 2.478.385 3.523-.218l11.27-6.506c1.044-.604 1.168-1.493.275-1.976" fill="#FFBCAA"/>
        <path d="M200.057 109.458c-.658 0-1.373.163-1.914.476l-11.27 6.506c-.435.252-.693.563-.69.832.004.24.223.407.406.506.78.424 2.23.327 3.165-.212l11.27-6.507c.434-.252.692-.563.69-.832-.005-.24-.223-.407-.406-.507-.33-.176-.776-.262-1.253-.262m-12.206 9.317c-.6 0-1.17-.116-1.61-.354-.5-.27-.78-.675-.787-1.137-.008-.546.377-1.084 1.055-1.475l11.27-6.506c1.164-.673 2.868-.77 3.878-.223.502.27.782.675.788 1.138.008.546-.377 1.083-1.055 1.474l-11.27 6.507c-.658.38-1.49.575-2.27.575" fill="#33475C"/>
        <path d="M182.035 117.838c-2.328-1.26-6.078-1.225-8.333.076-2.256 1.302-2.196 3.4.13 4.66 2.33 1.26 6.08 1.225 8.335-.076 2.255-1.303 2.196-3.4-.132-4.66" fill="#FFBCAA"/>
        <path d="M177.937 117.272c-1.475 0-2.947.32-4.052.958-.958.554-1.48 1.263-1.47 1.997.01.754.576 1.474 1.593 2.025 2.235 1.21 5.814 1.177 7.976-.07.96-.555 1.48-1.263 1.47-1.998-.01-.755-.575-1.474-1.593-2.025-1.092-.593-2.508-.888-3.923-.888m-.007 6.588c-1.54 0-3.08-.32-4.27-.965-1.26-.683-1.962-1.627-1.977-2.658-.013-1.01.64-1.948 1.837-2.64 2.36-1.362 6.256-1.4 8.69-.08 1.26.682 1.962 1.626 1.976 2.657.014 1.01-.638 1.948-1.836 2.64-1.205.696-2.812 1.045-4.42 1.046" fill="#33475C"/>
        <path d="M177.844 122.312c-.132 0-.265-.004-.4-.012-.2-.012-.354-.185-.342-.386.012-.202.19-.366.386-.344.994.06 1.945-.127 2.61-.51.573-.33.84-.763.736-1.185-.05-.197.07-.394.266-.444.195-.046.394.07.443.268.187.75-.217 1.496-1.08 1.994-.693.4-1.63.62-2.62.62m-1.869-1.873c-.296-.16-.772-.157-1.058.01-.286.164-.28.43.017.59.295.16.77.156 1.058-.01.287-.165.28-.43-.016-.59m3.437-1.99c-.296-.16-.772-.157-1.058.01-.287.165-.28.43.017.59.296.16.772.156 1.06-.008.285-.166.278-.433-.018-.593" fill="#33475C"/>
        <path d="M223.265 108.182c-1.45-.786-3.807-.753-5.236.072l-33.395 19.28c-1.43.825-1.41 2.143.04 2.928l9.145 4.952c1.45.786 3.807.753 5.236-.072l33.395-19.28c1.43-.825 1.412-2.142-.04-2.928l-9.145-4.952z" fill="#FDEDF2"/>
        <path d="M220.703 107.748c-.654 0-1.31.14-1.793.418l-34.79 20.088c-.38.22-.597.496-.593.76.003.263.226.533.612.742l10.564 5.72c.948.515 2.537.493 3.47-.046l34.793-20.088c.38-.22.596-.497.592-.76-.005-.263-.228-.533-.614-.742l-10.565-5.72c-.457-.25-1.066-.372-1.677-.372m-24.32 28.827c-.734 0-1.464-.15-2.027-.456l-10.565-5.72c-.633-.345-.987-.833-.994-1.376-.008-.544.332-1.042.957-1.403l34.792-20.086c1.145-.66 3.023-.687 4.185-.057l10.564 5.72c.635.343.988.832.996 1.375.007.544-.333 1.042-.958 1.403l-34.792 20.087c-.59.34-1.376.513-2.158.513" fill="#33475C"/>
        <path d="M220.335 111.72c-.893-.484-2.478-.387-3.523.217l-17.525 10.118c-1.045.603-1.17 1.492-.276 1.976.894.484 2.48.386 3.523-.217l17.526-10.118c1.044-.604 1.168-1.493.275-1.976" fill="#FBA9BE"/>
        <path d="M218.91 111.776c-.66 0-1.373.163-1.915.476l-17.526 10.12c-.436.25-.694.56-.69.83.003.24.222.407.405.507.783.422 2.232.326 3.165-.213l17.526-10.12c.436-.25.693-.562.69-.83-.004-.24-.222-.408-.405-.507-.328-.178-.774-.264-1.25-.264m-18.463 12.93c-.6 0-1.17-.117-1.61-.355-.502-.27-.782-.674-.788-1.137-.01-.546.376-1.084 1.054-1.475l17.526-10.118c1.164-.674 2.87-.77 3.88-.222.5.27.78.676.787 1.138.007.546-.377 1.083-1.055 1.474l-17.526 10.12c-.658.38-1.488.576-2.27.576" fill="#33475C"/>
        <path d="M219.758 118.406c-.893-.483-2.478-.386-3.523.218l-11.27 6.506c-1.044.603-1.168 1.492-.275 1.976.893.483 2.478.385 3.523-.218l11.27-6.506c1.044-.604 1.168-1.493.275-1.976" fill="#FBA9BE"/>
        <path d="M218.332 118.464c-.658 0-1.373.163-1.914.475l-11.27 6.506c-.435.252-.692.563-.69.832.004.24.223.407.406.506.783.424 2.232.326 3.166-.212l11.27-6.507c.435-.252.692-.562.69-.83-.005-.24-.223-.408-.406-.508-.33-.177-.775-.263-1.252-.263m-12.206 9.317c-.6 0-1.17-.115-1.61-.353-.502-.27-.78-.676-.788-1.138-.007-.547.377-1.085 1.055-1.476l11.27-6.507c1.164-.672 2.868-.77 3.88-.222.5.27.78.676.787 1.14.007.544-.377 1.082-1.055 1.473l-11.27 6.506c-.658.38-1.49.577-2.27.577" fill="#33475C"/>
        <path d="M200.31 126.844c-2.327-1.26-6.077-1.226-8.332.076-2.256 1.302-2.196 3.4.13 4.66 2.33 1.26 6.08 1.225 8.335-.077 2.255-1.302 2.196-3.4-.132-4.66" fill="#FBA9BE"/>
        <path d="M196.212 126.278c-1.475 0-2.947.32-4.052.958-.958.554-1.48 1.263-1.47 1.997.01.754.576 1.474 1.593 2.025 2.235 1.21 5.812 1.177 7.976-.07.958-.555 1.48-1.264 1.47-1.998-.01-.755-.576-1.474-1.593-2.025-1.094-.592-2.51-.887-3.925-.887m-.008 6.587c-1.54 0-3.08-.32-4.27-.964-1.26-.682-1.96-1.626-1.976-2.657-.013-1.01.64-1.948 1.837-2.64 2.36-1.362 6.256-1.4 8.69-.08 1.26.682 1.962 1.625 1.976 2.657.015 1.01-.637 1.948-1.835 2.64-1.206.695-2.812 1.045-4.42 1.045" fill="#33475C"/>
        <path d="M196.12 131.317c-.133 0-.266-.004-.4-.012-.2-.012-.355-.185-.343-.386.012-.203.184-.365.387-.345.993.06 1.944-.128 2.608-.51.574-.33.842-.763.737-1.185-.05-.197.07-.394.265-.444.196-.047.394.07.443.267.187.75-.217 1.496-1.08 1.994-.693.4-1.63.62-2.62.62m-1.867-1.871c-.297-.16-.773-.156-1.06.01-.285.165-.278.43.018.59.295.16.77.157 1.058-.008.286-.166.28-.432-.017-.592m3.439-1.99c-.296-.16-.772-.156-1.058.01-.286.165-.28.43.017.59.295.16.77.157 1.058-.008.286-.166.28-.432-.017-.592" fill="#33475C"/>
        <path d="M144.69 99.77c0-1.1-.778-2.45-1.73-3l-10.51-6.068c-.953-.55-1.732-.1-1.732 1v27.487c0 1.1.78 2.45 1.732 3l10.51 6.066c.952.55 1.73.1 1.73-1V99.77z" fill="#7BDED2"/>
        <path d="M131.422 90.627c-.057 0-.108.012-.15.036-.12.07-.19.252-.19.502v28.562c0 .678.497 1.538 1.084 1.877l11.44 6.605c.217.123.41.155.53.086.12-.07.19-.252.19-.5V99.23c0-.678-.497-1.538-1.084-1.877l-11.44-6.605c-.142-.08-.273-.123-.38-.123m12.567 38.435c-.24 0-.496-.074-.748-.22l-11.44-6.606c-.814-.468-1.45-1.57-1.45-2.51v-28.56c0-.52.202-.932.555-1.136.352-.203.81-.173 1.26.087l11.44 6.606c.813.47 1.45 1.57 1.45 2.51v28.562c0 .516-.203.93-.555 1.134-.154.088-.328.132-.513.132" fill="#33475C"/>
        <path d="M130.717 102.567c0-1.1-.78-2.45-1.732-3l-10.51-6.068c-.952-.55-1.73-.1-1.73 1v16.52c0 1.1.778 2.45 1.73 3l10.51 6.068c.953.55 1.732.1 1.732-1v-16.52z" fill="#7BDED2"/>
        <path d="M117.448 93.424c-.057 0-.108.012-.15.036-.12.07-.19.252-.19.502v17.597c0 .677.497 1.537 1.084 1.876l11.442 6.605c.215.125.408.156.528.088.12-.07.19-.252.19-.502V102.03c0-.68-.497-1.54-1.084-1.878l-11.44-6.605c-.142-.08-.273-.123-.38-.123m12.568 27.47c-.24 0-.495-.074-.748-.22l-11.44-6.606c-.814-.468-1.45-1.57-1.45-2.51V93.963c0-.518.202-.93.555-1.135.35-.203.81-.173 1.26.087l11.44 6.606c.813.468 1.45 1.57 1.45 2.51v17.596c0 .518-.203.93-.555 1.135-.154.09-.328.134-.512.134" fill="#33475C"/>
        <path fill="#E5F6F9" d="M136.905 96.97l-3.917-2.262v4.524l3.917 2.26"/>
        <path d="M133.353 99.02l3.186 1.84v-3.678l-3.187-1.84v3.678zm3.552 2.838c-.063 0-.126-.016-.183-.05l-3.917-2.26c-.113-.065-.183-.186-.183-.317V94.71c0-.13.07-.25.183-.316.113-.066.252-.066.365 0l3.918 2.26c.113.066.182.188.182.32v4.522c0 .13-.07.25-.182.316-.057.032-.12.048-.183.048z" fill="#33475C"/>
        <path fill="#E5F6F9" d="M142.42 99.945l-3.917-2.262v4.524l3.917 2.26"/>
        <path d="M138.868 101.995l3.186 1.84v-3.68l-3.186-1.84v3.68zm3.552 2.838c-.064 0-.127-.016-.183-.05l-3.917-2.26c-.113-.065-.183-.186-.183-.317v-4.524c0-.13.07-.25.183-.316.113-.066.252-.066.365 0l3.917 2.262c.113.065.183.185.183.316v4.524c0 .13-.07.25-.183.316-.056.033-.12.05-.182.05z" fill="#33475C"/>
        <path fill="#E5F6F9" d="M136.905 103.396l-3.917-2.262v4.524l3.917 2.26"/>
        <path d="M133.353 105.447l3.186 1.84v-3.68l-3.187-1.84v3.68zm3.552 2.838c-.063 0-.126-.016-.183-.05l-3.917-2.26c-.113-.065-.183-.186-.183-.317v-4.523c0-.13.07-.25.183-.316.113-.067.252-.067.365 0l3.918 2.26c.113.065.182.186.182.317v4.523c0 .13-.07.25-.182.316-.057.033-.12.05-.183.05z" fill="#33475C"/>
        <path fill="#E5F6F9" d="M142.42 106.37l-3.917-2.26v4.523l3.917 2.26"/>
        <path d="M138.868 108.42l3.186 1.84v-3.678l-3.186-1.84v3.68zm3.552 2.84c-.064 0-.127-.017-.183-.05l-3.917-2.26c-.113-.066-.183-.187-.183-.318v-4.523c0-.13.07-.252.183-.317.113-.066.252-.066.365 0l3.917 2.26c.113.066.183.187.183.318v4.524c0 .13-.07.25-.183.316-.056.033-.12.05-.182.05z" fill="#33475C"/>
        <path fill="#E5F6F9" d="M136.905 109.823l-3.917-2.262v4.525l3.917 2.26"/>
        <path d="M133.353 111.873l3.186 1.84v-3.68l-3.187-1.84v3.68zm3.552 2.838c-.063 0-.126-.015-.183-.048l-3.917-2.26c-.113-.066-.183-.187-.183-.318v-4.523c0-.13.07-.25.183-.315.113-.066.252-.066.365 0l3.918 2.26c.113.066.182.187.182.318v4.523c0 .13-.07.25-.182.316-.057.033-.12.05-.183.05z" fill="#33475C"/>
        <path fill="#E5F6F9" d="M142.42 112.797l-3.917-2.262v4.524l3.917 2.26"/>
        <path d="M138.868 114.847l3.186 1.84v-3.68l-3.186-1.84v3.68zm3.552 2.838c-.064 0-.127-.016-.183-.05l-3.917-2.26c-.113-.065-.183-.186-.183-.317v-4.523c0-.13.07-.25.183-.316.113-.067.252-.067.365 0l3.917 2.26c.113.065.183.186.183.317v4.523c0 .13-.07.25-.183.316-.056.033-.12.05-.182.05z" fill="#33475C"/>
        <path fill="#E5F6F9" d="M122.932 99.674l-3.917-2.262v4.524l3.917 2.26"/>
        <path d="M119.38 101.725l3.186 1.84v-3.68l-3.186-1.84v3.68zm3.552 2.838c-.063 0-.126-.016-.183-.05l-3.918-2.26c-.113-.065-.183-.186-.183-.317v-4.523c0-.13.07-.25.182-.316.113-.066.252-.066.365 0l3.918 2.26c.113.066.182.187.182.318v4.523c0 .13-.07.25-.182.316-.057.033-.12.05-.183.05z" fill="#33475C"/>
        <path fill="#E5F6F9" d="M128.447 102.65l-3.917-2.263v4.524l3.917 2.262"/>
        <path d="M124.895 104.7l3.186 1.84v-3.68l-3.185-1.84v3.68zm3.552 2.837c-.063 0-.126-.016-.183-.05l-3.917-2.26c-.113-.065-.183-.186-.183-.317v-4.523c0-.13.07-.25.183-.316.113-.065.252-.065.365 0l3.918 2.262c.113.065.182.186.182.317v4.522c0 .13-.07.25-.182.316-.057.033-.12.05-.183.05z" fill="#33475C"/>
        <path fill="#CBD6E3" d="M134.61 123.436l5.514 3.184v-8.108l-5.514-3.184"/>
        <path d="M134.975 123.225l4.784 2.762v-7.264l-4.785-2.762v7.265zm5.15 3.76c-.064 0-.127-.016-.183-.05l-5.515-3.182c-.113-.065-.183-.186-.183-.317v-8.108c0-.13.07-.25.183-.316.113-.066.252-.066.365 0l5.515 3.184c.113.065.183.185.183.316v8.108c0 .13-.07.252-.183.316-.056.033-.12.05-.182.05z" fill="#33475C"/>
        <path fill="#CBD6E3" d="M120.608 115.25l5.515 3.185v-9.378l-5.515-3.184"/>
        <path d="M120.973 115.04l4.784 2.762v-8.533l-4.784-2.763v8.533zm5.15 3.76c-.064 0-.127-.016-.184-.05l-5.515-3.182c-.113-.065-.183-.186-.183-.317v-9.376c0-.13.07-.252.183-.317.113-.065.252-.065.365 0l5.515 3.184c.113.066.183.187.183.318v9.377c0 .13-.07.252-.183.316-.056.034-.12.05-.183.05z" fill="#33475C"/>
        <path d="M145.252 129.48l9.09 5.248" fill="#FFF"/>
        <path d="M146.517 130.572c-.066 0-.124-.014-.183-.044l-1.264-.73c-.176-.103-.234-.33-.132-.505.095-.17.33-.227.497-.132l1.265.732c.088.05.146.132.168.22.03.094.015.197-.037.277-.065.116-.18.182-.313.182m2.53 1.462c-.06 0-.125-.014-.183-.044l-1.265-.73c-.11-.067-.176-.183-.184-.315 0-.066.015-.132.052-.19.094-.17.328-.227.496-.132l1.273.73c.168.104.233.323.13.498-.065.118-.19.184-.32.184m2.536 1.462c-.066 0-.124-.014-.183-.043l-1.264-.73c-.11-.068-.183-.184-.183-.316 0-.066.015-.132.044-.19.102-.17.336-.227.504-.132l1.266.73c.175.104.234.323.13.498-.065.117-.182.183-.313.183m2.53 1.462c-.06 0-.125-.014-.183-.043l-1.265-.73c-.11-.068-.176-.184-.183-.316 0-.067.015-.133.05-.19.096-.17.33-.227.498-.133l1.265.73c.175.104.234.323.14.498-.067.117-.19.183-.323.183" fill="#33475C"/>
        <path d="M170.62 125.33l-16.276 9.398" fill="#FFF"/>
        <path d="M169.354 126.427c-.132 0-.25-.073-.314-.183-.052-.088-.066-.183-.037-.277.022-.095.08-.176.168-.227l1.266-.724c.168-.102.402-.037.497.132.102.175.044.402-.132.497l-1.263.73c-.06.03-.117.052-.183.052m-2.53 1.462c-.13 0-.255-.074-.32-.184-.103-.175-.038-.402.13-.504l1.273-.724c.168-.102.402-.037.496.132.037.058.052.124.052.19-.008.124-.073.24-.183.307l-1.272.73c-.05.037-.117.052-.175.052m-2.537 1.46c-.132 0-.248-.072-.315-.182-.102-.175-.043-.402.132-.497l1.265-.737c.168-.095.402-.03.504.14.03.057.044.123.044.19 0 .123-.073.24-.183.306l-1.264.73c-.058.03-.116.05-.182.05m-2.53 1.463c-.13 0-.255-.073-.32-.183-.096-.175-.038-.402.138-.504l1.265-.73c.17-.096.402-.03.498.138.036.058.05.124.05.19-.006.13-.072.24-.182.307l-1.265.732c-.057.03-.123.05-.18.05m-2.538 1.463c-.124 0-.25-.073-.314-.183-.052-.087-.066-.182-.037-.277.023-.095.09-.176.17-.22l1.264-.73c.168-.103.402-.038.504.13.03.06.052.125.044.19 0 .125-.066.242-.175.308l-1.272.73c-.05.037-.117.052-.183.052m-2.53 1.462c-.13 0-.255-.073-.32-.183-.096-.175-.037-.394.138-.496l1.264-.74c.17-.094.403-.03.498.14.036.058.05.124.05.19 0 .124-.072.248-.182.307l-1.265.73c-.058.03-.116.052-.182.052m-2.347 1.352c-.13 0-.256-.066-.322-.183-.102-.175-.036-.395.14-.497l1.08-.62c.17-.104.403-.04.498.13.03.058.05.124.05.19-.006.124-.072.24-.18.307l-1.083.63c-.06.028-.125.042-.184.042" fill="#33475C"/>
        <path stroke="#33475C" stroke-width="6" stroke-linecap="round" stroke-linejoin="round" d="M40.62 74.347l6.724 3.883 6.725-3.883-6.726-3.883zm42.05 9.833L58.247 13.555l6.725 3.882 24.426 70.624z"/>
        <path stroke="#33475C" stroke-width="6" stroke-linecap="round" stroke-linejoin="round" d="M47.344 78.23L64.97 17.438l6.726-3.883L54.07 74.347z"/>
        <path stroke="#33475C" stroke-width="6" stroke-linecap="round" stroke-linejoin="round" d="M60.695 105.17l4.275-87.73-6.724-3.882-4.276 87.732z"/>
        <path stroke="#33475C" stroke-width="6" stroke-linecap="round" stroke-linejoin="round" d="M60.695 105.17l4.275-87.73 6.726-3.882L96.12 84.18l-6.724 3.882L70.7 34.002l-3.28 67.286zm-2.449-91.614l6.725 3.883 6.726-3.884-6.725-3.883z"/>
        <path stroke="#33475C" stroke-width="6" stroke-linecap="round" stroke-linejoin="round" d="M47.344 78.23L64.97 17.438l-6.724-3.883L40.62 74.347z"/>
        <path d="M37.59 83.067l63.557-36.656c.022-.01.043-.025.065-.037l.09-.05.007.014c.596-.28 1.378-.218 2.24.28 1.85 1.07 3.364 3.69 3.364 5.825 0 1.14-.44 1.907-1.126 2.223L42.132 91.38l-4.54-8.313z" stroke="#33475C" stroke-width="6" stroke-linecap="round" stroke-linejoin="round"/>
        <path d="M39.84 83.363c-1.848-1.068-3.362-.194-3.362 1.94 0 2.137 1.514 4.758 3.363 5.826 1.85 1.066 3.364.193 3.364-1.943 0-2.135-1.514-4.756-3.363-5.824zM36.882 38.76l60.513-34.9 4.484 43.8-60.515 34.9z" stroke="#33475C" stroke-width="6" stroke-linecap="round" stroke-linejoin="round"/>
        <path d="M33.026 39.854L96.428 3.24l.065-.038.09-.05.007.013c.597-.278 1.38-.218 2.242.28 1.85 1.07 3.363 3.69 3.363 5.825 0 1.142-.44 1.907-1.126 2.224L37.566 48.167l-4.54-8.313z" stroke="#33475C" stroke-width="6" stroke-linecap="round" stroke-linejoin="round"/>
        <path d="M35.276 40.15c-1.85-1.07-3.363-.195-3.363 1.94 0 2.136 1.514 4.757 3.363 5.824 1.85 1.068 3.363.195 3.363-1.94 0-2.136-1.515-4.757-3.364-5.825zm49.328 15.13l11.965-7.008.028-.016.04-.023.003.007c.266-.124.613-.097.997.124.82.474 1.492 1.637 1.492 2.585 0 .506-.196.846-.5.987L86.62 58.97l-2.016-3.69z" stroke="#33475C" stroke-width="6" stroke-linecap="round" stroke-linejoin="round"/>
        <path d="M85.603 55.41c-.82-.473-1.493-.085-1.493.863s.672 2.11 1.493 2.585c.82.474 1.493.086 1.493-.862s-.672-2.11-1.493-2.585zm28.303-28.442c.145 3.296 2.935 5.85 6.23 5.705 3.296-.146 5.85-2.935 5.705-6.23-.144-3.297-2.934-5.85-6.23-5.705-3.295.145-5.85 2.934-5.704 6.23zM46.942 94.23c.376 8.813-.268 22.666-1.435 31.41-.09.678-.176 1.407.148 2.01.375.697 1.187 1.017 1.934 1.284 1.71.61 3.9 1.113 5.114-.24.614-.682.763-1.652.88-2.563.624-4.868-.104-17.97 1.333-19.662 1.147.61 1.193 16.148 2.264 21.718.082.426.187.887.524 1.16.378.31.92.278 1.406.23l3.163-.308c.742-.072 1.543-.17 2.08-.686.745-.715.677-1.903.554-2.928-1.188-9.936-2.38-25.195-3.57-35.13 1.115.74 2.622.69 3.84.14 1.22-.55 2.188-1.538 3.007-2.595.924-1.195 1.725-2.632 1.558-4.133-.14-1.267-.945-2.348-1.72-3.36l-4.377-5.72c-.573-.748-1.202-1.538-2.102-1.822-1.215-.383-2.56.322-3.318 1.347-.756 1.026-1.054 2.308-1.335 3.55-.01.04.034.288.044.326.238.917 1.01 1.577 1.617 2.304.426.51.82 1.14 1.098 1.744 0 0 1.304.473 1.955.817.585.31 2.41 1.228 2.41 1.228-1.894-.94-3.705-2.053-5.777-2.4-2.098-.35-4.05.136-6.15.136-1.93 0-3.978.034-5.598 1.08-1.313.847-2.15 2.24-3.024 3.536-2.18 3.236-.814 5.907 3.478 7.527" stroke="#33475C" stroke-width="6" stroke-linecap="round" stroke-linejoin="round"/>
        <path d="M46.942 94.23c.376 8.813-.268 22.666-1.435 31.41-.09.678-.176 1.407.148 2.01.375.697 1.187 1.017 1.934 1.284 1.71.61 3.9 1.113 5.114-.24.614-.682.763-1.652.88-2.563.624-4.868-.104-17.97 1.333-19.662 1.147.61 1.193 16.148 2.264 21.718.082.426.187.887.524 1.16.378.31.92.278 1.406.23l3.163-.308c.742-.072 1.543-.17 2.08-.686.745-.715.677-1.903.554-2.928-1.188-9.936-2.38-25.195-3.57-35.13 1.115.74 2.622.69 3.84.14 1.22-.55 2.188-1.538 3.007-2.595.924-1.195 1.725-2.632 1.558-4.133-.14-1.267-.945-2.348-1.72-3.36l-4.377-5.72c-.573-.748-1.202-1.538-2.102-1.822-1.215-.383-2.56.322-3.318 1.347-.756 1.026-1.054 2.308-1.335 3.55-.01.04.034.288.044.326.238.917 1.01 1.577 1.617 2.304.426.51.82 1.14 1.098 1.744 0 0 1.304.473 1.955.817.585.31 2.41 1.228 2.41 1.228-1.894-.94-3.705-2.053-5.777-2.4-2.098-.35-4.05.136-6.15.136-1.93 0-3.978.034-5.598 1.08-1.313.847-2.15 2.24-3.024 3.536-2.18 3.236-.814 5.907 3.478 7.527" stroke="#33475C" stroke-width="6" stroke-linecap="round" stroke-linejoin="round"/>
        <path d="M46.942 94.23c.376 8.813-.268 22.666-1.435 31.41-.09.678-.176 1.407.148 2.01.375.697 1.187 1.017 1.934 1.284 1.71.61 3.9 1.113 5.114-.24.614-.682.763-1.652.88-2.563.624-4.868-.104-17.97 1.333-19.662 1.147.61 1.193 16.148 2.264 21.718.082.426.187.887.524 1.16.378.31.92.278 1.406.23l3.163-.308c.742-.072 1.543-.17 2.08-.686.745-.715.677-1.903.554-2.928-1.188-9.936-2.38-25.195-3.57-35.13 1.115.74 2.622.69 3.84.14 1.22-.55 2.188-1.538 3.007-2.595.924-1.195 1.725-2.632 1.558-4.133-.14-1.267-.945-2.348-1.72-3.36l-4.377-5.72c-.573-.748-1.202-1.538-2.102-1.822-1.215-.383-2.56.322-3.318 1.347-.756 1.026-1.054 2.308-1.335 3.55-.01.04.034.288.044.326.238.917 1.01 1.577 1.617 2.304.426.51.82 1.14 1.098 1.744 0 0 1.304.473 1.955.817.585.31 2.41 1.228 2.41 1.228-1.894-.94-3.705-2.053-5.777-2.4-2.098-.35-4.05.136-6.15.136-1.93 0-3.978.034-5.598 1.08-1.313.847-2.15 2.24-3.024 3.536-2.18 3.236-.814 5.907 3.478 7.527" stroke="#33475C" stroke-width="6" stroke-linecap="round" stroke-linejoin="round"/>
        <path d="M60.344 73.854c-.042 3.42-2.85 6.16-6.27 6.117-3.42-.04-6.158-2.848-6.115-6.27.04-3.42 2.848-6.158 6.267-6.116 3.422.043 6.16 2.85 6.118 6.27z" stroke="#33475C" stroke-width="6" stroke-linecap="round" stroke-linejoin="round"/>
        <path d="M60.344 73.854c-.042 3.42-2.85 6.16-6.27 6.117-3.42-.04-6.158-2.848-6.115-6.27.04-3.42 2.848-6.158 6.267-6.116 3.422.043 6.16 2.85 6.118 6.27z" stroke="#33475C" stroke-width="6" stroke-linecap="round" stroke-linejoin="round"/>
        <path d="M60.344 73.854c-.042 3.42-2.85 6.16-6.27 6.117-3.42-.04-6.158-2.848-6.115-6.27.04-3.42 2.848-6.158 6.267-6.116 3.422.043 6.16 2.85 6.118 6.27z" stroke="#33475C" stroke-width="6" stroke-linecap="round" stroke-linejoin="round"/>
        <path d="M46.942 94.23c.376 8.813-.268 22.666-1.435 31.41-.09.678-.176 1.407.148 2.01.375.697 1.187 1.017 1.934 1.284 1.71.61 3.9 1.113 5.114-.24.614-.682.763-1.652.88-2.563.624-4.868-.104-17.97 1.333-19.662 1.147.61 1.193 16.148 2.264 21.718.082.426.187.887.524 1.16.378.31.92.278 1.406.23l3.163-.308c.742-.072 1.543-.17 2.08-.686.745-.715.677-1.903.554-2.928-1.188-9.936-2.38-25.195-3.57-35.13 1.115.74 2.622.69 3.84.14 1.22-.55 2.188-1.538 3.007-2.595.924-1.195 1.725-2.632 1.558-4.133-.14-1.267-.945-2.348-1.72-3.36l-4.377-5.72c-.573-.748-1.202-1.538-2.102-1.822-1.215-.383-2.56.322-3.318 1.347-.756 1.026-1.054 2.308-1.335 3.55-.01.04.034.288.044.326.238.917 1.01 1.577 1.617 2.304.426.51.82 1.14 1.098 1.744 0 0 1.304.473 1.955.817.585.31 2.41 1.228 2.41 1.228-1.894-.94-3.705-2.053-5.777-2.4-2.098-.35-4.05.136-6.15.136-1.93 0-3.978.034-5.598 1.08-1.313.847-2.15 2.24-3.024 3.536-2.18 3.236-.814 5.907 3.478 7.527" stroke="#33475C" stroke-width="6" stroke-linecap="round" stroke-linejoin="round"/>
        <path d="M46.942 94.23c.376 8.813-.268 22.666-1.435 31.41-.09.678-.176 1.407.148 2.01.375.697 1.187 1.017 1.934 1.284 1.71.61 3.9 1.113 5.114-.24.614-.682.763-1.652.88-2.563.624-4.868-.104-17.97 1.333-19.662 1.147.61 1.193 16.148 2.264 21.718.082.426.187.887.524 1.16.378.31.92.278 1.406.23l3.163-.308c.742-.072 1.543-.17 2.08-.686.745-.715.677-1.903.554-2.928-1.188-9.936-2.38-25.195-3.57-35.13 1.115.74 2.622.69 3.84.14 1.22-.55 2.188-1.538 3.007-2.595.924-1.195 1.725-2.632 1.558-4.133-.14-1.267-.945-2.348-1.72-3.36l-4.377-5.72c-.573-.748-1.202-1.538-2.102-1.822-1.215-.383-2.56.322-3.318 1.347-.756 1.026-1.054 2.308-1.335 3.55-.01.04.034.288.044.326.238.917 1.01 1.577 1.617 2.304.426.51.82 1.14 1.098 1.744 0 0 1.304.473 1.955.817.585.31 2.41 1.228 2.41 1.228-1.894-.94-3.705-2.053-5.777-2.4-2.098-.35-4.05.136-6.15.136-1.93 0-3.978.034-5.598 1.08-1.313.847-2.15 2.24-3.024 3.536-2.18 3.236-.814 5.907 3.478 7.527" stroke="#33475C" stroke-width="6" stroke-linecap="round" stroke-linejoin="round"/>
        <path d="M46.942 94.23c.376 8.813-.268 22.666-1.435 31.41-.09.678-.176 1.407.148 2.01.375.697 1.187 1.017 1.934 1.284 1.71.61 3.9 1.113 5.114-.24.614-.682.763-1.652.88-2.563.624-4.868-.104-17.97 1.333-19.662 1.147.61 1.193 16.148 2.264 21.718.082.426.187.887.524 1.16.378.31.92.278 1.406.23l3.163-.308c.742-.072 1.543-.17 2.08-.686.745-.715.677-1.903.554-2.928-1.188-9.936-2.38-25.195-3.57-35.13 1.115.74 2.622.69 3.84.14 1.22-.55 2.188-1.538 3.007-2.595.924-1.195 1.725-2.632 1.558-4.133-.14-1.267-.945-2.348-1.72-3.36l-4.377-5.72c-.573-.748-1.202-1.538-2.102-1.822-1.215-.383-2.56.322-3.318 1.347-.756 1.026-1.054 2.308-1.335 3.55-.01.04.034.288.044.326.238.917 1.01 1.577 1.617 2.304.426.51.82 1.14 1.098 1.744 0 0 1.304.473 1.955.817.585.31 2.41 1.228 2.41 1.228-1.894-.94-3.705-2.053-5.777-2.4-2.098-.35-4.05.136-6.15.136-1.93 0-3.978.034-5.598 1.08-1.313.847-2.15 2.24-3.024 3.536-2.18 3.236-.814 5.907 3.478 7.527" stroke="#33475C" stroke-width="6" stroke-linecap="round" stroke-linejoin="round"/>
        <path d="M60.344 73.854c-.042 3.42-2.85 6.16-6.27 6.117-3.42-.04-6.158-2.848-6.115-6.27.04-3.42 2.848-6.158 6.267-6.116 3.422.043 6.16 2.85 6.118 6.27z" stroke="#33475C" stroke-width="6" stroke-linecap="round" stroke-linejoin="round"/>
        <path d="M60.344 73.854c-.042 3.42-2.85 6.16-6.27 6.117-3.42-.04-6.158-2.848-6.115-6.27.04-3.42 2.848-6.158 6.267-6.116 3.422.043 6.16 2.85 6.118 6.27z" stroke="#33475C" stroke-width="6" stroke-linecap="round" stroke-linejoin="round"/>
        <path d="M60.344 73.854c-.042 3.42-2.85 6.16-6.27 6.117-3.42-.04-6.158-2.848-6.115-6.27.04-3.42 2.848-6.158 6.267-6.116 3.422.043 6.16 2.85 6.118 6.27z" stroke="#33475C" stroke-width="6" stroke-linecap="round" stroke-linejoin="round"/>
        <path d="M46.942 94.23c.376 8.813-.268 22.666-1.435 31.41-.09.678-.176 1.407.148 2.01.375.697 1.187 1.017 1.934 1.284 1.71.61 3.9 1.113 5.114-.24.614-.682.763-1.652.88-2.563.624-4.868-.104-17.97 1.333-19.662 1.147.61 1.193 16.148 2.264 21.718.082.426.187.887.524 1.16.378.31.92.278 1.406.23l3.163-.308c.742-.072 1.543-.17 2.08-.686.745-.715.677-1.903.554-2.928-1.188-9.936-2.38-25.195-3.57-35.13 1.115.74 2.622.69 3.84.14 1.22-.55 2.188-1.538 3.007-2.595.924-1.195 1.725-2.632 1.558-4.133-.14-1.267-.945-2.348-1.72-3.36l-4.377-5.72c-.573-.748-1.202-1.538-2.102-1.822-1.215-.383-2.56.322-3.318 1.347-.756 1.026-1.054 2.308-1.335 3.55-.01.04.034.288.044.326.238.917 1.01 1.577 1.617 2.304.426.51.82 1.14 1.098 1.744 0 0 1.304.473 1.955.817.585.31 2.41 1.228 2.41 1.228-1.894-.94-3.705-2.053-5.777-2.4-2.098-.35-4.05.136-6.15.136-1.93 0-3.978.034-5.598 1.08-1.313.847-2.15 2.24-3.024 3.536-2.18 3.236-.814 5.907 3.478 7.527" stroke="#33475C" stroke-width="6" stroke-linecap="round" stroke-linejoin="round"/>
        <path d="M46.942 94.23c.376 8.813-.268 22.666-1.435 31.41-.09.678-.176 1.407.148 2.01.375.697 1.187 1.017 1.934 1.284 1.71.61 3.9 1.113 5.114-.24.614-.682.763-1.652.88-2.563.624-4.868-.104-17.97 1.333-19.662 1.147.61 1.193 16.148 2.264 21.718.082.426.187.887.524 1.16.378.31.92.278 1.406.23l3.163-.308c.742-.072 1.543-.17 2.08-.686.745-.715.677-1.903.554-2.928-1.188-9.936-2.38-25.195-3.57-35.13 1.115.74 2.622.69 3.84.14 1.22-.55 2.188-1.538 3.007-2.595.924-1.195 1.725-2.632 1.558-4.133-.14-1.267-.945-2.348-1.72-3.36l-4.377-5.72c-.573-.748-1.202-1.538-2.102-1.822-1.215-.383-2.56.322-3.318 1.347-.756 1.026-1.054 2.308-1.335 3.55-.01.04.034.288.044.326.238.917 1.01 1.577 1.617 2.304.426.51.82 1.14 1.098 1.744 0 0 1.304.473 1.955.817.585.31 2.41 1.228 2.41 1.228-1.894-.94-3.705-2.053-5.777-2.4-2.098-.35-4.05.136-6.15.136-1.93 0-3.978.034-5.598 1.08-1.313.847-2.15 2.24-3.024 3.536-2.18 3.236-.814 5.907 3.478 7.527" stroke="#33475C" stroke-width="6" stroke-linecap="round" stroke-linejoin="round"/>
        <path d="M46.942 94.23c.376 8.813-.268 22.666-1.435 31.41-.09.678-.176 1.407.148 2.01.375.697 1.187 1.017 1.934 1.284 1.71.61 3.9 1.113 5.114-.24.614-.682.763-1.652.88-2.563.624-4.868-.104-17.97 1.333-19.662 1.147.61 1.193 16.148 2.264 21.718.082.426.187.887.524 1.16.378.31.92.278 1.406.23l3.163-.308c.742-.072 1.543-.17 2.08-.686.745-.715.677-1.903.554-2.928-1.188-9.936-2.38-25.195-3.57-35.13 1.115.74 2.622.69 3.84.14 1.22-.55 2.188-1.538 3.007-2.595.924-1.195 1.725-2.632 1.558-4.133-.14-1.267-.945-2.348-1.72-3.36l-4.377-5.72c-.573-.748-1.202-1.538-2.102-1.822-1.215-.383-2.56.322-3.318 1.347-.756 1.026-1.054 2.308-1.335 3.55-.01.04.034.288.044.326.238.917 1.01 1.577 1.617 2.304.426.51.82 1.14 1.098 1.744 0 0 1.304.473 1.955.817.585.31 2.41 1.228 2.41 1.228-1.894-.94-3.705-2.053-5.777-2.4-2.098-.35-4.05.136-6.15.136-1.93 0-3.978.034-5.598 1.08-1.313.847-2.15 2.24-3.024 3.536-2.18 3.236-.814 5.907 3.478 7.527" stroke="#33475C" stroke-width="6" stroke-linecap="round" stroke-linejoin="round"/>
        <path d="M60.344 73.854c-.042 3.42-2.85 6.16-6.27 6.117-3.42-.04-6.158-2.848-6.115-6.27.04-3.42 2.848-6.158 6.267-6.116 3.422.043 6.16 2.85 6.118 6.27z" stroke="#33475C" stroke-width="6" stroke-linecap="round" stroke-linejoin="round"/>
        <path d="M60.344 73.854c-.042 3.42-2.85 6.16-6.27 6.117-3.42-.04-6.158-2.848-6.115-6.27.04-3.42 2.848-6.158 6.267-6.116 3.422.043 6.16 2.85 6.118 6.27z" stroke="#33475C" stroke-width="6" stroke-linecap="round" stroke-linejoin="round"/>
        <path d="M60.344 73.854c-.042 3.42-2.85 6.16-6.27 6.117-3.42-.04-6.158-2.848-6.115-6.27.04-3.42 2.848-6.158 6.267-6.116 3.422.043 6.16 2.85 6.118 6.27zm51.926-31.856c-.826 12.474-1.577 34.03-1.332 37.052.318 3.91 6.62 2.188 6.62 2.188 1.18-2.97-.276-26.45 1.895-23.347 2.172 3.103 2.23 17.635 1.388 21.596-.842 3.962 7.76 1.257 7.76 1.257 1.39-4.712-2.85-37.33-2.85-37.33s3.628 3.38 5.866 6.13c5.074 6.237 5.585 4.92 7.79 3.272 2.257-1.688-4.392-7.897-5.768-9.435-1.376-1.538-6.004-7.65-7.758-7.865-1.753-.213-9.633-1.536-12.632-1.617-2.148-.058-6.47 5.097-8.808 6.305l.63.687c-1.417-1.552-5.707-6.853-7.415-7.413-1.22-.4-4.162.928-2.844 4.275 1.32 3.346 7.562 10.322 10.302 9.723 2.74-.6 7.16-5.477 7.16-5.477z" stroke="#33475C" stroke-width="6" stroke-linecap="round" stroke-linejoin="round"/>
        <path d="M97.77 37.49c-.367.116-.782.015-1.053-.29l-10.2-11.49c-.367-.415-.33-1.047.085-1.413.41-.37 1.044-.33 1.41.084l10.2 11.492c.368.414.33 1.046-.084 1.412-.107.096-.23.164-.36.205zm-9.587-5.94c-.104-1.648-1.357-2.318-2.784-1.49l-32.92 19.1c-1.428.828-2.51 2.853-2.406 4.5l.618 9.796c.104 1.647 1.357 2.316 2.784 1.488l32.92-19.1c1.427-.828 2.51-2.852 2.406-4.5l-.62-9.795z" stroke="#33475C" stroke-width="6" stroke-linecap="round" stroke-linejoin="round"/>
        <path d="M88.183 31.55c-.104-1.648-1.357-2.318-2.784-1.49l-32.92 19.1c-1.428.828-2.51 2.853-2.406 4.5l.618 9.796c.104 1.647 1.357 2.316 2.784 1.488l32.92-19.1c1.427-.828 2.51-2.852 2.406-4.5l-.62-9.795z" stroke="#33475C" stroke-width="6" stroke-linecap="round" stroke-linejoin="round"/>
        <path d="M86.99 29.742c-.2.002-.43.073-.665.21l-34.36 19.933c-.917.533-1.637 1.87-1.57 2.923L51.12 64.3c.027.432.188.756.44.888.252.134.613.084.99-.135L86.91 45.12c.917-.535 1.638-1.873 1.57-2.924l-.725-11.493c-.027-.432-.187-.755-.44-.887-.095-.05-.205-.075-.326-.074zM51.93 65.98c-.25 0-.49-.055-.707-.17-.506-.265-.81-.8-.853-1.503l-.726-11.493c-.082-1.298.774-2.888 1.907-3.545l34.36-19.935c.614-.357 1.23-.408 1.737-.142.506.266.81.8.853 1.504l.727 11.493c.08 1.297-.774 2.887-1.908 3.545L52.962 65.67c-.35.203-.7.306-1.03.31z" stroke="#33475C" stroke-width="6" stroke-linecap="round" stroke-linejoin="round"/>
        <path d="M83.768 35.87c-.062-.976-.956-1.286-1.988-.688L64.473 45.224c-1.032.6-1.825 1.888-1.763 2.865.06.976.956 1.286 1.987.688l17.308-10.042c1.03-.6 1.825-1.888 1.763-2.865z" stroke="#33475C" stroke-width="6" stroke-linecap="round" stroke-linejoin="round"/>
        <path d="M82.783 35.235c-.23.002-.508.09-.796.256L64.68 45.534c-.92.532-1.65 1.702-1.596 2.553.012.197.074.455.296.572.258.135.674.066 1.11-.188L81.8 38.428c.917-.533 1.648-1.702 1.594-2.554-.012-.196-.074-.455-.296-.572-.088-.046-.195-.068-.315-.067zM63.738 49.44c-.25.002-.486-.05-.693-.16-.423-.22-.675-.644-.71-1.188-.07-1.112.78-2.507 1.932-3.176l17.307-10.04c.673-.393 1.35-.462 1.86-.196.422.222.674.644.708 1.188.07 1.112-.778 2.507-1.93 3.176L64.904 49.086c-.4.232-.8.35-1.166.354zm14.245-3.77c-.063-.976-.957-1.286-1.99-.688L64.868 51.44c-1.032.598-1.825 1.887-1.764 2.864.063.978.957 1.287 1.99.69l11.127-6.458c1.03-.6 1.824-1.888 1.762-2.865z" stroke="#33475C" stroke-width="6" stroke-linecap="round" stroke-linejoin="round"/>
        <path d="M76.997 45.035c-.23.002-.508.09-.796.256L65.073 51.75c-.92.533-1.65 1.703-1.596 2.554.012.197.074.455.296.572.26.134.674.065 1.11-.188l11.13-6.457c.92-.535 1.65-1.704 1.596-2.556-.012-.196-.074-.455-.296-.572-.088-.046-.195-.068-.315-.067zM64.13 55.655c-.25.003-.486-.05-.693-.158-.423-.223-.675-.645-.71-1.19-.07-1.11.78-2.506 1.932-3.175l11.128-6.457c.673-.392 1.35-.46 1.86-.195.422.222.674.644.708 1.188.07 1.113-.777 2.508-1.93 3.177l-11.13 6.457c-.4.232-.8.35-1.166.354zm-3.062-2.999c-.16-2.548-2.115-3.575-4.342-2.282-2.228 1.292-3.918 4.434-3.757 6.98.16 2.55 2.114 3.576 4.34 2.284 2.228-1.293 3.92-4.434 3.758-6.982z" stroke="#33475C" stroke-width="6" stroke-linecap="round" stroke-linejoin="round"/>
        <path d="M58.576 50.172c-.507.004-1.067.176-1.644.51-2.133 1.237-3.744 4.23-3.59 6.67.07 1.1.492 1.907 1.19 2.274.697.366 1.61.262 2.572-.296 2.134-1.238 3.744-4.23 3.59-6.67-.07-1.1-.492-1.906-1.19-2.273-.28-.148-.59-.218-.928-.215zm-3.073 10.385c-.466.004-.906-.1-1.306-.31-.947-.497-1.516-1.523-1.602-2.89-.17-2.666 1.592-5.938 3.924-7.29 1.192-.694 2.372-.8 3.32-.303.946.498 1.516 1.524 1.602 2.89.168 2.667-1.592 5.938-3.925 7.29-.69.403-1.376.608-2.014.612z" stroke="#33475C" stroke-width="6" stroke-linecap="round" stroke-linejoin="round"/>
        <path d="M55.793 55.295c-.022-.347-.288-.487-.592-.31-.303.175-.533.603-.51.95.02.348.287.488.59.312.304-.176.535-.605.513-.952zm3.282-1.895c-.022-.346-.288-.486-.592-.31s-.534.604-.512.952c.023.347.29.487.593.31.303-.175.534-.604.512-.95zm-3.019 4.97c-.332.003-.643-.095-.903-.295-.165-.126-.2-.352-.074-.503.123-.152.358-.172.523-.045.253.194.634.17 1.044-.07.49-.284.942-.82 1.238-1.467.08-.177.3-.252.49-.164.19.086.28.3.2.477-.353.772-.905 1.417-1.515 1.77-.336.196-.68.294-1.004.297z" stroke="#33475C" stroke-width="6" stroke-linecap="round" stroke-linejoin="round"/>
        <path stroke="#33475C" stroke-linecap="round" stroke-linejoin="round" d="M40.62 74.347l6.724 3.883 6.725-3.883-6.726-3.883z"/>
        <path fill="#C78244" d="M82.67 84.18L58.247 13.555l6.725 3.882 24.426 70.624"/>
        <path stroke="#33475C" stroke-linecap="round" stroke-linejoin="round" d="M82.67 84.18L58.247 13.555l6.725 3.882 24.426 70.624z"/>
        <path fill="#C78244" d="M47.344 78.23L64.97 17.438l6.726-3.883L54.07 74.347"/>
        <path stroke="#33475C" stroke-linecap="round" stroke-linejoin="round" d="M47.344 78.23L64.97 17.438l6.726-3.883L54.07 74.347z"/>
        <path fill="#C78244" d="M60.695 105.17l4.275-87.73-6.724-3.882-4.276 87.732"/>
        <path stroke="#33475C" stroke-linecap="round" stroke-linejoin="round" d="M60.695 105.17l4.275-87.73-6.724-3.882-4.276 87.732z"/>
        <path fill="#D29B6A" d="M60.695 105.17l4.275-87.73 6.726-3.882L96.12 84.18l-6.724 3.882L70.7 34.002l-3.28 67.286"/>
        <path stroke="#33475C" stroke-linecap="round" stroke-linejoin="round" d="M60.695 105.17l4.275-87.73 6.726-3.882L96.12 84.18l-6.724 3.882L70.7 34.002l-3.28 67.286z"/>
        <path fill="#D29B6A" d="M58.246 13.556l6.725 3.883 6.726-3.884-6.725-3.883"/>
        <path stroke="#33475C" stroke-linecap="round" stroke-linejoin="round" d="M58.246 13.556l6.725 3.883 6.726-3.884-6.725-3.883z"/>
        <path fill="#D29B6A" d="M47.344 78.23L64.97 17.438l-6.724-3.883L40.62 74.347"/>
        <path stroke="#33475C" stroke-linecap="round" stroke-linejoin="round" d="M47.344 78.23L64.97 17.438l-6.724-3.883L40.62 74.347z"/>
        <path d="M37.59 83.067l63.557-36.656c.022-.01.043-.025.065-.037l.09-.05.007.014c.596-.28 1.378-.218 2.24.28 1.85 1.07 3.364 3.69 3.364 5.825 0 1.14-.44 1.907-1.126 2.223L42.132 91.38l-4.54-8.313z" fill="#D29B6A"/>
        <path d="M37.59 83.067l63.557-36.656c.022-.01.043-.025.065-.037l.09-.05.007.014c.596-.28 1.378-.218 2.24.28 1.85 1.07 3.364 3.69 3.364 5.825 0 1.14-.44 1.907-1.126 2.223L42.132 91.38l-4.54-8.313z" stroke="#33475C" stroke-linecap="round" stroke-linejoin="round"/>
        <path d="M39.84 83.363c-1.848-1.068-3.362-.194-3.362 1.94 0 2.137 1.514 4.758 3.363 5.826 1.85 1.066 3.364.193 3.364-1.943 0-2.135-1.514-4.756-3.363-5.824" fill="#C78244"/>
        <path d="M39.84 83.363c-1.848-1.068-3.362-.194-3.362 1.94 0 2.137 1.514 4.758 3.363 5.826 1.85 1.066 3.364.193 3.364-1.943 0-2.135-1.514-4.756-3.363-5.824z" stroke="#33475C" stroke-linecap="round" stroke-linejoin="round"/>
        <path fill="#506E91" d="M36.882 38.76l60.513-34.9 4.484 43.8-60.515 34.9"/>
        <path stroke="#33475C" stroke-linecap="round" stroke-linejoin="round" d="M36.882 38.76l60.513-34.9 4.484 43.8-60.515 34.9z"/>
        <path d="M33.026 39.854L96.428 3.24l.065-.038.09-.05.007.013c.597-.278 1.38-.218 2.242.28 1.85 1.07 3.363 3.69 3.363 5.825 0 1.142-.44 1.907-1.126 2.224L37.566 48.167l-4.54-8.313z" fill="#D29B6A"/>
        <path d="M33.026 39.854L96.428 3.24l.065-.038.09-.05.007.013c.597-.278 1.38-.218 2.242.28 1.85 1.07 3.363 3.69 3.363 5.825 0 1.142-.44 1.907-1.126 2.224L37.566 48.167l-4.54-8.313z" stroke="#33475C" stroke-linecap="round" stroke-linejoin="round"/>
        <path d="M35.276 40.15c-1.85-1.07-3.363-.195-3.363 1.94 0 2.136 1.514 4.757 3.363 5.824 1.85 1.068 3.363.195 3.363-1.94 0-2.136-1.515-4.757-3.364-5.825" fill="#C78244"/>
        <path d="M35.276 40.15c-1.85-1.07-3.363-.195-3.363 1.94 0 2.136 1.514 4.757 3.363 5.824 1.85 1.068 3.363.195 3.363-1.94 0-2.136-1.515-4.757-3.364-5.825z" stroke="#33475C" stroke-linecap="round" stroke-linejoin="round"/>
        <path d="M84.604 55.28l11.965-7.008.028-.016.04-.023.003.007c.266-.124.613-.097.997.124.82.474 1.492 1.637 1.492 2.585 0 .506-.196.846-.5.987L86.62 58.97l-2.016-3.69z" fill="#FFF"/>
        <path d="M84.604 55.28l11.965-7.008.028-.016.04-.023.003.007c.266-.124.613-.097.997.124.82.474 1.492 1.637 1.492 2.585 0 .506-.196.846-.5.987L86.62 58.97l-2.016-3.69z" stroke="#33475C" stroke-linecap="round" stroke-linejoin="round"/>
        <path d="M85.603 55.41c-.82-.473-1.493-.085-1.493.863s.672 2.11 1.493 2.585c.82.474 1.493.086 1.493-.862s-.672-2.11-1.493-2.585" fill="#EBF0F7"/>
        <path d="M85.603 55.41c-.82-.473-1.493-.085-1.493.863s.672 2.11 1.493 2.585c.82.474 1.493.086 1.493-.862s-.672-2.11-1.493-2.585z" stroke="#33475C" stroke-linecap="round" stroke-linejoin="round"/>
        <path d="M113.906 26.968c.145 3.296 2.935 5.85 6.23 5.705 3.296-.146 5.85-2.935 5.705-6.23-.144-3.297-2.934-5.85-6.23-5.705-3.295.145-5.85 2.934-5.704 6.23" fill="#FFF"/>
        <path d="M113.906 26.968c.145 3.296 2.935 5.85 6.23 5.705 3.296-.146 5.85-2.935 5.705-6.23-.144-3.297-2.934-5.85-6.23-5.705-3.295.145-5.85 2.934-5.704 6.23z" stroke="#33475C" stroke-linecap="round" stroke-linejoin="round"/>
        <path d="M46.942 94.23c.376 8.813-.268 22.666-1.435 31.41-.09.678-.176 1.407.148 2.01.375.697 1.187 1.017 1.934 1.284 1.71.61 3.9 1.113 5.114-.24.614-.682.763-1.652.88-2.563.624-4.868-.104-17.97 1.333-19.662 1.147.61 1.193 16.148 2.264 21.718.082.426.187.887.524 1.16.378.31.92.278 1.406.23l3.163-.308c.742-.072 1.543-.17 2.08-.686.745-.715.677-1.903.554-2.928-1.188-9.936-2.38-25.195-3.57-35.13 1.115.74 2.622.69 3.84.14 1.22-.55 2.188-1.538 3.007-2.595.924-1.195 1.725-2.632 1.558-4.133-.14-1.267-.945-2.348-1.72-3.36l-4.377-5.72c-.573-.748-1.202-1.538-2.102-1.822-1.215-.383-2.56.322-3.318 1.347-.756 1.026-1.054 2.308-1.335 3.55-.01.04.034.288.044.326.238.917 1.01 1.577 1.617 2.304.426.51.82 1.14 1.098 1.744 0 0 1.304.473 1.955.817.585.31 2.41 1.228 2.41 1.228-1.894-.94-3.705-2.053-5.777-2.4-2.098-.35-4.05.136-6.15.136-1.93 0-3.978.034-5.598 1.08-1.313.847-2.15 2.24-3.024 3.536-2.18 3.236-.814 5.907 3.478 7.527" fill="#FFF"/>
        <path d="M46.942 94.23c.376 8.813-.268 22.666-1.435 31.41-.09.678-.176 1.407.148 2.01.375.697 1.187 1.017 1.934 1.284 1.71.61 3.9 1.113 5.114-.24.614-.682.763-1.652.88-2.563.624-4.868-.104-17.97 1.333-19.662 1.147.61 1.193 16.148 2.264 21.718.082.426.187.887.524 1.16.378.31.92.278 1.406.23l3.163-.308c.742-.072 1.543-.17 2.08-.686.745-.715.677-1.903.554-2.928-1.188-9.936-2.38-25.195-3.57-35.13 1.115.74 2.622.69 3.84.14 1.22-.55 2.188-1.538 3.007-2.595.924-1.195 1.725-2.632 1.558-4.133-.14-1.267-.945-2.348-1.72-3.36l-4.377-5.72c-.573-.748-1.202-1.538-2.102-1.822-1.215-.383-2.56.322-3.318 1.347-.756 1.026-1.054 2.308-1.335 3.55-.01.04.034.288.044.326.238.917 1.01 1.577 1.617 2.304.426.51.82 1.14 1.098 1.744 0 0 1.304.473 1.955.817.585.31 2.41 1.228 2.41 1.228-1.894-.94-3.705-2.053-5.777-2.4-2.098-.35-4.05.136-6.15.136-1.93 0-3.978.034-5.598 1.08-1.313.847-2.15 2.24-3.024 3.536-2.18 3.236-.814 5.907 3.478 7.527" stroke="#231F1F" stroke-linecap="round" stroke-linejoin="round"/>
        <path d="M46.942 94.23c.376 8.813-.268 22.666-1.435 31.41-.09.678-.176 1.407.148 2.01.375.697 1.187 1.017 1.934 1.284 1.71.61 3.9 1.113 5.114-.24.614-.682.763-1.652.88-2.563.624-4.868-.104-17.97 1.333-19.662 1.147.61 1.193 16.148 2.264 21.718.082.426.187.887.524 1.16.378.31.92.278 1.406.23l3.163-.308c.742-.072 1.543-.17 2.08-.686.745-.715.677-1.903.554-2.928-1.188-9.936-2.38-25.195-3.57-35.13 1.115.74 2.622.69 3.84.14 1.22-.55 2.188-1.538 3.007-2.595.924-1.195 1.725-2.632 1.558-4.133-.14-1.267-.945-2.348-1.72-3.36l-4.377-5.72c-.573-.748-1.202-1.538-2.102-1.822-1.215-.383-2.56.322-3.318 1.347-.756 1.026-1.054 2.308-1.335 3.55-.01.04.034.288.044.326.238.917 1.01 1.577 1.617 2.304.426.51.82 1.14 1.098 1.744 0 0 1.304.473 1.955.817.585.31 2.41 1.228 2.41 1.228-1.894-.94-3.705-2.053-5.777-2.4-2.098-.35-4.05.136-6.15.136-1.93 0-3.978.034-5.598 1.08-1.313.847-2.15 2.24-3.024 3.536-2.18 3.236-.814 5.907 3.478 7.527" stroke="#33475C" stroke-linecap="round" stroke-linejoin="round"/>
        <path d="M60.344 73.854c-.042 3.42-2.85 6.16-6.27 6.117-3.42-.04-6.158-2.848-6.115-6.27.04-3.42 2.848-6.158 6.267-6.116 3.422.043 6.16 2.85 6.118 6.27" fill="#FFF"/>
        <path d="M60.344 73.854c-.042 3.42-2.85 6.16-6.27 6.117-3.42-.04-6.158-2.848-6.115-6.27.04-3.42 2.848-6.158 6.267-6.116 3.422.043 6.16 2.85 6.118 6.27z" stroke="#231F1F" stroke-linecap="round" stroke-linejoin="round"/>
        <path d="M60.344 73.854c-.042 3.42-2.85 6.16-6.27 6.117-3.42-.04-6.158-2.848-6.115-6.27.04-3.42 2.848-6.158 6.267-6.116 3.422.043 6.16 2.85 6.118 6.27z" stroke="#33475C" stroke-linecap="round" stroke-linejoin="round"/>
        <path d="M112.27 41.998c-.826 12.474-1.577 34.03-1.332 37.052.318 3.91 6.62 2.188 6.62 2.188 1.18-2.97-.276-26.45 1.895-23.347 2.172 3.103 2.23 17.635 1.388 21.596-.842 3.962 7.76 1.257 7.76 1.257 1.39-4.712-2.85-37.33-2.85-37.33s3.628 3.38 5.866 6.13c5.074 6.237 5.585 4.92 7.79 3.272 2.257-1.688-4.392-7.897-5.768-9.435-1.376-1.538-6.004-7.65-7.758-7.865-1.753-.213-9.633-1.536-12.632-1.617-2.148-.058-6.47 5.097-8.808 6.305l.63.687c-1.417-1.552-5.707-6.853-7.415-7.413-1.22-.4-4.162.928-2.844 4.275 1.32 3.346 7.562 10.322 10.302 9.723 2.74-.6 7.16-5.477 7.16-5.477" fill="#FFF"/>
        <path d="M112.27 41.998c-.826 12.474-1.577 34.03-1.332 37.052.318 3.91 6.62 2.188 6.62 2.188 1.18-2.97-.276-26.45 1.895-23.347 2.172 3.103 2.23 17.635 1.388 21.596-.842 3.962 7.76 1.257 7.76 1.257 1.39-4.712-2.85-37.33-2.85-37.33s3.628 3.38 5.866 6.13c5.074 6.237 5.585 4.92 7.79 3.272 2.257-1.688-4.392-7.897-5.768-9.435-1.376-1.538-6.004-7.65-7.758-7.865-1.753-.213-9.633-1.536-12.632-1.617-2.148-.058-6.47 5.097-8.808 6.305l.63.687c-1.417-1.552-5.707-6.853-7.415-7.413-1.22-.4-4.162.928-2.844 4.275 1.32 3.346 7.562 10.322 10.302 9.723 2.74-.6 7.16-5.477 7.16-5.477z" stroke="#33475C" stroke-linecap="round" stroke-linejoin="round"/>
        <path d="M97.77 37.49c-.367.116-.782.015-1.053-.29l-10.2-11.49c-.367-.415-.33-1.047.085-1.413.41-.37 1.044-.33 1.41.084l10.2 11.492c.368.414.33 1.046-.084 1.412-.107.096-.23.164-.36.205" fill="#F7C364"/>
        <path d="M88.183 31.55c-.104-1.648-1.357-2.318-2.784-1.49l-32.92 19.1c-1.428.828-2.51 2.853-2.406 4.5l.618 9.796c.104 1.647 1.357 2.316 2.784 1.488l32.92-19.1c1.427-.828 2.51-2.852 2.406-4.5l-.62-9.795z" fill="#506E91"/>
        <path d="M86.99 29.742c-.2.002-.43.073-.665.21l-34.36 19.933c-.917.533-1.637 1.87-1.57 2.923L51.12 64.3c.027.432.188.756.44.888.252.134.613.084.99-.135L86.91 45.12c.917-.535 1.638-1.873 1.57-2.924l-.725-11.493c-.027-.432-.187-.755-.44-.887-.095-.05-.205-.075-.326-.074M51.93 65.98c-.25 0-.49-.055-.707-.17-.506-.265-.81-.8-.853-1.503l-.726-11.493c-.082-1.298.774-2.888 1.907-3.545l34.36-19.935c.614-.357 1.23-.408 1.737-.142.506.266.81.8.853 1.504l.727 11.493c.08 1.297-.774 2.887-1.908 3.545L52.962 65.67c-.35.203-.7.306-1.03.31" fill="#FFF"/>
        <path d="M83.768 35.87c-.062-.976-.956-1.286-1.988-.688L64.473 45.224c-1.032.6-1.825 1.888-1.763 2.865.06.976.956 1.286 1.987.688l17.308-10.042c1.03-.6 1.825-1.888 1.763-2.865" fill="#506E91"/>
        <path d="M82.783 35.235c-.23.002-.508.09-.796.256L64.68 45.534c-.92.532-1.65 1.702-1.596 2.553.012.197.074.455.296.572.258.135.674.066 1.11-.188L81.8 38.428c.917-.533 1.648-1.702 1.594-2.554-.012-.196-.074-.455-.296-.572-.088-.046-.195-.068-.315-.067M63.738 49.44c-.25.002-.486-.05-.693-.16-.423-.22-.675-.644-.71-1.188-.07-1.112.78-2.507 1.932-3.176l17.307-10.04c.673-.393 1.35-.462 1.86-.196.422.222.674.644.708 1.188.07 1.112-.778 2.507-1.93 3.176L64.904 49.086c-.4.232-.8.35-1.166.354" fill="#FFF"/>
        <path d="M77.983 45.67c-.063-.976-.957-1.286-1.99-.688L64.868 51.44c-1.032.598-1.825 1.887-1.764 2.864.063.978.957 1.287 1.99.69l11.127-6.458c1.03-.6 1.824-1.888 1.762-2.865" fill="#506E91"/>
        <path d="M76.997 45.035c-.23.002-.508.09-.796.256L65.073 51.75c-.92.533-1.65 1.703-1.596 2.554.012.197.074.455.296.572.26.134.674.065 1.11-.188l11.13-6.457c.92-.535 1.65-1.704 1.596-2.556-.012-.196-.074-.455-.296-.572-.088-.046-.195-.068-.315-.067M64.13 55.655c-.25.003-.486-.05-.693-.158-.423-.223-.675-.645-.71-1.19-.07-1.11.78-2.506 1.932-3.175l11.128-6.457c.673-.392 1.35-.46 1.86-.195.422.222.674.644.708 1.188.07 1.113-.777 2.508-1.93 3.177l-11.13 6.457c-.4.232-.8.35-1.166.354" fill="#FFF"/>
        <path d="M61.068 52.656c-.16-2.548-2.115-3.575-4.342-2.282-2.228 1.292-3.918 4.434-3.757 6.98.16 2.55 2.114 3.576 4.34 2.284 2.228-1.293 3.92-4.434 3.758-6.982" fill="#506E91"/>
        <path d="M58.576 50.172c-.507.004-1.067.176-1.644.51-2.133 1.237-3.744 4.23-3.59 6.67.07 1.1.492 1.907 1.19 2.274.697.366 1.61.262 2.572-.296 2.134-1.238 3.744-4.23 3.59-6.67-.07-1.1-.492-1.906-1.19-2.273-.28-.148-.59-.218-.928-.215m-3.073 10.385c-.466.004-.906-.1-1.306-.31-.947-.497-1.516-1.523-1.602-2.89-.17-2.666 1.592-5.938 3.924-7.29 1.192-.694 2.372-.8 3.32-.303.946.498 1.516 1.524 1.602 2.89.168 2.667-1.592 5.938-3.925 7.29-.69.403-1.376.608-2.014.612" fill="#FFF"/>
        <path d="M55.793 55.295c-.022-.347-.288-.487-.592-.31-.303.175-.533.603-.51.95.02.348.287.488.59.312.304-.176.535-.605.513-.952m3.281-1.895c-.022-.346-.288-.486-.592-.31s-.534.604-.512.952c.023.347.29.487.593.31.303-.175.534-.604.512-.95m-3.02 4.968c-.332.003-.643-.095-.903-.295-.165-.126-.2-.352-.074-.503.123-.152.358-.172.523-.045.253.194.634.17 1.044-.07.49-.284.942-.82 1.238-1.467.08-.177.3-.252.49-.164.19.086.28.3.2.477-.353.772-.905 1.417-1.515 1.77-.336.196-.68.294-1.004.297" fill="#FFF"/>
    </g>
</svg>
