<?xml version="1.0" encoding="UTF-8" standalone="no"?>
<svg width="50px" height="47px" viewBox="0 0 50 47" version="1.1" xmlns="http://www.w3.org/2000/svg" xmlns:xlink="http://www.w3.org/1999/xlink">
    <!-- Generator: Sketch 39.1 (31720) - http://www.bohemiancoding.com/sketch -->
    <title>other</title>
    <desc>Created with Sketch.</desc>
    <defs>
        <polygon id="path-1" points="24.8357258 36.5394089 0 36.5394089 0 0.031773399 24.8357258 0.031773399 49.6714516 0.031773399 49.6714516 36.5394089 24.8357258 36.5394089"></polygon>
    </defs>
    <g id="5-w/step-indicator-Outlook" stroke="none" stroke-width="1" fill="none" fill-rule="evenodd">
        <g id="032" transform="translate(-695.000000, -168.000000)">
            <g id="other" transform="translate(695.000000, 168.000000)">
                <g id="Page-1" transform="translate(0.000000, 9.482759)">
                    <path d="M45.3937634,1.19907512 L4.27709677,1.19907512 C2.4211828,1.19907512 0.910967742,2.68659975 0.910967742,4.51515887 L0.910967742,33.0519076 C0.910967742,34.8804667 2.4211828,36.3679914 4.27709677,36.3679914 L45.3937634,36.3679914 C47.2502151,36.3679914 48.7604301,34.8804667 48.7604301,33.0519076 L48.7604301,4.51515887 C48.7604301,2.68659975 47.2502151,1.19907512 45.3937634,1.19907512" id="Fill-1" fill="#FEFEFE"></path>
                    <g id="Group-5" transform="translate(0.000000, 0.497995)">
                        <mask id="mask-2" fill="white">
                            <use xlink:href="#path-1"></use>
                        </mask>
                        <g id="Clip-4"></g>
                        <path d="M4.25962366,33.8916256 L18.1897312,20.1708128 L22.365,24.2833498 C23.0230645,24.9320567 23.9004839,25.2895074 24.8354301,25.2895074 C25.770914,25.2895074 26.6483333,24.9320567 27.3063978,24.2833498 L31.4816667,20.1713424 L45.4112366,33.8916256 L4.25962366,33.8916256 Z M2.68811828,31.6950246 L2.68811828,4.90263547 L16.2886559,18.29883 L2.68811828,31.6950246 Z M45.4391935,2.67955665 L25.4058602,22.411367 C25.0972581,22.7158621 24.5741398,22.7158621 24.2655376,22.411367 L4.2322043,2.67955665 L45.4391935,2.67955665 Z M46.9832796,31.6955542 L33.3827419,18.29883 L33.3827419,18.29883 L46.9832796,4.90263547 L46.9832796,31.6955542 Z M46.176828,0.031773399 L3.49456989,0.031773399 C1.56768817,0.031773399 -5.3763441e-05,1.57596059 -5.3763441e-05,3.47389163 L-5.3763441e-05,33.0972906 C-5.3763441e-05,34.9952217 1.56768817,36.5394089 3.49456989,36.5394089 L46.176828,36.5394089 C48.1037097,36.5394089 49.6714516,34.9952217 49.6714516,33.0972906 L49.6714516,3.47389163 C49.6714516,1.57596059 48.1037097,0.031773399 46.176828,0.031773399 L46.176828,0.031773399 Z" id="Fill-3" fill="#33475C" mask="url(#mask-2)"></path>
                    </g>
                    <path d="M4.25962366,34.3896207 L18.1897312,20.6688079 L22.365,24.7813448 C23.0230645,25.4300517 23.9004839,25.7875025 24.8354301,25.7875025 C25.770914,25.7875025 26.6483333,25.4300517 27.3063978,24.7813448 L31.4816667,20.6693374 L45.4112366,34.3896207 L4.25962366,34.3896207 Z" id="Fill-6" fill="#D6E7F6"></path>
                    <polygon id="Fill-8" fill="#E7EFF6" points="2.68817204 32.1929667 2.68817204 5.40057759 16.2887097 18.7967722"></polygon>
                </g>
                <g id="Group-2" transform="translate(12.068966, 0.000000)">
                    <path d="M12.9279118,0.000170207307 C5.7877699,0.000170207307 0,5.84225234 0,13.0493971 C0,20.2559745 5.7877699,26.098624 12.9279118,26.098624 C20.0680537,26.098624 25.8558236,20.2559745 25.8558236,13.0493971 C25.8558236,5.84225234 20.0680537,0.000170207307 12.9279118,0.000170207307" id="Fill-43" fill="#FFFFFF"></path>
                    <path d="M12.9660772,3.82801907 L12.9272935,3.82801907 C12.30844,3.82801907 11.8031273,3.31796451 11.8031273,2.69330369 C11.8031273,2.06410401 12.30844,1.55858831 12.9272935,1.55858831 L12.9492147,1.55858831 L12.9716981,1.55858831 C13.5956103,1.55858831 14.0958643,2.06921023 14.0958643,2.69897727 C14.0902435,3.32307073 13.5849308,3.82801907 12.9660772,3.82801907 L12.9660772,3.82801907 Z M8.53124141,3.61809673 C8.33451232,3.02804473 8.64422012,2.38125696 9.23384531,2.17700819 C9.81841176,1.97275942 10.4591865,2.29047973 10.6615364,2.88053173 C10.8638864,3.4762573 10.5491198,4.12361243 9.96455337,4.32162026 C9.84089509,4.36700888 9.7172368,4.38402961 9.59357851,4.38402961 C9.12704952,4.38402961 8.69424552,4.08900361 8.53124141,3.61809673 L8.53124141,3.61809673 Z M15.9288174,4.33353477 L15.9288174,4.33864099 C15.3436888,4.12871865 15.0289223,3.48249824 15.2368931,2.89244624 C15.439243,2.29615331 16.0800177,1.98410658 16.6645842,2.19402892 C17.2491506,2.39827769 17.5644793,3.04506546 17.3565085,3.63511746 C17.1985631,4.10602434 16.7601383,4.39537676 16.2997922,4.39537676 C16.1755719,4.39537676 16.0519136,4.37835603 15.9288174,4.33353477 L15.9288174,4.33353477 Z M5.73825038,5.56980718 C5.36109261,5.07620599 5.44540507,4.3613353 5.94003822,3.97553207 C6.42905054,3.59540242 7.13165444,3.68050607 7.51387096,4.17410726 C7.89608749,4.66770845 7.80615419,5.38257914 7.31714187,5.76838237 C7.11479195,5.92724253 6.86747537,6.0066726 6.63140046,6.0066726 C6.29415059,6.0066726 5.96252155,5.8591596 5.73825038,5.56980718 L5.73825038,5.56980718 Z M18.5644251,5.79107668 C18.0754128,5.40527345 17.9911004,4.69097012 18.3733169,4.19680157 C18.7617163,3.70320038 19.4643202,3.61809673 19.9533325,4.00446731 L19.9533325,4.00957353 C20.4417828,4.39537676 20.5260952,5.10457387 20.1444408,5.59817506 C19.9190455,5.88752749 19.5930372,6.03560784 19.2557874,6.03560784 C19.0140916,6.03560784 18.7723959,5.95561041 18.5644251,5.79107668 L18.5644251,5.79107668 Z M3.72599281,8.32773291 C3.20269342,7.98107736 3.06217264,7.2832274 3.39942251,6.75558475 C3.74229322,6.23361568 4.43927629,6.08610268 4.95639276,6.43219087 C5.47350923,6.77260548 5.62021293,7.47669638 5.28240097,8.00377167 L5.27678014,8.00377167 C5.06318855,8.33283913 4.70345535,8.51439359 4.33810132,8.51439359 C4.12507182,8.51439359 3.91148024,8.45198425 3.72599281,8.32773291 L3.72599281,8.32773291 Z M20.5935452,8.03213956 C20.2562953,7.5044969 20.4024369,6.80097337 20.9251742,6.46112611 C21.4479115,6.12014414 22.1392738,6.26765714 22.4827066,6.79529979 L22.4765237,6.79529979 C22.8193944,7.32294244 22.6676319,8.02135976 22.1505155,8.36688059 C21.9594072,8.48602571 21.7514364,8.54843505 21.5378448,8.54843505 C21.1730529,8.54843505 20.8127576,8.36688059 20.5935452,8.03213956 L20.5935452,8.03213956 Z M2.70243944,11.5951459 C2.1010105,11.4419593 1.7412773,10.8235394 1.89303975,10.2227076 C2.04480219,9.60939393 2.65185196,9.24628501 3.25890173,9.39947159 C3.86033067,9.55265817 4.2256847,10.1716454 4.06830143,10.7781508 C3.93902231,11.2887727 3.48373498,11.6348609 2.97786017,11.6348609 C2.88792687,11.6348609 2.79799357,11.6235137 2.70243944,11.5951459 L2.70243944,11.5951459 Z M21.7907823,10.8127596 C21.6446406,10.2051195 22.0099947,9.58669963 22.6114236,9.43975399 C23.2128526,9.28600005 23.8255232,9.65534991 23.9772856,10.2618553 C24.1239893,10.8746016 23.7580732,11.4873479 23.1566442,11.6411018 C23.0667109,11.6637961 22.9711568,11.6745759 22.8817856,11.6745759 C22.3809695,11.6745759 21.9206235,11.3284877 21.7907823,10.8127596 L21.7907823,10.8127596 Z M1.5782732,13.9837217 C1.52768572,13.3596283 1.98859388,12.8149649 2.61250614,12.7639027 C3.23135966,12.7128405 3.77095946,13.1780738 3.82098485,13.8021673 C3.87157233,14.4268281 3.41066417,14.9714915 2.79237274,15.0219863 C2.75864775,15.0276599 2.7305436,15.0276599 2.69681861,15.0276599 C2.11787299,15.0276599 1.62886068,14.5794473 1.5782732,13.9837217 L1.5782732,13.9837217 Z M23.0554693,15.0679423 C22.4377399,15.0106391 21.9762697,14.4659758 22.032478,13.8367761 C22.0830655,13.2121153 22.6282861,12.7525555 23.2465775,12.8036177 C23.8654311,12.8546799 24.3257771,13.4050169 24.2695688,14.0291103 C24.2195434,14.6248359 23.729969,15.0679423 23.1510234,15.0679423 L23.0554693,15.0679423 Z M2.49446869,17.654526 C2.2477142,17.0763885 2.50627243,16.41258 3.0734143,16.1567017 C3.64111825,15.9070643 4.30437634,16.1680488 4.55169291,16.747321 L4.55169291,16.7410801 C4.80463032,17.3197849 4.54663416,17.989267 3.97836813,18.2389044 C3.82660568,18.3013137 3.67484324,18.3353552 3.5230808,18.3353552 C3.09083888,18.3353552 2.67995612,18.0800442 2.49446869,17.654526 L2.49446869,17.654526 Z M21.8582322,18.2729459 C21.2910904,18.0176349 21.0375909,17.3481528 21.2849074,16.7751216 L21.2910904,16.7751216 C21.5378448,16.2026577 22.201665,15.9467793 22.7688069,16.1964167 C23.3365108,16.4517277 23.5950691,17.1217771 23.3421317,17.694241 C23.1566442,18.1197593 22.7463236,18.3693967 22.3135196,18.3693967 C22.1617571,18.3693967 22.0099947,18.3410288 21.8582322,18.2729459 L21.8582322,18.2729459 Z M4.54045125,20.8203819 C4.12507182,20.3613895 4.15261389,19.6402779 4.60790122,19.2147596 C5.06318855,18.7949149 5.77703412,18.8238502 6.19859646,19.2828426 C6.61453797,19.7424023 6.58643381,20.4629465 6.13114648,20.8884648 C5.91193407,21.08704 5.64213417,21.1897317 5.36671344,21.1897317 C5.06318855,21.1897317 4.7652845,21.0643457 4.54045125,20.8203819 L4.54045125,20.8203819 Z M19.6942122,20.9168327 C19.2389249,20.4913144 19.2108207,19.7713375 19.6323831,19.3112104 C20.0539454,18.8516507 20.767791,18.8238502 21.2230783,19.2493684 C21.6783656,19.6748867 21.7064698,20.3948636 21.2849074,20.8544234 C21.0600742,21.0932809 20.7621701,21.2175323 20.4586453,21.2175323 C20.1832245,21.2175323 19.9134246,21.1154079 19.6942122,20.9168327 L19.6942122,20.9168327 Z M7.49138764,23.1465484 L7.49138764,23.1465484 C6.94616701,22.8464162 6.74437917,22.1599134 7.04172114,21.6090091 C7.33962519,21.0586721 8.01974577,20.8544234 8.5649664,21.1551229 C9.11074911,21.4507163 9.31253695,22.1423253 9.0146329,22.6926623 C8.81228297,23.0727919 8.42444562,23.2883878 8.0253666,23.2883878 C7.84606209,23.2883878 7.66057466,23.2429992 7.49138764,23.1465484 L7.49138764,23.1465484 Z M16.805105,22.709683 C16.5072009,22.1599134 16.7095508,21.4671697 17.2609544,21.1721437 C17.8056129,20.8714441 18.4857335,21.0813664 18.7841996,21.6317034 C19.0759208,22.1826077 18.86795,22.8691105 18.3227294,23.1692427 L18.3283502,23.1692427 C18.1541045,23.26002 17.9742379,23.3054086 17.7943713,23.3054086 C17.3952922,23.3054086 17.0074549,23.0898127 16.805105,22.709683 L16.805105,22.709683 Z M11.0330734,24.3833882 L11.0330734,24.3833882 C10.4198407,24.2812638 10.00952,23.6912118 10.110695,23.0727919 C10.212432,22.454372 10.7969985,22.0407683 11.4034862,22.1423253 C12.0167189,22.2444497 12.4320983,22.8288281 12.3253025,23.447248 C12.2353692,24.0038259 11.7581606,24.3947353 11.2185608,24.3947353 C11.1561696,24.3947353 11.0943404,24.3890618 11.0330734,24.3833882 L11.0330734,24.3833882 Z M13.4831937,23.4529216 C13.3876396,22.8345017 13.8035811,22.2501233 14.4162517,22.1479989 C15.0233015,22.0458745 15.6022471,22.4662866 15.703422,23.0841391 C15.804597,23.702559 15.3892176,24.2875047 14.7759849,24.3890618 C14.7141558,24.4004089 14.6523266,24.4066499 14.5961183,24.4066499 C14.0514598,24.4066499 13.573127,24.0089321 13.4831937,23.4529216 L13.4831937,23.4529216 Z" id="Fill-47" fill="#99ACC2"></path>
                    <path d="M14.2232324,18.1210075 C14.2232324,18.9595621 13.5830197,19.6057825 12.7179738,19.6057825 C11.8523657,19.6057825 11.2121531,18.9595621 11.2121531,18.1210075 L11.2121531,18.0858313 C11.2121531,17.2472766 11.8523657,16.6010562 12.7179738,16.6010562 C13.5830197,16.6010562 14.2232324,17.2472766 14.2232324,18.0858313 L14.2232324,18.1210075 Z" id="Fill-49" fill="#99ACC2"></path>
                    <path d="M17.2524669,10.5587536 C17.2524669,12.7771221 15.7292217,13.6860291 13.8428707,14.0706977 L13.7911591,14.7044362 C13.7214607,15.1583224 13.3583551,15.560579 12.8564148,15.560579 L12.276345,15.560579 C11.7744048,15.560579 11.410737,15.1764778 11.3421629,14.7044362 L11.3421629,13.1969668 C11.2556021,12.6205314 11.8519723,12.2182748 12.4067483,12.1484898 C13.9120069,11.9567229 14.6044933,11.4846813 14.6044933,10.6285386 L14.6044933,10.5939297 C14.6044933,9.80757198 14.0159923,9.35368582 13.0121119,9.35368582 C12.2679138,9.35368582 11.6277011,9.5806289 11.0043509,10.0521031 C10.7963802,10.2092612 10.5198353,10.3318105 10.2253037,10.3318105 C9.56766648,10.3318105 9.01401461,9.7723958 9.01401461,9.10915466 C9.01401461,8.77668305 9.15228705,8.42775807 9.46424319,8.16563882 C10.3815628,7.39686915 11.5405782,6.90780682 13.0638235,6.90780682 C15.5561001,6.90780682 17.2524669,8.20024764 17.2524669,10.5235774 L17.2524669,10.5587536 Z" id="Fill-51" fill="#99ACC2"></path>
                </g>
            </g>
        </g>
    </g>
</svg>