<?xml version="1.0" encoding="UTF-8"?>
<svg width="312px" height="233px" viewBox="0 0 312 233" version="1.1" xmlns="http://www.w3.org/2000/svg" xmlns:xlink="http://www.w3.org/1999/xlink">
    <!-- Generator: Sketch 62 (91390) - https://sketch.com -->
    <title>Group 3</title>
    <desc>Created with Sketch.</desc>
    <g id="Page-1" stroke="none" stroke-width="1" fill="none" fill-rule="evenodd">
        <g id="Error-State" transform="translate(-480.000000, -123.000000)">
            <g id="Group-3" transform="translate(473.000000, 117.000000)">
                <ellipse id="Oval-Copy" fill="#4696E0" fill-rule="nonzero" opacity="0.1" cx="165.5" cy="229" rx="130.5" ry="10"></ellipse>
                <g id="Group-2-Copy" transform="translate(51.500000, 113.500000) rotate(-330.000000) translate(-51.500000, -113.500000) translate(9.000000, 86.000000)" fill="#297AC5" fill-rule="nonzero" opacity="0.1">
                    <path d="M62,52.2187697 C57.9600199,51.4645913 53.7840152,51.911746 50.0020771,53.5034731 C45.4119389,55.5110691 40.173101,55.4982368 35.5931225,53.468179 C30.1698686,51.1221268 23.9761417,51.2434173 18.6515117,53.7999431 C17.1468464,54.5820215 15.4728901,54.9937085 13.7722132,55 C6.90399261,55 1.18762982,48.1740719 0,39.1670308 C1.37244052,38.1803547 2.53855004,36.9411385 3.43411032,35.5176263 C7.46203554,29.115286 13.7006693,25 20.7048234,25 C27.7089776,25 33.868913,29.0658743 37.875375,35.3976265 C40.3246218,39.3011407 44.6697053,41.6509694 49.3224094,41.5882025 L49.5012693,41.5882025 C54.9243019,41.5811437 59.6605123,45.908194 62,52.2187697 Z" id="Path"></path>
                    <path d="M82.1363405,24.006237 L71.1432739,30.9234075 L77.815612,18.881626 C75.9246159,17.3836046 73.5839093,16.5548377 71.1645234,16.5266949 L70.9874443,16.5266949 C70.2236455,16.5377805 69.4603698,16.4813203 68.7066663,16.3579835 L64.9950897,18.7410331 L66.5958842,15.8588787 C63.9545544,14.9428636 61.673344,13.2202742 60.0793757,10.9381273 L53.4070375,15.1559142 L57.6073523,7.49360136 C53.7045303,2.84700615 48.4488245,0 42.6689647,0 C35.7345497,0 29.5580328,4.09125328 25.5702129,10.4671411 C23.165678,14.3621205 18.8371989,16.6737846 14.2371546,16.5196653 L13.861747,16.5196653 C6.20484945,16.5196653 0,25.1309802 0,35.7598031 C0,46.3886261 6.20484945,55 13.861747,55 C15.546576,54.9954979 17.2048325,54.5828594 18.6924631,53.7978717 C23.9651209,51.2541607 30.0971682,51.1359415 35.4653895,53.474508 C39.999766,55.4961782 45.1864417,55.5089575 49.7308767,53.5096563 C55.0582142,51.2148898 61.1273111,51.3303268 66.3621399,53.8259903 C67.835701,54.5913459 69.4730406,54.9939717 71.1361907,55 C78.7930883,55 84.9979377,46.3815964 84.9979377,35.7598031 C85.0513264,31.6658913 84.0673331,27.6242919 82.1363405,24.006237 Z" id="Path"></path>
                </g>
                <g id="Group-2-Copy-2" transform="translate(276.500000, 151.500000) scale(-1, 1) translate(-276.500000, -151.500000) translate(234.000000, 124.000000)" fill="#297AC5" fill-rule="nonzero" opacity="0.1">
                    <path d="M62,52.2187697 C57.9600199,51.4645913 53.7840152,51.911746 50.0020771,53.5034731 C45.4119389,55.5110691 40.173101,55.4982368 35.5931225,53.468179 C30.1698686,51.1221268 23.9761417,51.2434173 18.6515117,53.7999431 C17.1468464,54.5820215 15.4728901,54.9937085 13.7722132,55 C6.90399261,55 1.18762982,48.1740719 0,39.1670308 C1.37244052,38.1803547 2.53855004,36.9411385 3.43411032,35.5176263 C7.46203554,29.115286 13.7006693,25 20.7048234,25 C27.7089776,25 33.868913,29.0658743 37.875375,35.3976265 C40.3246218,39.3011407 44.6697053,41.6509694 49.3224094,41.5882025 L49.5012693,41.5882025 C54.9243019,41.5811437 59.6605123,45.908194 62,52.2187697 Z" id="Path"></path>
                    <path d="M82.1363405,24.006237 L71.1432739,30.9234075 L77.815612,18.881626 C75.9246159,17.3836046 73.5839093,16.5548377 71.1645234,16.5266949 L70.9874443,16.5266949 C70.2236455,16.5377805 69.4603698,16.4813203 68.7066663,16.3579835 L64.9950897,18.7410331 L66.5958842,15.8588787 C63.9545544,14.9428636 61.673344,13.2202742 60.0793757,10.9381273 L53.4070375,15.1559142 L57.6073523,7.49360136 C53.7045303,2.84700615 48.4488245,0 42.6689647,0 C35.7345497,0 29.5580328,4.09125328 25.5702129,10.4671411 C23.165678,14.3621205 18.8371989,16.6737846 14.2371546,16.5196653 L13.861747,16.5196653 C6.20484945,16.5196653 0,25.1309802 0,35.7598031 C0,46.3886261 6.20484945,55 13.861747,55 C15.546576,54.9954979 17.2048325,54.5828594 18.6924631,53.7978717 C23.9651209,51.2541607 30.0971682,51.1359415 35.4653895,53.474508 C39.999766,55.4961782 45.1864417,55.5089575 49.7308767,53.5096563 C55.0582142,51.2148898 61.1273111,51.3303268 66.3621399,53.8259903 C67.835701,54.5913459 69.4730406,54.9939717 71.1361907,55 C78.7930883,55 84.9979377,46.3815964 84.9979377,35.7598031 C85.0513264,31.6658913 84.0673331,27.6242919 82.1363405,24.006237 Z" id="Path"></path>
                </g>
                <path d="M288,46.2705882 C284.0243,45.5390207 279.913853,45.9734454 276.194197,47.5183193 C271.681745,49.4675911 266.527619,49.4675911 262.015167,47.5183193 C256.677752,45.2503625 250.582325,45.3679652 245.342235,47.84 C243.86364,48.597038 242.217663,48.9950864 240.5455,49 C233.787834,49 228.166502,42.4006723 227,33.6957983 C228.347397,32.7384 229.494146,31.540774 230.378833,30.1670588 C234.340917,23.9771429 240.434883,20 247.363501,20 C254.29212,20 260.32575,23.8991597 264.287834,30.050084 C266.695054,33.8066869 270.948433,36.0750986 275.510386,36.0352941 L275.691395,36.0352941 C281.021101,36.0060504 285.677052,40.1878992 288,46.2705882 Z" id="Path" fill="#297AC5" fill-rule="nonzero" opacity="0.1" transform="translate(257.500000, 34.500000) rotate(-240.000000) translate(-257.500000, -34.500000) "></path>
                <g id="Group-2" transform="translate(59.000000, 61.000000)">
                    <g id="Group">
                        <polygon id="Path-Copy" fill="#CCCCCC" fill-rule="nonzero" points="134 168 79 167.303951 79.1635894 165.914894 81.821146 143 130.123239 143 133.675908 165.914894 133.947528 167.653495"></polygon>
                        <path d="M212,4.56379007 C212.008479,2.05409851 209.973348,0.0118000705 207.452201,0 L4.54782293,0 C3.33596989,0.00566543754 2.17601358,0.490322531 1.32313799,1.34734939 C0.470262407,2.20437625 -0.00566724542,3.36356761 0,4.56990775 L0,127 L212,127 L212,4.56379007 Z" id="Path-Copy-2" fill="#545B62" fill-rule="nonzero"></path>
                        <path d="M0,125 L0,139.440986 C0,141.95886 2.03610762,144 4.54777365,144 L207.452226,144 C209.963892,144 212,141.95886 212,139.440986 L212,125 L0,125 Z" id="Path-Copy-3" fill="#DDDDDD" fill-rule="nonzero"></path>
                        <rect id="Rectangle-Copy-2" fill="#EEEEEE" fill-rule="nonzero" x="8" y="7" width="195" height="110"></rect>
                        <rect id="Rectangle" fill="#FFFFFF" x="8" y="15" width="195" height="102"></rect>
                        <circle id="Oval" fill="#939BA0" cx="106.5" cy="134.5" r="3.5"></circle>
                        <g id="Group-6" transform="translate(41.000000, 24.000000)" fill-rule="nonzero">
                            <g id="Group-5">
                                <path d="M56.7160662,23.8461278 C56.1876054,21.7264307 55.3070059,19.6067336 54.2500843,17.663861 L56.363759,12.7180137 L48.9659819,5.47581382 L44.0341867,7.59551095 C42.0966656,6.53574691 40.1591445,5.65246933 37.8694848,5.12250279 L36.1081174,0 L25.7160662,0 L23.7785451,5.12250279 C21.6648704,5.65246933 19.5511957,6.53557786 17.6138432,7.59551095 L12.6818795,5.47581382 L5.46025601,12.7180137 L7.57393068,17.663861 C6.51717763,19.6069026 5.63640961,21.5499442 5.1079488,23.8461278 L0,25.7891695 L0,36.2108305 L5.1079488,38.1538722 C5.63640961,40.2735693 6.51700906,42.3932664 7.57393068,44.336139 L5.46025601,49.2819863 L12.8580331,56.5241862 L17.7898283,54.4044891 C19.7273493,55.4642531 21.6648704,56.3475307 23.9545301,56.8774972 L25.8920512,62 L36.1079488,62 L38.0454699,56.8774972 C40.1591445,56.3475307 42.2728192,55.4644221 44.2101717,54.4044891 L49.1419669,56.5241862 L56.539744,49.2819863 L54.4260693,44.336139 C55.4828224,42.3930974 56.3635904,40.4500558 56.8920512,38.1538722 L62,36.2108305 L62,25.7891695 L56.7160662,23.8461278 Z M31,43.704918 C23.941731,43.704918 18.295082,38.058269 18.295082,31 C18.295082,23.941731 23.941731,18.295082 31,18.295082 C38.058269,18.295082 43.704918,23.941731 43.704918,31 C43.704918,38.058269 38.058269,43.704918 31,43.704918 Z" id="Shape-Copy" fill="#4696E0"></path>
                                <path d="M39.7155048,39.7154606 C34.7073849,44.7235707 26.6584802,44.7235707 21.6503603,39.7154606 L17,44.3658119 C24.5122654,51.8780627 36.8537709,51.8780627 44.3658651,44.3658119 C51.8779594,36.8535611 51.8781305,24.690959 44.3658651,17 L39.7155048,21.6503513 C44.7237958,26.6584614 44.7237958,34.7073505 39.7155048,39.7154606 Z" id="Path" fill="#1F6BB0"></path>
                                <path d="M17.6341881,17.6341881 C10.1219373,25.1464389 10.1219373,37.309041 17.6341881,45 L22.2845394,40.3496487 C17.2764293,35.3415386 17.2764293,27.2926495 22.2845394,22.2845394 C27.2926495,17.2764293 35.3415386,17.2764293 40.3496487,22.2845394 L45,17.6341881 C37.4879204,10.1219373 25.1464389,10.1219373 17.6341881,17.6341881 Z" id="Path" fill="#1F6BB0"></path>
                            </g>
                            <path d="M93.4213821,67.6917882 C93.6792686,66.1447162 93.6792686,64.8552838 93.4213821,63.3082118 L96,60.7295939 L93.4213821,54.2831725 L89.8112183,54.2831725 C89.0375589,53.2516266 87.7483734,52.2203276 86.7168275,51.1887817 L86.7168275,47.5786179 L80.2704061,45 L77.6917882,47.5786179 C76.1447162,47.3207314 74.8552838,47.3207314 73.3082118,47.5786179 L70.7295939,45 L64.2831725,47.5786179 L64.2831725,51.1887817 C63.2516266,51.9624411 62.2203276,53.2516266 61.1887817,54.2831725 L57.5786179,54.2831725 L55,60.7295939 L57.5786179,63.3082118 C57.3207314,64.8552838 57.3207314,66.1447162 57.5786179,67.6917882 L55,70.2704061 L57.5786179,76.7168275 L61.1887817,76.7168275 C61.9624411,77.7483734 63.2516266,78.7796724 64.2831725,79.8112183 L64.2831725,83.4213821 L70.7295939,86 L73.3082118,83.4213821 C74.8552838,83.6792686 76.1447162,83.6792686 77.6917882,83.4213821 L80.2704061,86 L86.7168275,83.4213821 L86.7168275,79.8112183 C87.7483734,79.0375589 88.7796724,77.7483734 89.8112183,76.7168275 L93.4213821,76.7168275 L96,70.2704061 L93.4213821,67.6917882 Z M72.3645743,73.3383384 C67.9228672,71.5094556 65.8326667,66.5451664 67.6615608,62.3645412 C69.490455,57.9228615 74.4547748,55.8326739 78.6354257,57.6615568 C83.0771328,59.4904396 85.1673333,64.4547288 83.3384392,68.6353539 C81.7706013,73.0770337 76.8062815,75.1674713 72.3645743,73.3383384 Z" id="Shape-Copy-2" fill="#CCCCCC"></path>
                            <path d="M122.068161,32.6917882 C122.332338,31.1447162 122.332338,29.8552838 122.068161,28.3082118 L124.709672,25.7295939 L122.068161,19.2831725 L118.369945,19.2831725 C117.577416,18.2516266 116.256787,17.2203276 115.200081,16.1887817 L115.200081,12.5786179 L108.59643,10 L105.954919,12.5786179 C104.370113,12.3207314 103.049232,12.3207314 101.464426,12.5786179 L98.822915,10 L92.2192638,12.5786179 L92.2192638,16.1887817 C91.1625583,16.9624411 90.1061056,18.2516266 89.0494,19.2831725 L85.3511835,19.2831725 L82.7096725,25.7295939 L85.3511835,28.3082118 C85.0870071,29.8552838 85.0870071,31.1447162 85.3511835,32.6917882 L82.7096725,35.2704061 L85.3511835,41.7168275 L89.0494,41.7168275 C89.8419292,42.7483734 91.1625583,43.7796724 92.2192638,44.8112183 L92.2192638,48.4213821 L98.822915,51 L101.464426,48.4213821 C103.049232,48.6792686 104.370113,48.6792686 105.954919,48.4213821 L108.59643,51 L115.200081,48.4213821 L115.200081,44.8112183 C116.256787,44.0375589 117.313239,42.7483734 118.369945,41.7168275 L122.068161,41.7168275 L124.709672,35.2704061 L122.068161,32.6917882 Z M100.38981,39.2994171 C95.6868259,37.362953 93.4736725,32.1066468 95.4101487,27.6801025 C97.3466248,22.9771474 102.602963,20.7640077 107.029535,22.7004719 C111.732519,24.6369361 113.945672,29.8932423 112.009196,34.3197865 C110.349133,39.0227416 105.092794,41.2361461 100.38981,39.2994171 Z" id="Shape-Copy-3" fill-opacity="0.6" fill="#4696E0"></path>
                        </g>
                    </g>
                    <rect id="Rectangle-Copy" fill="#CCCCCC" fill-rule="nonzero" x="69" y="167" width="73" height="1"></rect>
                </g>
            </g>
        </g>
    </g>
</svg>