<svg viewBox="0 0 195.7204 238.1322" xmlns="http://www.w3.org/2000/svg" xmlns:xlink="http://www.w3.org/1999/xlink"><linearGradient id="a" gradientTransform="translate(-727.4621 -4752.1913)" gradientUnits="userSpaceOnUse" x1="766.7921" x2="766.7921" y1="4845.3995" y2="4776.2577"><stop offset="0" stop-color="#ffab00"/><stop offset="1" stop-color="#ffe380"/></linearGradient><linearGradient id="b" gradientTransform="matrix(0 -1 1 0 -3244.9712 3674.5809)" x1="3480.2593" x2="3480.2593" xlink:href="#a" y1="3397.5719" y2="3328.4301"/><linearGradient id="c" gradientTransform="matrix(-.8312 -.556 .556 -.8312 1141.0075 4924.5961)" x1="3477.1844" x2="3477.1844" xlink:href="#a" y1="3397.5719" y2="3397.1661"/><path d="m96.272 103.971 24.915 95.643-90.645 23.613-30.542-117.243 89.485-23.311 6.77 21.303z" fill="#dfe1e5"/><path d="m115.096 201.2 4.815-6.486-4.493-17.246-21.764 29.318z" fill="#e5e8ec"/><path d="m60.1922 151.2764 26.4649-6.8942a27.3482 27.3482 0 1 1 -33.3591-19.5708l.0108-.0028z" fill="#fcb123"/><path d="m65.3768 143.178-6.8941-26.465a27.4788 27.4788 0 0 1 33.3591 19.5708q.03.1165.06.2334z" fill="#ff8b00"/><path d="m34.286 199.3973 34.4998-8.9872" fill="none" stroke="#0065ff" stroke-miterlimit="10" stroke-width="2"/><path d="m36.5196 207.9717 25.9143-6.7507" fill="none" stroke="#0065ff" stroke-miterlimit="10" stroke-width="2"/><path d="m96.273 103.971-.018.005-6.77-21.303-24.95 6.499-8.74 32.577 48.498 13.011z" fill="#e5e8ec"/><path d="m195.72 45.107-24.794 95.674-90.675-23.499 30.394-117.282 69.05 17.895 16.008 27.208z" fill="#ff7143"/><path d="m195.703 45.103-21.608-5.6 5.6-21.608z" fill="#ffd5c4"/><path d="m95.1212 98.2887 34.511 8.9439" fill="none" stroke="#fff" stroke-linejoin="round" stroke-width="2"/><path d="m92.8983 106.8659 25.9228 6.7181" fill="none" stroke="#fff" stroke-linejoin="round" stroke-width="2"/><path d="m195.72 45.107-24.794 95.674-90.675-23.499 30.394-117.282 69.05 17.895 16.008 27.208z" fill="#0065ff"/><path d="m195.703 45.103-21.608-5.6 5.6-21.608z" fill="#3384ff"/><g fill="none" stroke-width="2"><path d="m95.1212 98.2887 34.511 8.9439" stroke="#fff" stroke-linejoin="round"/><path d="m92.8983 106.8659 25.9228 6.7181" stroke="#fff" stroke-linejoin="round"/><path d="m117.1676 13.22 34.511 8.9439" stroke="#fff" stroke-linejoin="round"/><path d="m114.9447 21.7972 36.4566 9.4481" stroke="#fff" stroke-linejoin="round"/><path d="m111.178 45.008-11.243 43.382 66.957 17.353" stroke="#fff" stroke-miterlimit="10"/><path d="m176.7365 63.4793c-38.1866-9.8964-38.2595 34.9-76.8757 24.892" stroke="#ffab00" stroke-linecap="square" stroke-miterlimit="10"/></g><path d="m6.6691 21.5791h12.2995a0 0 0 0 1 0 0v6.15a6.15 6.15 0 0 1 -6.15 6.15 6.15 6.15 0 0 1 -6.15-6.15v-6.15a0 0 0 0 1 0 0z" fill="#0065ff" transform="matrix(-.75903501 .65104981 -.65104981 -.75903501 40.6016 40.4303)"/><path d="m33.1802 24.0663h12.2994v69.1418h-12.2994z" fill="url(#a)" transform="matrix(-.75903501 .65104981 -.65104981 -.75903501 107.3586 77.5392)"/><path d="m72.252 97.02-5.747-16.146-9.336 8.008z" fill="#feefd3"/><path d="m72.252 97.02-2.053-5.769-3.336 2.861z" fill="#0065ff"/><path d="m38.589 22.0645h6.1497v69.1418h-6.1497z" fill="#fcb123" transform="matrix(-.75903501 .65104981 -.65104981 -.75903501 110.1607 72.4983)"/><path d="m146.6449 157.0729a6.15 6.15 0 0 0 -8.5308 1.6924l-3.4192 5.1116 10.2233 6.8384 3.4192-5.1116a6.15 6.15 0 0 0 -1.6925-8.5308z" fill="#0065ff"/><path d="m83.4588 191.2467h69.1418v6.1497h-69.1418z" fill="url(#b)" transform="matrix(.55598665 -.83119122 .83119122 .55598665 -109.1116 184.3867)"/><path d="m134.695 163.877 5.111 3.419 5.112 3.419z" fill="#0065ff"/><path d="m134.695 163.877 5.111 3.419 5.112 3.419z" fill="url(#c)"/><path d="m139.806 167.296-38.441 57.47 5.111 3.419 38.442-57.47z" fill="#fcb123"/><path d="m92.518 238.132 1.213-5.359z" fill="#feefd3"/><path d="m96.256 221.349-2.431 10.743 3.652 2.443-.591.418 9.593-6.766z" fill="#feefd3"/><path d="m93.87 232.16-.139.613-1.213 5.359 4.413-3.112.592-.417z" fill="#0065ff"/></svg>