<svg viewBox="0 0 256 256" xmlns="http://www.w3.org/2000/svg" xmlns:xlink="http://www.w3.org/1999/xlink"><linearGradient id="a" x1="49.889509%" x2="50.195772%" y1="100.005422%" y2="-.20721%"><stop offset="0" stop-color="#ffe2d9"/><stop offset="1" stop-color="#ebbeae"/></linearGradient><linearGradient id="b" x1="49.203409%" x2="50.315131%" y1="99.984947%" y2=".116825%"><stop offset=".39" stop-color="#f5e0cd"/><stop offset=".48" stop-color="#f3d8c0"/><stop offset=".65" stop-color="#efcbac"/><stop offset=".83" stop-color="#edc4a0"/><stop offset="1" stop-color="#ecc19c"/></linearGradient><linearGradient id="c" x1="52.217789%" x2="52.217789%" y1="27.652004%" y2="-72.366504%"><stop offset=".18" stop-color="#f5e0cd"/><stop offset=".26" stop-color="#f3d8c0"/><stop offset=".41" stop-color="#efcbac"/><stop offset=".56" stop-color="#edc4a0"/><stop offset=".71" stop-color="#ecc19c"/></linearGradient><g fill="none" fill-rule="evenodd" transform="translate(-1 -1)"><g fill-rule="nonzero"><circle cx="129.005041" cy="129.007287" fill="#6554c0" r="128" transform="matrix(.00418878 -.99999123 .99999123 .00418878 -.541488 257.470813)"/><g transform="translate(48 38)"><path d="m17.87 66.09c1.57-34.09 29.63-66.09 66.47-65.92s64.66 32.37 65.93 66.47c1.38 36.63-28 72.08-66.5 71.92s-67.58-35.85-65.9-72.47z" fill="#ecc19c"/><ellipse cx="27.833516" cy="88.067419" fill="#f7d0c3" rx="13.81" ry="17.19" transform="matrix(.97054853 -.24090567 .24090567 .97054853 -20.396203 9.298966)"/><ellipse cx="138.954896" cy="88.51642" fill="#f7d0c3" rx="17.19" ry="13.81" transform="matrix(.24902797 -.96849629 .96849629 .24902797 18.623416 201.050657)"/><path d="m164.13 188.33-26-14.62c-.803545-.535599-1.735805-.846352-2.7-.9l-50.33-2.81-50.39 2.42c-.9623042.047674-1.8944179.351474-2.7.88l-31.4 17.3c47.9504812 38.697323 116.667083 37.73919 163.52-2.28z" fill="#5243aa"/><path d="m133.6 179.75c-1.15 1.45-21 25.77-53.64 23.28-26.39-2-41.21-20.08-43.44-22.89 5.3209186-5.079406 9.1699836-11.502576 11.14-18.59 2.4368384-9.223507 1.6246812-19.004705-2.3-27.7l77.55-1.47c-1.19 2.32-7.71 15.63-2.1 30.61 2.560423 6.701754 7.001665 12.521552 12.79 16.76z" fill="url(#a)"/><path d="m84.24 4.12c27.71.28 44.5 19.1 47.09 22.11 17.49 20.29 15.53 44.33 15.12 49.4-1 12.46-6.09 22.34-15.8 42.32-4.461052 9.175509-9.428716 18.095937-14.88 26.72-1.536425 2.418056-3.699883 4.374154-6.26 5.66-8.042632 4.088105-16.8831613 6.364797-25.9 6.67-9.0066807-.371246-17.8229656-2.709285-25.83-6.85-2.5530443-1.30825-4.7028822-3.285271-6.22-5.72-5.3808644-8.674617-10.2750895-17.641799-14.66-26.86-9.55-20.06-14.54-30-15.45-42.45-.38-5.12-2.14-29.12 15.55-49.28 2.59-2.98 19.53-21.67 47.24-21.72z" fill="#ffe2d9"/><path d="m136.41 60.68c1.606647 6.2588879 2.535323 12.6724527 2.77 19.13-1.023662 3.9336078.588353 8.0805162 4 10.29 0 0 1-2.37 2.2-5.31 1.8-4.56 1.26-8.23 2.93-8.74.560331-.1238334 1.146708.0081015 1.6.36.521985-4.1157762.619163-8.274334.29-12.41-.45-5.7-1.88-23.73-12.37-27.9-.68-.27-5.2-2-7.23 0-3.03 2.9 2.4 11.27 5.81 24.58z" fill="url(#b)"/><path d="m31.75 59c-1.659243 6.2464749-2.6415634 12.6533491-2.93 19.11.9936941 3.941919-.6506471 8.0769535-4.08 10.26 0 0-1-2.38-2.16-5.33-1.76-4.57-1.19-8.24-2.86-8.77-.5605146-.1325858-1.1509538-.0078968-1.61.34-.4859286-4.1060035-.5495948-8.2510095-.19-12.37.5-5.7 2.07-23.71 12.6-27.8.68-.27 5.21-1.95 7.23 0 3.01 3.02-2.47 11.32-6 24.56z" fill="url(#c)"/></g><path d="m69.06 84.07c1.6612937-8.2610859 4.878443-16.1308846 9.48-23.19 3.3969199-5.2403207 7.5406054-9.9567107 12.3-14 15.75-13.1 35.16-14.41 41.43-14.88 16.14-1 21.62 3.39 32.73-1.74 3.26-1.5 7.32-4 9.87-2.31 2.87 1.86 2.16 8.13 1 13.52 5.28-3.52 9-3 10.47-2.68 8.46 2 11.51 15.26 11.49 23.18-.090501 6.2425855-1.941485 12.3328099-5.34 17.57l-11.29 8.88c-2.055964-2.3993789-4.550491-4.3848186-7.35-5.85-2.45-1.27-9-4.11-24.53-1-12.75 2.57-11.44 4.67-18.09 5.56-6.32.84-24.28-12.6-35.62-10.94-3.31.48-7.95 2.53-12.87 10.09z" fill="#ecc19c"/></g><circle cx="129.005041" cy="129.007287" r="128" transform="matrix(.00418878 -.99999123 .99999123 .00418878 -.541488 257.470813)"/></g></svg>
