<svg viewBox="0 0 256 256" xmlns="http://www.w3.org/2000/svg" xmlns:xlink="http://www.w3.org/1999/xlink"><clipPath id="a"><circle cx="128" cy="128" r="128"/></clipPath><linearGradient id="b" gradientUnits="userSpaceOnUse" x1="128.91" x2="128.91" y1="228.18" y2="170.88"><stop offset="0" stop-color="#9c6439"/><stop offset="1" stop-color="#875731"/></linearGradient><circle cx="128" cy="128" fill="#ffab00" r="128"/><g clip-path="url(#a)"><path d="m209.9 138.27c-3.53-134.71-158.71-147-162 0-.25 11.13-.34 22.41 6 31.36a29.79 29.79 0 0 0 23.65 12.51c8.88.25 94.66-1.1 104.88-1a24.92 24.92 0 0 0 10.28-2 26.79 26.79 0 0 0 11.2-9.52c6.35-8.97 6.28-20.23 5.99-31.35z" fill="#0c1f41"/><path d="m168 207.21-39-2-39 2a4.19 4.19 0 0 0 -2.09.69l-35.52 23.39a128 128 0 0 0 152.08-.63l-34.47-22.76a4.19 4.19 0 0 0 -2-.69z" fill="#ffe380"/><path d="m165.61 208.89c-.86 1.19-15.83 21.07-40.48 19.16-20-1.55-31.22-16.23-32.91-18.51a26.85 26.85 0 0 0 10-15.13c2.93-12.66-5.1-22.42-6-23.52h62.4c-.43.58-9.6 13.32-3.8 26.45a25 25 0 0 0 10.79 11.55z" fill="url(#b)"/><circle cx="75.37" cy="126.57" fill="#9c6439" r="13.77"/><circle cx="177.3" cy="126.57" fill="#9c6439" r="13.77"/><path d="m79 98.89c0 6.34-.2 12.41-.49 18.21s-.37 4.89-.66 10.41c-.82 15.45 0 19.45-3.32 23.18-2.11 2.39-5.43 4.16-6.73 3.27s.62-4.57 1.4-10c1.93-13.49-2.53-27.07-2.92-28.23-.93-2.76-2.08-5.45-1.91-9.41.11-2.44.34-7.66 4.07-9.67 2.95-1.65 7.2-.65 10.56 2.24z" fill="#0c1f41"/><path d="m172.91 102.54c0 10.25.47 19.81 1.14 28.61.34 4.42 1.22 14.64 6.87 23.15.59.88 2.41 3.63 3.18 3.31.93-.39-.66-4.85-1.4-10-1.93-13.49 2.53-27.07 2.92-28.23.93-2.76 2.08-5.45 1.91-9.41-.11-2.44-.34-7.66-4.07-9.66-2.97-1.65-7.23-.69-10.55 2.23z" fill="#0c1f41"/><path d="m182.22 121.38c-10.73 41-24.94 69.54-55.7 69.54s-47.69-33.58-55.7-69.54c-8.36-37.49 24.94-69.54 55.7-69.54s65.42 32.38 55.7 69.54z" fill="#9c6439"/><g fill="#0c1f41"><path d="m78.48 89.26c1.92 2.77-.19 5.88-2.6 15.32a88.82 88.82 0 0 0 -2.73 15.09c-.83 11.37 2.46 18.07 1.44 18.43-1.39.5-9.12-11.41-10.81-26.64-.27-2.4-2.38-21.48 5.36-24.82a8.35 8.35 0 0 1 9.34 2.62z"/><path d="m174.5 87.85c-1.92 2.77.19 5.88 2.6 15.32a88.82 88.82 0 0 1 2.73 15.09c.83 11.37-2.46 18.07-1.44 18.43 1.39.5 9.12-11.41 10.81-26.64.27-2.4 2.38-21.48-5.36-24.82a8.35 8.35 0 0 0 -9.34 2.62z"/><path d="m181 94.31c0-9.41 2.52-26-2.71-33.5-5.09-7.26-18.78-5.59-27.32-9.68-7.88-3.78-14.67-15.81-24.27-15.81s-16.39 12-24.27 15.81c-8.54 4.09-22.23 2.41-27.32 9.68-5.23 7.46-2.71 24.09-2.71 33.5a113.55 113.55 0 0 0 23.6 2.69 116.65 116.65 0 0 0 49.47-10.84 37.15 37.15 0 0 0 35.53 8.15z"/></g></g><circle cx="128" cy="128" fill="none" r="128"/></svg>