<?xml version="1.0" encoding="utf-8"?>
<!-- Generator: Adobe Illustrator 24.3.0, SVG Export Plug-In . SVG Version: 6.00 Build 0)  -->
<svg version="1.1" id="Layer_1" xmlns="http://www.w3.org/2000/svg" xmlns:xlink="http://www.w3.org/1999/xlink" x="0px" y="0px"
	 viewBox="0 0 915.08 292.29" style="enable-background:new 0 0 915.08 292.29;" xml:space="preserve">
<style type="text/css">
	.st0{fill:#2B5134;}
	.st1{fill:#95D600;}
	.st2{fill-rule:evenodd;clip-rule:evenodd;fill:#FFFFFF;}
	.st3{fill:#FFFFFF;}
	.st4{fill:#FFFFFF;stroke:#FFFFFF;stroke-width:0.25;stroke-miterlimit:10;}
	.st5{filter:url(#Adobe_OpacityMaskFilter);}
	.st6{filter:url(#Adobe_OpacityMaskFilter_1_);}
	.st7{mask:url(#SVGID_1_);fill:url(#SVGID_2_);}
	.st8{clip-path:url(#SVGID_4_);fill:#FFFFFF;}
	.st9{filter:url(#Adobe_OpacityMaskFilter_2_);}
	.st10{filter:url(#Adobe_OpacityMaskFilter_3_);}
	.st11{mask:url(#SVGID_5_);fill:url(#SVGID_6_);}
	.st12{clip-path:url(#SVGID_8_);fill:#FFFFFF;}
	.st13{fill:none;stroke:#2B5134;stroke-width:4;stroke-miterlimit:10;}
	.st14{fill:none;stroke:#FFFFFF;stroke-width:8;stroke-linecap:round;stroke-miterlimit:10;}
	.st15{fill:none;stroke:#FFFFFF;stroke-width:8;stroke-linecap:round;stroke-miterlimit:10;stroke-dasharray:0,37.9487;}
	.st16{fill:none;stroke:#FFFFFF;stroke-width:8;stroke-linecap:round;stroke-miterlimit:10;stroke-dasharray:0,43.6049;}
	.st17{fill:none;stroke:#FFFFFF;stroke-width:8;stroke-linecap:round;stroke-miterlimit:10;stroke-dasharray:0,38.6943;}
	.st18{fill:none;stroke:#FFFFFF;stroke-width:8;stroke-linecap:round;stroke-miterlimit:10;stroke-dasharray:0,50.6667;}
	.st19{fill:none;stroke:#FFFFFF;stroke-width:8;stroke-linecap:round;stroke-miterlimit:10;stroke-dasharray:0,41.3333;}
	.st20{fill:none;stroke:#FFFFFF;stroke-width:8;stroke-linecap:round;stroke-miterlimit:10;stroke-dasharray:0,48.0657;}
	.str-anim { animation: dash 1s linear infinite; } @keyframes dash { to { stroke-dashoffset: 120 } }
</style>
<g>
	<path class="st0" d="M67.02,160.38c-36.26,0-65.65,29.39-65.65,65.65c0,36.26,29.39,65.65,65.65,65.65s65.65-29.39,65.65-65.65
		C132.67,189.77,103.28,160.38,67.02,160.38z M67.02,282.56c-31.22,0-56.53-25.31-56.53-56.53c0-31.22,25.31-56.53,56.53-56.53
		s56.53,25.31,56.53,56.53C123.55,257.25,98.24,282.56,67.02,282.56z"/>
	<path class="st1" d="M67.02,164.6c-33.93,0-61.43,27.5-61.43,61.43c0,33.93,27.5,61.43,61.43,61.43s61.43-27.5,61.43-61.43
		C128.45,192.1,100.95,164.6,67.02,164.6z M67.02,278.92c-29.21,0-52.89-23.68-52.89-52.89c0-29.21,23.68-52.89,52.89-52.89
		s52.89,23.68,52.89,52.89C119.92,255.24,96.23,278.92,67.02,278.92z"/>
	<g>
		<polygon class="st2" points="82.81,225.44 82.81,225.43 82.81,225.44 		"/>
		<path class="st2" d="M58.06,222.36c-0.74,0-1.26,0.29-1.61,0.82c-0.23,0.35-0.38,0.79-0.46,1.33l4.01,0
			c-0.04-0.52-0.14-0.98-0.37-1.33C59.29,222.65,58.8,222.36,58.06,222.36z"/>
		<path class="st2" d="M47,225.75c-0.51-0.08-1.02-0.12-1.53-0.13c-1.15-0.01-1.64,0.41-1.63,0.41c-0.34,0.24-0.5,0.6-0.5,1.09
			c0,0.31,0.06,0.56,0.17,0.73c0.07,0.11,0.1,0.16,0.32,0.33l0,0c0,0,0.5,0.4,1.65,0.33c0.81-0.05,1.52-0.2,1.52-0.2h0V225.75z"/>
		<polygon class="st2" points="55.99,224.51 55.99,224.51 55.98,224.51 		"/>
		<path class="st2" d="M80.66,222.41c-0.74,0-1.27,0.25-1.61,0.78c-0.35,0.53-0.52,1.29-0.52,2.25s0.18,1.73,0.52,2.26
			c0.35,0.53,0.87,0.79,1.61,0.79c0.74,0,1.27-0.26,1.62-0.79c0.35-0.54,0.53-1.3,0.53-2.26c0-0.96-0.18-1.72-0.53-2.25
			C81.93,222.66,81.4,222.41,80.66,222.41z"/>
		<polygon class="st2" points="101.04,224.51 101.04,224.51 101.02,224.51 		"/>
		<path class="st2" d="M103.1,222.36c-0.74,0-1.26,0.29-1.61,0.82c-0.23,0.35-0.38,0.79-0.46,1.33l4.01,0
			c-0.04-0.52-0.14-0.98-0.37-1.33C104.33,222.65,103.84,222.36,103.1,222.36z"/>
		<path class="st2" d="M95.77,202.76c-2.91,0-5.79,0.61-8.45,1.8c-3-5.31-8.56-8.88-14.98-8.88c-4.81,0-9.17,2.02-12.3,5.28l0,0.02
			c-3.42-4.51-8.88-7.42-14.98-7.42c-10.41,0-18.87,8.42-18.87,18.83c0,2.58,0.53,5.13,1.55,7.49c-4.84,2.85-8.1,8.13-8.1,14.19
			c0,9.02,7.24,16.37,16.19,16.37c1.12,0,2.24-0.12,3.33-0.35c2.46,6.67,8.85,11.41,16.37,11.41c7.2,0,13.39-4.39,16.05-10.63
			c2.09,1.02,4.38,1.55,6.71,1.54c5.71,0,10.72-3.17,13.34-7.85c1.35,0.27,2.72,0.41,4.14,0.41c11.56,0,20.94-9.45,20.94-21.11
			S107.32,202.76,95.77,202.76z M40.5,227.25c0,1.7-1.24,2.76-3.23,2.76c-0.98,0-1.91-0.15-2.9-0.68c-0.19-0.11-0.37-0.2-0.55-0.33
			c-0.02-0.03-0.1-0.06-0.04-0.22l0,0l0.39-1.09c0.06-0.19,0.2-0.12,0.26-0.09c0.11,0.07,0.19,0.12,0.33,0.21
			c1.16,0.73,2.23,0.74,2.56,0.74c0.86,0,1.4-0.46,1.4-1.08v-0.03c0-0.67-0.83-0.93-1.78-1.22l-0.21-0.07
			c-1.31-0.37-2.72-0.92-2.72-2.58v-0.03c0-1.58,1.27-2.68,3.1-2.68l0.2,0c1.07,0,2.1,0.31,2.85,0.77c0.07,0.04,0.13,0.12,0.1,0.22
			c-0.04,0.1-0.37,0.99-0.41,1.09c-0.07,0.19-0.26,0.06-0.26,0.06c-0.65-0.36-1.67-0.65-2.53-0.65c-0.77,0-1.27,0.41-1.27,0.97v0.03
			c0,0.65,0.85,0.93,1.84,1.25l0.17,0.06c1.31,0.41,2.7,0.98,2.7,2.56V227.25z M48.67,229.44c0,0-0.21,0.06-0.4,0.1
			c-0.47,0.1-0.94,0.19-1.42,0.28c-0.56,0.09-1.13,0.14-1.71,0.14c-0.55,0-1.05-0.05-1.49-0.15c-0.45-0.1-0.83-0.27-1.14-0.5
			c-0.31-0.23-0.57-0.53-0.73-0.88c-0.17-0.35-0.26-0.78-0.26-1.28c0-0.49,0.1-0.93,0.3-1.3c0.2-0.37,0.48-0.68,0.82-0.93
			c0.34-0.24,0.73-0.43,1.17-0.55c0.44-0.12,0.9-0.18,1.38-0.18c0.35,0,0.65,0.01,0.88,0.02l0.01,0.01c0,0,0.45,0.04,0.93,0.11
			v-0.24c0-0.75-0.16-1.11-0.46-1.34c-0.31-0.24-0.78-0.36-1.39-0.36c0,0-1.37-0.02-2.45,0.57c-0.05,0.03-0.09,0.05-0.09,0.05
			s-0.14,0.05-0.18-0.09l-0.4-1.07c-0.06-0.16,0.05-0.22,0.05-0.22c0.51-0.4,1.73-0.63,1.73-0.63c0.41-0.08,1.09-0.14,1.51-0.14
			c1.12,0,1.99,0.26,2.58,0.78c0.59,0.52,0.9,1.36,0.9,2.48l0,5.14C48.8,229.26,48.81,229.41,48.67,229.44z M52.44,229.62
			c0,0.09-0.07,0.17-0.16,0.17h-1.49c-0.09,0-0.16-0.08-0.16-0.17v-12.01c0-0.09,0.07-0.17,0.16-0.17h1.49
			c0.09,0,0.16,0.08,0.16,0.17V229.62z M61.77,225.75c-0.02,0.14-0.16,0.15-0.16,0.15l-5.64,0c0.03,0.86,0.24,1.46,0.65,1.87
			c0.41,0.4,1.06,0.66,1.93,0.66c1.34,0,1.91-0.27,2.31-0.42c0,0,0.16-0.06,0.21,0.1l0.37,1.03c0.07,0.17,0.01,0.23-0.05,0.27
			c-0.35,0.2-1.21,0.56-2.83,0.56c-0.79,0-1.48-0.11-2.04-0.33c-0.57-0.22-1.05-0.53-1.42-0.94c-0.37-0.4-0.64-0.88-0.81-1.43
			c-0.17-0.55-0.26-1.15-0.26-1.8c0-0.63,0.08-1.24,0.25-1.79c0.16-0.56,0.42-1.05,0.76-1.46c0.34-0.41,0.78-0.74,1.29-0.99
			c0.52-0.24,1.16-0.36,1.86-0.36c0.55,0,1.1,0.11,1.61,0.33c0.35,0.15,0.71,0.42,1.07,0.81c0.23,0.25,0.58,0.78,0.72,1.32l0,0
			C61.96,224.6,61.77,225.69,61.77,225.75z M66.41,230.01c-0.98,0-1.91-0.15-2.9-0.68c-0.19-0.11-0.37-0.2-0.55-0.33
			c-0.02-0.03-0.1-0.06-0.04-0.22l0,0l0.39-1.09c0.06-0.18,0.23-0.11,0.26-0.09c0.11,0.07,0.19,0.12,0.33,0.21
			c1.16,0.73,2.23,0.74,2.56,0.74c0.86,0,1.4-0.46,1.4-1.08v-0.03c0-0.67-0.82-0.93-1.78-1.22l-0.21-0.07
			c-1.31-0.37-2.72-0.92-2.72-2.58v-0.03c0-1.58,1.27-2.68,3.1-2.68l0.2,0c1.07,0,2.1,0.31,2.85,0.77c0.07,0.04,0.13,0.12,0.1,0.22
			c-0.03,0.1-0.37,0.99-0.4,1.09c-0.07,0.19-0.26,0.06-0.26,0.06c-0.66-0.36-1.67-0.65-2.53-0.65c-0.77,0-1.27,0.41-1.27,0.97v0.03
			c0,0.65,0.85,0.93,1.84,1.25l0.17,0.06c1.31,0.41,2.7,0.98,2.7,2.56v0.03C69.64,228.95,68.4,230.01,66.41,230.01z M76.26,222.4
			c-0.03,0.17-0.19,0.16-0.19,0.16h-1.85l-1.27,7.17c-0.13,0.74-0.3,1.38-0.49,1.89c-0.2,0.52-0.4,0.9-0.73,1.26
			c-0.3,0.34-0.65,0.58-1.04,0.73c-0.39,0.14-0.86,0.21-1.38,0.21c-0.25,0-0.51,0-0.82-0.08c-0.23-0.05-0.35-0.09-0.51-0.15
			c-0.07-0.03-0.13-0.11-0.09-0.22c0.04-0.11,0.37-1.02,0.42-1.14c0.06-0.15,0.2-0.09,0.2-0.09c0.1,0.04,0.17,0.07,0.3,0.1
			c0.13,0.03,0.31,0.05,0.45,0.05c0.24,0,0.47-0.03,0.66-0.1c0.24-0.08,0.37-0.21,0.52-0.4c0.15-0.19,0.27-0.45,0.39-0.8
			c0.13-0.35,0.24-0.82,0.34-1.39l1.26-7.04h-1.24c-0.15,0-0.2-0.07-0.18-0.18l0.21-1.17c0.03-0.17,0.19-0.16,0.19-0.16h1.28
			l0.07-0.38c0.19-1.13,0.57-1.99,1.13-2.55c0.56-0.57,1.37-0.86,2.38-0.86c0.26,0,0.51,0.02,0.76,0.06
			c0.19,0.03,0.37,0.08,0.56,0.13c0.04,0.02,0.15,0.07,0.1,0.2l-0.43,1.18c-0.04,0.09-0.06,0.14-0.24,0.09
			c-0.05-0.01-0.11-0.03-0.29-0.07c-0.13-0.03-0.29-0.05-0.46-0.05c-0.2,0-0.41,0.03-0.6,0.09c-0.18,0.06-0.34,0.16-0.47,0.29
			c-0.14,0.14-0.31,0.35-0.39,0.6c-0.21,0.6-0.29,1.23-0.3,1.27h1.8c0.15,0,0.2,0.07,0.18,0.18L76.26,222.4z M84.47,227.22
			c-0.16,0.55-0.42,1.04-0.76,1.44c-0.34,0.41-0.77,0.73-1.28,0.96c-0.51,0.23-1.11,0.35-1.78,0.35c-0.67,0-1.27-0.12-1.78-0.35
			c-0.51-0.23-0.94-0.56-1.28-0.96c-0.34-0.41-0.59-0.89-0.76-1.44c-0.16-0.55-0.24-1.15-0.24-1.79c0-0.64,0.08-1.24,0.24-1.79
			c0.16-0.55,0.42-1.04,0.76-1.44c0.34-0.41,0.77-0.73,1.28-0.97c0.51-0.24,1.11-0.36,1.78-0.36c0.68,0,1.28,0.12,1.78,0.36
			c0.51,0.24,0.94,0.56,1.28,0.97c0.34,0.41,0.59,0.89,0.76,1.44h0c0.16,0.55,0.24,1.15,0.24,1.79
			C84.72,226.08,84.63,226.68,84.47,227.22z M91.37,221.32l0-0.02c-0.05,0.15-0.33,0.92-0.42,1.18c-0.04,0.1-0.1,0.16-0.21,0.15
			c0,0-0.32-0.08-0.62-0.08c-0.26,0-0.51,0.04-0.76,0.11c-0.26,0.08-0.5,0.22-0.7,0.42c-0.2,0.2-0.37,0.48-0.49,0.83
			c-0.12,0.35-0.19,0.91-0.19,1.48v4.21c0,0.09-0.08,0.17-0.17,0.17h-1.48c-0.09,0-0.17-0.08-0.17-0.17v-8.38
			c0-0.09,0.07-0.17,0.16-0.17h1.44c0.09,0,0.16,0.08,0.16,0.17l0,0.68c0.21-0.29,0.6-0.55,0.95-0.7c0.35-0.16,0.75-0.28,1.45-0.23
			c0.37,0.02,0.85,0.12,0.94,0.16c0,0,0,0,0,0C91.37,221.15,91.4,221.24,91.37,221.32z M98.48,229.54c-0.63,0.25-1.5,0.42-2.35,0.42
			c-1.44,0-2.55-0.41-3.28-1.23c-0.73-0.82-1.11-1.93-1.11-3.31c0-0.64,0.09-1.24,0.27-1.79c0.18-0.55,0.45-1.04,0.81-1.44
			c0.36-0.41,0.81-0.73,1.34-0.97c0.53-0.24,1.15-0.36,1.85-0.36c0.47,0,0.89,0.03,1.25,0.08c0.39,0.06,0.89,0.2,1.11,0.28
			c0.04,0.02,0.15,0.07,0.1,0.2c-0.16,0.44-0.26,0.73-0.41,1.13c-0.06,0.17-0.19,0.11-0.19,0.11c-0.55-0.17-1.07-0.25-1.76-0.25
			c-0.82,0-1.44,0.28-1.84,0.81c-0.41,0.54-0.64,1.25-0.64,2.19c0,1.03,0.25,1.8,0.71,2.27c0.46,0.47,1.1,0.71,1.9,0.71
			c0.32,0,0.63-0.02,0.91-0.07c0.27-0.04,0.53-0.13,0.77-0.22c0,0,0.16-0.06,0.21,0.1h0l0.41,1.13
			C98.6,229.48,98.48,229.54,98.48,229.54z M106.81,225.75c-0.02,0.14-0.16,0.15-0.16,0.15l-5.64,0c0.03,0.86,0.24,1.46,0.65,1.87
			c0.41,0.4,1.05,0.66,1.93,0.66c1.34,0,1.91-0.27,2.31-0.42c0,0,0.16-0.06,0.21,0.1l0.37,1.03c0.07,0.17,0.01,0.23-0.05,0.27
			c-0.35,0.2-1.21,0.56-2.83,0.56c-0.79,0-1.48-0.11-2.04-0.33c-0.57-0.22-1.05-0.53-1.42-0.94c-0.37-0.4-0.65-0.88-0.82-1.43
			c-0.17-0.55-0.25-1.15-0.25-1.8c0-0.63,0.08-1.24,0.25-1.79c0.16-0.56,0.42-1.05,0.76-1.46c0.34-0.41,0.78-0.74,1.29-0.99
			c0.52-0.24,1.16-0.36,1.86-0.36c0.55,0,1.1,0.11,1.61,0.33c0.35,0.15,0.71,0.42,1.07,0.81c0.23,0.25,0.58,0.78,0.72,1.32l0.01,0
			C107.01,224.6,106.82,225.69,106.81,225.75z"/>
	</g>
</g>
<g>
	<g>
		<g>
			<g>
				<path class="st3" d="M698.96,252.98c0-0.95,0.11-1.78,0.33-2.51c0.22-0.72,0.51-1.3,0.87-1.72c0.36-0.42,0.78-0.77,1.28-1.04
					c0.5-0.27,0.98-0.45,1.46-0.54c0.48-0.09,0.99-0.14,1.54-0.14c0.55,0,1.06,0.05,1.54,0.14c0.48,0.09,0.97,0.27,1.46,0.54
					c0.5,0.27,0.92,0.62,1.28,1.04c0.36,0.42,0.65,1,0.87,1.72c0.22,0.72,0.33,1.56,0.33,2.51c0,3.44-1.41,5.39-4.23,5.85
					c0.05,0.92,0.65,1.38,1.82,1.38v1.96c-2.85,0-4.3-1.11-4.32-3.33C700.38,258.39,698.96,256.43,698.96,252.98 M702.65,250.34
					c-0.45,0.49-0.68,1.37-0.68,2.64c0,1.27,0.23,2.15,0.68,2.64c0.45,0.49,1.05,0.74,1.8,0.74c0.75,0,1.35-0.24,1.8-0.74
					c0.45-0.49,0.68-1.37,0.68-2.64c0-1.27-0.23-2.15-0.68-2.64c-0.45-0.49-1.05-0.74-1.8-0.74
					C703.7,249.6,703.1,249.85,702.65,250.34"/>
			</g>
		</g>
		<g>
			<g>
				<path class="st3" d="M712.54,256c-0.33-0.82-0.49-1.83-0.49-3.02c0-1.19,0.16-2.19,0.49-3.02c0.33-0.82,0.77-1.44,1.33-1.85
					c0.56-0.41,1.13-0.69,1.73-0.86c0.59-0.17,1.24-0.25,1.94-0.25c1.12,0,2.37,0.27,3.75,0.82v2.6c-1.17-0.56-2.36-0.84-3.58-0.84
					c-0.8,0-1.45,0.25-1.93,0.74c-0.48,0.49-0.72,1.38-0.72,2.66c0,1.28,0.24,2.17,0.72,2.66c0.48,0.49,1.12,0.74,1.93,0.74
					c1.22,0,2.41-0.28,3.58-0.84v2.6c-1.38,0.54-2.63,0.82-3.75,0.82c-0.7,0-1.35-0.08-1.94-0.25c-0.59-0.17-1.17-0.46-1.73-0.86
					C713.32,257.44,712.87,256.82,712.54,256"/>
			</g>
		</g>
		<g>
			<g>
				<polygon class="st3" points="721.98,260.56 728.42,245.59 730.61,245.59 724.16,260.56 				"/>
			</g>
		</g>
		<g>
			<g>
				<path class="st3" d="M730.72,258.84l4.65-11.7h2.84l4.64,11.7h-3.25l-0.91-2.81h-3.83l-0.91,2.81H730.72z M735.59,253.81h2.37
					l-1.17-3.63L735.59,253.81z"/>
			</g>
		</g>
		<g>
			<g>
				<polygon class="st3" points="744.74,258.84 744.74,247.15 747.75,247.15 747.75,256.26 752.95,256.26 752.95,258.84 				"/>
			</g>
		</g>
		<g>
			<g>
				<polygon class="st3" points="754.85,258.84 754.85,247.15 757.81,247.15 760.57,251.13 763.32,247.15 766.28,247.15 
					766.28,258.84 763.27,258.84 763.27,251.6 760.57,255.48 757.87,251.6 757.87,258.84 				"/>
			</g>
		</g>
		<g>
			<g>
				<path class="st3" d="M755.56,211.38c-0.3-4.04-1.64-8-3.9-11.37c-2.21-3.31-5.26-6.07-8.81-7.89c-2.74-1.44-5.78-2.29-8.86-2.56
					c-0.7-0.15-1.4,0.01-2.1,0.01c-1.66,4.76-3.39,9.49-5.06,14.24c1.22,0.02,2.44-0.02,3.65,0.02c0.89,0.04,1.82,0.41,2.32,1.19
					c0.56,0.88,0.53,2,0.18,2.96c-1.66,4.66-3.33,9.31-4.98,13.97c-1.46,0.02-2.92,0-4.39,0.01c-0.2-0.01-0.41,0.02-0.61-0.06
					c1.86-5.12,3.67-10.26,5.5-15.39c-0.87-0.02-1.74,0-2.62-0.01c-0.13,0.28-0.23,0.57-0.33,0.87c-1.68,4.73-3.38,9.46-5.06,14.2
					c-0.08,0.12-0.06,0.38-0.25,0.39c-1.39,0.01-2.78,0-4.18,0c-0.25,0-0.51,0.03-0.75-0.05c3.82-10.6,7.55-21.22,11.37-31.81
					c-7.46,1.6-13.88,7.18-16.66,14.28c-1.14,2.81-1.63,5.84-1.7,8.86c0.08,1.45,0.18,2.9,0.46,4.33c0.9,4.76,3.32,9.21,6.82,12.55
					c2.9,2.81,6.54,4.84,10.45,5.85c3.8-10.64,7.59-21.28,11.37-31.92c0.04-0.08,0.11-0.23,0.15-0.31c2.34,0.02,4.68,0,7.02,0.01
					c0.77,0.01,1.55-0.07,2.3,0.16c0.86,0.23,1.66,0.85,1.92,1.72c0.19,0.69,0.06,1.42-0.19,2.08c-1.49,4.36-3.07,8.69-4.61,13.03
					c-0.38,1.13-1.53,1.84-2.7,1.88c-1.82,0.03-3.65-0.01-5.47,0.02c-1.67,4.67-3.33,9.34-4.99,14.01c0.43,0.18,0.9,0.04,1.35,0.07
					c0.68,0.05,1.36-0.07,2.03-0.12c4.44-0.41,8.75-2.13,12.26-4.88c2.82-2.2,5.13-5.04,6.7-8.25c1.37-2.76,2.14-5.81,2.36-8.88
					C755.48,213.52,755.51,212.45,755.56,211.38"/>
			</g>
		</g>
		<g>
			<g>
				<path class="st3" d="M739.45,219.95c1.55-4.5,3.2-8.97,4.77-13.46c-0.68-0.01-1.35,0-2.03-0.01c-0.19,0.03-0.45-0.07-0.6,0.09
					c-1.6,4.46-3.18,8.93-4.78,13.4C737.7,219.98,738.58,220.01,739.45,219.95"/>
			</g>
		</g>
	</g>
	<path class="st0" d="M732.62,160.18c-36.26,0-65.65,29.39-65.65,65.65c0,36.26,29.39,65.65,65.65,65.65s65.65-29.39,65.65-65.65
		C798.27,189.58,768.88,160.18,732.62,160.18z M732.62,282.36c-31.22,0-56.53-25.31-56.53-56.53c0-31.22,25.31-56.53,56.53-56.53
		s56.53,25.31,56.53,56.53C789.15,257.05,763.84,282.36,732.62,282.36z"/>
	<path class="st1" d="M732.62,164.4c-33.93,0-61.43,27.5-61.43,61.43c0,33.93,27.5,61.43,61.43,61.43s61.43-27.5,61.43-61.43
		C794.05,191.91,766.55,164.4,732.62,164.4z M732.62,278.73c-29.21,0-52.89-23.68-52.89-52.89c0-29.21,23.68-52.89,52.89-52.89
		c29.21,0,52.89,23.68,52.89,52.89C785.52,255.05,761.83,278.73,732.62,278.73z"/>
</g>
<g>
	<g>
		<g>
			<path class="st3" d="M44.66,92.52h-5.62c-0.15,0-0.26,0.12-0.26,0.26v2.75c0,0.15,0.12,0.26,0.26,0.26h2.19v3.42
				c0,0-0.49,0.17-1.85,0.17c-1.61,0-3.85-0.59-3.85-5.52c0-4.94,2.34-5.59,4.53-5.59c1.9,0,2.72,0.33,3.24,0.5
				c0.16,0.05,0.31-0.11,0.31-0.26l0.63-2.66c0-0.07-0.02-0.15-0.1-0.21c-0.21-0.15-1.5-0.87-4.76-0.87c-3.75,0-7.6,1.6-7.6,9.27
				c0,7.68,4.41,8.82,8.12,8.82c3.08,0,4.94-1.31,4.94-1.31c0.08-0.04,0.09-0.15,0.09-0.2v-8.57C44.92,92.64,44.8,92.52,44.66,92.52
				z"/>
			<path class="st3" d="M73.64,85.7c0-0.15-0.12-0.26-0.26-0.26h-3.17c-0.14,0-0.26,0.12-0.26,0.26c0,0,0,6.12,0,6.12h-4.93V85.7
				c0-0.15-0.12-0.26-0.26-0.26h-3.17c-0.14,0-0.26,0.12-0.26,0.26v16.57c0,0.15,0.12,0.27,0.26,0.27h3.17
				c0.14,0,0.26-0.12,0.26-0.27v-7.09h4.93c0,0-0.01,7.09-0.01,7.09c0,0.15,0.12,0.27,0.26,0.27h3.17c0.15,0,0.26-0.12,0.26-0.27
				V85.7z"/>
			<g>
				<g>
					<path class="st3" d="M50.63,87.87c0-1.14-0.91-2.06-2.04-2.06c-1.13,0-2.04,0.92-2.04,2.06c0,1.14,0.91,2.06,2.04,2.06
						C49.72,89.93,50.63,89.01,50.63,87.87z"/>
					<path class="st3" d="M50.41,98.77c0-0.42,0-7.65,0-7.65c0-0.15-0.12-0.26-0.26-0.26h-3.16c-0.14,0-0.27,0.15-0.27,0.29
						c0,0,0,9.2,0,10.96c0,0.32,0.2,0.42,0.46,0.42c0,0,1.35,0,2.84,0c0.31,0,0.39-0.15,0.39-0.42
						C50.41,101.52,50.41,99.22,50.41,98.77z"/>
				</g>
			</g>
			<path class="st3" d="M85.67,90.88h-3.14c-0.14,0-0.26,0.12-0.26,0.26v8.12c0,0-0.8,0.58-1.93,0.58c-1.13,0-1.43-0.51-1.43-1.62
				c0-1.11,0-7.08,0-7.08c0-0.15-0.12-0.26-0.26-0.26h-3.19c-0.14,0-0.26,0.12-0.26,0.26c0,0,0,4.33,0,7.62
				c0,3.29,1.84,4.1,4.36,4.1c2.07,0,3.74-1.14,3.74-1.14s0.08,0.6,0.12,0.67c0.04,0.07,0.13,0.14,0.23,0.14l2.03-0.01
				c0.14,0,0.26-0.12,0.26-0.26l0-11.12C85.93,91,85.81,90.88,85.67,90.88z"/>
			<path class="st3" d="M94.26,90.51c-1.78,0-3,0.8-3,0.8V85.7c0-0.15-0.12-0.26-0.26-0.26h-3.17c-0.14,0-0.26,0.12-0.26,0.26v16.57
				c0,0.15,0.12,0.27,0.26,0.27c0,0,2.2,0,2.2,0c0.1,0,0.17-0.05,0.23-0.14c0.05-0.09,0.13-0.76,0.13-0.76s1.3,1.23,3.76,1.23
				c2.89,0,4.54-1.46,4.54-6.57C98.68,91.18,96.04,90.51,94.26,90.51z M93.02,99.84c-1.09-0.03-1.83-0.53-1.83-0.53v-5.25
				c0,0,0.73-0.45,1.62-0.53c1.13-0.1,2.22,0.24,2.22,2.94C95.03,99.33,94.54,99.89,93.02,99.84z"/>
			<path class="st3" d="M59.51,90.86h-2.37c0,0,0-3.14,0-3.14c0-0.12-0.06-0.18-0.2-0.18h-3.24c-0.13,0-0.19,0.06-0.19,0.18v3.24
				c0,0-1.62,0.39-1.73,0.42c-0.11,0.03-0.19,0.13-0.19,0.25v2.04c0,0.15,0.12,0.26,0.26,0.26h1.66c0,0,0,2.13,0,4.9
				c0,3.64,2.55,4,4.28,4c0.79,0,1.73-0.25,1.88-0.31c0.09-0.03,0.15-0.13,0.15-0.24l0-2.24c0-0.15-0.12-0.26-0.26-0.26
				c-0.14,0-0.49,0.06-0.86,0.06c-1.17,0-1.56-0.54-1.56-1.24c0-0.7,0-4.66,0-4.66h2.38c0.14,0,0.26-0.12,0.26-0.26v-2.55
				C59.77,90.97,59.65,90.86,59.51,90.86z"/>
		</g>
		<g>
			<path class="st2" d="M65.22,31.83c-13.1,0-23.71,10.62-23.71,23.71c0,10.48,6.79,19.37,16.22,22.5c1.19,0.22,1.62-0.51,1.62-1.14
				c0-0.57-0.02-2.43-0.03-4.42c-6.6,1.43-7.99-2.8-7.99-2.8c-1.08-2.74-2.63-3.47-2.63-3.47c-2.15-1.47,0.16-1.44,0.16-1.44
				c2.38,0.17,3.64,2.44,3.64,2.44c2.11,3.63,5.55,2.58,6.9,1.97c0.21-1.53,0.83-2.58,1.51-3.17c-5.27-0.6-10.8-2.63-10.8-11.72
				c0-2.59,0.93-4.7,2.44-6.37c-0.25-0.6-1.06-3.01,0.23-6.28c0,0,1.99-0.64,6.52,2.43c1.89-0.53,3.92-0.79,5.94-0.8
				c2.02,0.01,4.05,0.27,5.94,0.8c4.53-3.07,6.51-2.43,6.51-2.43c1.29,3.27,0.48,5.68,0.23,6.28c1.52,1.66,2.44,3.78,2.44,6.37
				c0,9.11-5.55,11.11-10.83,11.7c0.85,0.74,1.61,2.18,1.61,4.39c0,3.17-0.03,5.73-0.03,6.51c0,0.63,0.43,1.37,1.63,1.14
				c9.42-3.14,16.2-12.03,16.2-22.5C88.94,42.44,78.32,31.83,65.22,31.83z"/>
			<path class="st3" d="M50.49,65.88c-0.05,0.12-0.24,0.15-0.41,0.07c-0.17-0.08-0.27-0.24-0.21-0.36c0.05-0.12,0.24-0.15,0.41-0.07
				C50.45,65.59,50.55,65.76,50.49,65.88L50.49,65.88z M50.2,65.66"/>
			<path class="st3" d="M51.45,66.95c-0.11,0.1-0.33,0.06-0.48-0.11c-0.16-0.17-0.18-0.39-0.07-0.49c0.12-0.1,0.33-0.06,0.49,0.11
				C51.54,66.62,51.57,66.84,51.45,66.95L51.45,66.95z M51.22,66.7"/>
			<path class="st3" d="M52.38,68.31c-0.15,0.1-0.38,0.01-0.53-0.2c-0.15-0.21-0.15-0.46,0-0.57c0.15-0.1,0.38-0.01,0.53,0.2
				C52.53,67.96,52.53,68.21,52.38,68.31L52.38,68.31z M52.38,68.31"/>
			<path class="st3" d="M53.67,69.63c-0.13,0.14-0.41,0.1-0.61-0.09c-0.21-0.19-0.26-0.46-0.13-0.61c0.13-0.14,0.41-0.1,0.61,0.09
				C53.74,69.22,53.8,69.49,53.67,69.63L53.67,69.63z M53.67,69.63"/>
			<path class="st3" d="M55.43,70.4c-0.06,0.19-0.32,0.27-0.59,0.19c-0.27-0.08-0.44-0.3-0.39-0.49c0.06-0.19,0.32-0.27,0.59-0.19
				C55.31,69.99,55.49,70.21,55.43,70.4L55.43,70.4z M55.43,70.4"/>
			<path class="st3" d="M57.37,70.54c0.01,0.2-0.22,0.36-0.5,0.36c-0.28,0.01-0.51-0.15-0.52-0.34c0-0.2,0.22-0.36,0.51-0.36
				C57.14,70.19,57.37,70.35,57.37,70.54L57.37,70.54z M57.37,70.54"/>
			<path class="st3" d="M59.18,70.23c0.03,0.19-0.16,0.39-0.44,0.44c-0.28,0.05-0.53-0.07-0.57-0.26c-0.03-0.2,0.17-0.39,0.44-0.44
				C58.89,69.92,59.14,70.04,59.18,70.23L59.18,70.23z M59.18,70.23"/>
		</g>
	</g>
	<path class="st0" d="M65.23,5.51C29.2,5.51,0,34.71,0,70.74c0,36.02,29.2,65.23,65.23,65.23s65.23-29.2,65.23-65.23
		C130.46,34.71,101.25,5.51,65.23,5.51z M65.23,126.9c-31.02,0-56.16-25.14-56.16-56.16c0-31.02,25.14-56.16,56.16-56.16
		s56.16,25.14,56.16,56.16C121.39,101.75,96.24,126.9,65.23,126.9z"/>
	<path class="st1" d="M65.23,9.3C31.3,9.3,3.79,36.81,3.79,70.74c0,33.93,27.5,61.43,61.43,61.43s61.43-27.5,61.43-61.43
		C126.66,36.81,99.16,9.3,65.23,9.3z M65.23,123.63c-29.21,0-52.89-23.68-52.89-52.89c0-29.21,23.68-52.89,52.89-52.89
		s52.89,23.68,52.89,52.89C118.12,99.95,94.44,123.63,65.23,123.63z"/>
</g>
<g>
	<g>
		<polygon class="st3" points="347.28,203.14 347.28,228 326.69,228 		"/>
		<path class="st3" d="M347.28,194.22c0,5.69-4.61,10.3-10.3,10.3s-10.3-4.61-10.3-10.3H347.28z"/>
		<path class="st3" d="M350.67,228c0-5.69,4.61-10.3,10.3-10.3s10.3,4.61,10.3,10.3H350.67z"/>
		<polygon class="st3" points="350.67,219.08 350.67,194.22 371.26,194.22 		"/>
		<path class="st3" d="M362.19,249.27c1.06,0.02,2.08-0.37,2.85-1.1l1.41,1.53c-0.93,0.96-2.23,1.67-4.24,1.67
			c-3.45,0-5.68-2.29-5.68-5.39c-0.06-2.92,2.26-5.33,5.18-5.39c0.06,0,0.12,0,0.19,0c3.43,0,5.37,2.61,5.2,6.22H359
			C359.28,248.32,360.34,249.28,362.19,249.27 M364.66,245.09c-0.22-1.4-1.06-2.44-2.73-2.44c-1.56,0-2.64,0.88-2.92,2.44H364.66z"
			/>
		<polygon class="st3" points="308.99,249.16 315.23,242.82 309.14,242.82 309.14,240.84 318.12,240.84 318.12,242.86 311.88,249.2 
			318.2,249.2 318.2,251.19 308.99,251.19 		"/>
		<path class="st3" d="M325.2,249.27c1.06,0.02,2.08-0.37,2.85-1.1l1.41,1.53c-0.93,0.96-2.23,1.67-4.24,1.67
			c-3.45,0-5.68-2.29-5.68-5.39c-0.06-2.92,2.26-5.33,5.18-5.39c0.06,0,0.12,0,0.19,0c3.43,0,5.37,2.61,5.2,6.22h-8.1
			C322.3,248.32,323.35,249.28,325.2,249.27 M327.67,245.09c-0.22-1.4-1.06-2.44-2.73-2.44c-1.56,0-2.64,0.88-2.92,2.44H327.67
			L327.67,245.09z"/>
		<path class="st3" d="M343.58,245.98c0-3.3,2.47-5.38,5.2-5.38c1.32-0.02,2.59,0.55,3.45,1.55v-6.11h2.2v15.11h-2.2v-1.43
			c-0.85,1.04-2.13,1.65-3.47,1.63C346.11,251.36,343.58,249.27,343.58,245.98 M352.35,245.96c-0.05-1.81-1.56-3.25-3.37-3.2
			c-1.81,0.05-3.25,1.56-3.2,3.37c0.05,1.78,1.51,3.2,3.29,3.2C350.96,249.33,352.35,247.82,352.35,245.96"/>
		<path class="st3" d="M368.53,248.96l2-1.04c0.54,0.96,1.56,1.54,2.66,1.51c1.25,0,1.89-0.64,1.89-1.37c0-0.83-1.2-1.02-2.52-1.28
			c-1.76-0.37-3.6-0.95-3.6-3.08c0-1.64,1.56-3.15,4.01-3.13c1.93,0,3.37,0.77,4.19,2.01l-1.85,1.02c-0.52-0.77-1.4-1.22-2.33-1.18
			c-1.19,0-1.79,0.58-1.79,1.24c0,0.74,0.96,0.95,2.45,1.28c1.7,0.37,3.64,0.93,3.64,3.08c0,1.43-1.25,3.35-4.2,3.33
			C370.93,251.36,369.41,250.49,368.53,248.96"/>
		<polygon class="st3" points="383.27,246.56 381.52,248.46 381.52,251.15 379.32,251.15 379.32,236.04 381.52,236.04 
			381.52,245.94 386.2,240.8 388.88,240.8 384.83,245.23 388.99,251.15 386.49,251.15 		"/>
		<path class="st3" d="M336.92,240.59c-2.62,0-4.81,1.7-4.81,4.51v6.05h2.24v-5.77c0-1.7,0.98-2.71,2.64-2.71
			c1.67,0,2.5,1.02,2.5,2.71v5.77h2.23v-6.05C341.72,242.29,339.52,240.59,336.92,240.59"/>
	</g>
	<path class="st0" d="M348.72,160.98c-36.26,0-65.65,29.39-65.65,65.65c0,36.26,29.39,65.65,65.65,65.65s65.65-29.39,65.65-65.65
		C414.37,190.38,384.98,160.98,348.72,160.98z M348.72,283.16c-31.22,0-56.53-25.31-56.53-56.53c0-31.22,25.31-56.53,56.53-56.53
		s56.53,25.31,56.53,56.53C405.25,257.85,379.94,283.16,348.72,283.16z"/>
	<path class="st1" d="M348.72,165.2c-33.93,0-61.43,27.5-61.43,61.43c0,33.93,27.5,61.43,61.43,61.43s61.43-27.5,61.43-61.43
		C410.16,192.7,382.65,165.2,348.72,165.2z M348.72,279.53c-29.21,0-52.89-23.68-52.89-52.89c0-29.21,23.68-52.89,52.89-52.89
		s52.89,23.68,52.89,52.89C401.62,255.85,377.94,279.53,348.72,279.53z"/>
</g>
<g>
	<g>
		<path class="st3" d="M351.92,31.06c-0.22,0.44-0.37,0.9-0.55,1.35c-1.47,3.7-2.93,7.4-4.4,11.1c-0.33,0.83-0.66,1.66-0.98,2.49
			c-0.06,0.15-0.14,0.21-0.3,0.21c-0.87-0.01-1.73-0.01-2.6,0c-0.18,0-0.26-0.07-0.32-0.23c-1.02-2.74-2.05-5.47-3.08-8.2
			c-0.01-0.03-0.03-0.07-0.06-0.14c-0.08,0.22-0.15,0.4-0.22,0.58c-0.97,2.6-1.93,5.2-2.89,7.8c-0.05,0.14-0.12,0.19-0.27,0.19
			c-0.87,0-1.75-0.01-2.62,0c-0.17,0-0.25-0.06-0.31-0.21c-1.11-2.81-2.23-5.61-3.34-8.41c-0.84-2.11-1.68-4.22-2.52-6.33
			c-0.1-0.24-0.09-0.24,0.17-0.24c1.19,0,2.39,0,3.58,0c0.19,0,0.27,0.07,0.33,0.24c1.04,2.72,2.08,5.45,3.12,8.17
			c0.02,0.05,0.05,0.1,0.07,0.15c0.07-0.05,0.08-0.12,0.1-0.17c1.02-2.72,2.04-5.43,3.05-8.15c0.07-0.18,0.15-0.23,0.34-0.23
			c0.96,0.01,1.93,0.01,2.89,0c0.19,0,0.28,0.07,0.35,0.25c1.01,2.74,2.02,5.47,3.03,8.2c0.01,0.03,0.03,0.07,0.05,0.11
			c0.08-0.04,0.08-0.12,0.11-0.18c1.04-2.72,2.08-5.43,3.12-8.15c0.06-0.16,0.14-0.23,0.32-0.23c1.28,0.01,2.57,0.01,3.85,0.01
			C351.92,31.04,351.92,31.05,351.92,31.06z"/>
		<path class="st3" d="M314.61,46.52c-0.87-0.12-1.37-0.76-1.88-1.37c-1.06-1.29-1.69-2.77-1.89-4.42c-0.2-1.65,0.03-3.25,0.71-4.78
			c0.46-1.05,1.1-1.97,1.93-2.76c1.45-1.38,3.16-2.21,5.15-2.43c2.47-0.27,4.67,0.41,6.59,1.97c1.73,1.41,2.78,3.25,3.11,5.46
			c0.38,2.54-0.24,4.84-1.8,6.88c-0.16,0.2-0.33,0.39-0.5,0.58c-0.38,0.44-0.83,0.79-1.43,0.87c-0.12,0-0.23,0-0.35,0
			c-0.33-0.07-0.64-0.18-0.91-0.38c-2.06-1.53-4.75-1.67-6.94-0.35c-0.44,0.27-0.83,0.64-1.36,0.73
			C314.89,46.52,314.75,46.52,314.61,46.52z M319.68,43.98c0.75,0.03,1.48-0.13,2.14-0.52c1.31-0.77,2.07-1.91,2.2-3.44
			c0.13-1.5-0.26-2.83-1.39-3.87c-1.04-0.95-2.28-1.36-3.68-1.12c-2.32,0.4-4.02,2.51-3.67,5.13
			C315.59,42.49,317.63,44.08,319.68,43.98z"/>
		<path class="st3" d="M219.03,46.52c-0.43-0.06-0.87-0.09-1.29-0.21c-3.11-0.86-5.02-2.88-5.64-6.03c-0.41-2.08-0.09-4.1,0.97-5.96
			c1.17-2.04,2.93-3.26,5.28-3.57c1.33-0.18,2.61-0.01,3.84,0.55c1.4,0.64,2.45,1.66,3.2,2.98c0.61,1.07,0.95,2.23,1.05,3.45
			c0.04,0.55,0.05,1.09,0,1.63c-0.03,0.29-0.03,0.3-0.32,0.3c-3.28,0-6.56,0-9.85,0c-0.39,0-0.39,0-0.32,0.38
			c0.32,1.66,1.83,3,3.5,3.12c1.57,0.11,2.91-0.42,4.03-1.51c0.04-0.04,0.08-0.07,0.11-0.11c0.09-0.12,0.17-0.11,0.28,0
			c0.7,0.7,1.39,1.4,2.1,2.1c0.11,0.11,0.1,0.18,0,0.28c-1.39,1.42-3.05,2.29-5.02,2.53c-0.22,0.03-0.43,0.04-0.65,0.07
			C219.88,46.52,219.46,46.52,219.03,46.52z M219.21,36.64c0.95,0,1.9,0,2.85,0c0.22,0,0.23-0.01,0.19-0.23
			c-0.24-1.33-1.45-2.37-2.8-2.41c-1.52-0.04-2.85,0.94-3.27,2.41c-0.06,0.21-0.04,0.23,0.18,0.23
			C217.31,36.64,218.26,36.64,219.21,36.64z"/>
		<path class="st3" d="M285.51,46.52c-0.37-0.05-0.74-0.07-1.1-0.14c-1.5-0.3-2.82-0.96-3.9-2.04c-1.27-1.27-2.04-2.79-2.21-4.59
			c-0.19-2.05,0.14-4,1.27-5.76c1.19-1.85,2.88-2.95,5.07-3.24c1.89-0.25,3.62,0.16,5.14,1.33c1.56,1.2,2.46,2.81,2.84,4.73
			c0.17,0.86,0.21,1.73,0.09,2.6c-0.03,0.21-0.12,0.26-0.31,0.26c-3.29,0-6.58,0-9.87,0c-0.34,0-0.34,0-0.28,0.33
			c0.28,1.56,1.6,2.89,3.17,3.13c1.69,0.26,3.14-0.27,4.37-1.43c0.29-0.27,0.28-0.28,0.56,0c0.62,0.64,1.24,1.28,1.87,1.92
			c0.12,0.12,0.13,0.2,0,0.33c-1.37,1.41-3.03,2.24-4.98,2.51c-0.27,0.04-0.53,0.05-0.8,0.08
			C286.13,46.52,285.82,46.52,285.51,46.52z M285.46,36.64c0.94,0,1.87,0,2.81,0c0.28,0,0.28,0,0.22-0.28
			c-0.37-1.61-1.95-2.53-3.34-2.33c-1.26,0.18-2.4,1.16-2.72,2.39c-0.05,0.2-0.04,0.22,0.18,0.22
			C283.56,36.64,284.51,36.64,285.46,36.64z"/>
		<path class="st3" d="M270.52,46.52c-0.38-0.05-0.76-0.07-1.14-0.14c-3.13-0.58-5.87-3.08-6.39-6.58c-0.64-4.3,2.25-8.32,6.57-8.98
			c3.02-0.46,5.52,0.55,7.52,2.83c0.12,0.13,0.05,0.19-0.04,0.27c-0.84,0.73-1.68,1.45-2.52,2.18c-0.19,0.16-0.18,0.17-0.34-0.02
			c-0.68-0.84-1.55-1.37-2.62-1.57c-2.27-0.43-4.48,1.19-4.77,3.48c-0.17,1.37,0.18,2.58,1.18,3.55c0.91,0.87,2.02,1.22,3.27,1.08
			c1.32-0.14,2.36-0.77,3.15-1.83c0.09-0.12,0.16-0.13,0.28-0.04c0.95,0.74,1.91,1.48,2.87,2.21c0.12,0.09,0.11,0.16,0.03,0.27
			c-1.3,1.74-3.03,2.8-5.17,3.17c-0.28,0.05-0.56,0.07-0.84,0.11C271.22,46.52,270.87,46.52,270.52,46.52z"/>
		<path class="st3" d="M205,46.52c-0.35-0.03-0.7-0.06-1.05-0.11c-1.68-0.22-3.21-0.82-4.6-1.79c-0.16-0.11-0.19-0.23-0.08-0.39
			c0.58-0.86,1.16-1.72,1.74-2.59c0.1-0.15,0.18-0.06,0.26,0.01c0.73,0.59,1.56,1,2.47,1.21c0.68,0.16,1.38,0.25,2.08,0.1
			c0.37-0.08,0.71-0.22,0.98-0.5c0.4-0.41,0.41-0.98,0.01-1.4c-0.29-0.3-0.65-0.48-1.02-0.63c-0.89-0.38-1.83-0.63-2.73-1
			c-0.85-0.35-1.65-0.77-2.28-1.47c-0.75-0.82-1.03-1.81-0.92-2.9c0.2-2.02,1.44-3.2,3.23-3.92c1.02-0.41,2.08-0.52,3.17-0.44
			c1.53,0.11,2.94,0.55,4.25,1.36c0.01,0.01,0.02,0.01,0.03,0.02c0.25,0.16,0.25,0.16,0.09,0.4c-0.56,0.85-1.12,1.69-1.66,2.55
			c-0.1,0.16-0.18,0.16-0.33,0.06c-0.88-0.58-1.84-0.91-2.9-0.89c-0.51,0.01-0.99,0.13-1.41,0.44c-0.42,0.31-0.66,1,0.02,1.47
			c0.37,0.26,0.78,0.41,1.2,0.56c0.81,0.28,1.64,0.52,2.43,0.86c0.7,0.3,1.36,0.66,1.93,1.17c0.72,0.65,1.14,1.46,1.27,2.42
			c0.31,2.31-0.99,3.9-2.81,4.72c-0.88,0.4-1.8,0.6-2.76,0.64c-0.05,0-0.1,0.02-0.15,0.03C205.31,46.52,205.16,46.52,205,46.52z"/>
		<path class="st3" d="M259.38,23.93c0.74,0.19,1.33,0.58,1.73,1.24c0.94,1.55-0.05,3.67-1.84,3.93c-1.56,0.23-2.96-0.91-3.05-2.48
			c-0.07-1.18,0.79-2.33,2-2.65c0.06-0.01,0.11-0.03,0.17-0.05C258.72,23.93,259.05,23.93,259.38,23.93z"/>
		<path class="st3" d="M351.92,46.21c-0.39,0.02-0.39,0.02-0.39-0.37c0-0.2,0-0.4-0.04-0.62c-0.1,0.16-0.21,0.32-0.31,0.48
			c-0.15,0.23-0.35,0.23-0.49,0c-0.1-0.16-0.2-0.32-0.33-0.47c0,0.25-0.01,0.51,0,0.76c0.01,0.16-0.05,0.21-0.21,0.22
			c-0.17,0-0.2-0.07-0.2-0.22c0.01-0.51,0-1.03,0-1.54c0-0.08-0.03-0.18,0.08-0.21c0.11-0.03,0.21-0.02,0.28,0.1
			c0.18,0.29,0.37,0.59,0.56,0.88c0.02,0.03,0.04,0.06,0.08,0.11c0.18-0.3,0.36-0.57,0.51-0.86c0.11-0.21,0.25-0.28,0.46-0.23
			C351.92,44.9,351.92,45.56,351.92,46.21z"/>
		<path class="st3" d="M294.26,38.6c0-2.42,0-4.84,0-7.26c0-0.32,0-0.32,0.31-0.32c1.14,0,2.27,0,3.41,0c0.19,0,0.27,0.06,0.25,0.25
			c-0.01,0.22-0.01,0.44,0,0.65c0,0.07-0.04,0.16,0.03,0.2c0.07,0.04,0.12-0.05,0.17-0.09c0.9-0.67,1.9-1.1,3-1.27
			c1.99-0.3,3.77,0.22,5.34,1.46c1.39,1.1,2.14,2.56,2.37,4.3c0.09,0.66,0.12,1.32,0.12,1.98c0,2.47,0,4.94,0,7.42
			c0,0.29,0,0.29-0.28,0.29c-1.18,0-2.36,0-3.54,0c-0.28,0-0.28,0-0.28-0.27c0-2.73,0-5.46,0.01-8.19c0-0.67-0.16-1.29-0.48-1.88
			c-0.43-0.78-1.12-1.19-1.96-1.32c-1.38-0.22-2.61,0.18-3.67,1.07c-0.68,0.56-0.67,0.58-0.67,1.45c0,2.94,0,5.88,0,8.82
			c0,0.32,0,0.32-0.32,0.32c-1.18,0-2.36,0-3.54,0c-0.26,0-0.27-0.01-0.27-0.27C294.26,43.5,294.26,41.05,294.26,38.6z"/>
		<path class="st3" d="M247.17,40.2c0.2-0.44,0.38-0.82,0.55-1.22c1.16-2.58,2.31-5.15,3.47-7.73c0.08-0.17,0.17-0.24,0.36-0.24
			c1.25,0.01,2.49,0,3.74,0c0.24,0,0.24,0,0.15,0.22c-1.53,3.35-3.06,6.69-4.59,10.04c-0.72,1.58-1.44,3.15-2.16,4.73
			c-0.07,0.16-0.16,0.22-0.33,0.22c-0.79-0.01-1.58-0.01-2.37,0c-0.16,0-0.24-0.05-0.3-0.2c-1.16-2.55-2.33-5.1-3.5-7.66
			c-1.01-2.2-2.01-4.39-3.02-6.59c-0.08-0.18-0.17-0.36-0.25-0.54c-0.09-0.2-0.08-0.22,0.14-0.22c0.57,0,1.13,0,1.7,0
			c0.7,0,1.4,0,2.1,0c0.15,0,0.23,0.05,0.29,0.19c1.2,2.67,2.39,5.34,3.59,8.02C246.87,39.53,247.01,39.84,247.17,40.2z"/>
		<path class="st3" d="M228.16,38.62c0-2.43,0-4.87,0-7.3c0-0.3,0-0.3,0.3-0.3c1.11,0,2.22,0,3.33,0c0.3,0,0.3,0,0.3,0.31
			c0,0.27,0,0.54,0,0.81c0,0.05-0.02,0.11,0.03,0.14c0.05,0.02,0.09-0.03,0.13-0.06c0.93-0.69,1.96-1.14,3.11-1.29
			c0.65-0.09,1.3-0.09,1.96-0.02c0.14,0.02,0.21,0.07,0.21,0.23c-0.01,1.18,0,2.36,0,3.55c0,0.16-0.05,0.17-0.19,0.14
			c-1.91-0.47-3.55,0.01-4.89,1.46c-0.12,0.13-0.17,0.28-0.17,0.47c0.01,3.05,0,6.1,0,9.15c0,0.31,0,0.31-0.3,0.31
			c-1.19,0-2.38,0-3.56,0c-0.25,0-0.26-0.01-0.26-0.26C228.16,43.51,228.16,41.06,228.16,38.62z"/>
		<path class="st3" d="M256.87,38.62c0-2.43,0-4.87,0-7.3c0-0.3,0-0.3,0.29-0.3c1.17,0,2.35,0,3.52,0c0.19,0,0.25,0.06,0.25,0.25
			c0,4.9,0,9.8,0,14.7c0,0.25,0,0.25-0.26,0.25c-1.18,0-2.36,0-3.54,0c-0.25,0-0.26-0.01-0.26-0.26
			C256.87,43.51,256.87,41.06,256.87,38.62z"/>
		<path class="st3" d="M348.76,45.39c0-0.19-0.01-0.39,0-0.58c0.01-0.17-0.05-0.23-0.22-0.22c-0.09,0-0.22,0.05-0.25-0.1
			c-0.04-0.18,0.01-0.25,0.2-0.25c0.35,0,0.69,0,1.04,0c0.13,0,0.2,0.03,0.2,0.18c0,0.15-0.08,0.19-0.21,0.18c-0.04,0-0.09,0-0.13,0
			c-0.15-0.02-0.2,0.05-0.2,0.2c0.01,0.4,0,0.81,0,1.21c0,0.16-0.06,0.21-0.22,0.21c-0.15,0-0.23-0.05-0.22-0.21
			C348.76,45.81,348.76,45.6,348.76,45.39z"/>
	</g>
	<path class="st0" d="M276.44,61.98c-18.9,0-34.22,15.32-34.22,34.22c0,18.9,15.32,34.22,34.22,34.22
		c18.9,0,34.22-15.32,34.22-34.22C310.66,77.3,295.34,61.98,276.44,61.98z M276.44,121.54c-14,0-25.34-11.35-25.34-25.34
		s11.35-25.34,25.34-25.34c14,0,25.34,11.35,25.34,25.34S290.44,121.54,276.44,121.54z"/>
	<path class="st1" d="M276.44,66.42c-16.45,0-29.78,13.33-29.78,29.78c0,16.45,13.33,29.78,29.78,29.78
		c16.45,0,29.78-13.33,29.78-29.78C306.22,79.75,292.89,66.42,276.44,66.42z M276.44,118.26c-12.18,0-22.06-9.88-22.06-22.06
		s9.88-22.06,22.06-22.06s22.06,9.88,22.06,22.06S288.63,118.26,276.44,118.26z"/>
</g>
<g>
	<g>
		<g>
			<path class="st3" d="M775.05,32.32l-8.8,1.6v19.8l-23.1-3l9.5,11.3v-4.7l13.6,4.7l8.7-7.3"/>
			<path class="st3" d="M765.75,34.12c-1.7-1.3-10.9-8.1-10.9-8.1v3.7l-12.3,4.9l-3.5,4.6v10l3.8,1.2v-12L765.75,34.12z"/>
		</g>
		<g>
			<path class="st4" d="M803.55,50.82h-1.8l-1.5-4h-6l-1.4,4h-1.8l5.4-14.1h1.7L803.55,50.82z M799.75,45.42l-2.2-6
				c-0.1-0.2-0.1-0.5-0.2-0.9l0,0c-0.1,0.4-0.1,0.7-0.2,0.9l-2.2,6H799.75z"/>
			<path class="st4" d="M812.35,41.22l-6,8.2h5.9v1.4h-8.3v-0.5l6-8.2h-5.4v-1.4h7.8V41.22z"/>
			<path class="st4" d="M822.45,50.82h-1.6v-1.6l0,0c-0.7,1.2-1.7,1.8-3.1,1.8c-2.4,0-3.6-1.4-3.6-4.3v-6h1.6v5.8
				c0,2.1,0.8,3.2,2.4,3.2c0.8,0,1.4-0.3,1.9-0.9c0.5-0.6,0.8-1.3,0.8-2.3v-5.8h1.6L822.45,50.82L822.45,50.82z"/>
			<path class="st4" d="M830.85,42.42c-0.3-0.2-0.7-0.3-1.2-0.3c-0.7,0-1.3,0.3-1.7,1c-0.5,0.7-0.7,1.5-0.7,2.7v5.1h-1.6v-10.2h1.6
				v2.1l0,0c0.2-0.7,0.6-1.3,1.1-1.7s1-0.6,1.6-0.6c0.4,0,0.7,0,1,0.1L830.85,42.42L830.85,42.42z"/>
			<path class="st4" d="M840.55,46.22h-7.1c0,1.1,0.3,2,0.9,2.6c0.6,0.6,1.4,0.9,2.4,0.9c1.1,0,2.2-0.4,3.1-1.1v1.5
				c-0.9,0.6-2.1,1-3.5,1s-2.5-0.5-3.4-1.4c-0.8-0.9-1.2-2.2-1.2-3.9c0-1.6,0.4-2.8,1.3-3.8c0.9-1,2-1.5,3.3-1.5s2.3,0.4,3.1,1.3
				c0.7,0.9,1.1,2,1.1,3.6L840.55,46.22L840.55,46.22z M838.85,44.82c0-0.9-0.2-1.7-0.7-2.2c-0.4-0.5-1.1-0.8-1.8-0.8
				c-0.8,0-1.4,0.3-1.9,0.8s-0.9,1.3-1,2.1h5.4V44.82z"/>
			<path class="st4" d="M848.45,50.82v-14.1h3.9c5,0,7.5,2.3,7.5,6.9c0,2.2-0.7,3.9-2.1,5.3c-1.4,1.3-3.2,2-5.5,2h-3.8V50.82z
				 M850.15,38.22v11.1h2.1c1.9,0,3.3-0.5,4.3-1.5s1.5-2.4,1.5-4.2c0-3.6-1.9-5.4-5.8-5.4C852.25,38.22,850.15,38.22,850.15,38.22z"
				/>
			<path class="st4" d="M870.35,46.22h-7.1c0,1.1,0.3,2,0.9,2.6c0.6,0.6,1.4,0.9,2.4,0.9c1.1,0,2.2-0.4,3.1-1.1v1.5
				c-0.9,0.6-2.1,1-3.5,1s-2.5-0.5-3.4-1.4c-0.8-0.9-1.2-2.2-1.2-3.9c0-1.6,0.4-2.8,1.3-3.8c0.9-1,2-1.5,3.3-1.5s2.3,0.4,3.1,1.3
				c0.7,0.9,1.1,2,1.1,3.6L870.35,46.22L870.35,46.22z M868.65,44.82c0-0.9-0.2-1.7-0.7-2.2c-0.4-0.5-1.1-0.8-1.8-0.8
				c-0.8,0-1.4,0.3-1.9,0.8s-0.9,1.3-1,2.1h5.4V44.82z"/>
			<path class="st4" d="M880.55,40.72l-4,10.1h-1.6l-3.8-10.1h1.8l2.6,7.3c0.2,0.5,0.3,1,0.4,1.4l0,0c0.1-0.5,0.2-1,0.3-1.4l2.7-7.4
				h1.6V40.72z"/>
			<path class="st4" d="M888.15,51.02c-2,0-3.6-0.7-4.8-2s-1.8-3-1.8-5.2c0-2.3,0.6-4.1,1.8-5.4c1.2-1.4,2.9-2,5-2
				c2,0,3.5,0.7,4.7,2s1.8,3,1.8,5.2c0,2.3-0.6,4.1-1.8,5.5C891.75,50.42,890.15,51.02,888.15,51.02z M888.25,37.92
				c-1.5,0-2.7,0.5-3.6,1.6c-0.9,1.1-1.4,2.5-1.4,4.2s0.4,3.1,1.3,4.2c0.9,1.1,2.1,1.6,3.5,1.6c1.5,0,2.8-0.5,3.7-1.5
				s1.3-2.4,1.3-4.2c0-1.9-0.4-3.3-1.3-4.3C890.95,38.52,889.75,37.92,888.25,37.92z"/>
			<path class="st4" d="M898.95,49.42L898.95,49.42v6.1h-1.6v-14.8h1.6v1.8l0,0c0.8-1.3,2-2,3.5-2c1.3,0,2.3,0.5,3,1.4
				s1.1,2.1,1.1,3.6c0,1.7-0.4,3-1.2,4.1c-0.8,1-1.9,1.5-3.4,1.5C900.65,51.02,899.65,50.52,898.95,49.42z M898.85,45.32v1.4
				c0,0.8,0.3,1.5,0.8,2.1s1.2,0.9,2.1,0.9c1,0,1.7-0.4,2.3-1.1c0.6-0.7,0.8-1.8,0.8-3.1c0-1.1-0.3-2-0.8-2.6s-1.2-1-2.1-1
				c-0.9,0-1.7,0.3-2.3,1C899.15,43.52,898.85,44.32,898.85,45.32z"/>
			<path class="st4" d="M908.35,50.42v-1.7c0.9,0.7,1.8,1,2.9,1c1.4,0,2.1-0.5,2.1-1.4c0-0.3-0.1-0.5-0.2-0.7
				c-0.1-0.2-0.3-0.4-0.5-0.5s-0.4-0.3-0.7-0.4c-0.3-0.1-0.6-0.2-0.9-0.4c-0.4-0.2-0.8-0.4-1.2-0.5c-0.3-0.2-0.6-0.4-0.8-0.6
				c-0.2-0.2-0.4-0.5-0.5-0.8s-0.2-0.6-0.2-1c0-0.5,0.1-0.9,0.3-1.3c0.2-0.4,0.5-0.7,0.9-0.9s0.8-0.4,1.2-0.6
				c0.5-0.1,0.9-0.2,1.4-0.2c0.9,0,1.7,0.2,2.3,0.5v1.6c-0.7-0.5-1.6-0.7-2.6-0.7c-0.3,0-0.6,0-0.8,0.1s-0.5,0.2-0.6,0.3
				c-0.2,0.1-0.3,0.3-0.4,0.5c-0.1,0.2-0.1,0.4-0.1,0.6c0,0.3,0,0.5,0.1,0.7s0.2,0.3,0.4,0.5c0.2,0.1,0.4,0.3,0.7,0.4
				c0.3,0.1,0.6,0.2,0.9,0.4c0.4,0.2,0.8,0.3,1.2,0.5s0.7,0.4,0.9,0.6c0.2,0.2,0.4,0.5,0.6,0.8c0.1,0.3,0.2,0.6,0.2,1.1
				s-0.1,0.9-0.3,1.3c-0.2,0.4-0.5,0.7-0.9,0.9s-0.8,0.4-1.3,0.5s-1,0.2-1.5,0.2C910.05,51.02,909.15,50.82,908.35,50.42z"/>
		</g>
	</g>
	<path class="st0" d="M833.67,67.95c-14.78,0-26.76,11.98-26.76,26.76c0,14.78,11.98,26.76,26.76,26.76
		c14.78,0,26.76-11.98,26.76-26.76C860.43,79.93,848.45,67.95,833.67,67.95z M833.67,114.53c-10.95,0-19.82-8.87-19.82-19.82
		s8.87-19.82,19.82-19.82s19.82,8.87,19.82,19.82S844.62,114.53,833.67,114.53z"/>
	<path class="st1" d="M833.67,71.15c-13.01,0-23.56,10.55-23.56,23.56c0,13.01,10.55,23.56,23.56,23.56
		c13.01,0,23.56-10.55,23.56-23.56C857.23,81.7,846.68,71.15,833.67,71.15z M833.67,112.16c-9.64,0-17.45-7.81-17.45-17.45
		s7.81-17.45,17.45-17.45c9.64,0,17.45,7.81,17.45,17.45S843.31,112.16,833.67,112.16z"/>
</g>
<g>
	<g>
		<g>
			<path class="st3" d="M597.5,69.86c-1.48-1.36-2.22-3.1-2.22-5.23c0-2.14,0.74-3.88,2.2-5.23c1.48-1.36,3.34-2.04,5.57-2.04
				c1.32,0,2.52,0.26,3.62,0.8v3.54c-1.1-0.68-2.28-1.02-3.58-1.02c-1.18,0-2.16,0.38-2.94,1.12c-0.78,0.74-1.18,1.7-1.18,2.84
				c0,1.16,0.4,2.12,1.2,2.86c0.82,0.74,1.84,1.1,3.06,1.1c1.48,0,2.7-0.38,3.68-1.12v3.56c-1.14,0.58-2.42,0.88-3.84,0.88
				C600.84,71.9,598.98,71.22,597.5,69.86z"/>
		</g>
		<g>
			<path class="st3" d="M609.43,68.92V57.64h3.54v10.45c0,0.52,0.24,0.78,0.72,0.78c0.22,0,0.42-0.04,0.6-0.14v2.78
				c-0.5,0.26-1.16,0.38-1.96,0.38C610.39,71.88,609.43,70.9,609.43,68.92z"/>
		</g>
		<g>
			<path class="st3" d="M621.57,71.88c-1.66,0-3.02-0.5-4.1-1.52c-1.08-1.02-1.62-2.3-1.62-3.82c0-1.52,0.54-2.78,1.62-3.8
				c1.08-1.02,2.44-1.54,4.1-1.54s3.02,0.52,4.1,1.54c1.08,1.02,1.62,2.28,1.62,3.8c0,1.52-0.54,2.8-1.62,3.82
				C624.59,71.38,623.23,71.88,621.57,71.88z M621.57,64.23c-1.3,0-2.24,1.02-2.24,2.32c0,1.34,0.94,2.32,2.24,2.32
				c1.3,0,2.24-0.98,2.24-2.32C623.81,65.25,622.87,64.23,621.57,64.23z"/>
		</g>
		<g>
			<path class="st3" d="M629.31,67.7v-6.23h3.54v5.57c0,1.2,0.64,1.68,1.46,1.68c0.7,0,1.26-0.3,1.7-0.9v-6.35h3.54v10.15H636v-1.14
				c-0.88,0.94-1.9,1.4-3.08,1.4C630.66,71.88,629.31,70.26,629.31,67.7z"/>
		</g>
		<g>
			<path class="st3" d="M643.05,70.36c-0.88-1.02-1.32-2.3-1.32-3.82c0-1.52,0.44-2.78,1.32-3.8c0.88-1.02,1.98-1.54,3.32-1.54
				c1.3,0,2.32,0.46,3.04,1.4v-4.97h3.54v13.98h-3.54v-1.14c-0.7,0.94-1.72,1.4-3.04,1.4C645.03,71.88,643.93,71.38,643.05,70.36z
				 M649.4,67.8v-2.52c-0.46-0.72-1.12-1.08-2.02-1.08c-1.26,0-2.14,1-2.14,2.34c0,1.34,0.88,2.34,2.14,2.34
				C648.28,68.88,648.94,68.52,649.4,67.8z"/>
		</g>
	</g>
	<g>
		<g>
			<path class="st3" d="M593.95,109.77V95.79h5.57c2.28,0,4.14,0.66,5.57,1.96c1.44,1.3,2.16,2.98,2.16,5.03
				c0,2.06-0.72,3.76-2.16,5.05c-1.44,1.3-3.3,1.94-5.57,1.94H593.95z M597.55,106.62h1.72c2.72,0,4.28-1.38,4.28-3.84
				c0-2.46-1.56-3.84-4.28-3.84h-1.72V106.62z"/>
		</g>
		<g>
			<path class="st3" d="M609.97,109.09c-0.68-0.62-1.02-1.44-1.02-2.44c0.02-2.3,2.1-3.34,3.96-3.28c1.02,0,1.88,0.18,2.58,0.52
				v-0.14c0-0.72-0.3-1.2-0.84-1.38c-0.5-0.18-0.9-0.24-1.52-0.24c-1.06,0-2.06,0.24-2.96,0.74v-2.78c1.06-0.5,2.34-0.74,3.82-0.74
				c1.5,0,2.7,0.38,3.62,1.12c0.92,0.74,1.38,1.72,1.38,2.98v3.08c0,0.36,0.2,0.54,0.6,0.54c0.24,0,0.44-0.04,0.58-0.12v2.52
				c-0.44,0.34-1.04,0.52-1.8,0.52c-1.18,0-2.02-0.38-2.48-1.16c-0.82,0.8-1.9,1.2-3.24,1.2
				C611.55,110.03,610.65,109.71,609.97,109.09z M615.49,106.78v-1.06c-0.4-0.3-0.9-0.44-1.48-0.44c-0.88,0-1.58,0.48-1.58,1.22
				c0,0.72,0.62,1.16,1.42,1.16C614.57,107.66,615.11,107.36,615.49,106.78z"/>
		</g>
		<g>
			<path class="st3" d="M623.24,106.72v-4.26h-1.78v-2.84h1.78v-2.6h3.54v2.6h2.58v2.84h-2.58v3.3c0,0.88,0.32,1.22,1.18,1.22
				c0.48,0,0.94-0.12,1.4-0.36v2.82c-0.64,0.4-1.5,0.6-2.6,0.6C624.68,110.03,623.24,108.87,623.24,106.72z"/>
		</g>
		<g>
			<path class="st3" d="M631.95,109.09c-0.68-0.62-1.02-1.44-1.02-2.44c0.02-2.3,2.1-3.34,3.96-3.28c1.02,0,1.88,0.18,2.58,0.52
				v-0.14c0-0.72-0.3-1.2-0.84-1.38c-0.5-0.18-0.9-0.24-1.52-0.24c-1.06,0-2.06,0.24-2.96,0.74v-2.78c1.06-0.5,2.34-0.74,3.82-0.74
				c1.5,0,2.7,0.38,3.62,1.12s1.38,1.72,1.38,2.98v3.08c0,0.36,0.2,0.54,0.6,0.54c0.24,0,0.44-0.04,0.58-0.12v2.52
				c-0.44,0.34-1.04,0.52-1.8,0.52c-1.18,0-2.02-0.38-2.48-1.16c-0.82,0.8-1.9,1.2-3.24,1.2
				C633.53,110.03,632.63,109.71,631.95,109.09z M637.46,106.78v-1.06c-0.4-0.3-0.9-0.44-1.48-0.44c-0.88,0-1.58,0.48-1.58,1.22
				c0,0.72,0.62,1.16,1.42,1.16C636.54,107.66,637.08,107.36,637.46,106.78z"/>
		</g>
		<g>
			<path class="st3" d="M645.37,108.59c-1.1-0.96-1.66-2.26-1.66-3.92c0-1.66,0.56-2.96,1.68-3.9c1.12-0.94,2.44-1.42,3.94-1.42
				c1.12,0,2.12,0.2,3,0.62v2.96c-0.82-0.34-1.64-0.52-2.44-0.52c-1.52,0-2.7,0.86-2.7,2.28c0,1.42,1.18,2.3,2.68,2.3
				c0.98,0,1.84-0.2,2.6-0.6v2.94c-0.98,0.46-2.04,0.7-3.18,0.7C647.79,110.03,646.49,109.55,645.37,108.59z"/>
		</g>
		<g>
			<path class="st3" d="M656.02,108.59c-1.1-0.98-1.64-2.28-1.64-3.9c0-1.5,0.5-2.78,1.48-3.8c0.98-1.02,2.28-1.54,3.9-1.54
				c1.44,0,2.62,0.5,3.52,1.5c0.92,0.98,1.38,2.26,1.38,3.82v0.88h-6.79c0.3,1.06,1.5,1.58,2.96,1.58c1.1,0,2.2-0.3,3.26-0.88v2.72
				c-0.96,0.7-2.3,1.06-4.04,1.06C658.46,110.03,657.12,109.55,656.02,108.59z M661.2,103.68c-0.02-1.02-0.74-1.72-1.6-1.72
				c-0.94,0-1.62,0.66-1.76,1.72H661.2z"/>
		</g>
		<g>
			<path class="st3" d="M670.47,109.77h-3.54V99.62h3.54v1.14c0.88-0.94,1.9-1.4,3.08-1.4c2.26,0,3.62,1.62,3.62,4.18v6.23h-3.54
				v-5.57c0-1.2-0.64-1.68-1.46-1.68c-0.7,0-1.26,0.3-1.7,0.9V109.77z"/>
		</g>
		<g>
			<path class="st3" d="M680.67,106.72v-4.26h-1.78v-2.84h1.78v-2.6h3.54v2.6h2.58v2.84h-2.58v3.3c0,0.88,0.32,1.22,1.18,1.22
				c0.48,0,0.94-0.12,1.4-0.36v2.82c-0.64,0.4-1.5,0.6-2.6,0.6C682.11,110.03,680.67,108.87,680.67,106.72z"/>
		</g>
		<g>
			<path class="st3" d="M690.18,108.59c-1.1-0.98-1.64-2.28-1.64-3.9c0-1.5,0.5-2.78,1.48-3.8c0.98-1.02,2.28-1.54,3.9-1.54
				c1.44,0,2.62,0.5,3.52,1.5c0.92,0.98,1.38,2.26,1.38,3.82v0.88h-6.79c0.3,1.06,1.5,1.58,2.96,1.58c1.1,0,2.2-0.3,3.26-0.88v2.72
				c-0.96,0.7-2.3,1.06-4.04,1.06C692.62,110.03,691.28,109.55,690.18,108.59z M695.36,103.68c-0.02-1.02-0.74-1.72-1.6-1.72
				c-0.94,0-1.62,0.66-1.76,1.72H695.36z"/>
		</g>
		<g>
			<path class="st3" d="M701.09,109.77V99.62h3.54v1.66c0.24-0.46,0.68-0.9,1.3-1.3c0.64-0.42,1.32-0.62,2.04-0.62
				c0.18,0,0.34,0.02,0.44,0.04v3.42c-0.42-0.1-0.82-0.16-1.2-0.16c-1.2,0-2.18,0.5-2.58,1.22v5.89H701.09z"/>
		</g>
	</g>
	<g>
		<g>
			<path class="st3" d="M579.01,33.3v-3.68c0.58,0.54,1.38,0.98,2.4,1.36c1.02,0.38,1.98,0.56,2.88,0.56c1.42,0,2.14-0.36,2.14-1.1
				c0-0.42-0.22-0.6-0.54-0.82c-0.16-0.14-0.66-0.28-0.9-0.36l-1.26-0.38l-1.02-0.3l-0.92-0.36c-0.4-0.16-0.7-0.3-0.92-0.44
				c-0.4-0.3-1.06-0.78-1.36-1.28c-0.26-0.5-0.5-1.24-0.5-2.06c0-2.7,2.14-4.2,5.49-4.2c1.7,0,3.28,0.38,4.73,1.16v3.46
				c-0.62-0.38-1.36-0.7-2.22-0.96s-1.68-0.4-2.48-0.4c-1.22,0-1.84,0.3-1.84,0.92c0,0.26,0.16,0.46,0.58,0.64l0.64,0.22
				c0.42,0.14,1.34,0.38,1.92,0.56c1.34,0.44,2.4,1,3.16,1.66c0.76,0.66,1.14,1.6,1.14,2.8c0,1.38-0.54,2.46-1.6,3.28
				c-1.06,0.82-2.44,1.22-4.12,1.22C582.27,34.8,580.47,34.3,579.01,33.3z"/>
		</g>
		<g>
			<path class="st3" d="M593.48,33.34c-1.1-0.98-1.64-2.28-1.64-3.9c0-1.5,0.5-2.78,1.48-3.8c0.98-1.02,2.28-1.54,3.9-1.54
				c1.44,0,2.62,0.5,3.52,1.5c0.92,0.98,1.38,2.26,1.38,3.82v0.88h-6.79c0.3,1.06,1.5,1.58,2.96,1.58c1.1,0,2.2-0.3,3.26-0.88v2.72
				c-0.96,0.7-2.3,1.06-4.04,1.06C595.92,34.78,594.58,34.3,593.48,33.34z M598.65,28.43c-0.02-1.02-0.74-1.72-1.6-1.72
				c-0.94,0-1.62,0.66-1.76,1.72H598.65z"/>
		</g>
		<g>
			<path class="st3" d="M604.39,34.52V24.37h3.54v1.66c0.24-0.46,0.68-0.9,1.3-1.3c0.64-0.42,1.32-0.62,2.04-0.62
				c0.18,0,0.34,0.02,0.44,0.04v3.42c-0.42-0.1-0.82-0.16-1.2-0.16c-1.2,0-2.18,0.5-2.58,1.22v5.89H604.39z"/>
		</g>
		<g>
			<path class="st3" d="M617.03,34.6l-4.3-10.23h3.76l2.2,5.83l2.2-5.83h3.64l-4.3,10.23H617.03z"/>
		</g>
		<g>
			<path class="st3" d="M627.26,33.34c-1.1-0.98-1.64-2.28-1.64-3.9c0-1.5,0.5-2.78,1.48-3.8c0.98-1.02,2.28-1.54,3.9-1.54
				c1.44,0,2.62,0.5,3.52,1.5c0.92,0.98,1.38,2.26,1.38,3.82v0.88h-6.79c0.3,1.06,1.5,1.58,2.96,1.58c1.1,0,2.2-0.3,3.26-0.88v2.72
				c-0.96,0.7-2.3,1.06-4.04,1.06C629.7,34.78,628.36,34.3,627.26,33.34z M632.43,28.43c-0.02-1.02-0.74-1.72-1.6-1.72
				c-0.94,0-1.62,0.66-1.76,1.72H632.43z"/>
		</g>
		<g>
			<path class="st3" d="M638.17,34.52V24.37h3.54v1.66c0.24-0.46,0.68-0.9,1.3-1.3c0.64-0.42,1.32-0.62,2.04-0.62
				c0.18,0,0.34,0.02,0.44,0.04v3.42c-0.42-0.1-0.82-0.16-1.2-0.16c-1.2,0-2.18,0.5-2.58,1.22v5.89H638.17z"/>
		</g>
	</g>
	<g>
		<g id="Jira_2_">
			<g>
				<path class="st3" d="M508.31,64.81h3.91v19.84c0,5.25-2.3,8.88-7.69,8.88c-1.59,0.02-3.18-0.23-4.69-0.74v-3.8
					c1.29,0.5,2.66,0.75,4.04,0.74c3.3,0,4.44-1.97,4.44-4.82L508.31,64.81z"/>
			</g>
			<g>
				<g>
					<path class="st3" d="M519.34,63.29c1.34-0.1,2.51,0.91,2.6,2.26c0.01,0.12,0.01,0.23,0,0.35c0,1.44-1.16,2.61-2.6,2.61
						c-1.44,0-2.61-1.16-2.61-2.6c0,0,0,0,0,0c-0.1-1.34,0.91-2.51,2.26-2.6C519.11,63.28,519.22,63.28,519.34,63.29z M517.42,71.62
						h3.73v21.71h-3.73V71.62z"/>
				</g>
			</g>
			<g>
				<path class="st3" d="M526.79,71.62h3.65v3.82c1.26-2.56,3.45-4.39,7.69-4.12v3.65c-4.78-0.49-7.69,0.96-7.69,5.55v12.83h-3.65
					V71.62z"/>
			</g>
			<g>
				<g>
					<path class="st3" d="M555.63,89.42c-1.39,2.87-4,4.34-7.34,4.34c-5.77,0-8.68-4.9-8.68-11.29c0-6.12,3.04-11.29,9.12-11.29
						c3.17,0,5.6,1.43,6.91,4.25v-3.82h3.71v21.71h-3.73L555.63,89.42z M549.29,90.29c3.34,0,6.34-2.13,6.34-6.95v-1.74
						c0-4.82-2.73-6.95-5.92-6.95c-4.21,0-6.38,2.78-6.38,7.81C543.34,87.68,545.43,90.29,549.29,90.29L549.29,90.29z"/>
				</g>
			</g>
			<g>
				<path class="st3" d="M488.71,61.36h-17.06c0,4.25,3.45,7.7,7.7,7.7l0,0h3.14v3.03c0,4.25,3.45,7.69,7.7,7.7V62.84
					C490.19,62.02,489.53,61.36,488.71,61.36z"/>
			</g>
			<defs>
				<filter id="Adobe_OpacityMaskFilter" filterUnits="userSpaceOnUse" x="463.21" y="69.86" width="18.54" height="18.43">
					<feFlood  style="flood-color:white;flood-opacity:1" result="back"/>
					<feBlend  in="SourceGraphic" in2="back" mode="normal"/>
				</filter>
			</defs>
			<mask maskUnits="userSpaceOnUse" x="463.21" y="69.86" width="18.54" height="18.43" id="SVGID_1_">
				<g class="st5">
					<defs>
						<filter id="Adobe_OpacityMaskFilter_1_" filterUnits="userSpaceOnUse" x="463.21" y="69.86" width="18.54" height="18.43">
							<feFlood  style="flood-color:white;flood-opacity:1" result="back"/>
							<feBlend  in="SourceGraphic" in2="back" mode="normal"/>
						</filter>
					</defs>
					<mask maskUnits="userSpaceOnUse" x="463.21" y="69.86" width="18.54" height="18.43" id="SVGID_1_">
						<g class="st6">
						</g>
					</mask>
					
						<linearGradient id="SVGID_2_" gradientUnits="userSpaceOnUse" x1="481.3837" y1="213.9847" x2="474.1268" y2="206.5008" gradientTransform="matrix(1 0 0 -1 0 283.871)">
						<stop  offset="0" style="stop-color:#666666"/>
						<stop  offset="1" style="stop-color:#FFFFFF"/>
					</linearGradient>
					<path class="st7" d="M480.27,69.86h-17.06c0,4.25,3.45,7.69,7.7,7.7h3.14v3.04c0.01,4.25,3.45,7.69,7.7,7.69V71.34
						C481.75,70.52,481.08,69.86,480.27,69.86z"/>
				</g>
			</mask>
			<g>
				<g>
					<defs>
						<path id="SVGID_3_" d="M480.27,69.86h-17.06c0,4.25,3.45,7.69,7.7,7.7h3.14v3.04c0.01,4.25,3.45,7.69,7.7,7.69V71.34
							C481.75,70.52,481.08,69.86,480.27,69.86z"/>
					</defs>
					<clipPath id="SVGID_4_">
						<use xlink:href="#SVGID_3_"  style="overflow:visible;"/>
					</clipPath>
					<polygon class="st8" points="481.75,70.24 481.35,69.86 481.75,69.86 					"/>
					<polygon class="st8" points="481.75,84.76 466.38,69.86 481.35,69.86 481.75,70.24 					"/>
					<polygon class="st8" points="466.38,69.86 481.75,84.76 481.75,88.29 463.21,88.29 463.21,69.86 					"/>
				</g>
			</g>
			<defs>
				<filter id="Adobe_OpacityMaskFilter_2_" filterUnits="userSpaceOnUse" x="454.76" y="78.35" width="18.54" height="18.43">
					<feFlood  style="flood-color:white;flood-opacity:1" result="back"/>
					<feBlend  in="SourceGraphic" in2="back" mode="normal"/>
				</filter>
			</defs>
			<mask maskUnits="userSpaceOnUse" x="454.76" y="78.35" width="18.54" height="18.43" id="SVGID_5_">
				<g class="st9">
					<defs>
						<filter id="Adobe_OpacityMaskFilter_3_" filterUnits="userSpaceOnUse" x="454.76" y="78.35" width="18.54" height="18.43">
							<feFlood  style="flood-color:white;flood-opacity:1" result="back"/>
							<feBlend  in="SourceGraphic" in2="back" mode="normal"/>
						</filter>
					</defs>
					<mask maskUnits="userSpaceOnUse" x="454.76" y="78.35" width="18.54" height="18.43" id="SVGID_5_">
						<g class="st10">
						</g>
					</mask>
					
						<linearGradient id="SVGID_6_" gradientUnits="userSpaceOnUse" x1="473.4239" y1="205.4376" x2="465.0323" y2="197.2778" gradientTransform="matrix(1 0 0 -1 0 283.871)">
						<stop  offset="0" style="stop-color:#666666"/>
						<stop  offset="1" style="stop-color:#FFFFFF"/>
					</linearGradient>
					<path class="st11" d="M471.82,78.35h-17.06c0,4.25,3.45,7.7,7.7,7.7l0,0h3.15v3.03c0,4.25,3.44,7.69,7.69,7.7V79.83
						C473.3,79.01,472.64,78.35,471.82,78.35z"/>
				</g>
			</mask>
			<g>
				<g>
					<defs>
						<path id="SVGID_7_" d="M471.82,78.35h-17.06c0,4.25,3.45,7.7,7.7,7.7l0,0h3.15v3.03c0,4.25,3.44,7.69,7.69,7.7V79.83
							C473.3,79.01,472.64,78.35,471.82,78.35z"/>
					</defs>
					<clipPath id="SVGID_8_">
						<use xlink:href="#SVGID_7_"  style="overflow:visible;"/>
					</clipPath>
					<polygon class="st12" points="473.3,95.1 457.02,78.35 473.3,78.35 					"/>
					<polygon class="st12" points="457.02,78.35 473.3,95.1 473.3,96.78 454.76,96.78 454.76,78.35 					"/>
				</g>
			</g>
		</g>
		<path class="st0" d="M508.47,0c-43.27,0-78.35,35.08-78.35,78.35s35.08,78.35,78.35,78.35s78.35-35.08,78.35-78.35
			S551.75,0,508.47,0z M508.47,146.3c-37.53,0-67.95-30.42-67.95-67.95c0-37.53,30.42-67.95,67.95-67.95s67.95,30.42,67.95,67.95
			C576.42,115.88,546,146.3,508.47,146.3z"/>
		<path class="st1" d="M508.47,4.69c-40.64,0-73.58,32.94-73.58,73.58s32.94,73.58,73.58,73.58s73.58-32.94,73.58-73.58
			S549.11,4.69,508.47,4.69z M508.47,142.07c-35.24,0-63.81-28.57-63.81-63.81c0-35.24,28.57-63.81,63.81-63.81
			s63.81,28.57,63.81,63.81C572.28,113.5,543.71,142.07,508.47,142.07z"/>
	</g>
	<circle class="st3" cx="561.47" cy="30.68" r="9.56"/>
	<circle class="st3" cx="577.5" cy="64.63" r="9.56"/>
	<circle class="st3" cx="574.51" cy="102.91" r="9.56"/>
</g>
<line class="st13" x1="291.7" y1="192.88" x2="125.7" y2="95.88"/>
<line class="st13" x1="446.7" y1="121.88" x2="388.7" y2="173.88"/>
<line class="st13" x1="570.7" y1="121.88" x2="688.2" y2="179.38"/>
<line class="st13" x1="820.2" y1="116.38" x2="778.2" y2="181.38"/>
<line class="st13" x1="287.7" y1="226.88" x2="132.7" y2="226.88"/>
<line class="st13" x1="309.2" y1="95.38" x2="433.2" y2="95.38"/>
<g>

	<line class="st15 str-anim" x1="446.7" y1="121.88" x2="388.7" y2="173.88"/>

	<line class="st16 str-anim" x1="570.7" y1="121.88" x2="688.2" y2="179.38"/>

	<line class="st17 str-anim" x1="820.2" y1="116.38" x2="778.2" y2="181.38"/>
	
	<line class="st18 str-anim" x1="287.7" y1="226.88" x2="132.7" y2="226.88"/>
	
	<line class="st19 str-anim" x1="309.2" y1="95.38" x2="433.2" y2="95.38"/>

	<line class="st20 str-anim" x1="291.7" y1="192.88" x2="125.7" y2="95.88"/>

</g>
</svg>
