<svg xmlns="http://www.w3.org/2000/svg" xmlns:xlink="http://www.w3.org/1999/xlink" viewBox="0 0 233.21 186.6"><defs><style>.cls-1{isolation:isolate;}.cls-2{fill:#0065ff;}.cls-3{fill:url(#linear-gradient);}.cls-4{fill:#c1c7d0;}.cls-5{fill:#ffab00;}.cls-6{fill:#f4f5f7;}.cls-11,.cls-7,.cls-9{mix-blend-mode:multiply;}.cls-7{fill:url(#linear-gradient-2);}.cls-8{fill:url(#linear-gradient-3);}.cls-9{fill:url(#linear-gradient-4);}.cls-10{fill:#253858;}.cls-11{fill:url(#linear-gradient-5);}.cls-12{fill:#fafbfc;}.cls-13{fill:url(#linear-gradient-6);}</style><linearGradient id="linear-gradient" x1="-125.4" y1="108.93" x2="-44.02" y2="27.56" gradientTransform="translate(134.58 46.95) rotate(-3)" gradientUnits="userSpaceOnUse"><stop offset="0.1" stop-color="#dfe1e5"/><stop offset="1" stop-color="#f0f2f5" stop-opacity="0.6"/></linearGradient><linearGradient id="linear-gradient-2" x1="78.85" y1="130.99" x2="78.85" y2="10.37" gradientUnits="userSpaceOnUse"><stop offset="0" stop-color="#f0f2f5"/><stop offset="0.31" stop-color="#dce0e6"/><stop offset="0.72" stop-color="#c8ced6"/><stop offset="1" stop-color="#c1c7d0"/></linearGradient><linearGradient id="linear-gradient-3" x1="65.14" y1="113.78" x2="160.97" y2="17.95" gradientUnits="userSpaceOnUse"><stop offset="0.26" stop-color="#c1c7d0"/><stop offset="0.89" stop-color="#f0f2f5"/></linearGradient><linearGradient id="linear-gradient-4" x1="110.59" y1="150.87" x2="178.82" y2="82.64" gradientUnits="userSpaceOnUse"><stop offset="0" stop-color="#f0f2f5"/><stop offset="0.27" stop-color="#eaecf0"/><stop offset="0.64" stop-color="#d8dce2"/><stop offset="1" stop-color="#c1c7d0"/></linearGradient><linearGradient id="linear-gradient-5" x1="137.03" y1="28.21" x2="160.43" y2="4.81" gradientUnits="userSpaceOnUse"><stop offset="0" stop-color="#fafbfc"/><stop offset="0.28" stop-color="#eff1f3"/><stop offset="0.77" stop-color="#d1d6dd"/><stop offset="1" stop-color="#c1c7d0"/></linearGradient><linearGradient id="linear-gradient-6" x1="147.02" y1="168.64" x2="215.26" y2="100.41" gradientTransform="translate(-41.81 99.84) rotate(-27.76)" gradientUnits="userSpaceOnUse"><stop offset="0.39" stop-color="#c1c7d0"/><stop offset="0.67" stop-color="#c2c8d1" stop-opacity="0.99"/><stop offset="0.77" stop-color="#c6cbd4" stop-opacity="0.95"/><stop offset="0.85" stop-color="#ccd1d9" stop-opacity="0.88"/><stop offset="0.91" stop-color="#d6dae0" stop-opacity="0.78"/><stop offset="0.96" stop-color="#e1e5ea" stop-opacity="0.65"/><stop offset="1" stop-color="#f0f2f5" stop-opacity="0.5"/></linearGradient></defs><title>File formats</title><g class="cls-1"><g id="Layer_2" data-name="Layer 2"><g id="Objects"><rect class="cls-2" x="35.17" y="153.43" width="29.56" height="2.48" transform="translate(-50.11 26.58) rotate(-20.1)"/><polygon id="_Path_" data-name="&lt;Path&gt;" class="cls-3" points="107.46 153.14 34.53 179.84 0 85.51 72.35 59.03 107.46 153.14"/><line class="cls-4" x1="38.06" y1="163.9" x2="95.99" y2="142.7"/><rect class="cls-5" x="36.18" y="152.06" width="61.69" height="2.48" transform="translate(-48.6 32.37) rotate(-20.1)"/><line class="cls-4" x1="39.64" y1="168.2" x2="76.67" y2="154.65"/><rect class="cls-5" x="38.43" y="160.19" width="39.44" height="2.48" transform="translate(-51.93 29.81) rotate(-20.1)"/><rect class="cls-4" x="34.6" y="147.75" width="61.69" height="2.48" transform="translate(-47.21 31.56) rotate(-20.1)"/><rect class="cls-2" x="13.75" y="94.95" width="14.73" height="2.48" transform="translate(-31.77 13.11) rotate(-20.1)"/><rect class="cls-2" x="12.17" y="90.58" width="15.17" height="2.48" transform="translate(-30.35 12.38) rotate(-20.1)"/><rect class="cls-6" x="23.82" y="98.03" width="62.13" height="45.52" transform="matrix(0.94, -0.34, 0.34, 0.94, -38.17, 26.23)"/><polygon class="cls-7" points="72.35 59.03 58.51 64.1 58.51 130.99 99.19 130.99 72.35 59.03"/><polygon id="_Path_2" data-name="&lt;Path&gt;" class="cls-8" points="165.24 22.22 165.24 120.62 71.98 120.62 71.98 0 143 0 165.22 22.22 165.24 22.22"/><polygon class="cls-9" points="132.56 120.62 165.24 120.62 165.24 94.38 150.46 86.61 132.56 120.62"/><rect class="cls-2" x="131.98" y="85.28" width="2.48" height="41.92" transform="translate(26.02 238.69) rotate(-89.59)"/><rect class="cls-2" x="83.05" y="105.15" width="12.81" height="2.48"/><circle class="cls-10" cx="104.14" cy="106.08" r="6.25"/><path class="cls-5" d="M111.58,45l19,10.2a1.94,1.94,0,0,1,0,3.41l-19,10.21a1.94,1.94,0,0,1-2.85-1.71V46.66A1.93,1.93,0,0,1,111.58,45Z"/><path class="cls-5" d="M117.91,83.1a26.23,26.23,0,1,1,26.23-26.23A26.26,26.26,0,0,1,117.91,83.1Zm0-50a23.76,23.76,0,1,0,23.75,23.76A23.78,23.78,0,0,0,117.91,33.11Z"/><polygon class="cls-11" points="143.02 34.2 165.24 22.22 143.02 0 143.02 34.2"/><polygon class="cls-12" points="165.24 22.22 143.02 22.22 143.02 0 165.24 22.22"/><rect class="cls-13" x="142.59" y="95.98" width="77.1" height="77.1" transform="translate(83.49 -68.88) rotate(27.76)"/><rect class="cls-12" x="148.14" y="101.52" width="66.01" height="66.01" transform="translate(384.55 36.88) rotate(117.76)"/><polygon class="cls-10" points="151.55 137.38 171.91 131.06 178.23 151.42 151.55 137.38"/><polygon class="cls-2" points="160.91 142.31 187.34 134.1 195.55 160.53 160.91 142.31"/><circle class="cls-5" cx="178.52" cy="116.4" r="4.61"/></g></g></g></svg>