<svg xmlns="http://www.w3.org/2000/svg" xmlns:xlink="http://www.w3.org/1999/xlink" viewBox="0 0 194.1919 215.1343">
  <defs>
    <style>
      .cls-1 {
        isolation: isolate;
      }

      .cls-2 {
        fill: #cfd4db;
      }

      .cls-3 {
        fill: #42526e;
      }

      .cls-4 {
        fill: #a5adba;
        mix-blend-mode: multiply;
      }

      .cls-5 {
        fill: #344563;
      }

      .cls-6 {
        fill: #cce0ff;
      }

      .cls-7 {
        fill: url(#linear-gradient);
      }

      .cls-8 {
        fill: #5e6c84;
      }

      .cls-9 {
        fill: #ffc400;
      }

      .cls-10, .cls-11 {
        fill: none;
        stroke-linecap: round;
        stroke-miterlimit: 10;
        stroke-width: 2px;
      }

      .cls-10 {
        stroke: #344563;
      }

      .cls-11 {
        stroke: #5e6c84;
      }
    </style>
    <linearGradient id="linear-gradient" x1="407.8872" y1="212.9394" x2="576.4346" y2="212.9394" gradientTransform="translate(-468.6547 54.6728) rotate(-13.7976)" gradientUnits="userSpaceOnUse">
      <stop offset="0" stop-color="#fff"/>
      <stop offset="0.6908" stop-color="#fff" stop-opacity="0.1"/>
    </linearGradient>
  </defs>
  <title>Search Error</title>
  <g class="cls-1">
    <g id="Layer_2" data-name="Layer 2">
      <g id="Objects">
        <path class="cls-2" d="M131.1125,162.4558l-9.8878-5.9888-8.3292,13.7519,9.8878,5.9888a15.603,15.603,0,0,1,5.88,6.3835h0a15.603,15.603,0,0,0,5.88,6.3835l40.1143,24.2964a12.8664,12.8664,0,0,0,17.6709-4.34h0a12.8664,12.8664,0,0,0-4.34-17.6709l-40.1143-24.2964a15.603,15.603,0,0,0-8.3812-2.2542h0A15.603,15.603,0,0,1,131.1125,162.4558Z"/>
        <path id="_Path_" data-name="&lt;Path&gt;" class="cls-3" d="M131.1125,162.4558l-3.0118-1.8242A8.0388,8.0388,0,0,0,117.06,163.343h0a8.0388,8.0388,0,0,0,2.7113,11.0405l3.0118,1.8242a15.603,15.603,0,0,1,5.88,6.3835h0a15.603,15.603,0,0,0,5.88,6.3835l40.1143,24.2964a12.8664,12.8664,0,0,0,17.6709-4.34h0a12.8664,12.8664,0,0,0-4.34-17.6709l-40.1143-24.2964a15.603,15.603,0,0,0-8.3812-2.2543h0A15.603,15.603,0,0,1,131.1125,162.4558Z"/>
        <path class="cls-4" d="M139.1437,164.7043a15.5973,15.5973,0,0,1-8.0312-2.2485l-3.0118-1.8242a8.0388,8.0388,0,1,0-8.3292,13.7518l3.0118,1.8242a15.597,15.597,0,0,1,5.7069,6.0648,67.8481,67.8481,0,0,0,10.6536-17.5681Z"/>
        <path id="_Compound_Path_" data-name="&lt;Compound Path&gt;" class="cls-5" d="M83.2537,200.0811a67.2348,67.2348,0,0,1-32.07-130.5894l.0007,0a66.7962,66.7962,0,0,1,50.8666,7.7861h0A67.2346,67.2346,0,0,1,83.2537,200.0811ZM55.0108,85.0726A51.1916,51.1916,0,1,0,93.739,91.0011h0A50.853,50.853,0,0,0,55.0108,85.0726Z"/>
        <path id="_Path_2" data-name="&lt;Path&gt;" class="cls-6" d="M23.439,108.2733a51.1908,51.1908,0,0,0,87.571,53.0407,51.1908,51.1908,0,0,0-87.571-53.0407Z"/>
        <path class="cls-7" d="M79.433,184.5071a51.2162,51.2162,0,0,0,38.9911-49.945,49.1261,49.1261,0,0,1-5.0867,2.2789c-15.7029,5.961-29.6895,2.11-36.4987.1308-20.4307-5.9389-24.79-17.3785-39.0414-24.5822a48.31,48.31,0,0,0-14.0939-4.53c-.0862.1394-.1793.2729-.2643.4134a51.1908,51.1908,0,0,0,55.994,76.2338Z"/>
        <polygon id="_Path_3" data-name="&lt;Path&gt;" class="cls-8" points="94.203 120.575 83.035 109.606 67.78 125.138 52.248 109.883 41.279 121.05 56.811 136.306 41.555 151.838 52.723 162.807 67.979 147.275 83.511 162.53 94.48 151.363 78.947 136.107 94.203 120.575"/>
        <path class="cls-9" d="M77.5751,29.402,67.4051.4513a.6746.6746,0,0,0-1.3065.1453l-3.28,28.0575-6.4848-.7582a.6746.6746,0,0,0-.7148.8936L65.7888,57.74a.6746.6746,0,0,0,1.3065-.1453l3.28-28.0575,6.4848.7582A.6746.6746,0,0,0,77.5751,29.402Z"/>
        <path class="cls-9" d="M45.5707,47.7984,32.9283,39.1672a.2965.2965,0,0,0-.4249.3916l6.9523,12.2117-2.8407,1.6173a.2965.2965,0,0,0-.02.5025l12.642,8.6312a.2965.2965,0,0,0,.4249-.3916L42.7091,49.9183,45.55,48.3009A.2965.2965,0,0,0,45.5707,47.7984Z"/>
        <path class="cls-10" d="M99.593,36.046c-.6949,2.0742-9.7432-.957-10.4381,1.1173s8.3536,5.1049,7.6589,7.1785-9.7431-.9573-10.4379,1.1166c-.6954,2.0757,8.3529,5.107,7.6575,7.1827s-9.7442-.9541-10.44,1.1231S91.9459,58.8726,91.25,60.95"/>
        <path class="cls-11" d="M120.82,59.72c-1.5982,1.4937-7.8582-5.2045-9.4564-3.7108s4.6613,8.1922,3.0627,9.6863-7.8577-5.2049-9.4555-3.7117c-.7418.6933.2075,2.5062,1.2789,4.4"/>
        <path class="cls-11" d="M16.1162,59.8606c2.1714.2657,1.0579,9.3658,3.2293,9.6315s3.2853-8.8344,5.4572-8.5687,1.0573,9.3657,3.2281,9.6313c1.0078.1233,1.7877-1.7687,2.5511-3.8063"/>
      </g>
    </g>
  </g>
</svg>
