<svg xmlns="http://www.w3.org/2000/svg" xmlns:xlink="http://www.w3.org/1999/xlink" viewBox="0 0 513.6 298.83">
  <defs>
    <style>.cls-1{fill:url(#linear-gradient);}.cls-2{isolation:isolate;}.cls-3{fill:#9c7761;}.cls-4{fill:#dfe1e5;opacity:0.5;}.cls-5{fill:#ffc400;}.cls-25,.cls-6{fill:none;stroke:#0065ff;stroke-linecap:round;stroke-miterlimit:10;}.cls-6{stroke-width:2.42px;}.cls-7{fill:url(#linear-gradient-2);}.cls-8{fill:#243759;}.cls-9{fill:#0052cc;}.cls-10{clip-path:url(#clip-path);}.cls-11{opacity:0.72;fill:url(#linear-gradient-4);}.cls-11,.cls-12{mix-blend-mode:multiply;}.cls-12{fill:url(#New_Gradient_Swatch_7);}.cls-13{fill:#ff991f;}.cls-14{fill:#a27f68;}.cls-15{fill:#2db07c;}.cls-16{fill:#00875a;}.cls-17{fill:url(#New_Gradient_Swatch_8);}.cls-18{fill:#42526e;}.cls-19{fill:#48cc8c;}.cls-20{fill:#008364;}.cls-21{fill:#64e6a4;}.cls-22{fill:#ff8b00;}.cls-23{fill:#ffab00;}.cls-24{fill:url(#linear-gradient-5);}.cls-25{stroke-width:2.34px;}.cls-26{fill:#b5917c;}.cls-27{fill:url(#linear-gradient-6);}.cls-28{fill:#a5adba;}.cls-29{fill:#f0f2f5;}.cls-30{fill:url(#linear-gradient-7);}.cls-31{fill:#253858;}.cls-32{fill:url(#linear-gradient-8);}.cls-33{fill:url(#linear-gradient-9);}.cls-34{fill:#72594b;}.cls-35{fill:url(#linear-gradient-10);}.cls-36{fill:url(#linear-gradient-11);}</style>
    <linearGradient id="linear-gradient" x1="307.53" y1="267.34" x2="479.04" y2="95.82" gradientUnits="userSpaceOnUse">
      <stop offset="0.5" stop-color="#0065ff"/>
      <stop offset="0.57" stop-color="#0468ff"/>
      <stop offset="0.65" stop-color="#106fff"/>
      <stop offset="0.73" stop-color="#247cff"/>
      <stop offset="0.8" stop-color="#418dff"/>
      <stop offset="0.88" stop-color="#65a4ff"/>
      <stop offset="0.95" stop-color="#92c0ff"/>
      <stop offset="1" stop-color="#b2d4ff"/>
    </linearGradient>
    <linearGradient id="linear-gradient-2" y1="248.46" x2="299.59" y2="248.46" gradientUnits="userSpaceOnUse">
      <stop offset="0" stop-color="#57d9a3"/>
      <stop offset="1" stop-color="#00875a"/>
    </linearGradient>
    <clipPath id="clip-path">
      <rect id="_Rectangle_" data-name="&lt;Rectangle&gt;" class="cls-1" x="333.66" y="69.69" width="119.25" height="223.78"/>
    </clipPath>
    <linearGradient id="linear-gradient-4" x1="395.47" y1="260.62" x2="482.81" y2="173.29" gradientUnits="userSpaceOnUse">
      <stop offset="0.01" stop-color="#fff" stop-opacity="0.1"/>
      <stop offset="0.16" stop-color="#fff" stop-opacity="0.1"/>
      <stop offset="0.23" stop-color="#6c798f" stop-opacity="0.13"/>
      <stop offset="0.92" stop-color="#6c798f"/>
    </linearGradient>
    <linearGradient id="New_Gradient_Swatch_7" x1="9783.85" y1="293.17" x2="9783.85" y2="165.38" gradientTransform="matrix(-1, 0, 0, 1, 10260.2, 0)" gradientUnits="userSpaceOnUse">
      <stop offset="0" stop-color="#ffc400"/>
      <stop offset="1" stop-color="#fff0b2"/>
    </linearGradient>
    <linearGradient id="New_Gradient_Swatch_8" x1="242.22" y1="103.64" x2="288.08" y2="103.64" gradientUnits="userSpaceOnUse">
      <stop offset="0" stop-color="#00875a"/>
      <stop offset="1" stop-color="#57d9a3"/>
    </linearGradient>
    <linearGradient id="linear-gradient-5" x1="252.21" y1="171.76" x2="270.91" y2="153.06" gradientUnits="userSpaceOnUse">
      <stop offset="0.27" stop-color="#00875a"/>
      <stop offset="0.33" stop-color="#02895c"/>
      <stop offset="0.69" stop-color="#048b5d"/>
      <stop offset="1" stop-color="#57d9a3"/>
    </linearGradient>
    <linearGradient id="linear-gradient-6" x1="143.25" y1="194.67" x2="169.01" y2="194.67" gradientUnits="userSpaceOnUse">
      <stop offset="0.35" stop-color="#7a869a"/>
      <stop offset="1" stop-color="#c1c7d0"/>
    </linearGradient>
    <linearGradient id="linear-gradient-7" x1="187.55" y1="166.79" x2="170.27" y2="184.07" gradientUnits="userSpaceOnUse">
      <stop offset="0" stop-color="#c1c7d0"/>
      <stop offset="0.56" stop-color="#7a869a"/>
    </linearGradient>
    <linearGradient id="linear-gradient-8" x1="354.71" y1="49.5" x2="380.22" y2="49.5" gradientUnits="userSpaceOnUse">
      <stop offset="0" stop-color="#ffc400"/>
      <stop offset="0.45" stop-color="#ff991f"/>
    </linearGradient>
    <linearGradient id="linear-gradient-9" x1="349.69" y1="31.22" x2="357.36" y2="22.41" gradientUnits="userSpaceOnUse">
      <stop offset="0" stop-color="#ffe380"/>
      <stop offset="0.3" stop-color="#ffce50"/>
      <stop offset="0.61" stop-color="#ffbb25"/>
      <stop offset="0.86" stop-color="#ffaf0a"/>
      <stop offset="1" stop-color="#ffab00"/>
    </linearGradient>
    <linearGradient id="linear-gradient-10" x1="322.78" y1="30.45" x2="353.01" y2="30.45" gradientUnits="userSpaceOnUse">
      <stop offset="0" stop-color="#ffe380"/>
      <stop offset="1" stop-color="#ffab00"/>
    </linearGradient>
    <linearGradient id="linear-gradient-11" x1="283.18" y1="275.87" x2="490.31" y2="275.87" xlink:href="#linear-gradient-2"/>
  </defs>
  <title>Overcoming Obstacles</title>
  <g class="cls-2">
    <g id="Layer_2" data-name="Layer 2">
      <g id="Layer_1-2" data-name="Layer 1">
        <path class="cls-3" d="M161.29,135s.09,2.14,0,3a7.35,7.35,0,0,1-.84,2.14s6.11,1.56,6.58,1.63,1.4-4,1.4-4L161.29,135"/>
        <path class="cls-4" d="M169.87,62.08l-9.12,7.3-8.57-7.3A10.88,10.88,0,0,1,161,65.43,9.73,9.73,0,0,1,169.87,62.08Z"/>
        <path class="cls-4" d="M193.1,71.48,184,78.78l-8.57-7.3a10.88,10.88,0,0,1,8.85,3.35A9.73,9.73,0,0,1,193.1,71.48Z"/>
        <path class="cls-5" d="M75.89,84.72c-.78-.21-1.57-.44-2.34-.69l4.34-13.31q.77.25,1.57.46ZM100,84.05,95.66,70.73q.78-.25,1.55-.55l5.06,13.05C101.51,83.53,100.74,83.8,100,84.05ZM53.68,70.41c-.51-.62-1-1.27-1.49-1.93l11.32-8.23q.48.66,1,1.29Zm67.68-1.86-11.31-8.26q.48-.66.92-1.34l11.76,7.59C122.3,67.22,121.84,67.89,121.36,68.55ZM44.1,45.78c0-.8-.07-1.62-.07-2.42l14-.14v.21c0,.48,0,1,0,1.57Zm85.46-2.28-14-.08v-.07q0-.8,0-1.59l14-.76q.06,1.16.06,2.34ZM62.65,27.72,50.91,20.1c.44-.68.9-1.35,1.38-2l11.29,8.28Q63.1,27,62.65,27.72Zm47.47-1.22q-.48-.66-1-1.3L120,16.37c.51.63,1,1.28,1.48,1.93Zm-33.66-10-5-13.06c.76-.29,1.53-.56,2.3-.81L78,16Q77.21,16.21,76.45,16.51ZM95.77,16q-.78-.25-1.57-.47L97.8,2c.78.21,1.56.44,2.33.69Z"/>
        <circle class="cls-5" cx="86.8" cy="43.36" r="17.76"/>
        <path class="cls-6" d="M253.66,136.68a186.32,186.32,0,0,0,58.42-34.8,187,187,0,0,0,47.85-65.82"/>
        <path class="cls-7" d="M27.2,272.38c12.05-13.07,13.67-21.25,23.6-24.63,12.57-4.28,17.67,6.2,29.76,3.08,17.11-4.42,14.12-27.28,35.91-40.53,1.29-.79,18-10.65,36.94-6.16,18.17,4.32,31.74,20.33,34.65,23.77,6.83,8.07,7.26,11.88,12.56,13.68,10.54,3.59,16.62-8.86,32.32-11.8,22.87-4.28,43.77,15.82,50.79,22.57,8.29,8,18.12,17.42,15.39,27.19-2.91,10.42-18.06,13.94-20,14.37H0A113.83,113.83,0,0,0,27.2,272.38Z"/>
        <rect class="cls-8" x="67.18" y="228.73" width="119.25" height="65.2"/>
        <rect class="cls-9" x="199.33" y="203.36" width="119.25" height="90.57"/>
        <rect id="_Rectangle_2" data-name="&lt;Rectangle&gt;" class="cls-1" x="333.66" y="69.69" width="119.25" height="223.78"/>
        <g class="cls-10">
          <path id="_Path_" data-name="&lt;Path&gt;" class="cls-11" d="M413.72,221.76c-1.61,7.64-5.65,6.52-8.38,14.89-5.46,16.74,6.39,34.34,11.48,41.88,7.08,10.5,13.92,20.67,23.27,20.29,11.11-.45,21.37-15.62,22.34-28.67.78-10.43-4.77-14.18-1.86-23,3.22-9.72,13-9.88,13.65-17.37.6-7-7.54-8.16-9.88-18-2.68-11.3,6.5-16.31,3.06-25.74-3-8.16-10.68-6.63-13.65-14.89-3.38-9.39,5.12-15.12,1.55-23.89-2.53-6.23-9.79-10.06-16.07-10.35-10.81-.5-20.24,9.4-21.78,18.42-1.62,9.4,6.23,15.32,2.69,22.18-3.13,6.06-10.3,3.5-13.49,9C401.58,195.3,417,206.19,413.72,221.76Z"/>
        </g>
        <path class="cls-5" d="M505.63,235.23c-5.48,6-10.54,6.54-11.17,11.14-.74,5.43,6,7.1,7.14,13,2.38,12.21-22.13,24.74-24.82,26.09-12.33,6.17-28.47,9.87-31,6.23-2.4-3.41,10.19-8.94,9.62-18.73-.66-11.25-18-15.72-16.13-24.18,1-4.73,6.56-3.9,10.24-9.78,7.06-11.28-6.72-24.86-.31-30.7,4-3.64,10.32.72,15.32-3.13,6.28-4.83-1-13.77,4.23-24.86,4.09-8.67,14.86-16.59,22.65-14.67,6.32,1.56,9.71,9.34,10.55,14.4,1.55,9.32-4.94,13.06-1.86,19.56,2.7,5.72,8.41,4.29,11.79,10.05C516.24,217.21,511.72,228.5,505.63,235.23Z"/>
        <path id="_Path_2" data-name="&lt;Path&gt;" class="cls-12" d="M505.63,235.23c-5.48,6-10.54,6.54-11.17,11.14-.74,5.43,6,7.1,7.14,13,2.38,12.21-22.13,24.74-24.82,26.09-12.33,6.17-28.47,9.87-31,6.23-2.4-3.41,10.19-8.94,9.62-18.73-.66-11.25-18-15.72-16.13-24.18,1-4.73,6.56-3.9,10.24-9.78,7.06-11.28-6.72-24.86-.31-30.7,4-3.64,10.32.72,15.32-3.13,6.28-4.83-1-13.77,4.23-24.86,4.09-8.67,14.86-16.59,22.65-14.67,6.32,1.56,9.71,9.34,10.55,14.4,1.55,9.32-4.94,13.06-1.86,19.56,2.7,5.72,8.41,4.29,11.79,10.05C516.24,217.21,511.72,228.5,505.63,235.23Z"/>
        <path class="cls-13" d="M444.44,258.2c1.11,1,2.3,2,3.47,3l-6.67-15.5a5.48,5.48,0,0,0-1.46,1.66Z"/>
        <path class="cls-13" d="M486.44,189.71l6.84-23.32a9.59,9.59,0,0,0-1.88-.7L484.57,189l-7.94-18.45q-.81.66-1.59,1.37L483.69,192l-6,20.41-10.88-25.28a29.55,29.55,0,0,0-.08,4.87l10.08,23.42L466.64,250.1l-17.09-39.72-1.84.79,18.05,41.94-8.65,29.48-2.31-5.37a14.32,14.32,0,0,1-1.1,2.49l2.53,5.89-2.15,7.32q1.05-.14,2.19-.35L458,286.8l39.73-33.7c-.47-.5-.93-1-1.35-1.48L459,283.31l8.51-29,46-39a14.54,14.54,0,0,0-.37-2.31l-44.63,37.86,10-34.2,21.12-17.92a8,8,0,0,1-.45-2.24l-19.65,16.67,5.85-19.93,16.35-13.86c-.14-.69-.32-1.41-.55-2.16Z"/>
        <path class="cls-14" d="M285,91.39c.74.71-1,4.22,3.27-.7A4.9,4.9,0,0,0,290,87.63c.15-1.84-1.48-2.44-1.11-4.13.2-.92.78-1.23.7-2.23-.05-.7-.41-1.49-.76-1.49s-.47,1-1.3,2.78-1.14,1.63-1.67,3.09c-.22.61-.29,1-.76,2.31a7.14,7.14,0,0,0-.33,1C284.68,89.53,284.42,90.81,285,91.39Z"/>
        <path class="cls-15" d="M242.23,112.22c.16-2.59,3.22-3.94,7.57-5.76,11.14-4.66,16-4.81,21.67-7.37A35.32,35.32,0,0,0,285.28,87.5l2.8,4.32a82.76,82.76,0,0,1-14.81,13.51,100,100,0,0,1-11.94,7.18c-7.77,4-11.6,4.56-14,6.78a1.46,1.46,0,0,1-1,.49C244.53,119.74,242.05,115.13,242.23,112.22Z"/>
        <path class="cls-14" d="M286.61,85l4.4-4.73a.74.74,0,0,1,1,.19c-.06.39-.08.81.14.95s.37-.08.59,0c.4.18.37,1,.36,1.28a3,3,0,0,1-.15.84l.23,1a1,1,0,0,1-.26,1l-.1,1.48c.22.5-1.48,1.87-1.53,1.93l-2.56,1.18a.74.74,0,0,1-1.28-.33l-1-4.12A.74.74,0,0,1,286.61,85Z"/>
        <path class="cls-16" d="M239.15,134.78c-.17.33-.35.72-.55,1.15a30,30,0,0,0-1.48,4.06,34.53,34.53,0,0,0-1,5.34c-.34,3.5.2,11.85,2.3,22.72l-1.74,12.08s-1.52,11.38,1.36,17.13c.31.61,1,2,2,2h0c1,0,1.9,0,2.79-.1,1.06-.08,1.61-1,1.89-2,1.19-4.33,2.88-22.49,3-28.6.12-5.71,1.28-25.73-1.19-29.18C245.72,138.13,244,135.92,239.15,134.78Z"/>
        <path class="cls-14" d="M285,91.39c.74.71-1,4.22,3.27-.7A4.9,4.9,0,0,0,290,87.63c.15-1.84-1.48-2.44-1.11-4.13.2-.92.78-1.23.7-2.23-.05-.7-.41-1.49-.76-1.49s-.47,1-1.3,2.78-1.14,1.63-1.67,3.09c-.22.61-.29,1-.76,2.31a7.14,7.14,0,0,0-.33,1C284.68,89.53,284.42,90.81,285,91.39Z"/>
        <path class="cls-17" d="M242.23,112.22c.16-2.59,3.22-3.94,7.57-5.76,11.14-4.66,16-4.81,21.67-7.37A35.32,35.32,0,0,0,285.28,87.5l2.8,4.32a82.76,82.76,0,0,1-14.81,13.51,100,100,0,0,1-11.94,7.18c-7.77,4-11.6,4.56-14,6.78a1.46,1.46,0,0,1-1,.49C244.53,119.74,242.05,115.13,242.23,112.22Z"/>
        <path class="cls-14" d="M250.79,103.13l-2.7-2.48a5.93,5.93,0,0,0-3-3.71,5.13,5.13,0,0,0-3.19-.46c-2.39.49-4.09,2.94-4.4,5.22-.55,4,3.26,6.67,3.72,7a7.4,7.4,0,0,0,5.83,1.31,7,7,0,0,0,3.68-2.32l-1.06-3.53Z"/>
        <path class="cls-18" d="M242.18,103.64c.8-.23.84-1.57,1.35-3.13.94-2.86,2.51-3.46,2.15-4.21-.54-1.15-4.9-1.35-7.39,1.12a6.75,6.75,0,0,0-1.58,6.52,7.33,7.33,0,0,0,2.5,3.6,7.62,7.62,0,0,0,2,1.15,3.69,3.69,0,0,0-.07-2c-.39-1.17-1.33-1.71-1.14-2.57a1,1,0,0,1,.33-.57C240.86,103.18,241.55,103.82,242.18,103.64Z"/>
        <path class="cls-14" d="M293.68,100.26c-.82.21-1.72-1-2.07-1.81a3.71,3.71,0,0,1,0-2.89c.54-1.19,1.35-1.07,2.45-2.52s1.14-2.67,1.53-2.65.59.94.58,1.77c0,1.55-1,1.84-1.24,3.51-.21,1.33.32,1.63-.1,2.94C294.67,99.06,294.35,100.08,293.68,100.26Z"/>
        <path class="cls-14" d="M292.34,95s4.8-1.75,5.48-2.91.57-2.13,1.13-2.15.38,2,.65,2.21.67,0,.72.62a5,5,0,0,1,0,2,12.36,12.36,0,0,1-3.14,4.08c-1.06.61-3.19,2-4.47,1.81s-.78-4.68-.78-4.68Z"/>
        <path class="cls-19" d="M259.8,110.94c.36,1.47,8.14,5.08,4.57,7.85-2.2,1.71-6.06,6-7.09,8.65a21.87,21.87,0,0,0-1.29,3.69,6.75,6.75,0,0,1-5.33,5.66c-6.45,1.28-14.35,2.66-13.51-1.55,1-4.93,1.55-17.77,5.16-24.47C244,107.56,249.54,110.09,259.8,110.94Z"/>
        <path class="cls-19" d="M244.24,116.52c1.39-5.46,12.79-4,26.54-8.63a67.77,67.77,0,0,0,20.56-11.27l3.32,4a60.09,60.09,0,0,1-19.76,15c-9.56,4.37-22.34,6.69-26,9.32a1.66,1.66,0,0,1-1.19.39C245.76,125,243.45,119.62,244.24,116.52Z"/>
        <path class="cls-20" d="M236.9,135.93h13.44a6,6,0,0,1,6,6v4.28a0,0,0,0,1,0,0H241a4.07,4.07,0,0,1-4.07-4.07v-6.16A0,0,0,0,1,236.9,135.93Z"/>
        <path class="cls-21" d="M246.82,96.46q-2.61,2-5.28,4.18t-5.06,4.18a6.67,6.67,0,1,1,10.33-8.35Z"/>
        <circle class="cls-22" cx="232.14" cy="137.44" r="5.35"/>
        <rect class="cls-23" x="228.65" y="111.84" width="13.51" height="24.7" rx="6.75" ry="6.75" transform="translate(31.6 -46.99) rotate(12.21)"/>
        <rect class="cls-13" x="227.24" y="118.39" width="2.89" height="10.44" rx="1.45" ry="1.45" transform="translate(38.57 -53.68) rotate(14.61)"/>
        <path class="cls-8" d="M250.18,206.67c-2.81.18-8.91.66-9.62-.56,0,0-.2-.38-.49-.41s-.49.23-.63.35c-.31.27-1,.41-2.4-.14a1,1,0,0,1-.64-.28.81.81,0,0,1-.23-.61l.21-3.57a1.48,1.48,0,0,1,1.62-1.32,6.3,6.3,0,0,0,1.66,0c1.73-.26,2.37-1.12,3.18-.87s.69,1.12,1.33,2.18a11.42,11.42,0,0,0,1.24,1,12.33,12.33,0,0,0,6,2.06l.2,2.13Z"/>
        <path class="cls-8" d="M236.43,189.79l-.1,12.64,7.15.37,3.41-12.61Z"/>
        <path class="cls-8" d="M286.33,195.9c-2.63,1-8.32,3.24-9.36,2.29a.76.76,0,0,0-.59-.25c-.27.05-.4.36-.5.52-.22.35-.79.67-2.33.57a1,1,0,0,1-.69-.08.81.81,0,0,1-.4-.52l-.85-3.47a1.48,1.48,0,0,1,1.16-1.74,6.3,6.3,0,0,0,1.58-.51c1.58-.76,1.94-1.77,2.78-1.76s1,.87,1.91,1.69a11.42,11.42,0,0,0,1.47.58,12.33,12.33,0,0,0,6.32.22l.82,2Z"/>
        <path class="cls-24" d="M255.28,137.43l14.44,17.24a8.5,8.5,0,0,1,1.72,3.35c1,3.83,1.88,6.94,2.53,9.14,2.3,7.7,3.59,10.59,3.86,15.51a33,33,0,0,1-.68,8.61l-5.14.28a88.08,88.08,0,0,1-10.48-28.64,149.75,149.75,0,0,1-17.31-12.21s-4.39-3.84-3.95-6.6v0c.18-1.13.36-2.08.45-2.54.29-1.48.55-2.68.72-3.48a45.18,45.18,0,0,0,13.82-.62Z"/>
        <polygon class="cls-8" points="268.24 183.79 271.85 195.91 278.8 194.16 278.65 180.79 268.24 183.79"/>
        <line class="cls-25" x1="238.49" y1="136.45" x2="253.66" y2="136.68"/>
        <path class="cls-26" d="M195.89,158.08a5.26,5.26,0,0,0-.62,1.68,2.39,2.39,0,0,0,.22,1.38c.68,1.18,3,1.32,4.48.54a5.2,5.2,0,0,0,1.54-1.38c.72-.82.69-1.13.64-1.28a.88.88,0,0,0-.56-.48c.61-.5.71-.83.67-1-.09-.41-.78-.8-.78-.8s.43-.85.16-1.12c-.09-.09-.23-.11-.81-.07-1.09.07-1.06.14-1.25.09-.63-.19-.62-.94-1.18-1a1.12,1.12,0,0,0-.82.31c-.44.33-.51.7-1,1.67C196.32,157.27,196.34,157.1,195.89,158.08Z"/>
        <path class="cls-26" d="M141.2,175a5.4,5.4,0,0,0-1.44-1.14,2.46,2.46,0,0,0-1.42-.23c-1.37.29-2.24,2.5-2,4.2a5.34,5.34,0,0,0,.86,1.95c.57,1,.88,1,1,1a.9.9,0,0,0,.64-.39c.29.76.58,1,.81,1,.43,0,1-.5,1-.5s.69.69,1,.52c.12-.06.18-.19.33-.77.28-1.08.2-1.08.31-1.25.39-.56,1.12-.3,1.39-.82a1.15,1.15,0,0,0,0-.9c-.18-.54-.52-.72-1.33-1.46C141.85,175.66,142,175.73,141.2,175Z"/>
        <path class="cls-27" d="M162.52,173.85c7,9.73,7.07,16.11,6,20-1.27,4.51-4.3,6.49-11.77,15.28-4.36,5.13-7.67,9.57-9.84,12.6l-3.62-2.84a26.05,26.05,0,0,0,3.06-9.57,13.35,13.35,0,0,1,1.24-4.93,19.36,19.36,0,0,1,1.93-2.9c2.24-3.06,4.19-5.36,5.33-6.63.85-1,1.57-1.74,2.07-2.29-.59-1.54-1.82-4.75-3.41-9-2.43-6.46-3.63-9.77-2.76-13.57a13,13,0,0,1,.84-2.47,23.13,23.13,0,0,0,11,6.26Z"/>
        <path class="cls-8" d="M165,152.18c.78,2.68,1.32,4.91,3.1,7.42a18.4,18.4,0,0,0,6.49,5.63,31.47,31.47,0,0,0,9.07,1A31.84,31.84,0,0,0,197,162.71a4.24,4.24,0,0,0-.26-3,4.07,4.07,0,0,0-1.3-1.49q-4.25,0-8.71,0-4.78-.07-9.34-.28c-.45-.75-1.14-2-1.87-3.52-2-4.25-2.16-6.42-4.4-9.78a6.76,6.76,0,0,0-3.43-3.07,3.62,3.62,0,0,0-2.89,0C162.35,143,164.46,150.29,165,152.18Z"/>
        <path class="cls-8" d="M158.06,153.48l-4.21,21h13.84c1.87-3.59,2-6,1.68-7.67a10,10,0,0,1-.24-1.69,9.73,9.73,0,0,1,1.54-5.4c1-1.8,1.92-5.26,1.2-12.51a7,7,0,0,0-.59-2.32c-1.75-3.89-6.55-4.75-7.25-4.87l-.6,3a3.07,3.07,0,0,0-3.35,2.31Z"/>
        <path class="cls-28" d="M165.6,141.06c3.39.59,3.72,3.85,3.74,6.63.07,7-1.17,13.17-2.71,19.9H151.56l3.81-23.09,2.37-2.2a6.33,6.33,0,0,1,5.4-1.66Z"/>
        <path class="cls-26" d="M170.62,125.67c.18.7.35,1.47.48,2.31a23.79,23.79,0,0,1,.28,3.15c.06.17.18.46.36.82.62,1.23,1.08,1.64.94,2s-.39.38-1.35.35c-.06.35-.16.86-.33,1.48a7.14,7.14,0,0,1-.68,2c-.82,1.19-2.81,1.14-4.25,1.1a5.23,5.23,0,0,1-3.64-1.05,4.42,4.42,0,0,1-1-1.36,5.09,5.09,0,0,1-.49-2.38,2.44,2.44,0,0,0,.89-.17,3.11,3.11,0,0,0,1.38-1.19c.76-1.11,2.66-3.91,4.82-4.84a5.24,5.24,0,0,0,1.43-.83A5,5,0,0,0,170.62,125.67Z"/>
        <path class="cls-29" d="M168.29,128l.48,3.8c-.5.48-.86.54-1.11.5-.78-.14-.83-1.43-1.79-1.68a1.14,1.14,0,0,0-1.08.21c-.46.5.34,1.3,0,2.27-.14.39-.37.54-1.87,1.64l-1.61,1.19a24.74,24.74,0,0,1-1.19-2.51c-.34-.83-2-5.12-1-6.81a3.34,3.34,0,0,1,1.3-1.22,5.43,5.43,0,0,1,.5-.28c2-1,7.21-.57,9.48-1.35a1.19,1.19,0,0,1,1,0c.34.25.34.83.3,1.19a6.68,6.68,0,0,1-3.46,3.05Z"/>
        <path class="cls-30" d="M197.69,185.72c-.4-1.41-1.3-2.13-2.42-3.42a24.11,24.11,0,0,1-4.17-6.87,10.74,10.74,0,0,0-8.78-5.36l-.56,0h-31v.67a10.07,10.07,0,0,0,.45,3,10.51,10.51,0,0,0,2.5,4.13,15.3,15.3,0,0,0,7.13,4.14c5.28,1.5,9.23.5,15.6-.28,1.34-.16,2.92-.33,4.71-.48,1,1.94,2,3.83,3,5.64a18.74,18.74,0,0,0,3.74,5c.53.41,2.26,1.61,5.63,1.27l2.91-1.68C197.33,190,198.3,187.84,197.69,185.72Z"/>
        <path class="cls-8" d="M210.4,197.75c-2.09,1.88-6.58,6-7.89,5.53a.76.76,0,0,0-.64,0c-.23.14-.24.48-.27.66-.08.4-.5.92-2,1.38a1,1,0,0,1-.67.17.81.81,0,0,1-.56-.33l-2.05-2.92a1.48,1.48,0,0,1,.45-2,6.3,6.3,0,0,0,1.29-1.05c1.19-1.28,1.17-2.35,2-2.65s1.23.45,2.39.89a11.42,11.42,0,0,0,1.58,0,12.33,12.33,0,0,0,6-2.09l1.48,1.55Z"/>
        <polygon class="cls-8" points="189.14 193.04 196.91 203.02 202.74 198.87 197.75 186.46 189.14 193.04"/>
        <path class="cls-8" d="M155.39,228.51c-2.78-.42-8.84-1.25-9.28-2.58,0-.05-.12-.41-.39-.51s-.52.12-.69.21c-.36.19-1,.2-2.31-.64a1,1,0,0,1-.56-.41.81.81,0,0,1-.1-.65l1-3.44a1.48,1.48,0,0,1,1.87-.95,6.3,6.3,0,0,0,1.63.33c1.75.11,2.56-.59,3.29-.18s.44,1.24.83,2.41a11.42,11.42,0,0,0,1,1.22,12.33,12.33,0,0,0,5.4,3.28l-.25,2.13Z"/>
        <polygon class="cls-8" points="145.52 209.1 142.75 221.44 149.66 223.31 156.08 211.57 145.52 209.1"/>
        <line class="cls-25" x1="156.08" y1="168.76" x2="169.34" y2="168.76"/>
        <path class="cls-8" d="M153.34,149.73a84.64,84.64,0,0,0-3.15,19.81,7.41,7.41,0,0,0,1.3,1c2.86,1.65,7.36,1.65,9.95-1a7,7,0,0,0,1.76-3.17l3.5-22.83A3.07,3.07,0,0,0,164,140l-4.75-.57a4.23,4.23,0,0,0-4.61,3.18A22.65,22.65,0,0,1,153.34,149.73Z"/>
        <path class="cls-8" d="M163.14,140.64c-.19-1.08-9.29-2.91-18.85,2-2.08,1.08-9.3,4.76-10.79,11.63,0,.11,0,.23-.07.36a16.31,16.31,0,0,0,.13,5.72c.57,3.34,1.16,3.8,1.16,6.25,0,.87-.07,1-.08,1.79a14.45,14.45,0,0,0,1.16,5.78l2.73.13c1.05,0,2.11.09,2.73.13a16.75,16.75,0,0,0,1-6.15c-.07-2.7-.8-3.55-.4-6.18a24.06,24.06,0,0,0,.68-3.85,11.46,11.46,0,0,0-.55-3.78c4.42-1.56,7.88-2.7,10-3.39,5.43-1.77,9.11-2.86,9.42-5.07.15-1.09-.57-2.15.12-3.57C162.16,141.2,163.2,141,163.14,140.64Z"/>
        <path class="cls-25" d="M169.34,168.76a67.92,67.92,0,0,0,36.26-1.08c23.92-7.53,35.61-26.23,38.48-31.15"/>
        <path class="cls-18" d="M170.42,123.74q-2.92,2.26-5.9,4.67t-5.65,4.67a7.45,7.45,0,1,1,11.55-9.33Z"/>
        <circle class="cls-31" cx="345.83" cy="9.2" r="5.15"/>
        <path class="cls-5" d="M356.73,39.06a39.25,39.25,0,0,1-2,17.32l-2.53-.24c0-.86,0-2.22-.13-3.88-.24-3.2-.65-4.44-.76-6.9a26.38,26.38,0,0,1,.3-5.24q-1.07-2.14-2.11-4.39c-2.11-4.55-3.92-9-5.47-13.25a.83.83,0,0,1,.51-1.07l5-1.77Z"/>
        <path class="cls-32" d="M380.22,66l-19.31,3.67A6.16,6.16,0,0,1,356.29,68a6.25,6.25,0,0,1-1.47-3.48,12.06,12.06,0,0,1,.41-4.87c.07-.27.13-.48.17-.62,1.84-6.25,2.79-8.49,3.71-11.81,1.48-5.32.77-5,1.83-7.81a23.08,23.08,0,0,1,7.91-10.06,21.67,21.67,0,0,1,2.5,3.59,14.9,14.9,0,0,1,1.85,4.61,13.37,13.37,0,0,1-.1,4.94,34.79,34.79,0,0,1-3.64,10.28,50.23,50.23,0,0,1-4.31,6.91c2.41-.82,5-1.61,7.66-2.35q3.08-.85,6-1.49Z"/>
        <path class="cls-23" d="M368.81,29.32a17.56,17.56,0,0,1,2.53,3.58c1.11,2.08,2.5,4.7,1.84,7.88A7.29,7.29,0,0,1,369.89,46a23.45,23.45,0,0,1-2.46,1.26,24.28,24.28,0,0,1-3.82,1.2c-4.32.95-10.88.47-11.32.44,1.43,1.11,2.93,2.37,4.45,3.8A63.26,63.26,0,0,1,362,58.23l-8.47,5.84c-2.16-2.07-4.42-4.4-6.7-7a109.66,109.66,0,0,1-6.92-8.78,5.35,5.35,0,0,1-.14-3.24,5.85,5.85,0,0,1,3.59-3.66l9.5-3.08,7.05-2.25c1.66-1,3.42-2.26,5.23-3.67C366.49,31.36,367.7,30.33,368.81,29.32Z"/>
        <path class="cls-33" d="M347.23,32.52l12.46,3.71a46,46,0,0,0,4.43-2.9,46,46,0,0,0,4.73-4A88.9,88.9,0,0,0,359,20.62c-1.71-1.29-2.75-1.95-4.85-3.26a27.68,27.68,0,0,0-5.72-2.79L347,14.21h0l-2.84,6.58a3.49,3.49,0,0,0-.25,1.87l1,7.17a3.2,3.2,0,0,0,2.3,2.69Z"/>
        <path class="cls-34" d="M344.91,22a3.78,3.78,0,0,1-.29-1.81,8,8,0,0,0-2.21-3,7.69,7.69,0,0,0-1.18-.82l2.39-3.57L347,14.21l-.55,1.88a19.85,19.85,0,0,0-.63,3.73,3.87,3.87,0,0,1-.14.71A3.92,3.92,0,0,1,344.91,22Z"/>
        <path class="cls-31" d="M345.64,69.69A4.7,4.7,0,0,1,348,67.53c1.7-.74,2.71,0,4.81-.93.59-.26,2-.87,2-1.83a1.63,1.63,0,0,0-.64-1.18l4.13-2.86a9.85,9.85,0,0,1,1.91,3.81,18.56,18.56,0,0,1,.64,5.14Z"/>
        <path class="cls-31" d="M379.14,58.41a9.14,9.14,0,0,1,5.42-.7l-.06,10a1.86,1.86,0,0,1-.44,1.45,1.81,1.81,0,0,1-1.08.57h-4.6a3.43,3.43,0,0,1,.55-.9c.94-1.11,2.08-.95,2.49-1.89a2.05,2.05,0,0,0,.07-1.23,2.7,2.7,0,0,0-.59-1.15,3.92,3.92,0,0,0-1-.92Z"/>
        <path class="cls-34" d="M343.62,13l-2.89,4.3a2.73,2.73,0,0,1-1.7,1.15h0a2.73,2.73,0,0,1-1.79-.23L334.93,17l-.39.67a.35.35,0,0,1-.64,0l-.74-1.85-.75-.83a10.07,10.07,0,0,1-2.14-3.66h0a6.46,6.46,0,0,1,.62-5.37h0a6.46,6.46,0,0,1,5-3.07l.41,0a3.42,3.42,0,0,1,1.34.16h0A6.46,6.46,0,0,1,342,8.24l.2,1.44Z"/>
        <path class="cls-35" d="M347,14.21l-1.74,10.06-3.33,11.21a46.57,46.57,0,0,0-5,1.91c-3.92,1.77-5.41,3.16-9.32,4.93a43.29,43.29,0,0,1-4.84,1.86l1.43,2.52L335,43.49s6.62-1.48,10.21-5c4.09-4,5.75-9.19,6.89-13,.42-1.41.7-2.6.87-3.42A6.82,6.82,0,0,0,347,14.21Z"/>
        <path class="cls-34" d="M324,46.32a4.38,4.38,0,0,1-2.94,2.23,4.82,4.82,0,0,1-2.39-.53A10.58,10.58,0,0,1,316,46.5l-2.72,2a.64.64,0,0,1-.72,0,.62.62,0,0,1-.12-1l2.3-2.43a1,1,0,0,1,.66-.32l3.16-.29,4.51-.33Z"/>
        <path class="cls-34" d="M313.86,47.58l-1.12,1.31a.67.67,0,0,0,0,.85h0a.67.67,0,0,0,.92.13L317,47.49l2.67.09L318.59,46h-2.73Z"/>
        <path class="cls-34" d="M313.78,51.1a.64.64,0,0,0,.86,0l1.72-2,3.18-1.62-.8-1L315.4,48l-1.7,2.21A.64.64,0,0,0,313.78,51.1Z"/>
        <path class="cls-34" d="M316.23,51.52a.47.47,0,0,0,.6-.22l1-1.92,1.59-1.26-.75-.77L316.57,49l-.61,2A.47.47,0,0,0,316.23,51.52Z"/>
        <path class="cls-31" d="M341.49,4.59c.91,1.43.45,2.59,1.54,5.81a21.67,21.67,0,0,0,1,2.53,9.92,9.92,0,0,1-3.32-1.14A6.36,6.36,0,0,1,339,10.56c-1.09-1.16-1.21-2.36-2.07-2.46a.78.78,0,0,0-.63.16c-.55.56.91,2,.45,3.09s-2.49,1.12-3.54,1.16c-1.22,0-2.43.08-3.2-.74a3.54,3.54,0,0,1-.58-2.91C329.84,6,332.37,2.1,336.29,2A6.25,6.25,0,0,1,341.49,4.59Z"/>
        <path class="cls-23" d="M342.46,6.46q-3.29.34-6.69.77t-6.5.88a6.67,6.67,0,1,1,13.18-1.65Z"/>
        <line class="cls-6" x1="368.85" y1="29.31" x2="358.55" y2="36.5"/>
        <path class="cls-36" d="M469.43,283.63c-11.8-11.11-12.74-19.4-23.15-23.79-10.83-4.56-22-.05-22.9.3-10.1,4.22-9.07,10.42-17.65,13.34-11.9,4-17.24-7.06-30.35-3.47-9.86,2.7-9.31,6.21-21.81,10.9-20.32,7.63-28-3.58-49.88,4.38-6.21,2.26-17.08,7.33-19.84,8.64h199.6A72.86,72.86,0,0,1,469.43,283.63Z"/>
        <path id="_Path_3" data-name="&lt;Path&gt;" class="cls-19" d="M423,216.54c-1.61,7.64-5.65,6.52-8.38,14.89-5.46,16.74,6.39,34.34,11.48,41.88,7.08,10.5,13.92,20.67,23.27,20.29,11.11-.45,21.37-15.62,22.34-28.67.78-10.43-4.77-14.18-1.86-23,3.22-9.72,13-9.88,13.65-17.37.6-7-7.54-8.16-9.88-18-2.68-11.3,6.5-16.31,3.06-25.74-3-8.16-10.68-6.63-13.65-14.89-3.38-9.39,5.12-15.12,1.55-23.89-2.53-6.23-9.79-10.06-16.07-10.35-10.81-.5-20.24,9.4-21.78,18.42-1.62,9.4,6.23,15.32,2.69,22.18-3.13,6.06-10.3,3.5-13.49,9C410.85,190.09,426.29,201,423,216.54Z"/>
        <path class="cls-15" d="M449.37,161.18V131.8l-.87-.07c-.38,0-.76,0-1.13,0v29l-16.45-19.86q-.63.84-1.18,1.71l17.64,21.29v29.3l-17.72-21.4c-.08.17-.15.35-.24.52a8.13,8.13,0,0,1-.85,1.3l18.81,22.71v49.07l-24.29-29.33c0,.15,0,.31-.08.46a17.48,17.48,0,0,1-.53,1.94l24.9,30.07V290.4L414.8,251.08a53.24,53.24,0,0,0,1.87,5.4l30.69,37a12.31,12.31,0,0,0,2,.09l.59,0,21.7-33a27.11,27.11,0,0,0-.44-3l-21.84,33.2V249.46l25.65-39a17.4,17.4,0,0,1-.93-2.22l-24.72,37.57V197.25l17.18-26.11a12.3,12.3,0,0,1-1.44-1.45l-15.74,23.92v-28.8l15.1-22.95a13.43,13.43,0,0,0-1.07-2Z"/>
      </g>
    </g>
  </g>
</svg>
