
<svg xmlns="http://www.w3.org/2000/svg" viewBox="0 0 369.8 400" width="369.8" height="400">
    <defs>
        <style>
            .ad,.p,.t{fill-rule:evenodd}.ae,.t{fill:#7fd1de}.af{fill:#00a4bd}.n,.o,.q,.y{fill:none}.ae,.aj,.al,.ap,.k,.l,.n,.o,.q,.y{stroke-linecap:round}.ae,.aj,.al,.ap,.k,.l,.o,.q{stroke-linejoin:round}.k,.l{stroke-width:3.62px}.l{stroke:#00bda5}.k{stroke:#00a38d}.ag,.aj,.ap,.j{fill:#516f90}.au,.k,.l{fill:#fff}.n{stroke:#516f90;stroke-width:1.81px}.ad,.af,.ag,.am,.n,.y{stroke-miterlimit:10}.o,.q{stroke:#33475c}.o{stroke-width:4.21px}.p{fill:#fef8f0}.q{stroke-width:.84px}.y{stroke:#7798b6;stroke-width:1.5px}.ad,.al,.am{fill:#253342}.ad{stroke:#231f20;stroke-width:2.23px}.ae,.af,.ag,.aj,.al,.am,.ap{stroke:#000}.ae,.af,.aj,.al,.am{stroke-width:3.35px}.ag{stroke-width:2.21px}.ap{stroke-width:1.52px}.au{opacity:.62}
        </style>
    </defs>
    <path d="M3.36 302.31l167.41 96.79a6.74 6.74 0 0 0 6.77 0l188.93-110.63a6.74 6.74 0 0 0 0-11.63L200 179.88a6.74 6.74 0 0 0-6.78 0L3.34 290.66a6.74 6.74 0 0 0 .02 11.65z" fill-rule="evenodd" fill="#fbe1b2" opacity=".75"/>
    <path d="M279.41 40.22c10.88 2.67 13 4.83 15.7 15.72 2.67-10.89 4.82-13 15.7-15.72-10.88-2.67-13-4.83-15.7-15.72-2.66 10.89-4.82 13-15.7 15.72" fill="#f5c26b" fill-rule="evenodd"/>
    <path d="M326.28 105.58c5.57 1.37 6.68 2.47 8 8 1.36-5.58 2.47-6.68 8-8-5.57-1.36-6.68-2.47-8-8-1.36 5.58-2.47 6.69-8 8" fill="#00bda5" fill-rule="evenodd"/>
    <path d="M304.26 11.69c7.88 2 9.45 3.56 11.38 11.58 1.93-8 3.49-9.61 11.37-11.58-7.88-2-9.44-3.55-11.37-11.57-1.93 8-3.5 9.61-11.38 11.57" fill-opacity=".5" fill="#7fd1de" fill-rule="evenodd"/>
    <ellipse cx="151.15" cy="312.55" rx="94.72" ry="36.09" opacity=".37" fill="#00a4bd"/>
    <g opacity=".4">
        <path stroke-width="3.62" stroke-linejoin="round" stroke-linecap="round" stroke="#7fded2" fill="none" d="M4.38 264.02l65.84-59.28 7.85 5.56 93.24-56.42"/>
        <path stroke="#00bda5" stroke-width="3.62" stroke-linejoin="round" stroke-linecap="round" fill="none" d="M4.38 264.02l64.26-84.05 9.74 6.71 28.03-38.58 15.76 9.18 64.41-65.09"/>
        <path stroke="#00a38d" stroke-width="3.62" stroke-linejoin="round" stroke-linecap="round" fill="none" d="M4.38 264.02l50.93-130.6 14.91 6.13 28.23-44.7 10.93 6.13 41.52-53.89"/>
        <path class="j" d="M4.35 267.25a1.27 1.27 0 0 1-1.91-1.1V88.59a1.81 1.81 0 1 1 3.61 0v171.23A1.27 1.27 0 0 0 8 260.91l127.31-75.05a1.81 1.81 0 1 1 1.84 3.11z"/>
        <ellipse class="k" cx="57.08" cy="134.68" rx="5.7" ry="7.66"/>
        <ellipse class="k" cx="98.6" cy="95.52" rx="5.7" ry="7.66"/>
        <ellipse class="l" cx="68.49" cy="180.99" rx="5.7" ry="7.66"/>
        <ellipse class="l" cx="106.52" cy="147.9" rx="5.7" ry="7.66"/>
        <ellipse cx="70.22" cy="205.65" rx="5.7" ry="7.66" fill="#fff" stroke-width="3.62" stroke-linejoin="round" stroke-linecap="round" stroke="#7fded2"/>
        <path class="n" d="M4.38 231.26l7.65-4.46M4.38 209.19l7.65-4.45M4.38 187.44l7.65-4.46M4.38 165.46l7.65-4.45M4.38 143.67l7.65-4.46M4.38 121.59l7.65-4.45M4.38 99.98l7.65-4.46"/>
    </g>
    <path class="o" d="M315.63 299.61a5.79 5.79 0 0 0-2.28-4.69 1.92 1.92 0 0 0-1.63-.37l-.13.06-.1.05-47 22.8v.06a1.27 1.27 0 0 0-.74.42l-5.51 6.66 8.59-.4a1.19 1.19 0 0 0 .43-.12h.05l47.37-22.76a1.81 1.81 0 0 0 .92-1.64z"/>
    <path class="o" d="M268.16 322.46a5.62 5.62 0 0 0-2.22-4.57c-.88-.59-1.7-.55-2.19 0a17.11 17.11 0 0 0-3 2.72 15.49 15.49 0 0 0-2.47 3.94 48.6 48.6 0 0 0 4.86.19 17.35 17.35 0 0 0 3.73-.6c.72-.06 1.24-.66 1.32-1.7zM315.63 299.61a5.79 5.79 0 0 0-2.28-4.69 1.92 1.92 0 0 0-1.63-.37l-.13.06-.1.05-15 7.3a2.09 2.09 0 0 1 1.44.42 5.9 5.9 0 0 1 2.31 4.77 2.12 2.12 0 0 1-.56 1.37l15.08-7.24a1.81 1.81 0 0 0 .92-1.64z"/>
    <path class="o" d="M260.24 322.38a.63.63 0 0 0-.66-.11 10.13 10.13 0 0 0-1.36 2.24s1.32.12 2.5.14a.67.67 0 0 0 .31-.56 2.07 2.07 0 0 0-.79-1.7z"/>
    <path class="p" d="M289 307.21a2.14 2.14 0 0 1-.78-4.07l18.35-8.91a2.15 2.15 0 0 1 1.88 3.86L290.07 307a2.21 2.21 0 0 1-1.09.21"/>
    <path class="q" d="M289 307.21a2.14 2.14 0 0 1-.78-4.07l18.35-8.91a2.15 2.15 0 0 1 1.88 3.86L290.07 307a2.21 2.21 0 0 1-1.07.21z"/>
    <path d="M315.63 299.61a5.79 5.79 0 0 0-2.28-4.69 1.92 1.92 0 0 0-1.63-.37l-.13.06-.1.05-47 22.8v.06a1.27 1.27 0 0 0-.74.42l-5.51 6.66 8.59-.4a1.19 1.19 0 0 0 .43-.12h.05l47.37-22.76a1.81 1.81 0 0 0 .92-1.64" fill="#98acc3" fill-rule="evenodd"/>
    <path class="q" d="M315.63 299.61a5.79 5.79 0 0 0-2.28-4.69 1.92 1.92 0 0 0-1.63-.37l-.13.06-.1.05-47 22.8v.06a1.27 1.27 0 0 0-.74.42l-5.51 6.66 8.59-.4a1.19 1.19 0 0 0 .43-.12h.05l47.37-22.76a1.81 1.81 0 0 0 .92-1.64z"/>
    <path class="q" d="M268.16 322.46a5.62 5.62 0 0 0-2.22-4.57c-.88-.59-1.7-.55-2.19 0a17.11 17.11 0 0 0-3 2.72 15.49 15.49 0 0 0-2.47 3.94 48.6 48.6 0 0 0 4.86.19 17.35 17.35 0 0 0 3.73-.6c.72-.06 1.24-.66 1.32-1.7"/>
    <path class="q" d="M268.16 322.46a5.62 5.62 0 0 0-2.22-4.57c-.88-.59-1.7-.55-2.19 0a17.11 17.11 0 0 0-3 2.72 15.49 15.49 0 0 0-2.47 3.94 48.6 48.6 0 0 0 4.86.19 17.35 17.35 0 0 0 3.73-.6c.72-.06 1.24-.66 1.32-1.7z"/>
    <path d="M315.63 299.61a5.79 5.79 0 0 0-2.28-4.69 1.92 1.92 0 0 0-1.63-.37l-.13.06-.1.05-15 7.3a2.09 2.09 0 0 1 1.44.42 5.9 5.9 0 0 1 2.31 4.77 2.12 2.12 0 0 1-.56 1.37l15.08-7.24a1.81 1.81 0 0 0 .92-1.64" fill="#ff7a59" fill-rule="evenodd"/>
    <path class="q" d="M315.63 299.61a5.79 5.79 0 0 0-2.28-4.69 1.92 1.92 0 0 0-1.63-.37l-.13.06-.1.05-15 7.3a2.09 2.09 0 0 1 1.44.42 5.9 5.9 0 0 1 2.31 4.77 2.12 2.12 0 0 1-.56 1.37l15.08-7.24a1.81 1.81 0 0 0 .92-1.64z"/>
    <path class="p" d="M260.24 322.38a.63.63 0 0 0-.66-.11 10.13 10.13 0 0 0-1.36 2.24s1.32.12 2.5.14a.67.67 0 0 0 .31-.56 2.07 2.07 0 0 0-.79-1.7"/>
    <path class="q" d="M260.24 322.38a.63.63 0 0 0-.66-.11 10.13 10.13 0 0 0-1.36 2.24s1.32.12 2.5.14a.67.67 0 0 0 .31-.56 2.07 2.07 0 0 0-.79-1.7z"/>
    <path class="t" d="M343.59 38.11c-8 4.6-14.71 13.79-17 22.33l-2.91 1.68a4.36 4.36 0 0 0-2.09 3.3c0 1.16.94 1.55 2.09.89l2.16-1.25c0 .36-.07.73-.07 1.08a16.08 16.08 0 0 0 .13 2l-2.22 1.28a4.36 4.36 0 0 0-2.09 3.3c0 1.16.94 1.55 2.09.89l3.32-1.87c2.55 5.24 9 6.3 16.6 1.92 5.69-3.29 9.63-8.1 12.94-13.32.82-1.29.83-2.62 0-3s-2.14.4-3 1.68c-3 4.67-5.45 7.78-10 10.41-5.27 3-9.8 2.7-12.06-.35l13.07-7.55a4.35 4.35 0 0 0 2.09-3.3c0-1.15-.94-1.55-2.09-.88l-14.44 8.34a11.58 11.58 0 0 1-.16-2c0-.36 0-.72.06-1.08l14.54-8.4a4.33 4.33 0 0 0 2.09-3.3c0-1.15-.94-1.55-2.09-.88L331 57.9a30 30 0 0 1 12.55-15.61c4.55-2.63 7-2.42 10-1.17.81.35 2.14-.42 3-1.71s.81-2.61 0-2.95c-3.31-1.4-7.25-1.63-12.94 1.66"/>
    <path d="M256.84 34.23c1.69-.23 2.37.59 2.34 2.05a7.93 7.93 0 0 1-2.34 5.56zm-4.69-12.15v7.57c-1.68.23-2.33-.51-2.34-2a7.93 7.93 0 0 1 2.34-5.57zm2.34-10a4.85 4.85 0 0 0-2.34 3.69v1.46c-4 3.31-7 8.61-7 13.13 0 2.94 1.43 4.41 3.18 4.68a12.64 12.64 0 0 0 3.84-.21v9.55a3.08 3.08 0 0 1-2.59-1.24c-.47-.94-2.06-.64-3.22.61s-1.64 3.17-1 3.88c1.21 1.73 3.56 2.82 6.76 1.8v1.46c0 1.3 1 1.74 2.34 1a4.84 4.84 0 0 0 2.35-3.69v-1.49c4-3.31 7-8.61 7-13.13 0-2.94-1.42-4.45-3.18-4.71a12.64 12.64 0 0 0-3.84.2v-9.51a3 3 0 0 1 2.59 1.21c.48.94 2.06.63 3.22-.62s1.64-3.17 1-3.88c-1.21-1.73-3.56-2.79-6.76-1.76v-1.46c0-1.3-1.05-1.74-2.35-.99z" fill="#66c9d3" fill-rule="evenodd"/>
    <path class="t" d="M286.51 90.61a1 1 0 0 1 1-.06l7.7 4.53 7.7-13.42c.49-.88 1.52-1.55 2.09-1.39s.69 1.08.16 2L298.38 94l3.43-2c.81-.47 1.47-.19 1.47.62a3.06 3.06 0 0 1-1.47 2.38l-5.15 3v2.94l5.15-3c.81-.47 1.47-.19 1.47.62a3.06 3.06 0 0 1-1.47 2.32l-5.15 3v4.41a3.15 3.15 0 0 1-1.47 2.32c-.78.45-1.48.16-1.47-.62v-4.41l-5.15 3c-.81.47-1.47.19-1.47-.62a3.06 3.06 0 0 1 1.47-2.32l5.15-3v-2.96l-5.15 3c-.81.47-1.47.19-1.47-.62a3 3 0 0 1 1.47-2.32l3.43-2-6.76-4c-.35-.2-.44-.76-.25-1.37a3.08 3.08 0 0 1 1.2-1.56 1.48 1.48 0 0 1 .32-.21"/>
    <path d="M261 159.85a166.44 166.44 0 0 1-7.2 52.3c-5.68 18.43-17.39 31.78-34.74 41.78 0 0 61.63 37.89 65.34 34.85s15.45-7.92 30.56-39.17a167.51 167.51 0 0 0 15.25-53.87z" opacity=".5" fill="#7fd1de" fill-rule="evenodd"/>
    <path d="M262.18 150.44a166.05 166.05 0 0 1-8.94 52c-6.28 18.23-18.43 31.17-36.1 40.59 0 0 60.33 39.93 64.14 37s15.7-7.4 31.85-38.13a167.84 167.84 0 0 0 17-53.34z" fill="#f5f8fa" stroke="#253342" stroke-width="2.5" stroke-linejoin="round" stroke-linecap="round" fill-rule="evenodd"/>
    <path d="M251.66 248.94a.21.21 0 0 1 0-.06.67.67 0 0 1 .27-.91c1.09-.6 6.62-3.51 8.51-1.53a2 2 0 0 1 .15 2.17c2-1.21 4.34-2.25 5.6-1.58a2 2 0 0 1 1.22 1.69 4.84 4.84 0 0 1-1.54 3.16c1.64-.43 3.48-.74 4.39-.3a1.16 1.16 0 0 1 .66.8c.15.73-.43 1.4-1.11 2.18a5 5 0 0 0-.9 1.25h.06c.67.32 1.63-.17 2.56-.64 1.11-.57 2.26-1.16 3.3-.57a1.51 1.51 0 0 1 .78 1.09 2.68 2.68 0 0 1-.25 1.44c1.78-.87 4-1.69 5.09-1.16a1.3 1.3 0 0 1 .71.82c.23.87-.42 1.86-1.11 2.9a10.56 10.56 0 0 0-.68 1.13l.52.31c1.33.8 4.43 2.68 5.91 2a1.69 1.69 0 0 0 .84-1.38.67.67 0 1 1 1.32.23 2.93 2.93 0 0 1-1.6 2.38c-2.13 1-5.41-1-7.17-2.07a7 7 0 0 0-.66-.39 1 1 0 0 1-.53-.62c-.18-.66.31-1.39.92-2.33a5.39 5.39 0 0 0 .94-1.8c-.74-.32-3.8 1-6.19 2.46a.68.68 0 0 1-.86-1c.65-.72 1.56-2.07 1.47-2.67a.17.17 0 0 0-.11-.14c-.41-.23-1.23.19-2 .59-1.17.6-2.49 1.28-3.76.67a1.37 1.37 0 0 1-.81-.95c-.17-.83.53-1.65 1.21-2.43a9.38 9.38 0 0 0 .74-.93c-1-.24-3.88.48-6.2 1.34a.69.69 0 0 1-.83-.31.67.67 0 0 1 .2-.86c1.44-1.07 3.44-3 3.36-4.1 0-.16-.08-.38-.5-.6-1-.51-4.64 1.56-7.5 3.76a.67.67 0 0 1-.88-1c1.58-1.57 2.58-3.3 2.28-3.6-.86-.91-4.61.53-6.88 1.78a.67.67 0 0 1-.94-.22z" fill="#e6824f"/>
    <path class="j" d="M246.34 248.47a1 1 0 0 1-1-.74l-3.89-14.43a1 1 0 0 1 1.94-.52l3.88 14.43a1 1 0 0 1-.7 1.22.82.82 0 0 1-.23.04z"/>
    <path class="j" d="M238.25 245.51a1 1 0 0 1-.82-.43 1 1 0 0 1 .25-1.4l12.29-8.5a1 1 0 0 1 1.14 1.65l-12.29 8.5a1 1 0 0 1-.57.18z"/>
    <path class="y" d="M265.03 194.64l28.03 15.58M298.28 213.13l7.68 4.27M261.19 203.88l28.03 15.59M294.44 222.37l7.68 4.27M257.36 212.25l28.02 15.58M290.6 230.73l7.68 4.27M253.19 219.95l28.02 15.58M286.43 238.44l7.68 4.27M280.95 246.14l7.68 4.27"/>
    <path stroke-width="2" stroke="#7798b6" stroke-miterlimit="10" stroke-linecap="round" fill="none" d="M267.42 185.62l41.02 22.81"/>
    <path stroke="#a1bfd6" stroke-width="4" stroke-miterlimit="10" stroke-linecap="round" fill="none" d="M284 178.98l28.56 15.88"/>
    <path class="y" d="M247.31 227.43l27.24 15.15"/>
    <ellipse cx="274.66" cy="173.92" rx="8.09" ry="5.06" transform="rotate(-77.78 274.655 173.92)" fill="#a1bfd6"/>
    <path fill="none" d="M213.59 131.88l23.9 36.9"/>
    <path class="ad" d="M150.68 302.83a2.18 2.18 0 0 1-2.16-2.19v-7.82a4.47 4.47 0 0 1-2.29-3.92l.34-50.69a4.49 4.49 0 0 1 4.5-4.46 4.41 4.41 0 0 1 1.17.16 4.47 4.47 0 0 1 3.29 4.33l-.34 50.69a4.52 4.52 0 0 1-2.32 3.91v7.82a2.19 2.19 0 0 1-2.19 2.17z"/>
    <path class="ae" d="M197.63 105.41l31.78-18.74s13.1-4.22 21.85 10.9c7.61 13.16.35 23.11.35 23.11l-32 19.65z"/>
    <ellipse class="af" cx="208.69" cy="122.68" rx="11.86" ry="20.55" transform="rotate(-30 208.707 122.683)"/>
    <path class="ad" d="M205.93 331.82a2.18 2.18 0 0 1-2.94-.92l-3.64-6.9a4.46 4.46 0 0 1-3.86-2.39L153.58 242a4.49 4.49 0 0 1 1.89-6.05 4.23 4.23 0 0 1 1.11-.4 4.47 4.47 0 0 1 4.93 2.28l41.91 79.63a4.52 4.52 0 0 1-.21 4.53l3.64 6.93a2.19 2.19 0 0 1-.92 2.9zM93.6 331.2a2.18 2.18 0 0 0 3-.85l3.81-6.83a4.47 4.47 0 0 0 3.92-2.29l43.86-78.57a4.5 4.5 0 0 0-1.74-6.1 4.26 4.26 0 0 0-1.1-.43 4.45 4.45 0 0 0-5 2.16l-43.88 78.57a4.52 4.52 0 0 0 .1 4.54l-3.81 6.83a2.19 2.19 0 0 0 .84 2.97z"/>
    <ellipse class="ag" cx="144.96" cy="212.03" rx="10.88" ry="6.28" transform="rotate(-60 144.953 212.034)"/>
    <path d="M163 225.21l-.34 10.79s-2.6 6.77-11.18 6.77c-9.76 0-12.77-6.7-12.77-6.7l-.09-10.07z" stroke-width="2.47" stroke="#000" fill="#516f90" stroke-linejoin="round" stroke-linecap="round"/>
    <ellipse cx="150.91" cy="225.7" rx="7.02" ry="12.15" transform="rotate(-89.67 150.919 225.703)" stroke-width="2.47" stroke="#000" stroke-miterlimit="10" fill="#516f90"/>
    <path class="aj" d="M188.41 200.15a7.15 7.15 0 0 1-3.83 2.25zM148.28 167.77a12.11 12.11 0 0 1-5.48 9.5 4.07 4.07 0 0 1-3.58.54l-.58-.33 8.26-13.1a4 4 0 0 1 1.38 3.39z"/>
    <path d="M148.28 167.77a12.11 12.11 0 0 1-5.48 9.5 4.07 4.07 0 0 1-3.58.54l-.58-.33a4.05 4.05 0 0 1-1.32-3.36 12.1 12.1 0 0 1 5.49-9.5c1.63-.93 3.09-1 4.09-.24a4 4 0 0 1 1.38 3.39z" stroke-width="3.35" stroke="#000" stroke-miterlimit="10" fill="#516f90"/>
    <path class="al" d="M190.35 197.15a10.75 10.75 0 0 1-.54 1.07 11.36 11.36 0 0 1-1.4 1.92l-3.83 2.25-38.21 22.42-.06-.08a4 4 0 0 0 1.39-3.42 12.13 12.13 0 0 0-5.48-9.5 4 4 0 0 0-3.59-.52l29.19-16.91-28.6-16.58a4.07 4.07 0 0 0 3.58-.54 12.11 12.11 0 0 0 5.48-9.5 4 4 0 0 0-1.39-3.41l.06-.09 43 25.23a8 8 0 0 1 .4 7.66z"/>
    <path class="al" d="M147.7 221.32a4 4 0 0 1-1.39 3.42l-8.26-13.11.58-.33a4 4 0 0 1 3.59.52 12.13 12.13 0 0 1 5.48 9.5zM190.35 197.16a6.78 6.78 0 0 1-1 2.43l-1 .56a11.36 11.36 0 0 0 1.4-1.92 10.75 10.75 0 0 0 .6-1.07z"/>
    <path class="am" d="M147.7 221.32a4 4 0 0 1-1.39 3.42c-1 .72-2.46.69-4.09-.25a12.15 12.15 0 0 1-5.49-9.5 4.07 4.07 0 0 1 1.32-3.36l.58-.33a4 4 0 0 1 3.59.52 12.13 12.13 0 0 1 5.48 9.5z"/>
    <path class="ae" d="M106.24 163.12l89.63-52s10.33-3.32 17.22 8.59c6 10.38.28 18.22.28 18.22l-89.76 52.67z"/>
    <ellipse class="af" cx="114.96" cy="176.73" rx="9.35" ry="16.2" transform="rotate(-30 114.962 176.744)"/>
    <path class="al" d="M88.7 177.8l16.92-9.52s7.75-2.5 12.92 6.44c4.5 7.78.21 13.67.21 13.67l-17 10.06z"/>
    <ellipse class="am" cx="95.24" cy="188.01" rx="7.02" ry="12.15" transform="rotate(-30 95.24 188.02)"/>
    <path d="M71.52 190.76l17-8.76s5.68-1.83 9.47 4.73c3.3 5.7.16 10 .16 10l-17.05 9.14z" stroke="#000" stroke-width="2.23" fill="#253342" stroke-linejoin="round" stroke-linecap="round"/>
    <ellipse cx="76.31" cy="198.24" rx="5.14" ry="8.91" transform="rotate(-30 76.32 198.25)" stroke="#000" stroke-width="2.23" fill="#253342" stroke-miterlimit="10"/>
    <path class="ap" d="M102.7 178.72l8.92-4.32-9.79-21.24-7.03 4.06 7.9 21.5zM94.8 157.22l-3.14-1.82 6.65-3.99 3.52 1.75-7.03 4.06z"/>
    <path class="ap" d="M91.66 155.4l3.14 1.82 7.9 21.5-7.03-4.17-4.01-19.15z"/>
    <path d="M78.69 153.7l30-15.94s3.66-1.18 6.11 3a6 6 0 0 1 .1 6.47l-30.06 16.23z" stroke-width="1.17" stroke="#000" stroke-linejoin="round" stroke-linecap="round" fill="#7fd1de"/>
    <ellipse cx="81.78" cy="158.53" rx="3.32" ry="5.74" transform="rotate(-30 81.781 158.533)" stroke-width="1.17" stroke="#000" stroke-miterlimit="10" fill="#00a4bd"/>
    <path d="M71.23 159.9l7.23-4.25s2.59-.83 4.32 2.15a4.27 4.27 0 0 1 .07 4.57l-7.26 4.43z" stroke-width=".83" stroke="#000" fill="#253342" stroke-linejoin="round" stroke-linecap="round"/>
    <ellipse cx="73.42" cy="163.31" rx="2.34" ry="4.06" transform="rotate(-30 73.42 163.313)" stroke-width=".83" stroke="#000" fill="#253342" stroke-miterlimit="10"/>
    <ellipse class="ag" cx="158.47" cy="219.83" rx="10.88" ry="6.28" transform="rotate(-60 158.463 219.834)"/>
    <path class="au" d="M116.79 160.63a11.67 11.67 0 0 1 6.1 3.64 26.44 26.44 0 0 1 4 5.51L209.44 122s-1.4-4-3.61-5.88c-4-3.34-7.42-2.28-7.42-2.28zM82.81 152.86a6.53 6.53 0 0 1 2.09 1.45 6.18 6.18 0 0 1 1.19 2l27.51-15.22a6.59 6.59 0 0 0-1.92-2 3.55 3.55 0 0 0-2.38-.47zM209.57 102.19a14.31 14.31 0 0 1 6.51 3.66 31.57 31.57 0 0 1 4 5.24l25.8-15s-.55-2.54-5.62-5.06a16.53 16.53 0 0 0-8.35-1.91z"/>
</svg>
