<svg xmlns="http://www.w3.org/2000/svg" xmlns:xlink="http://www.w3.org/1999/xlink" viewBox="0 0 182.36 191.83"><defs><style>.cls-1{fill:#f4f5f7;}.cls-2{fill:none;stroke:#dfe1e5;stroke-linecap:round;stroke-miterlimit:10;stroke-width:7px;}.cls-3{fill:url(#linear-gradient);}.cls-4{fill:#344563;}.cls-5{fill:#c1c7d0;}.cls-6{fill:url(#linear-gradient-2);}</style><linearGradient id="linear-gradient" y1="178.8" x2="132.06" y2="178.8" gradientUnits="userSpaceOnUse"><stop offset="0" stop-color="#deebff"/><stop offset="1" stop-color="#0065ff"/></linearGradient><linearGradient id="linear-gradient-2" x1="128.56" y1="147.38" x2="128.56" y2="59.86" gradientUnits="userSpaceOnUse"><stop offset="0" stop-color="#36b37e"/><stop offset="1" stop-color="#79f2c0"/></linearGradient></defs><title>Asset 1</title><g id="Layer_2" data-name="Layer 2"><g id="Layer_1-2" data-name="Layer 1"><rect class="cls-1" x="150.67" y="35.15" width="30.52" height="112.23"/><rect class="cls-1" x="113.3" width="30.52" height="147.38"/><rect class="cls-1" x="75.75" width="30.52" height="147.38"/><rect class="cls-1" x="38.3" width="30.52" height="147.38"/><rect class="cls-1" x="1.17" width="30.52" height="147.38"/><line class="cls-2" x1="3.87" y1="178.65" x2="90.93" y2="178.85"/><line class="cls-2" x1="3.87" y1="178.65" x2="178.86" y2="179.05"/><line class="cls-2" x1="90.93" y1="169.37" x2="90.93" y2="188.33"/><path class="cls-3" d="M128.56,165.87a3.49,3.49,0,0,0-3.5,3.5v6l-30.63,0v-5.94a3.5,3.5,0,0,0-7,0v5.93l-30.12,0v-6a3.5,3.5,0,0,0-7,0v6l-31.06,0v-5.91a3.5,3.5,0,0,0-7,0v5.89l-8.74-.06h0a3.5,3.5,0,0,0,0,7l8.76.06v6.07a3.5,3.5,0,0,0,7,0v-6.05l31.06,0v6a3.5,3.5,0,0,0,7,0v-6l30.12,0v6a3.5,3.5,0,0,0,7,0v-6l30.63,0v6a3.5,3.5,0,0,0,7,0v-19A3.5,3.5,0,0,0,128.56,165.87Z"/><circle class="cls-4" cx="128.56" cy="179.05" r="10"/><line class="cls-2" x1="165.93" y1="169.37" x2="165.93" y2="188.33"/><rect class="cls-5" x="1.17" y="136.71" width="30.52" height="10.67"/><rect class="cls-5" x="38.3" y="125.76" width="30.52" height="21.62"/><rect class="cls-5" x="75.75" y="104.11" width="30.52" height="43.27"/><rect class="cls-6" x="113.3" y="59.86" width="30.52" height="87.52"/><rect class="cls-5" x="150.67" width="30.52" height="147.38"/></g></g></svg>