<svg width="156" height="170" viewBox="0 0 156 170" xmlns="http://www.w3.org/2000/svg">
    <g fill="none" fill-rule="evenodd">
        <path d="M80.195 169.15c-2.005 1.157-5.286 1.157-7.291 0L18.4 137.681c-2.005-1.158-2.005-3.052 0-4.21l73.367-42.358c2.005-1.157 5.286-1.157 7.29 0l54.504 31.468c2.005 1.157 2.005 3.051 0 4.21l-73.367 42.357z" fill="#F9D28C" opacity=".5"/>
        <path d="M45.36 110.088h.013-.014zM16.437 114.63c-.796-.778-1.625-2.112-1.625-4.317V50.86c0-2.816 1.995-6.271 4.434-7.68l15.14-8.74L53.959 23.14l19.574-11.301 15.14-8.741c1.279-.74 2.432-.767 3.243-.227l.009-.002 3.063 2.036-1.881 1.08V68.343l-19.574 11.3-19.573 11.3-19.574 11.302-16.502 9.528v3.822l-.852-.57-.595-.395z" stroke="#33475C" stroke-width="5" stroke-linecap="round" stroke-linejoin="round"/>
        <path d="M19.658 120.714c-.976-.562-1.774-1.945-1.774-3.071v-2.048l5.495-1.265-.206 2.307 14.285-8.247 19.574-11.301 39.147-22.602 39.148 22.602 13.283 7.669v-.642h3.685v4.254h-.003c.009.935-.598 1.87-1.826 2.579l-15.14 8.742-19.573 11.3-19.574 11.3-15.14 8.742c-2.438 1.409-6.428 1.409-8.867 0l-15.14-8.741-19.574-11.301-17.8-10.277z" stroke="#33475C" stroke-width="5" stroke-linecap="round" stroke-linejoin="round"/>
        <path d="M37.458 126.895l19.574 11.302 15.14 8.74c2.439 1.407 6.429 1.407 8.867 0l15.14-8.74 19.574-11.302 19.574-11.3 15.139-8.742c2.439-1.407 2.439-3.711 0-5.12l-15.14-8.74L96.18 70.391 57.032 92.993h-.001l-19.573 11.3-19.574 11.301 19.574 11.302" stroke="#33475C" stroke-width="5" stroke-linecap="round" stroke-linejoin="round"/>
        <path d="M76.605 81.692L57.031 92.993l-19.574 11.3v.001l-19.573 11.3V52.91c0-2.818 1.995-6.273 4.434-7.68l15.14-8.742 19.573-11.3 19.574-11.302 15.14-8.74c2.438-1.408 4.433-.257 4.434 2.56V70.39L76.605 81.691" stroke="#33475C" stroke-width="5" stroke-linecap="round" stroke-linejoin="round"/>
        <path d="M89.003 13.252c1.463-.845 2.66-.153 2.66 1.536v49.55c0 1.689-1.197 3.763-2.66 4.607L25.06 105.863c-1.463.845-2.66.154-2.66-1.536v-49.55c0-1.69 1.197-3.762 2.66-4.607l63.943-36.918zM81.07 124.992c-2.068-1.194-2.068-3.147 0-4.342l23.374-13.494c2.068-1.194 5.451-1.194 7.52 0l12.053 6.96c2.068 1.192 2.068 3.147 0 4.341l-23.373 13.494c-2.068 1.194-5.452 1.194-7.52 0l-12.054-6.959z" stroke="#33475C" stroke-width="5" stroke-linecap="round" stroke-linejoin="round"/>
        <path d="M81.07 124.992c-2.068-1.194-2.068-3.147 0-4.342l23.374-13.494c2.068-1.194 5.451-1.194 7.52 0l12.053 6.96c2.068 1.192 2.068 3.147 0 4.341l-23.373 13.494c-2.068 1.194-5.452 1.194-7.52 0l-12.054-6.959zM39.757 116.106c-2.068-1.194-2.068-3.147 0-4.342L91.434 81.93c2.068-1.194 5.452-1.194 7.52 0l17.673 10.203c2.068 1.195 2.068 3.148 0 4.342L64.95 126.31c-2.068 1.193-5.452 1.193-7.52 0l-17.674-10.204z" stroke="#33475C" stroke-width="5" stroke-linecap="round" stroke-linejoin="round"/>
        <path d="M39.757 116.106c-2.068-1.194-2.068-3.147 0-4.342L91.434 81.93c2.068-1.194 5.452-1.194 7.52 0l17.673 10.203c2.068 1.195 2.068 3.148 0 4.342L64.95 126.31c-2.068 1.193-5.452 1.193-7.52 0l-17.674-10.204zM28.353 109.55l9.105-5.256v-.001l19.573-11.3 30.519-17.62 3.444 1.989-59.196 34.177zM24.173 51.077c-.976.563-1.774 1.93-1.774 3.035v51.67c0 1.107.798 1.551 1.774.987L89.89 68.83c.975-.565 1.773-1.93 1.773-3.036v-51.67c0-1.107-.798-1.55-1.773-.987L24.173 51.077z" stroke="#33475C" stroke-width="5" stroke-linecap="round" stroke-linejoin="round"/>
        <path d="M91.151 14.709c0-.933-.695-1.32-1.517-.845L23.917 51.807c-.302.173-.574.442-.74.727-.17.288-.266.65-.266.992v28.766l68.24-39.399V14.709z" stroke="#33475C" stroke-width="5" stroke-linecap="round" stroke-linejoin="round"/>
        <path d="M89.89 13.136l-65.718 37.94c-.975.565-1.773 1.93-1.773 3.037v3.407l69.264-39.99v-3.407c0-1.106-.798-1.55-1.774-.987zM26.584 84.768L50.55 70.814M26.584 87.657l15.162-8.754M79.234 54.468l9.033-5.26M73.105 61.006l15.163-8.755M79.234 63.518l9.033-5.26M80.686 65.21l7.581-4.413M79.234 68.595l9.033-5.26M81.714 69.69l6.554-3.816M64.46 82.93V70.767c0-.605-.437-.848-.97-.54L27.554 90.975c-.533.308-.97 1.055-.97 1.659v12.164L64.46 82.93zM68.47 57.999v20.604" stroke="#33475C" stroke-width="5" stroke-linecap="round" stroke-linejoin="round"/>
        <path d="M24.173 51.077c-.976.563-1.774 1.93-1.774 3.035v51.67c0 1.107.798 1.551 1.774.987L89.89 68.83c.975-.565 1.773-1.93 1.773-3.036v-51.67c0-1.107-.798-1.55-1.773-.987L24.173 51.077z" stroke="#33475C" stroke-width="5" stroke-linecap="round" stroke-linejoin="round"/>
        <path d="M62.112 60.813c-1.118 2.694-3.032 5.087-5.127 6.41-2.078 1.091-3.98.921-5.101-.454-1.596 1.762-3.02 3.808-4.174 6-.62 1.148-.64 2.358-.052 2.84 4.476 3.4 12.308-.457 17.492-8.62.428-.675.83-1.368 1.206-2.075.634-1.199.634-2.446 0-2.91-1.171-.877-2.62-1.282-4.244-1.19z" stroke="#33475C" stroke-width="5" stroke-linecap="round" stroke-linejoin="round"/>
        <path d="M56.985 65.334c1.404-.899 2.698-2.467 3.516-4.261 1.436-3.081 2.18-6.252 2.113-9.01 0-3.611-2.536-5.075-5.664-3.269-3.128 1.806-5.663 6.198-5.663 9.81-.07 2.848.68 5.169 2.13 6.589.833.848 2.15.9 3.568.141zM111.201 18.905c-.145-.189-.305-.38-.498-.515-.046-.033-.095-.063-.146-.088l-3.384-1.692c-.055-.027-.113-.05-.173-.067-.406-.112-.828.071-1.209.25-4.237 1.994-8.422 4.1-12.547 6.316-3.585 1.926-7.126 3.935-10.618 6.024-2.383 1.424-6.005 2.781-7.225 5.424-1.56 3.382-2.295 7.542-2.296 11.23 0 2.466.825 7.787 1.43 10.228.101.314.291.716.632.954.045.033.094.062.145.087l3.383 1.693c.283.14.652.175 1.133 0l.632-.313 7.985-3.939c.195 2.238.111 4.501-.296 6.711-.042.23-.085.48.021.687.043.084.1.15.165.196.365.255 1.03-.026 1.43-.364 3.65-3.082 6.311-7.222 7.851-11.755l6.95-3.428c1.601-.79 3.55-2.524 4.506-3.699 1.444-1.773 2.351-3.355 3.073-5.276 1.144-3.048 1.957-6.26 1.942-9.515-.014-3.254-.903-6.567-2.886-9.149z" stroke="#33475C" stroke-width="5" stroke-linecap="round" stroke-linejoin="round"/>
        <path d="M107.174 16.61c-.055-.027-.113-.05-.174-.067-.405-.112-.828.071-1.208.25-4.237 1.994-8.422 4.1-12.547 6.316-3.585 1.926-7.126 3.935-10.62 6.023-2.381 1.425-6.003 2.782-7.223 5.425-1.561 3.382-2.295 7.542-2.297 11.23 0 2.466.826 7.787 1.429 10.228.102.314.293.716.633.954.046.033.094.062.145.087l3.384 1.693c-.051-.027-.1-.055-.145-.087-.341-.239-.531-.64-.633-.955-.088-.357-.181-.78-.275-1.242-.552-2.698-1.155-6.88-1.154-8.987 0-3.687.735-7.847 2.296-11.229 1.22-2.644 4.842-3.999 7.225-5.425 3.492-2.089 7.033-4.098 10.618-6.024 3.994-2.145 8.045-4.182 12.144-6.119.135-.064.268-.133.404-.196.38-.18.802-.362 1.208-.25.06.017.118.04.174.067l-3.384-1.692zM90.091 34.87c5.71-3.323 11.607-6.323 17.654-8.98M82.433 39.596c1.497-.978 3.01-1.933 4.535-2.864M103.457 33.765c1.642-.774 3.294-1.523 4.96-2.247M81.728 45.98c5.582-3.685 11.376-7.048 17.344-10.07M93.172 44.96c4.323-2.398 8.746-4.616 13.256-6.643M82.197 51.593c2.534-1.66 5.11-3.256 7.727-4.782" stroke="#33475C" stroke-width="5" stroke-linecap="round" stroke-linejoin="round"/>
        <path d="M111.201 18.905c-.145-.189-.305-.38-.498-.515-.046-.033-.095-.063-.146-.088l-3.384-1.692c-.055-.027-.113-.05-.173-.067-.406-.112-.828.071-1.209.25-4.237 1.994-8.422 4.1-12.547 6.316-3.585 1.926-7.126 3.935-10.618 6.024-2.383 1.424-6.005 2.781-7.225 5.424-1.56 3.382-2.295 7.542-2.296 11.23 0 2.466.825 7.787 1.43 10.228.101.314.291.716.632.954.045.033.094.062.145.087l3.383 1.693c.283.14.652.175 1.133 0l.632-.313 7.985-3.939c.195 2.238.111 4.501-.296 6.711-.042.23-.085.48.021.687.043.084.1.15.165.196.365.255 1.03-.026 1.43-.364 3.65-3.082 6.311-7.222 7.851-11.755l6.95-3.428c1.601-.79 3.55-2.524 4.506-3.699 1.444-1.773 2.351-3.355 3.073-5.276 1.144-3.048 1.957-6.26 1.942-9.515-.014-3.254-.903-6.567-2.886-9.149zM40.337 37.326l.655-.608-2.58-2.58c-2.413-2.414-6.068-3.059-9.87-2.918-3.614.133-6.706 1.456-10.558 3.657C13.38 37.51 8.482 42.155 5.255 48l-.058.103c-.98 1.79-1.77 3.668-2.22 5.45-.524 2.074-.574 3.96-.354 5.592.335 2.505 1.288 4.42 2.65 5.783l2.581 2.58.631-.586c.514.181 1.047.327 1.6.425 1.644.292 3.436.237 5.308-.032 0 0 4.68-.734 7.732-1.996 2.198-.756 5.283-2.27 6.701-3.264 2.877-2.018 6.103-4.924 8.366-9.022 1.665-3.016 2.81-6.677 2.906-11.1.034-1.503-.23-3.135-.76-4.606z" stroke="#33475C" stroke-width="5" stroke-linecap="round" stroke-linejoin="round"/>
        <path d="M25.706 67.9c2.198-.757 5.283-2.272 6.7-3.267 2.878-2.017 6.104-4.923 8.367-9.02 1.665-3.016 2.808-6.677 2.906-11.1.059-2.658-.777-5.74-2.467-7.567-.072-.078-.145-.154-.22-.229-2.413-2.413-6.068-3.058-9.87-2.918-3.613.135-6.705 1.457-10.558 3.66-4.603 2.63-9.502 7.277-12.73 13.12v.001l-.056.103c-.98 1.79-1.771 3.668-2.221 5.45-.524 2.073-.573 3.96-.354 5.591.336 2.506 1.288 4.42 2.65 5.782 1.294 1.294 2.957 2.09 4.812 2.42 1.645.292 3.437.238 5.309-.03 0 0 4.679-.736 7.732-1.997z" stroke="#33475C" stroke-width="5" stroke-linecap="round" stroke-linejoin="round"/>
        <path d="M25.706 67.9c2.198-.757 5.283-2.272 6.7-3.267 2.878-2.017 6.104-4.923 8.367-9.02 1.665-3.016 2.808-6.677 2.906-11.1.059-2.658-.777-5.74-2.467-7.567-2.407-2.6-6.17-3.29-10.09-3.147-3.613.135-6.705 1.457-10.558 3.66-4.603 2.63-9.502 7.277-12.73 13.12v.001l-.056.103c-.98 1.79-1.771 3.668-2.221 5.45-.524 2.073-.573 3.96-.354 5.591.655 4.884 3.654 7.525 7.462 8.202 1.645.292 3.437.238 5.309-.03 0 0 4.679-.736 7.732-1.997z" stroke="#33475C" stroke-width="5" stroke-linecap="round" stroke-linejoin="round"/>
        <path d="M36.167 47.59c.417-.017.146 1.055-.317 1.492-.464.438-.91.399-1.296.334-.96-.16-1.919-.317-2.879-.476-.573-.096-1.544.203-1.819 1.18-.095.34-.049.644-.183.986-.26.667-.875.83-1.277.798l-2.383-.183c-.47-.037-.963-.068-1.518.252-.554.319-1.183 1.103-1.33 1.86-.044.223-.052.454-.177.67-.123.21-.306.314-.46.368-.809.29-1.424-.068-1.977-.454-.553-.386-1.12-.808-1.9-.645-.78.163-1.837 1.146-2.18 2.32-.078.265-.132.557-.3.778-.164.213-.359.26-.523.275-1.042.093-1.927-.303-2.512-1.124M32.82 41.88c.17.192.305.439.397.73-.282.52-.74.65-1.084.675-1.071.074-2.092-.005-3.047-.233-.62-.15-1.487-.183-2.1.833l.259 1.458c-1.394 1.238-2.536.547-3.682.34-.381-.07-.843-.051-1.3.397-.457.448-.765 1.45-.415 1.59-1.777.357-3.4.144-4.728-.621M16.449 62.979c-.174-.186-.311-.428-.407-.715.279-.523.739-.662 1.085-.693 1.078-.095 2.107-.04 3.072.166.626.134 1.5.148 2.107-.872l-.277-1.441c1.39-1.258 2.549-.597 3.706-.417.385.06.85.033 1.306-.423.455-.455.754-1.456.4-1.586 1.787-.392 3.424-.215 4.77.515M27.073 62.219c3.131 3.432 7.106 6.283 10.985 7.142.465.1 1.108-.036 1.266-.566.03-.096.042-.205.035-.328-.017-.302-.167-.55-.307-.773-1.354-2.17-2.634-4.943-3.539-7.551" stroke="#33475C" stroke-width="5" stroke-linecap="round" stroke-linejoin="round"/>
        <path d="M40.773 55.613c1.665-3.016 2.809-6.677 2.906-11.1.059-2.658-.777-5.74-2.467-7.567-.072-.078-.145-.154-.22-.229l-2.58-2.58c-2.413-2.413-6.068-3.058-9.87-2.918-3.613.134-6.706 1.457-10.558 3.658C13.38 37.51 8.482 42.155 5.254 48l-.056.103c-.98 1.79-1.771 3.668-2.221 5.45-.524 2.074-.573 3.96-.354 5.592.336 2.505 1.288 4.42 2.65 5.782l2.58 2.581c.072.071.148.134.22.202.079.073.155.147.236.217.094.081.193.156.29.232.083.064.164.132.249.193.1.074.207.14.31.208.087.057.172.117.26.17.108.066.22.124.332.185.089.05.177.101.268.146.115.058.234.11.35.161.093.042.184.086.277.125.125.05.253.094.38.14.09.032.179.07.27.1.146.047.296.086.444.126.077.021.153.047.232.066.228.057.46.106.695.148 1.644.292 3.436.238 5.308-.03 0 0 4.678-.735 7.732-1.998 1.54-.528 3.506-1.43 5.038-2.264 2.314 1.81 4.833 3.177 7.314 3.726.465.102 1.108-.035 1.267-.565.029-.096.042-.205.035-.328-.017-.302-.168-.549-.308-.774-1.098-1.759-2.143-3.915-2.983-6.058 1.722-1.643 3.379-3.624 4.704-6.022z" stroke="#33475C" stroke-width="5" stroke-linecap="round" stroke-linejoin="round"/>
        <path d="M45.36 110.088h.013-.014z" fill="#33475C"/>
        <path d="M16.437 114.63c-.796-.778-1.625-2.112-1.625-4.317V50.86c0-2.816 1.995-6.271 4.434-7.68l15.14-8.74L53.959 23.14l19.574-11.301 15.14-8.741c1.279-.74 2.432-.767 3.243-.227l.009-.002 3.063 2.036-1.881 1.08V68.343l-19.574 11.3-19.573 11.3-19.574 11.302-16.502 9.528v3.822l-.852-.57-.595-.395z" fill="#CBD6E3"/>
        <path d="M16.437 114.63c-.796-.778-1.625-2.112-1.625-4.317V50.86c0-2.816 1.995-6.271 4.434-7.68l15.14-8.74L53.959 23.14l19.574-11.301 15.14-8.741c1.279-.74 2.432-.767 3.243-.227l.009-.002 3.063 2.036-1.881 1.08V68.343l-19.574 11.3-19.573 11.3-19.574 11.302-16.502 9.528v3.822l-.852-.57-.595-.395z" stroke="#33475C" stroke-linecap="round" stroke-linejoin="round"/>
        <path d="M19.658 120.714c-.976-.562-1.774-1.945-1.774-3.071v-2.048l5.495-1.265-.206 2.307 14.285-8.247 19.574-11.301 39.147-22.602 39.148 22.602 13.283 7.669v-.642h3.685v4.254h-.003c.009.935-.598 1.87-1.826 2.579l-15.14 8.742-19.573 11.3-19.574 11.3-15.14 8.742c-2.438 1.409-6.428 1.409-8.867 0l-15.14-8.741-19.574-11.301-17.8-10.277z" fill="#CBD6E3"/>
        <path d="M19.658 120.714c-.976-.562-1.774-1.945-1.774-3.071v-2.048l5.495-1.265-.206 2.307 14.285-8.247 19.574-11.301 39.147-22.602 39.148 22.602 13.283 7.669v-.642h3.685v4.254h-.003c.009.935-.598 1.87-1.826 2.579l-15.14 8.742-19.573 11.3-19.574 11.3-15.14 8.742c-2.438 1.409-6.428 1.409-8.867 0l-15.14-8.741-19.574-11.301-17.8-10.277z" stroke="#33475C" stroke-linecap="round" stroke-linejoin="round"/>
        <path d="M37.458 126.895l19.574 11.302 15.14 8.74c2.439 1.407 6.429 1.407 8.867 0l15.14-8.74 19.574-11.301 19.574-11.301 15.139-8.741c2.439-1.408 2.439-3.712 0-5.12l-15.14-8.74L96.18 70.39 57.032 92.993h-.001l-19.573 11.3-19.574 11.302 19.574 11.3" fill="#E4EAEF"/>
        <path d="M37.458 126.895l19.574 11.302 15.14 8.74c2.439 1.407 6.429 1.407 8.867 0l15.14-8.74 19.574-11.301 19.574-11.301 15.139-8.741c2.439-1.408 2.439-3.712 0-5.12l-15.14-8.74L96.18 70.39 57.032 92.993h-.001l-19.573 11.3-19.574 11.302 19.574 11.3" stroke="#33475C" stroke-linecap="round" stroke-linejoin="round"/>
        <path d="M76.605 81.692L57.031 92.993l-19.574 11.3v.001l-19.573 11.3V52.91c0-2.818 1.995-6.273 4.434-7.68l15.14-8.742 19.573-11.3 19.574-11.302 15.14-8.74c2.438-1.408 4.433-.257 4.434 2.56V70.39L76.605 81.691" fill="#32475C"/>
        <path d="M76.605 81.692L57.031 92.993l-19.574 11.3v.001l-19.573 11.3V52.91c0-2.818 1.995-6.273 4.434-7.68l15.14-8.742 19.573-11.3 19.574-11.302 15.14-8.74c2.438-1.408 4.433-.257 4.434 2.56V70.39L76.605 81.691" stroke="#33475C" stroke-linecap="round" stroke-linejoin="round"/>
        <path d="M89.003 13.252c1.463-.845 2.66-.153 2.66 1.536v49.55c0 1.689-1.197 3.763-2.66 4.607L25.06 105.863c-1.463.845-2.66.154-2.66-1.536v-49.55c0-1.69 1.197-3.762 2.66-4.607l63.943-36.918z" fill="#415A77"/>
        <path d="M81.07 124.992c-2.068-1.194-2.068-3.147 0-4.342l23.374-13.494c2.068-1.194 5.451-1.194 7.52 0l12.053 6.96c2.068 1.192 2.068 3.147 0 4.341l-23.373 13.494c-2.068 1.194-5.452 1.194-7.52 0l-12.054-6.959z" fill="#EAF0F6"/>
        <path d="M81.07 124.992c-2.068-1.194-2.068-3.147 0-4.342l23.374-13.494c2.068-1.194 5.451-1.194 7.52 0l12.053 6.96c2.068 1.192 2.068 3.147 0 4.341l-23.373 13.494c-2.068 1.194-5.452 1.194-7.52 0l-12.054-6.959z" stroke="#33475C"/>
        <path d="M39.757 116.106c-2.068-1.194-2.068-3.147 0-4.342L91.434 81.93c2.068-1.194 5.452-1.194 7.52 0l17.673 10.203c2.068 1.195 2.068 3.148 0 4.342L64.95 126.31c-2.068 1.193-5.452 1.193-7.52 0l-17.674-10.204z" fill="#CBD6E3"/>
        <path d="M39.757 116.106c-2.068-1.194-2.068-3.147 0-4.342L91.434 81.93c2.068-1.194 5.452-1.194 7.52 0l17.673 10.203c2.068 1.195 2.068 3.148 0 4.342L64.95 126.31c-2.068 1.193-5.452 1.193-7.52 0l-17.674-10.204z" stroke="#33475C" stroke-linecap="round" stroke-linejoin="round"/>
        <path fill="#415A77" d="M28.353 109.55l9.105-5.256v-.001l19.573-11.3 30.519-17.62 3.444 1.989-59.196 34.177z"/>
        <path stroke="#33475C" stroke-linecap="round" stroke-linejoin="round" d="M28.353 109.55l9.105-5.256v-.001l19.573-11.3 30.519-17.62 3.444 1.989-59.196 34.177z"/>
        <path d="M24.173 51.077c-.976.563-1.774 1.93-1.774 3.035v51.67c0 1.107.798 1.551 1.774.987L89.89 68.83c.975-.565 1.773-1.93 1.773-3.036v-51.67c0-1.107-.798-1.55-1.773-.987L24.173 51.077z" fill="#FFF"/>
        <path d="M24.173 51.077c-.976.563-1.774 1.93-1.774 3.035v51.67c0 1.107.798 1.551 1.774.987L89.89 68.83c.975-.565 1.773-1.93 1.773-3.036v-51.67c0-1.107-.798-1.55-1.773-.987L24.173 51.077z" stroke="#33475C" stroke-linecap="round" stroke-linejoin="round"/>
        <path d="M91.151 14.709c0-.933-.695-1.32-1.517-.845L23.917 51.807c-.302.173-.574.442-.74.727-.17.288-.266.65-.266.992v28.766l68.24-39.399V14.709z" fill="#E5F5F8"/>
        <path d="M89.89 13.136l-65.718 37.94c-.975.565-1.773 1.93-1.773 3.037v3.407l69.264-39.99v-3.407c0-1.106-.798-1.55-1.774-.987" fill="#CBD6E3"/>
        <path d="M89.89 13.136l-65.718 37.94c-.975.565-1.773 1.93-1.773 3.037v3.407l69.264-39.99v-3.407c0-1.106-.798-1.55-1.774-.987z" stroke="#33475C" stroke-linecap="round" stroke-linejoin="round"/>
        <path d="M26.584 84.768L50.55 70.814" fill="#33475C"/>
        <path d="M26.584 84.768L50.55 70.814" stroke="#EAF0F6" stroke-linecap="round" stroke-linejoin="round"/>
        <path d="M26.584 87.657l15.162-8.754" fill="#33475C"/>
        <path d="M26.584 87.657l15.162-8.754" stroke="#EAF0F6" stroke-linecap="round" stroke-linejoin="round"/>
        <path d="M79.234 54.468l9.033-5.26" fill="#33475C"/>
        <path d="M79.234 54.468l9.033-5.26" stroke="#EAF0F6" stroke-linecap="round" stroke-linejoin="round"/>
        <path d="M73.105 61.006l15.163-8.755" fill="#33475C"/>
        <path d="M73.105 61.006l15.163-8.755" stroke="#EAF0F6" stroke-linecap="round" stroke-linejoin="round"/>
        <path d="M79.234 63.518l9.033-5.26" fill="#33475C"/>
        <path d="M79.234 63.518l9.033-5.26" stroke="#EAF0F6" stroke-linecap="round" stroke-linejoin="round"/>
        <path d="M80.686 65.21l7.581-4.413" fill="#33475C"/>
        <path d="M80.686 65.21l7.581-4.413" stroke="#EAF0F6" stroke-linecap="round" stroke-linejoin="round"/>
        <path d="M79.234 68.595l9.033-5.26" fill="#33475C"/>
        <path d="M79.234 68.595l9.033-5.26" stroke="#EAF0F6" stroke-linecap="round" stroke-linejoin="round"/>
        <path d="M81.714 69.69l6.554-3.816" fill="#33475C"/>
        <path d="M81.714 69.69l6.554-3.816" stroke="#EAF0F6" stroke-linecap="round" stroke-linejoin="round"/>
        <path d="M64.46 82.93V70.767c0-.605-.437-.848-.97-.54L27.554 90.975c-.533.308-.97 1.055-.97 1.659v12.164L64.46 82.93z" fill="#E5F5F8"/>
        <path d="M68.47 57.999v20.604" fill="#33475C"/>
        <path d="M68.47 57.999v20.604" stroke="#E5F5F8" stroke-width=".5" stroke-linecap="round" stroke-linejoin="round"/>
        <path d="M24.173 51.077c-.976.563-1.774 1.93-1.774 3.035v51.67c0 1.107.798 1.551 1.774.987L89.89 68.83c.975-.565 1.773-1.93 1.773-3.036v-51.67c0-1.107-.798-1.55-1.773-.987L24.173 51.077z" stroke="#33475C" stroke-linecap="round" stroke-linejoin="round"/>
        <path d="M62.112 60.813c-1.118 2.694-3.032 5.087-5.127 6.41-2.078 1.091-3.98.921-5.101-.454-1.596 1.762-3.02 3.808-4.174 6-.62 1.148-.64 2.358-.052 2.84 4.476 3.4 12.308-.457 17.492-8.62.428-.675.83-1.368 1.206-2.075.634-1.199.634-2.446 0-2.91-1.171-.877-2.62-1.282-4.244-1.19" fill="#00A4BF" opacity=".5"/>
        <path d="M56.985 65.334c1.404-.899 2.698-2.467 3.516-4.261 1.436-3.081 2.18-6.252 2.113-9.01 0-3.611-2.536-5.075-5.664-3.269-3.128 1.806-5.663 6.198-5.663 9.81-.07 2.848.68 5.169 2.13 6.589.833.848 2.15.9 3.568.141" fill="#00A4BF" opacity=".5"/>
        <path d="M111.201 18.905c-.145-.189-.305-.38-.498-.515-.046-.033-.095-.063-.146-.088l-3.384-1.692c-.055-.027-.113-.05-.173-.067-.406-.112-.828.071-1.209.25-4.237 1.994-8.422 4.1-12.547 6.316-3.585 1.926-7.126 3.935-10.618 6.024-2.383 1.424-6.005 2.781-7.225 5.424-1.56 3.382-2.295 7.542-2.296 11.23 0 2.466.825 7.787 1.43 10.228.101.314.291.716.632.954.045.033.094.062.145.087l3.383 1.693c.283.14.652.175 1.133 0l.632-.313 7.985-3.939c.195 2.238.111 4.501-.296 6.711-.042.23-.085.48.021.687.043.084.1.15.165.196.365.255 1.03-.026 1.43-.364 3.65-3.082 6.311-7.222 7.851-11.755l6.95-3.428c1.601-.79 3.55-2.524 4.506-3.699 1.444-1.773 2.351-3.355 3.073-5.276 1.144-3.048 1.957-6.26 1.942-9.515-.014-3.254-.903-6.567-2.886-9.149" fill="#FCE9C6"/>
        <path d="M111.201 18.905c-.145-.189-.305-.38-.498-.515-.046-.033-.095-.063-.146-.088l-3.384-1.692c-.055-.027-.113-.05-.173-.067-.406-.112-.828.071-1.209.25-4.237 1.994-8.422 4.1-12.547 6.316-3.585 1.926-7.126 3.935-10.618 6.024-2.383 1.424-6.005 2.781-7.225 5.424-1.56 3.382-2.295 7.542-2.296 11.23 0 2.466.825 7.787 1.43 10.228.101.314.291.716.632.954.045.033.094.062.145.087l3.383 1.693c.283.14.652.175 1.133 0l.632-.313 7.985-3.939c.195 2.238.111 4.501-.296 6.711-.042.23-.085.48.021.687.043.084.1.15.165.196.365.255 1.03-.026 1.43-.364 3.65-3.082 6.311-7.222 7.851-11.755l6.95-3.428c1.601-.79 3.55-2.524 4.506-3.699 1.444-1.773 2.351-3.355 3.073-5.276 1.144-3.048 1.957-6.26 1.942-9.515-.014-3.254-.903-6.567-2.886-9.149z" stroke="#33475C" stroke-linecap="round" stroke-linejoin="round"/>
        <path d="M107.174 16.61c-.055-.027-.113-.05-.174-.067-.405-.112-.828.071-1.208.25-4.237 1.994-8.422 4.1-12.547 6.316-3.585 1.926-7.126 3.935-10.62 6.023-2.381 1.425-6.003 2.782-7.223 5.425-1.561 3.382-2.295 7.542-2.297 11.23 0 2.466.826 7.787 1.429 10.228.102.314.293.716.633.954.046.033.094.062.145.087l3.384 1.693c-.051-.027-.1-.055-.145-.087-.341-.239-.531-.64-.633-.955-.088-.357-.181-.78-.275-1.242-.552-2.698-1.155-6.88-1.154-8.987 0-3.687.735-7.847 2.296-11.229 1.22-2.644 4.842-3.999 7.225-5.425 3.492-2.089 7.033-4.098 10.618-6.024 3.994-2.145 8.045-4.182 12.144-6.119.135-.064.268-.133.404-.196.38-.18.802-.362 1.208-.25.06.017.118.04.174.067l-3.384-1.692z" fill="#F6C364"/>
        <path d="M90.091 34.87c5.71-3.323 11.607-6.323 17.654-8.98M82.433 39.596c1.497-.978 3.01-1.933 4.535-2.864M103.457 33.765c1.642-.774 3.294-1.523 4.96-2.247M81.728 45.98c5.582-3.685 11.376-7.048 17.344-10.07M93.172 44.96c4.323-2.398 8.746-4.616 13.256-6.643M82.197 51.593c2.534-1.66 5.11-3.256 7.727-4.782" stroke="#F6C364" stroke-width="2" stroke-linecap="round" stroke-linejoin="round"/>
        <path d="M111.201 18.905c-.145-.189-.305-.38-.498-.515-.046-.033-.095-.063-.146-.088l-3.384-1.692c-.055-.027-.113-.05-.173-.067-.406-.112-.828.071-1.209.25-4.237 1.994-8.422 4.1-12.547 6.316-3.585 1.926-7.126 3.935-10.618 6.024-2.383 1.424-6.005 2.781-7.225 5.424-1.56 3.382-2.295 7.542-2.296 11.23 0 2.466.825 7.787 1.43 10.228.101.314.291.716.632.954.045.033.094.062.145.087l3.383 1.693c.283.14.652.175 1.133 0l.632-.313 7.985-3.939c.195 2.238.111 4.501-.296 6.711-.042.23-.085.48.021.687.043.084.1.15.165.196.365.255 1.03-.026 1.43-.364 3.65-3.082 6.311-7.222 7.851-11.755l6.95-3.428c1.601-.79 3.55-2.524 4.506-3.699 1.444-1.773 2.351-3.355 3.073-5.276 1.144-3.048 1.957-6.26 1.942-9.515-.014-3.254-.903-6.567-2.886-9.149z" stroke="#33475C" stroke-linecap="round" stroke-linejoin="round"/>
        <path d="M40.337 37.326l.655-.608-2.58-2.58c-2.413-2.414-6.068-3.059-9.87-2.918-3.614.133-6.706 1.456-10.558 3.657C13.38 37.51 8.482 42.155 5.255 48l-.058.103c-.98 1.79-1.77 3.668-2.22 5.45-.524 2.074-.574 3.96-.354 5.592.335 2.505 1.288 4.42 2.65 5.783l2.581 2.58.631-.586c.514.181 1.047.327 1.6.425 1.644.292 3.436.237 5.308-.032 0 0 4.68-.734 7.732-1.996 2.198-.756 5.283-2.27 6.701-3.264 2.877-2.018 6.103-4.924 8.366-9.022 1.665-3.016 2.81-6.677 2.906-11.1.034-1.503-.23-3.135-.76-4.606" fill="#F6C364"/>
        <path d="M25.706 67.9c2.198-.757 5.283-2.272 6.7-3.267 2.878-2.017 6.104-4.923 8.367-9.02 1.665-3.016 2.808-6.677 2.906-11.1.059-2.658-.777-5.74-2.467-7.567-.072-.078-.145-.154-.22-.229-2.413-2.413-6.068-3.058-9.87-2.918-3.613.135-6.705 1.457-10.558 3.66-4.603 2.63-9.502 7.277-12.73 13.12v.001l-.056.103c-.98 1.79-1.771 3.668-2.221 5.45-.524 2.073-.573 3.96-.354 5.591.336 2.506 1.288 4.42 2.65 5.782 1.294 1.294 2.957 2.09 4.812 2.42 1.645.292 3.437.238 5.309-.03 0 0 4.679-.736 7.732-1.997" fill="#DDF3F7"/>
        <path d="M25.706 67.9c2.198-.757 5.283-2.272 6.7-3.267 2.878-2.017 6.104-4.923 8.367-9.02 1.665-3.016 2.808-6.677 2.906-11.1.059-2.658-.777-5.74-2.467-7.567-2.407-2.6-6.17-3.29-10.09-3.147-3.613.135-6.705 1.457-10.558 3.66-4.603 2.63-9.502 7.277-12.73 13.12v.001l-.056.103c-.98 1.79-1.771 3.668-2.221 5.45-.524 2.073-.573 3.96-.354 5.591.655 4.884 3.654 7.525 7.462 8.202 1.645.292 3.437.238 5.309-.03 0 0 4.679-.736 7.732-1.997" fill="#FCE9C6"/>
        <path d="M36.167 47.59c.417-.017.146 1.055-.317 1.492-.464.438-.91.399-1.296.334-.96-.16-1.919-.317-2.879-.476-.573-.096-1.544.203-1.819 1.18-.095.34-.049.644-.183.986-.26.667-.875.83-1.277.798l-2.383-.183c-.47-.037-.963-.068-1.518.252-.554.319-1.183 1.103-1.33 1.86-.044.223-.052.454-.177.67-.123.21-.306.314-.46.368-.809.29-1.424-.068-1.977-.454-.553-.386-1.12-.808-1.9-.645-.78.163-1.837 1.146-2.18 2.32-.078.265-.132.557-.3.778-.164.213-.359.26-.523.275-1.042.093-1.927-.303-2.512-1.124M32.82 41.88c.17.192.305.439.397.73-.282.52-.74.65-1.084.675-1.071.074-2.092-.005-3.047-.233-.62-.15-1.487-.183-2.1.833l.259 1.458c-1.394 1.238-2.536.547-3.682.34-.381-.07-.843-.051-1.3.397-.457.448-.765 1.45-.415 1.59-1.777.357-3.4.144-4.728-.621M16.449 62.979c-.174-.186-.311-.428-.407-.715.279-.523.739-.662 1.085-.693 1.078-.095 2.107-.04 3.072.166.626.134 1.5.148 2.107-.872l-.277-1.441c1.39-1.258 2.549-.597 3.706-.417.385.06.85.033 1.306-.423.455-.455.754-1.456.4-1.586 1.787-.392 3.424-.215 4.77.515" stroke="#F6C364" stroke-width="2" stroke-linecap="round" stroke-linejoin="round"/>
        <path d="M27.073 62.219c3.131 3.432 7.106 6.283 10.985 7.142.465.1 1.108-.036 1.266-.566.03-.096.042-.205.035-.328-.017-.302-.167-.55-.307-.773-1.354-2.17-2.634-4.943-3.539-7.551" fill="#FCE9C6"/>
        <path d="M40.773 55.613c1.665-3.016 2.809-6.677 2.906-11.1.059-2.658-.777-5.74-2.467-7.567-.072-.078-.145-.154-.22-.229l-2.58-2.58c-2.413-2.413-6.068-3.058-9.87-2.918-3.613.134-6.706 1.457-10.558 3.658C13.38 37.51 8.482 42.155 5.254 48l-.056.103c-.98 1.79-1.771 3.668-2.221 5.45-.524 2.074-.573 3.96-.354 5.592.336 2.505 1.288 4.42 2.65 5.782l2.58 2.581c.072.071.148.134.22.202.079.073.155.147.236.217.094.081.193.156.29.232.083.064.164.132.249.193.1.074.207.14.31.208.087.057.172.117.26.17.108.066.22.124.332.185.089.05.177.101.268.146.115.058.234.11.35.161.093.042.184.086.277.125.125.05.253.094.38.14.09.032.179.07.27.1.146.047.296.086.444.126.077.021.153.047.232.066.228.057.46.106.695.148 1.644.292 3.436.238 5.308-.03 0 0 4.678-.735 7.732-1.998 1.54-.528 3.506-1.43 5.038-2.264 2.314 1.81 4.833 3.177 7.314 3.726.465.102 1.108-.035 1.267-.565.029-.096.042-.205.035-.328-.017-.302-.168-.549-.308-.774-1.098-1.759-2.143-3.915-2.983-6.058 1.722-1.643 3.379-3.624 4.704-6.022z" stroke="#33475C" stroke-linecap="round" stroke-linejoin="round"/>
    </g>
</svg>
