<svg width="80" height="84" viewBox="0 0 80 84" xmlns="http://www.w3.org/2000/svg" xmlns:xlink="http://www.w3.org/1999/xlink">
    <defs>
        <path id="a" d="M0 .584h79.565V46H0z"/>
    </defs>
    <g fill="none" fill-rule="evenodd">
        <g transform="translate(0 37.19)">
            <mask id="b" fill="#fff">
                <use xlink:href="#a"/>
            </mask>
            <path d="M45.98 1.124c-1.246-.72-3.287-.72-4.534 0L.93 24.516c-1.247.719-1.24 1.886.015 2.592L33.57 45.47c1.254.706 3.308.706 4.563 0L78.62 22.57c1.255-.707 1.262-1.874.014-2.593L45.98 1.124z" fill="#00A4BF" opacity=".2" mask="url(#b)"/>
        </g>
        <path d="M52.78 4.352c0-1.65-1.17-2.324-2.598-1.5L11.164 25.379c-1.43.826-2.598 2.85-2.598 4.5v12.488c0 1.649 1.169 2.324 2.598 1.5l39.018-22.528c1.429-.825 2.598-2.85 2.598-4.5V4.352z" stroke="#33475C" stroke-width="5" stroke-linecap="round" stroke-linejoin="round"/>
        <path d="M52.78 4.352c0-1.65-1.17-2.324-2.598-1.5L11.164 25.379c-1.43.826-2.598 2.85-2.598 4.5v12.488c0 1.649 1.169 2.324 2.598 1.5l39.018-22.528c1.429-.825 2.598-2.85 2.598-4.5V4.352z" stroke="#33475C" stroke-width="5" stroke-linecap="round" stroke-linejoin="round"/>
        <path d="M47.533 9.877c0-1.145-.98-1.516-2.176-.824l-20.08 11.593c-1.197.691-2.176 2.193-2.176 3.337 0 1.145.979 1.516 2.176.825l20.08-11.593c1.197-.692 2.176-2.193 2.176-3.338zM40.365 21.296c0-1.145-.98-1.516-2.176-.824l-12.912 7.454c-1.197.69-2.176 2.193-2.176 3.338 0 1.144.979 1.515 2.176.824l12.912-7.455c1.197-.691 2.176-2.192 2.176-3.337zM20.94 29.314c0-2.983-2.114-4.204-4.698-2.712-2.584 1.491-4.699 5.154-4.699 8.137 0 2.985 2.115 4.206 4.7 2.714 2.583-1.492 4.697-5.156 4.697-8.139z" stroke="#33475C" stroke-width="5" stroke-linecap="round" stroke-linejoin="round"/>
        <path d="M14.85 32.354c0-.406-.288-.573-.641-.37-.352.204-.64.703-.64 1.11 0 .406.288.573.64.369.353-.203.641-.702.641-1.11zM18.657 30.168c0-.407-.288-.573-.64-.37-.353.203-.64.703-.64 1.109 0 .407.287.573.64.37.352-.203.64-.703.64-1.109zM14.21 35.283c.392.334.984.36 1.653-.027.67-.386 1.262-1.096 1.654-1.882M58.864 36.932c1.677-.974.758-2.304.258-2.856-.069-.068-.13-.135-.197-.203-.035-.034-.061-.056-.061-.056l.006-.001c-3.54-3.621-5.051-7.248-5.69-9.595-.472-1.7-1.58-1.411-2.114-1.155l-.299.172-40.098 23.08s-1.833 1.286-1.359 3.164c.845 2.577 2.649 6.223 6.508 9.748.717.564 2.26 1.374 4.327.175l38.719-22.473z" stroke="#33475C" stroke-width="5" stroke-linecap="round" stroke-linejoin="round"/>
        <path d="M23.293 48.094c1.414 2.233 1.655 4.895-.212 6.493-1.867 1.598-5.604 1.159-7.398-1.674-1.794-2.832-.593-6.398 1.65-7.403 2.242-1.004 4.546.352 5.96 2.584zM25.786 44.755c-.58 0-1.142-.3-1.452-.838-.463-.801-.188-1.825.613-2.288l20.079-11.593c.802-.462 1.826-.188 2.289.614.462.8.188 1.825-.613 2.288L26.622 44.53c-.264.152-.552.224-.836.224zM28.717 50.38c-.579 0-1.142-.301-1.452-.838-.463-.802-.188-1.825.613-2.288l12.912-7.455c.802-.461 1.826-.188 2.288.613.463.802.188 1.826-.613 2.289l-12.912 7.454c-.264.153-.552.225-.836.225z" stroke="#33475C" stroke-width="5" stroke-linecap="round" stroke-linejoin="round"/>
        <path d="M19.198 53.11c.823.293 1.72.188 2.281-.292.442-.378.641-.878.66-1.416M17.816 50.613c.167.263.195.576-.025.764-.22.187-.66.136-.87-.198-.211-.333-.07-.752.194-.87s.535.041.7.304zM21.448 48.48c.166.263.195.575-.025.764-.22.187-.659.135-.87-.199-.21-.333-.07-.753.194-.87.264-.118.534.042.701.305zM64.68 38.712c-1.451-.786-3.807-.754-5.236.071l-39.02 22.528c-1.428.825-1.41 2.142.04 2.928l11.249 6.09c1.45.785 3.807.753 5.236-.072L75.967 47.73c1.429-.825 1.41-2.143-.04-2.928l-11.247-6.09z" stroke="#33475C" stroke-width="5" stroke-linecap="round" stroke-linejoin="round"/>
        <path d="M64.68 38.712c-1.451-.786-3.807-.754-5.236.071l-39.02 22.528c-1.428.825-1.41 2.142.04 2.928l11.249 6.09c1.45.785 3.807.753 5.236-.072L75.967 47.73c1.429-.825 1.41-2.143-.04-2.928l-11.247-6.09z" stroke="#33475C" stroke-width="5" stroke-linecap="round" stroke-linejoin="round"/>
        <path d="M61.707 42.973c-1.023-.554-2.839-.442-4.036.249l-20.08 11.593c-1.197.69-1.339 1.71-.316 2.263 1.023.554 2.839.442 4.036-.25l20.08-11.591c1.197-.692 1.339-1.71.316-2.264zM61.046 50.634c-1.023-.554-2.839-.441-4.036.25l-12.912 7.454c-1.197.692-1.339 1.71-.316 2.264 1.023.553 2.84.44 4.036-.25l12.912-7.454c1.197-.691 1.34-1.71.316-2.264zM38.765 60.302c-2.667-1.444-6.963-1.404-9.548.087-2.584 1.492-2.516 3.894.15 5.339 2.668 1.443 6.965 1.404 9.549-.088 2.584-1.491 2.516-3.894-.151-5.338z" stroke="#33475C" stroke-width="5" stroke-linecap="round" stroke-linejoin="round"/>
        <path d="M33.53 64.995c1.156.068 2.356-.14 3.223-.64.868-.5 1.202-1.178 1.041-1.822M31.82 63.282c-.34-.184-.884-.179-1.212.011-.33.19-.32.494.019.677.339.184.884.18 1.212-.01.328-.19.32-.494-.02-.678zM35.76 61.002c-.34-.184-.884-.179-1.212.011-.329.189-.32.495.018.678.34.183.884.178 1.212-.011.328-.19.32-.494-.018-.678z" stroke="#33475C" stroke-width="5" stroke-linecap="round" stroke-linejoin="round"/>
        <path d="M52.78 4.352c0-1.65-1.17-2.324-2.598-1.5L11.164 25.379c-1.43.826-2.598 2.85-2.598 4.5v12.488c0 1.649 1.169 2.324 2.598 1.5l39.018-22.528c1.429-.825 2.598-2.85 2.598-4.5V4.352z" fill="#FEF8F0"/>
        <path d="M52.78 4.352c0-1.65-1.17-2.324-2.598-1.5L11.164 25.379c-1.43.826-2.598 2.85-2.598 4.5v12.488c0 1.649 1.169 2.324 2.598 1.5l39.018-22.528c1.429-.825 2.598-2.85 2.598-4.5V4.352z" stroke="#33475C" stroke-linecap="round" stroke-linejoin="round"/>
        <path d="M47.533 9.877c0-1.145-.98-1.516-2.176-.824l-20.08 11.593c-1.197.691-2.176 2.193-2.176 3.337 0 1.145.979 1.516 2.176.825l20.08-11.593c1.197-.692 2.176-2.193 2.176-3.338" fill="#FBE1B2"/>
        <path d="M47.533 9.877c0-1.145-.98-1.516-2.176-.824l-20.08 11.593c-1.197.691-2.176 2.193-2.176 3.337 0 1.145.979 1.516 2.176.825l20.08-11.593c1.197-.692 2.176-2.193 2.176-3.338z" stroke="#33475C" stroke-linecap="round" stroke-linejoin="round"/>
        <path d="M40.365 21.296c0-1.145-.98-1.516-2.176-.824l-12.912 7.454c-1.197.69-2.176 2.193-2.176 3.338 0 1.144.979 1.515 2.176.824l12.912-7.455c1.197-.691 2.176-2.192 2.176-3.337" fill="#FBE1B2"/>
        <path d="M40.365 21.296c0-1.145-.98-1.516-2.176-.824l-12.912 7.454c-1.197.69-2.176 2.193-2.176 3.338 0 1.144.979 1.515 2.176.824l12.912-7.455c1.197-.691 2.176-2.192 2.176-3.337z" stroke="#33475C" stroke-linecap="round" stroke-linejoin="round"/>
        <path d="M20.94 29.314c0-2.983-2.114-4.204-4.698-2.712-2.584 1.491-4.699 5.154-4.699 8.137 0 2.985 2.115 4.206 4.7 2.714 2.583-1.492 4.697-5.156 4.697-8.139" fill="#FBE1B2"/>
        <path d="M20.94 29.314c0-2.983-2.114-4.204-4.698-2.712-2.584 1.491-4.699 5.154-4.699 8.137 0 2.985 2.115 4.206 4.7 2.714 2.583-1.492 4.697-5.156 4.697-8.139z" stroke="#33475C" stroke-linecap="round" stroke-linejoin="round"/>
        <path d="M14.85 32.354c0-.406-.288-.573-.641-.37-.352.204-.64.703-.64 1.11 0 .406.288.573.64.369.353-.203.641-.702.641-1.11M18.657 30.168c0-.407-.288-.573-.64-.37-.353.203-.64.703-.64 1.109 0 .407.287.573.64.37.352-.203.64-.703.64-1.109" fill="#33475C"/>
        <path d="M14.21 35.283c.392.334.984.36 1.653-.027.67-.386 1.262-1.096 1.654-1.882" stroke="#33475C" stroke-linecap="round" stroke-linejoin="round"/>
        <path d="M58.864 36.932c1.677-.974.758-2.304.258-2.856-.069-.068-.13-.135-.197-.203-.035-.034-.061-.056-.061-.056l.006-.001c-3.54-3.621-5.051-7.248-5.69-9.595-.472-1.7-1.58-1.411-2.114-1.155l-.299.172-40.098 23.08s-1.833 1.286-1.359 3.164c.845 2.577 2.649 6.223 6.508 9.748.717.564 2.26 1.374 4.327.175l38.719-22.473z" fill="#FFF3EE"/>
        <path d="M58.864 36.932c1.677-.974.758-2.304.258-2.856-.069-.068-.13-.135-.197-.203-.035-.034-.061-.056-.061-.056l.006-.001c-3.54-3.621-5.051-7.248-5.69-9.595-.472-1.7-1.58-1.411-2.114-1.155l-.299.172-40.098 23.08s-1.833 1.286-1.359 3.164c.845 2.577 2.649 6.223 6.508 9.748.717.564 2.26 1.374 4.327.175l38.719-22.473z" stroke="#33475C" stroke-linecap="round" stroke-linejoin="round"/>
        <path d="M23.293 48.094c1.414 2.233 1.655 4.895-.212 6.493-1.867 1.598-5.604 1.159-7.398-1.674-1.794-2.832-.593-6.398 1.65-7.403 2.242-1.004 4.546.352 5.96 2.584" fill="#FFC7AA"/>
        <path d="M23.293 48.094c1.414 2.233 1.655 4.895-.212 6.493-1.867 1.598-5.604 1.159-7.398-1.674-1.794-2.832-.593-6.398 1.65-7.403 2.242-1.004 4.546.352 5.96 2.584z" stroke="#33475C" stroke-linecap="round" stroke-linejoin="round"/>
        <path d="M25.786 44.755c-.58 0-1.142-.3-1.452-.838-.463-.801-.188-1.825.613-2.288l20.079-11.593c.802-.462 1.826-.188 2.289.614.462.8.188 1.825-.613 2.288L26.622 44.53c-.264.152-.552.224-.836.224" fill="#FFC7AA"/>
        <path d="M25.786 44.755c-.58 0-1.142-.3-1.452-.838-.463-.801-.188-1.825.613-2.288l20.079-11.593c.802-.462 1.826-.188 2.289.614.462.8.188 1.825-.613 2.288L26.622 44.53c-.264.152-.552.224-.836.224z" stroke="#33475C" stroke-linecap="round" stroke-linejoin="round"/>
        <path d="M28.717 50.38c-.579 0-1.142-.301-1.452-.838-.463-.802-.188-1.825.613-2.288l12.912-7.455c.802-.461 1.826-.188 2.288.613.463.802.188 1.826-.613 2.289l-12.912 7.454c-.264.153-.552.225-.836.225" fill="#FFC7AA"/>
        <path d="M28.717 50.38c-.579 0-1.142-.301-1.452-.838-.463-.802-.188-1.825.613-2.288l12.912-7.455c.802-.461 1.826-.188 2.288.613.463.802.188 1.826-.613 2.289l-12.912 7.454c-.264.153-.552.225-.836.225zM19.198 53.11c.823.293 1.72.188 2.281-.292.442-.378.641-.878.66-1.416" stroke="#33475C" stroke-linecap="round" stroke-linejoin="round"/>
        <path d="M17.816 50.613c.167.263.195.576-.025.764-.22.187-.66.136-.87-.198-.211-.333-.07-.752.194-.87s.535.041.7.304M21.448 48.48c.166.263.195.575-.025.764-.22.187-.659.135-.87-.199-.21-.333-.07-.753.194-.87.264-.118.534.042.701.305" fill="#33475C"/>
        <path d="M64.68 38.712c-1.451-.786-3.807-.754-5.236.071l-39.02 22.528c-1.428.825-1.41 2.142.04 2.928l11.249 6.09c1.45.785 3.807.753 5.236-.072L75.967 47.73c1.429-.825 1.41-2.143-.04-2.928l-11.247-6.09z" fill="#FFF1EE"/>
        <path d="M64.68 38.712c-1.451-.786-3.807-.754-5.236.071l-39.02 22.528c-1.428.825-1.41 2.142.04 2.928l11.249 6.09c1.45.785 3.807.753 5.236-.072L75.967 47.73c1.429-.825 1.41-2.143-.04-2.928l-11.247-6.09z" stroke="#33475C" stroke-linecap="round" stroke-linejoin="round"/>
        <path d="M61.707 42.973c-1.023-.554-2.839-.442-4.036.249l-20.08 11.593c-1.197.69-1.339 1.71-.316 2.263 1.023.554 2.839.442 4.036-.25l20.08-11.591c1.197-.692 1.339-1.71.316-2.264" fill="#FFBCAA"/>
        <path d="M61.707 42.973c-1.023-.554-2.839-.442-4.036.249l-20.08 11.593c-1.197.69-1.339 1.71-.316 2.263 1.023.554 2.839.442 4.036-.25l20.08-11.591c1.197-.692 1.339-1.71.316-2.264z" stroke="#33475C" stroke-linecap="round" stroke-linejoin="round"/>
        <path d="M61.046 50.634c-1.023-.554-2.839-.441-4.036.25l-12.912 7.454c-1.197.692-1.339 1.71-.316 2.264 1.023.553 2.84.44 4.036-.25l12.912-7.454c1.197-.691 1.34-1.71.316-2.264" fill="#FFBCAA"/>
        <path d="M61.046 50.634c-1.023-.554-2.839-.441-4.036.25l-12.912 7.454c-1.197.692-1.339 1.71-.316 2.264 1.023.553 2.84.44 4.036-.25l12.912-7.454c1.197-.691 1.34-1.71.316-2.264z" stroke="#33475C" stroke-linecap="round" stroke-linejoin="round"/>
        <path d="M38.765 60.302c-2.667-1.444-6.963-1.404-9.548.087-2.584 1.492-2.516 3.894.15 5.339 2.668 1.443 6.965 1.404 9.549-.088 2.584-1.491 2.516-3.894-.151-5.338" fill="#FFBCAA"/>
        <path d="M38.765 60.302c-2.667-1.444-6.963-1.404-9.548.087-2.584 1.492-2.516 3.894.15 5.339 2.668 1.443 6.965 1.404 9.549-.088 2.584-1.491 2.516-3.894-.151-5.338z" stroke="#33475C" stroke-linecap="round" stroke-linejoin="round"/>
        <path d="M33.53 64.995c1.156.068 2.356-.14 3.223-.64.868-.5 1.202-1.178 1.041-1.822" stroke="#33475C" stroke-linecap="round" stroke-linejoin="round"/>
        <path d="M31.82 63.282c-.34-.184-.884-.179-1.212.011-.33.19-.32.494.019.677.339.184.884.18 1.212-.01.328-.19.32-.494-.02-.678M35.76 61.002c-.34-.184-.884-.179-1.212.011-.329.189-.32.495.018.678.34.183.884.178 1.212-.011.328-.19.32-.494-.018-.678" fill="#33475C"/>
    </g>
</svg>
