<svg width="83" height="64" viewBox="0 0 83 64" fill="none" xmlns="http://www.w3.org/2000/svg">
<path d="M70.1656 22.3467C69.3439 22.3465 68.5243 22.4274 67.7185 22.5882C67.7185 22.5101 67.7185 22.4284 67.7185 22.3467C67.7185 16.42 65.3642 10.736 61.1733 6.5452C56.9825 2.35438 51.2985 0 45.3718 0C39.4451 0 33.7611 2.35438 29.5703 6.5452C25.3795 10.736 23.0251 16.42 23.0251 22.3467C23.0251 22.4675 23.0251 22.5918 23.0251 22.7019C21.1911 22.2433 19.2767 22.2091 17.4275 22.6018C15.5782 22.9945 13.843 23.8038 12.3536 24.9682C10.8643 26.1325 9.66015 27.6212 8.8328 29.321C8.00545 31.0208 7.57669 32.8869 7.57913 34.7774V39.6217C7.57819 41.6319 6.77949 43.5595 5.35843 44.9812C3.93738 46.4029 2.01015 47.2026 0 47.2044H70.1656C73.4624 47.2044 76.6242 45.8948 78.9554 43.5636C81.2866 41.2324 82.5962 38.0706 82.5962 34.7738C82.5962 31.477 81.2866 28.3152 78.9554 25.984C76.6242 23.6528 73.4624 22.3432 70.1656 22.3432V22.3467Z" fill="#0065FF"/>
<path style="mix-blend-mode:multiply" d="M52.0952 43.1414L35.7116 26.7543L21.3454 41.1205C21.1792 41.2859 21.066 41.497 21.02 41.7269C20.9741 41.9569 20.9975 42.1952 21.0873 42.4118C21.1771 42.6284 21.3293 42.8134 21.5245 42.9433C21.7197 43.0732 21.9491 43.1422 22.1836 43.1414H28.5765V47.2044H42.8326V43.1414H52.0952Z" fill="url(#paint0_linear)"/>
<path d="M36.6276 36.3224H29.6913C29.4041 36.3206 29.1238 36.2343 28.8853 36.0743C28.6468 35.9142 28.4607 35.6876 28.3501 35.4225C28.2395 35.1574 28.2094 34.8657 28.2635 34.5836C28.3176 34.3016 28.4535 34.0416 28.6542 33.8363L43.642 18.8201C43.7779 18.684 43.9393 18.5761 44.1169 18.5024C44.2946 18.4288 44.485 18.3909 44.6773 18.3909C44.8696 18.3909 45.06 18.4288 45.2377 18.5024C45.4153 18.5761 45.5767 18.684 45.7126 18.8201L60.7039 33.8114C60.9047 34.0168 61.0406 34.2767 61.0947 34.5588C61.1488 34.8408 61.1187 35.1326 61.0081 35.3976C60.8975 35.6627 60.7114 35.8894 60.4729 36.0494C60.2344 36.2094 59.9541 36.2957 59.6669 36.2975H52.7341V64.0001H36.6276V36.3224Z" fill="url(#paint1_linear)"/>
<path d="M36.6276 36.3224H29.6913C29.4041 36.3206 29.1238 36.2343 28.8853 36.0743C28.6468 35.9142 28.4607 35.6876 28.3501 35.4225C28.2395 35.1574 28.2094 34.8657 28.2635 34.5836C28.3176 34.3016 28.4535 34.0416 28.6542 33.8363L43.642 18.8201C43.7779 18.684 43.9393 18.5761 44.1169 18.5024C44.2946 18.4288 44.485 18.3909 44.6773 18.3909C44.8696 18.3909 45.06 18.4288 45.2377 18.5024C45.4153 18.5761 45.5767 18.684 45.7126 18.8201L60.7039 33.8114C60.9047 34.0168 61.0406 34.2767 61.0947 34.5588C61.1488 34.8408 61.1187 35.1326 61.0081 35.3976C60.8975 35.6627 60.7114 35.8894 60.4729 36.0494C60.2344 36.2094 59.9541 36.2957 59.6669 36.2975H52.7341V64.0001H36.6276V36.3224Z" fill="url(#paint2_linear)"/>
<defs>
    <linearGradient id="paint0_linear" x1="20.9973" y1="36.9794" x2="52.0952" y2="36.9794" gradientUnits="userSpaceOnUse">
        <stop stop-color="#6C798F" stop-opacity="0.1"/>
        <stop offset="1" stop-color="#6C798F"/>
    </linearGradient>
    <linearGradient id="paint1_linear" x1="44.6791" y1="18.401" x2="44.6791" y2="64.0392" gradientUnits="userSpaceOnUse">
        <stop stop-color="#3DC7DC"/>
        <stop offset="0.09" stop-color="#3DC7DC"/>
        <stop offset="0.61" stop-color="#3DC7DC"/>
        <stop offset="0.67" stop-color="#3FC8DC" stop-opacity="0.98"/>
        <stop offset="0.72" stop-color="#46CADE" stop-opacity="0.94"/>
        <stop offset="0.77" stop-color="#52CDE0" stop-opacity="0.85"/>
        <stop offset="0.82" stop-color="#62D2E3" stop-opacity="0.74"/>
        <stop offset="0.87" stop-color="#78D8E6" stop-opacity="0.59"/>
        <stop offset="0.92" stop-color="#92E0EB" stop-opacity="0.41"/>
        <stop offset="0.96" stop-color="#B0E9F0" stop-opacity="0.2"/>
        <stop offset="1" stop-color="#CDF1F5" stop-opacity="0"/>
    </linearGradient>
    <linearGradient id="paint2_linear" x1="44.6791" y1="18.401" x2="44.6791" y2="64.0392" gradientUnits="userSpaceOnUse">
        <stop stop-color="#3DC7DC"/>
        <stop offset="0.09" stop-color="#3DC7DC"/>
        <stop offset="0.61" stop-color="#3DC7DC"/>
        <stop offset="0.67" stop-color="#3FC8DC" stop-opacity="0.98"/>
        <stop offset="0.72" stop-color="#46CADE" stop-opacity="0.94"/>
        <stop offset="0.77" stop-color="#52CDE0" stop-opacity="0.85"/>
        <stop offset="0.82" stop-color="#62D2E3" stop-opacity="0.74"/>
        <stop offset="0.87" stop-color="#78D8E6" stop-opacity="0.59"/>
        <stop offset="0.92" stop-color="#92E0EB" stop-opacity="0.41"/>
        <stop offset="0.96" stop-color="#B0E9F0" stop-opacity="0.2"/>
        <stop offset="1" stop-color="#CDF1F5" stop-opacity="0"/>
    </linearGradient>
</defs>
</svg>
