<svg xmlns="http://www.w3.org/2000/svg" xmlns:xlink="http://www.w3.org/1999/xlink" viewBox="0 0 218.965 131.354"><defs><style>.cls-1{fill:url(#linear-gradient);}.cls-2{fill:url(#linear-gradient-2);}.cls-3{fill:url(#linear-gradient-3);}.cls-4{fill:url(#linear-gradient-4);}.cls-5{isolation:isolate;}.cls-6{fill:#344563;}.cls-7{fill:#0065ff;}.cls-8{fill:#253858;}.cls-9{fill:url(#linear-gradient-5);}.cls-10{fill:url(#B300-B100);}.cls-11{clip-path:url(#clip-path);}.cls-12{fill:#ffab00;}.cls-13{clip-path:url(#clip-path-2);}.cls-14{fill:#ff8b00;}.cls-15,.cls-20{fill:#cfd4db;}.cls-16,.cls-23,.cls-26,.cls-31,.cls-36{fill:none;}.cls-16{stroke:#fff;}.cls-16,.cls-23,.cls-31,.cls-36{stroke-miterlimit:10;}.cls-16,.cls-23{stroke-width:2px;}.cls-17{fill:#fff;}.cls-18{fill:#99c1ff;}.cls-19{fill:#e5e8ec;}.cls-20,.cls-21,.cls-25,.cls-29,.cls-30{mix-blend-mode:multiply;}.cls-21{fill:url(#linear-gradient-8);}.cls-22{fill:url(#linear-gradient-9);}.cls-23{stroke:#e5e8ec;}.cls-24{fill:#57d9a3;}.cls-27{fill:#fdc150;}.cls-28{fill:#fafbfc;}.cls-29,.cls-30{fill:#c1c7d0;}.cls-30{opacity:0.69;}.cls-31{stroke:#ff991f;stroke-width:1.5px;stroke-dasharray:3 4;}.cls-31,.cls-36{stroke-linecap:round;}.cls-32{fill:url(#linear-gradient-10);}.cls-33{fill:url(#B300-B100-2);}.cls-34{clip-path:url(#clip-path-3);}.cls-35{clip-path:url(#clip-path-4);}.cls-36{stroke:#c1c7d0;}.cls-37{fill:url(#linear-gradient-13);}.cls-38{fill:url(#linear-gradient-14);}</style><linearGradient id="linear-gradient" x1="98.297" y1="-40.949" x2="116.745" y2="-59.398" gradientTransform="translate(91.654 29.352) rotate(46.988)" gradientUnits="userSpaceOnUse"><stop offset="0" stop-color="#0065ff"/><stop offset="0.722" stop-color="#66a3ff"/></linearGradient><linearGradient id="linear-gradient-2" x1="90.546" y1="-43.443" x2="104.006" y2="-56.903" gradientTransform="translate(91.654 29.352) rotate(46.988)" gradientUnits="userSpaceOnUse"><stop offset="0" stop-color="#0049b0"/><stop offset="1" stop-color="#0065ff"/></linearGradient><linearGradient id="linear-gradient-3" x1="17.346" y1="61.47" x2="40.414" y2="38.401" gradientTransform="matrix(1, 0, 0, 1, 0, 0)" xlink:href="#linear-gradient"/><linearGradient id="linear-gradient-4" x1="7.654" y1="58.351" x2="24.485" y2="41.52" gradientTransform="matrix(1, 0, 0, 1, 0, 0)" xlink:href="#linear-gradient-2"/><linearGradient id="linear-gradient-5" x1="96.985" y1="-62.968" x2="103.415" y2="-69.399" xlink:href="#linear-gradient-2"/><linearGradient id="B300-B100" x1="102.128" y1="-63.721" x2="107.055" y2="-68.647" gradientTransform="translate(91.654 29.352) rotate(46.988)" gradientUnits="userSpaceOnUse"><stop offset="0" stop-color="#0065ff"/><stop offset="1" stop-color="#66a3ff"/></linearGradient><clipPath id="clip-path"><path id="_Clipping_Path_" data-name="&lt;Clipping Path&gt;" class="cls-1" d="M211.336,66.419a6.345,6.345,0,0,0-8.968-.311L188.448,79.092h0a12.69,12.69,0,0,0,17.936.623l7.814-7.29a2,2,0,0,0,.1-2.832Z"/></clipPath><clipPath id="clip-path-2"><path id="_Clipping_Path_2" data-name="&lt;Clipping Path&gt;" class="cls-2" d="M196.886,53.866l-7.814,7.29a12.69,12.69,0,0,0-.623,17.936h0l13.919-12.985a6.345,6.345,0,0,0,.311-8.968l-2.962-3.175A2,2,0,0,0,196.886,53.866Z"/></clipPath><linearGradient id="linear-gradient-8" x1="84.101" y1="105.787" x2="84.101" y2="19.699" gradientUnits="userSpaceOnUse"><stop offset="0" stop-color="#e5e8ec" stop-opacity="0.1"/><stop offset="0.078" stop-color="#e1e4e9" stop-opacity="0.271"/><stop offset="0.182" stop-color="#dce0e5" stop-opacity="0.464"/><stop offset="0.291" stop-color="#d8dce2" stop-opacity="0.629"/><stop offset="0.405" stop-color="#d5d9df" stop-opacity="0.764"/><stop offset="0.525" stop-color="#d2d7dd" stop-opacity="0.869"/><stop offset="0.655" stop-color="#d0d5dc" stop-opacity="0.943"/><stop offset="0.802" stop-color="#cfd4db" stop-opacity="0.986"/><stop offset="1" stop-color="#cfd4db"/></linearGradient><linearGradient id="linear-gradient-9" x1="72.429" y1="96.289" x2="158.906" y2="9.812" gradientUnits="userSpaceOnUse"><stop offset="0" stop-color="#172b4d"/><stop offset="0.577" stop-color="#192d4e"/><stop offset="0.784" stop-color="#203354"/><stop offset="0.932" stop-color="#2b3d5c"/><stop offset="1" stop-color="#344563"/></linearGradient><linearGradient id="linear-gradient-10" x1="15.705" y1="33.937" x2="23.747" y2="25.895" gradientTransform="matrix(1, 0, 0, 1, 0, 0)" xlink:href="#linear-gradient-2"/><linearGradient id="B300-B100-2" x1="22.137" y1="32.995" x2="28.297" y2="26.835" gradientTransform="matrix(1, 0, 0, 1, 0, 0)" xlink:href="#B300-B100"/><clipPath id="clip-path-3"><path id="_Clipping_Path_3" data-name="&lt;Clipping Path&gt;" class="cls-3" d="M30.409,34.863A7.934,7.934,0,0,0,22.475,42.8V66.6h0A15.868,15.868,0,0,0,38.343,50.731V37.368a2.505,2.505,0,0,0-2.505-2.505Z"/></clipPath><clipPath id="clip-path-4"><path id="_Clipping_Path_4" data-name="&lt;Clipping Path&gt;" class="cls-4" d="M6.607,37.368V50.731A15.868,15.868,0,0,0,22.475,66.6h0V42.8a7.934,7.934,0,0,0-7.934-7.934H9.112A2.505,2.505,0,0,0,6.607,37.368Z"/></clipPath><linearGradient id="linear-gradient-13" x1="123.934" y1="188.358" x2="138.262" y2="174.03" gradientTransform="translate(11.297 166.608) rotate(-90)" gradientUnits="userSpaceOnUse"><stop offset="0" stop-color="#ff8b00"/><stop offset="1" stop-color="#ffc400"/></linearGradient><linearGradient id="linear-gradient-14" x1="153.119" y1="15.158" x2="169.544" y2="-1.267" xlink:href="#linear-gradient-13"/></defs><title>Test Management &amp;amp; QA</title><g class="cls-5"><g id="Layer_2" data-name="Layer 2"><g id="Layer_1-2" data-name="Layer 1"><path class="cls-6" d="M209.465,59.486a5.489,5.489,0,0,1,4.2-9.23.756.756,0,1,1-.052,1.512,3.976,3.976,0,0,0-3.046,6.686.756.756,0,0,1-1.106,1.032Z"/><path class="cls-7" d="M209.465,59.486a.756.756,0,0,1,1.106-1.032,3.976,3.976,0,0,0,6.881-2.575.756.756,0,1,1,1.512.052,5.489,5.489,0,0,1-9.5,3.554Z"/><path class="cls-8" d="M201.555,66.574,192.9,57.3a5.082,5.082,0,0,1,.249-7.174.747.747,0,1,1,1.019,1.092,3.587,3.587,0,0,0-.176,5.064l8.653,9.275a.747.747,0,1,1-1.092,1.019Z"/><path class="cls-7" d="M210.5,76.161l-8.944-9.587a.747.747,0,0,1,1.092-1.019l8.944,9.587a3.587,3.587,0,0,0,5.064.176.747.747,0,0,1,1.019,1.092A5.082,5.082,0,0,1,210.5,76.161Z"/><path class="cls-7" d="M209.869,82.669l-11.9-12.753a.747.747,0,0,1,1.092-1.019l11.9,12.753a.747.747,0,0,1-1.092,1.019Z"/><path class="cls-8" d="M197.972,69.917,186.365,57.475a.747.747,0,0,1,1.092-1.019L199.064,68.9a.747.747,0,1,1-1.092,1.019Z"/><path class="cls-8" d="M179.617,63.771a.747.747,0,0,1,.037-1.055,5.082,5.082,0,0,1,7.174.249l8.653,9.275a.747.747,0,0,1-1.092,1.019l-8.653-9.275a3.587,3.587,0,0,0-5.064-.176A.747.747,0,0,1,179.617,63.771Z"/><path class="cls-7" d="M203.12,88.965a.747.747,0,0,1,.037-1.055,3.587,3.587,0,0,0,.176-5.064l-8.944-9.587a.747.747,0,1,1,1.092-1.019l8.944,9.587A5.082,5.082,0,0,1,204.175,89,.747.747,0,0,1,203.12,88.965Z"/><path class="cls-8" d="M203.43,58.372h2a7.636,7.636,0,0,1,7.636,7.636V70a0,0,0,0,1,0,0H195.793a0,0,0,0,1,0,0V66.008A7.636,7.636,0,0,1,203.43,58.372Z" transform="translate(111.911 -129.079) rotate(46.988)"/><path class="cls-9" d="M207.9,60.945l-3.6-3.862a1.494,1.494,0,0,1,.427-2.35,6.974,6.974,0,0,1,8.269,1.454h0Z"/><path class="cls-10" d="M212.995,56.186a6.974,6.974,0,0,1,.842,8.407,1.481,1.481,0,0,1-2.339.207l-3.6-3.856Z"/><path id="_Clipping_Path_5" data-name="&lt;Clipping Path&gt;" class="cls-1" d="M211.336,66.419a6.345,6.345,0,0,0-8.968-.311L188.448,79.092h0a12.69,12.69,0,0,0,17.936.623l7.814-7.29a2,2,0,0,0,.1-2.832Z"/><g class="cls-11"><polygon id="_Clipping_Path_6" data-name="&lt;Clipping Path&gt;" class="cls-12" points="207.484 72.522 207.651 67.686 200.926 67.452 201.159 60.727 196.324 60.559 196.09 67.284 189.364 67.051 189.197 71.887 195.922 72.12 195.689 78.846 200.525 79.014 200.758 72.288 207.484 72.522"/></g><path id="_Clipping_Path_7" data-name="&lt;Clipping Path&gt;" class="cls-2" d="M196.886,53.866l-7.814,7.29a12.69,12.69,0,0,0-.623,17.936h0l13.919-12.985a6.345,6.345,0,0,0,.311-8.968l-2.962-3.175A2,2,0,0,0,196.886,53.866Z"/><g class="cls-13"><polygon id="_Clipping_Path_8" data-name="&lt;Clipping Path&gt;" class="cls-14" points="207.484 72.522 207.651 67.686 200.926 67.452 201.159 60.727 196.324 60.559 196.09 67.284 189.364 67.051 189.197 71.887 195.922 72.12 195.689 78.846 200.525 79.014 200.758 72.288 207.484 72.522"/></g><rect id="_Rectangle_" data-name="&lt;Rectangle&gt;" class="cls-15" x="22.475" y="45.266" width="86.866" height="86.088"/><path class="cls-16" d="M58.534,81.521"/><path class="cls-16" d="M37.928,81.521"/><rect class="cls-17" x="37.928" y="74.123" width="35.473" height="1.15"/><rect class="cls-17" x="37.928" y="67.301" width="35.473" height="1.15"/><rect class="cls-17" x="37.928" y="60.479" width="11.148" height="1.15"/><line class="cls-18" x1="31.592" y1="61.054" x2="34.137" y2="61.054"/><rect class="cls-17" x="31.592" y="60.479" width="2.545" height="1.15"/><line class="cls-18" x1="31.592" y1="67.877" x2="34.137" y2="67.877"/><rect class="cls-17" x="31.592" y="67.301" width="2.545" height="1.15"/><line class="cls-18" x1="31.592" y1="74.699" x2="34.137" y2="74.699"/><rect class="cls-17" x="31.592" y="74.123" width="2.545" height="1.15"/><line class="cls-18" x1="31.592" y1="81.521" x2="34.137" y2="81.521"/><rect class="cls-17" x="31.592" y="80.946" width="2.545" height="1.15"/><line class="cls-18" x1="31.592" y1="88.343" x2="34.137" y2="88.343"/><rect class="cls-17" x="31.592" y="87.768" width="2.545" height="1.15"/><line class="cls-18" x1="31.592" y1="95.166" x2="34.137" y2="95.166"/><rect class="cls-17" x="31.592" y="94.59" width="2.545" height="1.15"/><line class="cls-18" x1="31.592" y1="101.988" x2="34.137" y2="101.988"/><rect class="cls-17" x="31.592" y="101.412" width="2.545" height="1.15"/><line class="cls-18" x1="31.592" y1="108.81" x2="34.137" y2="108.81"/><rect class="cls-17" x="31.592" y="108.235" width="2.545" height="1.15"/><line class="cls-18" x1="31.592" y1="115.632" x2="34.137" y2="115.632"/><rect class="cls-17" x="31.592" y="115.057" width="2.545" height="1.15"/><g id="_Group_" data-name="&lt;Group&gt;"><rect class="cls-17" x="62.813" y="94.59" width="35.09" height="1.15"/></g><rect class="cls-17" x="37.928" y="94.59" width="21" height="1.15"/><rect class="cls-17" x="71.421" y="101.412" width="29.86" height="1.15"/><line class="cls-19" x1="49.076" y1="101.988" x2="67.535" y2="101.988"/><rect class="cls-17" x="49.076" y="101.412" width="18.46" height="1.15"/><line class="cls-19" x1="49.076" y1="108.81" x2="89.673" y2="108.81"/><rect class="cls-17" x="49.076" y="108.235" width="40.597" height="1.15"/><rect class="cls-17" x="60.223" y="115.057" width="16.774" height="1.15"/><rect class="cls-17" x="50.878" y="80.946" width="19.247" height="1.15"/><rect class="cls-17" x="50.878" y="87.768" width="19.247" height="1.15"/><path class="cls-20" d="M33.686,89.123a19.856,19.856,0,0,0-11.211,3.453v6.376a15.125,15.125,0,1,1,0,20.283v6.376A19.967,19.967,0,1,0,33.686,89.123Z"/><rect class="cls-21" x="58.861" y="45.266" width="50.479" height="60.521"/><rect id="_Rectangle_2" data-name="&lt;Rectangle&gt;" class="cls-22" x="72.235" y="10.007" width="86.866" height="86.088"/><path class="cls-23" d="M108.294,46.262"/><path class="cls-23" d="M87.688,46.262"/><rect class="cls-24" x="87.688" y="38.865" width="20.606" height="1.15"/><rect class="cls-7" x="87.688" y="32.042" width="20.606" height="1.15"/><rect class="cls-19" x="87.688" y="25.22" width="11.147" height="1.15"/><line class="cls-18" x1="81.352" y1="25.795" x2="83.897" y2="25.795"/><rect class="cls-19" x="81.352" y="25.22" width="2.545" height="1.15"/><line class="cls-18" x1="81.352" y1="32.618" x2="83.897" y2="32.618"/><rect class="cls-19" x="81.352" y="32.042" width="2.545" height="1.15"/><line class="cls-18" x1="81.352" y1="39.44" x2="83.897" y2="39.44"/><rect class="cls-19" x="81.352" y="38.865" width="2.545" height="1.15"/><line class="cls-18" x1="81.352" y1="46.262" x2="83.897" y2="46.262"/><rect class="cls-19" x="81.352" y="45.687" width="2.545" height="1.15"/><line class="cls-18" x1="81.352" y1="53.084" x2="83.897" y2="53.084"/><rect class="cls-19" x="81.352" y="52.509" width="2.545" height="1.15"/><line class="cls-18" x1="81.352" y1="59.907" x2="83.897" y2="59.907"/><rect class="cls-19" x="81.352" y="59.331" width="2.545" height="1.15"/><line class="cls-18" x1="81.352" y1="66.729" x2="83.897" y2="66.729"/><rect class="cls-19" x="81.352" y="66.154" width="2.545" height="1.15"/><line class="cls-18" x1="81.352" y1="73.551" x2="83.897" y2="73.551"/><rect class="cls-19" x="81.352" y="72.976" width="2.545" height="1.15"/><line class="cls-18" x1="81.352" y1="80.373" x2="83.897" y2="80.373"/><rect class="cls-19" x="81.352" y="79.798" width="2.545" height="1.15"/><g id="_Group_2" data-name="&lt;Group&gt;"><rect class="cls-24" x="112.573" y="59.331" width="35.09" height="1.15"/></g><rect class="cls-19" x="87.688" y="59.331" width="21" height="1.15"/><rect class="cls-24" x="121.18" y="66.154" width="29.861" height="1.15"/><line class="cls-19" x1="98.836" y1="66.729" x2="117.295" y2="66.729"/><rect class="cls-7" x="98.835" y="66.154" width="18.46" height="1.15"/><line class="cls-24" x1="98.836" y1="73.551" x2="139.433" y2="73.551"/><rect class="cls-24" x="98.835" y="72.976" width="40.597" height="1.15"/><rect class="cls-19" x="109.983" y="79.798" width="16.774" height="1.15"/><rect class="cls-19" x="100.638" y="45.687" width="19.247" height="1.15"/><rect class="cls-19" x="100.638" y="52.509" width="19.247" height="1.15"/><g class="cls-25"><path class="cls-26" d="M143.841,45.74a15.125,15.125,0,1,0,15.124,15.125A15.142,15.142,0,0,0,143.841,45.74Z"/><path class="cls-15" d="M159.1,48a19.971,19.971,0,1,0,0,25.726ZM143.841,75.989a15.125,15.125,0,1,1,15.124-15.125A15.142,15.142,0,0,1,143.841,75.989Z"/></g><rect class="cls-7" x="9.127" y="121.291" width="12.06" height="3.451" transform="translate(-82.546 46.748) rotate(-45)"/><circle id="_Ellipse_" data-name="&lt;Ellipse&gt;" class="cls-6" cx="130.794" cy="57.957" r="17.548"/><line class="cls-18" x1="134.99" y1="61.676" x2="112.468" y2="61.676"/><rect class="cls-27" x="112.468" y="59.951" width="22.522" height="3.451"/><line class="cls-18" x1="134.99" y1="50.784" x2="114.769" y2="50.784"/><rect class="cls-28" x="114.769" y="49.058" width="20.221" height="3.451"/><path class="cls-29" d="M148.342,57.957a17.753,17.753,0,0,0-.091-1.8c-2.755-8.346-9.328-15.265-19.88-14.388a28.7,28.7,0,0,0-6.337.983,17.536,17.536,0,0,0-8.788,15.2,15.853,15.853,0,1,1,27.837,14.216A17.52,17.52,0,0,0,148.342,57.957Z"/><g id="_Group_3" data-name="&lt;Group&gt;"><path class="cls-7" d="M130.794,77.231a19.274,19.274,0,1,1,19.274-19.274A19.3,19.3,0,0,1,130.794,77.231Zm0-35.1a15.822,15.822,0,1,0,15.822,15.822A15.84,15.84,0,0,0,130.794,42.135Z"/></g><circle id="_Ellipse_2" data-name="&lt;Ellipse&gt;" class="cls-19" cx="32.003" cy="106.062" r="17.548"/><rect class="cls-17" x="30.068" y="113.512" width="10.267" height="3.451"/><rect class="cls-17" x="30.068" y="102.662" width="10.267" height="3.451"/><rect class="cls-17" x="30.068" y="91.812" width="9.783" height="3.451"/><path class="cls-30" d="M34.6,88.706a20.959,20.959,0,0,0-20.112,18.35A17.554,17.554,0,0,0,26.193,122.62,15.847,15.847,0,1,1,49.02,101.772,17.564,17.564,0,0,0,34.6,88.706Z"/><g id="_Group_4" data-name="&lt;Group&gt;"><path class="cls-7" d="M32,125.335a19.274,19.274,0,1,1,19.274-19.274A19.3,19.3,0,0,1,32,125.335Zm0-35.1a15.822,15.822,0,1,0,15.822,15.822A15.84,15.84,0,0,0,32,90.24Z"/></g><rect class="cls-7" x="145.215" y="69.017" width="3.451" height="12.06" transform="translate(-10.028 125.884) rotate(-45)"/><line class="cls-31" x1="154.043" y1="62.741" x2="182.214" y2="73.012"/><path class="cls-6" d="M22.475,30.66a6.864,6.864,0,0,1-4.853-11.717.946.946,0,0,1,1.337,1.337,4.972,4.972,0,0,0,3.516,8.488.946.946,0,0,1,0,1.892Z"/><path class="cls-7" d="M22.475,30.66a.946.946,0,0,1,0-1.892,4.972,4.972,0,0,0,3.516-8.488.946.946,0,1,1,1.337-1.337A6.864,6.864,0,0,1,22.475,30.66Z"/><path class="cls-8" d="M22.209,43.937H6.347A6.354,6.354,0,0,1,0,37.59a.934.934,0,1,1,1.867,0,4.485,4.485,0,0,0,4.48,4.48H22.209a.934.934,0,1,1,0,1.867Z"/><path class="cls-7" d="M38.6,43.937H22.209a.934.934,0,0,1,0-1.867H38.6a4.485,4.485,0,0,0,4.48-4.48.934.934,0,1,1,1.867,0A6.354,6.354,0,0,1,38.6,43.937Z"/><path class="cls-7" d="M44.016,50.065H22.209a.934.934,0,0,1,0-1.867H44.016a.934.934,0,1,1,0,1.867Z"/><path class="cls-8" d="M22.209,50.065H.934a.934.934,0,1,1,0-1.867H22.209a.934.934,0,1,1,0,1.867Z"/><path class="cls-8" d="M.934,61.605A.934.934,0,0,1,0,60.672a6.354,6.354,0,0,1,6.347-6.347H22.209a.934.934,0,1,1,0,1.867H6.347a4.485,4.485,0,0,0-4.48,4.48A.934.934,0,0,1,.934,61.605Z"/><path class="cls-7" d="M44.016,61.605a.934.934,0,0,1-.934-.934,4.485,4.485,0,0,0-4.48-4.48H22.209a.934.934,0,0,1,0-1.867H38.6a6.354,6.354,0,0,1,6.347,6.347A.934.934,0,0,1,44.016,61.605Z"/><path class="cls-8" d="M21.227,32h2.5a9.548,9.548,0,0,1,9.548,9.548v4.99a0,0,0,0,1,0,0H11.679a0,0,0,0,1,0,0v-4.99A9.548,9.548,0,0,1,21.227,32Z"/><path class="cls-32" d="M22.475,33.333h-6.6a1.868,1.868,0,0,1-1.785-2.4,8.72,8.72,0,0,1,8.383-6.321h0Z"/><path class="cls-33" d="M22.468,24.617a8.72,8.72,0,0,1,8.405,6.4,1.852,1.852,0,0,1-1.805,2.315H22.475Z"/><path id="_Clipping_Path_9" data-name="&lt;Clipping Path&gt;" class="cls-3" d="M30.409,34.863A7.934,7.934,0,0,0,22.475,42.8V66.6h0A15.868,15.868,0,0,0,38.343,50.731V37.368a2.505,2.505,0,0,0-2.505-2.505Z"/><g class="cls-34"><polygon id="_Clipping_Path_10" data-name="&lt;Clipping Path&gt;" class="cls-12" points="32.703 43.59 28.425 39.312 22.475 45.262 16.525 39.312 12.247 43.59 18.197 49.54 12.247 55.49 16.525 59.769 22.475 53.818 28.425 59.769 32.703 55.49 26.753 49.54 32.703 43.59"/></g><path id="_Clipping_Path_11" data-name="&lt;Clipping Path&gt;" class="cls-4" d="M6.607,37.368V50.731A15.868,15.868,0,0,0,22.475,66.6h0V42.8a7.934,7.934,0,0,0-7.934-7.934H9.112A2.505,2.505,0,0,0,6.607,37.368Z"/><g class="cls-35"><polygon id="_Clipping_Path_12" data-name="&lt;Clipping Path&gt;" class="cls-14" points="32.703 43.59 28.425 39.312 22.475 45.262 16.525 39.312 12.247 43.59 18.197 49.54 12.247 55.49 16.525 59.769 22.475 53.818 28.425 59.769 32.703 55.49 26.753 49.54 32.703 43.59"/></g><line class="cls-36" x1="184.05" y1="31.235" x2="184.05" y2="49.584"/><polygon class="cls-37" points="203.213 31.904 200 35.51 203.213 39.116 181.77 39.116 181.77 31.904 203.213 31.904"/><line class="cls-36" x1="8.483" y1="0.5" x2="8.483" y2="21"/><polygon class="cls-38" points="30.64 1.248 26.924 5.277 30.64 9.305 5.847 9.305 5.847 1.248 30.64 1.248"/></g></g></g></svg>