<svg xmlns="http://www.w3.org/2000/svg" xmlns:xlink="http://www.w3.org/1999/xlink" viewBox="0 0 233.092 148.71"><defs><style>.cls-1{fill:#253858;}.cls-2{fill:#0065ff;}.cls-3{fill:#eceef1;}.cls-4{clip-path:url(#clip-path);}.cls-10,.cls-5,.cls-6,.cls-7{fill:none;}.cls-5{stroke:#0065ff;}.cls-5,.cls-6,.cls-7{stroke-miterlimit:10;stroke-width:2px;}.cls-6{stroke:#ffab00;}.cls-7{stroke:#dfe1e5;}.cls-8{fill:#ffab00;}.cls-9{fill:#ff8b00;}.cls-11{fill:#2684ff;}.cls-12{fill:url(#linear-gradient);}</style><clipPath id="clip-path"><path id="_Clipping_Path_" data-name="&lt;Clipping Path&gt;" class="cls-1" d="M116.2,19.694h0A19.694,19.694,0,0,1,135.892,0H222.2V121.018H135.892A19.694,19.694,0,0,0,116.2,140.712h0Z"/></clipPath><linearGradient id="linear-gradient" x1="91.678" y1="-207.61" x2="64.604" y2="-228.75" gradientTransform="matrix(1, 0, 0, -1, 0, -144.29)" gradientUnits="userSpaceOnUse"><stop offset="0.18" stop-color="#0052cc"/><stop offset="1" stop-color="#2684ff"/></linearGradient></defs><title>Learn Bitbucket</title><g id="Layer_2" data-name="Layer 2"><g id="Software"><path class="cls-2" d="M222.252,17.119H10.84A10.84,10.84,0,0,0,0,27.959v94.5A10.84,10.84,0,0,0,10.84,133.3H94.772a8.313,8.313,0,0,1,7.38,4.769,15.689,15.689,0,0,0,28.091,0,8.313,8.313,0,0,1,7.38-4.769h84.629a10.84,10.84,0,0,0,10.84-10.84v-94.5A10.84,10.84,0,0,0,222.252,17.119Z"/><path id="_Clipping_Path_2" data-name="&lt;Clipping Path&gt;" class="cls-3" d="M116.2,19.694h0A19.694,19.694,0,0,0,96.5,0H10.2V121.018H96.5A19.694,19.694,0,0,1,116.2,140.712h0Z"/><path id="_Clipping_Path_3" data-name="&lt;Clipping Path&gt;" class="cls-1" d="M116.2,19.694h0A19.694,19.694,0,0,1,135.892,0H222.2V121.018H135.892A19.694,19.694,0,0,0,116.2,140.712h0Z"/><g class="cls-4"><line class="cls-5" x1="147.848" y1="54.323" x2="186.774" y2="54.323"/><line class="cls-6" x1="147.848" y1="62.492" x2="206.774" y2="62.492"/><line class="cls-5" x1="147.848" y1="70.661" x2="206.774" y2="70.661"/><line class="cls-7" x1="147.848" y1="78.83" x2="175.27" y2="78.83"/><line class="cls-5" x1="147.848" y1="20.877" x2="206.774" y2="20.877"/><line class="cls-5" x1="147.848" y1="29.046" x2="206.774" y2="29.046"/><line class="cls-6" x1="147.848" y1="37.215" x2="175.27" y2="37.215"/><line class="cls-5" x1="147.848" y1="91.937" x2="206.774" y2="91.937"/><line class="cls-5" x1="147.848" y1="100.106" x2="176.774" y2="100.106"/><line class="cls-7" x1="132.342" y1="54.323" x2="141.268" y2="54.323"/><line class="cls-7" x1="132.342" y1="62.492" x2="141.268" y2="62.492"/><line class="cls-7" x1="132.342" y1="70.661" x2="141.268" y2="70.661"/><line class="cls-7" x1="132.342" y1="78.83" x2="141.268" y2="78.83"/><line class="cls-7" x1="132.342" y1="92.142" x2="141.268" y2="92.142"/><line class="cls-7" x1="132.342" y1="100.336" x2="141.268" y2="100.336"/><line class="cls-7" x1="132.342" y1="20.877" x2="141.268" y2="20.877"/><line class="cls-7" x1="132.342" y1="29.046" x2="141.268" y2="29.046"/><line class="cls-7" x1="132.342" y1="37.215" x2="141.268" y2="37.215"/></g><polygon class="cls-8" points="196.491 148.71 186.498 142.011 176.505 148.71 176.505 121.018 196.491 121.018 196.491 148.71"/><rect class="cls-9" x="176.505" y="121.018" width="19.986" height="6.14"/><g id="Layer_2-2" data-name="Layer 2"><g id="Blue"><polygon class="cls-10" points="57.134 74.87 68.524 74.87 71.273 58.828 54.105 58.828 57.134 74.87"/><g id="Layer_2-3" data-name="Layer 2"><g id="Blue-2" data-name="Blue"><polygon class="cls-10" points="57.359 74.866 68.75 74.866 71.499 58.823 54.331 58.823 57.359 74.866"/><path class="cls-11" d="M37.547,42.353A1.746,1.746,0,0,0,35.8,44.378l7.41,44.985a2.374,2.374,0,0,0,2.322,1.981h35.55a1.746,1.746,0,0,0,1.746-1.466l7.41-45.491a1.746,1.746,0,0,0-1.719-2.034Zm31.2,32.512H57.4L54.331,58.823H71.5Z"/><path class="cls-12" d="M87.882,58.823H71.5L68.75,74.866H57.4l-13.4,15.911a2.365,2.365,0,0,0,1.527.576H81.091a1.746,1.746,0,0,0,1.746-1.466Z"/></g></g></g></g></g></g></svg>