<svg width="337" height="179" viewBox="0 0 337 179" fill="none" xmlns="http://www.w3.org/2000/svg">
<g filter="url(#filter0_dd)">
<g clip-path="url(#clip0)">
<rect x="5.45068" y="2" width="326.549" height="173" rx="3" fill="white"/>
<rect x="25.4507" y="66" width="24" height="24" rx="3" fill="#E3FCEF"/>
<rect width="16" height="16" transform="translate(29.4507 70)" fill="white" fill-opacity="0.01"/>
<path d="M32.784 80.6607C32.784 80.6653 42.1207 80.6667 42.1207 80.6667C42.1167 80.6667 42.1174 75.3393 42.1174 75.3393C42.1174 75.3347 32.7807 75.3333 32.7807 75.3333C32.7847 75.3333 32.784 80.6607 32.784 80.6607ZM31.4507 75.34C31.4507 74.5993 32.046 74 32.7807 74H42.1207C42.8554 74 43.4507 74.6013 43.4507 75.3393V80.6607C43.4507 81.4007 42.8554 82 42.1207 82H32.7807C32.4268 81.9984 32.088 81.8565 31.8387 81.6054C31.5893 81.3543 31.4498 81.0145 31.4507 80.6607V75.34Z" fill="#006644"/>
<path fill-rule="evenodd" clip-rule="evenodd" d="M36.5667 79.554C36.8067 79.794 37.194 79.794 37.4334 79.554L39.272 77.712C39.3776 77.5952 39.4342 77.4423 39.4302 77.2849C39.4261 77.1275 39.3617 76.9777 39.2502 76.8665C39.1388 76.7553 38.9888 76.6912 38.8314 76.6875C38.674 76.6838 38.5212 76.7408 38.4047 76.8467L36.9994 78.2533L36.496 77.7507C36.3796 77.6433 36.2262 77.5852 36.0679 77.5884C35.9095 77.5917 35.7586 77.656 35.6466 77.7679C35.5347 77.8799 35.4703 78.0308 35.4671 78.1892C35.4639 78.3475 35.522 78.5009 35.6294 78.6173L36.5667 79.554Z" fill="#006644"/>
<rect x="173.451" y="66" width="24" height="24" rx="3" fill="#E3FCEF"/>
<rect width="16" height="16" transform="translate(177.451 70)" fill="white" fill-opacity="0.01"/>
<path fill-rule="evenodd" clip-rule="evenodd" d="M185.451 82C182.427 82 180.118 79.16 180.118 78C180.118 76.666 182.424 74 185.451 74C188.369 74 190.783 76.6487 190.783 78C190.783 79.16 188.475 82 185.451 82H185.451ZM185.451 72.6667C181.771 72.6667 178.784 75.894 178.784 78C178.784 80.0574 181.835 83.3334 185.451 83.3334C189.066 83.3334 192.117 80.0574 192.117 78C192.117 75.894 189.131 72.6667 185.451 72.6667" fill="#006644"/>
<path fill-rule="evenodd" clip-rule="evenodd" d="M185.435 79.3227C184.7 79.3227 184.102 78.7247 184.102 77.9894C184.102 77.254 184.7 76.656 185.435 76.656C186.171 76.656 186.769 77.254 186.769 77.9894C186.769 78.7247 186.171 79.3227 185.435 79.3227ZM185.435 75.3227C183.965 75.3227 182.769 76.5187 182.769 77.9894C182.769 79.46 183.965 80.656 185.435 80.656C186.907 80.656 188.102 79.46 188.102 77.9894C188.102 76.5187 186.907 75.3227 185.435 75.3227Z" fill="#006644"/>
<rect x="25.4507" y="98" width="24" height="24" rx="3" fill="#E3FCEF"/>
<rect width="16" height="16" transform="translate(29.4507 102)" fill="white" fill-opacity="0.01"/>
<path fill-rule="evenodd" clip-rule="evenodd" d="M41.4508 112.133V109.333C41.4508 108.2 40.5841 107.333 39.4508 107.333H38.1841L38.7174 106.8C38.9174 106.6 38.9174 106.267 38.7174 106.067C38.5174 105.867 38.1841 105.867 37.9841 106.067L36.4508 107.6C36.2508 107.867 36.2508 108.2 36.4508 108.4L37.9841 109.933C38.1174 110.067 38.1841 110.067 38.3174 110.067C38.4508 110.067 38.5841 110 38.7174 109.867C38.9174 109.667 38.9174 109.333 38.7174 109.133L38.2508 108.667H39.4508C39.8508 108.667 40.1174 108.933 40.1174 109.333V112.133C39.3174 112.4 38.7841 113.133 38.7841 114C38.7841 115.133 39.6508 116 40.7841 116C41.9174 116 42.7841 115.133 42.7841 114C42.7841 113.133 42.2508 112.4 41.4508 112.133ZM40.7841 114.667C40.3841 114.667 40.1174 114.4 40.1174 114C40.1174 113.6 40.3841 113.333 40.7841 113.333C41.1841 113.333 41.4508 113.6 41.4508 114C41.4508 114.4 41.1841 114.667 40.7841 114.667ZM34.1174 104C33.0508 104 32.1174 104.867 32.1174 106C32.1174 106.867 32.6508 107.6 33.4508 107.867V115.333C33.4508 115.733 33.7174 116 34.1174 116C34.5174 116 34.7841 115.733 34.7841 115.333V107.867C35.5841 107.6 36.1174 106.867 36.1174 106C36.1174 104.867 35.2508 104 34.1174 104ZM34.1174 106.667C33.7841 106.667 33.4508 106.4 33.4508 106C33.4508 105.6 33.7174 105.333 34.1174 105.333C34.5174 105.333 34.7841 105.6 34.7841 106C34.7841 106.4 34.5174 106.667 34.1174 106.667Z" fill="#006644"/>
<rect x="173.451" y="98" width="24" height="24" rx="3" fill="#E3FCEF"/>
<rect width="16" height="16" transform="translate(177.451 102)" fill="white" fill-opacity="0.01"/>
<path fill-rule="evenodd" clip-rule="evenodd" d="M179.451 110C179.451 109.632 179.748 109.333 180.116 109.333H185.451V110.667H180.116C180.028 110.667 179.942 110.65 179.861 110.616C179.78 110.583 179.707 110.534 179.645 110.472C179.583 110.41 179.534 110.336 179.501 110.255C179.467 110.174 179.45 110.088 179.451 110Z" fill="#006644"/>
<path d="M185.451 109.333L185.451 108C185.451 107.633 185.751 107.333 186.117 107.333H190.381V106H186.117C185.014 106 184.117 106.896 184.117 108V109.333H185.451ZM184.117 110.667V112C184.117 113.104 185.014 114 186.117 114H190.381V112.667H186.117C185.751 112.667 185.451 112.367 185.451 112L185.451 110.667H184.117Z" fill="#006644"/>
<path d="M188.979 107.529C188.916 107.59 188.865 107.664 188.83 107.745C188.795 107.826 188.777 107.914 188.776 108.002C188.775 108.091 188.792 108.179 188.825 108.261C188.859 108.343 188.908 108.417 188.971 108.48C189.034 108.542 189.108 108.592 189.19 108.625C189.272 108.659 189.36 108.676 189.448 108.675C189.537 108.674 189.624 108.656 189.706 108.621C189.787 108.586 189.861 108.535 189.922 108.471L191.253 107.141C191.315 107.079 191.365 107.005 191.399 106.924C191.433 106.842 191.451 106.755 191.451 106.667C191.451 106.578 191.433 106.491 191.399 106.41C191.365 106.328 191.315 106.255 191.253 106.193L189.922 104.862C189.796 104.741 189.628 104.673 189.453 104.675C189.278 104.676 189.111 104.747 188.987 104.87C188.864 104.994 188.794 105.161 188.792 105.336C188.791 105.511 188.858 105.679 188.979 105.805L189.841 106.667L188.979 107.529ZM188.979 114.195C188.858 114.321 188.791 114.489 188.792 114.664C188.794 114.839 188.864 115.006 188.987 115.13C189.111 115.253 189.278 115.324 189.453 115.325C189.628 115.327 189.796 115.259 189.922 115.138L191.253 113.807C191.315 113.745 191.365 113.672 191.399 113.59C191.433 113.509 191.451 113.422 191.451 113.333C191.451 113.245 191.433 113.158 191.399 113.076C191.365 112.995 191.315 112.921 191.253 112.859L189.922 111.529C189.796 111.407 189.628 111.34 189.453 111.342C189.278 111.343 189.111 111.413 188.987 111.537C188.864 111.66 188.794 111.828 188.792 112.002C188.791 112.177 188.858 112.346 188.979 112.471L189.841 113.333L188.979 114.195Z" fill="#006644"/>
<rect x="25.4507" y="130" width="24" height="24" rx="3" fill="#E3FCEF"/>
<path d="M38.0341 142.23V146.663C38.0341 146.987 37.7728 147.25 37.4508 147.25C37.1288 147.25 36.8674 146.987 36.8674 146.663V142.201L36.6848 142.386C36.4597 142.612 36.0945 142.612 35.8693 142.386C35.6442 142.159 35.6442 141.791 35.8693 141.565L36.9882 140.437C37.1142 140.311 37.2798 140.249 37.4432 140.251H37.4508C37.5616 140.251 37.6631 140.281 37.7506 140.333C37.799 140.361 37.8439 140.396 37.8859 140.438L39.0322 141.593C39.2579 141.82 39.2573 142.187 39.0322 142.414C38.807 142.64 38.443 142.64 38.2173 142.413L38.0341 142.23ZM40.2741 138.161C41.9098 138.161 43.2841 139.445 43.2841 141.124C43.2841 142.822 41.8928 144.333 40.3091 144.333H38.6291V143.171H40.3091C41.2757 143.171 42.1262 142.201 42.1262 141.124C42.1262 140.086 41.2687 139.323 40.3155 139.323H40.3097C40.0822 139.323 39.9089 139.352 39.7438 139.411L39.6447 139.447C39.2912 139.592 39.1337 139.304 39.1337 139.304L39.0462 139.148C38.6203 138.362 37.7628 137.925 36.8785 137.911C35.664 137.931 34.6636 138.814 34.5043 140.037L34.4781 140.235C34.4781 140.235 34.4373 140.542 34.0902 140.542C34.0826 140.542 34.0832 140.545 34.0768 140.545H33.9274C33.2653 140.545 32.7753 141.103 32.7753 141.803C32.7753 142.507 33.3511 143.17 33.9828 143.17H36.2952V144.333H33.9823C32.7228 144.333 31.6174 143.14 31.6174 141.805C31.6174 140.638 32.3828 139.667 33.4479 139.428C33.8603 137.85 35.2283 136.773 36.8814 136.75C38.0335 136.762 39.1564 137.275 39.8203 138.197C39.9696 138.173 40.1213 138.161 40.2735 138.161H40.2741Z" fill="#006644"/>
<rect x="173.451" y="130" width="24" height="24" rx="3" fill="#E3FCEF"/>
<rect width="14" height="14" transform="translate(178.451 135)" fill="white" fill-opacity="0.01"/>
<path d="M183.117 137.332H181.364C181.055 137.333 180.758 137.458 180.54 137.677C180.322 137.897 180.2 138.195 180.201 138.505V143.161C180.201 143.807 180.722 144.333 181.364 144.333H189.537C189.69 144.332 189.842 144.302 189.983 144.243C190.125 144.183 190.253 144.097 190.361 143.988C190.47 143.879 190.555 143.75 190.613 143.609C190.672 143.467 190.701 143.315 190.701 143.161V138.504C190.701 138.195 190.579 137.897 190.361 137.678C190.143 137.458 189.846 137.334 189.537 137.333H187.784V138.499H189.534V143.166H181.367V138.499H183.117V137.332Z" fill="#006644"/>
<path fill-rule="evenodd" clip-rule="evenodd" d="M184.284 144.916H186.617V146.666H184.284V144.916Z" fill="#006644"/>
<path fill-rule="evenodd" clip-rule="evenodd" d="M183.701 146.666C183.701 146.512 183.761 146.364 183.869 146.255C183.978 146.146 184.124 146.084 184.278 146.082H186.623C186.942 146.082 187.201 146.341 187.201 146.666V147.249H183.701V146.666ZM183.871 139.836C183.762 139.946 183.701 140.094 183.701 140.249C183.701 140.404 183.762 140.552 183.871 140.662L185.036 141.826C185.151 141.941 185.3 142 185.451 142C185.599 142 185.749 141.942 185.866 141.826L187.03 140.662C187.084 140.608 187.127 140.543 187.156 140.473C187.186 140.402 187.201 140.326 187.201 140.249C187.201 140.173 187.186 140.097 187.156 140.026C187.127 139.955 187.084 139.891 187.03 139.837C186.976 139.783 186.912 139.74 186.841 139.71C186.77 139.681 186.694 139.666 186.618 139.666C186.541 139.666 186.465 139.681 186.394 139.71C186.323 139.739 186.259 139.782 186.205 139.836L185.451 140.591L184.696 139.836C184.586 139.727 184.438 139.666 184.283 139.666C184.129 139.666 183.98 139.727 183.871 139.836Z" fill="#006644"/>
<path d="M186.034 137.332C186.034 137.01 185.773 136.749 185.451 136.749C185.129 136.749 184.867 137.01 184.867 137.332V140.249C184.867 140.571 185.129 140.832 185.451 140.832C185.773 140.832 186.034 140.571 186.034 140.249V137.332Z" fill="#006644"/>
<rect x="25.4507" y="21" width="31" height="31" rx="3" fill="#293856"/>
<path d="M39.7255 30.125C39.3818 30.1242 39.0694 30.3247 38.9271 30.6376L35.6543 37.8292C35.531 38.1 35.5539 38.4149 35.7149 38.6652C35.8759 38.9154 36.1531 39.0666 36.4507 39.0666H38.3313L35.9296 43.5896C35.7274 43.9704 35.8327 44.4417 36.1778 44.7002C36.5228 44.9588 37.0047 44.9274 37.3133 44.6264L45.9353 36.218C46.1901 35.9696 46.269 35.5915 46.1349 35.2618C46.0008 34.9322 45.6803 34.7166 45.3244 34.7166H43.5737L46.1303 31.5642C46.3426 31.3024 46.3857 30.942 46.241 30.6375C46.0964 30.3331 45.7897 30.1388 45.4527 30.1381L39.7255 30.125Z" stroke="white" stroke-width="1.75" stroke-linejoin="round"/>
<rect x="57.1199" y="70" width="62.003" height="7" rx="3.5" fill="#DFE1E6"/>
<rect x="210.061" y="70" width="48.569" height="7" rx="3.5" fill="#DFE1E6"/>
<rect x="57.1199" y="103" width="34.1017" height="7" rx="3.5" fill="#DFE1E6"/>
<rect x="210.061" y="103" width="34.1017" height="7" rx="3.5" fill="#DFE1E6"/>
<rect x="57.1199" y="134" width="42.3687" height="7" rx="3.5" fill="#DFE1E6"/>
<rect x="210.061" y="134" width="22.7344" height="7" rx="3.5" fill="#DFE1E6"/>
<rect x="55.4507" y="83" width="92" height="4" rx="2" fill="#DFE1E6"/>
<rect x="203.451" y="83" width="66" height="4" rx="2" fill="#DFE1E6"/>
<rect x="55.4507" y="116" width="61" height="4" rx="2" fill="#DFE1E6"/>
<rect x="203.451" y="116" width="70" height="4" rx="2" fill="#DFE1E6"/>
<rect x="55.4507" y="147" width="81" height="4" rx="2" fill="#DFE1E6"/>
<rect x="203.451" y="147" width="81" height="4" rx="2" fill="#DFE1E6"/>
</g>
</g>
<defs>
<filter id="filter0_dd" x="0.450684" y="0" width="336.549" height="183" filterUnits="userSpaceOnUse" color-interpolation-filters="sRGB">
<feFlood flood-opacity="0" result="BackgroundImageFix"/>
<feColorMatrix in="SourceAlpha" type="matrix" values="0 0 0 0 0 0 0 0 0 0 0 0 0 0 0 0 0 0 127 0"/>
<feOffset/>
<feGaussianBlur stdDeviation="0.5"/>
<feColorMatrix type="matrix" values="0 0 0 0 0.0352941 0 0 0 0 0.117647 0 0 0 0 0.258824 0 0 0 0.31 0"/>
<feBlend mode="normal" in2="BackgroundImageFix" result="effect1_dropShadow"/>
<feColorMatrix in="SourceAlpha" type="matrix" values="0 0 0 0 0 0 0 0 0 0 0 0 0 0 0 0 0 0 127 0"/>
<feOffset dy="3"/>
<feGaussianBlur stdDeviation="2.5"/>
<feColorMatrix type="matrix" values="0 0 0 0 0.0352941 0 0 0 0 0.117647 0 0 0 0 0.258824 0 0 0 0.2 0"/>
<feBlend mode="normal" in2="effect1_dropShadow" result="effect2_dropShadow"/>
<feBlend mode="normal" in="SourceGraphic" in2="effect2_dropShadow" result="shape"/>
</filter>
<clipPath id="clip0">
<rect x="5.45068" y="2" width="326.549" height="173" rx="3" fill="white"/>
</clipPath>
</defs>
</svg>
