<svg width="230" height="218" viewBox="0 0 230 218" xmlns="http://www.w3.org/2000/svg" xmlns:xlink="http://www.w3.org/1999/xlink">
    <defs>
        <path d="M7.942 5.398C7.078 6.46 5.69 6.67 4.126 5.762 2.562 4.856 1.176 3.037.312.972V.469h7.63v4.929z" id="a"/>
        <path d="M7.942 5.398C7.078 6.46 5.69 6.67 4.126 5.763 2.562 4.856 1.176 3.037.312.972V.469h7.63v4.929z" id="c"/>
        <path d="M7.942 5.397C7.078 6.46 5.69 6.67 4.126 5.763 2.562 4.856 1.176 3.037.312.972V.469h7.63v4.928z" id="e"/>
        <path d="M7.942 5.398C7.078 6.46 5.69 6.67 4.126 5.762 2.562 4.856 1.176 3.037.312.972V.469h7.63v4.929z" id="g"/>
    </defs>
    <g fill="none" fill-rule="evenodd">
        <g fill-rule="nonzero">
            <path d="M122.273 87.834c-4-2.322-10.546-2.322-14.547 0l-104.74 60.75c-4 2.32-3.98 6.08.047 8.357l104.648 59.17c4.026 2.275 10.613 2.275 14.638 0l104.648-59.17c4.026-2.277 4.046-6.037.046-8.358l-104.74-60.75z" fill="#6976D4" fill-opacity=".2"/>
            <path d="M104.569 53.642c-.425-.923-1.172-1.704-2.104-2.055l-5.103-1.917v-4.91c0-1.413-.811-2.13-1.914-1.894l-.26-29.362c-.02-2.28-.872-3.857-2.21-4.554l.012-.023-6.617-3.75c-1.286-.915-3.137-.898-5.185.29l-41.15 23.87c-3.811 2.208-6.93 7.633-6.93 12.054v111.547c0 1.993.643 3.454 1.693 4.266l-.003.02.196.114c.116.078.236.147.36.21l6.846 3.963.008-.017c1.257.709 2.974.615 4.864-.459l42.213-23.99c3.83-2.177 6.93-7.574 6.89-11.994l-.206-23.443 6.444-3.777c.193-.113.357-.23.496-.348 1.266-1.017 2.234-2.878 2.234-4.428V55.117c0-.91-.223-1.406-.574-1.475" fill="#E4EBEF"/>
            <path d="M104.181 55.613h.01-.01zM42.966 159.637c.075.03.149.065.219.105.671.376 1.727.212 2.902-.456l42.213-23.99c3.219-1.83 5.91-6.512 5.876-10.226l-.207-23.444c-.006-.722.372-1.39.992-1.753l6.444-3.777c.078-.046.148-.093.207-.143.866-.696 1.531-1.977 1.531-2.898V55.117l-.001-.067c-.158-.163-.291-.352-.389-.564-.224-.488-.594-.867-.989-1.017l-5.103-1.917c-.782-.293-1.299-1.044-1.299-1.882v-4.797c-.42-.02-.828-.17-1.162-.44-.468-.377-.747-.945-.752-1.549l-.26-29.362c-.013-1.405-.425-2.421-1.131-2.79-.116-.06-.226-.13-.326-.212L85.39 6.926c-.06-.034-.117-.07-.173-.11-.672-.478-1.778-.336-3.029.392L41.037 31.076c-3.213 1.864-5.928 6.587-5.928 10.315v111.547c0 1.252.332 2.225.911 2.672l.017.014.063.04c.048.032.098.06.149.087.036.017.071.036.105.056l6.612 3.83zm1.053 4.328c-.885 0-1.726-.187-2.499-.565-.11-.039-.217-.088-.319-.148l-6.799-3.937c-.157-.081-.308-.167-.454-.264l-.147-.084c-.179-.104-.337-.231-.472-.378-1.434-1.25-2.22-3.243-2.22-5.65V41.39c0-5.157 3.482-11.217 7.928-13.796L80.188 3.728c2.621-1.521 5.256-1.612 7.247-.256l6.537 3.705c.099.056.19.118.275.187 1.85 1.146 2.915 3.35 2.941 6.12l.245 27.708c.197.102.385.225.561.37.882.716 1.368 1.85 1.368 3.198v3.516l3.802 1.43c1.187.445 2.221 1.342 2.912 2.505.557.473 1.067 1.336 1.067 2.906v37.938c0 2.121-1.228 4.586-2.986 5.997-.182.157-.446.344-.734.513l-5.444 3.191.197 22.278c.047 5.17-3.427 11.215-7.907 13.76l-42.213 23.991c-1.382.785-2.755 1.18-4.037 1.18z" fill="#33475C"/>
            <path d="M118.608 113.888c-.04 0-.07-.01-.11-.01-.59-.13-1.22-.19-1.861-.15h-.02c-.27 0-.49-.21-.5-.483-.01-.14.04-.26.13-.362.09-.1.21-.16.35-.16.71-.03 1.43.03 2.1.171.24.04.4.251.4.492 0 .03 0 .06-.01.101-.04.23-.25.4-.48.4m-5.76 1.027c-.18 0-.35-.09-.43-.252-.07-.111-.09-.25-.06-.381.04-.131.12-.232.24-.302l.63-.371c.37-.211.8-.393 1.27-.543h.02c.25-.071.53.08.6.332.02.05.03.099.03.15 0 .221-.15.411-.36.482-.39.121-.75.27-1.06.453l-.63.371c-.08.04-.16.06-.25.06m9.35.673c-.09 0-.17-.02-.25-.07l-1.73-1.005c-.24-.13-.32-.441-.18-.683.13-.23.45-.31.68-.18l1.73 1.004c.16.09.26.262.25.452 0 .08-.02.16-.06.23-.09.162-.26.252-.44.252m-12.81 1.337c-.18 0-.35-.1-.44-.251-.13-.243-.05-.544.19-.684l1.73-1.004c.23-.142.55-.051.68.18.04.071.07.151.07.242 0 .18-.09.35-.25.44l-1.73 1.005c-.08.05-.17.072-.25.072m16.27.672c-.08 0-.17-.02-.25-.07l-1.73-1.005c-.23-.13-.32-.441-.18-.683.13-.23.45-.322.69-.18l1.73 1.005c.15.09.24.25.25.421 0 .09-.02.18-.07.26-.09.162-.26.252-.44.252m-19.74 1.337c-.18 0-.34-.1-.43-.251-.07-.122-.09-.251-.05-.382.03-.13.12-.242.23-.301l1.73-1.005c.23-.142.55-.051.69.18.04.071.06.162.06.242.01.18-.09.35-.25.441l-1.73 1.005c-.07.05-.16.071-.25.071m23.21.672c-.09 0-.18-.019-.25-.06l-1.73-1.004c-.12-.07-.2-.182-.24-.312-.03-.13-.01-.26.05-.382.14-.23.46-.321.69-.18l1.73 1.005c.15.08.25.25.25.422 0 .09-.02.18-.07.26-.09.162-.25.251-.43.251m-26.67 1.337c-.18 0-.35-.09-.44-.251-.06-.111-.08-.251-.05-.382.04-.13.12-.242.24-.301l1.73-1.005c.23-.141.55-.051.68.181.04.07.07.15.07.241 0 .18-.09.35-.25.441l-1.73 1.005c-.08.05-.16.071-.25.071m30.13.672c-.08 0-.17-.019-.25-.059l-1.73-1.005c-.24-.151-.32-.452-.18-.694.13-.23.45-.31.68-.18l1.73 1.005c.16.09.26.261.25.441 0 .09-.02.17-.06.241-.09.162-.26.251-.44.251m-33.6 1.337c-.18 0-.34-.1-.43-.25-.14-.243-.05-.544.18-.684l1.74-1.005c.23-.13.55-.05.68.181.04.07.06.151.07.241 0 .18-.1.351-.26.441l-1.73 1.005c-.07.05-.16.071-.25.071m37.07.672c-.09 0-.18-.019-.25-.059l-1.73-1.015c-.12-.06-.2-.171-.24-.302-.03-.13-.01-.26.06-.382.13-.23.45-.31.68-.18l1.73 1.005c.24.14.32.441.18.682-.09.162-.25.251-.43.251m-40.53 1.338c-.18 0-.34-.1-.43-.252-.14-.242-.06-.543.18-.683l1.73-1.004c.23-.142.55-.052.68.18.05.07.07.151.07.242.01.18-.09.35-.25.44l-1.73 1.005c-.08.05-.16.072-.25.072m-3.46 2.009c-.18 0-.35-.1-.44-.251-.14-.242-.05-.553.18-.683l1.74-1.005c.23-.142.55-.051.68.18.04.071.06.151.07.242 0 .18-.1.35-.25.44l-1.74 1.005c-.07.05-.15.072-.24.072m-2.33 1.355c-.18 0-.35-.1-.44-.251-.14-.24-.05-.553.19-.692l.59-.342c.24-.142.55-.051.69.181.04.07.06.15.06.241.01.18-.09.35-.25.441l-.59.353c-.08.04-.16.069-.25.069" fill="#34475B"/>
            <path d="M191.714 139.342l-35.412-20.539-.01-.004-13.99-8.114c-.952-.554-1.732-.101-1.732 1.005v18.083c0 1.104.78 2.46 1.732 3.013l35.412 20.539.01.005 13.99 8.114c.952.552 1.731.1 1.731-1.005v-18.083c0-1.106-.779-2.461-1.73-3.014" fill="#98ABC1"/>
            <path d="M187.714 141.352l-35.412-20.54-.01-.004-13.99-8.114c-.952-.553-1.732-.101-1.732 1.005v18.083c0 1.104.78 2.46 1.732 3.014l35.412 20.538.01.005 13.99 8.114c.952.553 1.731.1 1.731-1.005v-18.082c0-1.107-.779-2.462-1.73-3.014" fill="#FFF"/>
            <path d="M137.534 112.96c-.078 0-.146.016-.204.049-.164.095-.26.347-.26.69v18.082c0 .931.68 2.113 1.483 2.58l49.412 28.657c.293.17.554.214.722.119.164-.095.259-.346.259-.688v-18.083c0-.933-.68-2.114-1.481-2.58l-35.408-20.536-.014-.007-13.99-8.115c-.193-.111-.372-.168-.52-.168m50.954 51.23c-.327 0-.677-.1-1.022-.303l-49.412-28.657c-1.112-.646-1.982-2.16-1.982-3.449v-18.083c0-.711.276-1.28.76-1.56.482-.28 1.109-.235 1.722.121l13.966 8.1c.022.01.042.023.06.035l35.386 20.523c1.11.645 1.98 2.16 1.98 3.449v18.083c0 .71-.275 1.279-.758 1.558-.21.122-.448.183-.7.183" fill="#34475B"/>
            <path d="M173.911 139.954c-.17 0-.341-.044-.499-.135l-19.916-11.55c-.478-.278-.643-.893-.365-1.373.275-.481.887-.646 1.365-.368l19.916 11.551c.478.277.643.891.367 1.372-.185.322-.522.503-.868.503" fill="#CED7DD"/>
            <path d="M184.948 151.378c-.17 0-.342-.043-.5-.135l-30.951-17.952c-.48-.277-.643-.892-.366-1.372.276-.481.887-.647 1.366-.368l30.952 17.952c.478.278.643.892.366 1.373-.185.321-.521.502-.867.502M184.948 156.401c-.17 0-.342-.043-.5-.134l-30.951-17.953c-.48-.277-.643-.892-.366-1.372.276-.48.887-.646 1.366-.368l30.952 17.953c.478.277.643.89.366 1.372-.185.321-.521.502-.867.502" fill="#E4EBEF"/>
            <path d="M149.706 130.598c0 3.455-2.09 5.043-4.67 3.547s-4.67-5.51-4.67-8.965c0-3.454 2.09-5.043 4.67-3.547s4.67 5.51 4.67 8.965" fill="#FDBBAB"/>
            <path d="M143.18 121.575c-.347 0-.667.082-.95.246-.867.503-1.364 1.727-1.364 3.36 0 3.289 1.982 7.116 4.419 8.529.964.559 1.871.645 2.557.247.867-.503 1.364-1.728 1.364-3.36 0-3.288-1.983-7.116-4.421-8.53-.564-.327-1.111-.492-1.605-.492m3.713 13.635c-.668 0-1.384-.211-2.108-.631-2.712-1.573-4.919-5.789-4.919-9.398 0-2.001.679-3.543 1.864-4.23 1.011-.583 2.272-.498 3.555.248 2.713 1.572 4.921 5.79 4.921 9.399 0 2.001-.679 3.542-1.864 4.23-.44.254-.931.382-1.449.382" fill="#34475B"/>
        </g>
        <g transform="translate(141 128.407)">
            <mask id="b" fill="#fff">
                <use xlink:href="#a"/>
            </mask>
            <path d="M7.942 9.409c0 3.508-1.708 5.361-3.815 4.139C2.02 12.325.312 8.492.312 4.984S2.02-.377 4.127.844C6.234 2.067 7.942 5.902 7.942 9.41" fill="#33475C" fill-rule="nonzero" mask="url(#b)"/>
        </g>
        <path d="M146.984 128.557c0 1.373-.832 2.005-1.857 1.41-1.026-.595-1.857-2.19-1.857-3.564 0-1.375.83-2.005 1.857-1.41 1.025.594 1.857 2.19 1.857 3.564" fill="#33475C" fill-rule="nonzero"/>
        <g fill-rule="nonzero">
            <path d="M118.608 83.75c-.04 0-.07-.01-.101-.01-.58-.121-1.19-.171-1.81-.161l-.09.01c-.27 0-.48-.21-.49-.482-.01-.14.04-.27.13-.362.09-.1.22-.16.35-.16.72-.04 1.44.03 2.1.171.24.04.4.251.4.491 0 .03 0 .07-.01.102-.04.23-.25.4-.48.4m-5.76 1.026c-.18 0-.35-.1-.43-.25-.07-.112-.09-.252-.06-.383.04-.13.12-.242.24-.301l.63-.372c.38-.222.81-.403 1.27-.542.26-.08.55.07.62.331.02.05.03.1.03.15 0 .222-.15.412-.36.483-.4.12-.76.27-1.06.452l-.63.361c-.08.05-.16.071-.25.071m9.35.672c-.09 0-.17-.019-.25-.059l-1.73-1.005c-.24-.141-.32-.452-.18-.694.13-.23.45-.321.68-.18l1.73 1.005c.16.09.26.261.25.441 0 .09-.02.17-.06.241-.09.162-.26.251-.44.251m-12.82 1.337c-.17 0-.34-.09-.43-.25-.06-.112-.08-.252-.05-.382.04-.131.12-.243.24-.302l1.73-1.004c.23-.142.55-.052.68.18.04.07.07.151.07.242 0 .18-.09.35-.25.44l-1.73 1.005c-.08.05-.17.071-.26.071m16.28.673c-.08 0-.17-.02-.25-.06l-1.73-1.004c-.23-.152-.32-.452-.18-.694.13-.23.45-.322.69-.18l1.73 1.004c.15.09.24.24.25.422 0 .09-.02.18-.07.26-.09.162-.26.252-.44.252m-19.74 1.337c-.18 0-.34-.1-.43-.251-.07-.112-.09-.252-.05-.382.03-.13.12-.232.23-.302l1.73-1.004c.24-.13.55-.051.69.18.04.071.06.151.06.242.01.18-.09.35-.25.44l-1.73 1.005c-.08.05-.16.072-.25.072m23.21.672c-.09 0-.17-.02-.25-.07l-1.73-1.005c-.24-.13-.32-.441-.19-.683.14-.23.46-.31.69-.18l1.73 1.005c.15.09.25.25.25.421 0 .09-.02.18-.07.26-.09.162-.25.252-.43.252m-26.67 1.337c-.18 0-.35-.1-.44-.251-.13-.242-.05-.544.19-.683l1.73-1.005c.23-.142.55-.051.68.18.05.071.07.152.07.242 0 .18-.09.35-.25.441l-1.73 1.005c-.08.05-.16.07-.25.07m30.13.673c-.08 0-.17-.02-.25-.07l-1.73-1.005c-.24-.13-.32-.44-.18-.683.13-.23.45-.322.68-.18l1.73 1.005c.16.09.26.26.25.452 0 .08-.02.16-.06.23-.09.162-.26.251-.44.251m-33.6 1.337c-.18 0-.34-.1-.43-.251-.14-.242-.05-.553.18-.683l1.74-1.005c.23-.141.55-.051.68.181.04.07.06.15.07.241 0 .18-.1.35-.26.441l-1.73 1.005c-.07.05-.16.071-.25.071m37.07.672c-.09 0-.18-.019-.25-.059l-1.73-1.005c-.12-.07-.2-.181-.24-.312-.03-.13-.01-.26.06-.382.13-.23.45-.321.68-.18l1.73 1.005c.24.14.32.452.18.682-.09.162-.25.251-.43.251m-40.53 1.337c-.18 0-.34-.09-.43-.25-.07-.112-.09-.252-.05-.383.03-.13.11-.242.23-.3l1.73-1.006c.23-.141.55-.05.68.181.05.07.07.151.07.241.01.18-.09.351-.25.441l-1.73 1.005c-.08.05-.16.071-.25.071m-3.46 2.01c-.18 0-.35-.1-.44-.252-.14-.242-.05-.543.18-.683l1.74-1.004c.23-.13.55-.052.68.18.04.07.06.151.07.242 0 .18-.1.35-.25.44l-1.74 1.005c-.07.05-.16.072-.24.072m-2.33 1.355c-.18 0-.35-.1-.44-.251-.14-.24-.05-.553.19-.693l.59-.341c.24-.142.55-.051.69.18.04.071.06.151.06.242.01.18-.09.35-.25.44l-.59.353c-.08.04-.16.07-.25.07" fill="#34475B"/>
            <path d="M191.714 109.204l-35.412-20.539-.01-.004-13.99-8.114c-.952-.554-1.732-.102-1.732 1.004v18.083c0 1.104.78 2.46 1.732 3.014l35.412 20.538.01.005 13.99 8.115c.952.552 1.731.1 1.731-1.005v-18.083c0-1.106-.779-2.461-1.73-3.014" fill="#98ABC1"/>
            <path d="M187.714 111.213l-35.412-20.539-.01-.004-13.99-8.114c-.952-.554-1.732-.101-1.732 1.005v18.083c0 1.104.78 2.46 1.732 3.013l35.412 20.539.01.005 13.99 8.114c.952.552 1.731.1 1.731-1.005v-18.083c0-1.106-.779-2.461-1.73-3.014" fill="#FFF"/>
            <path d="M137.534 82.821c-.078 0-.146.016-.204.05-.164.095-.26.347-.26.689v18.083c0 .931.68 2.112 1.483 2.58l49.412 28.657c.293.17.554.213.722.119.164-.095.259-.346.259-.689v-18.083c0-.932-.68-2.113-1.481-2.58l-35.408-20.536-.014-.007-13.99-8.114c-.193-.111-.372-.169-.52-.169m50.954 51.23c-.327 0-.677-.1-1.022-.302l-49.412-28.657c-1.112-.646-1.982-2.16-1.982-3.45V83.56c0-.711.276-1.28.76-1.56.482-.28 1.109-.235 1.722.121l13.966 8.1c.022.01.042.022.06.035l35.386 20.523c1.11.645 1.98 2.16 1.98 3.448v18.083c0 .712-.275 1.28-.758 1.559-.21.122-.448.182-.7.182" fill="#34475B"/>
            <path d="M173.911 109.815c-.17 0-.342-.043-.499-.134L153.496 98.13c-.479-.277-.643-.892-.366-1.372.276-.48.887-.645 1.366-.368l19.916 11.55c.478.278.643.892.366 1.373-.185.322-.52.502-.867.502" fill="#CED7DD"/>
            <path d="M184.948 121.24c-.17 0-.342-.043-.5-.135l-30.951-17.952c-.48-.277-.643-.892-.366-1.372.276-.482.887-.646 1.366-.368l30.952 17.952c.478.278.643.891.366 1.373-.185.321-.521.502-.867.502M184.948 126.263c-.17 0-.342-.043-.5-.135l-30.951-17.952c-.48-.277-.643-.892-.366-1.372.276-.482.887-.646 1.366-.368l30.952 17.952c.478.278.643.891.366 1.373-.185.321-.521.502-.867.502" fill="#E4EBEF"/>
            <path d="M149.706 100.46c0 3.455-2.09 5.043-4.67 3.546-2.58-1.496-4.67-5.509-4.67-8.964s2.09-5.043 4.67-3.547 4.67 5.51 4.67 8.965" fill="#F7A7BB"/>
            <path d="M143.18 91.437c-.347 0-.667.082-.95.245-.867.504-1.364 1.728-1.364 3.36 0 3.29 1.982 7.116 4.419 8.53.964.558 1.871.646 2.557.247.867-.503 1.364-1.728 1.364-3.36 0-3.289-1.983-7.116-4.421-8.53-.564-.327-1.111-.492-1.605-.492m3.713 13.635c-.668 0-1.384-.211-2.108-.631-2.712-1.573-4.919-5.789-4.919-9.398 0-2.002.679-3.544 1.864-4.23 1.011-.584 2.272-.498 3.555.247 2.713 1.573 4.921 5.791 4.921 9.4 0 2-.679 3.542-1.864 4.229-.44.255-.931.383-1.449.383" fill="#34475B"/>
        </g>
        <g transform="translate(141 98.269)">
            <mask id="d" fill="#fff">
                <use xlink:href="#c"/>
            </mask>
            <path d="M7.942 9.409c0 3.508-1.708 5.361-3.815 4.139C2.02 12.325.312 8.492.312 4.984S2.02-.377 4.127.844C6.234 2.067 7.942 5.902 7.942 9.41" fill="#33475C" fill-rule="nonzero" mask="url(#d)"/>
        </g>
        <path d="M146.984 98.418c0 1.374-.832 2.006-1.857 1.41-1.026-.594-1.857-2.19-1.857-3.564s.83-2.005 1.857-1.41c1.025.595 1.857 2.191 1.857 3.564" fill="#33475C" fill-rule="nonzero"/>
        <g fill-rule="nonzero">
            <path d="M118.608 53.611c-.04 0-.07-.01-.11-.01-.59-.12-1.22-.19-1.861-.15h-.02c-.27 0-.49-.21-.5-.483-.01-.14.04-.26.13-.361.09-.1.21-.16.35-.16h.06c.7-.021 1.38.03 2.04.17.24.041.4.252.4.492 0 .03 0 .061-.01.101-.04.23-.25.401-.48.401m-5.76 1.026c-.18 0-.34-.09-.43-.251-.07-.112-.09-.251-.06-.373.04-.14.12-.251.24-.31l.63-.363c.37-.22.79-.402 1.27-.551.26-.08.55.08.62.331.02.05.03.1.03.15 0 .222-.15.412-.36.483-.39.12-.75.27-1.06.452l-.63.36c-.08.05-.16.072-.25.072m9.35.672c-.09 0-.17-.019-.25-.07l-1.73-1.005c-.24-.13-.32-.44-.18-.683.13-.23.45-.31.68-.18l1.73 1.005c.16.09.26.261.25.452 0 .08-.02.16-.06.23-.09.162-.26.251-.44.251m-12.81 1.337c-.18 0-.35-.1-.44-.25-.14-.243-.05-.544.19-.684l1.73-1.005c.23-.141.55-.05.68.181.04.07.07.15.07.241 0 .18-.09.35-.25.441l-1.73 1.005c-.08.05-.17.071-.25.071m16.27.672c-.08 0-.17-.019-.25-.07l-1.73-1.005c-.23-.13-.32-.44-.18-.683.13-.23.45-.321.69-.18l1.73 1.005c.15.09.24.251.25.422 0 .09-.02.18-.07.26-.09.162-.26.251-.44.251m-19.74 1.337c-.18 0-.34-.1-.43-.25-.07-.122-.09-.252-.05-.382.03-.131.12-.243.23-.302l1.73-1.004c.23-.142.55-.052.69.18.04.07.06.161.06.242.01.18-.09.35-.25.44l-1.73 1.005c-.07.05-.16.071-.25.071m23.21.673c-.09 0-.17-.02-.25-.06l-1.73-1.004c-.24-.142-.32-.452-.19-.695.14-.23.46-.321.69-.18l1.73 1.005c.15.08.25.251.25.422 0 .09-.02.18-.07.26-.09.162-.25.252-.43.252m-26.67 1.337c-.18 0-.34-.09-.44-.251-.06-.112-.08-.252-.05-.382.04-.13.12-.242.24-.302l1.73-1.004c.23-.142.55-.051.68.18.04.07.07.151.07.242 0 .18-.09.35-.25.44l-1.73 1.005c-.08.05-.17.072-.25.072m30.13.672c-.09 0-.17-.02-.25-.06l-1.73-1.004c-.24-.152-.32-.452-.18-.694.13-.23.45-.322.68-.18l1.73 1.004c.16.09.26.262.25.453 0 .079-.02.16-.06.23-.09.161-.26.25-.44.25m-33.6 1.338c-.18 0-.34-.1-.43-.251-.14-.242-.05-.544.18-.683l1.74-1.005c.23-.13.55-.051.68.18.04.071.06.152.07.242 0 .18-.1.35-.26.441l-1.73 1.005c-.08.05-.16.07-.25.07m37.07.673c-.09 0-.18-.02-.25-.06l-1.73-1.015c-.12-.06-.2-.17-.24-.301-.03-.13-.01-.26.06-.382.13-.23.45-.31.68-.18l1.73 1.005c.24.14.32.44.18.682-.09.162-.25.251-.43.251m-40.53 1.337c-.18 0-.34-.1-.43-.251-.14-.242-.06-.544.18-.683l1.73-1.005c.23-.141.55-.051.68.181.05.07.07.15.07.241.01.18-.09.35-.25.441l-1.73 1.005c-.08.05-.16.071-.25.071m-3.46 2.01c-.18 0-.35-.091-.44-.252-.14-.242-.05-.552.18-.683l1.74-1.005c.23-.141.55-.05.68.181.04.07.06.151.07.241 0 .18-.1.351-.25.441l-1.74 1.005c-.07.05-.16.071-.24.071m-2.33 1.356c-.18 0-.35-.1-.44-.252-.07-.12-.08-.25-.05-.381.04-.131.12-.241.24-.31l.59-.342c.24-.142.55-.052.69.18.04.07.06.151.06.242.01.18-.09.35-.25.44l-.59.353c-.08.04-.17.07-.25.07" fill="#34475B"/>
            <path d="M191.714 79.066l-35.412-20.54-.01-.003-13.99-8.114c-.952-.554-1.732-.102-1.732 1.004v18.083c0 1.104.78 2.46 1.732 3.014l35.412 20.538.01.005 13.99 8.114c.952.553 1.731.1 1.731-1.004V82.08c0-1.106-.779-2.461-1.73-3.014" fill="#98ABC1"/>
            <path d="M187.714 81.075l-35.412-20.539-.01-.004-13.99-8.114c-.952-.554-1.732-.102-1.732 1.004v18.083c0 1.104.78 2.46 1.732 3.014l35.412 20.538.01.005 13.99 8.115c.952.552 1.731.1 1.731-1.005V84.089c0-1.106-.779-2.461-1.73-3.014" fill="#FFF"/>
            <path d="M137.534 52.683c-.078 0-.146.016-.204.05-.164.095-.26.347-.26.689v18.083c0 .93.68 2.112 1.483 2.58l49.412 28.657c.293.17.554.214.722.118.164-.094.259-.345.259-.688V84.09c0-.932-.68-2.113-1.481-2.58l-35.408-20.536-.014-.007-13.99-8.114c-.193-.112-.372-.169-.52-.169m50.954 51.23c-.327 0-.677-.1-1.022-.302l-49.412-28.658c-1.112-.646-1.982-2.16-1.982-3.448V53.422c0-.712.276-1.28.76-1.56.482-.279 1.109-.236 1.722.121l13.966 8.1c.022.01.042.022.06.034l35.386 20.523c1.11.645 1.98 2.16 1.98 3.45v18.082c0 .711-.275 1.279-.758 1.558-.21.123-.448.183-.7.183" fill="#34475B"/>
            <path d="M173.911 79.677c-.17 0-.342-.043-.499-.134l-19.916-11.551c-.479-.278-.643-.893-.366-1.373.276-.48.887-.647 1.366-.367l19.916 11.55c.478.278.643.892.366 1.373-.185.321-.52.502-.867.502" fill="#CED7DD"/>
            <path d="M184.948 91.102c-.17 0-.342-.044-.5-.135l-30.951-17.952c-.48-.278-.643-.892-.366-1.373.276-.48.887-.646 1.366-.367l30.952 17.952c.478.277.643.891.366 1.372-.185.322-.521.503-.867.503M184.948 96.125c-.17 0-.342-.044-.5-.135l-30.951-17.952c-.48-.278-.643-.892-.366-1.373.276-.48.887-.647 1.366-.367l30.952 17.952c.478.277.643.891.366 1.372-.185.322-.521.503-.867.503" fill="#E4EBEF"/>
            <path d="M149.706 70.322c0 3.455-2.09 5.043-4.67 3.546-2.58-1.496-4.67-5.51-4.67-8.964 0-3.455 2.09-5.043 4.67-3.547s4.67 5.51 4.67 8.965" fill="#FBE1B2"/>
            <path d="M143.18 61.299c-.347 0-.667.081-.95.245-.867.503-1.364 1.728-1.364 3.36 0 3.29 1.982 7.116 4.419 8.53.964.557 1.871.646 2.557.247.867-.504 1.364-1.728 1.364-3.36 0-3.289-1.983-7.116-4.421-8.53-.564-.327-1.111-.492-1.605-.492m3.713 13.634c-.668 0-1.384-.21-2.108-.63-2.712-1.574-4.919-5.789-4.919-9.399 0-2 .679-3.543 1.864-4.23 1.011-.583 2.272-.497 3.555.248 2.713 1.572 4.921 5.79 4.921 9.4 0 2-.679 3.542-1.864 4.229-.44.255-.931.382-1.449.382" fill="#34475B"/>
        </g>
        <g transform="translate(141 68.13)">
            <mask id="f" fill="#fff">
                <use xlink:href="#e"/>
            </mask>
            <path d="M7.942 9.409c0 3.508-1.708 5.361-3.815 4.139C2.02 12.325.312 8.492.312 4.984S2.02-.377 4.127.844C6.234 2.067 7.942 5.902 7.942 9.41" fill="#33475C" fill-rule="nonzero" mask="url(#f)"/>
        </g>
        <path d="M146.984 68.28c0 1.373-.832 2.005-1.857 1.41-1.026-.594-1.857-2.19-1.857-3.564s.83-2.005 1.857-1.41c1.025.594 1.857 2.19 1.857 3.564" fill="#33475C" fill-rule="nonzero"/>
        <g fill-rule="nonzero">
            <path d="M118.608 23.473c-.04 0-.07 0-.11-.01-.59-.13-1.231-.18-1.861-.15h-.02c-.27 0-.49-.21-.5-.483-.01-.14.04-.27.13-.362.09-.1.22-.16.35-.16.72-.04 1.44.03 2.1.172.24.04.4.25.4.49 0 .03 0 .071-.01.102-.04.23-.25.401-.48.401m-5.76 1.026c-.18 0-.34-.09-.43-.251-.07-.112-.09-.252-.06-.382.04-.13.12-.242.24-.302l.63-.371c.38-.222.81-.403 1.27-.543.26-.08.55.08.62.332.02.05.03.1.03.15 0 .222-.15.411-.36.483-.4.12-.76.27-1.06.452l-.63.36c-.08.05-.16.072-.25.072m9.35.672c-.09 0-.17-.02-.25-.06l-1.73-1.004c-.24-.152-.32-.452-.18-.694.13-.23.45-.322.68-.18l1.73 1.005c.16.09.26.26.25.44 0 .091-.02.171-.06.242-.09.161-.26.25-.44.25m-12.82 1.338c-.17 0-.34-.09-.43-.251-.06-.112-.08-.251-.05-.382.04-.13.12-.242.24-.301l1.73-1.005c.23-.142.55-.051.68.18.04.071.07.152.07.242 0 .18-.09.35-.25.441l-1.73 1.005c-.08.05-.17.071-.26.071m16.29.672c-.09 0-.18-.019-.26-.07l-1.73-.994c-.23-.141-.32-.452-.18-.694.13-.23.45-.31.69-.18l1.73 1.005c.15.09.24.251.25.422 0 .09-.02.18-.07.26-.09.162-.26.251-.43.251m-19.75 1.337c-.18 0-.34-.1-.43-.25-.14-.243-.06-.544.18-.684l1.73-1.005c.24-.141.55-.05.69.181.04.07.06.15.06.241.01.18-.09.35-.25.441l-1.73 1.005c-.08.05-.16.071-.25.071m23.21.672c-.09 0-.17-.019-.25-.07l-1.73-1.005c-.24-.13-.32-.44-.19-.683.14-.23.46-.31.69-.18l1.73 1.005c.15.09.25.251.25.422 0 .09-.02.18-.07.26-.09.162-.25.251-.43.251m-26.67 1.337c-.18 0-.35-.1-.44-.25-.13-.243-.05-.544.19-.684l1.73-1.004c.23-.142.55-.052.68.18.05.07.07.151.07.241 0 .18-.09.351-.25.441l-1.73 1.005c-.08.05-.16.071-.25.071m30.13.673c-.08 0-.17-.02-.25-.07l-1.73-1.005c-.24-.131-.32-.441-.18-.684.13-.23.45-.321.68-.18l1.73 1.005c.16.09.26.261.25.452 0 .08-.02.16-.06.23-.09.162-.26.252-.44.252m-33.6 1.337c-.18 0-.34-.1-.43-.252-.14-.242-.06-.552.18-.683l1.74-1.004c.23-.142.55-.051.68.18.04.07.06.151.07.242 0 .18-.1.35-.25.44l-1.74 1.005c-.07.05-.16.072-.25.072m37.07.672c-.09 0-.18-.02-.25-.06l-1.73-1.004c-.12-.07-.2-.182-.24-.313-.03-.13-.01-.26.06-.381.13-.23.45-.322.68-.18l1.73 1.004c.24.14.32.453.18.683-.09.161-.25.25-.43.25m-40.53 1.338c-.18 0-.34-.09-.43-.251-.07-.112-.09-.251-.05-.382.03-.13.11-.242.23-.301l1.73-1.005c.23-.142.55-.051.68.18.05.071.07.151.07.242.01.18-.09.35-.25.44l-1.73 1.006c-.08.05-.16.07-.25.07m-3.46 2.01c-.18 0-.35-.1-.44-.251-.14-.242-.05-.544.18-.683l1.74-1.005c.23-.13.55-.051.68.181.04.07.06.15.07.241 0 .18-.1.35-.25.441l-1.74 1.005c-.07.05-.16.071-.24.071m-2.33 1.355c-.18 0-.35-.1-.44-.25-.14-.252-.06-.553.19-.693l.59-.342c.24-.141.55-.05.69.181.04.07.06.15.06.241.01.18-.09.35-.25.441l-.59.353c-.08.04-.16.07-.25.07" fill="#34475B"/>
            <path d="M191.714 48.928l-35.412-20.54-.01-.003-13.99-8.115c-.952-.553-1.732-.101-1.732 1.005v18.083c0 1.104.78 2.46 1.732 3.014l35.412 20.538.01.005 13.99 8.114c.952.553 1.731.1 1.731-1.004V51.942c0-1.107-.779-2.462-1.73-3.014" fill="#98ABC1"/>
            <path d="M187.714 50.937l-35.412-20.54-.01-.003-13.99-8.115c-.952-.553-1.732-.101-1.732 1.005v18.083c0 1.104.78 2.46 1.732 3.014l35.412 20.538.01.005 13.99 8.114c.952.553 1.731.1 1.731-1.004V53.95c0-1.106-.779-2.462-1.73-3.014" fill="#FFF"/>
            <path d="M137.534 22.545c-.078 0-.146.016-.204.05-.164.095-.26.347-.26.688v18.083c0 .932.68 2.113 1.483 2.58l49.412 28.658c.293.17.554.213.722.118.164-.094.259-.345.259-.688V53.95c0-.932-.68-2.114-1.481-2.58l-35.408-20.536-.014-.007-13.99-8.114c-.193-.112-.372-.17-.52-.17m50.954 51.23c-.327 0-.677-.1-1.022-.301l-49.412-28.658c-1.112-.646-1.982-2.16-1.982-3.449V23.283c0-.711.276-1.28.76-1.559.482-.28 1.109-.236 1.722.12l13.966 8.1c.022.01.042.023.06.035l35.386 20.523c1.11.645 1.98 2.16 1.98 3.449v18.083c0 .711-.275 1.279-.758 1.558-.21.123-.448.183-.7.183" fill="#34475B"/>
            <path d="M173.911 49.539c-.17 0-.342-.043-.499-.135l-19.916-11.55c-.479-.278-.643-.893-.366-1.373.276-.481.887-.646 1.366-.368l19.916 11.551c.478.278.643.891.366 1.373-.185.321-.52.502-.867.502" fill="#CED7DD"/>
            <path d="M184.948 60.963c-.17 0-.342-.043-.5-.134l-30.951-17.953c-.48-.277-.643-.892-.366-1.372.276-.48.887-.645 1.366-.368l30.952 17.953c.478.277.643.89.366 1.372-.185.322-.521.502-.867.502M184.948 65.986c-.17 0-.342-.043-.5-.134l-30.951-17.953c-.48-.277-.643-.892-.366-1.372.276-.481.887-.646 1.366-.368l30.952 17.953c.478.277.643.89.366 1.372-.185.322-.521.502-.867.502" fill="#E4EBEF"/>
            <path d="M149.706 40.184c0 3.454-2.09 5.043-4.67 3.546-2.58-1.496-4.67-5.51-4.67-8.964 0-3.455 2.09-5.043 4.67-3.548 2.58 1.496 4.67 5.51 4.67 8.966" fill="#FDBBAB"/>
            <path d="M143.18 31.16c-.347 0-.667.082-.95.246-.867.503-1.364 1.728-1.364 3.36 0 3.29 1.982 7.116 4.419 8.53.964.558 1.871.644 2.557.246.867-.503 1.364-1.727 1.364-3.359 0-3.29-1.983-7.117-4.421-8.53-.564-.328-1.111-.492-1.605-.492m3.713 13.634c-.668 0-1.384-.21-2.108-.63-2.712-1.574-4.919-5.79-4.919-9.399 0-2.001.679-3.543 1.864-4.23 1.011-.583 2.272-.498 3.555.248 2.713 1.572 4.921 5.79 4.921 9.399 0 2.001-.679 3.542-1.864 4.23-.44.255-.931.382-1.449.382" fill="#34475B"/>
        </g>
        <g>
            <g transform="translate(141 37.992)">
                <mask id="h" fill="#fff">
                    <use xlink:href="#g"/>
                </mask>
                <path d="M7.942 9.409c0 3.508-1.708 5.361-3.815 4.139C2.02 12.325.312 8.492.312 4.984S2.02-.377 4.127.844C6.234 2.067 7.942 5.902 7.942 9.41" fill="#33475C" fill-rule="nonzero" mask="url(#h)"/>
            </g>
            <path d="M146.984 38.142c0 1.373-.832 2.005-1.857 1.41-1.026-.594-1.857-2.19-1.857-3.564s.83-2.005 1.857-1.41c1.025.594 1.857 2.19 1.857 3.564" fill="#33475C" fill-rule="nonzero"/>
        </g>
        <g fill-rule="nonzero">
            <path d="M88.947 16.613l4.043-7.686-6.617-3.751c-1.286-.914-3.137-.896-5.185.291l-41.15 23.869c-3.811 2.209-6.93 7.635-6.93 12.055v111.547c0 1.994.643 3.455 1.693 4.265l-.002.023.195.112c.116.077.236.148.36.21l6.846 3.963 3.048-7.172-.265-.113 37.302-21.2c3.83-2.175 6.932-7.573 6.89-11.994l-.93-105.16.702.74z" fill="#CBD6E3"/>
            <path d="M35.163 156.856l.08.047c.126.083.23.141.335.195l6.383 3.695 2.649-6.232c-.074-.084-.12-.191-.126-.307-.01-.19.087-.371.253-.466l37.302-21.199c3.697-2.102 6.676-7.283 6.637-11.551l-.931-105.161c-.002-.207.122-.394.313-.472.188-.075.407-.03.548.12l.224.235 3.49-6.636-6.193-3.51c-1.213-.86-2.907-.744-4.69.288L40.288 29.77c-3.682 2.136-6.678 7.35-6.678 11.62v111.548c0 1.748.532 3.122 1.497 3.867.02.016.039.032.057.051m7.037 5.158c-.087 0-.173-.023-.25-.067l-6.845-3.964c-.117-.058-.254-.138-.387-.227l-.168-.095c-.064-.036-.116-.085-.157-.143-1.151-.952-1.784-2.571-1.784-4.58V41.391c0-4.592 3.22-10.195 7.179-12.49l41.15-23.868c2.135-1.238 4.222-1.335 5.724-.267l6.574 3.723c.236.133.323.432.197.672l-4.043 7.686c-.076.143-.215.241-.374.263-.092.01-.18.001-.26-.034l.92 103.952c.043 4.595-3.163 10.174-7.145 12.436l-36.784 20.905c-.003.057-.017.113-.04.167l-3.047 7.173c-.057.132-.166.233-.302.279-.051.017-.104.026-.158.026" fill="#33475C"/>
            <path d="M95.188 13.503c-.04-4.419-3.19-6.227-7-4.017l-41.15 23.869c-3.811 2.209-6.93 7.634-6.93 12.055v111.546c0 4.42 3.135 6.255 6.964 4.08l42.213-23.99c3.83-2.177 6.93-7.575 6.89-11.995l-.987-111.548z" fill="#E4EBEF"/>
            <path d="M91.272 9.043c-.862 0-1.828.295-2.834.878l-41.15 23.868c-3.683 2.136-6.68 7.348-6.68 11.62v111.547c0 1.952.64 3.4 1.798 4.08 1.16.679 2.73.522 4.42-.438l42.213-23.991c3.698-2.1 6.676-7.284 6.637-11.551l-.988-111.548c-.018-1.95-.668-3.395-1.833-4.064-.47-.268-1.003-.401-1.583-.401M44.015 162.458c-.766 0-1.48-.185-2.113-.555-1.48-.866-2.293-2.623-2.293-4.947V45.41c0-4.592 3.22-10.194 7.179-12.489l41.15-23.868c2.003-1.164 3.925-1.332 5.413-.48 1.486.854 2.317 2.603 2.337 4.927l.988 111.548c.042 4.595-3.164 10.173-7.145 12.436l-42.213 23.99c-1.152.655-2.275.985-3.303.985" fill="#33475C"/>
            <path d="M72.828 27.884l-9.3 5.393" fill="#E4EBEF"/>
            <path d="M63.53 34.281c-.346 0-.682-.18-.867-.502-.277-.481-.112-1.095.366-1.372l9.299-5.393c.476-.278 1.089-.112 1.366.368.276.48.112 1.095-.366 1.372l-9.3 5.393c-.156.091-.328.134-.498.134" fill="#33475C"/>
            <path d="M36.868 59.007v4.842" fill="#E4EBEF"/>
            <path d="M36.868 64.352c-.276 0-.5-.225-.5-.502v-4.843c0-.278.224-.502.5-.502s.5.224.5.502v4.843c0 .277-.224.502-.5.502" fill="#33475C"/>
            <path d="M36.868 67.68v4.842" fill="#E4EBEF"/>
            <path d="M36.868 73.025c-.276 0-.5-.225-.5-.503V67.68c0-.278.224-.502.5-.502s.5.224.5.502v4.842c0 .278-.224.503-.5.503" fill="#33475C"/>
            <path fill="#FFF" d="M40.109 146.201l55.833-31.73-.825-90.212-55.008 31.905z"/>
            <path d="M40.609 56.454v88.886l54.83-31.16-.814-89.056-54.016 31.33zm-.5 90.25c-.087 0-.174-.023-.252-.069-.153-.09-.248-.255-.248-.434V56.164c0-.18.096-.346.25-.435l55.008-31.904c.154-.09.344-.09.498-.002.154.088.25.253.252.43l.825 90.212c.002.183-.096.353-.254.444l-55.833 31.73c-.076.042-.161.064-.246.064z" fill="#33475C"/>
            <path d="M83.622 78.107L76.89 87.91l-4.064-1.16 10.796-8.643zM100.02 96.52c.163-.095.301-.193.418-.294 1.067-.855 1.882-2.425 1.882-3.73V53.558c0-.779-.193-1.194-.496-1.244-.366-.724-.97-1.332-1.716-1.611l-23.153-8.7c-1.372-.513-3.096.106-3.83 1.38L52.75 78.707c-.585 1.014-1.08 2.642-1.259 4.008-.046.185-.076.382-.076.595V122.328c0 .586.166 1.03.443 1.304l3.606 1.449 44.557-28.562z" fill="#BC8B42"/>
            <path d="M73.674 86.579l3.052.872 5.055-7.363-8.107 6.491zm3.38 1.79l-5.075-1.448 13.484-10.794-8.409 12.242zm-21.737 37.08l-3.738-1.534c-.366-.364-.56-.913-.56-1.587V83.31c0-.225.03-.451.088-.69.182-1.417.71-3.086 1.3-4.112l20.376-35.326c.828-1.437 2.762-2.133 4.311-1.55l23.153 8.698c.751.282 1.42.88 1.852 1.656.315.15.617.558.617 1.57v38.94c0 1.396-.855 3.094-2.03 4.038-.123.106-.282.219-.466.326l-.399-.684c.14-.082.26-.166.36-.253 1-.802 1.744-2.272 1.744-3.428V53.557c0-.712-.172-.853-.174-.854l-.197-.033-.082-.176c-.339-.671-.887-1.189-1.502-1.42l-23.153-8.698c-1.182-.446-2.717.108-3.35 1.205L53.091 78.907c-.544.944-1.03 2.496-1.209 3.86-.052.22-.072.384-.072.544v39.017c0 .414.097.754.277.97l3.523 1.414-.293.737z" fill="#33475C"/>
            <path d="M54.237 85.258c0-1.746.713-4.412 1.585-5.923l19.877-34.46c.87-1.51 2.917-2.248 4.545-1.635l22.22 8.347c1.629.612 2.727 2.522 2.44 4.244l-1.118 6.738c-.286 1.723-1.633 4.023-2.992 5.112l-44.085 35.29c-1.36 1.09-2.472.551-2.472-1.196V85.258z" fill="#D6A350"/>
            <path d="M79.04 43.424c-1.187 0-2.413.632-3 1.65l-19.877 34.46c-.83 1.44-1.53 4.06-1.53 5.725v16.517c0 .674.181 1.149.501 1.304.318.152.802 0 1.328-.418l44.085-35.291c1.275-1.023 2.58-3.251 2.848-4.868l1.12-6.737c.253-1.522-.749-3.266-2.19-3.807l-22.22-8.347c-.338-.128-.7-.188-1.066-.188m-23.63 60.508c-.22 0-.426-.045-.618-.137-.612-.297-.95-1.014-.95-2.02V85.26c0-1.81.735-4.558 1.638-6.122l19.877-34.461c.967-1.675 3.224-2.487 5.026-1.809l22.22 8.349c1.801.676 3.008 2.775 2.692 4.681l-1.119 6.738c-.3 1.81-1.707 4.211-3.136 5.356l-44.085 35.29c-.537.431-1.068.651-1.546.651" fill="#33475C"/>
            <path d="M97.362 44.76c0-1.746-1.23-2.456-2.732-1.578L63.128 61.594c-1.503.878-2.733 3.026-2.733 4.773v45.426c0 1.747 1.246 2.486 2.77 1.643l31.428-17.382c1.523-.842 2.769-2.961 2.769-4.707V44.76z" fill="#FFF"/>
            <path d="M95.847 43.201c-.304 0-.651.109-1.02.324L63.326 61.937c-1.375.803-2.536 2.832-2.536 4.43v45.425c0 .7.22 1.214.619 1.453.401.235.958.18 1.565-.156l31.429-17.382c1.389-.77 2.563-2.767 2.563-4.36V44.76c0-.697-.214-1.203-.603-1.43-.152-.087-.325-.129-.516-.129m-33.879 70.983c-.348 0-.672-.086-.961-.257-.649-.385-1.008-1.144-1.008-2.135V66.368c0-1.88 1.315-4.174 2.93-5.117L94.431 42.84c.854-.5 1.682-.569 2.325-.196.646.372 1.001 1.124 1.001 2.117v46.587c0 1.88-1.334 4.147-2.973 5.054l-31.429 17.383c-.481.265-.951.4-1.387.4" fill="#33475C"/>
            <path d="M102.103 95.363c1.672.479 1.812 1.589.31 2.469l-45.446 26.632c-1.502.88-2.73.17-2.73-1.576V84.87c0-1.747 1.368-2.786 3.04-2.307l44.826 12.8z" fill="#FBE1B2"/>
            <path d="M56.478 82.844c-.418 0-.8.12-1.11.356-.475.36-.736.954-.736 1.671v38.017c0 .697.214 1.204.604 1.428.388.224.933.156 1.532-.195l45.445-26.632c.565-.33.879-.702.843-.992-.037-.292-.433-.572-1.061-.752l-44.827-12.8c-.237-.068-.468-.101-.69-.101m-.732 42.396c-.326 0-.631-.078-.904-.235-.645-.372-1.001-1.124-1.001-2.117V84.87c0-.972.373-1.79 1.05-2.304.679-.515 1.567-.651 2.494-.385l44.826 12.8c1.31.373 1.582 1.048 1.629 1.415.046.368-.052 1.088-1.228 1.777l-45.446 26.633c-.492.289-.975.433-1.42.433" fill="#33475C"/>
            <path d="M56.032 123.45c-.987 1.438-.566 1.894.936 1.014l45.445-26.632c1.502-.88 2.73-3.03 2.73-4.776v-37.94c0-1.745-.807-1.998-1.795-.56L56.032 123.45z" fill="#F7C364"/>
            <path d="M104.486 54.02c-.077 0-.37.117-.812.762l-47.317 68.894c-.3.435-.405.692-.443.827.135-.028.399-.116.854-.382l45.446-26.631c1.374-.806 2.534-2.836 2.534-4.435V55.117c0-.836-.2-1.08-.25-1.096l-.012-.002M55.809 125.31c-.205 0-.39-.06-.533-.215-.438-.476.035-1.296.43-1.87l47.317-68.894c.749-1.091 1.348-1.179 1.71-1.068.367.115.806.53.806 1.854v37.938c0 1.878-1.314 4.175-2.927 5.119l-45.445 26.632c-.407.238-.927.504-1.358.504" fill="#33475C"/>
            <path d="M88.63 61.873l-19.828 11.62c-.159.092-.332.136-.503.136-.344 0-.678-.178-.863-.498-.279-.479-.118-1.093.36-1.372l19.827-11.62c.477-.28 1.09-.118 1.366.362.278.478.117 1.093-.359 1.372M67.795 77.779l19.828-11.62c.477-.28 1.09-.118 1.366.361.278.48.117 1.093-.359 1.372l-19.828 11.62c-.159.092-.332.136-.503.136-.344 0-.678-.176-.863-.497-.279-.478-.118-1.094.36-1.372" fill="#EBF0F7"/>
            <path d="M90.248 62.057L70.42 73.677c-.158.092-.33.136-.503.136-.343 0-.678-.179-.863-.498-.278-.48-.118-1.093.36-1.371l19.827-11.62c.477-.279 1.09-.118 1.366.361.278.478.117 1.093-.359 1.372M69.413 77.963l19.828-11.62c.477-.278 1.09-.119 1.366.362.278.479.117 1.093-.359 1.372L70.42 79.697c-.158.092-.33.136-.503.136-.343 0-.678-.178-.863-.498-.278-.479-.118-1.093.36-1.372" fill="#5496F7"/>
            <path d="M113.516 115.225c0 1.34-1.08 2.424-2.412 2.424-1.333 0-2.413-1.085-2.413-2.424 0-1.338 1.08-2.423 2.413-2.423 1.332 0 2.412 1.085 2.412 2.423M109.126 27.295c0 1.34-1.08 2.424-2.413 2.424-1.332 0-2.413-1.085-2.413-2.424 0-1.338 1.081-2.423 2.413-2.423 1.333 0 2.413 1.085 2.413 2.423M132.49 59.007c0 1.338-1.08 2.423-2.412 2.423-1.333 0-2.413-1.085-2.413-2.423 0-1.339 1.08-2.424 2.413-2.424 1.332 0 2.413 1.085 2.413 2.424M123.28 84.12c0 1.338-1.08 2.422-2.412 2.422-1.332 0-2.412-1.084-2.412-2.423s1.08-2.424 2.412-2.424c1.333 0 2.413 1.085 2.413 2.424M116.88 10.828h-.003c-.276-.002-.499-.228-.497-.505L116.442.5c.001-.278.225-.5.5-.5h.002c.277.002.5.227.498.506l-.062 9.823c-.002.276-.226.5-.5.5M110.595 12.092c-.128 0-.256-.05-.354-.147l-3.159-3.174c-.195-.196-.195-.514 0-.71.196-.197.512-.197.707 0l3.16 3.173c.195.197.195.514 0 .711-.098.098-.226.147-.354.147M105.88 7.355c-.128 0-.256-.05-.354-.147l-.455-.458c-.195-.196-.195-.513 0-.71.196-.196.512-.196.707 0l.456.457c.195.197.195.515 0 .711-.098.098-.226.147-.354.147M121.436 13.83c-.128 0-.256-.05-.354-.147-.195-.197-.195-.515 0-.712l1.028-1.031c.195-.196.512-.196.707 0 .195.195.195.514 0 .71l-1.027 1.033c-.098.097-.226.146-.354.146M124.008 11.245c-.128 0-.256-.05-.354-.147-.195-.196-.195-.514 0-.71l2.317-2.328c.195-.195.512-.195.707 0 .195.196.195.515 0 .71l-2.316 2.328c-.098.098-.226.147-.354.147" fill="#33475C"/>
        </g>
    </g>
</svg>
