<?xml version="1.0" encoding="UTF-8"?>
<svg width="350px" height="230px" viewBox="0 0 350 230" version="1.1" xmlns="http://www.w3.org/2000/svg" xmlns:xlink="http://www.w3.org/1999/xlink">
    <!-- Generator: Sketch 51.3 (57544) - http://www.bohemiancoding.com/sketch -->
    <title>world</title>
    <desc>Created with Sketch.</desc>
    <defs>
        <linearGradient x1="28.0478051%" y1="39.4791667%" x2="72.9985119%" y2="102.382813%" id="linearGradient-1">
            <stop stop-color="#0065FF" offset="0%"></stop>
            <stop stop-color="#2684FF" offset="100%"></stop>
        </linearGradient>
        <ellipse id="path-2" cx="76.4935065" cy="76.6142857" rx="76.4935065" ry="76.6142857"></ellipse>
        <linearGradient x1="-0.00159397789%" y1="50%" x2="100%" y2="50%" id="linearGradient-4">
            <stop stop-color="#FF8B00" offset="0%"></stop>
            <stop stop-color="#FFC400" offset="83.5000797%"></stop>
        </linearGradient>
        <linearGradient x1="50%" y1="-4.56127183%" x2="39.1798225%" y2="100%" id="linearGradient-5">
            <stop stop-color="#126EF1" offset="0%"></stop>
            <stop stop-color="#126EF1" offset="0%"></stop>
            <stop stop-color="#2684FF" offset="100%"></stop>
        </linearGradient>
        <linearGradient x1="45.2222512%" y1="54.0938481%" x2="81.4930565%" y2="28.8749307%" id="linearGradient-6">
            <stop stop-color="#FFC400" offset="0%"></stop>
            <stop stop-color="#FFF0B3" offset="100%"></stop>
        </linearGradient>
        <linearGradient x1="0%" y1="-17.3672726%" x2="76.340191%" y2="76.8207529%" id="linearGradient-7">
            <stop stop-color="#8777D9" offset="0%"></stop>
            <stop stop-color="#7F70D2" offset="37%"></stop>
            <stop stop-color="#BAB0EA" offset="100%"></stop>
        </linearGradient>
        <linearGradient x1="50%" y1="70.7476013%" x2="88.5360539%" y2="-20.033652%" id="linearGradient-8">
            <stop stop-color="#BAB0EA" offset="0%"></stop>
            <stop stop-color="#9588DB" offset="100%"></stop>
        </linearGradient>
        <linearGradient x1="50%" y1="-4.56127183%" x2="72.7004828%" y2="100%" id="linearGradient-9">
            <stop stop-color="#126EF1" offset="0%"></stop>
            <stop stop-color="#126EF1" offset="0%"></stop>
            <stop stop-color="#2684FF" offset="100%"></stop>
        </linearGradient>
        <linearGradient x1="50.0202882%" y1="100.094913%" x2="50.0202882%" y2="0.0569476082%" id="linearGradient-10">
            <stop stop-color="#8777D9" offset="0%"></stop>
            <stop stop-color="#5243AA" offset="100%"></stop>
        </linearGradient>
        <path d="M0,1.98664967 C0,1.98664967 1.48763835,5.67686972e-16 8.42995067,0 C15.372263,0 19.3392986,1.98664967 19.3392986,1.98664967 C19.3392986,1.98664967 22.6222096,3.47663693 29.2568876,3.47663693 C35.8915656,3.47663693 38.6785972,1.98664967 38.6785972,1.98664967 L38.6785972,25.8264458 C38.6785972,25.8264458 34.4904073,27.8130954 29.7527671,27.8130954 C25.0151269,27.8130954 18.8434191,25.8264458 18.8434191,25.8264458 C18.8434191,25.8264458 14.1325644,24.3364585 9.42170957,24.3364585 C4.71085479,24.3364585 0,25.8264458 0,25.8264458 L0,1.98664967 Z" id="path-11"></path>
        <linearGradient x1="50%" y1="0%" x2="50%" y2="100%" id="linearGradient-13">
            <stop stop-color="#0052CC" offset="0%"></stop>
            <stop stop-color="#0065FF" offset="100%"></stop>
        </linearGradient>
        <linearGradient x1="-0.155438165%" y1="50.0738007%" x2="99.9467398%" y2="50.0738007%" id="linearGradient-14">
            <stop stop-color="#7A869A" offset="35%"></stop>
            <stop stop-color="#C1C7D0" offset="100%"></stop>
        </linearGradient>
        <linearGradient x1="78.075985%" y1="-14.1685231%" x2="41.4042797%" y2="60.4754035%" id="linearGradient-15">
            <stop stop-color="#C1C7D0" offset="0%"></stop>
            <stop stop-color="#7A869A" offset="56%"></stop>
        </linearGradient>
    </defs>
    <g id="world" stroke="none" stroke-width="1" fill="none" fill-rule="evenodd">
        <g id="create-project-illos" transform="translate(30.415584, 22.857143)">
            <path d="M227.935505,75.7526734 C227.945709,76.202155 227.988044,76.6436888 228.0603,77.0750605 L224.738878,77.0750605 C224.811134,76.6436888 224.85347,76.202155 224.863673,75.7526734 L224.863673,75.3256156 C224.750376,70.3346661 220.675424,66.3236481 215.665126,66.3236481 C215.142645,66.3236481 214.630337,66.3672663 214.131631,66.4510653 L214.131631,63.1243988 C214.630337,63.2081978 215.142645,63.251816 215.665126,63.251816 C220.675424,63.251816 224.750376,59.2407979 224.863673,54.2498485 L224.863673,53.8227907 C224.85347,53.3733091 224.811134,52.9317753 224.738878,52.5004036 L228.0603,52.5004036 C227.988044,52.9317753 227.945709,53.3733091 227.935505,53.8227907 L227.935505,54.2498485 C228.048802,59.2407979 232.123754,63.251816 237.134052,63.251816 C237.656533,63.251816 238.168842,63.2081978 238.667547,63.1243988 L238.667547,66.4510653 C238.168842,66.3672663 237.656533,66.3236481 237.134052,66.3236481 C232.123754,66.3236481 228.048802,70.3346661 227.935505,75.3256156 L227.935505,75.7526734 Z" id="Combined-Shape-Copy-4" fill="#FFC400"></path>
            <ellipse id="Oval-9" fill="#DEEBFF" cx="145.584416" cy="107.507143" rx="88.8311688" ry="88.9714286"></ellipse>
            <g id="planet" transform="translate(69.090909, 30.892857)">
                <mask id="mask-3" fill="white">
                    <use xlink:href="#path-2"></use>
                </mask>
                <use id="Oval-5" fill="url(#linearGradient-1)" xlink:href="#path-2"></use>
                <ellipse id="Oval-5-Copy" fill="url(#linearGradient-1)" mask="url(#mask-3)" cx="76.4935065" cy="76.6142857" rx="76.4935065" ry="76.6142857"></ellipse>
                <ellipse id="Oval" fill="#2684FF" mask="url(#mask-3)" cx="95.2369946" cy="42.8869653" rx="75.2806516" ry="75.3995157"></ellipse>
                <path d="M130.363347,59.0838983 C127.888486,65.6133897 121.583631,70.2541969 114.196566,70.2541969 C106.809501,70.2541969 100.504646,65.6133897 98.0297849,59.0838983 L-12.3864554,59.0838983 L-12.3864554,35.6262712 L157.134419,35.6262712 L157.134419,59.0838983 L130.363347,59.0838983 Z M-12.3864554,82.5415254 C-12.3864554,76.3723398 -7.3890656,71.3712268 -1.21414658,71.3712268 L60.0864043,71.3712268 C66.2567,71.3712268 71.258713,76.3709834 71.258713,82.5415254 C71.258713,88.710711 66.2613233,93.7118241 60.0864043,93.7118241 L-1.21414658,93.7118241 C-7.38444233,93.7118241 -12.3864554,88.7120674 -12.3864554,82.5415254 Z M101.370974,127.22272 C101.370974,121.053534 106.368363,116.052421 112.543282,116.052421 L173.843833,116.052421 C180.014129,116.052421 185.016142,121.052178 185.016142,127.22272 C185.016142,133.391906 180.018752,138.393019 173.843833,138.393019 L112.543282,138.393019 C106.372987,138.393019 101.370974,133.393262 101.370974,127.22272 Z" id="Combined-Shape" fill-opacity="0.25" fill="#B3D4FF" mask="url(#mask-3)"></path>
                <ellipse id="Oval-8" fill="#0065FF" mask="url(#mask-3)" cx="106.947318" cy="100.414003" rx="6.69161347" ry="6.70217918"></ellipse>
                <ellipse id="Oval-8-Copy-6" fill="#0065FF" mask="url(#mask-3)" cx="29.9937633" cy="82.5415254" rx="6.69161347" ry="6.70217918"></ellipse>
                <ellipse id="Oval-8-Copy-4" fill="#0065FF" mask="url(#mask-3)" cx="77.9503265" cy="116.052421" rx="13.3832269" ry="13.4043584"></ellipse>
                <ellipse id="Oval-8-Copy-3" fill="#1778FF" mask="url(#mask-3)" cx="113.638932" cy="56.8498386" rx="4.46107565" ry="4.46811945"></ellipse>
                <ellipse id="Oval-8-Copy-5" fill="#0065FF" mask="url(#mask-3)" cx="57.8754861" cy="56.8498386" rx="11.1526891" ry="11.1702986"></ellipse>
            </g>
            <g id="person_2" transform="translate(110.411622, 41.330105)">
                <path d="M31.1349971,3.03692494 L33.3585645,0.642815779 C33.5257755,0.535317816 33.7477254,0.577554875 33.8639207,0.738985069 C33.8335993,0.93638519 33.8234922,1.14896994 33.9346706,1.21983152 C34.0458489,1.2906931 34.1216524,1.17933918 34.2328307,1.21983152 C34.4349732,1.31093927 34.4198125,1.72598567 34.414759,1.86770884 C34.4098464,2.01232559 34.3843204,2.1554966 34.3389555,2.29287833 L34.4551875,2.79903249 C34.5085502,2.97909924 34.4579673,3.17395604 34.3237948,3.30518664 L34.2732592,4.05429479 C34.3844376,4.30737187 33.525332,5.00080307 33.5000642,5.03117232 L32.2063523,5.62843422 C32.1133312,5.73491306 31.9683439,5.7798062 31.8315548,5.74448458 C31.6947658,5.70916297 31.5895221,5.5996553 31.5594963,5.46140335 L31.0541401,3.37604822 C31.0237171,3.256568 31.0539555,3.12974472 31.1349971,3.03692494 L31.1349971,3.03692494 Z" id="Shape" fill="#A27F68" fill-rule="nonzero"></path>
                <path d="M7.15079059,28.2332789 C7.06488004,28.4003097 6.97391591,28.5977098 6.87284467,28.8153561 C6.57453849,29.4814532 6.32458112,30.1682298 6.12491746,30.870342 C5.88585226,31.7566048 5.71687732,32.6603557 5.61956123,33.5732052 C5.44774011,35.3447448 5.72063247,39.571132 6.78188055,45.0730276 L5.90256072,51.1873699 C5.90256072,51.1873699 5.13441925,56.9474042 6.58984518,59.8577906 C6.74650561,60.1665446 7.09520141,60.8700989 7.60055763,60.8700989 L7.60055763,60.8700989 C8.10591386,60.8700989 8.56073446,60.8700989 9.0105015,60.8194835 C9.5461791,60.7789911 9.82412503,60.3133293 9.96562477,59.8071751 C10.5669987,57.6155276 11.4210507,48.4237682 11.4816934,45.3311663 C11.5423362,42.441026 12.1285494,32.3078198 10.8803195,30.561588 C10.470981,29.9288953 9.60176829,28.8102946 7.15079059,28.2332789 Z" id="Shape" fill="#FFA300" fill-rule="nonzero"></path>
                <path d="M7.83175042,9.66868478 C8.38232622,10.771575 11.4104931,14.3559683 11.4104931,14.3559683 L15.8150994,12.7016329 C15.8150994,12.7016329 17.1915389,8.56579453 12.7869326,5.80856892 C12.2363568,6.08429148 12.2363568,6.08429148 12.2363568,6.08429148 C12.2363568,6.08429148 7.42092204,8.84573065 7.83175042,9.66868478 Z" id="Path" fill="#FFF0B3"></path>
                <path d="M30.3213735,6.27125 C30.6953371,6.63061945 29.8160173,8.40722054 31.9738884,5.91694209 C32.4465366,5.52673278 32.7580185,4.97491797 32.8481547,4.36811037 C32.9239581,3.43678672 32.1002275,3.13309423 32.2872093,2.2776937 C32.3882805,1.81203188 32.6813871,1.65512409 32.6409586,1.14896994 C32.6156908,0.794662026 32.4337626,0.394800242 32.2568879,0.394800242 C32.0800132,0.394800242 32.0193705,0.900954399 31.5999248,1.8019088 C31.1804791,2.7028632 31.0238187,2.62694007 30.7559799,3.36592514 C30.6448015,3.67467918 30.6094266,3.8720793 30.3719092,4.53514124 C30.3039567,4.69951794 30.248216,4.86869599 30.2051416,5.0412954 C30.1596595,5.32980327 30.0282669,5.97768059 30.3213735,6.27125 Z" id="Shape" fill="#A27F68" fill-rule="nonzero"></path>
                <path d="M8.70728777,16.8144411 C8.78814476,15.5035018 10.3345348,14.8201937 12.5328344,13.8989931 C18.1625028,11.5403148 20.618534,11.4643916 23.4839038,10.168637 C26.2777348,8.85080258 28.6823981,6.82950981 30.4628733,4.30231033 L31.8778707,6.48889629 C29.6689534,9.06359744 27.1557461,11.359819 24.393545,13.3270389 C22.469032,14.6774671 20.4528219,15.8918093 18.3595917,16.9612258 C14.4329738,18.9858424 12.4974595,19.2692887 11.2846045,20.392951 C11.155483,20.5392469 10.9737999,20.6284122 10.7792483,20.6409665 C9.86960709,20.6207203 8.61632365,18.2873497 8.70728777,16.8144411 Z" id="Shape" fill="url(#linearGradient-4)" fill-rule="nonzero"></path>
                <path d="M13.0331371,12.2134998 L11.6686753,10.9582375 C11.448113,10.1472997 10.8981769,9.4661382 10.1526066,9.08040557 C9.65417201,8.83135107 9.08890187,8.74971005 8.54052021,8.84757466 C7.33271883,9.09559019 6.47361325,10.3356679 6.31695282,11.4896994 C6.0390069,13.514316 7.96441412,14.8657476 8.19687798,15.0327785 C9.04223977,15.6587583 10.1116327,15.8994301 11.1431048,15.6958404 C11.8717948,15.512174 12.5231642,15.1008796 13.0028157,14.5215628 L12.4671381,12.7348386 L13.0331371,12.2134998 Z" id="Shape" fill="#D4B696" fill-rule="nonzero"></path>
                <path d="M8.68201996,12.4716384 C9.08630494,12.355223 9.10651919,11.6769764 9.36425086,10.8873759 C9.83928571,9.43977502 10.632695,9.13608253 10.4507667,8.75646691 C10.1778744,8.17438963 7.97452124,8.0731588 6.71618424,9.32335956 C5.88444025,10.2036826 5.58060512,11.459463 5.9177214,12.6234847 C6.14344759,13.3457104 6.58429021,13.9815261 7.18111197,14.4456396 C7.48656795,14.6899185 7.82737729,14.8861933 8.19182442,15.0277169 C8.27335992,14.6934593 8.26111803,14.3431387 8.15644948,14.0154086 C7.95936055,13.4232082 7.4843257,13.149885 7.58034339,12.7145924 C7.60181018,12.6023208 7.66058913,12.5006332 7.74711094,12.4260845 C8.01494974,12.2388075 8.36364554,12.5627462 8.68201996,12.4716384 Z" id="Shape" fill="#42526E" fill-rule="nonzero"></path>
                <path d="M34.7078656,10.7608374 C34.2934735,10.8671297 33.8386529,10.2546832 33.6617782,9.84469835 C33.4643707,9.37714689 33.4643707,8.84946429 33.6617782,8.38191283 C33.9346706,7.77958939 34.3440091,7.84032789 34.8999009,7.10640436 C35.4557928,6.37248083 35.476007,5.75497276 35.673096,5.76509584 C35.8701849,5.77521893 35.9712561,6.24088075 35.9662026,6.6609887 C35.9662026,7.44552764 35.4608464,7.59231235 35.3395609,8.43758979 C35.2334361,9.11077482 35.5012749,9.26262107 35.2890252,9.92568301 C35.2081682,10.1534524 35.0464543,10.6697296 34.7078656,10.7608374 Z" id="Shape" fill="#A27F68" fill-rule="nonzero"></path>
                <path d="M34.0306882,8.09846651 C34.0306882,8.09846651 36.4563981,7.21269673 36.8000404,6.62555791 C37.1436826,6.03841909 37.0880934,5.54744956 37.3710929,5.53732647 C37.6540924,5.52720339 37.5631283,6.54963479 37.6995744,6.65592716 C37.8360206,6.76221953 38.0381631,6.65592716 38.0634309,6.96974274 C38.1314994,7.30373526 38.1314994,7.64805853 38.0634309,7.98205105 C37.6850816,8.77434818 37.1444147,9.47797995 36.4766124,10.04716 C35.9409348,10.355914 34.864526,11.0594683 34.21767,10.963299 C33.5708141,10.8671297 33.8234922,8.59449758 33.8234922,8.59449758 L34.0306882,8.09846651 Z" id="Shape" fill="#A27F68" fill-rule="nonzero"></path>
                <path d="M17.5863967,16.1665638 C17.7683249,16.9106104 21.6999963,18.7378269 19.8958746,20.1398739 C18.7840909,21.0053975 16.8334159,23.1767988 16.312899,24.5181073 C16.0403695,25.1199391 15.8221951,25.7450049 15.6609894,26.3858162 C15.4574928,27.8147651 14.3793567,28.9614603 12.9674408,29.2506487 C9.7078931,29.898526 5.71557891,30.5970188 6.14007814,28.4661098 C6.64543437,25.9707698 6.92338029,19.4717504 8.74771627,16.0805176 C9.60176829,14.4557627 12.4014418,15.7363327 17.5863967,16.1665638 Z" id="Shape" fill="#FF8B00" fill-rule="nonzero"></path>
                <path d="M9.72305378,18.990904 C10.4254989,16.2273023 16.1865599,16.9662873 23.135208,14.6227936 C26.903175,13.3403942 30.4191579,11.4100589 33.525332,8.91843624 L35.2031147,10.9430529 C32.4380123,14.1419661 29.0369271,16.7278381 25.2172757,18.5353652 C20.3860701,20.7472589 13.9276176,21.9215365 12.0780138,23.252722 C11.9109736,23.3946334 11.695141,23.4654801 11.4766399,23.4501221 C10.4911952,23.2830912 9.32382236,20.5599818 9.72305378,18.990904 Z" id="Shape" fill="#FF8B00" fill-rule="nonzero"></path>
                <ellipse id="Oval" fill="#243759" fill-rule="nonzero" cx="3.60824345" cy="29.5796489" rx="2.70365581" ry="2.70792474"></ellipse>
                <rect id="Rectangle-path" fill="#42526E" fill-rule="nonzero" transform="translate(5.262927, 22.866915) rotate(12.210000) translate(-5.262927, -22.866915) " x="1.8492454" y="16.6159115" width="6.82736261" height="12.5020077" rx="3.4136813"></rect>
                <rect id="Rectangle-path" fill="#7A869A" fill-rule="nonzero" transform="translate(1.860387, 22.582673) rotate(14.610000) translate(-1.860387, -22.582673) " x="1.1301469" y="19.9405479" width="1.46047949" height="5.28424939" rx="0.730239746"></rect>
                <path d="M12.6888022,5.89028237 C12.4487586,6.0104937 12.4487586,6.0104937 12.4487586,6.0104937 C12.4487586,6.0104937 5.15573281,10.7019908 5.56656119,11.5249449 C6.11713698,12.6278352 9.42059174,15.3850608 9.42059174,15.3850608 L15.9758506,12.6493902 C15.5582435,16.0559104 12.6593361,18.6937315 9.14530384,18.6937315 C5.34437117,18.6937315 2.26310644,15.6076016 2.26310644,11.8006675 C2.26310644,7.99373334 5.34437117,4.90760346 9.14530384,4.90760346 C10.4413508,4.90760346 11.6537231,5.26642234 12.6887948,5.89028608 Z" id="Combined-Shape" fill="#243759"></path>
                <ellipse id="Oval-13" fill="url(#linearGradient-5)" transform="translate(19.517206, 61.995157) rotate(-4.000000) translate(-19.517206, -61.995157) " cx="19.517206" cy="61.9951574" rx="16.1713992" ry="3.90960452"></ellipse>
                <path d="M12.7248698,64.6207012 C11.3048188,64.7118089 8.22214579,64.9547629 7.86334287,64.3372548 C7.86334287,64.3372548 7.76227163,64.1449163 7.61571832,64.1297316 C7.46916502,64.114547 7.36809377,64.2461471 7.2973439,64.3068856 C7.14068347,64.4435472 6.79198767,64.5144088 6.08448896,64.236024 C5.96317486,64.229261 5.84835454,64.1789478 5.76106097,64.0943008 C5.68085096,64.0122307 5.6386868,63.9002274 5.64482904,63.7855468 L5.75095385,61.9785765 C5.79344635,61.5679899 6.15955797,61.2692057 6.56963093,61.310453 C6.84803735,61.3475129 7.13011586,61.3475129 7.40852227,61.310453 C8.28278854,61.1788529 8.60621652,60.7435603 9.01555507,60.8700989 C9.42489361,60.9966374 9.36425086,61.4369915 9.68767885,61.9735149 C9.8845417,62.1566366 10.0939316,62.325766 10.3143206,62.4796691 C11.2169376,63.0861531 12.2622479,63.4456096 13.3464579,63.5223467 L13.4475292,64.600455 L12.7248698,64.6207012 Z" id="Shape" fill="#243759" fill-rule="nonzero"></path>
                <polygon id="Shape" fill="#243759" fill-rule="nonzero" points="5.77622166 56.076819 5.72568604 62.4746075 9.33898305 62.6618846 11.0622478 56.2792807"></polygon>
                <path d="M29.8782284,58.052391 C28.5491415,58.5585452 25.6736646,59.6923305 25.1480941,59.2114841 C25.0721865,59.1273508 24.963084,59.0810479 24.849934,59.0849455 C24.7134878,59.1102532 24.6477915,59.267161 24.5972559,59.3481457 C24.4860775,59.5252996 24.1980244,59.687269 23.4197758,59.6366536 C23.3024471,59.665321 23.1787473,59.6509563 23.07108,59.5961612 C22.9696539,59.5409073 22.8962423,59.4453215 22.8689376,59.3329611 L22.4393848,57.5766061 C22.3588256,57.1713467 22.6211178,56.7772872 23.025598,56.6958979 C23.3019566,56.6455081 23.5704418,56.5587084 23.8240608,56.4377593 C24.6225237,56.0530821 24.8044519,55.5418664 25.2289511,55.546928 C25.6534504,55.5519895 25.7343074,55.9872821 26.1941815,56.4023285 C26.4347409,56.5172482 26.6829596,56.6153394 26.9370552,56.6958979 C27.973904,57.0104767 29.0747274,57.048857 30.1309065,56.8072518 L30.5452986,57.8195601 L29.8782284,58.052391 Z" id="Shape" fill="#243759" fill-rule="nonzero"></path>
                <path d="M14.1869176,28.4575575 L21.4842615,37.1836552 C21.8969312,37.6766606 22.1939572,38.2560841 22.3534742,38.8792716 C22.8588304,40.817842 23.3035439,42.3919814 23.6320255,43.5055206 C24.7943448,47.4029076 25.4462543,48.8656931 25.5827005,51.3559715 C25.6592641,52.8174394 25.5437275,54.2826475 25.2390583,55.7139588 L22.6415273,55.855682 C20.0480029,51.3687933 18.2557657,46.4631904 17.345394,41.359427 C14.2874888,39.5087829 11.3642718,37.4435699 8.59767775,35.1792847 C8.59767775,35.1792847 6.37916392,33.2356527 6.60152065,31.8386673 L6.60152065,31.8386673 C6.69248478,31.2667131 6.7834489,30.7858666 6.82893096,30.5530357 C6.97548426,29.8039276 7.10687688,29.1965426 7.19278744,28.7916192 C9.52307576,29.0467261 11.8786909,28.9408804 14.1768105,28.4778037 L14.1869176,28.4575575 Z" id="Shape" fill="url(#linearGradient-6)" fill-rule="nonzero"></path>
                <polygon id="Shape" fill="#243759" fill-rule="nonzero" points="20.7363343 51.9228642 22.5606703 58.0574526 26.072896 57.1716828 25.9970926 50.4044017"></polygon>
            </g>
            <path d="M53.39504,151.074542 C53.4015331,151.360576 53.4284737,151.641552 53.474455,151.916061 L51.3608227,151.916061 C51.406804,151.641552 51.4337446,151.360576 51.4402377,151.074542 L51.4402377,150.802778 C51.3681397,147.626719 48.7749885,145.074253 45.5866168,145.074253 C45.2541293,145.074253 44.9281145,145.10201 44.6107565,145.155337 L44.6107565,143.038367 C44.9281145,143.091694 45.2541293,143.119451 45.5866168,143.119451 C48.7749885,143.119451 51.3681397,140.566985 51.4402377,137.390926 L51.4402377,137.119162 C51.4337446,136.833129 51.406804,136.552153 51.3608227,136.277643 L53.474455,136.277643 C53.4284737,136.552153 53.4015331,136.833129 53.39504,137.119162 L53.39504,137.390926 C53.4671381,140.566985 56.0602892,143.119451 59.2486609,143.119451 C59.5811485,143.119451 59.9071632,143.091694 60.2245212,143.038367 L60.2245212,145.155337 C59.9071632,145.10201 59.5811485,145.074253 59.2486609,145.074253 C56.0602892,145.074253 53.4671381,147.626719 53.39504,150.802778 L53.39504,151.074542 Z" id="Combined-Shape" fill="#FFC400"></path>
            <path d="M8.78428351,106.393348 C8.79077662,106.679382 8.81771719,106.960358 8.86369853,107.234867 L6.75006624,107.234867 C6.79604757,106.960358 6.82298815,106.679382 6.82948125,106.393348 L6.82948125,106.121584 C6.75738318,102.945525 4.16423202,100.393059 0.975860298,100.393059 C0.643372779,100.393059 0.317358038,100.420816 -3.33066907e-16,100.474143 L0,98.357173 C0.317358038,98.4104996 0.643372779,98.4382567 0.975860298,98.4382567 C4.16423202,98.4382567 6.75738318,95.8857906 6.82948125,92.7097319 L6.82948125,92.4379679 C6.82298815,92.1519341 6.79604757,91.8709581 6.75006624,91.5964487 L8.86369853,91.5964487 C8.81771719,91.8709581 8.79077662,92.1519341 8.78428351,92.4379679 L8.78428351,92.7097319 C8.85638159,95.8857906 11.4495327,98.4382567 14.6379045,98.4382567 C14.970392,98.4382567 15.2964067,98.4104996 15.6137648,98.357173 L15.6137648,100.474143 C15.2964067,100.420816 14.970392,100.393059 14.6379045,100.393059 C11.4495327,100.393059 8.85638159,102.945525 8.78428351,106.121584 L8.78428351,106.393348 Z" id="Combined-Shape-Copy" fill="#FFE380"></path>
            <path d="M231.838066,195.755737 C231.844559,196.041771 231.8715,196.322747 231.917481,196.597256 L229.803849,196.597256 C229.84983,196.322747 229.876771,196.041771 229.883264,195.755737 L229.883264,195.483973 C229.811166,192.307914 227.218014,189.755448 224.029643,189.755448 C223.697155,189.755448 223.37114,189.783205 223.053782,189.836532 L223.053782,187.719562 C223.37114,187.772889 223.697155,187.800646 224.029643,187.800646 C227.218014,187.800646 229.811166,185.24818 229.883264,182.072121 L229.883264,181.800357 C229.876771,181.514323 229.84983,181.233347 229.803849,180.958838 L231.917481,180.958838 C231.8715,181.233347 231.844559,181.514323 231.838066,181.800357 L231.838066,182.072121 C231.910164,185.24818 234.503315,187.800646 237.691687,187.800646 C238.024174,187.800646 238.350189,187.772889 238.667547,187.719562 L238.667547,189.836532 C238.350189,189.783205 238.024174,189.755448 237.691687,189.755448 C234.503315,189.755448 231.910164,192.307914 231.838066,195.483973 L231.838066,195.755737 Z" id="Combined-Shape-Copy-2" fill="#FFE380"></path>
            <path d="M281.468413,150.593674 C281.478616,151.043156 281.520952,151.48469 281.593208,151.916061 L278.271786,151.916061 C278.344042,151.48469 278.386377,151.043156 278.396581,150.593674 L278.396581,150.166616 C278.283284,145.175667 274.208332,141.164649 269.198034,141.164649 C268.675553,141.164649 268.163244,141.208267 267.664539,141.292066 L267.664539,137.9654 C268.163244,138.049199 268.675553,138.092817 269.198034,138.092817 C274.208332,138.092817 278.283284,134.081799 278.396581,129.090849 L278.396581,128.663792 C278.386377,128.21431 278.344042,127.772776 278.271786,127.341404 L281.593208,127.341404 C281.520952,127.772776 281.478616,128.21431 281.468413,128.663792 L281.468413,129.090849 C281.58171,134.081799 285.656662,138.092817 290.66696,138.092817 C291.189441,138.092817 291.701749,138.049199 292.200455,137.9654 L292.200455,141.292066 C291.701749,141.208267 291.189441,141.164649 290.66696,141.164649 C285.656662,141.164649 281.58171,145.175667 281.468413,150.166616 L281.468413,150.593674 Z" id="Combined-Shape-Copy-3" fill="#FFF0B3"></path>
            <g id="person_3" transform="translate(144.984959, 37.979015)">
                <path d="M23.9245718,20.4912684 C24.3646741,21.326463 24.7931947,22.2312572 25.198552,23.1476513 C26.7040831,26.6233974 27.7138621,30.2940187 28.1981965,34.0515813 L31.7248054,47.5480946 L29.7732993,48.1280909 C28.5689816,43.7326794 26.9920071,39.4483336 25.0595724,35.3217731 C24.7931947,34.7417769 24.5326078,34.2023803 24.0114341,33.0713876 C20.8496467,26.1810318 20.5369425,24.9514397 20.8959733,23.7102477 C21.1160244,22.9620525 21.7356421,21.6976606 23.9245718,20.4912684 Z" id="Shape" fill="url(#linearGradient-7)" fill-rule="nonzero"></path>
                <path d="M4.26474009,4.12377351 C4.55428105,4.4369715 5.33604167,4.33837214 5.74139902,3.90917489 C5.9786345,3.63159016 6.09353107,3.26961757 6.05989409,2.90578134 C6.05989409,2.5229838 5.88037869,2.48818402 5.77614394,2.08218663 C5.57346526,1.25279195 6.01356753,0.556796424 5.82247049,0.452397094 C5.77614394,0.452397094 5.68928165,0.452397094 5.49818461,0.585796238 C5.46733372,0.540994868 5.41889914,0.5114664 5.36499576,0.504596759 C5.24338856,0.504596759 5.15073545,0.719195381 5.11019971,0.817794748 C4.83421726,1.42221033 4.59821482,2.04414803 4.40371975,2.67958279 C4.21262271,3.53797728 4.1199696,3.97297448 4.26474009,4.12377351 Z" id="Shape" fill="#D4B696" fill-rule="nonzero"></path>
                <path d="M2.03420226,19.7621916 C2.32374323,20.0753896 3.10550384,19.9767902 3.5108612,19.547593 C3.74809668,19.2700082 3.86299325,18.9080356 3.82935626,18.5441994 C3.82935626,18.1614019 3.64984086,18.1266021 3.54560611,17.7206047 C3.34292744,16.89121 3.78302971,16.1952145 3.59193267,16.0908152 C3.54560611,16.0908152 3.45874382,16.0908152 3.26764679,16.2242143 C3.23679589,16.1794129 3.18836131,16.1498845 3.13445794,16.1430148 C3.01285073,16.1430148 2.92019762,16.3576135 2.87966189,16.4562128 C2.60367944,17.0606284 2.367677,17.6825661 2.17318193,18.3180009 C1.98208489,19.1763954 1.88943178,19.6113926 2.03420226,19.7621916 Z" id="Shape-Copy" fill="#D4B696" fill-rule="nonzero" transform="translate(2.899259, 18.018200) scale(-1, 1) rotate(65.000000) translate(-2.899259, -18.018200) "></path>
                <path d="M6.66793012,2.08218663 C6.68264225,2.31115312 6.63458368,2.53979176 6.52895045,2.74338238 C6.35522587,3.07978022 5.81667967,4.12957348 5.46923051,4.02517415 C5.30129675,3.97297448 5.24917938,3.67717638 5.24338856,3.52637735 C5.24338856,3.23637921 5.60821018,3.08558018 5.66611837,2.76078227 C5.66611837,2.69118272 5.66611837,2.65058298 5.70665411,2.57518346 C5.75298066,2.38958465 5.77614394,2.29678525 5.81667967,2.28518532 C5.85721541,2.2735854 5.96724098,2.48238406 6.08884818,2.48818402 C6.30889932,2.48818402 6.45946062,1.81538834 6.58106783,1.83858819 C6.70267503,1.86178804 6.6621393,2.024187 6.66793012,2.08218663 Z" id="Shape" fill="#D4B696" fill-rule="nonzero"></path>
                <path d="M4.5079545,1.49639039 C4.42113535,1.75983602 4.38382987,2.03711913 4.39792893,2.31418514 C4.34581156,3.32337866 4.1489237,3.94977463 4.22420435,3.96717452 C4.299485,3.98457441 4.3573932,3.77577575 4.40371975,3.66557646 C4.78012301,2.77818216 5.39394986,0.893194263 5.12178135,0.765595083 C4.98859251,0.730795306 4.6585158,1.11939281 4.5079545,1.49639039 Z" id="Shape" fill="#D4B696" fill-rule="nonzero"></path>
                <path d="M17.6820685,21.9180592 C14.2617566,30.1602479 11.9258516,38.8128436 10.7330853,47.6582939 L12.8293619,47.6582939 C13.2578825,45.9589048 13.9006635,43.5345204 14.7519139,40.634539 C15.423649,38.3551537 15.7016083,36.7369641 16.7207925,34.5967778 C17.1412987,33.6107585 17.6674883,32.6734011 18.2901046,31.8011958 C20.7048762,28.5706165 23.3281174,28.6402161 24.7294957,25.8910337 C24.9727101,25.4096368 25.5691645,24.2380443 25.198552,23.1360514 C25.1406438,22.9678525 24.9958734,22.6546545 24.7005416,22.0456584 C24.4052098,21.4366623 24.1214596,20.8856659 23.9708983,20.5608679 C21.9576117,21.3277702 19.838444,21.7796603 17.6878593,21.9006593 L17.6820685,21.9180592 Z" id="Shape" fill="url(#linearGradient-8)" fill-rule="nonzero"></path>
                <ellipse id="Oval-13" fill="url(#linearGradient-9)" transform="translate(20.632475, 51.941889) rotate(3.000000) translate(-20.632475, -51.941889) " cx="20.6324749" cy="51.9418886" rx="16.1713992" ry="3.90960452"></ellipse>
                <path d="M10.6983404,46.1503036 C10.6177425,46.9343115 10.4724758,47.7102903 10.2640289,48.4702887 L10.2640289,48.4702887 C10.0047365,49.4063035 9.219632,50.1017409 8.26040544,50.2450773 L6.4536698,50.5176755 L6.4536698,50.8308735 L9.27379883,51.5094692 C9.52859488,51.4630695 10.2582381,51.3354703 10.3624729,51.5616688 C10.3624729,51.6138685 10.3624729,51.695068 10.2814014,51.8342671 C10.5361974,51.8884001 10.7987146,51.9347998 11.0689528,51.9734662 C11.3417815,52.0110496 11.6032947,51.8509837 11.6943613,51.5906687 C12.0939278,50.3784764 13.1594386,47.0898976 13.2231376,46.6201006 L10.6983404,46.1503036 Z" id="Shape" fill="#344563" fill-rule="nonzero"></path>
                <path d="M29.3216154,47.026098 C29.4548043,47.2928963 29.7096003,48.0004917 29.9470239,48.7080872 C30.2931237,49.7453463 29.9824581,50.8893028 29.1594725,51.6080685 L28.1924056,52.4374632 L28.3371761,52.6868616 L30.8156468,51.8574669 C30.9893714,51.695068 31.4873819,51.2426709 31.6784789,51.3644701 C31.7190146,51.3644701 31.7595504,51.4572695 31.7537595,51.6138685 C32.0954179,51.4804694 32.4486579,51.3296703 32.8018978,51.1614714 L32.8887601,50.9526728 C32.8482244,50.8424735 32.8018978,50.7032744 32.7555713,50.5466754 C32.2980966,49.1198845 31.6726881,46.6491004 31.4526369,46.1677035 L29.3216154,47.026098 Z" id="Shape" fill="#344563" fill-rule="nonzero"></path>
                <path d="M16.9904248,11.7811743 C16.9904248,11.7811743 15.5789126,16.4936441 5.22782302,17.436138 L4.28681488,17.436138 L4.28681488,19.7923729 C4.28681488,19.7923729 15.5789126,20.2636199 20.2839533,15.5511501 L16.9904248,11.7811743 Z" id="Path-2" fill="#6555C0"></path>
                <path d="M14.2075769,12.8237176 C16.1435811,12.1539096 18.0418963,11.3794442 19.8941615,10.5037325 L20.1547484,10.283334 L20.2126566,10.2311343 L20.2763556,10.1731347 C21.4345195,9.13494133 23.2248101,12.7509869 22.2104893,13.8967107 C22.2050827,14.7194197 22.2768177,15.5408198 22.4247496,16.350095 C22.7251758,17.9456598 23.3139092,19.4728869 24.1619954,20.856666 L17.2130122,23.0142522 C17.7920941,21.7266605 17.699441,20.9204656 17.4851807,20.4158689 C17.0161243,19.2848761 15.7479349,19.0818774 15.2904601,17.7130862 C15.1442074,17.2685486 15.1006462,16.7965519 15.1630621,16.3326951 C12.3608255,16.5866286 9.56630939,15.7703608 7.33966516,14.0475098 C2.70700968,10.3123338 3.35558145,4.1875731 3.401908,3.83957534 L5.89775114,4.41957161 C5.78824724,5.71933513 5.92579563,7.02810811 6.3031085,8.27654684 C7.48443565,11.6579251 11.2195141,13.7169119 14.2075769,12.8237176 Z" id="Shape" fill="url(#linearGradient-10)" fill-rule="nonzero"></path>
                <path d="M13.3832269,5.02663438 C13.3832269,5.02663438 17.8443026,5.58514931 18.9595715,6.14366425 C18.9595715,6.14366425 21.1901093,6.70217918 20.0748404,10.6117837 C20.0748404,10.6117837 13.709149,12.2873285 13.9408614,12.2873285 C13.9408614,12.2873285 12.267958,11.1702986 12.267958,8.9362389 C12.267958,6.70217918 13.3832269,5.02663438 13.3832269,5.02663438 Z" id="Path-4" fill="#EAE6FF"></path>
                <path d="M15.1804346,6.85555597 C15.275117,6.88443833 15.3719328,6.90577144 15.4699755,6.91935556 C15.7531837,6.95377113 16.0257077,7.04871174 16.2691086,7.19775377 C16.6918384,7.49355187 16.4138791,8.06194822 16.7787007,8.88554293 C16.8760666,9.09613229 16.9461255,9.31833561 16.9871702,9.54673869 C17.005754,9.65608655 17.0173591,9.76650976 17.0219151,9.87733656 C17.168516,10.5880924 17.4390308,11.2674105 17.8210482,11.8841237 L17.4272725,11.7739244 L16.2691086,11.3273272 C15.4352306,10.747331 15.2499244,10.6835314 15.2499244,10.2891339 C15.2499244,9.89473645 15.2499244,8.9841423 15.2151795,8.95514248 C14.943011,8.69414416 14.5955618,8.6419445 14.8619395,8.32294654 C15.0125008,8.1431477 15.1283172,8.00974856 15.1688529,7.97494878 C15.2093887,7.940149 15.4062765,7.58055131 15.1804346,6.85555597 Z" id="Shape" fill="#D4B696" fill-rule="nonzero"></path>
                <path d="M16.9003079,11.9711231 L16.9524253,12.1219221 C17.3002661,13.0566589 18.0424453,13.7898647 18.9804001,14.1253775 C19.9183549,14.4608903 22.8845178,12.8118155 22.9521845,12.1818546 C23.0198513,11.5518937 22.8128326,10.9233257 22.3842138,10.4573328 C21.8839457,9.90745167 21.4593798,9.29300478 21.1218152,8.63034457 C20.293728,6.99475508 20.4095444,5.84056249 19.3092888,5.19676662 C18.6049467,4.85372395 17.8169506,4.72084166 17.0392876,4.81396908 C16.6284142,4.81413914 16.2263019,4.93294959 15.8811237,5.15616688 C15.6167168,5.3559049 15.3992763,5.61130594 15.2441336,5.90436208 C15.0821969,6.20727749 14.9873886,6.54160877 14.9661742,6.88455578 C15.41478,6.91225573 15.8544744,7.0223529 16.2633178,7.2093537 C16.1378282,8.81604685 16.354892,10.4426431 16.9003079,11.9711231 Z" id="Shape" fill="#172B4D" fill-rule="nonzero"></path>
                <path d="M13.5387737,12.1224883 L20.0748404,10.6117837 C21.1901093,6.70217918 18.9595715,6.14366425 18.9595715,6.14366425 C18.0371228,5.68171164 14.4442951,5.21975904 13.2295316,5.07383234 C14.3191044,3.3662179 16.2285143,2.23405973 18.401937,2.23405973 C21.7896401,2.23405973 24.5359161,4.9846719 24.5359161,8.37772397 C24.5359161,11.770776 21.7896401,14.5213882 18.401937,14.5213882 C16.4214994,14.5213882 14.6602711,13.5813597 13.5387737,12.1224883 Z" id="Combined-Shape" fill="#5243AA"></path>
            </g>
            <g id="flag" transform="translate(166.837043, 44.071841) rotate(3.000000) translate(-166.837043, -44.071841) translate(145.246134, 1.439698)">
                <g id="Group-2" transform="translate(2.667489, -0.000000)">
                    <mask id="mask-12" fill="white">
                        <use xlink:href="#path-11"></use>
                    </mask>
                    <use id="Rectangle-19" fill="#0065FF" xlink:href="#path-11"></use>
                    <path d="M-0.495879451,22.8464713 C-0.495879451,22.8464713 3.96703561,12.9132229 18.8434191,12.9132229 C33.7198027,12.9132229 37.1909588,10.9265732 38.6785972,1.48998726 C40.1662355,-7.9465987 39.6703561,28.3097579 39.6703561,28.3097579 L14.3805041,29.3030827 L-2.97527671,28.3097579 L-0.495879451,22.8464713 Z" id="Path-12" fill="url(#linearGradient-13)" mask="url(#mask-12)"></path>
                </g>
                <ellipse id="Oval-2" fill-opacity="0.5" fill="#005AE3" cx="6.66872365" cy="80.8189639" rx="6.66872365" ry="3.33962661"></ellipse>
                <rect id="Rectangle-18" fill="#B3D4FF" x="1.33374473" y="1.33585064" width="2.66748946" height="80.1510386" rx="1.33374473"></rect>
            </g>
            <g id="person_1" transform="translate(78.301242, 47.396969) rotate(55.000000) translate(-78.301242, -47.396969) translate(56.710333, 16.504112)">
                <path d="M16.2419859,4.68728354 C16.7925617,5.79017378 19.8207285,9.37456708 19.8207285,9.37456708 L24.2253348,7.72023171 C24.2253348,7.72023171 25.6017743,3.58439329 21.197168,0.827167683 C20.6465922,1.10289024 20.6465922,1.10289024 20.6465922,1.10289024 C20.6465922,1.10289024 15.8311575,3.86432941 16.2419859,4.68728354 Z" id="Path" fill="#F4F5F7"></path>
                <path d="M15.5757892,9.37456708 C15.5757892,9.37456708 15.625341,10.5546596 15.5757892,11.0289024 C15.4843844,11.4441286 15.3283145,11.842363 15.1133055,12.208995 C15.1133055,12.208995 18.4773236,13.0692494 18.7360942,13.1078506 C18.9948648,13.1464517 19.5069003,10.9020701 19.5069003,10.9020701 L15.5757892,9.37456708" id="Shape" fill="#9C7761" fill-rule="nonzero"></path>
                <path d="M32.4234084,5.55856683 C32.2575895,5.84556385 32.142131,6.15891319 32.0820514,6.48499464 C32.0458302,6.74508097 32.0880091,7.01007536 32.2031781,7.2459889 C32.5775696,7.89669415 33.8549054,7.97389647 34.6697576,7.54376927 C35.0004014,7.34951429 35.2887303,7.09073371 35.5176443,6.782775 C35.9140589,6.33059 35.8975416,6.15964201 35.8700128,6.07692525 C35.8108946,5.94773191 35.6982042,5.85098754 35.5616904,5.81223159 C35.8975416,5.53650903 35.9525992,5.35453214 35.9305762,5.26078647 C35.8810244,5.03469397 35.5011271,4.81963037 35.5011271,4.81963037 C35.5011271,4.81963037 35.7378747,4.35090201 35.5892192,4.20201183 C35.5396674,4.15238177 35.4625868,4.14135287 35.1432528,4.16341067 C34.5431252,4.20201183 34.5596425,4.24061299 34.4550331,4.21304073 C34.1081703,4.10826616 34.1136761,3.69468232 33.8053536,3.66159561 C33.6379236,3.65477245 33.4749309,3.71648891 33.3538815,3.8325436 C33.1116281,4.01452049 33.0730878,4.21855518 32.8033057,4.75345695 C32.660156,5.11189628 32.6711675,5.01815061 32.4234084,5.55856683 Z" id="Shape" fill="#B5917C" fill-rule="nonzero" transform="translate(34.002129, 5.736758) rotate(-50.000000) translate(-34.002129, -5.736758) "></path>
                <path d="M4.51472149,31.432372 C4.28822433,31.1790166 4.02007027,30.9663928 3.72189235,30.8037245 C3.47972482,30.6843707 3.20747674,30.6402045 2.94007473,30.6768921 C2.18578589,30.8368112 1.70678496,32.0555049 1.83892315,32.9929617 C1.92301136,33.3796256 2.08404978,33.7453475 2.31241833,34.0682796 C2.62624653,34.6197248 2.79692502,34.6197248 2.86299412,34.6197248 C3.00608292,34.6027587 3.13471195,34.5242516 3.21536262,34.4046612 C3.3750296,34.8237595 3.53469658,34.9561063 3.66132902,34.9561063 C3.89807661,34.9561063 4.21190481,34.6803837 4.21190481,34.6803837 C4.21190481,34.6803837 4.5918021,35.0608809 4.7624806,34.9671352 C4.8285497,34.9340485 4.86158424,34.8623606 4.94417061,34.5425225 C5.09833183,33.9469617 5.05428577,33.9469617 5.11484911,33.853216 C5.32957367,33.5444068 5.73149399,33.6877825 5.88014946,33.401031 C5.94746614,33.2424671 5.94746614,33.0632944 5.88014946,32.9047304 C5.78104582,32.6069501 5.59385005,32.50769 5.14788365,32.0996206 C4.87259576,31.7963257 4.95518213,31.8349269 4.51472149,31.432372 Z" id="Shape" fill="#B5917C" fill-rule="nonzero"></path>
                <path d="M16.2529974,30.7982101 C20.1070279,36.1637711 20.1455682,39.681991 19.5564521,41.8271125 C18.8572209,44.31413 17.1889762,45.4059914 13.0761751,50.253194 C10.6756646,53.0821075 8.85325873,55.5305238 7.65850927,57.2014025 L5.6654249,55.6352984 C6.56360425,54.002354 7.13583305,52.2099108 7.35018682,50.3579686 C7.4018017,49.4163278 7.6335743,48.4933899 8.0329008,47.6393441 C8.33840515,47.0753818 8.69404821,46.540152 9.09551208,46.0401532 C10.3288019,44.3527312 11.4024247,43.0844074 12.0300811,42.3840721 C12.4980705,41.832627 12.894485,41.4245576 13.1697729,41.1212628 C12.8449332,40.2720373 12.167725,38.5018984 11.2923095,36.1582567 C9.95441032,32.5959212 9.29371937,30.7706378 9.77272031,28.6751464 C9.88089005,28.2067392 10.0358313,27.7504187 10.235204,27.3130769 C11.8942812,29.0053394 13.9915839,30.2007798 16.2915377,30.7651234 L16.2529974,30.7982101 Z" id="Shape" fill="url(#linearGradient-14)" fill-rule="nonzero"></path>
                <path d="M17.0678496,11.1281626 C17.4972987,12.6060355 17.7946096,13.8357581 18.7746345,15.2198854 C19.7044127,16.5226861 20.9288694,17.5865653 22.3478714,18.3245214 C23.976857,18.7503528 25.6591111,18.9361202 27.3415938,18.8759665 C29.9020398,18.7743572 32.4091154,18.1117755 34.6862749,16.9348797 C34.8422603,16.3844666 34.7913292,15.7958724 34.5431252,15.2805443 C34.3756081,14.9518928 34.12977,14.6696796 33.8273767,14.4588911 L29.0318615,14.4588911 C27.27736,14.433157 25.563234,14.3816888 23.8894836,14.3044865 C23.6417245,13.8909026 23.2618272,13.2015962 22.8599069,12.3633996 C21.7587553,10.0197579 21.6706632,8.82312195 20.4373734,6.97026634 C20.025005,6.20205563 19.356745,5.60298935 18.5488984,5.27732982 C18.0415102,5.05608452 17.4651226,5.05608452 16.9577344,5.27732982 C15.6088237,6.06589634 16.7705386,10.0859313 17.0678496,11.1281626 Z" id="Shape" fill="#243759" fill-rule="nonzero" transform="translate(25.547153, 11.999204) rotate(-50.000000) translate(-25.547153, -11.999204) "></path>
                <path d="M13.7974293,19.5652729 L11.4795053,31.1456205 L19.0994742,31.1456205 C20.129051,29.1659325 20.2006258,27.8369498 20.0244416,26.9160364 C19.9539563,26.6097288 19.9097493,26.2979458 19.8923034,25.9840942 C19.8766067,24.9296048 20.171519,23.8938637 20.7401901,23.0062905 C21.2907659,22.0136893 21.7972956,20.1056892 21.400881,16.107712 C21.3667479,15.6657431 21.2568615,15.2329653 21.0760413,14.8283593 C20.1125337,12.6832378 17.4697699,12.208995 17.0843668,12.1428216 L16.7540213,13.797157 C15.9061906,13.6940816 15.1147963,14.2406509 14.9095924,15.0709952 L13.7974293,19.5652729 Z" id="Shape" fill="#243759" fill-rule="nonzero"></path>
                <path d="M17.9487708,12.7163245 C19.8152228,13.0416771 19.9969128,14.8393882 20.0079243,16.3724057 C20.0464646,20.2325215 19.3637506,23.6349379 18.5158639,27.3461636 L10.2186867,27.3461636 L12.3163805,14.6132957 L13.6212451,13.4001165 C14.4138346,12.6444036 15.514791,12.3054271 16.5943544,12.4847176 L17.9487708,12.7163245 Z" id="Shape" fill="#A5ADBA" fill-rule="nonzero"></path>
                <path d="M20.7126613,3.67813896 C20.8117649,4.06415055 20.9053628,4.48876329 20.9769377,4.9519772 C21.0667343,5.52692905 21.1182351,6.1072282 21.1310989,6.68902933 C21.1641334,6.782775 21.2302025,6.94269409 21.3293062,7.14121433 C21.6706632,7.81949183 21.923928,8.04558433 21.8468474,8.24410458 C21.7697668,8.44262482 21.6321229,8.45365372 21.1035701,8.43711037 C21.0705356,8.63011616 21.015478,8.91135317 20.9218801,9.25324915 C20.8523713,9.63743835 20.7261935,10.0091355 20.5474886,10.3561394 C20.0960164,11.0123591 19.0003706,10.9847868 18.2075414,10.962729 C17.4907381,11.0273512 16.7757582,10.8207814 16.2034456,10.3837116 C15.9735197,10.1714718 15.7865859,9.91684031 15.6528698,9.63374628 C15.4584725,9.2244964 15.3659076,8.7741856 15.3830876,8.32130689 C15.5508363,8.32097427 15.7170389,8.28917758 15.8731001,8.22756122 C16.1861008,8.08970868 16.4507271,7.8611561 16.6328947,7.57134153 C17.0513323,6.95923744 18.0974263,5.4151911 19.28667,4.90234714 C19.5716411,4.79247386 19.8373898,4.63798459 20.0739934,4.44464768 C20.3316782,4.23019831 20.5481148,3.97043803 20.7126613,3.67813896 Z" id="Shape" fill="#B5917C" fill-rule="nonzero" transform="translate(18.620907, 7.326243) rotate(-30.000000) translate(-18.620907, -7.326243) "></path>
                <path d="M18.8792439,5.51445122 L19.1435203,7.60994269 C18.8682324,7.87463634 18.6700251,7.90772305 18.5323812,7.88566525 C18.102932,7.80846293 18.0754032,7.09709872 17.5468505,6.95923744 C17.341931,6.89314774 17.1174911,6.93685774 16.9522286,7.07504092 C16.6989638,7.35076348 17.1394244,7.79191958 16.9522286,8.32682134 C16.875148,8.54188494 16.7485156,8.62460171 15.9226519,9.23119134 L15.0362249,9.88741104 C14.792121,9.43868913 14.5733812,8.97658517 14.3810397,8.50328378 C14.1938439,8.04558433 13.2798881,5.67988476 13.8304639,4.7479425 C14.0037798,4.46287712 14.2511764,4.23033832 14.5462124,4.07517945 C14.6352028,4.01890275 14.7270929,3.96736305 14.8215003,3.92077482 C15.9226519,3.3693297 18.7911518,3.6064511 20.0409588,3.1763239 C20.215579,3.09534316 20.4169144,3.09534316 20.5915346,3.1763239 C20.7787304,3.31418518 20.7787304,3.63402335 20.7567074,3.8325436 C20.3412278,4.6019334 19.6659492,5.1981333 18.8517151,5.51445122 L18.8792439,5.51445122 Z" id="Shape" fill="#F0F2F5" fill-rule="nonzero" transform="translate(17.211403, 6.501500) rotate(-30.000000) translate(-17.211403, -6.501500) "></path>
                <path d="M35.616748,37.3438637 C35.3965177,36.566326 34.9009995,36.1692856 34.2843546,35.4579214 C33.3128311,34.3326541 32.5367517,33.0520585 31.9884535,31.6694934 C30.98363,29.9251595 29.1626833,28.8117557 27.1543981,28.7137475 L26.8460756,28.7137475 L9.77822606,28.7137475 L9.77822606,29.0832157 C9.77693305,29.6440277 9.86046704,30.2018003 10.0259852,30.7375511 C10.3021418,31.5933959 10.7733861,32.3731208 11.4024247,33.0150195 C12.4777339,34.1214548 13.8355731,34.9111224 15.32803,35.2980023 C18.2350702,36.12517 20.4098446,35.5737248 23.9170124,35.1435976 C24.654784,35.0553664 25.5246937,34.9616207 26.5102244,34.878904 C27.0608002,35.9487075 27.611376,36.9909388 28.1619518,37.9890545 C28.6895582,39.0169977 29.3856022,39.9490071 30.2211052,40.7462801 C30.5129104,40.9723726 31.4654065,41.6341067 33.3208469,41.4466154 L34.9230225,40.5201876 C35.4185407,39.7040488 35.9525992,38.5129273 35.616748,37.3438637 Z" id="Shape" fill="url(#linearGradient-15)" fill-rule="nonzero"></path>
                <path d="M41.8023824,46.100914 C40.651679,47.1376308 38.1795937,49.4095847 37.4583394,49.1504055 C37.3466089,49.0984576 37.2177013,49.0984576 37.1059709,49.1504055 C36.9793384,49.2276079 36.9738327,49.4150992 36.9573154,49.5143593 C36.9132693,49.7349374 36.6820275,50.0216888 35.8561638,50.2753536 C35.7482368,50.3495265 35.6174566,50.382762 35.487278,50.3690993 C35.3636453,50.3542134 35.2518568,50.2882341 35.1789556,50.1871224 L34.0502752,48.5769026 C33.8241353,48.2022229 33.9334592,47.7155713 34.2980343,47.4740124 C34.5592915,47.3132945 34.7981201,47.1185922 35.0082771,46.894995 C35.6634623,46.1891452 35.6524508,45.599099 36.1094287,45.4336654 C36.5664066,45.2682319 36.7866369,45.6818157 37.4253048,45.9244516 C37.714927,45.9445666 38.0055924,45.9445666 38.2952146,45.9244516 C39.4779812,45.8359106 40.6169471,45.4385444 41.5986693,44.7719313 L42.4135215,45.6266712 L41.8023824,46.100914 Z" id="Shape" fill="#243759" fill-rule="nonzero" transform="translate(38.173095, 47.572017) rotate(51.000000) translate(-38.173095, -47.572017) "></path>
                <polygon id="Shape" fill="#243759" fill-rule="nonzero" points="30.909325 41.380442 35.1872989 46.8838643 38.3971557 44.595367 35.6497825 37.7519331"></polygon>
                <path d="M12.327392,60.9402004 C10.7967913,60.7085935 7.46030198,60.250894 7.21804863,59.517472 C7.21804863,59.4898998 7.15197954,59.2913795 7.00332407,59.236235 C6.85466861,59.1810905 6.71702466,59.3024084 6.62342678,59.3520385 C6.42521949,59.4568131 6.07285099,59.4623275 5.3515967,58.9991136 C5.22516909,58.9630331 5.1158034,58.8828353 5.04327425,58.7730211 C4.9751417,58.6667146 4.95513779,58.5364839 4.98821667,58.4145818 L5.53879247,56.5176106 C5.60556876,56.3111179 5.75171991,56.1397729 5.94492889,56.0414637 C6.13813786,55.9431544 6.36248741,55.9259799 6.5683692,55.9937377 C6.85817217,56.0938504 7.15994705,56.1550424 7.46580774,56.1757146 C8.42931537,56.2363736 8.87528177,55.850362 9.27720209,56.0764545 C9.67912242,56.302547 9.51945544,56.7602464 9.73418,57.4054372 C9.90200347,57.642134 10.0859675,57.8669245 10.2847558,58.0782003 C11.1021263,58.9295098 12.1268034,59.552889 13.2578651,59.8869403 L13.1202211,61.0615184 L12.327392,60.9402004 Z" id="Shape" fill="#243759" fill-rule="nonzero"></path>
                <polygon id="Shape" fill="#243759" fill-rule="nonzero" points="6.89320892 50.2366506 5.36811397 57.0414834 9.17259269 58.0726858 12.7072893 51.5987201"></polygon>
                <path d="M11.1987116,17.4973537 C10.1903222,21.0570035 9.60813021,24.7241251 9.46439786,28.4214816 C9.68187245,28.6312573 9.92192536,28.816205 10.1801464,28.9729267 C11.7547932,29.8828112 14.2323842,29.8828112 15.6583755,28.4214816 C16.1290609,27.9341409 16.4632773,27.3312213 16.6273889,26.6734006 L18.5544042,14.0839084 C18.628051,13.6256641 18.5106231,13.1572321 18.2295876,12.7881816 C17.9485522,12.4191311 17.5285599,12.1818329 17.0678496,12.1317927 L14.4526145,11.817469 C13.2860393,11.6770387 12.197724,12.4289491 11.9144601,13.5710645 C11.8875444,14.9097929 11.6458768,16.2354773 11.1987116,17.4973537 Z" id="Shape" fill="#243759" fill-rule="nonzero"></path>
                <path d="M16.5943544,12.4847176 C16.489745,11.8891568 11.4795053,10.8800123 6.21600069,13.5876078 C5.07080304,14.1831685 1.09564583,16.2124866 0.275287896,20.0009146 C0.275287896,20.0615735 0.275287896,20.127747 0.236747591,20.1994348 C0.0748547417,21.2468675 0.099085775,22.3147164 0.308322443,23.3537009 C0.622150645,25.1955276 0.946990362,25.4491924 0.946990362,26.8002329 C0.946990362,27.2799902 0.908450057,27.3516781 0.902944299,27.7873197 C0.894887009,28.8824397 1.11230022,29.9674677 1.54161222,30.9746725 L3.04468413,31.0463604 C3.62278871,31.0463604 4.20639905,31.0959904 4.54775604,31.1180482 C4.94144049,30.0320245 5.12819626,28.881663 5.09833183,27.7266607 C5.05979153,26.2377589 4.6578712,25.7690306 4.87810152,24.3187299 C5.06019377,23.6223859 5.18540421,22.9123545 5.25249306,22.1956662 C5.26869408,21.4887707 5.16633359,20.7841641 4.94967637,20.1112036 C7.38322137,19.2509492 9.28821361,18.6223018 10.4554343,18.2418046 C13.4450608,17.2657468 15.4711798,16.6646716 15.6418582,15.4459779 C15.7244446,14.8449027 15.32803,14.2603709 15.7079273,13.4773188 C16.0547901,12.7935268 16.6273889,12.6832378 16.5943544,12.4847176 Z" id="Shape" fill="#243759" fill-rule="nonzero"></path>
                <path d="M20.0519703,3.165295 C18.9801828,3.99613899 17.8973837,4.85455523 16.8035732,5.74054372 C15.7097626,6.62653222 14.6728449,7.48494846 13.6928199,8.31579244 C12.6228161,7.19579138 12.2733364,5.56792363 12.7891241,4.10640004 C13.3049119,2.64487645 14.5981373,1.5985696 16.1331877,1.40082637 C17.668238,1.20308314 19.1837204,1.88757584 20.0519703,3.17080945 L20.0519703,3.165295 Z" id="Shape" fill="#42526E" fill-rule="nonzero"></path>
                <path d="M20.8866284,0.982682628 C20.6465922,1.10289024 20.6465922,1.10289024 20.6465922,1.10289024 C20.6465922,1.10289024 13.3535664,5.79438734 13.7643948,6.61734147 C14.3149706,7.72023171 17.6184253,10.4774573 17.6184253,10.4774573 L24.1736842,7.74178678 C23.7560771,11.148307 20.8571697,13.7861281 17.3431374,13.7861281 C13.5422048,13.7861281 10.46094,10.6999982 10.46094,6.89306403 C10.46094,3.08612989 13.5422048,-1.17866796e-13 17.3431374,-1.17866796e-13 C18.6391844,-1.17866796e-13 19.8515568,0.358818886 20.8866284,0.982682628 Z" id="Combined-Shape" fill="#5F6C84"></path>
            </g>
        </g>
    </g>
</svg>