<svg xmlns="http://www.w3.org/2000/svg" xmlns:xlink="http://www.w3.org/1999/xlink" viewBox="0 0 232.12 210.11"><defs><style>.cls-1{opacity:0.6;}.cls-2{fill:url(#linear-gradient);}.cls-3{fill:#fff;}.cls-4{fill:url(#linear-gradient-2);}.cls-5{fill:url(#linear-gradient-3);}.cls-10,.cls-6,.cls-7{fill:none;stroke-width:2px;}.cls-6{stroke:#b2d4ff;}.cls-10,.cls-6{stroke-miterlimit:10;}.cls-10,.cls-7{stroke:#0065ff;}.cls-7{stroke-linejoin:round;}.cls-8{fill:#e7e8ec;}.cls-9{opacity:0.2;fill:url(#linear-gradient-4);}.cls-11{fill:#f4f5f7;}.cls-12{fill:#253858;}.cls-13{fill:#0065ff;}.cls-14{fill:#ff991f;}</style><linearGradient id="linear-gradient" x1="116.68" y1="104.11" x2="232.12" y2="104.11" gradientUnits="userSpaceOnUse"><stop offset="0.59" stop-color="#a5adba"/><stop offset="0.9" stop-color="#dadde3" stop-opacity="0.8"/><stop offset="1" stop-color="#f4f5f7" stop-opacity="0.7"/></linearGradient><linearGradient id="linear-gradient-2" x1="78.3" y1="107.68" x2="218.19" y2="107.68" gradientUnits="userSpaceOnUse"><stop offset="0.53" stop-color="#a5adba"/><stop offset="0.88" stop-color="#dadde3" stop-opacity="0.8"/><stop offset="1" stop-color="#f4f5f7" stop-opacity="0.7"/></linearGradient><linearGradient id="linear-gradient-3" x1="38.61" y1="104.84" x2="196.82" y2="104.84" gradientUnits="userSpaceOnUse"><stop offset="0.21" stop-color="#c1c7d0"/><stop offset="0.42" stop-color="#cacfd7"/><stop offset="0.78" stop-color="#e2e5e9"/><stop offset="1" stop-color="#f4f5f7"/></linearGradient><linearGradient id="linear-gradient-4" x1="113.64" y1="48.98" x2="154.05" y2="8.58" gradientUnits="userSpaceOnUse"><stop offset="0" stop-color="#091e42" stop-opacity="0"/><stop offset="0.25" stop-color="#091e42" stop-opacity="0.17"/><stop offset="0.69" stop-color="#091e42" stop-opacity="0.62"/><stop offset="1" stop-color="#091e42"/></linearGradient></defs><title>Pages</title><g id="Layer_2" data-name="Layer 2"><g id="Layer_1-2" data-name="Layer 1"><g class="cls-1"><rect class="cls-2" x="116.68" y="36.55" width="115.44" height="135.12"/></g><rect class="cls-3" x="142.72" y="25.56" width="75" height="164"/><g class="cls-1"><rect class="cls-4" x="78.3" y="25.81" width="139.89" height="163.74"/></g><rect class="cls-5" x="38.61" y="7.49" width="158.21" height="194.69"/><rect class="cls-6" x="81.3" y="109.23" width="90.45" height="61.94"/><line class="cls-6" x1="46.43" y1="44.62" x2="175.1" y2="44.62"/><line class="cls-6" x1="46.43" y1="55.35" x2="175.1" y2="55.35"/><rect class="cls-6" x="81.3" y="129.56" width="90.45" height="21.29"/><rect class="cls-6" x="81.3" y="68.57" width="90.45" height="27.09"/><line class="cls-7" x1="17.47" y1="171.76" x2="79.3" y2="171.76"/><polygon class="cls-8" points="162.44 38.71 162.44 210.11 0 210.11 0 0 123.7 0 162.41 38.71 162.44 38.71"/><polygon class="cls-9" points="123.98 59.32 162.35 38.65 123.98 0.28 123.98 59.32"/><line class="cls-10" x1="18.4" y1="181.34" x2="147.43" y2="181.34"/><line class="cls-10" x1="18.4" y1="190.93" x2="100.9" y2="190.93"/><line class="cls-10" x1="18.4" y1="171.76" x2="147.43" y2="171.76"/><line class="cls-10" x1="18.4" y1="36.17" x2="133.35" y2="36.17"/><line class="cls-10" x1="18.4" y1="45.76" x2="100.9" y2="45.76"/><line class="cls-10" x1="18.4" y1="26.58" x2="133.35" y2="26.58"/><polygon class="cls-11" points="162.45 38.74 123.71 38.74 123.71 0 162.45 38.74"/><rect class="cls-11" x="17.47" y="61.15" width="129.96" height="95.22"/><polygon class="cls-12" points="94.67 90.47 132.86 133.66 56.49 133.66 94.67 90.47"/><polygon class="cls-13" points="56.3 106.82 80.55 133.72 32.04 133.72 56.3 106.82"/><circle class="cls-14" cx="56.3" cy="90.47" r="5.9"/></g></g></svg>