<svg width="264" height="186" viewBox="0 0 264 186" fill="none" xmlns="http://www.w3.org/2000/svg">
<g filter="url(#filter0_dd)">
<mask id="mask0" mask-type="alpha" maskUnits="userSpaceOnUse" x="5" y="2" width="254" height="176">
<rect x="5" y="2" width="254" height="176" rx="8" fill="#C4C4C4"/>
</mask>
<g mask="url(#mask0)">
<rect x="-4" y="-12" width="280" height="204" fill="white"/>
<rect x="-2" y="-12" width="77" height="204" fill="#3F0E40"/>
<path d="M23 27H59" stroke="#8C658D" stroke-width="8" stroke-linecap="round"/>
<path d="M28 46H59" stroke="#8C658D" stroke-width="8" stroke-linecap="round"/>
<path d="M28 65H59" stroke="#8C658D" stroke-width="8" stroke-linecap="round"/>
</g>
</g>
<rect x="86" y="79" width="156" height="43" rx="6" fill="#EBECF0"/>
<line x1="133" y1="94" x2="178" y2="94" stroke="#C1C7D0" stroke-width="8" stroke-linecap="round"/>
<line x1="134" y1="108" x2="164" y2="108" stroke="#C1C7D0" stroke-width="8" stroke-linecap="round"/>
<rect x="95" y="88" width="24" height="24" rx="3" fill="#C1C7D0"/>
<rect x="212" y="89" width="20" height="20" rx="2" fill="#0065FF"/>
<rect width="20" height="20" transform="translate(212 89)" fill="white" fill-opacity="0.01"/>
<path d="M217.612 99.2683C217.462 99.1083 217.254 99.0141 217.035 99.0063C216.815 98.9985 216.602 99.0777 216.44 99.2266C216.279 99.3755 216.183 99.5821 216.173 99.8016C216.163 100.021 216.24 100.235 216.387 100.398L219.397 103.664C219.845 104.102 220.511 104.102 220.926 103.689L221.229 103.39C222.324 102.313 223.419 101.234 224.511 100.154L224.545 100.121C225.566 99.1142 226.582 98.1022 227.593 97.0849C227.744 96.9268 227.827 96.7155 227.824 96.4969C227.82 96.2782 227.731 96.0695 227.576 95.916C227.42 95.7624 227.21 95.6762 226.991 95.676C226.773 95.6758 226.563 95.7616 226.406 95.9149C225.4 96.9269 224.389 97.9338 223.373 98.9358L223.34 98.9691C222.293 100.004 221.244 101.038 220.194 102.071L217.612 99.2683Z" fill="white"/>
<rect width="22" height="22" transform="translate(186 87)" fill="white" fill-opacity="0.01"/>
<path d="M197.004 94.5048L191.089 98.0477C190.881 98.1727 190.631 98.2097 190.395 98.1506C190.159 98.0914 189.956 97.941 189.832 97.7324C189.707 97.5238 189.67 97.2741 189.729 97.0383C189.788 96.8024 189.938 96.5997 190.147 96.4747L196.536 92.6486C196.679 92.563 196.842 92.518 197.009 92.5183C197.175 92.5186 197.339 92.5643 197.481 92.6504L203.812 96.4766C203.915 96.5389 204.004 96.6209 204.076 96.7178C204.147 96.8148 204.199 96.9249 204.227 97.0418C204.256 97.1588 204.262 97.2802 204.244 97.3992C204.226 97.5183 204.184 97.6326 204.122 97.7356C204.06 97.8387 203.978 97.9284 203.881 97.9998C203.784 98.0712 203.674 98.1227 203.557 98.1515C203.44 98.1803 203.318 98.1858 203.199 98.1677C203.08 98.1496 202.966 98.1082 202.863 98.0459L197.005 94.5048H197.004Z" fill="#FF5630"/>
<path d="M191.089 103.55C190.986 103.615 190.871 103.658 190.75 103.678C190.63 103.698 190.507 103.694 190.388 103.666C190.269 103.637 190.157 103.585 190.059 103.513C189.96 103.441 189.877 103.35 189.815 103.245C189.752 103.141 189.711 103.024 189.693 102.903C189.676 102.783 189.683 102.659 189.714 102.541C189.745 102.423 189.799 102.313 189.874 102.216C189.948 102.119 190.041 102.038 190.147 101.977L196.536 98.1513C196.679 98.0657 196.843 98.0207 197.009 98.021C197.176 98.0213 197.339 98.067 197.481 98.1531L203.812 101.979C203.917 102.04 204.009 102.122 204.083 102.219C204.156 102.316 204.209 102.427 204.24 102.545C204.27 102.663 204.276 102.786 204.258 102.906C204.24 103.026 204.199 103.142 204.136 103.246C204.073 103.35 203.99 103.441 203.891 103.513C203.793 103.584 203.681 103.636 203.563 103.664C203.444 103.692 203.321 103.696 203.201 103.676C203.081 103.656 202.966 103.613 202.863 103.548L197.006 100.008L191.089 103.55Z" fill="#FF7452"/>
<rect x="86" y="29" width="156" height="43" rx="6" fill="#EBECF0"/>
<line x1="133" y1="44" x2="178" y2="44" stroke="#C1C7D0" stroke-width="8" stroke-linecap="round"/>
<line x1="134" y1="58" x2="164" y2="58" stroke="#C1C7D0" stroke-width="8" stroke-linecap="round"/>
<rect x="95" y="38" width="24" height="24" rx="3" fill="#C1C7D0"/>
<rect width="22" height="22" transform="translate(187 39)" fill="white" fill-opacity="0.01"/>
<path d="M203.912 52.7272C204.12 52.6059 204.368 52.5717 204.602 52.6319C204.835 52.6921 205.035 52.8418 205.159 53.0488C205.283 53.2557 205.32 53.5031 205.263 53.7373C205.206 53.9715 205.059 54.1738 204.853 54.3002L198.464 58.1254C198.321 58.2108 198.158 58.2557 197.992 58.2554C197.825 58.2551 197.662 58.2095 197.52 58.1236L191.189 54.2992C190.981 54.1736 190.832 53.9703 190.773 53.7343C190.715 53.4983 190.753 53.2488 190.879 53.0407C191.004 52.8326 191.207 52.6829 191.444 52.6246C191.68 52.5664 191.929 52.6042 192.137 52.7299L197.996 56.2701L203.912 52.7281V52.7272Z" fill="#0065FF"/>
<path d="M197.996 50.7673L203.912 47.2244C204.12 47.1032 204.368 47.0689 204.602 47.1291C204.835 47.1893 205.035 47.3391 205.159 47.546C205.283 47.7529 205.32 48.0003 205.263 48.2346C205.206 48.4688 205.059 48.671 204.853 48.7974L198.464 52.6236C198.321 52.709 198.158 52.7539 197.992 52.7536C197.825 52.7533 197.662 52.7077 197.52 52.6218L191.189 48.7956C190.981 48.6699 190.832 48.4667 190.773 48.2307C190.715 47.9946 190.753 47.7451 190.879 47.537C191.004 47.3289 191.207 47.1792 191.444 47.121C191.68 47.0627 191.929 47.1006 192.137 47.2263L197.996 50.7673Z" fill="#2684FF"/>
<path d="M197.996 45.2544L203.912 41.7114C204.015 41.6478 204.13 41.6054 204.25 41.5866C204.37 41.5677 204.492 41.5729 204.61 41.6017C204.728 41.6305 204.839 41.6825 204.936 41.7545C205.034 41.8265 205.116 41.9172 205.179 42.0214C205.241 42.1255 205.282 42.2409 205.299 42.361C205.317 42.4811 205.31 42.6034 205.28 42.7209C205.25 42.8384 205.196 42.9487 205.123 43.0455C205.05 43.1422 204.958 43.2234 204.853 43.2844L198.464 47.1106C198.321 47.196 198.158 47.2409 197.992 47.2406C197.825 47.2403 197.662 47.1947 197.52 47.1088L191.189 43.2826C190.981 43.1569 190.832 42.9537 190.773 42.7177C190.715 42.4816 190.753 42.2321 190.879 42.024C191.004 41.8159 191.207 41.6663 191.444 41.608C191.68 41.5497 191.929 41.5876 192.137 41.7133L197.996 45.2544Z" fill="#4C9AFF"/>
<path d="M231.273 39.0012H214.727C213.221 39.0012 212 40.2221 212 41.7285V58.2649C212 59.7712 213.221 60.9921 214.727 60.9921H231.273C232.779 60.9921 234 59.7712 234 58.2649V41.7285C234 40.2221 232.779 39.0012 231.273 39.0012Z" fill="#36B37E"/>
<path d="M226.545 55.3651L223.09 52.3651L219.727 55.3651C219.607 55.4715 219.459 55.5415 219.301 55.5651C219.142 55.5888 218.98 55.5651 218.835 55.4969C218.69 55.4288 218.567 55.3206 218.484 55.1833C218.4 55.0469 218.358 54.8888 218.363 54.7288V44.9106C218.35 44.796 218.362 44.6797 218.397 44.5697C218.432 44.4597 218.491 44.3579 218.568 44.2724C218.645 44.186 218.74 44.1178 218.846 44.0715C218.951 44.0242 219.066 44.0006 219.181 44.0015H227.09C227.206 44.0006 227.32 44.0242 227.426 44.0715C227.532 44.1178 227.626 44.186 227.704 44.2724C227.781 44.3579 227.839 44.4597 227.874 44.5697C227.91 44.6797 227.921 44.796 227.908 44.9106V54.7288C227.914 54.8888 227.872 55.0469 227.788 55.1833C227.704 55.3206 227.582 55.4288 227.437 55.4969C227.292 55.5651 227.13 55.5888 226.971 55.5651C226.812 55.5415 226.664 55.4715 226.545 55.3651Z" fill="white"/>
<rect x="86.5" y="134.5" width="155" height="32" rx="3.5" fill="white" stroke="#B3BAC5"/>
<line x1="94.5" y1="140" x2="94.5" y2="161" stroke="#A5ADBA"/>
<defs>
<filter id="filter0_dd" x="0" y="0" width="264" height="186" filterUnits="userSpaceOnUse" color-interpolation-filters="sRGB">
<feFlood flood-opacity="0" result="BackgroundImageFix"/>
<feColorMatrix in="SourceAlpha" type="matrix" values="0 0 0 0 0 0 0 0 0 0 0 0 0 0 0 0 0 0 127 0"/>
<feOffset/>
<feGaussianBlur stdDeviation="0.5"/>
<feColorMatrix type="matrix" values="0 0 0 0 0.0352941 0 0 0 0 0.117647 0 0 0 0 0.258824 0 0 0 0.31 0"/>
<feBlend mode="normal" in2="BackgroundImageFix" result="effect1_dropShadow"/>
<feColorMatrix in="SourceAlpha" type="matrix" values="0 0 0 0 0 0 0 0 0 0 0 0 0 0 0 0 0 0 127 0"/>
<feOffset dy="3"/>
<feGaussianBlur stdDeviation="2.5"/>
<feColorMatrix type="matrix" values="0 0 0 0 0.0352941 0 0 0 0 0.117647 0 0 0 0 0.258824 0 0 0 0.2 0"/>
<feBlend mode="normal" in2="effect1_dropShadow" result="effect2_dropShadow"/>
<feBlend mode="normal" in="SourceGraphic" in2="effect2_dropShadow" result="shape"/>
</filter>
</defs>
</svg>
