<svg xmlns="http://www.w3.org/2000/svg" viewBox="0 0 220.7624 205.586">
  <defs>
    <style>
      .cls-1 {
        isolation: isolate;
      }

      .cls-2, .cls-6 {
        mix-blend-mode: multiply;
      }

      .cls-13, .cls-3, .cls-4, .cls-6 {
        fill: none;
        stroke: #c1c7d0;
        stroke-linecap: round;
        stroke-miterlimit: 10;
        stroke-width: 2px;
      }

      .cls-4 {
        stroke-dasharray: 3.7816 5.2943;
      }

      .cls-5 {
        fill: #0065ff;
      }

      .cls-6 {
        stroke-dasharray: 3.9219 5.4907;
      }

      .cls-7 {
        fill: #0052cc;
      }

      .cls-8 {
        fill: #4c9aff;
      }

      .cls-9 {
        fill: #0049b0;
      }

      .cls-10 {
        fill: #57d9a3;
      }

      .cls-11 {
        fill: #79f2c0;
      }

      .cls-12 {
        fill: #36b37e;
      }

      .cls-13 {
        stroke-dasharray: 3.8681 5.4154;
      }

      .cls-14 {
        fill: #42526e;
      }

      .cls-15 {
        fill: #344563;
      }

      .cls-16 {
        fill: #505f79;
      }
    </style>
  </defs>
  <title>Integrations</title>
  <g class="cls-1">
    <g id="Layer_2" data-name="Layer 2">
      <g id="Objects">
        <g class="cls-2">
          <g>
            <line class="cls-3" x1="75.2114" y1="187.8573" x2="77.0248" y2="187.1109"/>
            <line class="cls-4" x1="81.9205" y1="185.0956" x2="138.2212" y2="161.9203"/>
            <line class="cls-3" x1="140.669" y1="160.9126" x2="142.4824" y2="160.1662"/>
          </g>
        </g>
        <polygon class="cls-5" points="194.526 26.552 176.901 38.241 159.27 26.552 176.901 14.87 194.526 26.552"/>
        <line class="cls-6" x1="183.7135" y1="43.2188" x2="183.7135" y2="97.8832"/>
        <polygon class="cls-7" points="176.901 38.241 176.901 58.166 159.27 46.477 159.27 26.552 176.901 38.241"/>
        <polygon class="cls-8" points="194.526 26.552 194.526 46.477 176.901 58.166 176.901 38.241 194.526 26.552"/>
        <line class="cls-6" x1="47.9488" y1="42.2188" x2="159.1172" y2="42.2188"/>
        <polygon class="cls-5" points="220.762 99.752 167.817 134.864 114.854 99.752 167.817 64.657 220.762 99.752"/>
        <polygon class="cls-9" points="167.817 134.864 167.817 194.718 114.854 159.606 114.854 99.752 167.817 134.864"/>
        <polygon class="cls-8" points="220.762 99.752 220.762 159.606 167.817 194.718 167.817 134.864 220.762 99.752"/>
        <polygon class="cls-10" points="110.541 21.604 77.949 43.219 45.345 21.604 77.949 0 110.541 21.604"/>
        <polygon class="cls-11" points="110.541 21.604 110.541 58.449 77.949 80.064 77.949 43.219 110.541 21.604"/>
        <polygon class="cls-5" points="141.19 148.073 167.813 130.417 194.444 148.073 167.813 165.719 141.19 148.073"/>
        <polygon class="cls-9" points="167.813 130.417 167.813 100.321 194.444 117.976 194.444 148.073 167.813 130.417"/>
        <polygon class="cls-8" points="141.19 148.073 141.19 117.976 167.813 100.321 167.813 130.417 141.19 148.073"/>
        <polygon class="cls-12" points="45.345 21.604 45.345 44.984 57.231 52.864 57.231 66.296 77.949 80.064 77.949 43.219 45.345 21.604"/>
        <g class="cls-2">
          <g>
            <line class="cls-3" x1="24.6438" y1="86.9544" x2="26.0157" y2="85.5531"/>
            <line class="cls-13" x1="29.804" y1="81.6834" x2="60.3811" y2="50.4492"/>
            <line class="cls-3" x1="62.2752" y1="48.5143" x2="63.647" y2="47.113"/>
          </g>
        </g>
        <polygon class="cls-5" points="35.255 89.645 17.736 101.492 0 89.962 17.525 78.121 35.255 89.645"/>
        <polygon class="cls-7" points="17.736 101.492 17.915 121.416 0.179 109.887 0 89.962 17.736 101.492"/>
        <line class="cls-6" x1="20.5849" y1="105.5305" x2="65.8749" y2="171.3681"/>
        <polygon class="cls-8" points="35.255 89.645 35.434 109.569 17.915 121.416 17.736 101.492 35.255 89.645"/>
        <polygon class="cls-14" points="92.394 173.815 74.875 185.662 57.139 174.132 74.664 162.291 92.394 173.815"/>
        <polygon class="cls-15" points="74.875 185.662 75.054 205.586 57.319 194.057 57.139 174.132 74.875 185.662"/>
        <polygon class="cls-16" points="92.394 173.815 92.574 193.739 75.054 205.586 74.875 185.662 92.394 173.815"/>
      </g>
    </g>
  </g>
</svg>
