<svg width="96" height="72" fill="none" xmlns="http://www.w3.org/2000/svg"><path d="M78 3H18v51h60V3z" fill="url(#paint0_linear)"/><path fill-rule="evenodd" clip-rule="evenodd" d="M50.237 54.047L24.47 26.632a23.367 23.367 0 01-2.336 9.855 23.222 23.222 0 01-4.074 5.86c-.087.093-.066 5.807-.022 11.7h32.2z" fill="#0057D8"/><path d="M71 9H24v22h47V9z" fill="#253858"/><path d="M65.854 15.369l-19.537-.03c-3.852 0-2.768-3.203-6.59-3.209h-7.088a1.345 1.345 0 00-1.345 1.342v1.855l-.033 26.915 35.896.057.039-25.594a1.345 1.345 0 00-1.342-1.336z" fill="#505F79"/><path d="M67.19 17.595l-21.61-.033C41.317 17.55 42.52 14 38.304 14h-7.84a1.498 1.498 0 00-1.497 1.498v2.052l-.045 29.794 39.703.06.045-28.309a1.498 1.498 0 00-1.48-1.5z" fill="#3DC7DC"/><path d="M68.298 20.843l-23.182-.036c-4.572 0-3.295-3.801-7.807-3.807h-8.408a1.594 1.594 0 00-1.597 1.59v2.202L27.25 52.75l42.594.066.048-30.372a1.594 1.594 0 00-1.594-1.6z" fill="#6BD5E5"/><path d="M68.96 24.044l-24.377-.039c-4.793 0-3.454-3.996-8.211-4.005h-8.843a1.678 1.678 0 00-1.68 1.675v2.315l-.06 33.598 44.789.07.048-31.936a1.678 1.678 0 00-1.666-1.678z" fill="#9CE3EE"/><path d="M72 27H24v40h48V27z" fill="#3384FF"/><path d="M56.148 58H43.852c-.47 0-.852.305-.852.681v.638c0 .376.382.681.852.681h12.296c.47 0 .852-.305.852-.681v-.638c0-.376-.382-.68-.852-.68zM40.002 59.003a1 1 0 10-2-.003 1 1 0 002 .003z" fill="#FAFBFC"/><path d="M57 37H39v14h18V37z" stroke="#0057D8" stroke-width="2" stroke-linejoin="round"/><path d="M51.697 41.51l2.537 2.763-2.762 2.537M44.999 41.454l-2.765 2.537 2.54 2.765M49.136 40.534l-2.01 7.226" stroke="#0057D8" stroke-linecap="round" stroke-linejoin="round"/><defs><linearGradient id="paint0_linear" x1="20.331" y1="56.327" x2="75.816" y2=".818" gradientUnits="userSpaceOnUse"><stop offset=".21" stop-color="#0065FF"/><stop offset="1" stop-color="#4C9AFF"/></linearGradient></defs></svg>