<svg id="Layer_1" data-name="Layer 1" xmlns="http://www.w3.org/2000/svg" xmlns:xlink="http://www.w3.org/1999/xlink" viewBox="0 0 275 275"><defs><style>.cls-1{fill:url(#linear-gradient);}.cls-2{fill:url(#linear-gradient-2);}.cls-3{fill:url(#linear-gradient-3);}.cls-4{fill:url(#linear-gradient-4);}.cls-5{opacity:0.35;}.cls-6,.cls-7{fill:#0065ff;}.cls-7{opacity:0.31;}.cls-8{fill:url(#linear-gradient-5);}.cls-9{opacity:0.38;fill:url(#linear-gradient-6);}.cls-10{opacity:0.59;fill:url(#linear-gradient-7);}.cls-11{fill:url(#linear-gradient-8);}.cls-12{opacity:0.72;fill:url(#linear-gradient-9);}.cls-13{fill:url(#linear-gradient-10);}.cls-14{fill:#0052cc;}.cls-15{fill:#fff;}.cls-16{fill:url(#linear-gradient-11);}.cls-17{fill:url(#linear-gradient-12);}.cls-18{opacity:0.56;fill:url(#linear-gradient-13);}.cls-19{fill:url(#linear-gradient-14);}.cls-20{fill:url(#linear-gradient-15);}.cls-21{fill:url(#linear-gradient-16);}.cls-22{fill:url(#linear-gradient-17);}.cls-23{fill:#4c9aff;}.cls-24{opacity:0.48;}.cls-25{fill:#2684ff;}.cls-26{fill:url(#linear-gradient-18);}</style><linearGradient id="linear-gradient" x1="205.04" y1="227.19" x2="289.16" y2="227.19" gradientUnits="userSpaceOnUse"><stop offset="0" stop-color="#b2d4ff"/><stop offset="0.27" stop-color="#cae1ff"/><stop offset="0.53" stop-color="#d9e8ff"/><stop offset="0.74" stop-color="#deebff"/></linearGradient><linearGradient id="linear-gradient-2" x1="-41.24" y1="562.39" x2="3.44" y2="502.46" gradientTransform="translate(145.48 596.44) rotate(180)" gradientUnits="userSpaceOnUse"><stop offset="0.28" stop-color="#4c9aff"/><stop offset="0.37" stop-color="#54a1ff"/><stop offset="0.5" stop-color="#69b3ff"/><stop offset="0.67" stop-color="#8bd2ff"/><stop offset="0.68" stop-color="#8ed4ff"/><stop offset="1" stop-color="#b3f5ff"/></linearGradient><linearGradient id="linear-gradient-3" x1="-33.47" y1="593.74" x2="28.48" y2="510.64" gradientTransform="translate(137.19 672.31) rotate(180)" gradientUnits="userSpaceOnUse"><stop offset="0" stop-color="#4c9aff"/><stop offset="0.8" stop-color="#8ed4ff"/><stop offset="1" stop-color="#b3f5ff"/></linearGradient><linearGradient id="linear-gradient-4" x1="-65.31" y1="572.47" x2="-1.66" y2="487.1" gradientTransform="translate(267.79 -435.3) rotate(11.11)" xlink:href="#linear-gradient-3"/><linearGradient id="linear-gradient-5" x1="179.5" y1="173.72" x2="201.76" y2="80" gradientUnits="userSpaceOnUse"><stop offset="0" stop-color="#ffc400"/><stop offset="0.52" stop-color="#ffe380"/><stop offset="0.61" stop-color="#ffe68d"/><stop offset="0.86" stop-color="#ffeda8"/><stop offset="1" stop-color="#fff0b2"/></linearGradient><linearGradient id="linear-gradient-6" x1="191.36" y1="97.37" x2="191.36" y2="167.06" gradientUnits="userSpaceOnUse"><stop offset="0" stop-color="#ff8f73" stop-opacity="0"/><stop offset="0.05" stop-color="#ff9074" stop-opacity="0.02"/><stop offset="0.11" stop-color="#ff9377" stop-opacity="0.08"/><stop offset="0.18" stop-color="#ff977d" stop-opacity="0.17"/><stop offset="0.24" stop-color="#ff9d84" stop-opacity="0.3"/><stop offset="0.32" stop-color="#ffa58e" stop-opacity="0.47"/><stop offset="0.37" stop-color="#ffac97" stop-opacity="0.63"/><stop offset="0.37" stop-color="#ffac97" stop-opacity="0.62"/><stop offset="0.5" stop-color="#ffaf9b" stop-opacity="0.36"/><stop offset="0.61" stop-color="#ffb19e" stop-opacity="0.16"/><stop offset="0.69" stop-color="#ffb39f" stop-opacity="0.04"/><stop offset="0.74" stop-color="#ffb3a0" stop-opacity="0"/></linearGradient><linearGradient id="linear-gradient-7" x1="178.07" y1="135.57" x2="199.59" y2="155.35" gradientUnits="userSpaceOnUse"><stop offset="0.48" stop-color="#ffc400"/><stop offset="1" stop-color="#ffab00"/></linearGradient><linearGradient id="linear-gradient-8" x1="70.85" y1="144.21" x2="253.34" y2="144.21" gradientUnits="userSpaceOnUse"><stop offset="0" stop-color="#ffc400"/><stop offset="0.05" stop-color="#ffc70d"/><stop offset="0.3" stop-color="#ffd647"/><stop offset="0.52" stop-color="#ffe175"/><stop offset="0.72" stop-color="#ffe996"/><stop offset="0.89" stop-color="#ffeeab"/><stop offset="1" stop-color="#fff0b2"/></linearGradient><linearGradient id="linear-gradient-9" x1="196.58" y1="149.02" x2="111.09" y2="142.95" gradientUnits="userSpaceOnUse"><stop offset="0" stop-color="#ff7452" stop-opacity="0"/><stop offset="0.35" stop-color="#ff8f73" stop-opacity="0"/><stop offset="1" stop-color="#ffbdad"/></linearGradient><linearGradient id="linear-gradient-10" x1="-724.18" y1="-558.6" x2="-724.18" y2="-473.85" gradientTransform="matrix(-0.22, -0.98, -0.98, 0.22, -581.04, -468.35)" gradientUnits="userSpaceOnUse"><stop offset="0" stop-color="#0052cc"/><stop offset="0.35" stop-color="#0065ff"/></linearGradient><linearGradient id="linear-gradient-11" x1="46.35" y1="102.77" x2="115.94" y2="102.77" gradientTransform="translate(199.48 158.86) rotate(153.65)" gradientUnits="userSpaceOnUse"><stop offset="0" stop-color="#deebff"/><stop offset="0.63" stop-color="#fff"/></linearGradient><linearGradient id="linear-gradient-12" x1="8.22" y1="165.17" x2="212.37" y2="165.17" gradientUnits="userSpaceOnUse"><stop offset="0" stop-color="#ffc400"/><stop offset="0.63" stop-color="#fff0b2"/></linearGradient><linearGradient id="linear-gradient-13" x1="236.89" y1="175.12" x2="52.68" y2="164.88" gradientUnits="userSpaceOnUse"><stop offset="0" stop-color="#ff7452" stop-opacity="0"/><stop offset="0.54" stop-color="#ff8f73" stop-opacity="0"/><stop offset="1" stop-color="#ffbdad"/></linearGradient><linearGradient id="linear-gradient-14" x1="89.01" y1="211.33" x2="290.78" y2="211.33" gradientUnits="userSpaceOnUse"><stop offset="0" stop-color="#4c9aff"/><stop offset="0.19" stop-color="#509eff"/><stop offset="0.39" stop-color="#5da9ff"/><stop offset="0.59" stop-color="#71bbff"/><stop offset="0.8" stop-color="#8ed4ff"/><stop offset="1" stop-color="#b3f5ff"/></linearGradient><linearGradient id="linear-gradient-15" x1="-56.43" y1="211.33" x2="242.56" y2="211.33" xlink:href="#linear-gradient-14"/><linearGradient id="linear-gradient-16" x1="144.89" y1="169.69" x2="275.86" y2="172.79" gradientUnits="userSpaceOnUse"><stop offset="0" stop-color="#4c9aff"/><stop offset="0.17" stop-color="#529dff"/><stop offset="0.39" stop-color="#62a6ff"/><stop offset="0.63" stop-color="#7db6ff"/><stop offset="0.9" stop-color="#a2cbff"/><stop offset="1" stop-color="#b2d4ff"/></linearGradient><linearGradient id="linear-gradient-17" x1="1.29" y1="170.73" x2="313.73" y2="170.73" xlink:href="#linear-gradient-14"/><linearGradient id="linear-gradient-18" x1="26.44" y1="219.84" x2="141.76" y2="219.84" xlink:href="#linear-gradient"/></defs><path class="cls-1" d="M262,236.69c0-.14,0-.28,0-.41a6.16,6.16,0,0,1,.05-.75c0-.18,0-.36,0-.54a12,12,0,0,0-18.8-9.87,16.65,16.65,0,0,0,.14-2.12,15.6,15.6,0,1,0-31.2,0v.14a11,11,0,0,0-1.83-.14,12,12,0,0,0-12,12c0,.19,0,.39,0,.58s0,.44,0,.67,0,.3,0,.45A10.3,10.3,0,0,1,188.12,247h84.12A10.29,10.29,0,0,1,262,236.69Z"/><rect class="cls-2" x="151.18" y="59.69" width="10.59" height="29.87" transform="matrix(-0.98, -0.19, 0.19, -0.98, 295.64, 178)"/><path class="cls-3" d="M122.06,85.69h53.16a0,0,0,0,1,0,0V126.5a12.12,12.12,0,0,1-12.12,12.12H134.19a12.12,12.12,0,0,1-12.12-12.12V85.69a0,0,0,0,1,0,0Z" transform="translate(272.89 250.85) rotate(-168.89)"/><path class="cls-4" d="M163.2,40.33a12.76,12.76,0,1,0,10.06,15A12.77,12.77,0,0,0,163.2,40.33ZM159.93,57a4.17,4.17,0,1,1,4.9-3.29A4.18,4.18,0,0,1,159.93,57Z"/><g class="cls-5"><path class="cls-6" d="M121.08,133.72l35.77,7,7.86-40.05a8.45,8.45,0,0,0-6.65-9.9L138.84,87a8.45,8.45,0,0,0-9.9,6.65Z"/></g><path class="cls-7" d="M150.07,89.22,138.85,87a8.45,8.45,0,0,0-9.91,6.65l-7.86,40.05,11.23,2.2,7.86-40A8.45,8.45,0,0,1,150.07,89.22Z"/><path class="cls-8" d="M222.77,98.48h-7.65a3.7,3.7,0,0,0-3.86,3.55,3.75,3.75,0,0,1-3.87,3.68h-4.71a3.7,3.7,0,0,1-3.86-3.55A3.75,3.75,0,0,0,195,98.48h-7.18a3.7,3.7,0,0,0-3.86,3.55,3.74,3.74,0,0,1-3.86,3.68h-4.72a3.7,3.7,0,0,1-3.86-3.55,3.74,3.74,0,0,0-3.86-3.68H160a3.74,3.74,0,0,0-3.87,3.61v10.33a8.44,8.44,0,0,0,3.11,6.47c1.94,1.61,3.88,4,3.76,6.45l-2.12,40.44H221.9l-2.12-40.44c-.12-2.42,1.82-4.84,3.75-6.45a8.43,8.43,0,0,0,3.1-6.47V102.09A3.74,3.74,0,0,0,222.77,98.48Z"/><path class="cls-9" d="M222.77,98.48h-7.65a3.7,3.7,0,0,0-3.86,3.55,3.75,3.75,0,0,1-3.87,3.68h-4.71a3.7,3.7,0,0,1-3.86-3.55A3.75,3.75,0,0,0,195,98.48h-7.18a3.7,3.7,0,0,0-3.86,3.55,3.74,3.74,0,0,1-3.86,3.68h-4.72a3.7,3.7,0,0,1-3.86-3.55,3.74,3.74,0,0,0-3.86-3.68H160a3.74,3.74,0,0,0-3.87,3.61v10.33a8.44,8.44,0,0,0,3.11,6.47c1.94,1.61,3.88,4,3.76,6.45l-2.12,40.44H221.9l-2.12-40.44c-.12-2.42,1.82-4.84,3.75-6.45a8.43,8.43,0,0,0,3.1-6.47V102.09A3.74,3.74,0,0,0,222.77,98.48Z"/><path class="cls-10" d="M205.39,162.15H177.33V139c0-7.28,6.15-13.18,13.74-13.18h.58c7.59,0,13.74,5.9,13.74,13.18Z"/><path class="cls-11" d="M107,118.66c58.23-8,59.18,46.55,96.54,37.56-73.45,26.57-86.51,8.07-86.51,8.07Z"/><path class="cls-12" d="M107,118.66c58.23-8,59.18,46.55,96.54,37.56-73.45,26.57-86.51,8.07-86.51,8.07Z"/><path class="cls-13" d="M43.89,169.31l-2.17-9.85a2.34,2.34,0,0,1,1.78-2.78l5.13-1.13-2.44-11.08-5.13,1.13a2.33,2.33,0,0,1-2.78-1.78l-2.69-12.2a2.34,2.34,0,0,1,1.78-2.78l5.13-1.13L39.93,116l-5.13,1.13A2.33,2.33,0,0,1,32,115.4L29.72,105a2.34,2.34,0,0,1,1.78-2.78l68-17.54,16.25,73.8L46.67,171.09A2.34,2.34,0,0,1,43.89,169.31Z"/><path class="cls-14" d="M76.79,108.4h29a0,0,0,0,1,0,0v20.48a13,13,0,0,1-13,13h-3a13,13,0,0,1-13-13V108.4a0,0,0,0,1,0,0Z" transform="translate(193.86 9.1) rotate(77.58)"/><path class="cls-6" d="M71.75,111.7H159.3a0,0,0,0,1,0,0v14a2.2,2.2,0,0,1-2.2,2.2H74a2.2,2.2,0,0,1-2.2-2.2v-14A0,0,0,0,1,71.75,111.7Z" transform="translate(23.37 258.39) rotate(-102.42)"/><circle class="cls-15" cx="115.53" cy="119.8" r="6.07"/><rect class="cls-16" x="42.78" y="98.77" width="76.73" height="8" rx="4" transform="translate(108.26 230.89) rotate(-153.65)"/><circle class="cls-6" cx="115.53" cy="119.8" r="1.97"/><path class="cls-17" d="M207,153.15c-18.42,0-26.47,7.07-53.4,7.07-22.92,0-40.77-16.63-69.77-16.63s-54.11,10.82-54.11,43.16H233.9C233.9,165.11,226.32,153.15,207,153.15Z"/><path class="cls-18" d="M207,153.15c-18.42,0-26.47,7.07-53.4,7.07-22.92,0-40.77-16.63-69.77-16.63s-54.11,10.82-54.11,43.16H233.9C233.9,165.11,226.32,153.15,207,153.15Z"/><path class="cls-19" d="M232.9,247H143.63v-71.3H233.9V246A1,1,0,0,1,232.9,247Z"/><rect class="cls-20" x="29.76" y="175.68" width="113.88" height="71.3"/><rect class="cls-21" x="135.68" y="165.78" width="106.17" height="9.9" rx="4.95"/><rect class="cls-22" x="21.81" y="165.78" width="129.78" height="9.9" rx="4.95"/><ellipse class="cls-23" cx="189.77" cy="211.33" rx="18.58" ry="20.6"/><g class="cls-24"><path class="cls-25" d="M187.58,219.59l-7.23-8a1,1,0,0,1,0-1.35l2.49-2.76a.8.8,0,0,1,1.22,0l4.13,4.57L197.26,202a.81.81,0,0,1,1.22,0l2.49,2.77a1,1,0,0,1,0,1.35L188.8,219.59A.81.81,0,0,1,187.58,219.59Z"/></g><path class="cls-23" d="M211.35,58.69h0a19.58,19.58,0,0,0,14.83-14.83h0A19.6,19.6,0,0,0,241,58.69h0a19.61,19.61,0,0,0-14.83,14.83h0a19.6,19.6,0,0,0-14.83-14.83Z"/><circle class="cls-23" cx="210.2" cy="78.31" r="3.02"/><path class="cls-26" d="M104.45,232.87c0-.19,0-.38,0-.56,0-.35,0-.69.08-1s0-.5,0-.75A16.44,16.44,0,0,0,78.78,217,23.19,23.19,0,0,0,79,214.1a21.39,21.39,0,0,0-42.78,0,1.21,1.21,0,0,0,0,.19,16,16,0,0,0-2.51-.19,16.44,16.44,0,0,0-16.44,16.44c0,.27,0,.53,0,.8s.06.6.07.91,0,.41,0,.62A14.11,14.11,0,0,1,3.24,247H118.56A14.11,14.11,0,0,1,104.45,232.87Z"/></svg>