<svg width="193" height="192" viewBox="0 0 193 192" xmlns="http://www.w3.org/2000/svg" xmlns:xlink="http://www.w3.org/1999/xlink">
    <defs>
        <path id="a" d="M192.97.474H.97v192h192v-192z"/>
    </defs>
    <g fill="none" fill-rule="evenodd">
        <g transform="translate(0 -.474)">
            <mask id="b" fill="#fff">
                <use xlink:href="#a"/>
            </mask>
            <path d="M96.97 192.474c-52.934 0-96-43.065-96-96s43.066-96 96-96c52.936 0 96 43.065 96 96s-43.064 96-96 96" fill="#63D7CA" opacity=".15" mask="url(#b)"/>
        </g>
        <path d="M96.97 186c-49.625 0-90-40.374-90-90s40.375-90 90-90c49.627 0 90 40.374 90 90s-40.373 90-90 90" fill="#63D7CA" opacity=".15"/>
        <path d="M166.97 96c0 38.66-31.34 70-70 70s-70-31.34-70-70 31.34-70 70-70 70 31.34 70 70" fill="#63D7CA"/>
        <path d="M45.12 109.108c0-36.054 29.227-65.282 65.281-65.282 20.506 0 38.794 9.46 50.762 24.249C150.377 43.315 125.701 26 96.971 26c-38.66 0-70 31.34-70 70 0 29.335 18.052 54.439 43.646 64.85-15.5-11.935-25.498-30.666-25.498-51.742" fill="#5EC9BE"/>
        <path d="M124.68 78.551l-38.405 38.405L69.26 99.94c-1.195-1.196-3.133-1.196-4.328 0-1.195 1.195-1.195 3.133 0 4.328l19.18 19.182c.575.574 1.353.896 2.164.896.811 0 1.591-.322 2.165-.896l40.57-40.57c1.197-1.196 1.197-3.134 0-4.329-1.194-1.195-3.134-1.197-4.33 0" fill="#FFF"/>
        <path d="M124.68 78.55h.01-.01zm-57.542 23.512l-.085.086 19.18 19.18 40.656-40.57-.088-.086-38.404 38.405c-1.17 1.172-3.07 1.172-4.242 0l-17.017-17.015zm19.138 25.283c-1.62 0-3.142-.63-4.286-1.774L62.81 106.39c-1.145-1.144-1.776-2.667-1.776-4.285 0-1.62.631-3.141 1.776-4.286 1.142-1.144 2.665-1.775 4.285-1.775s3.141.63 4.286 1.775l14.895 14.895L122.56 76.43c1.144-1.146 2.666-1.776 4.285-1.776h.002c1.62 0 3.141.63 4.285 1.776 2.363 2.364 2.363 6.208 0 8.57l-40.57 40.57c-1.126 1.128-2.689 1.775-4.285 1.775z" fill="#FFF"/>
        <path d="M94.97 156.492c-29.2 0-54.322-17.394-65.62-42.378C37.336 143.991 64.578 166 96.97 166c38.66 0 70-31.34 70-70 0-1.928-.098-3.831-.251-5.72-2.951 37.055-33.934 66.212-71.748 66.212" fill="#7ADCD2"/>
        <path d="M159.804 56.973c-6.531-10.476-15.606-19.2-26.356-25.318-6.995 3.055-11.889 10.026-11.889 18.147 0 10.936 8.867 19.801 19.803 19.801 8.404 0 15.567-5.243 18.442-12.63z" fill="#FFF" opacity=".15"/>
        <path d="M157.827 53.968c-7.02 1.547-12.273 7.795-12.273 15.279 0 8.646 7.009 15.655 15.655 15.655 3.13 0 6.04-.93 8.486-2.512-1.942-10.398-6.058-20.035-11.868-28.422" fill="#FFF" opacity=".15"/>
        <path d="M186.971 98c-1.104 0-2-.896-2-2 0-2.93-.148-5.898-.44-8.827-.11-1.1.691-2.08 1.79-2.19 1.101-.111 2.08.693 2.19 1.792.305 3.06.46 6.164.46 9.225 0 1.104-.896 2-2 2M185.086 79.654c-.928 0-1.76-.649-1.956-1.594-1.23-5.917-3.103-11.758-5.567-17.36-.445-1.012.014-2.192 1.025-2.637 1.015-.444 2.191.015 2.637 1.026 2.576 5.858 4.535 11.967 5.821 18.158.225 1.081-.47 2.14-1.55 2.365-.139.028-.275.042-.41.042M175.516 54.112c-.7 0-1.38-.368-1.746-1.022-9.52-16.972-24.605-30.505-42.475-38.11-1.016-.431-1.489-1.606-1.057-2.622.432-1.016 1.604-1.491 2.624-1.058 18.68 7.948 34.446 22.094 44.396 39.833.541.963.197 2.183-.765 2.723-.31.173-.646.256-.977.256M29.815 147.068l-4.097-3.888 3.888-4.098 4.097 3.889zM33.336 156.314c0 1.509-1.224 2.733-2.733 2.733-1.51 0-2.733-1.224-2.733-2.733 0-1.51 1.224-2.733 2.733-2.733 1.509 0 2.733 1.224 2.733 2.733" fill="#FFF"/>
        <path d="M153.59 58.853c-1.237 0-2.456-.571-3.238-1.647-.368-.505-.743-1.003-1.125-1.497l-.46-.587c-1.256-1.584-2.557-3.085-3.906-4.508l-.663-.697c-.39-.4-.79-.796-1.192-1.19-1.58-1.542-1.61-4.075-.068-5.656 1.542-1.58 4.074-1.612 5.656-.07.45.44.893.883 1.332 1.332.19.194.372.387.556.58l.182.194c1.515 1.598 2.972 3.279 4.335 4.999.215.272.39.493.562.716.426.553.848 1.11 1.26 1.677 1.3 1.787.905 4.289-.88 5.588-.712.517-1.536.766-2.352.766" fill="#32475C"/>
        <path d="M96.97 170c-10.481 0-20.64-2.168-30.192-6.442l-.38-.173c-3.145-1.43-6.214-3.093-9.125-4.948l-.428-.274c-.681-.44-1.357-.89-2.023-1.351-.018-.012-.082-.06-.1-.071-2.043-1.424-4.053-2.983-5.975-4.636l-.577-.501c-.55-.482-1.09-.966-1.621-1.461l-.528-.504c-1.15-1.092-2.24-2.192-3.241-3.268l-.16-.168c-.46-.498-.896-.995-1.331-1.492-.247-.281-.5-.57-.748-.862-.41-.484-.81-.964-1.201-1.451-.23-.285-.455-.574-.681-.864l-.107-.138c-.53-.681-1.046-1.366-1.55-2.061-.41-.565-.781-1.081-1.14-1.606-.24-.35-.47-.702-.698-1.053l-.188-.287c-.291-.448-.58-.892-.86-1.343-.275-.442-.548-.891-.816-1.343-.294-.495-.582-1.001-.867-1.507l-.18-.32c-.173-.304-.345-.608-.511-.918-.464-.862-.913-1.738-1.344-2.625-.121-.25-.236-.497-.35-.745l-.16-.344c-.288-.621-.571-1.242-.843-1.87-.177-.406-.346-.812-.514-1.218-.263-.64-.518-1.29-.765-1.941l-.121-.317c-.098-.255-.196-.511-.29-.77-.364-1.01-.703-2.01-1.005-2.973-.055-.176-.106-.348-.155-.521l-.076-.262c-.24-.791-.468-1.593-.682-2.401-.098-.368-.19-.738-.281-1.106-.187-.756-.362-1.513-.526-2.277l-.063-.291c-.052-.24-.104-.48-.152-.72-.232-1.154-.422-2.22-.58-3.248l-.056-.41c-.144-.973-.267-1.953-.373-2.94-.033-.302-.061-.606-.09-.911l-.012-.143c-.076-.817-.138-1.64-.187-2.464l-.015-.233c-.016-.266-.032-.531-.045-.797-.06-1.29-.086-2.381-.086-3.431 0-2.522.128-5.066.382-7.562.374-3.681 1.03-7.358 1.948-10.93.603-2.341 1.33-4.68 2.16-6.951.824-2.247 1.769-4.482 2.809-6.641 1.032-2.14 2.18-4.256 3.417-6.29 1.84-3.03 3.92-5.957 6.184-8.698 1.502-1.821 3.109-3.588 4.774-5.254 3.348-3.348 7.033-6.387 10.95-9.033 2.955-1.997 6.082-3.795 9.292-5.342 2.159-1.04 4.394-1.985 6.64-2.807 2.273-.832 4.612-1.56 6.954-2.162 2.37-.61 4.8-1.107 7.226-1.477 3.7-.566 7.49-.853 11.264-.853 1.04 0 2.127.027 3.419.086.276.013.553.029.83.046l.177.01c.836.05 1.675.114 2.51.19l.97.093c1.213.129 2.294.266 3.306.42l.265.046c1.058.167 2.034.343 3.005.536.312.06.625.128.937.195l.1.022c.778.166 1.55.344 2.32.535l.275.067c.233.057.467.114.699.175 1.119.294 2.123.579 3.07.872.148.046.298.096.449.146l.218.073c.81.259 1.61.529 2.405.814.372.133.744.272 1.116.412.672.253 1.34.517 2.004.79l.285.117c.258.104.515.209.77.318.923.396 1.844.81 2.75 1.245.217.103.438.214.657.325l.319.16c.624.31 1.24.624 1.852.949.407.216.814.44 1.219.666.534.296 1.067.605 1.598.918l.286.168c.298.174.596.349.89.53 1.88 1.159 2.466 3.623 1.307 5.504-1.157 1.88-3.624 2.467-5.503 1.308-.243-.15-.49-.294-.736-.44l-.308-.18c-.471-.277-.945-.552-1.424-.818-.365-.203-.725-.401-1.088-.594-.547-.291-1.096-.57-1.648-.844l-.38-.191c-.162-.082-.324-.164-.488-.243-.814-.39-1.634-.758-2.46-1.112-.208-.09-.414-.173-.62-.256l-.318-.13c-.593-.243-1.187-.478-1.785-.704-.333-.125-.662-.248-.994-.367-.71-.254-1.422-.495-2.14-.724l-.593-.196c-.907-.281-1.82-.537-2.74-.778l-.867-.215c-.686-.17-1.374-.33-2.068-.477l-.105-.023c-.272-.058-.542-.116-.816-.17-.867-.172-1.738-.33-2.616-.467l-.24-.041c-.955-.147-1.918-.27-3.007-.385l-.871-.082c-.74-.07-1.49-.126-2.242-.17l-.191-.012c-.233-.014-.467-.03-.701-.04-1.172-.052-2.142-.077-3.06-.077-3.37 0-6.752.256-10.055.76-2.161.33-4.328.774-6.441 1.318-2.087.537-4.172 1.185-6.196 1.926-2.002.733-3.994 1.575-5.918 2.502-2.863 1.38-5.651 2.982-8.287 4.764-3.496 2.36-6.783 5.073-9.77 8.06-1.487 1.488-2.921 3.066-4.262 4.69-2.02 2.446-3.875 5.057-5.517 7.76-1.102 1.814-2.128 3.7-3.047 5.609-.927 1.924-1.77 3.916-2.503 5.918-.74 2.024-1.388 4.109-1.925 6.195-.82 3.184-1.403 6.462-1.737 9.745-.226 2.228-.341 4.5-.341 6.753 0 .925.025 1.9.078 3.068.01.224.024.443.038.663l.015.252c.044.74.1 1.474.168 2.204l.013.148c.025.264.049.528.077.79.095.88.205 1.755.333 2.624l.049.368c.14.904.309 1.852.518 2.893.04.199.082.39.123.58l.07.322c.145.679.3 1.354.467 2.025.082.33.164.66.25.989.19.717.395 1.43.61 2.14l.205.7c.278.886.578 1.769.895 2.644.075.21.155.416.234.622l.132.347c.22.578.446 1.157.683 1.73.15.368.302.728.458 1.088.24.557.493 1.11.75 1.662l.18.389c.09.196.18.393.276.587.382.787.783 1.567 1.198 2.34.138.258.28.509.423.759l.192.34c.252.45.509.9.774 1.347.24.405.482.803.729 1.198.25.405.507.8.765 1.194l.193.298c.198.302.395.605.598.903.317.463.65.92.982 1.38.485.67.948 1.283 1.419 1.889l.106.137c.198.254.395.509.598.76.35.436.708.864 1.069 1.29.215.252.439.51.663.765.395.45.783.895 1.184 1.329l.16.169c.88.946 1.855 1.927 2.886 2.907l.476.455c.467.434.95.868 1.438 1.296l.52.45c1.714 1.475 3.508 2.867 5.33 4.136.016.01.079.056.095.067.588.409 1.19.809 1.799 1.2l.383.246c2.594 1.654 5.33 3.137 8.132 4.41l.353.16c8.505 3.807 17.564 5.74 26.913 5.74 36.393 0 66-29.607 66-66 0-9.135-1.843-17.992-5.478-26.324-.884-2.025.042-4.383 2.066-5.266 2.022-.885 4.382.042 5.266 2.067 4.078 9.347 6.146 19.28 6.146 29.523 0 40.804-33.196 74-74 74" fill="#32475C"/>
    </g>
</svg>
