<svg xmlns="http://www.w3.org/2000/svg" xmlns:xlink="http://www.w3.org/1999/xlink" viewBox="0 0 275.958 136.854"><defs><style>.cls-1{fill:#253858;}.cls-2{isolation:isolate;}.cls-3{fill:#dfe1e5;}.cls-4{fill:#2684ff;}.cls-5{fill:#fff;}.cls-6{clip-path:url(#clip-path);}.cls-42,.cls-7,.cls-8,.cls-9{opacity:0.15;}.cls-20,.cls-42,.cls-45,.cls-7,.cls-8,.cls-9{mix-blend-mode:multiply;}.cls-7{fill:url(#linear-gradient);}.cls-8{fill:url(#linear-gradient-2);}.cls-9{fill:url(#linear-gradient-3);}.cls-10{opacity:0.8;}.cls-11{fill:#6c798f;}.cls-12{fill:#00a3bf;}.cls-13,.cls-20{fill:#c1c7d0;}.cls-14{fill:#4c9aff;}.cls-15{fill:#ffab00;}.cls-16,.cls-46{fill:none;}.cls-17{fill:#ffc400;}.cls-18{fill:#ffe380;}.cls-19{fill:#fff0b2;}.cls-21{fill:url(#linear-gradient-4);}.cls-22{fill:#ff8b00;}.cls-23{fill:#00c7e5;}.cls-24{fill:url(#linear-gradient-5);}.cls-25{fill:url(#linear-gradient-6);}.cls-26{fill:url(#linear-gradient-7);}.cls-27{fill:#ff991f;}.cls-28{fill:#f4f5f7;}.cls-29{fill:#b3bac5;}.cls-30{fill:#0049b0;}.cls-31{fill:#344563;}.cls-32{fill:#0065ff;}.cls-33{fill:#5e6c84;}.cls-34{fill:url(#linear-gradient-8);}.cls-35{fill:#fcb123;}.cls-36{fill:#505f79;}.cls-37{fill:#f1dad5;}.cls-38{fill:url(#linear-gradient-9);}.cls-39{fill:url(#linear-gradient-10);}.cls-40{fill:url(#linear-gradient-11);}.cls-41{fill:#b2d4ff;}.cls-42{fill:url(#linear-gradient-12);}.cls-43{opacity:0.1;fill:url(#linear-gradient-13);}.cls-44{fill:#a27f68;}.cls-46{stroke:#4c9aff;stroke-linecap:round;stroke-miterlimit:10;stroke-width:0.835px;}</style><clipPath id="clip-path"><path id="_Clipping_Path_" data-name="&lt;Clipping Path&gt;" class="cls-1" d="M239.2,121.971H52.067a.9.9,0,0,1-.9-.9v-91.7H240.1v91.7A.9.9,0,0,1,239.2,121.971Z"/></clipPath><linearGradient id="linear-gradient" x1="209.752" y1="79.706" x2="240.102" y2="79.706" gradientUnits="userSpaceOnUse"><stop offset="0.124" stop-color="#091e42"/><stop offset="1" stop-color="#091e42" stop-opacity="0"/></linearGradient><linearGradient id="linear-gradient-2" x1="209.752" y1="59.723" x2="240.102" y2="59.723" xlink:href="#linear-gradient"/><linearGradient id="linear-gradient-3" x1="209.752" y1="39.74" x2="240.102" y2="39.74" xlink:href="#linear-gradient"/><linearGradient id="linear-gradient-4" x1="51.163" y1="25.888" x2="240.102" y2="25.888" gradientUnits="userSpaceOnUse"><stop offset="0.124" stop-color="#c1c7d0"/><stop offset="1" stop-color="#dfe1e5"/></linearGradient><linearGradient id="linear-gradient-5" x1="105.907" y1="62.806" x2="123.031" y2="60.717" gradientUnits="userSpaceOnUse"><stop offset="0.124" stop-color="#2684ff"/><stop offset="1" stop-color="#0065ff"/></linearGradient><linearGradient id="linear-gradient-6" x1="88.447" y1="2.983" x2="105.02" y2="2.983" gradientTransform="translate(18.05 70.22) rotate(-6.956)" xlink:href="#linear-gradient-5"/><linearGradient id="linear-gradient-7" x1="33.383" y1="127.657" x2="77.117" y2="83.923" gradientUnits="userSpaceOnUse"><stop offset="0.005" stop-color="#c1c7d0"/><stop offset="0.029" stop-color="#c6cbd4"/><stop offset="0.139" stop-color="#d7dae0"/><stop offset="0.276" stop-color="#e2e4e9"/><stop offset="0.467" stop-color="#e9eaef"/><stop offset="1" stop-color="#ebecf0"/></linearGradient><linearGradient id="linear-gradient-8" x1="214.872" y1="990.941" x2="214.872" y2="890.043" gradientTransform="translate(-90.345 -931.558)" gradientUnits="userSpaceOnUse"><stop offset="0" stop-color="#ff991f"/><stop offset="1" stop-color="#ffc400"/></linearGradient><linearGradient id="linear-gradient-9" x1="211.8" y1="82.936" x2="275.958" y2="82.936" gradientUnits="userSpaceOnUse"><stop offset="0.124" stop-color="#dfe1e5"/><stop offset="1" stop-color="#dfe1e5" stop-opacity="0.7"/></linearGradient><linearGradient id="linear-gradient-10" x1="211.8" y1="62.891" x2="275.958" y2="62.891" xlink:href="#linear-gradient-9"/><linearGradient id="linear-gradient-11" x1="211.8" y1="42.845" x2="275.958" y2="42.845" xlink:href="#linear-gradient-9"/><linearGradient id="linear-gradient-12" x1="158.4" y1="121.38" x2="158.4" y2="90.327" gradientUnits="userSpaceOnUse"><stop offset="0" stop-color="#091e42" stop-opacity="0"/><stop offset="0.876" stop-color="#091e42"/></linearGradient><linearGradient id="linear-gradient-13" x1="128.475" y1="148.104" x2="165.858" y2="110.721" xlink:href="#linear-gradient-12"/></defs><title>Design Tools</title><g class="cls-2"><g id="Layer_2" data-name="Layer 2"><g id="Layer_1-2" data-name="Layer 1"><path class="cls-3" d="M57.176,20.1H56.45V16.464h.726Zm0-5.569H56.45V10.9h.726Zm0-5.569H56.45V5.327h.726Zm0-5.569H56.45V0h.726Z"/><path class="cls-3" d="M49.307,42.789H45.676v-.726h3.632Zm-5.569,0H40.107v-.726h3.632Zm-5.569,0H34.538v-.726H38.17Zm-5.569,0H30.422v-.726H32.6Z"/><rect class="cls-4" x="0.161" y="41.235" width="22.263" height="22.263" rx="0.968" ry="0.968"/><rect class="cls-4" x="24.522" y="16.828" width="22.263" height="22.263" rx="0.968" ry="0.968"/><rect class="cls-4" y="16.828" width="22.263" height="22.263" rx="0.968" ry="0.968"/><path class="cls-5" d="M12.039,45.967h-.462v5.56a.85.85,0,0,0,.258.638,1.053,1.053,0,1,1-1.425.018.976.976,0,0,0,.277-.717v-5.5h-.462L7.538,52.834a3,3,0,0,0,.869,2.943h0a3,3,0,0,1,.962,2.2v.891h3.525v-.891a3,3,0,0,1,.962-2.2h0a3,3,0,0,0,.869-2.943Z"/><path class="cls-5" d="M11.132,33.615a5.655,5.655,0,1,1,5.655-5.654A5.661,5.661,0,0,1,11.132,33.615Zm0-10.2A4.548,4.548,0,1,0,15.68,27.96,4.553,4.553,0,0,0,11.132,23.412Z"/><path class="cls-5" d="M32.107,33.666a.552.552,0,0,1-.391-.162l-1.972-1.972a.553.553,0,0,1,0-.783l2.48-2.48-2.034-.9a.553.553,0,0,1,.008-1.015l10.366-4.393a.553.553,0,0,1,.725.725L36.9,33.05a.553.553,0,0,1-.5.337h0a.553.553,0,0,1-.506-.329l-.9-2.034L32.5,33.5A.552.552,0,0,1,32.107,33.666Zm-1.19-2.526,1.19,1.19,2.659-2.659a.553.553,0,0,1,.9.167l.712,1.6,3.361-7.932L31.8,26.873l1.6.712a.553.553,0,0,1,.167.9Z"/><path id="_Clipping_Path_2" data-name="&lt;Clipping Path&gt;" class="cls-1" d="M239.2,121.971H52.067a.9.9,0,0,1-.9-.9v-91.7H240.1v91.7A.9.9,0,0,1,239.2,121.971Z"/><g class="cls-6"><path class="cls-7" d="M240.1,88.2H210.154a.4.4,0,0,1-.4-.4V71.61a.4.4,0,0,1,.4-.4H240.1Z"/><path class="cls-8" d="M240.1,68.22H210.154a.4.4,0,0,1-.4-.4V51.627a.4.4,0,0,1,.4-.4H240.1Z"/><path class="cls-9" d="M240.1,48.237H210.154a.4.4,0,0,1-.4-.4V31.644a.4.4,0,0,1,.4-.4H240.1Z"/><g class="cls-10"><rect class="cls-11" x="118.964" y="49.054" width="57.066" height="1.582"/><rect class="cls-12" x="118.964" y="54.478" width="57.066" height="1.582"/><rect class="cls-11" x="205.895" y="59.902" width="25.053" height="1.582"/><rect class="cls-13" x="198.696" y="59.902" width="4.94" height="1.582"/><rect class="cls-11" x="118.964" y="59.902" width="77.472" height="1.582"/><rect class="cls-12" x="189.623" y="65.326" width="41.325" height="1.582"/><rect class="cls-11" x="118.964" y="65.326" width="68.399" height="1.582"/><rect class="cls-11" x="118.964" y="70.75" width="75.937" height="1.582"/><rect class="cls-13" x="118.964" y="76.174" width="75.711" height="1.582"/><rect class="cls-11" x="185.434" y="81.598" width="25.626" height="1.582"/><line class="cls-14" x1="118.964" y1="82.389" x2="183.174" y2="82.389"/><rect class="cls-13" x="118.964" y="81.598" width="64.21" height="1.582"/><line class="cls-14" x1="118.964" y1="87.813" x2="205.071" y2="87.813"/><rect class="cls-12" x="118.964" y="87.022" width="86.107" height="1.582"/><rect class="cls-15" x="204.554" y="92.446" width="19.389" height="1.582"/><line class="cls-14" x1="118.964" y1="93.238" x2="202.294" y2="93.238"/><rect class="cls-11" x="118.964" y="92.446" width="83.33" height="1.582"/><rect class="cls-11" x="193.325" y="97.871" width="30.618" height="1.582"/><line class="cls-14" x1="118.964" y1="98.662" x2="191.065" y2="98.662"/><rect class="cls-15" x="118.964" y="97.871" width="72.101" height="1.582"/><line class="cls-14" x1="118.964" y1="104.086" x2="202.585" y2="104.086"/><rect class="cls-11" x="118.964" y="103.295" width="83.621" height="1.582"/><rect class="cls-11" x="165.859" y="108.719" width="37.178" height="1.582"/><line class="cls-14" x1="118.964" y1="109.51" x2="163.599" y2="109.51"/><rect class="cls-12" x="118.964" y="108.719" width="44.636" height="1.582"/><line class="cls-14" x1="118.964" y1="114.934" x2="189.703" y2="114.934"/><rect class="cls-12" x="118.964" y="114.143" width="70.739" height="1.582"/></g></g><polygon class="cls-3" points="51.163 121.971 88.703 121.827 92.973 121.971 95.685 121.971 95.685 117.533 129.36 117.533 129.36 121.971 132.072 121.971 132.072 117.533 147.214 117.533 147.214 114.595 132.072 114.595 132.072 80.92 147.214 80.92 147.214 77.982 132.072 77.982 132.072 44.308 147.214 44.308 147.214 38.651 137.925 38.651 137.925 26.114 51.163 26.114 51.163 87.653 51.163 121.971"/><path class="cls-16" d="M59.095,115.349l.014-.005a10.392,10.392,0,0,0-7.946-19.205v19.251a10.369,10.369,0,0,0,7.932-.04Z"/><polygon class="cls-17" points="132.072 77.982 147.214 77.982 147.214 75.682 137.925 75.682 137.925 75.27 134.784 75.27 134.784 47.02 147.214 47.02 147.214 44.308 132.072 44.308 132.072 77.982"/><polygon class="cls-18" points="134.784 75.27 137.925 75.27 137.925 66.393 147.214 66.393 147.214 57.167 137.925 57.167 137.925 47.877 147.214 47.877 147.214 47.02 134.784 47.02 134.784 75.27"/><polygon class="cls-17" points="132.072 114.595 147.214 114.595 147.214 112.713 137.925 112.713 137.925 111.883 134.784 111.883 134.784 83.632 147.214 83.632 147.214 80.92 132.072 80.92 132.072 114.595"/><polygon class="cls-19" points="134.784 111.883 137.925 111.883 137.925 103.423 147.214 103.423 147.214 94.198 137.925 94.198 137.925 84.908 147.214 84.908 147.214 83.632 134.784 83.632 134.784 111.883"/><rect class="cls-4" x="132.072" y="117.533" width="15.142" height="4.438"/><rect class="cls-13" x="95.685" y="117.533" width="33.675" height="4.438"/><path class="cls-3" d="M69.375,117.533H59.3v4.438h4.742A18.4,18.4,0,0,0,69.375,117.533Z"/><rect class="cls-13" x="59.299" y="117.533" width="33.675" height="4.438"/><rect class="cls-13" x="59.299" y="44.308" width="33.675" height="33.675"/><rect class="cls-13" x="59.299" y="80.92" width="33.675" height="33.675"/><rect class="cls-13" x="62.011" y="83.632" width="28.25" height="28.25" transform="translate(173.894 21.622) rotate(90)"/><rect class="cls-4" x="95.685" y="44.308" width="33.675" height="33.675"/><rect class="cls-14" x="98.397" y="47.02" width="28.25" height="28.25" transform="translate(173.668 -51.378) rotate(90)"/><rect class="cls-13" x="95.685" y="80.92" width="33.675" height="33.675"/><circle class="cls-4" cx="105.404" cy="54.93" r="2.938"/><path class="cls-13" d="M162.243,42.5h-3.39v-.678h3.39Zm-5.2,0h-3.39v-.678h3.39Zm-5.2,0h-3.39v-.678h3.39Zm-5.2,0h-3.39v-.678h3.39Zm-5.2,0h-3.39v-.678h3.39Zm-5.2,0h-3.39v-.678h3.39Zm-5.2,0h-3.39v-.678h3.39Zm-5.2,0h-3.39v-.678h3.39Zm-5.2,0h-3.39v-.678h3.39Zm-5.2,0h-3.39v-.678h3.39Zm-5.2,0h-3.39v-.678h3.39Zm-5.2,0h-3.39v-.678h3.39Zm-5.2,0h-3.39v-.678h3.39Zm-5.2,0h-3.39v-.678h3.39Zm-5.2,0H86.08v-.678h3.39Zm-5.2,0h-3.39v-.678h3.39Zm-5.2,0h-3.39v-.678h3.39Zm-5.2,0h-3.39v-.678h3.39Zm-5.2,0h-3.39v-.678h3.39Zm-5.2,0H60.09v-.678h3.39Zm-5.2,0h-3.39v-.678h3.39Z"/><path class="cls-3" d="M69.823,116.981"/><rect class="cls-13" x="56.361" y="31.651" width="0.678" height="1.695"/><path class="cls-13" d="M57.039,118.285h-.678v-3.462h.678Zm0-5.309h-.678v-3.462h.678Zm0-5.309h-.678v-3.462h.678Zm0-5.309h-.678V98.9h.678Zm0-5.309h-.678V93.589h.678Zm0-5.309h-.678V88.28h.678Zm0-5.309h-.678V82.971h.678Zm0-5.309h-.678V77.662h.678Zm0-5.309h-.678V72.354h.678Zm0-5.309h-.678V67.045h.678Zm0-5.309h-.678V61.736h.678Zm0-5.309h-.678V56.428h.678Zm0-5.309h-.678V51.119h.678Zm0-5.309h-.678V45.81h.678Zm0-5.309h-.678V40.5h.678Zm0-5.309h-.678V35.193h.678Z"/><rect class="cls-13" x="56.361" y="120.132" width="0.678" height="1.695"/><path class="cls-20" d="M69.375,117.533c.15-.183.3-.364.447-.552a18.525,18.525,0,0,0-18.66-29.328v8.485a10.392,10.392,0,0,1,7.946,19.205l-.014.005a10.369,10.369,0,0,1-7.932.04v6.581H59.3Z"/><circle class="cls-3" cx="63.367" cy="35.946" r="4.068"/><rect class="cls-3" x="71.842" y="34.364" width="21.131" height="3.164"/><rect class="cls-3" x="95.798" y="34.364" width="21.131" height="3.164"/><path class="cls-21" d="M147.214,29.391H51.163v-6.1a.9.9,0,0,1,.9-.9H239.2a.9.9,0,0,1,.9.9v6.1H147.214"/><circle class="cls-22" cx="55.502" cy="25.73" r="1.627"/><circle class="cls-17" cx="60.655" cy="25.73" r="1.627"/><circle class="cls-23" cx="65.808" cy="25.73" r="1.627"/><path class="cls-24" d="M123.535,67.986h-.006l-16.732-.3a.339.339,0,0,1-.274-.529l8.6-12.689a.353.353,0,0,1,.287-.149.339.339,0,0,1,.281.159l8.133,12.993a.339.339,0,0,1-.287.519Zm-16.1-.97,15.482.281L115.39,55.276Z"/><path class="cls-25" d="M120.544,62.869,115.4,54.655l-8.6,12.689,12.456.226A31.786,31.786,0,0,0,120.544,62.869Z"/><path class="cls-26" d="M55.25,136.729A30.939,30.939,0,1,1,86.189,105.79,30.974,30.974,0,0,1,55.25,136.729Zm0-45.315A14.376,14.376,0,1,0,69.626,105.79,14.393,14.393,0,0,0,55.25,91.414Z"/><path class="cls-27" d="M69.288,97.566l10.986-6.341a28.752,28.752,0,0,1,3.872,14.442H71.46A16.129,16.129,0,0,0,69.288,97.566Z"/><path class="cls-3" d="M69.273,113.8l10.974,6.362a29.025,29.025,0,0,1-10.59,10.554l-6.325-11A16.282,16.282,0,0,0,69.273,113.8Z"/><path class="cls-15" d="M63.359,91.634,69.7,80.65a29.025,29.025,0,0,1,10.57,10.575L69.288,97.566A16.282,16.282,0,0,0,63.359,91.634Z"/><path class="cls-28" d="M71.46,105.668H84.146a28.752,28.752,0,0,1-3.9,14.491L69.273,113.8A16.129,16.129,0,0,0,71.46,105.668Z"/><path class="cls-17" d="M55.258,89.458l.006-12.686A28.751,28.751,0,0,1,69.7,80.65L63.359,91.634A16.129,16.129,0,0,0,55.258,89.458Z"/><path class="cls-11" d="M55.227,121.877l-.018,12.686a28.751,28.751,0,0,1-14.437-3.892l6.356-10.977A16.128,16.128,0,0,0,55.227,121.877Z"/><path class="cls-29" d="M55.25,121.878a16.129,16.129,0,0,0,8.082-2.161l6.325,11a28.752,28.752,0,0,1-14.406,3.851h-.042l.018-12.686Z"/><path class="cls-30" d="M39.04,105.668a16.129,16.129,0,0,0,2.164,8.088l-10.992,6.33a28.752,28.752,0,0,1-3.858-14.418v-.028l12.686.012Z"/><path class="cls-31" d="M47.128,119.694l-6.356,10.977a29.025,29.025,0,0,1-10.56-10.585l10.992-6.33A16.283,16.283,0,0,0,47.128,119.694Z"/><path class="cls-18" d="M55.25,76.771a28.738,28.738,0,0,0-12.266,2.737l6.378,11.064a16.119,16.119,0,0,1,5.888-1.115h.008l.006-12.686Z"/><path class="cls-32" d="M26.354,105.64l12.686.012a16.121,16.121,0,0,1,1.123-5.895L29.109,93.363A28.74,28.74,0,0,0,26.354,105.64Z"/><path class="cls-14" d="M40.924,80.168A34.61,34.61,0,0,0,29.772,91.3l11.661,6.745a21.068,21.068,0,0,1,6.219-6.21Z"/><polygon class="cls-33" points="46.078 96.848 46.078 100.02 49.25 96.848 46.078 96.848"/><polygon id="_Path_" data-name="&lt;Path&gt;" class="cls-18" points="190.847 8.933 174.977 2.832 174.977 15.034 190.847 8.933"/><rect class="cls-34" x="118.427" y="-41.516" width="12.202" height="100.898" transform="translate(133.461 -115.594) rotate(90)"/><polygon class="cls-31" points="185.177 11.113 190.847 8.933 185.177 6.753 185.177 11.113"/><rect class="cls-35" x="121.477" y="-44.566" width="6.101" height="100.898" transform="translate(130.41 -118.645) rotate(90)"/><path class="cls-31" d="M61.876,2.832h12.2a0,0,0,0,1,0,0v6.1a6.1,6.1,0,0,1-6.1,6.1h0a6.1,6.1,0,0,1-6.1-6.1v-6.1a0,0,0,0,1,0,0Z" transform="translate(76.911 -59.044) rotate(90)"/><rect class="cls-36" x="67.069" y="2.832" width="0.923" height="12.202"/><rect class="cls-36" x="69.588" y="2.832" width="0.923" height="12.202"/><path class="cls-37" d="M239.854,83.89"/><rect class="cls-38" x="211.8" y="74.412" width="64.159" height="17.048" rx="0.403" ry="0.403"/><rect class="cls-39" x="211.8" y="54.367" width="64.158" height="17.048" rx="0.403" ry="0.403"/><rect class="cls-40" x="211.8" y="34.321" width="64.158" height="17.048" rx="0.403" ry="0.403"/><circle class="cls-4" cx="220.841" cy="42.845" r="5.095"/><circle class="cls-15" cx="220.841" cy="62.891" r="5.095"/><circle class="cls-22" cx="220.841" cy="82.936" r="5.095"/><line class="cls-41" x1="229.9" y1="41.194" x2="269.425" y2="41.194"/><rect class="cls-29" x="229.9" y="40.647" width="39.525" height="1.095"/><line class="cls-41" x1="229.9" y1="44.496" x2="251.191" y2="44.496"/><rect class="cls-29" x="229.9" y="43.949" width="21.291" height="1.095"/><line class="cls-41" x1="229.9" y1="61.24" x2="269.425" y2="61.24"/><rect class="cls-29" x="229.9" y="60.692" width="39.525" height="1.095"/><line class="cls-41" x1="229.9" y1="64.542" x2="251.191" y2="64.542"/><rect class="cls-29" x="229.9" y="63.994" width="21.291" height="1.095"/><line class="cls-41" x1="229.9" y1="80.819" x2="269.425" y2="80.819"/><rect class="cls-29" x="229.9" y="80.272" width="39.525" height="1.095"/><line class="cls-41" x1="229.9" y1="84.121" x2="251.191" y2="84.121"/><rect class="cls-29" x="229.9" y="83.574" width="21.291" height="1.095"/><rect class="cls-42" x="138.813" y="90.327" width="39.175" height="31.053"/><polygon class="cls-43" points="160.585 136.854 177.107 121.971 140.384 121.971 117.226 136.854 160.585 136.854"/><path class="cls-44" d="M127,104.373l.577,1.991a.234.234,0,0,1-.242.348.306.306,0,0,1-.145.27.314.314,0,0,1-.382-.064.284.284,0,0,1-.171.145c-.143.03-.334-.106-.407-.359a.366.366,0,0,1-.25.037.374.374,0,0,1-.24-.181c-.364-.662-.619-1.063-.619-1.063a1.636,1.636,0,0,1-.18-.873,1.191,1.191,0,0,1,.14-.4c-.364-.231-.358-.384-.352-.425.031-.214.489-.369,1.156-.389Z"/><path class="cls-44" d="M126.483,103.473l.293.246a2.393,2.393,0,0,1,.61.781l.635,1.3h0a.543.543,0,0,1-.715-.181l-.307-.473-1.577-.882.2-.876h0A.765.765,0,0,1,126.483,103.473Z"/><polygon class="cls-14" points="160.583 136.854 116.345 136.854 126.523 92.617 170.761 92.617 160.583 136.854"/><polygon class="cls-41" points="121.094 133.074 129.533 96.397 166.012 96.397 157.574 133.074 121.094 133.074"/><path class="cls-14" d="M139.707,121.6a8.1,8.1,0,0,1-7.454,5.856,4.464,4.464,0,0,1-4.517-5.856,8.1,8.1,0,0,1,7.454-5.856A4.464,4.464,0,0,1,139.707,121.6Z"/><polygon class="cls-14" points="152.177 127.152 140.521 127.152 143.38 115.749 155.036 115.749 152.177 127.152"/><polygon class="cls-14" points="145.836 101.801 135.334 113.283 150.618 113.262 145.836 101.801"/><g class="cls-45"><path class="cls-46" d="M117.385,101.427"/></g><g class="cls-45"><path class="cls-46" d="M116.6,87.474"/></g></g></g></g></svg>